<svg xmlns="http://www.w3.org/2000/svg" width="528" height="720" viewBox="0 0 528 720" class="a"><style>
.b {fill:#a5a5a5;fill-opacity:0.2;stroke:#0050c0;stroke-linecap:round;stroke-linejoin:round;stroke-width:2.25}
.c {fill:#a5a5a5;fill-opacity:0.2;stroke:#0070f7;stroke-linecap:round;stroke-linejoin:round;stroke-width:2.25}
.d {fill:#0070f7;stroke:none;stroke-linecap:round;stroke-linejoin:round;stroke-width:0.25}
.e {fill:#ffffff;font-family:Arial;font-size:1.17em;font-weight:bold}
.f {font-size:1em}
.g {baseline-shift:32.49%;font-size:0.65em}
.h {fill:#0050c0;stroke:none;stroke-linecap:round;stroke-linejoin:round;stroke-width:0.25}
.i {fill:#0050c0;stroke:#0050c0;stroke-linecap:round;stroke-linejoin:round;stroke-width:2.25}
.j {fill:#ffffff;font-family:Arial;font-size:1.67em;font-weight:bold}
.k {fill:#0070f7;stroke:#0070f7;stroke-linecap:round;stroke-linejoin:round;stroke-width:2.25}
.a {fill:none;fill-rule:evenodd;font-size:12px;overflow:visible;stroke-linecap:square;stroke-miterlimit:3}
</style><rect x="16" y="16" width="496" height="688" rx="8" ry="8" class="b"/><rect x="32" y="256" width="464" height="432" rx="8" ry="8" class="c"/><a target="_blank" href="https://docs.microsoft.com/azure/active-directory/reports-monitoring/"><rect x="48" y="304" width="96" height="80" rx="8" ry="8" class="d"/><text x="62.55" y="323" class="e">Advanced <tspan x="68.38" dy="1.2em" class="f">Security </tspan><tspan x="62.55" dy="1.2em" class="f">Reports &amp; </tspan><tspan x="76.16" dy="1.2em" class="f">Alerts</tspan></text></a><a target="_blank" href="https://docs.microsoft.com/azure/active-directory/hybrid/how-to-connect-sso"><rect x="160" y="592" width="96" height="80" rx="8" ry="8" class="d"/><text x="167.17" y="619.4" class="e">Single-Sign-<tspan x="170.28" dy="1.2em" class="f">On to other </tspan><tspan x="190.88" dy="1.2em" class="f">SaaS</tspan></text></a><a target="_blank" href="https://docs.microsoft.com/azure/active-directory/manage-apps/application-proxy"><rect x="160" y="304" width="96" height="80" rx="8" ry="8" class="d"/><text x="171.05" y="331.4" class="e">App Proxy, <tspan x="176.89" dy="1.2em" class="f">including </tspan><tspan x="168.31" dy="1.2em" class="f">PingAccess</tspan></text></a><a target="_blank" href="https://docs.microsoft.com/azure/active-directory/authentication/concept-mfa-howitworks"><rect x="160" y="496" width="96" height="80" rx="8" ry="8" class="d"/><text x="167.95" y="531.8" class="e">Multi-Factor <tspan x="170.29" dy="1.2em" class="f">Auth (MFA)</tspan></text></a><a target="_blank" href="https://docs.microsoft.com/azure/active-directory/hybrid/whatis-azure-ad-connect#what-is-azure-ad-connect-health"><rect x="272" y="304" width="96" height="80" rx="8" ry="8" class="d"/><text x="288.5" y="331.4" class="e">Azure AD <tspan x="292" dy="1.2em" class="f">Connect </tspan><tspan x="298.61" dy="1.2em" class="f">Health</tspan></text></a><a target="_blank" href="https://docs.microsoft.com/cloud-app-security/set-up-cloud-discovery"><rect x="160" y="400" width="96" height="80" rx="8" ry="8" class="d"/><text x="172.62" y="435.8" class="e">Cloud App <tspan x="174.54" dy="1.2em" class="f">Discovery</tspan></text></a><a target="_blank" href="https://docs.microsoft.com/azure/active-directory/users-groups-roles/users-sharing-accounts"><rect x="48" y="592" width="96" height="80" rx="8" ry="8" class="d"/><text x="72.27" y="611" class="e">Shared <tspan x="68" dy="1.2em" class="f">Account </tspan><tspan x="62.93" dy="1.2em" class="f">Password </tspan><tspan x="64.49" dy="1.2em" class="f">Roll</tspan>-Over</text></a><a target="_blank" href="https://docs.microsoft.com/azure/active-directory/authentication/concept-sspr-howitworks"><rect x="384" y="496" width="96" height="80" rx="8" ry="8" class="d"/><text x="391.92" y="523.4" class="e">Self-Service <tspan x="398.93" dy="1.2em" class="f">Password </tspan><tspan x="392.71" dy="1.2em" class="f">Reset in AD</tspan></text></a><a target="_blank" href="https://docs.microsoft.com/azure/active-directory/users-groups-roles/groups-self-service-management"><rect x="272" y="496" width="96" height="80" rx="8" ry="8" class="d"/><text x="279.92" y="523.4" class="e">Self-Service <tspan x="299" dy="1.2em" class="f">Group </tspan><tspan x="277.21" dy="1.2em" class="f">Management</tspan></text></a><a target="_blank" href="https://docs.microsoft.com/azure/active-directory/conditional-access/overview"><rect x="272" y="400" width="96" height="80" rx="8" ry="8" class="d"/><text x="281.51" y="435.8" class="e">Conditional <tspan x="295.48" dy="1.2em" class="f">Access</tspan></text></a><a target="_blank" href="https://docs.microsoft.com/azure/active-directory/external-identities/"><rect x="383.2" y="304" width="96" height="80" rx="8" ry="8" class="d"/><text x="399.7" y="331.4" class="e">Azure AD <tspan x="403.58" dy="1.2em" class="f">External </tspan><tspan x="400.47" dy="1.2em" class="f">Identities</tspan></text></a><a target="_blank" href="https://docs.microsoft.com/azure/active-directory/devices/enterprise-state-roaming-overview"><rect x="384" y="400" width="96" height="80" rx="8" ry="8" class="d"/><text x="397.38" y="427.4" class="e">Enterprise <tspan x="414.88" dy="1.2em" class="f">State </tspan><tspan x="402.06" dy="1.2em" class="f">Roaming</tspan></text></a><a target="_blank" href="https://docs.microsoft.com/azure/active-directory/governance/active-directory-tou"><rect x="272" y="592" width="96" height="80" rx="8" ry="8" class="d"/><text x="290.44" y="627.8" class="e">Terms of <tspan x="307.16" dy="1.2em" class="f">Use</tspan></text></a><a target="_blank" href="https://docs.microsoft.com/azure/active-directory/authentication/concept-password-ban-bad"><rect x="48" y="400" width="96" height="80" rx="8" ry="8" class="d"/><text x="64.5" y="427.4" class="e">Azure AD <tspan x="62.93" dy="1.2em" class="f">Password </tspan><tspan x="61.39" dy="1.2em" class="f">Protection</tspan></text></a><a target="_blank" href="https://docs.microsoft.com/microsoft-identity-manager/"><rect x="48" y="496" width="96" height="80" rx="8" ry="8" class="d"/><text x="64.5" y="523.4" class="e">Microsoft <tspan x="71.11" dy="1.2em" class="f">Identity </tspan><tspan x="67.21" dy="1.2em" class="f">Manager</tspan></text></a><a target="_blank" href="https://docs.microsoft.com/azure/active-directory/conditional-access/controls#custom-controls-preview"><rect x="384" y="592" width="96" height="80" rx="8" ry="8" class="d"/><text x="404.78" y="619.4" class="e">3<tspan dy="-0.24em" class="g">rd </tspan><tspan dy="0.15em" class="f">Party  </tspan><tspan x="416.84" dy="1.2em" class="f">MFA </tspan><tspan x="395.83" dy="1.2em" class="f">Integration</tspan></text></a><a target="_blank" href="https://docs.microsoft.com/azure/active-directory/identity-protection/overview"><rect x="160" y="64" width="96" height="80" rx="8" ry="8" class="h"/><text x="188.55" y="91.4" class="e">Azure <tspan x="183.11" dy="1.2em" class="f">Identity </tspan><tspan x="173.39" dy="1.2em" class="f">Protection</tspan></text></a><a target="_blank" href="https://docs.microsoft.com/azure/active-directory/active-directory-privileged-identity-management-configure"><rect x="384" y="64" width="96" height="80" rx="8" ry="8" class="h"/><text x="398.54" y="91.4" class="e">Privileged <tspan x="407.11" dy="1.2em" class="f">Identity </tspan><tspan x="389.21" dy="1.2em" class="f">Management</tspan></text></a><a target="_blank" href="https://docs.microsoft.com/azure/active-directory/governance/access-reviews-overview"><rect x="48" y="64" width="96" height="80" rx="8" ry="8" class="h"/><text x="71.48" y="99.8" class="e">Access <tspan x="67.98" dy="1.2em" class="f">Reviews</tspan></text></a><a target="_blank" href="https://docs.microsoft.com/azure/active-directory/active-directory-conditional-access-conditions#sign-in-risk"><rect x="48" y="160" width="96" height="80" rx="8" ry="8" class="h"/><text x="57.87" y="187.4" class="e">Risk-Based <tspan x="57.51" dy="1.2em" class="f">Conditional </tspan><tspan x="71.48" dy="1.2em" class="f">Access</tspan></text></a><a target="_blank" href="https://docs.microsoft.com/azure/active-directory/governance/entitlement-management-overview"><rect x="272" y="64" width="96" height="80" rx="8" ry="8" class="h"/><text x="281.89" y="99.8" class="e">Entitlement <tspan x="277.21" dy="1.2em" class="f">Management</tspan></text></a><a target="_blank" href="https://azure.microsoft.com/pricing/details/active-directory/"><rect x="16" y="16" width="496" height="32" rx="8" ry="8" class="i"/><text x="141.19" y="38" class="j">Azure AD Premium Plan 2</text></a><a target="_blank" href="https://azure.microsoft.com/pricing/details/active-directory/"><rect x="32" y="256" width="464" height="32" rx="8" ry="8" class="k"/><text x="141.19" y="278" class="j">Azure AD Premium Plan 1</text></a></svg>