<svg xmlns="http://www.w3.org/2000/svg" width="768" height="720" viewBox="0 0 768 720" class="a"><style>
.b {fill:#a5a5a5;fill-opacity:0.2;stroke:#3c3c3c;stroke-linecap:round;stroke-linejoin:round;stroke-width:2.25}
.c {fill:#a5a5a5;fill-opacity:0.2;stroke:#606060;stroke-dasharray:15.75,11.25;stroke-linecap:round;stroke-linejoin:round;stroke-width:2.25}
.d {fill:#a5a5a5;fill-opacity:0.2;stroke:#0050c0;stroke-linecap:round;stroke-linejoin:round;stroke-width:2.25}
.e {fill:#a5a5a5;fill-opacity:0.2;stroke:#0070f7;stroke-dasharray:2.25,4.5;stroke-linecap:round;stroke-linejoin:round;stroke-width:2.25}
.f {fill:#a5a5a5;fill-opacity:0.2;stroke:#d04a00;stroke-linecap:round;stroke-linejoin:round;stroke-width:2.25}
.g {fill:#a5a5a5;fill-opacity:0.2;stroke:#c42500;stroke-dasharray:2.25,4.5;stroke-linecap:round;stroke-linejoin:round;stroke-width:2.25}
.h {fill:#2080a0;stroke:none;stroke-linecap:round;stroke-linejoin:round;stroke-width:0.5}
.i {fill:#ffffff;font-family:Arial;font-size:1.17em;font-weight:bold}
.j {font-size:1em}
.k {fill:#c42500;stroke:#c42500;stroke-linecap:round;stroke-linejoin:round;stroke-width:2.25}
.l {fill:#ffffff;font-family:Arial;font-size:1em;font-weight:bold}
.m {fill:#0050c0;stroke:#0050c0;stroke-linecap:round;stroke-linejoin:round;stroke-width:2.25}
.n {fill:#ffffff;font-family:Arial;font-size:1.67em;font-weight:bold}
.o {fill:#d04a00;stroke:#d04a00;stroke-linecap:round;stroke-linejoin:round;stroke-width:2.25}
.p {fill:#0070f7;stroke:#0070f7;stroke-linecap:round;stroke-linejoin:round;stroke-width:2.25}
.q {fill:#a41500;stroke:none;stroke-linecap:round;stroke-linejoin:round;stroke-width:1}
.r {fill:#e82200;stroke:none;stroke-linecap:round;stroke-linejoin:round;stroke-width:1}
.s {fill:#606060;stroke:#606060;stroke-linecap:round;stroke-linejoin:round;stroke-width:2.25}
.t {fill:#3c3c3c;stroke:#3c3c3c;stroke-linecap:round;stroke-linejoin:round;stroke-width:2.25}
.a {fill:none;fill-rule:evenodd;font-size:12px;overflow:visible;stroke-linecap:square;stroke-miterlimit:3}
</style><rect x="16" y="16" width="736" height="688" rx="8" ry="8" class="b"/><rect x="32" y="336" width="704" height="352" rx="8" ry="8" class="c"/><rect x="48" y="80" width="560" height="544" rx="8" ry="8" class="d"/><rect x="64" y="352" width="528" height="256" rx="8" ry="8" class="e"/><rect x="416" y="176" width="160" height="368" rx="8" ry="8" class="f"/><rect x="432" y="368" width="128" height="160" rx="8" ry="8" class="g"/><a target="_blank" href="https://docs.microsoft.com/advanced-threat-analytics/"><rect x="448" y="240" width="96" height="80" rx="8" ry="8" class="h"/><text x="462.55" y="259" class="i">Advanced <tspan x="474.61" dy="1.2em" class="j">Threat </tspan><tspan x="464.88" dy="1.2em" class="j">Analytics </tspan><tspan x="467.22" dy="1.2em" class="j">(retiring)</tspan></text></a><a target="_blank" href="https://www.microsoft.com/licensing/product-licensing/client-access-license"><rect x="448" y="384" width="96" height="80" rx="8" ry="8" class="h"/><text x="465.28" y="419.8" class="i">Windows <tspan x="474.2" dy="1.2em" class="j">Server</tspan></text></a><a target="_blank" href="https://docs.microsoft.com/configmgr/core/understand/introduction"><rect x="624" y="384" width="96" height="80" rx="8" ry="8" class="h"/><text x="640.5" y="403" class="i">Microsoft <tspan x="641.68" dy="1.2em" class="j">Endpoint </tspan><tspan x="649.84" dy="1.2em" class="j">Config </tspan><tspan x="643.21" dy="1.2em" class="j">Manager</tspan></text></a><a target="_blank" href="https://docs.microsoft.com/sccm/protect/deploy-use/endpoint-protection"><rect x="624" y="480" width="96" height="80" rx="8" ry="8" class="h"/><text x="647.1" y="499" class="i">System <tspan x="649.83" dy="1.2em" class="j">Center </tspan><tspan x="641.68" dy="1.2em" class="j">Endpoint </tspan><tspan x="637.39" dy="1.2em" class="j">Protection</tspan></text></a><a target="_blank" href="https://docs.microsoft.com/azure/information-protection/compare-on-premise"><rect x="624" y="240" width="96" height="80" rx="8" ry="8" class="h"/><text x="650.99" y="267.4" class="i">Active <tspan x="641.27" dy="1.2em" class="j">Directory </tspan><tspan x="656.45" dy="1.2em" class="j">RMS</tspan></text></a><a target="_blank" href="https://www.microsoft.com/licensing/product-licensing/client-access-license"><rect x="432" y="480" width="128" height="48" rx="8" ry="8" class="k"/><text x="438" y="500.4" class="l">Core CAL Bridge for <tspan x="442.48" dy="1.2em" class="j">Office 365 + Intune</tspan></text></a><a target="_blank" href="https://www.microsoft.com/licensing/product-licensing/client-access-license"><rect x="48" y="80" width="560" height="48" rx="8" ry="8" class="m"/><text x="171.88" y="110" class="n">Enterprise CAL Bridge for Intune</text></a><a target="_blank" href="https://www.microsoft.com/licensing/product-licensing/client-access-license"><rect x="416" y="176" width="160" height="48" rx="8" ry="8" class="o"/><text x="421.99" y="196.4" class="l">Enterprise CAL Bridge for <tspan x="442.48" dy="1.2em" class="j">Office 365 + Intune</tspan></text></a><a target="_blank" href="https://www.microsoft.com/licensing/product-licensing/client-access-license"><rect x="64" y="560" width="528" height="48" rx="8" ry="8" class="p"/><text x="198.56" y="590" class="n">Core CAL Bridge for Intune</text></a><a target="_blank" href="https://www.microsoft.com/microsoft-365/exchange/microsoft-exchange-server-licensing-licensing-overview"><rect x="80" y="384" width="96" height="80" rx="8" ry="8" class="q"/><text x="94.93" y="411.4" class="i">Exchange <tspan x="106.2" dy="1.2em" class="j">Server </tspan><tspan x="93" dy="1.2em" class="j">(Standard)</tspan></text></a><a target="_blank" href="https://www.microsoft.com/microsoft-365/sharepoint/sharepoint-licensing-overview"><rect x="192" y="384" width="96" height="80" rx="8" ry="8" class="q"/><text x="203.05" y="411.4" class="i">SharePoint <tspan x="218.2" dy="1.2em" class="j">Server </tspan><tspan x="205" dy="1.2em" class="j">(Standard)</tspan></text></a><a target="_blank" href="https://www.microsoft.com/microsoft-365/skype-for-business/it-pros"><rect x="304" y="384" width="96" height="80" rx="8" ry="8" class="q"/><text x="320.1" y="403" class="i">Skype for <tspan x="320.88" dy="1.2em" class="j">Business </tspan><tspan x="330.2" dy="1.2em" class="j">Server </tspan><tspan x="317" dy="1.2em" class="j">(Standard)</tspan></text></a><a target="_blank" href="https://www.microsoft.com/microsoft-365/exchange/microsoft-exchange-server-licensing-licensing-overview"><rect x="80" y="144" width="96" height="80" rx="8" ry="8" class="r"/><text x="94.93" y="171.4" class="i">Exchange <tspan x="106.2" dy="1.2em" class="j">Server </tspan><tspan x="88.71" dy="1.2em" class="j">(Enterprise)</tspan></text></a><a target="_blank" href="https://www.microsoft.com/microsoft-365/sharepoint/sharepoint-licensing-overview"><rect x="192" y="144" width="96" height="80" rx="8" ry="8" class="r"/><text x="203.05" y="171.4" class="i">SharePoint <tspan x="218.2" dy="1.2em" class="j">Server </tspan><tspan x="200.71" dy="1.2em" class="j">(Enterprise)</tspan></text></a><a target="_blank" href="https://www.microsoft.com/microsoft-365/skype-for-business/it-pros"><rect x="304" y="144" width="96" height="80" rx="8" ry="8" class="r"/><text x="320.1" y="163" class="i">Skype for <tspan x="320.88" dy="1.2em" class="j">Business </tspan><tspan x="330.2" dy="1.2em" class="j">Server </tspan><tspan x="312.71" dy="1.2em" class="j">(Enterprise)</tspan></text></a><a target="_blank" href="https://docs.microsoft.com/Exchange/policy-and-compliance/data-loss-prevention/data-loss-prevention"><rect x="80" y="240" width="96" height="80" rx="8" ry="8" class="r"/><text x="94.93" y="267.4" class="i">Exchange <tspan x="94.55" dy="1.2em" class="j">Data Loss </tspan><tspan x="91.82" dy="1.2em" class="j">Prevention</tspan></text></a><a target="_blank" href="https://docs.microsoft.com/office365/servicedescriptions/exchange-online-protection-service-description/exchange-online-protection-service-description"><rect x="192" y="240" width="96" height="80" rx="8" ry="8" class="r"/><text x="206.93" y="267.4" class="i">Exchange <tspan x="218.22" dy="1.2em" class="j">Online </tspan><tspan x="205.39" dy="1.2em" class="j">Protection</tspan></text></a><a target="_blank" href="https://docs.microsoft.com/office365/servicedescriptions/exchange-online-archiving-service-description/exchange-online-archiving-service-description"><rect x="304" y="240" width="96" height="80" rx="8" ry="8" class="r"/><text x="330.22" y="259" class="i">Online <tspan x="308.44" dy="1.2em" class="j">Archiving for </tspan><tspan x="318.93" dy="1.2em" class="j">Exchange </tspan><tspan x="330.2" dy="1.2em" class="j">Server</tspan></text></a><a target="_blank" href="https://www.microsoft.com/licensing/product-licensing/client-access-license"><rect x="32" y="640" width="704" height="48" rx="8" ry="8" class="s"/><text x="337.89" y="670" class="n">Core CAL</text></a><a target="_blank" href="https://www.microsoft.com/licensing/product-licensing/client-access-license"><rect x="16" y="16" width="736" height="48" rx="8" ry="8" class="t"/><text x="311.21" y="46" class="n">Enterprise CAL</text></a></svg>