<svg xmlns="http://www.w3.org/2000/svg" width="896" height="624" viewBox="0 0 896 624" class="a"><style>
.b {fill:#a5a5a5;fill-opacity:0.2;stroke:#3c3c3c;stroke-linecap:round;stroke-linejoin:round;stroke-width:2.25}
.c {fill:#a5a5a5;fill-opacity:0.2;stroke:#606060;stroke-dasharray:15.75,11.25;stroke-linecap:round;stroke-linejoin:round;stroke-width:2.25}
.d {fill:#a5a5a5;fill-opacity:0.2;stroke:#105868;stroke-linecap:round;stroke-linejoin:round;stroke-width:2.25}
.e {fill:#a5a5a5;fill-opacity:0.2;stroke:#e82200;stroke-linecap:round;stroke-linejoin:round;stroke-width:2.25}
.f {fill:#a5a5a5;fill-opacity:0.2;stroke:#a41500;stroke-dasharray:2.25,4.5;stroke-linecap:round;stroke-linejoin:round;stroke-width:2.25}
.g {fill:#a5a5a5;fill-opacity:0.2;stroke:#105868;stroke-dasharray:2.25,4.5;stroke-linecap:round;stroke-linejoin:round;stroke-width:2.25}
.h {fill:#2080a0;stroke:none;stroke-linecap:round;stroke-linejoin:round;stroke-width:0.5}
.i {fill:#ffffff;font-family:Arial;font-size:1.17em;font-weight:bold}
.j {font-size:1em}
.k {fill:#3c3c3c;stroke:#3c3c3c;stroke-linecap:round;stroke-linejoin:round;stroke-width:2.25}
.l {fill:#ffffff;font-family:Arial;font-size:1.67em;font-weight:bold}
.m {fill:#606060;stroke:#606060;stroke-linecap:round;stroke-linejoin:round;stroke-width:2.25}
.n {fill:#a41500;stroke:#a41500;stroke-linecap:round;stroke-linejoin:round;stroke-width:2.25}
.o {fill:#105868;stroke:#105868;stroke-linecap:round;stroke-linejoin:round;stroke-width:2.25}
.p {fill:#e82200;stroke:#e82200;stroke-linecap:round;stroke-linejoin:round;stroke-width:2.25}
.q {fill:#2080a0;stroke:#2080a0;stroke-linecap:round;stroke-linejoin:round;stroke-width:2.25}
.r {fill:#a41500;stroke:none;stroke-linecap:round;stroke-linejoin:round;stroke-width:1}
.s {fill:#e82200;stroke:none;stroke-linecap:round;stroke-linejoin:round;stroke-width:1}
.a {fill:none;fill-rule:evenodd;font-size:12px;overflow:visible;stroke-linecap:square;stroke-miterlimit:3}
</style><rect x="16" y="16" width="864" height="592" rx="8" ry="8" class="b"/><rect x="32" y="336" width="832" height="256" rx="8" ry="8" class="c"/><rect x="48" y="80" width="384" height="448" rx="8" ry="8" class="d"/><rect x="464" y="176" width="384" height="352" rx="8" ry="8" class="e"/><rect x="480" y="352" width="352" height="160" rx="8" ry="8" class="f"/><rect x="64" y="352" width="352" height="160" rx="8" ry="8" class="g"/><a target="_blank" href="https://docs.microsoft.com/advanced-threat-analytics/"><rect x="608" y="240" width="96" height="80" rx="8" ry="8" class="h"/><text x="622.55" y="259" class="i">Advanced <tspan x="634.61" dy="1.2em" class="j">Threat </tspan><tspan x="624.88" dy="1.2em" class="j">Analytics </tspan><tspan x="627.22" dy="1.2em" class="j">(retiring)</tspan></text></a><a target="_blank" href="https://www.microsoft.com/licensing/product-licensing/client-access-license"><rect x="720" y="368" width="96" height="80" rx="8" ry="8" class="h"/><text x="737.28" y="403.8" class="i">Windows <tspan x="746.2" dy="1.2em" class="j">Server</tspan></text></a><a target="_blank" href="https://docs.microsoft.com/configmgr/core/understand/introduction"><rect x="496" y="368" width="96" height="80" rx="8" ry="8" class="h"/><text x="512.5" y="387" class="i">Microsoft <tspan x="513.68" dy="1.2em" class="j">Endpoint </tspan><tspan x="521.84" dy="1.2em" class="j">Config </tspan><tspan x="515.21" dy="1.2em" class="j">Manager</tspan></text></a><a target="_blank" href="https://docs.microsoft.com/sccm/protect/deploy-use/endpoint-protection"><rect x="608" y="368" width="96" height="80" rx="8" ry="8" class="h"/><text x="631.1" y="387" class="i">System <tspan x="633.83" dy="1.2em" class="j">Center </tspan><tspan x="625.68" dy="1.2em" class="j">Endpoint </tspan><tspan x="621.39" dy="1.2em" class="j">Protection</tspan></text></a><a target="_blank" href="https://docs.microsoft.com/azure/information-protection/compare-on-premise"><rect x="496" y="240" width="96" height="80" rx="8" ry="8" class="h"/><text x="522.99" y="267.4" class="i">Active <tspan x="513.27" dy="1.2em" class="j">Directory </tspan><tspan x="528.45" dy="1.2em" class="j">RMS</tspan></text></a><a target="_blank" href="https://www.microsoft.com/licensing/product-licensing/client-access-license"><rect x="16" y="16" width="864" height="48" rx="8" ry="8" class="k"/><text x="375.21" y="46" class="l">Enterprise CAL</text></a><a target="_blank" href="https://www.microsoft.com/licensing/product-licensing/client-access-license"><rect x="32" y="544" width="832" height="48" rx="8" ry="8" class="m"/><text x="401.89" y="574" class="l">Core CAL</text></a><a target="_blank" href="https://www.microsoft.com/licensing/product-licensing/client-access-license"><rect x="480" y="464" width="352" height="48" rx="8" ry="8" class="n"/><text x="508.75" y="494" class="l">Core CAL Bridge for Office 365</text></a><a target="_blank" href="https://www.microsoft.com/licensing/product-licensing/client-access-license"><rect x="48" y="80" width="384" height="48" rx="8" ry="8" class="o"/><text x="92.2" y="110" class="l">Enterprise CAL Bridge for EMS</text></a><a target="_blank" href="https://www.microsoft.com/licensing/product-licensing/client-access-license"><rect x="464" y="176" width="384" height="48" rx="8" ry="8" class="p"/><text x="482.07" y="206" class="l">Enterprise CAL Bridge for Office 365</text></a><a target="_blank" href="https://www.microsoft.com/licensing/product-licensing/client-access-license"><rect x="64" y="464" width="352" height="48" rx="8" ry="8" class="q"/><text x="118.88" y="494" class="l">Core CAL Bridge for EMS</text></a><a target="_blank" href="https://www.microsoft.com/microsoft-365/exchange/microsoft-exchange-server-licensing-licensing-overview"><rect x="80" y="368" width="96" height="80" rx="8" ry="8" class="r"/><text x="94.93" y="395.4" class="i">Exchange <tspan x="106.2" dy="1.2em" class="j">Server </tspan><tspan x="93" dy="1.2em" class="j">(Standard)</tspan></text></a><a target="_blank" href="https://www.microsoft.com/microsoft-365/sharepoint/sharepoint-licensing-overview"><rect x="192" y="368" width="96" height="80" rx="8" ry="8" class="r"/><text x="203.05" y="395.4" class="i">SharePoint <tspan x="218.2" dy="1.2em" class="j">Server </tspan><tspan x="205" dy="1.2em" class="j">(Standard)</tspan></text></a><a target="_blank" href="https://www.microsoft.com/microsoft-365/skype-for-business/it-pros"><rect x="304" y="368" width="96" height="80" rx="8" ry="8" class="r"/><text x="320.1" y="387" class="i">Skype for <tspan x="320.88" dy="1.2em" class="j">Business </tspan><tspan x="330.2" dy="1.2em" class="j">Server </tspan><tspan x="317" dy="1.2em" class="j">(Standard)</tspan></text></a><a target="_blank" href="https://www.microsoft.com/microsoft-365/exchange/microsoft-exchange-server-licensing-licensing-overview"><rect x="80" y="144" width="96" height="80" rx="8" ry="8" class="s"/><text x="94.93" y="171.4" class="i">Exchange <tspan x="106.2" dy="1.2em" class="j">Server </tspan><tspan x="88.71" dy="1.2em" class="j">(Enterprise)</tspan></text></a><a target="_blank" href="https://www.microsoft.com/microsoft-365/sharepoint/sharepoint-licensing-overview"><rect x="192" y="144" width="96" height="80" rx="8" ry="8" class="s"/><text x="203.05" y="171.4" class="i">SharePoint <tspan x="218.2" dy="1.2em" class="j">Server </tspan><tspan x="200.71" dy="1.2em" class="j">(Enterprise)</tspan></text></a><a target="_blank" href="https://www.microsoft.com/microsoft-365/skype-for-business/it-pros"><rect x="304" y="144" width="96" height="80" rx="8" ry="8" class="s"/><text x="320.1" y="163" class="i">Skype for <tspan x="320.88" dy="1.2em" class="j">Business </tspan><tspan x="330.2" dy="1.2em" class="j">Server </tspan><tspan x="312.71" dy="1.2em" class="j">(Enterprise)</tspan></text></a><a target="_blank" href="https://docs.microsoft.com/office365/servicedescriptions/exchange-online-protection-service-description/exchange-online-protection-service-description"><rect x="192" y="240" width="96" height="80" rx="8" ry="8" class="s"/><text x="206.93" y="267.4" class="i">Exchange <tspan x="218.22" dy="1.2em" class="j">Online </tspan><tspan x="205.39" dy="1.2em" class="j">Protection</tspan></text></a><a target="_blank" href="https://docs.microsoft.com/office365/servicedescriptions/exchange-online-archiving-service-description/exchange-online-archiving-service-description"><rect x="304" y="240" width="96" height="80" rx="8" ry="8" class="s"/><text x="330.22" y="259" class="i">Online <tspan x="308.44" dy="1.2em" class="j">Archiving for </tspan><tspan x="318.93" dy="1.2em" class="j">Exchange </tspan><tspan x="330.2" dy="1.2em" class="j">Server</tspan></text></a><a target="_blank" href="https://docs.microsoft.com/Exchange/policy-and-compliance/data-loss-prevention/data-loss-prevention"><rect x="80" y="240" width="96" height="80" rx="8" ry="8" class="s"/><text x="94.93" y="267.4" class="i">Exchange <tspan x="94.55" dy="1.2em" class="j">Data Loss </tspan><tspan x="91.82" dy="1.2em" class="j">Prevention</tspan></text></a></svg>