<svg xmlns="http://www.w3.org/2000/svg" width="1088" height="848" viewBox="0 0 1088 848" class="a"><style>
.b {fill:#a5a5a5;fill-opacity:0.2;stroke:#105868;stroke-linecap:round;stroke-linejoin:round;stroke-width:2.25}
.c {fill:#a5a5a5;fill-opacity:0.2;stroke:#2080a0;stroke-dasharray:15.75,11.25;stroke-linecap:round;stroke-linejoin:round;stroke-width:2.25}
.d {fill:#a5a5a5;fill-opacity:0.2;stroke:#0050c0;stroke-dasharray:2.25,4.5;stroke-linecap:round;stroke-linejoin:round;stroke-width:2.25}
.e {fill:#a5a5a5;fill-opacity:0.2;stroke:#0070f7;stroke-dasharray:2.25,4.5;stroke-linecap:round;stroke-linejoin:round;stroke-width:2.25}
.f {fill:#0070f7;stroke:none;stroke-linecap:round;stroke-linejoin:round;stroke-width:0.25}
.g {fill:#ffffff;font-family:Arial;font-size:1.17em;font-weight:bold}
.h {font-size:1em}
.i {baseline-shift:32.49%;font-size:0.65em}
.j {fill:#2080a0;stroke:none;stroke-linecap:round;stroke-linejoin:round;stroke-width:0.25}
.k {fill:#105868;stroke:none;stroke-linecap:round;stroke-linejoin:round;stroke-width:0.25}
.l {fill:#0050c0;stroke:none;stroke-linecap:round;stroke-linejoin:round;stroke-width:0.25}
.m {fill:#ffffff;font-family:Arial;font-size:1.08em;font-weight:bold}
.n {fill:#105868;stroke:#105868;stroke-linecap:round;stroke-linejoin:round;stroke-width:2.25}
.o {fill:#ffffff;font-family:Arial;font-size:1.67em;font-weight:bold}
.p {fill:#2080a0;stroke:#2080a0;stroke-linecap:round;stroke-linejoin:round;stroke-width:2.25}
.q {fill:none;stroke:none;stroke-linecap:round;stroke-linejoin:round;stroke-width:2.5}
.r {fill:#000000;font-family:Arial;font-size:1.17em;font-weight:bold}
.a {fill:none;fill-rule:evenodd;font-size:12px;overflow:visible;stroke-linecap:square;stroke-miterlimit:3}
</style><rect x="16" y="16" width="1056" height="816" rx="8" ry="8" class="b"/><rect x="48" y="304" width="928" height="496" rx="8" ry="8" class="c"/><rect x="128" y="48" width="496" height="736" rx="8" ry="8" class="d"/><rect x="144" y="336" width="464" height="432" rx="8" ry="8" class="e"/><a target="_blank" href="https://docs.microsoft.com/azure/active-directory/reports-monitoring/"><rect x="160" y="352" width="96" height="80" rx="8" ry="8" class="f"/><text x="174.55" y="371" class="g">Advanced <tspan x="180.38" dy="1.2em" class="h">Security </tspan><tspan x="174.55" dy="1.2em" class="h">Reports &amp; </tspan><tspan x="188.16" dy="1.2em" class="h">Alerts</tspan></text></a><a target="_blank" href="https://docs.microsoft.com/azure/active-directory/hybrid/how-to-connect-sso"><rect x="272" y="640" width="96" height="80" rx="8" ry="8" class="f"/><text x="279.17" y="667.4" class="g">Single-Sign-<tspan x="282.28" dy="1.2em" class="h">On to other </tspan><tspan x="302.88" dy="1.2em" class="h">SaaS</tspan></text></a><a target="_blank" href="https://docs.microsoft.com/azure/active-directory/manage-apps/application-proxy"><rect x="272" y="352" width="96" height="80" rx="8" ry="8" class="f"/><text x="283.05" y="379.4" class="g">App Proxy, <tspan x="288.89" dy="1.2em" class="h">including </tspan><tspan x="280.31" dy="1.2em" class="h">PingAccess</tspan></text></a><a target="_blank" href="https://docs.microsoft.com/azure/active-directory/authentication/concept-mfa-howitworks"><rect x="272" y="544" width="96" height="80" rx="8" ry="8" class="f"/><text x="279.95" y="579.8" class="g">Multi-Factor <tspan x="282.29" dy="1.2em" class="h">Auth (MFA)</tspan></text></a><a target="_blank" href="https://docs.microsoft.com/azure/active-directory/hybrid/whatis-azure-ad-connect#what-is-azure-ad-connect-health"><rect x="384" y="352" width="96" height="80" rx="8" ry="8" class="f"/><text x="400.5" y="379.4" class="g">Azure AD <tspan x="404" dy="1.2em" class="h">Connect </tspan><tspan x="410.61" dy="1.2em" class="h">Health</tspan></text></a><a target="_blank" href="https://docs.microsoft.com/cloud-app-security/set-up-cloud-discovery"><rect x="272" y="448" width="96" height="80" rx="8" ry="8" class="f"/><text x="284.62" y="483.8" class="g">Cloud App <tspan x="286.54" dy="1.2em" class="h">Discovery</tspan></text></a><a target="_blank" href="https://docs.microsoft.com/azure/active-directory/users-groups-roles/users-sharing-accounts"><rect x="160" y="640" width="96" height="80" rx="8" ry="8" class="f"/><text x="184.27" y="659" class="g">Shared <tspan x="180" dy="1.2em" class="h">Account </tspan><tspan x="174.93" dy="1.2em" class="h">Password </tspan><tspan x="176.49" dy="1.2em" class="h">Roll</tspan>-Over</text></a><a target="_blank" href="https://docs.microsoft.com/azure/active-directory/authentication/concept-sspr-howitworks"><rect x="496" y="544" width="96" height="80" rx="8" ry="8" class="f"/><text x="503.92" y="571.4" class="g">Self-Service <tspan x="510.93" dy="1.2em" class="h">Password </tspan><tspan x="504.71" dy="1.2em" class="h">Reset in AD</tspan></text></a><a target="_blank" href="https://docs.microsoft.com/azure/active-directory/users-groups-roles/groups-self-service-management"><rect x="384" y="544" width="96" height="80" rx="8" ry="8" class="f"/><text x="391.92" y="571.4" class="g">Self-Service <tspan x="411" dy="1.2em" class="h">Group </tspan><tspan x="389.21" dy="1.2em" class="h">Management</tspan></text></a><a target="_blank" href="https://docs.microsoft.com/azure/active-directory/conditional-access/overview"><rect x="384" y="448" width="96" height="80" rx="8" ry="8" class="f"/><text x="393.51" y="483.8" class="g">Conditional <tspan x="407.48" dy="1.2em" class="h">Access</tspan></text></a><a target="_blank" href="https://docs.microsoft.com/azure/active-directory/external-identities/"><rect x="495.2" y="352" width="96" height="80" rx="8" ry="8" class="f"/><text x="511.7" y="379.4" class="g">Azure AD <tspan x="515.58" dy="1.2em" class="h">External </tspan><tspan x="512.47" dy="1.2em" class="h">Identities</tspan></text></a><a target="_blank" href="https://docs.microsoft.com/azure/active-directory/devices/enterprise-state-roaming-overview"><rect x="496" y="448" width="96" height="80" rx="8" ry="8" class="f"/><text x="509.38" y="475.4" class="g">Enterprise <tspan x="526.88" dy="1.2em" class="h">State </tspan><tspan x="514.06" dy="1.2em" class="h">Roaming</tspan></text></a><a target="_blank" href="https://docs.microsoft.com/azure/active-directory/governance/active-directory-tou"><rect x="384" y="640" width="96" height="80" rx="8" ry="8" class="f"/><text x="402.44" y="675.8" class="g">Terms of <tspan x="419.16" dy="1.2em" class="h">Use</tspan></text></a><a target="_blank" href="https://docs.microsoft.com/azure/active-directory/authentication/concept-password-ban-bad"><rect x="160" y="448" width="96" height="80" rx="8" ry="8" class="f"/><text x="176.5" y="475.4" class="g">Azure AD <tspan x="174.93" dy="1.2em" class="h">Password </tspan><tspan x="173.39" dy="1.2em" class="h">Protection</tspan></text></a><a target="_blank" href="https://docs.microsoft.com/microsoft-identity-manager/"><rect x="160" y="544" width="96" height="80" rx="8" ry="8" class="f"/><text x="176.5" y="571.4" class="g">Microsoft <tspan x="183.11" dy="1.2em" class="h">Identity </tspan><tspan x="179.21" dy="1.2em" class="h">Manager</tspan></text></a><a target="_blank" href="https://docs.microsoft.com/azure/active-directory/conditional-access/controls#custom-controls-preview"><rect x="496" y="640" width="96" height="80" rx="8" ry="8" class="f"/><text x="516.78" y="667.4" class="g">3<tspan dy="-0.24em" class="i">rd </tspan><tspan dy="0.15em" class="h">Party  </tspan><tspan x="528.84" dy="1.2em" class="h">MFA </tspan><tspan x="507.83" dy="1.2em" class="h">Integration</tspan></text></a><a target="_blank" href="https://docs.microsoft.com/advanced-threat-analytics/"><rect x="752" y="352" width="96" height="80" rx="8" ry="8" class="j"/><text x="766.55" y="371" class="g">Advanced <tspan x="778.61" dy="1.2em" class="h">Threat </tspan><tspan x="768.88" dy="1.2em" class="h">Analytics </tspan><tspan x="771.22" dy="1.2em" class="h">(retiring)</tspan></text></a><a target="_blank" href="https://docs.microsoft.com/mem/intune/fundamentals/what-is-intune"><rect x="864" y="448" width="96" height="80" rx="8" ry="8" class="j"/><text x="872.34" y="483.8" class="g">Intune MDM <tspan x="888.28" dy="1.2em" class="h">&amp; MAM</tspan></text></a><a target="_blank" href="https://www.microsoft.com/licensing/product-licensing/client-access-license"><rect x="864" y="544" width="96" height="80" rx="8" ry="8" class="j"/><text x="881.28" y="571.4" class="g">Windows <tspan x="873.87" dy="1.2em" class="h">Server CAL </tspan><tspan x="890.22" dy="1.2em" class="h">Rights</tspan></text></a><a target="_blank" href="https://docs.microsoft.com/configmgr/core/understand/introduction"><rect x="640" y="544" width="96" height="80" rx="8" ry="8" class="j"/><text x="656.5" y="563" class="g">Microsoft <tspan x="657.68" dy="1.2em" class="h">Endpoint </tspan><tspan x="665.84" dy="1.2em" class="h">Config </tspan><tspan x="659.21" dy="1.2em" class="h">Manager</tspan></text></a><a target="_blank" href="https://docs.microsoft.com/sccm/protect/deploy-use/endpoint-protection"><rect x="752" y="544" width="96" height="80" rx="8" ry="8" class="j"/><text x="775.1" y="563" class="g">System <tspan x="777.83" dy="1.2em" class="h">Center </tspan><tspan x="769.68" dy="1.2em" class="h">Endpoint </tspan><tspan x="765.39" dy="1.2em" class="h">Protection</tspan></text></a><a target="_blank" href="https://docs.microsoft.com/azure/information-protection/compare-on-premise"><rect x="640" y="352" width="96" height="80" rx="8" ry="8" class="j"/><text x="666.99" y="379.4" class="g">Active <tspan x="657.27" dy="1.2em" class="h">Directory </tspan><tspan x="672.45" dy="1.2em" class="h">RMS</tspan></text></a><a target="_blank" href="https://docs.microsoft.com/azure/information-protection/what-is-azure-rms"><rect x="864" y="352" width="96" height="80" rx="8" ry="8" class="j"/><text x="892.55" y="387.8" class="g">Azure <tspan x="896.45" dy="1.2em" class="h">RMS</tspan></text></a><a target="_blank" href="https://docs.microsoft.com/mem/analytics/overview"><rect x="640" y="448" width="96" height="80" rx="8" ry="8" class="j"/><text x="657.68" y="483.8" class="g">Endpoint <tspan x="656.88" dy="1.2em" class="h">Analytics</tspan></text></a><a target="_blank" href="https://docs.microsoft.com/cloud-app-security/what-is-cloud-app-security"><rect x="752" y="192" width="96" height="80" rx="8" ry="8" class="k"/><text x="768.5" y="219.4" class="g">Microsoft <tspan x="758.38" dy="1.2em" class="h">Defender for </tspan><tspan x="760.73" dy="1.2em" class="h">Cloud Apps</tspan></text></a><a target="_blank" href="https://docs.microsoft.com/defender-for-identity/what-is"><rect x="640" y="192" width="96" height="80" rx="8" ry="8" class="k"/><text x="656.5" y="219.4" class="g">Microsoft <tspan x="646.38" dy="1.2em" class="h">Defender for </tspan><tspan x="663.11" dy="1.2em" class="h">Identity</tspan></text></a><a target="_blank" href="https://docs.microsoft.com/azure/active-directory/identity-protection/overview"><rect x="160" y="192" width="96" height="80" rx="8" ry="8" class="l"/><text x="188.55" y="219.4" class="g">Azure <tspan x="183.11" dy="1.2em" class="h">Identity </tspan><tspan x="173.39" dy="1.2em" class="h">Protection</tspan></text></a><a target="_blank" href="https://docs.microsoft.com/azure/active-directory/active-directory-privileged-identity-management-configure"><rect x="384" y="192" width="96" height="80" rx="8" ry="8" class="l"/><text x="398.54" y="219.4" class="g">Privileged <tspan x="407.11" dy="1.2em" class="h">Identity </tspan><tspan x="389.21" dy="1.2em" class="h">Management</tspan></text></a><a target="_blank" href="https://docs.microsoft.com/azure/active-directory/governance/access-reviews-overview"><rect x="160" y="96" width="96" height="80" rx="8" ry="8" class="l"/><text x="183.48" y="131.8" class="g">Access <tspan x="179.98" dy="1.2em" class="h">Reviews</tspan></text></a><a target="_blank" href="https://docs.microsoft.com/azure/active-directory/active-directory-conditional-access-conditions#sign-in-risk"><rect x="496" y="192" width="96" height="80" rx="8" ry="8" class="l"/><text x="505.87" y="219.4" class="g">Risk-Based <tspan x="505.51" dy="1.2em" class="h">Conditional </tspan><tspan x="519.48" dy="1.2em" class="h">Access</tspan></text></a><a target="_blank" href="https://docs.microsoft.com/azure/active-directory/governance/entitlement-management-overview"><rect x="272" y="192" width="96" height="80" rx="8" ry="8" class="l"/><text x="281.89" y="227.8" class="g">Entitlement <tspan x="277.21" dy="1.2em" class="h">Management</tspan></text></a><a target="_blank" href="https://docs.microsoft.com/azure/information-protection/what-is-information-protection"><rect x="752" y="448" width="96" height="80" rx="8" ry="8" class="j"/><text x="761.5" y="483.8" class="g">Information <tspan x="765.39" dy="1.2em" class="h">Protection</tspan></text></a><a target="_blank" href="https://docs.microsoft.com/azure/information-protection/deploy-aip-scanner"><rect x="864" y="192" width="96" height="80" rx="8" ry="8" class="k"/><text x="872.63" y="212.5" class="m">Rules-Based <tspan x="869.74" dy="1.2em" class="h">Classification </tspan><tspan x="872.64" dy="1.2em" class="h">(AIP Client &amp; </tspan><tspan x="884.18" dy="1.2em" class="h">Scanner)</tspan></text></a><a target="_blank" href="https://www.microsoft.com/cloud-platform/enterprise-mobility-security" transform="translate(224,832) rotate(-90)"><rect y="784" width="816" height="64" rx="8" ry="8" class="n"/><text x="252.12" y="810" class="o">Enterprise Mobility + Security E5<tspan x="364.66" dy="1.2em" class="h">(EMS E5)</tspan></text></a><a target="_blank" href="https://www.microsoft.com/cloud-platform/enterprise-mobility-security" transform="translate(-736,800) rotate(-90)"><rect y="784" width="496" height="64" rx="8" ry="8" class="p"/><text x="92.12" y="810" class="o">Enterprise Mobility + Security E3<tspan x="204.66" dy="1.2em" class="h">(EMS E3)</tspan></text></a><a target="_blank" href="https://azure.microsoft.com/pricing/details/active-directory/"><rect x="128" y="48" width="496" height="48" rx="8" ry="8" class="q"/><text x="290.03" y="76.2" class="r">Azure AD Premium Plan 2</text></a><a target="_blank" href="https://azure.microsoft.com/pricing/details/active-directory/"><rect x="144" y="720" width="464" height="48" rx="8" ry="8" class="q"/><text x="290.03" y="748.2" class="r">Azure AD Premium Plan 1</text></a></svg>