<svg xmlns="http://www.w3.org/2000/svg" width="752" height="752" viewBox="0 0 752 752" class="a"><style>
.b {fill:#a5a5a5;fill-opacity:0.2;stroke:#105868;stroke-linecap:round;stroke-linejoin:round;stroke-width:2.25}
.c {fill:#a5a5a5;fill-opacity:0.2;stroke:#0050c0;stroke-dasharray:2.25,4.5;stroke-linecap:round;stroke-linejoin:round;stroke-width:2.25}
.d {fill:#0070f7;stroke:none;stroke-linecap:round;stroke-linejoin:round;stroke-width:0.25}
.e {fill:#ffffff;font-family:Arial;font-size:1.17em;font-weight:bold}
.f {font-size:1em}
.g {baseline-shift:32.49%;font-size:0.65em}
.h {fill:#2080a0;stroke:none;stroke-linecap:round;stroke-linejoin:round;stroke-width:0.25}
.i {fill:#105868;stroke:none;stroke-linecap:round;stroke-linejoin:round;stroke-width:0.25}
.j {fill:#0050c0;stroke:none;stroke-linecap:round;stroke-linejoin:round;stroke-width:0.25}
.k {fill:#ffffff;font-family:Arial;font-size:1.08em;font-weight:bold}
.l {fill:#105868;stroke:#105868;stroke-linecap:round;stroke-linejoin:round;stroke-width:2.25}
.m {fill:#ffffff;font-family:Arial;font-size:1.67em;font-weight:bold}
.n {fill:none;stroke:none;stroke-linecap:round;stroke-linejoin:round;stroke-width:2.5}
.o {fill:#000000;font-family:Arial;font-size:1.17em;font-weight:bold}
.a {fill:none;fill-rule:evenodd;font-size:12px;overflow:visible;stroke-linecap:square;stroke-miterlimit:3}
</style><rect x="16" y="16" width="720" height="720" rx="8" ry="8" class="b"/><rect x="32" y="96" width="464" height="624" rx="8" ry="8" class="c"/><a target="_blank" href="https://docs.microsoft.com/azure/active-directory/reports-monitoring/"><rect x="48" y="304" width="96" height="80" rx="8" ry="8" class="d"/><text x="62.55" y="323" class="e">Advanced <tspan x="68.38" dy="1.2em" class="f">Security </tspan><tspan x="62.55" dy="1.2em" class="f">Reports &amp; </tspan><tspan x="76.16" dy="1.2em" class="f">Alerts</tspan></text></a><a target="_blank" href="https://docs.microsoft.com/azure/active-directory/hybrid/how-to-connect-sso"><rect x="160" y="592" width="96" height="80" rx="8" ry="8" class="d"/><text x="167.17" y="619.4" class="e">Single-Sign-<tspan x="170.28" dy="1.2em" class="f">On to other </tspan><tspan x="190.88" dy="1.2em" class="f">SaaS</tspan></text></a><a target="_blank" href="https://docs.microsoft.com/azure/active-directory/manage-apps/application-proxy"><rect x="160" y="304" width="96" height="80" rx="8" ry="8" class="d"/><text x="171.05" y="331.4" class="e">App Proxy, <tspan x="176.89" dy="1.2em" class="f">including </tspan><tspan x="168.31" dy="1.2em" class="f">PingAccess</tspan></text></a><a target="_blank" href="https://docs.microsoft.com/azure/active-directory/authentication/concept-mfa-howitworks"><rect x="160" y="496" width="96" height="80" rx="8" ry="8" class="d"/><text x="167.95" y="531.8" class="e">Multi-Factor <tspan x="170.29" dy="1.2em" class="f">Auth (MFA)</tspan></text></a><a target="_blank" href="https://docs.microsoft.com/azure/active-directory/hybrid/whatis-azure-ad-connect#what-is-azure-ad-connect-health"><rect x="272" y="304" width="96" height="80" rx="8" ry="8" class="d"/><text x="288.5" y="331.4" class="e">Azure AD <tspan x="292" dy="1.2em" class="f">Connect </tspan><tspan x="298.61" dy="1.2em" class="f">Health</tspan></text></a><a target="_blank" href="https://docs.microsoft.com/cloud-app-security/set-up-cloud-discovery"><rect x="160" y="400" width="96" height="80" rx="8" ry="8" class="d"/><text x="172.62" y="435.8" class="e">Cloud App <tspan x="174.54" dy="1.2em" class="f">Discovery</tspan></text></a><a target="_blank" href="https://docs.microsoft.com/azure/active-directory/users-groups-roles/users-sharing-accounts"><rect x="48" y="592" width="96" height="80" rx="8" ry="8" class="d"/><text x="72.27" y="611" class="e">Shared <tspan x="68" dy="1.2em" class="f">Account </tspan><tspan x="62.93" dy="1.2em" class="f">Password </tspan><tspan x="64.49" dy="1.2em" class="f">Roll</tspan>-Over</text></a><a target="_blank" href="https://docs.microsoft.com/azure/active-directory/authentication/concept-sspr-howitworks"><rect x="384" y="496" width="96" height="80" rx="8" ry="8" class="d"/><text x="391.92" y="523.4" class="e">Self-Service <tspan x="398.93" dy="1.2em" class="f">Password </tspan><tspan x="392.71" dy="1.2em" class="f">Reset in AD</tspan></text></a><a target="_blank" href="https://docs.microsoft.com/azure/active-directory/users-groups-roles/groups-self-service-management"><rect x="272" y="496" width="96" height="80" rx="8" ry="8" class="d"/><text x="279.92" y="523.4" class="e">Self-Service <tspan x="299" dy="1.2em" class="f">Group </tspan><tspan x="277.21" dy="1.2em" class="f">Management</tspan></text></a><a target="_blank" href="https://docs.microsoft.com/azure/active-directory/conditional-access/overview"><rect x="272" y="400" width="96" height="80" rx="8" ry="8" class="d"/><text x="281.51" y="435.8" class="e">Conditional <tspan x="295.48" dy="1.2em" class="f">Access</tspan></text></a><a target="_blank" href="https://docs.microsoft.com/azure/active-directory/external-identities/"><rect x="383.2" y="304" width="96" height="80" rx="8" ry="8" class="d"/><text x="399.7" y="331.4" class="e">Azure AD <tspan x="403.58" dy="1.2em" class="f">External </tspan><tspan x="400.47" dy="1.2em" class="f">Identities</tspan></text></a><a target="_blank" href="https://docs.microsoft.com/azure/active-directory/devices/enterprise-state-roaming-overview"><rect x="384" y="400" width="96" height="80" rx="8" ry="8" class="d"/><text x="397.38" y="427.4" class="e">Enterprise <tspan x="414.88" dy="1.2em" class="f">State </tspan><tspan x="402.06" dy="1.2em" class="f">Roaming</tspan></text></a><a target="_blank" href="https://docs.microsoft.com/azure/active-directory/governance/active-directory-tou"><rect x="272" y="592" width="96" height="80" rx="8" ry="8" class="d"/><text x="290.44" y="627.8" class="e">Terms of <tspan x="307.16" dy="1.2em" class="f">Use</tspan></text></a><a target="_blank" href="https://docs.microsoft.com/azure/active-directory/authentication/concept-password-ban-bad"><rect x="48" y="400" width="96" height="80" rx="8" ry="8" class="d"/><text x="64.5" y="427.4" class="e">Azure AD <tspan x="62.93" dy="1.2em" class="f">Password </tspan><tspan x="61.39" dy="1.2em" class="f">Protection</tspan></text></a><a target="_blank" href="https://docs.microsoft.com/microsoft-identity-manager/"><rect x="48" y="496" width="96" height="80" rx="8" ry="8" class="d"/><text x="64.5" y="523.4" class="e">Microsoft <tspan x="71.11" dy="1.2em" class="f">Identity </tspan><tspan x="67.21" dy="1.2em" class="f">Manager</tspan></text></a><a target="_blank" href="https://docs.microsoft.com/azure/active-directory/conditional-access/controls#custom-controls-preview"><rect x="384" y="592" width="96" height="80" rx="8" ry="8" class="d"/><text x="404.78" y="619.4" class="e">3<tspan dy="-0.24em" class="g">rd </tspan><tspan dy="0.15em" class="f">Party  </tspan><tspan x="416.84" dy="1.2em" class="f">MFA </tspan><tspan x="395.83" dy="1.2em" class="f">Integration</tspan></text></a><a target="_blank" href="https://docs.microsoft.com/advanced-threat-analytics/"><rect x="512" y="304" width="96" height="80" rx="8" ry="8" class="h"/><text x="526.55" y="323" class="e">Advanced <tspan x="538.61" dy="1.2em" class="f">Threat </tspan><tspan x="528.88" dy="1.2em" class="f">Analytics </tspan><tspan x="531.22" dy="1.2em" class="f">(retiring)</tspan></text></a><a target="_blank" href="https://docs.microsoft.com/mem/intune/fundamentals/what-is-intune"><rect x="512" y="496" width="96" height="80" rx="8" ry="8" class="h"/><text x="520.34" y="531.8" class="e">Intune MDM <tspan x="536.28" dy="1.2em" class="f">&amp; MAM</tspan></text></a><a target="_blank" href="https://www.microsoft.com/licensing/product-licensing/client-access-license"><rect x="624" y="592" width="96" height="80" rx="8" ry="8" class="h"/><text x="641.28" y="619.4" class="e">Windows <tspan x="633.87" dy="1.2em" class="f">Server CAL </tspan><tspan x="650.22" dy="1.2em" class="f">Rights</tspan></text></a><a target="_blank" href="https://docs.microsoft.com/configmgr/core/understand/introduction"><rect x="624" y="496" width="96" height="80" rx="8" ry="8" class="h"/><text x="640.5" y="515" class="e">Microsoft <tspan x="641.68" dy="1.2em" class="f">Endpoint </tspan><tspan x="649.84" dy="1.2em" class="f">Config </tspan><tspan x="643.21" dy="1.2em" class="f">Manager</tspan></text></a><a target="_blank" href="https://docs.microsoft.com/sccm/protect/deploy-use/endpoint-protection"><rect x="512" y="592" width="96" height="80" rx="8" ry="8" class="h"/><text x="535.1" y="611" class="e">System <tspan x="537.83" dy="1.2em" class="f">Center </tspan><tspan x="529.68" dy="1.2em" class="f">Endpoint </tspan><tspan x="525.39" dy="1.2em" class="f">Protection</tspan></text></a><a target="_blank" href="https://docs.microsoft.com/azure/information-protection/compare-on-premise"><rect x="624" y="208" width="96" height="80" rx="8" ry="8" class="h"/><text x="650.99" y="235.4" class="e">Active <tspan x="641.27" dy="1.2em" class="f">Directory </tspan><tspan x="656.45" dy="1.2em" class="f">RMS</tspan></text></a><a target="_blank" href="https://docs.microsoft.com/azure/information-protection/what-is-azure-rms"><rect x="624" y="304" width="96" height="80" rx="8" ry="8" class="h"/><text x="652.55" y="339.8" class="e">Azure <tspan x="656.45" dy="1.2em" class="f">RMS</tspan></text></a><a target="_blank" href="https://docs.microsoft.com/mem/analytics/overview"><rect x="512" y="400" width="96" height="80" rx="8" ry="8" class="h"/><text x="529.68" y="435.8" class="e">Endpoint <tspan x="528.88" dy="1.2em" class="f">Analytics</tspan></text></a><a target="_blank" href="https://docs.microsoft.com/cloud-app-security/what-is-cloud-app-security"><rect x="624" y="112" width="96" height="80" rx="8" ry="8" class="i"/><text x="640.5" y="139.4" class="e">Microsoft <tspan x="630.38" dy="1.2em" class="f">Defender for </tspan><tspan x="632.73" dy="1.2em" class="f">Cloud Apps</tspan></text></a><a target="_blank" href="https://docs.microsoft.com/defender-for-identity/what-is"><rect x="512" y="112" width="96" height="80" rx="8" ry="8" class="i"/><text x="528.5" y="139.4" class="e">Microsoft <tspan x="518.38" dy="1.2em" class="f">Defender for </tspan><tspan x="535.11" dy="1.2em" class="f">Identity</tspan></text></a><a target="_blank" href="https://docs.microsoft.com/azure/active-directory/identity-protection/overview"><rect x="48" y="208" width="96" height="80" rx="8" ry="8" class="j"/><text x="76.55" y="235.4" class="e">Azure <tspan x="71.11" dy="1.2em" class="f">Identity </tspan><tspan x="61.39" dy="1.2em" class="f">Protection</tspan></text></a><a target="_blank" href="https://docs.microsoft.com/azure/active-directory/active-directory-privileged-identity-management-configure"><rect x="272" y="208" width="96" height="80" rx="8" ry="8" class="j"/><text x="286.54" y="235.4" class="e">Privileged <tspan x="295.11" dy="1.2em" class="f">Identity </tspan><tspan x="277.21" dy="1.2em" class="f">Management</tspan></text></a><a target="_blank" href="https://docs.microsoft.com/azure/active-directory/governance/access-reviews-overview"><rect x="48" y="112" width="96" height="80" rx="8" ry="8" class="j"/><text x="71.48" y="147.8" class="e">Access <tspan x="67.98" dy="1.2em" class="f">Reviews</tspan></text></a><a target="_blank" href="https://docs.microsoft.com/azure/active-directory/active-directory-conditional-access-conditions#sign-in-risk"><rect x="384" y="208" width="96" height="80" rx="8" ry="8" class="j"/><text x="393.87" y="235.4" class="e">Risk-Based <tspan x="393.51" dy="1.2em" class="f">Conditional </tspan><tspan x="407.48" dy="1.2em" class="f">Access</tspan></text></a><a target="_blank" href="https://docs.microsoft.com/azure/active-directory/governance/entitlement-management-overview"><rect x="160" y="208" width="96" height="80" rx="8" ry="8" class="j"/><text x="169.89" y="243.8" class="e">Entitlement <tspan x="165.21" dy="1.2em" class="f">Management</tspan></text></a><a target="_blank" href="https://docs.microsoft.com/azure/information-protection/what-is-information-protection"><rect x="624" y="400" width="96" height="80" rx="8" ry="8" class="h"/><text x="633.5" y="435.8" class="e">Information <tspan x="637.39" dy="1.2em" class="f">Protection</tspan></text></a><a target="_blank" href="https://docs.microsoft.com/azure/information-protection/deploy-aip-scanner"><rect x="512" y="208" width="96" height="80" rx="8" ry="8" class="i"/><text x="520.63" y="228.5" class="k">Rules-Based <tspan x="517.74" dy="1.2em" class="f">Classification </tspan><tspan x="520.64" dy="1.2em" class="f">(AIP Client &amp; </tspan><tspan x="532.18" dy="1.2em" class="f">Scanner)</tspan></text></a><a target="_blank" href="https://www.microsoft.com/cloud-platform/enterprise-mobility-security"><rect x="16" y="16" width="720" height="64" rx="8" ry="8" class="l"/><text x="220.12" y="42" class="m">Enterprise Mobility + Security E5<tspan x="332.66" dy="1.2em" class="f">(EMS E5)</tspan></text></a><a target="_blank" href="https://azure.microsoft.com/pricing/details/active-directory/"><rect x="32" y="672" width="464" height="48" rx="8" ry="8" class="n"/><text x="178.03" y="700.2" class="o">Azure AD Premium Plan 2</text></a></svg>