<svg xmlns="http://www.w3.org/2000/svg" width="864" height="656" viewBox="0 0 864 656" class="a"><style>
.b {fill:#a5a5a5;fill-opacity:0.2;stroke:#2080a0;stroke-linecap:round;stroke-linejoin:round;stroke-width:2.25}
.c {fill:#a5a5a5;fill-opacity:0.2;stroke:#0070f7;stroke-dasharray:2.25,4.5;stroke-linecap:round;stroke-linejoin:round;stroke-width:2.25}
.d {fill:#0070f7;stroke:none;stroke-linecap:round;stroke-linejoin:round;stroke-width:0.25}
.e {fill:#ffffff;font-family:Arial;font-size:1.17em;font-weight:bold}
.f {font-size:1em}
.g {baseline-shift:32.49%;font-size:0.65em}
.h {fill:#2080a0;stroke:none;stroke-linecap:round;stroke-linejoin:round;stroke-width:0.25}
.i {fill:#2080a0;stroke:#2080a0;stroke-linecap:round;stroke-linejoin:round;stroke-width:2.25}
.j {fill:#ffffff;font-family:Arial;font-size:1.67em;font-weight:bold}
.k {fill:none;stroke:none;stroke-linecap:round;stroke-linejoin:round;stroke-width:2.5}
.l {fill:#000000;font-family:Arial;font-size:1.17em;font-weight:bold}
.a {fill:none;fill-rule:evenodd;font-size:12px;overflow:visible;stroke-linecap:square;stroke-miterlimit:3}
</style><rect x="16" y="16" width="832" height="624" rx="8" ry="8" class="b"/><rect x="32" y="288" width="800" height="336" rx="8" ry="8" class="c"/><a target="_blank" href="https://docs.microsoft.com/azure/active-directory/reports-monitoring/"><rect x="48" y="304" width="96" height="80" rx="8" ry="8" class="d"/><text x="62.55" y="323" class="e">Advanced <tspan x="68.38" dy="1.2em" class="f">Security </tspan><tspan x="62.55" dy="1.2em" class="f">Reports &amp; </tspan><tspan x="76.16" dy="1.2em" class="f">Alerts</tspan></text></a><a target="_blank" href="https://docs.microsoft.com/azure/active-directory/hybrid/how-to-connect-sso"><rect x="720" y="400" width="96" height="80" rx="8" ry="8" class="d"/><text x="727.17" y="427.4" class="e">Single-Sign-<tspan x="730.28" dy="1.2em" class="f">On to other </tspan><tspan x="750.88" dy="1.2em" class="f">SaaS</tspan></text></a><a target="_blank" href="https://docs.microsoft.com/azure/active-directory/manage-apps/application-proxy"><rect x="160" y="304" width="96" height="80" rx="8" ry="8" class="d"/><text x="171.05" y="331.4" class="e">App Proxy, <tspan x="176.89" dy="1.2em" class="f">including </tspan><tspan x="168.31" dy="1.2em" class="f">PingAccess</tspan></text></a><a target="_blank" href="https://docs.microsoft.com/azure/active-directory/authentication/concept-mfa-howitworks"><rect x="272" y="400" width="96" height="80" rx="8" ry="8" class="d"/><text x="279.95" y="435.8" class="e">Multi-Factor <tspan x="282.29" dy="1.2em" class="f">Auth (MFA)</tspan></text></a><a target="_blank" href="https://docs.microsoft.com/azure/active-directory/hybrid/whatis-azure-ad-connect#what-is-azure-ad-connect-health"><rect x="272" y="304" width="96" height="80" rx="8" ry="8" class="d"/><text x="288.5" y="331.4" class="e">Azure AD <tspan x="292" dy="1.2em" class="f">Connect </tspan><tspan x="298.61" dy="1.2em" class="f">Health</tspan></text></a><a target="_blank" href="https://docs.microsoft.com/cloud-app-security/set-up-cloud-discovery"><rect x="608" y="304" width="96" height="80" rx="8" ry="8" class="d"/><text x="620.62" y="339.8" class="e">Cloud App <tspan x="622.54" dy="1.2em" class="f">Discovery</tspan></text></a><a target="_blank" href="https://docs.microsoft.com/azure/active-directory/users-groups-roles/users-sharing-accounts"><rect x="608" y="400" width="96" height="80" rx="8" ry="8" class="d"/><text x="632.27" y="419" class="e">Shared <tspan x="628" dy="1.2em" class="f">Account </tspan><tspan x="622.93" dy="1.2em" class="f">Password </tspan><tspan x="624.49" dy="1.2em" class="f">Roll</tspan>-Over</text></a><a target="_blank" href="https://docs.microsoft.com/azure/active-directory/authentication/concept-sspr-howitworks"><rect x="496" y="400" width="96" height="80" rx="8" ry="8" class="d"/><text x="503.92" y="427.4" class="e">Self-Service <tspan x="510.93" dy="1.2em" class="f">Password </tspan><tspan x="504.71" dy="1.2em" class="f">Reset in AD</tspan></text></a><a target="_blank" href="https://docs.microsoft.com/azure/active-directory/users-groups-roles/groups-self-service-management"><rect x="384" y="400" width="96" height="80" rx="8" ry="8" class="d"/><text x="391.92" y="427.4" class="e">Self-Service <tspan x="411" dy="1.2em" class="f">Group </tspan><tspan x="389.21" dy="1.2em" class="f">Management</tspan></text></a><a target="_blank" href="https://docs.microsoft.com/azure/active-directory/conditional-access/overview"><rect x="720" y="304" width="96" height="80" rx="8" ry="8" class="d"/><text x="729.51" y="339.8" class="e">Conditional <tspan x="743.48" dy="1.2em" class="f">Access</tspan></text></a><a target="_blank" href="https://docs.microsoft.com/azure/active-directory/external-identities/"><rect x="383.2" y="304" width="96" height="80" rx="8" ry="8" class="d"/><text x="399.7" y="331.4" class="e">Azure AD <tspan x="403.58" dy="1.2em" class="f">External </tspan><tspan x="400.47" dy="1.2em" class="f">Identities</tspan></text></a><a target="_blank" href="https://docs.microsoft.com/azure/active-directory/devices/enterprise-state-roaming-overview"><rect x="48" y="400" width="96" height="80" rx="8" ry="8" class="d"/><text x="61.38" y="427.4" class="e">Enterprise <tspan x="78.88" dy="1.2em" class="f">State </tspan><tspan x="66.06" dy="1.2em" class="f">Roaming</tspan></text></a><a target="_blank" href="https://docs.microsoft.com/azure/active-directory/governance/active-directory-tou"><rect x="48" y="496" width="96" height="80" rx="8" ry="8" class="d"/><text x="66.44" y="531.8" class="e">Terms of <tspan x="83.16" dy="1.2em" class="f">Use</tspan></text></a><a target="_blank" href="https://docs.microsoft.com/azure/active-directory/authentication/concept-password-ban-bad"><rect x="496" y="304" width="96" height="80" rx="8" ry="8" class="d"/><text x="512.5" y="331.4" class="e">Azure AD <tspan x="510.93" dy="1.2em" class="f">Password </tspan><tspan x="509.39" dy="1.2em" class="f">Protection</tspan></text></a><a target="_blank" href="https://docs.microsoft.com/microsoft-identity-manager/"><rect x="160" y="400" width="96" height="80" rx="8" ry="8" class="d"/><text x="176.5" y="427.4" class="e">Microsoft <tspan x="183.11" dy="1.2em" class="f">Identity </tspan><tspan x="179.21" dy="1.2em" class="f">Manager</tspan></text></a><a target="_blank" href="https://docs.microsoft.com/azure/active-directory/conditional-access/controls#custom-controls-preview"><rect x="160" y="496" width="96" height="80" rx="8" ry="8" class="d"/><text x="180.78" y="523.4" class="e">3<tspan dy="-0.24em" class="g">rd </tspan><tspan dy="0.15em" class="f">Party  </tspan><tspan x="192.84" dy="1.2em" class="f">MFA </tspan><tspan x="171.83" dy="1.2em" class="f">Integration</tspan></text></a><a target="_blank" href="https://docs.microsoft.com/advanced-threat-analytics/"><rect x="160" y="96" width="96" height="80" rx="8" ry="8" class="h"/><text x="174.55" y="115" class="e">Advanced <tspan x="186.61" dy="1.2em" class="f">Threat </tspan><tspan x="176.88" dy="1.2em" class="f">Analytics </tspan><tspan x="179.22" dy="1.2em" class="f">(retiring)</tspan></text></a><a target="_blank" href="https://docs.microsoft.com/mem/intune/fundamentals/what-is-intune"><rect x="608" y="96" width="96" height="80" rx="8" ry="8" class="h"/><text x="616.34" y="131.8" class="e">Intune MDM <tspan x="632.28" dy="1.2em" class="f">&amp; MAM</tspan></text></a><a target="_blank" href="https://www.microsoft.com/licensing/product-licensing/client-access-license"><rect x="160" y="192" width="96" height="80" rx="8" ry="8" class="h"/><text x="177.28" y="219.4" class="e">Windows <tspan x="169.87" dy="1.2em" class="f">Server CAL </tspan><tspan x="186.22" dy="1.2em" class="f">Rights</tspan></text></a><a target="_blank" href="https://docs.microsoft.com/configmgr/core/understand/introduction"><rect x="720" y="96" width="96" height="80" rx="8" ry="8" class="h"/><text x="736.5" y="115" class="e">Microsoft <tspan x="737.68" dy="1.2em" class="f">Endpoint </tspan><tspan x="745.84" dy="1.2em" class="f">Config </tspan><tspan x="739.21" dy="1.2em" class="f">Manager</tspan></text></a><a target="_blank" href="https://docs.microsoft.com/sccm/protect/deploy-use/endpoint-protection"><rect x="48" y="192" width="96" height="80" rx="8" ry="8" class="h"/><text x="71.1" y="211" class="e">System <tspan x="73.83" dy="1.2em" class="f">Center </tspan><tspan x="65.68" dy="1.2em" class="f">Endpoint </tspan><tspan x="61.39" dy="1.2em" class="f">Protection</tspan></text></a><a target="_blank" href="https://docs.microsoft.com/azure/information-protection/compare-on-premise"><rect x="48" y="96" width="96" height="80" rx="8" ry="8" class="h"/><text x="74.99" y="123.4" class="e">Active <tspan x="65.27" dy="1.2em" class="f">Directory </tspan><tspan x="80.45" dy="1.2em" class="f">RMS</tspan></text></a><a target="_blank" href="https://docs.microsoft.com/azure/information-protection/what-is-azure-rms"><rect x="272" y="96" width="96" height="80" rx="8" ry="8" class="h"/><text x="300.55" y="131.8" class="e">Azure <tspan x="304.45" dy="1.2em" class="f">RMS</tspan></text></a><a target="_blank" href="https://docs.microsoft.com/mem/analytics/overview"><rect x="384" y="96" width="96" height="80" rx="8" ry="8" class="h"/><text x="401.68" y="131.8" class="e">Endpoint <tspan x="400.88" dy="1.2em" class="f">Analytics</tspan></text></a><a target="_blank" href="https://docs.microsoft.com/azure/information-protection/what-is-information-protection"><rect x="496" y="96" width="96" height="80" rx="8" ry="8" class="h"/><text x="505.5" y="131.8" class="e">Information <tspan x="509.39" dy="1.2em" class="f">Protection</tspan></text></a><a target="_blank" href="https://www.microsoft.com/cloud-platform/enterprise-mobility-security"><rect x="16" y="16" width="832" height="64" rx="8" ry="8" class="i"/><text x="276.12" y="42" class="j">Enterprise Mobility + Security E3<tspan x="388.66" dy="1.2em" class="f">(EMS E3)</tspan></text></a><a target="_blank" href="https://azure.microsoft.com/pricing/details/active-directory/"><rect x="30.64" y="576" width="800" height="48" rx="8" ry="8" class="k"/><text x="344.67" y="604.2" class="l">Azure AD Premium Plan 1</text></a></svg>