<svg xmlns="http://www.w3.org/2000/svg" width="608" height="560" viewBox="0 0 608 560" class="a"><style>
.b {fill:#d8d8d8;fill-opacity:0.6;stroke:#002060;stroke-linecap:round;stroke-linejoin:round;stroke-width:2.25}
.c {fill:#a5a5a5;fill-opacity:0.2;stroke:#303040;stroke-linecap:round;stroke-linejoin:round;stroke-width:2.25}
.d {fill:#7030a0;stroke:none;stroke-linecap:round;stroke-linejoin:round;stroke-width:0.5}
.e {fill:#ffffff;font-family:Arial;font-size:1.17em;font-weight:bold}
.f {font-size:1em}
.g {fill:#ffffff;font-family:Arial;font-size:1.08em;font-weight:bold}
.h {fill:#002060;stroke:#002060;stroke-linecap:round;stroke-linejoin:round;stroke-width:2.25}
.i {fill:#ffffff;font-family:Arial;font-size:1.67em;font-weight:bold}
.j {fill:#ffffff;fill-opacity:0.75;stroke:none;stroke-linecap:round;stroke-linejoin:round;stroke-width:0.5}
.k {fill:#000000;font-family:Arial;font-size:1.17em}
.l {fill:#e00080;stroke:none;stroke-linecap:round;stroke-linejoin:round;stroke-width:0.5}
.m {fill:#303040;stroke:#303040;stroke-linecap:round;stroke-linejoin:round;stroke-width:2.25}
.a {fill:none;fill-rule:evenodd;font-size:12px;overflow:visible;stroke-linecap:square;stroke-miterlimit:3}
</style><rect x="16" y="400" width="576" height="144" rx="8" ry="8" class="b"/><rect x="16" y="16" width="576" height="352" rx="8" ry="8" class="c"/><a target="_blank" href="https://docs.microsoft.com/MicrosoftTeams/what-is-phone-system-in-office-365"><rect x="480" y="176" width="96" height="80" rx="8" ry="8" class="d"/><text x="505.82" y="211.8" class="e">Teams <tspan x="506.61" dy="1.2em" class="f">Phone</tspan></text></a><a target="_blank" href="https://docs.microsoft.com/microsoftteams/audio-conferencing-in-office-365"><rect x="32" y="80" width="96" height="80" rx="8" ry="8" class="d"/><text x="61.59" y="108.3" class="g">Audio <tspan x="38.11" dy="1.2em" class="f">Conferencing </tspan><tspan x="64.12" dy="1.2em" class="f">(Full)</tspan></text></a><a target="_blank" href="https://products.office.com/microsoft-teams/"><rect x="256" y="176" width="96" height="80" rx="8" ry="8" class="d"/><text x="272.5" y="211.8" class="e">Microsoft <tspan x="281.82" dy="1.2em" class="f">Teams</tspan></text></a><a target="_blank" href="https://docs.microsoft.com/microsoftteams/rooms/microsoft-teams-rooms-premium#service-capabilities"><rect x="256" y="272" width="96" height="80" rx="8" ry="8" class="d"/><text x="284.17" y="299.4" class="e">Room <tspan x="267.45" dy="1.2em" class="f">Planning &amp; </tspan><tspan x="279.9" dy="1.2em" class="f">Rollout</tspan></text></a><a target="_blank" href="https://docs.microsoft.com/microsoftteams/rooms/microsoft-teams-rooms-premium#service-features"><rect x="368" y="176" width="96" height="80" rx="8" ry="8" class="d"/><text x="379.84" y="203.4" class="e">Monitoring <tspan x="373.61" dy="1.2em" class="f">and Trouble</tspan>-<tspan x="386.45" dy="1.2em" class="f">shooting</tspan></text></a><a target="_blank" href="https://docs.microsoft.com/microsoftteams/rooms/microsoft-teams-rooms-premium#service-features"><rect x="368" y="272" width="96" height="80" rx="8" ry="8" class="d"/><text x="388.38" y="299.4" class="e">Security <tspan x="392.28" dy="1.2em" class="f">Update </tspan><tspan x="373.21" dy="1.2em" class="f">Management</tspan></text></a><a target="_blank" href="https://docs.microsoft.com/microsoftteams/rooms/microsoft-teams-rooms-premium#service-features"><rect x="480" y="80" width="96" height="80" rx="8" ry="8" class="d"/><text x="486.78" y="115.8" class="e">Insights and <tspan x="486" dy="1.2em" class="f">Suggestions</tspan></text></a><a target="_blank" href="https://docs.microsoft.com/microsoftteams/rooms/microsoft-teams-rooms-premium#customer-support"><rect x="256" y="80" width="96" height="80" rx="8" ry="8" class="d"/><text x="271.33" y="115.8" class="e">Customer <tspan x="277.17" dy="1.2em" class="f">Support</tspan></text></a><a target="_blank" href="https://docs.microsoft.com/mem/intune/fundamentals/what-is-intune"><rect x="144" y="176" width="96" height="80" rx="8" ry="8" class="d"/><text x="160.5" y="211.8" class="e">Microsoft <tspan x="171" dy="1.2em" class="f">Intune</tspan></text></a><a target="_blank" href="https://docs.microsoft.com/microsoftteams/rooms/microsoft-teams-rooms-premium#service-capabilities"><rect x="480" y="272" width="96" height="80" rx="8" ry="8" class="d"/><text x="484.41" y="307.8" class="e">Service Desk <tspan x="491.83" dy="1.2em" class="f">Integration</tspan></text></a><a target="_blank" href="https://docs.microsoft.com/microsoftteams/rooms/microsoft-teams-rooms-premium#service-features"><rect x="32" y="176" width="96" height="80" rx="8" ry="8" class="d"/><text x="48.49" y="211.8" class="e">Inventory <tspan x="37.21" dy="1.2em" class="f">Management</tspan></text></a><a target="_blank" href="https://docs.microsoft.com/microsoftteams/rooms/microsoft-teams-rooms-premium#service-features"><rect x="144" y="272" width="96" height="80" rx="8" ry="8" class="d"/><text x="172.17" y="307.8" class="e">Room <tspan x="157.39" dy="1.2em" class="f">Enrolment</tspan></text></a><a target="_blank" href="https://docs.microsoft.com/microsoftteams/rooms/microsoft-teams-rooms-premium#service-features"><rect x="32" y="272" width="96" height="80" rx="8" ry="8" class="d"/><text x="36.45" y="316.2" class="e">Room Admin</text></a><a target="_blank" href="https://docs.microsoft.com/microsoftteams/rooms/microsoft-teams-rooms-premium#service-features"><rect x="368" y="80" width="96" height="80" rx="8" ry="8" class="d"/><text x="393.43" y="107.4" class="e">Device <tspan x="392.28" dy="1.2em" class="f">Update </tspan><tspan x="373.21" dy="1.2em" class="f">Management</tspan></text></a><g><rect x="16" y="400" width="576" height="32" rx="8" ry="8" class="h"/><text x="223.95" y="422" class="i">Related Services</text></g><g><rect x="320" y="448" width="256" height="80" rx="8" ry="8" class="j"/><text x="437.39" y="483.8" class="k">PSTN telephony <tspan x="437.39" dy="1.2em" class="f">calling plans</tspan></text></g><g><rect x="32" y="448" width="256" height="80" rx="8" ry="8" class="j"/><text x="149.39" y="475.4" class="k">Branding, monitoring, <tspan x="149.39" dy="1.2em" class="f">and meetings </tspan><tspan x="149.39" dy="1.2em" class="f">analysis</tspan></text></g><a target="_blank" href="https://products.office.com/microsoft-teams/voice-calling"><rect x="320" y="448" width="96" height="80" rx="8" ry="8" class="l"/><text x="344.67" y="483.8" class="e">Calling <tspan x="349.32" dy="1.2em" class="f">Plans</tspan></text></a><a target="_blank" href="https://docs.microsoft.com/microsoftteams/teams-add-on-licensing/advanced-communications"><rect x="32" y="448" width="96" height="80" rx="8" ry="8" class="l"/><text x="46.55" y="483.8" class="e">Advanced <tspan x="54.33" dy="1.2em" class="f">Comms</tspan></text></a><a target="_blank" href="https://docs.microsoft.com/microsoftteams/rooms/"><rect x="16" y="16" width="576" height="48" rx="8" ry="8" class="m"/><text x="142.3" y="46" class="i">Microsoft Teams Rooms Premium</text></a><a target="_blank" href="https://azure.microsoft.com/pricing/details/active-directory/"><rect x="144" y="80" width="96" height="80" rx="8" ry="8" class="d"/><text x="160.5" y="107.4" class="e">Azure AD <tspan x="162.05" dy="1.2em" class="f">Premium </tspan><tspan x="171.38" dy="1.2em" class="f">Plan 1</tspan></text></a></svg>