<svg xmlns="http://www.w3.org/2000/svg" width="640" height="848" viewBox="0 0 640 848" class="a"><style>
.b {fill:#a5a5a5;fill-opacity:0.2;stroke:#7030a0;stroke-linecap:round;stroke-linejoin:round;stroke-width:2.25}
.c {fill:#7030a0;stroke:#7030a0;stroke-linecap:round;stroke-linejoin:round;stroke-width:2.25}
.d {fill:#ffffff;font-family:Arial;font-size:1.67em;font-weight:bold}
.e {fill:none;stroke:none;stroke-linecap:round;stroke-linejoin:round;stroke-width:0.75}
.f {fill:#0070f7;font-family:Arial;font-size:3em;font-weight:bold}
.g {fill:#0070f7;font-family:Arial;font-size:2.5em;font-weight:bold}
.h {fill:#0070f7;font-family:Arial;font-size:1.5em;font-weight:bold}
.i {fill:#a41500;stroke:none;stroke-linecap:round;stroke-linejoin:round;stroke-width:1}
.j {fill:#ffffff;font-family:Arial;font-size:1.17em;font-weight:bold}
.k {font-size:1em}
.l {fill:#ffffff;font-family:Arial;font-size:1.08em;font-weight:bold}
.m {font-size:0.93em}
.a {fill:none;fill-rule:evenodd;font-size:12px;overflow:visible;stroke-linecap:square;stroke-miterlimit:3}
</style><rect x="16" y="144" width="608" height="688" rx="8" ry="8" class="b"/><a target="_blank" href="https://www.microsoft.com/microsoft-365/business/microsoft-365-business-basic"><rect x="16" y="800" width="608" height="32" rx="8" ry="8" class="c"/><text x="178.83" y="822" class="d">Microsoft 365 Business Basic</text></a><a target="_blank" href="https://www.microsoft.com/microsoft-365/business/microsoft-365-business-basic"><rect x="16" y="144" width="608" height="32" rx="8" ry="8" class="c"/><text x="178.83" y="166" class="d">Microsoft 365 Business Basic</text></a><a target="_blank" href="https://m365maps.com/"><rect x="16" y="16" width="608" height="48" class="e"/><text x="65.9" y="50.8" class="f">Microsoft 365 Business Basic</text></a><g><rect x="16" y="64" width="608" height="32" class="e"/><text x="224.93" y="89" class="g">January 2022</text></g><a target="_blank" href="https://m365maps.com/"><rect x="16" y="96" width="608" height="32" class="e"/><text x="252.46" y="117.4" class="h">m365maps.com</text></a><a target="_blank" href="https://docs.microsoft.com/microsoft-365/admin/basic-mobility-security/capabilities"><rect x="496" y="208" width="96" height="80" rx="8" ry="8" class="i"/><text x="525.32" y="235.4" class="j">Basic <tspan x="510.56" dy="1.2em" class="k">Mobility &amp; </tspan><tspan x="516.38" dy="1.2em" class="k">Security</tspan></text></a><a target="_blank" href="https://docs.microsoft.com/office365/servicedescriptions/exchange-online-service-description/exchange-online-service-description#feature-availability-across-exchange-online-standalone-plans"><rect x="48" y="304" width="96" height="80" rx="8" ry="8" class="i"/><text x="62.93" y="331.4" class="j">Exchange <tspan x="74.22" dy="1.2em" class="k">Online </tspan><tspan x="75.38" dy="1.2em" class="k">Plan 1</tspan></text></a><a target="_blank" href="https://docs.microsoft.com/sharepoint/introduction"><rect x="48" y="592" width="96" height="80" rx="8" ry="8" class="i"/><text x="59.05" y="619.4" class="j">SharePoint <tspan x="74.22" dy="1.2em" class="k">Online</tspan><tspan x="75.38" dy="1.2em" class="k">Plan 1</tspan></text></a><a target="_blank" href="https://docs.microsoft.com/office365/servicedescriptions/onedrive-for-business-service-description"><rect x="48" y="496" width="96" height="80" rx="8" ry="8" class="i"/><text x="53.6" y="523.4" class="j">OneDrive for <tspan x="64.88" dy="1.2em" class="k">Business </tspan><tspan x="75.38" dy="1.2em" class="k">Plan 1</tspan></text></a><a target="_blank" href="https://products.office.com/yammer/yammer-overview"><rect x="48" y="688" width="96" height="80" rx="8" ry="8" class="i"/><text x="68.37" y="723.8" class="j">Yammer <tspan x="61.38" dy="1.2em" class="k">Enterprise</tspan></text></a><a target="_blank" href="https://products.office.com/business/task-management-software"><rect x="160" y="496" width="96" height="80" rx="8" ry="8" class="i"/><text x="182.32" y="540.2" class="j">Planner</text></a><a target="_blank" href="https://products.office.com/microsoft-teams/"><rect x="48" y="400" width="96" height="80" rx="8" ry="8" class="i"/><text x="64.5" y="435.8" class="j">Microsoft <tspan x="73.82" dy="1.2em" class="k">Teams</tspan></text></a><a target="_blank" href="https://docs.microsoft.com/stream/"><rect x="160" y="592" width="96" height="80" rx="8" ry="8" class="i"/><text x="172.99" y="627.8" class="j">Stream for <tspan x="174.54" dy="1.2em" class="k">Office 365</tspan></text></a><a target="_blank" href="https://docs.microsoft.com/viva/insights/personal/overview/plans-environments"><rect x="160" y="304" width="96" height="80" rx="8" ry="8" class="i"/><text x="171.05" y="339.8" class="j">Insights by <tspan x="167.15" dy="1.2em" class="k">MyAnalytics</tspan></text></a><a target="_blank" href="https://powerapps.microsoft.com/"><rect x="272" y="496" width="96" height="80" rx="8" ry="8" class="i"/><text x="279.55" y="523.4" class="j">Power Apps<tspan x="310.67" dy="1.2em" class="k">for</tspan><tspan x="286.54" dy="1.2em" class="k">Office 365</tspan></text></a><a target="_blank" href="https://powerautomate.microsoft.com/"><rect x="384" y="496" width="96" height="80" rx="8" ry="8" class="i"/><text x="410.99" y="523.4" class="j">Power <tspan x="388.45" dy="1.2em" class="k">Automate for</tspan><tspan x="398.54" dy="1.2em" class="k">Office 365</tspan></text></a><a target="_blank" href="https://support.office.com/sway"><rect x="272" y="592" width="96" height="80" rx="8" ry="8" class="i"/><text x="302.1" y="636.2" class="j">Sway</text></a><a target="_blank" href="https://support.office.com/forms"><rect x="384" y="304" width="96" height="80" rx="8" ry="8" class="i"/><text x="400.5" y="339.8" class="j">Microsoft <tspan x="410.61" dy="1.2em" class="k">Forms</tspan></text></a><a target="_blank" href="https://docs.microsoft.com/powerapps/teams/overview-data-platform"><rect x="272" y="304" width="96" height="80" rx="8" ry="8" class="i"/><text x="288.5" y="331.4" class="j">Microsoft <tspan x="286.53" dy="1.2em" class="k">Dataverse </tspan><tspan x="286.55" dy="1.2em" class="k">for Teams</tspan></text></a><a target="_blank" href="https://products.office.com/mobile/office"><rect x="496" y="400" width="96" height="80" rx="8" ry="8" class="i"/><text x="524.16" y="435.8" class="j">Office<tspan x="502.39" dy="1.2em" class="k">Mobile Apps</tspan></text></a><a target="_blank" href="https://docs.microsoft.com/office365/servicedescriptions/office-online-service-description/office-online-service-description"><rect x="384" y="400" width="96" height="80" rx="8" ry="8" class="i"/><text x="412.16" y="427.4" class="j">Office<tspan x="393.5" dy="1.2em" class="k">for the Web</tspan><tspan x="396.61" dy="1.2em" class="k">(incl Visio)</tspan></text></a><a target="_blank" href="https://www.microsoft.com/microsoft-365/microsoft-lists"><rect x="496" y="304" width="96" height="80" rx="8" ry="8" class="i"/><text x="512.5" y="339.8" class="j">Microsoft <tspan x="527.66" dy="1.2em" class="k">Lists</tspan></text></a><a target="_blank" href="https://support.microsoft.com/office/d236aef8-fcdf-4b5e-b5d7-7f157461e920"><rect x="272" y="400" width="96" height="80" rx="8" ry="8" class="i"/><text x="288.5" y="435.8" class="j">Microsoft <tspan x="281.5" dy="1.2em" class="k">Whiteboard</tspan></text></a><a target="_blank" href="https://www.microsoft.com/microsoft-365/microsoft-to-do-list-app"><rect x="160" y="400" width="96" height="80" rx="8" ry="8" class="i"/><text x="176.5" y="435.8" class="j">Microsoft <tspan x="187.79" dy="1.2em" class="k">To</tspan>-Do</text></a><a target="_blank" href="https://docs.microsoft.com/power-virtual-agents/teams/fundamentals-what-is-power-virtual-agents-teams"><rect x="496" y="496" width="96" height="80" rx="8" ry="8" class="i"/><text x="502.46" y="524.3" class="l">Power Virtual <tspan x="511.5" dy="1.2em" class="k">Agents for </tspan><tspan x="523.4" dy="1.2em" class="k">Teams</tspan></text></a><a target="_blank" href="https://azure.microsoft.com/pricing/details/active-directory/"><rect x="384" y="208" width="96" height="80" rx="8" ry="8" class="i"/><text x="389.22" y="243.8" class="j">Azure AD for <tspan x="398.54" dy="1.2em" class="k">Office 365</tspan></text></a><a target="_blank" href="https://docs.microsoft.com/microsoftteams/audio-conferencing-in-office-365"><rect x="160" y="208" width="96" height="80" rx="8" ry="8" class="i"/><text x="188.17" y="236.6" class="j">Audio <tspan x="166.11" dy="1.22em" class="m">Conferencing </tspan><tspan x="167.91" dy="1.2em" class="m">(Dial In Only)</tspan></text></a><a target="_blank" href="https://docs.microsoft.com/office365/securitycompliance/search-the-audit-log-in-security-and-compliance"><rect x="272" y="208" width="96" height="80" rx="8" ry="8" class="i"/><text x="302.12" y="243.8" class="j">Audit <tspan x="292.4" dy="1.2em" class="k">Logging</tspan></text></a><a target="_blank" href="https://docs.microsoft.com/microsoft-365/compliance/alert-policies"><rect x="48" y="208" width="96" height="80" rx="8" ry="8" class="i"/><text x="80.05" y="243.8" class="j">Alert <tspan x="69.54" dy="1.2em" class="k">Policies</tspan></text></a><a target="_blank" href="https://www.microsoft.com/microsoft-viva/connections"><rect x="384" y="592" width="96" height="80" rx="8" ry="8" class="i"/><text x="417.6" y="627.8" class="j">Viva <tspan x="389.61" dy="1.2em" class="k">Connections</tspan></text></a><a target="_blank" href="https://www.microsoft.com/microsoft-viva/learning"><rect x="496" y="592" width="96" height="80" rx="8" ry="8" class="i"/><text x="529.6" y="619.4" class="j">Viva <tspan x="514.44" dy="1.2em" class="k">Learning </tspan><tspan x="520.66" dy="1.2em" class="k">(Basic)</tspan></text></a></svg>