<svg xmlns="http://www.w3.org/2000/svg" width="2064" height="912" viewBox="0 0 2064 912" class="a"><style>
.b {fill:#a5a5a5;fill-opacity:0.2;stroke:#7030a0;stroke-linecap:round;stroke-linejoin:round;stroke-width:2.25}
.c {fill:#a5a5a5;fill-opacity:0.2;stroke:#2080a0;stroke-dasharray:33.75,20.25;stroke-linecap:round;stroke-linejoin:round;stroke-width:2.25}
.d {fill:#a5a5a5;fill-opacity:0.2;stroke:#0070f7;stroke-dasharray:2.25,4.5;stroke-linecap:round;stroke-linejoin:round;stroke-width:2.25}
.e {fill:#a5a5a5;fill-opacity:0.2;stroke:#a41500;stroke-dasharray:33.75,20.25;stroke-linecap:round;stroke-linejoin:round;stroke-width:2.25}
.f {fill:#a5a5a5;fill-opacity:0.2;stroke:#008800;stroke-dasharray:33.75,20.25;stroke-linecap:round;stroke-linejoin:round;stroke-width:2.25}
.g {fill:#2080a0;stroke:#2080a0;stroke-linecap:round;stroke-linejoin:round;stroke-width:2.25}
.h {fill:#ffffff;font-family:Arial;font-size:1.66667em;font-weight:bold}
.i {fill:#008800;stroke:#008800;stroke-linecap:round;stroke-linejoin:round;stroke-width:2.25}
.j {fill:#a41500;stroke:#a41500;stroke-linecap:round;stroke-linejoin:round;stroke-width:2.25}
.k {fill:#2080a0;stroke:none;stroke-linecap:round;stroke-linejoin:round;stroke-width:0.24}
.l {fill:#ffffff;font-family:Arial;font-size:1.16666em;font-weight:bold}
.m {font-size:1em}
.n {fill:#7030a0;stroke:#7030a0;stroke-linecap:round;stroke-linejoin:round;stroke-width:2.25}
.o {fill:none;stroke:none;stroke-linecap:round;stroke-linejoin:round;stroke-width:0.75}
.p {fill:#0070f7;font-family:Arial;font-size:3em;font-weight:bold}
.q {fill:#0070f7;font-family:Arial;font-size:2.50001em;font-weight:bold}
.r {fill:#0070f7;font-family:Arial;font-size:1.5em;font-weight:bold}
.s {fill:#008800;stroke:none;stroke-linecap:round;stroke-linejoin:round;stroke-width:2.25}
.t {font-size:0.928588em}
.u {fill:#008800;stroke:none;stroke-linecap:round;stroke-linejoin:round;stroke-width:0.24}
.v {fill:#0070f7;stroke:none;stroke-linecap:round;stroke-linejoin:round;stroke-width:0.24}
.w {fill:none;stroke:none;stroke-linecap:round;stroke-linejoin:round;stroke-width:1}
.x {fill:#000000;font-family:Arial;font-size:1.16666em;font-weight:bold}
.y {baseline-shift:32.4943%;font-size:0.649886em}
.z {fill:#008800;stroke:none;stroke-linecap:round;stroke-linejoin:round;stroke-width:2}
.ba {fill:#ffffff;font-family:Arial;font-size:1.00001em;font-weight:bold}
.bb {fill:#a41500;stroke:none;stroke-linecap:round;stroke-linejoin:round;stroke-width:1}
.bc {font-size:0.785725em}
.bd {fill:#ffffff;font-family:Arial;font-size:1.08334em;font-weight:bold}
.be {fill:#000000;font-family:Arial;font-size:1.5em}
.bf {fill:#a5a5a5;fill-opacity:0.2;stroke:#006600;stroke-dasharray:2.25,4.5;stroke-linecap:round;stroke-linejoin:round;stroke-width:2.25}
.bg {fill:#006600;stroke:none;stroke-linecap:round;stroke-linejoin:round;stroke-width:1}
.a {fill:none;fill-rule:evenodd;font-size:12px;overflow:visible;stroke-linecap:square;stroke-miterlimit:3}
</style><rect x="16" y="208" width="2032" height="624" rx="8" ry="8" class="b"/><rect x="720" y="144" width="496" height="752" rx="8" ry="8" class="c"/><rect x="736" y="336" width="464" height="432" rx="8" ry="8" class="d"/><rect x="80" y="144" width="608" height="752" rx="8" ry="8" class="e"/><rect x="1248" y="144" width="496" height="752" rx="8" ry="8" class="f"/><a target="_blank" href="https://www.microsoft.com/cloud-platform/enterprise-mobility-security"><rect x="720" y="144" width="496" height="32" rx="8" ry="8" class="g"/><text x="827.13" y="166" class="h">Enterprise Mobility + Security</text></a><a target="_blank" href="https://www.microsoft.com/windowsforbusiness"><rect x="1248" y="144" width="496" height="32" rx="8" ry="8" class="i"/><text x="1452.12" y="166" class="h">Windows</text></a><a target="_blank" href="https://products.office.com/business/"><rect x="80" y="144" width="608" height="32" rx="8" ry="8" class="j"/><text x="336.2" y="166" class="h">Office 365</text></a><a target="_blank" href="https://docs.microsoft.com/mem/intune/fundamentals/what-is-intune"><rect x="976" y="240" width="96" height="80" rx="8" ry="8" class="k"/><text x="984.34" y="275.8" class="l">Intune MDM <tspan x="1000.28" dy="1.2em" class="m">&amp; MAM</tspan></text></a><a target="_blank" href="https://www.microsoft.com/microsoft-365/business/microsoft-365-business-premium" transform="translate(-864,832) rotate(-90)"><rect y="880" width="624" height="32" rx="8" ry="8" class="n"/><text x="154.72" y="902" class="h">Microsoft 365 Business Premium</text></a><a target="_blank" href="https://m365maps.com/"><rect x="16" y="16" width="2032" height="48" class="o"/><text x="748.9" y="50.8" class="p">Microsoft 365 Business Premium</text></a><g><rect x="16" y="64" width="2032" height="32" class="o"/><text x="921.92" y="89" class="q">December 2021</text></g><a target="_blank" href="https://m365maps.com/"><rect x="16" y="96" width="2032" height="32" class="o"/><text x="964.46" y="117.4" class="r">m365maps.com</text></a><a target="_blank" href="https://support.microsoft.com/help/17209/windows-10-use-touch-with-windows"><rect x="1280" y="528" width="96" height="80" rx="8" ry="8" class="s"/><text x="1290.65" y="555.4" class="l">Voice, Pen, <tspan x="1291.06" dy="1.2em" class="m">Touch, Ink, </tspan><tspan x="1287.16" dy="1.2em" class="m">and Gesture</tspan></text></a><a target="_blank" href="https://docs.microsoft.com/microsoft-store/microsoft-store-for-business-overview"><rect x="1392" y="432" width="96" height="80" rx="8" ry="8" class="s"/><text x="1408.5" y="451" class="l">Microsoft <tspan x="1410.83" dy="1.2em" class="m">Store for </tspan><tspan x="1408.88" dy="1.2em" class="m">Business</tspan><tspan x="1413.28" dy="1.292em" class="t">(retiring)</tspan></text></a><a target="_blank" href="https://docs.microsoft.com/windows-server/identity/ad-fs/operations/configure-device-based-conditional-access-on-premises"><rect x="1504" y="528" width="96" height="80" rx="8" ry="8" class="s"/><text x="1521.28" y="555.4" class="l">Windows <tspan x="1513.51" dy="1.2em" class="m">Conditional </tspan><tspan x="1527.48" dy="1.2em" class="m">Access</tspan></text></a><a target="_blank" href="https://docs.microsoft.com/windows/security/information-protection/windows-information-protection/protect-enterprise-data-using-wip"><rect x="1392" y="624" width="96" height="80" rx="8" ry="8" class="s"/><text x="1409.28" y="651.4" class="l">Windows <tspan x="1401.5" dy="1.2em" class="m">Information </tspan><tspan x="1405.39" dy="1.2em" class="m">Protection</tspan></text></a><a target="_blank" href="https://docs.microsoft.com/windows/deployment/update/waas-manage-updates-wufb"><rect x="1504" y="624" width="96" height="80" rx="8" ry="8" class="s"/><text x="1521.28" y="651.4" class="l">Windows <tspan x="1517" dy="1.2em" class="m">Update for </tspan><tspan x="1520.88" dy="1.2em" class="m">Business</tspan></text></a><a target="_blank" href="https://docs.microsoft.com/windows/security/identity-protection/hello-for-business/hello-identity-verification"><rect x="1280" y="624" width="96" height="80" rx="8" ry="8" class="s"/><text x="1297.28" y="651.4" class="l">Windows <tspan x="1299.61" dy="1.2em" class="m">Hello for </tspan><tspan x="1296.88" dy="1.2em" class="m">Business</tspan></text></a><a target="_blank" href="https://www.microsoft.com/edge/business"><rect x="1504" y="336" width="96" height="80" rx="8" ry="8" class="s"/><text x="1523.61" y="371.8" class="l">Edge for <tspan x="1520.88" dy="1.2em" class="m">Business</tspan></text></a><a target="_blank" href="https://support.microsoft.com/help/17214/windows-10-what-is"><rect x="1392" y="336" width="96" height="80" rx="8" ry="8" class="s"/><text x="1413.55" y="380.2" class="l">Cortana</text></a><a target="_blank" href="https://docs.microsoft.com/windows/security/threat-protection/windows-defender-application-guard/wd-app-guard-overview"><rect x="1392" y="240" width="96" height="80" rx="8" ry="8" class="u"/><text x="1401.89" y="275.8" class="l">Application <tspan x="1419.39" dy="1.2em" class="m">Guard</tspan></text></a><a target="_blank" href="https://docs.microsoft.com/azure/active-directory/devices/concept-azure-ad-join"><rect x="1504" y="240" width="96" height="80" rx="8" ry="8" class="u"/><text x="1520.5" y="267.4" class="l">Azure AD<tspan x="1519.33" dy="1.2em" class="m">&amp; Domain </tspan><tspan x="1537.61" dy="1.2em" class="m">Join</tspan></text></a><a target="_blank" href="https://www.microsoft.com/windows/comprehensive-security"><rect x="1280" y="432" width="96" height="80" rx="8" ry="8" class="u"/><text x="1296.5" y="459.4" class="l">Microsoft <tspan x="1297.66" dy="1.2em" class="m">Defender </tspan><tspan x="1297.66" dy="1.2em" class="m">Antivirus</tspan></text></a><a target="_blank" href="https://docs.microsoft.com/windows/deployment/windows-autopilot/windows-autopilot"><rect x="1392" y="528" width="96" height="80" rx="8" ry="8" class="s"/><text x="1409.28" y="563.8" class="l">Windows <tspan x="1409.29" dy="1.2em" class="m">Autopilot</tspan></text></a><a target="_blank" href="https://docs.microsoft.com/windows/security/information-protection/bitlocker/bitlocker-overview"><rect x="1280" y="336" width="96" height="80" rx="8" ry="8" class="u"/><text x="1288.71" y="363.4" class="l">BitLocker &amp; <tspan x="1287.16" dy="1.2em" class="m">BitLocker to </tspan><tspan x="1318.28" dy="1.2em" class="m">Go</tspan></text></a><a target="_blank" href="https://docs.microsoft.com/windows/security/threat-protection/windows-firewall/windows-firewall-with-advanced-security"><rect x="1616" y="528" width="96" height="80" rx="8" ry="8" class="s"/><text x="1633.28" y="563.8" class="l">Windows <tspan x="1637.93" dy="1.2em" class="m">Firewall</tspan></text></a><a target="_blank" href="https://docs.microsoft.com/windows/security/threat-protection/windows-defender-application-control/windows-defender-application-control"><rect x="1280" y="240" width="96" height="80" rx="8" ry="8" class="s"/><text x="1289.89" y="275.8" class="l">Application <tspan x="1303.12" dy="1.2em" class="m">Control</tspan></text></a><a target="_blank" href="https://www.microsoft.com/cloud-platform/desktop-virtualization"><rect x="1616" y="240" width="96" height="80" rx="8" ry="8" class="u"/><text x="1620.82" y="275.8" class="l">Azure Virtual <tspan x="1636.38" dy="1.2em" class="m">Desktop</tspan></text></a><a target="_blank" href="https://docs.microsoft.com/windows/client-management/mdm/"><rect x="1616" y="336" width="96" height="80" rx="8" ry="8" class="s"/><text x="1627.82" y="371.8" class="l">Manage by <tspan x="1647.28" dy="1.2em" class="m">MDM</tspan></text></a><a target="_blank" href="https://docs.microsoft.com/azure/active-directory/reports-monitoring/"><rect x="752" y="352" width="96" height="80" rx="8" ry="8" class="v"/><text x="766.55" y="371" class="l">Advanced <tspan x="772.38" dy="1.2em" class="m">Security </tspan><tspan x="766.55" dy="1.2em" class="m">Reports &amp; </tspan><tspan x="780.16" dy="1.2em" class="m">Alerts</tspan></text></a><a target="_blank" href="https://docs.microsoft.com/azure/active-directory/hybrid/how-to-connect-sso"><rect x="864" y="640" width="96" height="80" rx="8" ry="8" class="v"/><text x="871.17" y="667.4" class="l">Single-Sign-<tspan x="874.28" dy="1.2em" class="m">On to other </tspan><tspan x="894.88" dy="1.2em" class="m">SaaS</tspan></text></a><a target="_blank" href="https://docs.microsoft.com/azure/active-directory/manage-apps/application-proxy"><rect x="864" y="352" width="96" height="80" rx="8" ry="8" class="v"/><text x="875.05" y="379.4" class="l">App Proxy, <tspan x="880.89" dy="1.2em" class="m">including </tspan><tspan x="872.31" dy="1.2em" class="m">PingAccess</tspan></text></a><a target="_blank" href="https://docs.microsoft.com/azure/active-directory/authentication/concept-mfa-howitworks"><rect x="864" y="544" width="96" height="80" rx="8" ry="8" class="v"/><text x="871.95" y="579.8" class="l">Multi-Factor <tspan x="874.29" dy="1.2em" class="m">Auth (MFA)</tspan></text></a><a target="_blank" href="https://docs.microsoft.com/azure/active-directory/hybrid/whatis-azure-ad-connect#what-is-azure-ad-connect-health"><rect x="976" y="352" width="96" height="80" rx="8" ry="8" class="v"/><text x="992.5" y="379.4" class="l">Azure AD <tspan x="996" dy="1.2em" class="m">Connect </tspan><tspan x="1002.61" dy="1.2em" class="m">Health</tspan></text></a><a target="_blank" href="https://docs.microsoft.com/cloud-app-security/set-up-cloud-discovery"><rect x="864" y="448" width="96" height="80" rx="8" ry="8" class="v"/><text x="876.62" y="483.8" class="l">Cloud App <tspan x="878.54" dy="1.2em" class="m">Discovery</tspan></text></a><a target="_blank" href="https://docs.microsoft.com/azure/active-directory/users-groups-roles/users-sharing-accounts"><rect x="752" y="640" width="96" height="80" rx="8" ry="8" class="v"/><text x="776.27" y="659" class="l">Shared <tspan x="772" dy="1.2em" class="m">Account </tspan><tspan x="766.93" dy="1.2em" class="m">Password </tspan><tspan x="768.49" dy="1.2em" class="m">Roll</tspan>-Over</text></a><a target="_blank" href="https://docs.microsoft.com/azure/active-directory/authentication/concept-sspr-howitworks"><rect x="1088" y="544" width="96" height="80" rx="8" ry="8" class="v"/><text x="1095.92" y="571.4" class="l">Self-Service <tspan x="1102.93" dy="1.2em" class="m">Password </tspan><tspan x="1096.71" dy="1.2em" class="m">Reset in AD</tspan></text></a><a target="_blank" href="https://docs.microsoft.com/azure/active-directory/users-groups-roles/groups-self-service-management"><rect x="976" y="544" width="96" height="80" rx="8" ry="8" class="v"/><text x="983.92" y="571.4" class="l">Self-Service <tspan x="1003" dy="1.2em" class="m">Group </tspan><tspan x="981.21" dy="1.2em" class="m">Management</tspan></text></a><a target="_blank" href="https://docs.microsoft.com/azure/active-directory/conditional-access/overview"><rect x="976" y="448" width="96" height="80" rx="8" ry="8" class="v"/><text x="985.51" y="483.8" class="l">Conditional <tspan x="999.48" dy="1.2em" class="m">Access</tspan></text></a><a target="_blank" href="https://azure.microsoft.com/pricing/details/active-directory/"><rect x="736" y="720" width="464" height="48" rx="8" ry="8" class="w"/><text x="882.03" y="748.2" class="x">Azure AD Premium Plan 1</text></a><a target="_blank" href="https://docs.microsoft.com/azure/active-directory/external-identities/"><rect x="1088" y="352" width="96" height="80" rx="8" ry="8" class="v"/><text x="1104.5" y="379.4" class="l">Azure AD <tspan x="1108.38" dy="1.2em" class="m">External </tspan><tspan x="1105.27" dy="1.2em" class="m">Identities</tspan></text></a><a target="_blank" href="https://docs.microsoft.com/azure/active-directory/devices/enterprise-state-roaming-overview"><rect x="1088" y="448" width="96" height="80" rx="8" ry="8" class="v"/><text x="1101.38" y="475.4" class="l">Enterprise <tspan x="1118.88" dy="1.2em" class="m">State </tspan><tspan x="1106.06" dy="1.2em" class="m">Roaming</tspan></text></a><a target="_blank" href="https://docs.microsoft.com/azure/active-directory/governance/active-directory-tou"><rect x="976" y="640" width="96" height="80" rx="8" ry="8" class="v"/><text x="994.44" y="675.8" class="l">Terms of <tspan x="1011.16" dy="1.2em" class="m">Use</tspan></text></a><a target="_blank" href="https://docs.microsoft.com/azure/active-directory/authentication/concept-password-ban-bad"><rect x="752" y="448" width="96" height="80" rx="8" ry="8" class="v"/><text x="768.5" y="475.4" class="l">Azure AD <tspan x="766.93" dy="1.2em" class="m">Password </tspan><tspan x="765.39" dy="1.2em" class="m">Protection</tspan></text></a><a target="_blank" href="https://docs.microsoft.com/microsoft-identity-manager/"><rect x="752" y="544" width="96" height="80" rx="8" ry="8" class="v"/><text x="768.5" y="571.4" class="l">Microsoft <tspan x="775.11" dy="1.2em" class="m">Identity </tspan><tspan x="771.21" dy="1.2em" class="m">Manager</tspan></text></a><a target="_blank" href="https://docs.microsoft.com/azure/active-directory/conditional-access/controls#custom-controls-preview"><rect x="1088" y="640" width="96" height="80" rx="8" ry="8" class="v"/><text x="1108.78" y="667.4" class="l">3<tspan dy="-0.235em" class="y">rd </tspan><tspan dy="0.153em" class="m">Party  </tspan><tspan x="1120.84" dy="1.2em" class="m">MFA </tspan><tspan x="1099.83" dy="1.2em" class="m">Integration</tspan></text></a><a target="_blank" href="https://docs.microsoft.com/mem/analytics/overview"><rect x="752" y="240" width="96" height="80" rx="8" ry="8" class="k"/><text x="769.68" y="275.8" class="l">Endpoint <tspan x="768.88" dy="1.2em" class="m">Analytics</tspan></text></a><a target="_blank" href="https://docs.microsoft.com/azure/information-protection/what-is-information-protection"><rect x="864" y="240" width="96" height="80" rx="8" ry="8" class="k"/><text x="873.5" y="275.8" class="l">Information <tspan x="877.39" dy="1.2em" class="m">Protection</tspan></text></a><a target="_blank" href="https://docs.microsoft.com/universal-print/"><rect x="1616" y="432" width="96" height="80" rx="8" ry="8" class="s"/><text x="1632.48" y="467.8" class="l">Universal <tspan x="1648.06" dy="1.2em" class="m">Print</tspan></text></a><a target="_blank" href="https://go.microsoft.com/fwlink/?linkid=2085130"><rect x="1504" y="432" width="96" height="80" rx="8" ry="8" class="z"/><text x="1533.99" y="454" class="ba">Power <tspan x="1524.33" dy="1.2em" class="m">Automate </tspan><tspan x="1526" dy="1.2em" class="m">Attended </tspan><tspan x="1509.66" dy="1.2em" class="m">Desktop Flows</tspan></text></a><a target="_blank" href="https://products.office.com/business/"><rect x="80" y="864" width="608" height="32" rx="8" ry="8" class="j"/><text x="336.2" y="886" class="h">Office 365</text></a><a target="_blank" href="https://www.microsoft.com/microsoft-365/business/microsoft-365-business-premium" transform="translate(1136,832) rotate(-90)"><rect y="880" width="624" height="32" rx="8" ry="8" class="n"/><text x="154.72" y="902" class="h">Microsoft 365 Business Premium</text></a><a target="_blank" href="https://www.microsoft.com/cloud-platform/enterprise-mobility-security"><rect x="720" y="864" width="496" height="32" rx="8" ry="8" class="g"/><text x="827.13" y="886" class="h">Enterprise Mobility + Security</text></a><a target="_blank" href="https://www.microsoft.com/windowsforbusiness"><rect x="1248" y="864" width="496" height="32" rx="8" ry="8" class="i"/><text x="1452.12" y="886" class="h">Windows</text></a><a target="_blank" href="https://docs.microsoft.com/office365/servicedescriptions/exchange-online-service-description/exchange-online-service-description#feature-availability-across-exchange-online-standalone-plans"><rect x="224" y="336" width="96" height="80" rx="8" ry="8" class="bb"/><text x="238.93" y="363.4" class="l">Exchange <tspan x="250.22" dy="1.2em" class="m">Online </tspan><tspan x="251.38" dy="1.2em" class="m">Plan 1</tspan></text></a><a target="_blank" href="https://docs.microsoft.com/sharepoint/introduction"><rect x="112" y="720" width="96" height="80" rx="8" ry="8" class="bb"/><text x="123.05" y="747.4" class="l">SharePoint <tspan x="138.22" dy="1.2em" class="m">Online</tspan><tspan x="139.38" dy="1.2em" class="m">Plan 1</tspan></text></a><a target="_blank" href="https://docs.microsoft.com/office365/servicedescriptions/onedrive-for-business-service-description"><rect x="112" y="624" width="96" height="80" rx="8" ry="8" class="bb"/><text x="117.6" y="651.4" class="l">OneDrive for <tspan x="128.88" dy="1.2em" class="m">Business </tspan><tspan x="139.38" dy="1.2em" class="m">Plan 1</tspan></text></a><a target="_blank" href="https://products.office.com/yammer/yammer-overview"><rect x="448" y="720" width="96" height="80" rx="8" ry="8" class="bb"/><text x="468.37" y="755.8" class="l">Yammer <tspan x="461.38" dy="1.2em" class="m">Enterprise</tspan></text></a><a target="_blank" href="https://products.office.com/business/task-management-software"><rect x="224" y="624" width="96" height="80" rx="8" ry="8" class="bb"/><text x="246.32" y="668.2" class="l">Planner</text></a><a target="_blank" href="https://products.office.com/microsoft-teams/"><rect x="112" y="528" width="96" height="80" rx="8" ry="8" class="bb"/><text x="128.5" y="563.8" class="l">Microsoft <tspan x="137.82" dy="1.2em" class="m">Teams</tspan></text></a><a target="_blank" href="https://docs.microsoft.com/stream/"><rect x="224" y="720" width="96" height="80" rx="8" ry="8" class="bb"/><text x="236.99" y="755.8" class="l">Stream for <tspan x="238.54" dy="1.2em" class="m">Office 365</tspan></text></a><a target="_blank" href="https://products.office.com/business/myanalytics-personal-analytics"><rect x="448" y="336" width="96" height="80" rx="8" ry="8" class="bb"/><text x="459.05" y="371.8" class="l">Insights by <tspan x="455.15" dy="1.2em" class="m">MyAnalytics</tspan></text></a><a target="_blank" href="https://powerapps.microsoft.com/"><rect x="336" y="624" width="96" height="80" rx="8" ry="8" class="bb"/><text x="343.55" y="651.4" class="l">Power Apps<tspan x="374.67" dy="1.2em" class="m">for</tspan><tspan x="350.54" dy="1.2em" class="m">Office 365</tspan></text></a><a target="_blank" href="https://powerautomate.microsoft.com/"><rect x="448" y="624" width="96" height="80" rx="8" ry="8" class="bb"/><text x="474.99" y="651.4" class="l">Power <tspan x="452.45" dy="1.2em" class="m">Automate for</tspan><tspan x="462.54" dy="1.2em" class="m">Office 365</tspan></text></a><a target="_blank" href="https://support.office.com/sway"><rect x="336" y="720" width="96" height="80" rx="8" ry="8" class="bb"/><text x="366.1" y="764.2" class="l">Sway</text></a><a target="_blank" href="https://support.office.com/forms"><rect x="448" y="432" width="96" height="80" rx="8" ry="8" class="bb"/><text x="464.5" y="467.8" class="l">Microsoft <tspan x="474.61" dy="1.2em" class="m">Forms</tspan></text></a><a target="_blank" href="https://docs.microsoft.com/microsoft-365/bookings/bookings-overview"><rect x="448" y="240" width="96" height="80" rx="8" ry="8" class="bb"/><text x="464.11" y="284.2" class="l">Bookings</text></a><a target="_blank" href="https://www.microsoft.com/microsoft-365/business/microsoft-365-apps-for-business"><rect x="112" y="432" width="96" height="80" rx="8" ry="8" class="bb"/><text x="128.5" y="451" class="l">Microsoft <tspan x="117.6" dy="1.2em" class="m">365 Apps for </tspan><tspan x="128.88" dy="1.2em" class="m">Business </tspan><tspan x="132.2" dy="1.527em" class="bc">(with SCA)</tspan></text></a><a target="_blank" href="https://docs.microsoft.com/microsoft-365/security/office-365-security/office-365-atp"><rect x="336" y="432" width="96" height="80" rx="8" ry="8" class="bb"/><text x="352.5" y="451" class="l">Microsoft <tspan x="342.38" dy="1.2em" class="m">Defender for </tspan><tspan x="350.54" dy="1.2em" class="m">Office 365 </tspan><tspan x="363.38" dy="1.2em" class="m">Plan 1</tspan></text></a><a target="_blank" href="https://docs.microsoft.com/office365/servicedescriptions/exchange-online-archiving-service-description/exchange-online-archiving-service-description"><rect x="112" y="336" width="96" height="80" rx="8" ry="8" class="bb"/><text x="126.93" y="363.4" class="l">Exchange <tspan x="138.22" dy="1.2em" class="m">Online </tspan><tspan x="127.72" dy="1.2em" class="m">Archiving</tspan></text></a><a target="_blank" href="https://docs.microsoft.com/office365/securitycompliance/data-loss-prevention-policies"><rect x="560" y="240" width="96" height="80" rx="8" ry="8" class="bb"/><text x="574.55" y="275.8" class="l">Data Loss <tspan x="571.82" dy="1.2em" class="m">Prevention</tspan></text></a><a target="_blank" href="https://docs.microsoft.com/office365/securitycompliance/ediscovery-cases"><rect x="560" y="336" width="96" height="80" rx="8" ry="8" class="bb"/><text x="576.51" y="363.4" class="l">Litigation <tspan x="585.45" dy="1.2em" class="m">Hold &amp; </tspan><tspan x="570.64" dy="1.2em" class="m">eDiscovery</tspan></text></a><a target="_blank" href="https://docs.microsoft.com/powerapps/teams/overview-data-platform"><rect x="224" y="432" width="96" height="80" rx="8" ry="8" class="bb"/><text x="240.5" y="459.4" class="l">Microsoft <tspan x="238.53" dy="1.2em" class="m">Dataverse </tspan><tspan x="238.55" dy="1.2em" class="m">for Teams</tspan></text></a><a target="_blank" href="https://docs.microsoft.com/power-virtual-agents/teams/fundamentals-what-is-power-virtual-agents-teams"><rect x="560" y="624" width="96" height="80" rx="8" ry="8" class="bb"/><text x="566.46" y="652.3" class="bd">Power Virtual <tspan x="575.5" dy="1.2em" class="m">Agents for </tspan><tspan x="587.4" dy="1.2em" class="m">Teams</tspan></text></a><a target="_blank" href="https://support.microsoft.com/office/d236aef8-fcdf-4b5e-b5d7-7f157461e920"><rect x="336" y="528" width="96" height="80" rx="8" ry="8" class="bb"/><text x="352.5" y="563.8" class="l">Microsoft <tspan x="345.5" dy="1.2em" class="m">Whiteboard</tspan></text></a><a target="_blank" href="https://www.microsoft.com/microsoft-365/microsoft-to-do-list-app"><rect x="224" y="528" width="96" height="80" rx="8" ry="8" class="bb"/><text x="240.5" y="563.8" class="l">Microsoft <tspan x="251.79" dy="1.2em" class="m">To</tspan>-Do</text></a><a target="_blank" href="https://www.microsoft.com/microsoft-365/microsoft-lists"><rect x="560" y="432" width="96" height="80" rx="8" ry="8" class="bb"/><text x="576.5" y="467.8" class="l">Microsoft <tspan x="591.66" dy="1.2em" class="m">Lists</tspan></text></a><a target="_blank" href="https://docs.microsoft.com/microsoft-365/admin/basic-mobility-security/capabilities"><rect x="336" y="240" width="96" height="80" rx="8" ry="8" class="bb"/><text x="365.32" y="267.4" class="l">Basic <tspan x="350.56" dy="1.2em" class="m">Mobility &amp; </tspan><tspan x="356.38" dy="1.2em" class="m">Security</tspan></text></a><a target="_blank" href="https://docs.microsoft.com/office365/servicedescriptions/office-online-service-description/office-online-service-description"><rect x="448" y="528" width="96" height="80" rx="8" ry="8" class="bb"/><text x="476.16" y="555.4" class="l">Office<tspan x="457.5" dy="1.2em" class="m">for the Web</tspan><tspan x="460.61" dy="1.2em" class="m">(incl Visio)</tspan></text></a><a target="_blank" href="https://products.office.com/mobile/office"><rect x="560" y="528" width="96" height="80" rx="8" ry="8" class="bb"/><text x="588.16" y="563.8" class="l">Office<tspan x="566.39" dy="1.2em" class="m">Mobile Apps</tspan></text></a><a target="_blank" href="https://docs.microsoft.com/microsoft-365/compliance/sensitivity-labels"><rect x="336" y="336" width="96" height="80" rx="8" ry="8" class="bb"/><text x="345.5" y="363.4" class="l">Information <tspan x="349.39" dy="1.2em" class="m">Protection</tspan><tspan x="355.21" dy="1.2em" class="m">for M365</tspan></text></a><a target="_blank" href="https://docs.microsoft.com/microsoftteams/audio-conferencing-in-office-365"><rect x="112" y="240" width="96" height="80" rx="8" ry="8" class="bb"/><text x="140.17" y="268.6" class="l">Audio <tspan x="118.11" dy="1.223em" class="t">Conferencing </tspan><tspan x="119.91" dy="1.2em" class="t">(Dial In Only)</tspan></text></a><a target="_blank" href="https://docs.microsoft.com/office365/securitycompliance/search-the-audit-log-in-security-and-compliance"><rect x="224" y="240" width="96" height="80" rx="8" ry="8" class="bb"/><text x="254.12" y="267.4" class="l">Audit <tspan x="237.4" dy="1.2em" class="m">Logging &amp; </tspan><tspan x="245.56" dy="1.2em" class="m">Alerting</tspan></text></a><a target="_blank" href="https://aka.ms/M365BusinessPlans"><rect x="1248" y="720" width="496" height="64" rx="8" ry="8" class="w"/><text x="1273.42" y="746.6" class="be">Microsoft 365 Business Premium includes Windows Pro <tspan x="1362.44" dy="1.2em" class="m">upgrade from earlier Pro versions</tspan></text></a><rect x="1760" y="224" width="240" height="528" rx="8" ry="8" class="bf"/><a target="_blank" href="https://docs.microsoft.com/windows/security/threat-protection/microsoft-defender-atp/overview-attack-surface-reduction"><rect x="1888" y="432" width="96" height="80" rx="8" ry="8" class="bg"/><text x="1902.55" y="467.8" class="l">Enhanced <tspan x="1921.22" dy="1.2em" class="m">ASR</tspan></text></a><a target="_blank" href="https://docs.microsoft.com/microsoft-365/security/defender-endpoint/minimum-requirements#other-supported-operating-systems"><rect x="1776" y="336" width="96" height="80" rx="8" ry="8" class="bg"/><text x="1801.83" y="363.4" class="l">Cross-<tspan x="1795.61" dy="1.2em" class="m">Platform </tspan><tspan x="1797.17" dy="1.2em" class="m">Support</tspan></text></a><a target="_blank" href="https://docs.microsoft.com/microsoft-365/security/defender-business/"><rect x="1760" y="704" width="240" height="48" rx="8" ry="8" class="w"/><text x="1771.87" y="723.8" class="x">Microsoft Defender for Business <tspan x="1849.27" dy="1.2em" class="m">(preview)</tspan></text></a><a target="_blank" href="https://docs.microsoft.com/windows/security/threat-protection/microsoft-defender-antivirus/prevent-changes-to-security-settings-with-tamper-protection"><rect x="1776" y="528" width="96" height="80" rx="8" ry="8" class="bg"/><text x="1798.71" y="563.8" class="l">Tamper <tspan x="1789.39" dy="1.2em" class="m">Protection</tspan></text></a><a target="_blank" href="https://docs.microsoft.com/windows/security/threat-protection/microsoft-defender-antivirus/configure-block-at-first-sight-microsoft-defender-antivirus"><rect x="1888" y="240" width="96" height="80" rx="8" ry="8" class="bg"/><text x="1908.77" y="275.8" class="l">Block at <tspan x="1901.39" dy="1.2em" class="m">First Sight</tspan></text></a><a target="_blank" href="https://docs.microsoft.com/windows/security/threat-protection/microsoft-defender-atp/web-content-filtering"><rect x="1888" y="624" width="96" height="80" rx="8" ry="8" class="bg"/><text x="1892.84" y="659.8" class="l">Web Content <tspan x="1908.39" dy="1.2em" class="m">Filtering</tspan></text></a><a target="_blank" href="https://docs.microsoft.com/windows/security/threat-protection/microsoft-defender-atp/microsoft-cloud-app-security-integration"><rect x="1888" y="336" width="96" height="80" rx="8" ry="8" class="bg"/><text x="1894.38" y="363.4" class="l">Defender for <tspan x="1896.73" dy="1.2em" class="m">Cloud Apps </tspan><tspan x="1899.83" dy="1.2em" class="m">Integration</tspan></text></a><a target="_blank" href="https://docs.microsoft.com/windows/security/threat-protection/windows-defender-atp/automated-investigations-windows-defender-advanced-threat-protection"><rect x="1776" y="240" width="96" height="80" rx="8" ry="8" class="bg"/><text x="1787.45" y="267.4" class="l">Automated <tspan x="1780.83" dy="1.2em" class="m">Investigation </tspan><tspan x="1783.55" dy="1.2em" class="m">&amp; Response</tspan></text></a><a target="_blank" href="https://docs.microsoft.com/windows/security/threat-protection/windows-defender-atp/overview-endpoint-detection-response"><rect x="1776" y="432" width="96" height="80" rx="8" ry="8" class="bg"/><text x="1793.68" y="459.4" class="l">Endpoint <tspan x="1785.11" dy="1.2em" class="m">Detection &amp; </tspan><tspan x="1790.55" dy="1.2em" class="m">Response</tspan></text></a><a target="_blank" href="https://docs.microsoft.com/windows/security/threat-protection/microsoft-defender-atp/next-gen-threat-and-vuln-mgt"><rect x="1776" y="624" width="96" height="80" rx="8" ry="8" class="bg"/><text x="1795.61" y="651.4" class="l">Threat &amp; <tspan x="1781.99" dy="1.2em" class="m">Vulnerability </tspan><tspan x="1781.21" dy="1.2em" class="m">Management</tspan></text></a><a target="_blank" href="https://docs.microsoft.com/windows/security/threat-protection/windows-defender-atp/threat-analytics"><rect x="1888" y="528" width="96" height="80" rx="8" ry="8" class="bg"/><text x="1914.61" y="563.8" class="l">Threat <tspan x="1904.88" dy="1.2em" class="m">Analytics</tspan></text></a></svg>