<svg xmlns="http://www.w3.org/2000/svg" width="560" height="736" viewBox="0 0 560 736" class="a"><style>
.b {fill:#a5a5a5;fill-opacity:0.2;stroke:#004400;stroke-linecap:round;stroke-linejoin:round;stroke-width:2.25}
.c {fill:#a5a5a5;fill-opacity:0.2;stroke:#006600;stroke-dasharray:15.75,11.25;stroke-linecap:round;stroke-linejoin:round;stroke-width:2.25}
.d {fill:#a6a6a6;fill-opacity:0.2;stroke:#008800;stroke-dasharray:2.25,4.5;stroke-linecap:round;stroke-linejoin:round;stroke-width:2.25}
.e {fill:#006600;stroke:#006600;stroke-linecap:round;stroke-linejoin:round;stroke-width:2.25}
.f {fill:#ffffff;font-family:Arial;font-size:1.5em;font-weight:bold}
.g {fill:#004400;stroke:#004400;stroke-linecap:round;stroke-linejoin:round;stroke-width:2.25}
.h {fill:#008800;stroke:#008800;stroke-linecap:round;stroke-linejoin:round;stroke-width:2.25}
.i {fill:#008800;stroke:none;stroke-linecap:round;stroke-linejoin:round;stroke-width:2.5}
.j {fill:#ffffff;font-family:Arial;font-size:1.17em;font-weight:bold}
.k {font-size:1em}
.l {fill:#ffffff;font-family:Arial;font-size:1em;font-weight:bold}
.m {fill:#006600;stroke:none;stroke-linecap:round;stroke-linejoin:round;stroke-width:2.5}
.n {font-size:0.86em}
.o {fill:#004400;stroke:none;stroke-linecap:round;stroke-linejoin:round;stroke-width:2.5}
.a {fill:none;fill-rule:evenodd;font-size:12px;overflow:visible;stroke-linecap:square;stroke-miterlimit:3}
</style><rect x="16" y="16" width="528" height="704" rx="8" ry="8" class="b"/><rect x="32" y="176" width="496" height="528" rx="8" ry="8" class="c"/><rect x="48" y="336" width="464" height="352" rx="8" ry="8" class="d"/><a target="_blank" href="https://docs.microsoft.com/office365/servicedescriptions/project-online-service-description/project-online-service-description#microsoft-project-subscriptions"><rect x="32" y="176" width="496" height="48" rx="8" ry="8" class="e"/><text x="220.48" y="205.4" class="f">Project Plan 3</text></a><a target="_blank" href="https://docs.microsoft.com/office365/servicedescriptions/project-online-service-description/project-online-service-description#microsoft-project-subscriptions"><rect x="16" y="16" width="528" height="48" rx="8" ry="8" class="g"/><text x="220.48" y="45.4" class="f">Project Plan 5</text></a><a target="_blank" href="https://docs.microsoft.com/office365/servicedescriptions/project-online-service-description/project-online-service-description#microsoft-project-subscriptions"><rect x="48" y="336" width="464" height="48" rx="8" ry="8" class="h"/><text x="220.48" y="365.4" class="f">Project Plan 1</text></a><a target="_blank" href="https://support.microsoft.com/office/a44e4d20-a5f0-4f36-94c0-d0abeca8366f"><rect x="288" y="592" width="96" height="80" rx="8" ry="8" class="i"/><text x="301.38" y="627.8" class="j">Timesheet <tspan x="296.33" dy="1.2em" class="k">Submission</tspan></text></a><a target="_blank" href="https://support.microsoft.com/office/50bf3e29-0f0d-4b7a-9d2c-7c78389b67ad"><rect x="64" y="496" width="96" height="80" rx="8" ry="8" class="i"/><text x="76.99" y="531.8" class="j">Project for <tspan x="84.78" dy="1.2em" class="k">the Web</tspan></text></a><a target="_blank" href="https://support.microsoft.com/office/b9766811-9f5f-4bca-ac9c-202a183a1656#ID0EAABAAA=Scheduling"><rect x="288" y="496" width="96" height="80" rx="8" ry="8" class="i"/><text x="312.27" y="523.4" class="j">Project <tspan x="299.45" dy="1.2em" class="k">Planning &amp; </tspan><tspan x="298.28" dy="1.2em" class="k">Scheduling</tspan></text></a><a target="_blank" href="https://support.microsoft.com/office/b01443f4-0e85-4952-b1f2-f4b55e4a90be"><rect x="400" y="400" width="96" height="80" rx="8" ry="8" class="i"/><text x="415.71" y="444.2" class="j">Grid View</text></a><a target="_blank" href="https://support.microsoft.com/office/6e74dc79-0e2d-480b-b600-3a466bf289a3"><rect x="400" y="497.83" width="96" height="80" rx="8" ry="8" class="i"/><text x="414.95" y="542.03" class="j">Reporting</text></a><a target="_blank" href="https://support.microsoft.com/office/2ce5cddb-87da-42fe-9df3-fbe37c3c7afb"><rect x="176" y="400" width="96" height="80" rx="8" ry="8" class="i"/><text x="180.07" y="444.2" class="j">Co-authoring</text></a><a target="_blank" href="https://support.microsoft.com/office/2dc584e6-2f6c-4e2d-9008-0b3f6845eb52"><rect x="288" y="400" width="96" height="80" rx="8" ry="8" class="i"/><text x="297.33" y="436.4" class="l">Collaboration <tspan x="308" dy="1.2em" class="k">&amp; Comms</tspan></text></a><a target="_blank" href="https://support.microsoft.com/office/a3b38418-35e7-4df4-8e4a-ba6a4fa0562a"><rect x="176" y="496" width="96" height="80" rx="8" ry="8" class="i"/><text x="200.27" y="531.8" class="j">Project <tspan x="204.55" dy="1.2em" class="k">Home</tspan></text></a><a target="_blank" href="https://support.microsoft.com/office/fdca571c-d35b-490b-8560-8b39ae4a6cb4"><rect x="288" y="240" width="96" height="80" rx="8" ry="8" class="m"/><text x="304.1" y="275.8" class="j">Resource <tspan x="293.21" dy="1.2em" class="k">Management</tspan></text></a><a target="_blank" href="https://support.microsoft.com/office/57764149-51b8-468f-a50d-9ea6a4fd835a"><rect x="400" y="240" width="96" height="80" rx="8" ry="8" class="m"/><text x="416.11" y="267.4" class="j">Roadmap <tspan x="404.82" dy="1.2em" class="k">Visualisation </tspan><tspan x="433.34" dy="1.4em" class="n">(edit)</tspan></text></a><a target="_blank" href="https://support.microsoft.com/office/6569170c-5c8e-474e-a7f0-642872f62f8a"><rect x="64" y="240" width="96" height="80" rx="8" ry="8" class="m"/><text x="88.27" y="275.8" class="j">Project <tspan x="90.22" dy="1.2em" class="k">Online</tspan></text></a><a target="_blank" href="https://support.microsoft.com/office/7059249b-d9fe-4d61-ab96-5c5bf435f281"><rect x="176" y="240" width="96" height="80" rx="8" ry="8" class="m"/><text x="200.27" y="259" class="j">Project <tspan x="202.22" dy="1.2em" class="k">Online </tspan><tspan x="196.38" dy="1.2em" class="k">Desktop </tspan><tspan x="203.33" dy="1.4em" class="n">(5 PCs)</tspan></text></a><a target="_blank" href="https://support.microsoft.com/office/b01443f4-0e85-4952-b1f2-f4b55e4a90be"><rect x="176" y="592" width="96" height="80" rx="8" ry="8" class="i"/><text x="195.6" y="627.8" class="j">Timeline <tspan x="183.17" dy="1.2em" class="k">(Gantt) View</tspan></text></a><a target="_blank" href="https://support.microsoft.com/office/1c318425-81ee-441a-83dd-6fe8606275d6"><rect x="64" y="400" width="96" height="80" rx="8" ry="8" class="i"/><text x="73.88" y="444.2" class="j">Board View</text></a><a target="_blank" href="https://support.microsoft.com/office/fdca571c-d35b-490b-8560-8b39ae4a6cb4"><rect x="176" y="80" width="96" height="80" rx="8" ry="8" class="o"/><text x="189.38" y="107.4" class="j">Enterprise <tspan x="192.1" dy="1.2em" class="k">Resource </tspan><tspan x="194.44" dy="1.2em" class="k">Planning</tspan></text></a><a target="_blank" href="https://support.microsoft.com/office/6ce59d2e-aff1-49f0-ac61-8952b438e444"><rect x="64" y="80" width="96" height="80" rx="8" ry="8" class="o"/><text x="84.38" y="115.8" class="j">Demand <tspan x="69.21" dy="1.2em" class="k">Management</tspan></text></a><a target="_blank" href="https://support.microsoft.com/office/7e5503e2-79ac-425d-b91c-a49c1548d384"><rect x="288" y="80" width="96" height="80" rx="8" ry="8" class="o"/><text x="307.23" y="107.4" class="j">Portfolio <tspan x="297.88" dy="1.2em" class="k">Selection &amp; </tspan><tspan x="293.61" dy="1.2em" class="k">Optimization</tspan></text></a><a target="_blank" href="https://support.microsoft.com/office/57764149-51b8-468f-a50d-9ea6a4fd835a"><rect x="64" y="592" width="96" height="80" rx="8" ry="8" class="i"/><text x="80.11" y="619.4" class="j">Roadmap <tspan x="68.82" dy="1.2em" class="k">Visualisation </tspan><tspan x="95" dy="1.4em" class="n">(view)</tspan></text></a></svg>