<svg xmlns="http://www.w3.org/2000/svg" width="944" height="1664" viewBox="0 0 944 1664" class="a"><style>
.b {fill:#a5a5a5;fill-opacity:0.2;stroke:#006600;stroke-dasharray:33.75,20.25;stroke-linecap:round;stroke-linejoin:round;stroke-width:2.25}
.c {fill:#a5a5a5;fill-opacity:0.2;stroke:#2080a0;stroke-dasharray:33.75,20.25;stroke-linecap:round;stroke-linejoin:round;stroke-width:2.25}
.d {fill:#a5a5a5;fill-opacity:0.2;stroke:#e82200;stroke-dasharray:33.75,20.25;stroke-linecap:round;stroke-linejoin:round;stroke-width:2.25}
.e {fill:#a5a5a5;fill-opacity:0.2;stroke:#a058c0;stroke-linecap:round;stroke-linejoin:round;stroke-width:2.25}
.f {fill:#2080a0;stroke:#2080a0;stroke-linecap:round;stroke-linejoin:round;stroke-width:2.25}
.g {fill:#ffffff;font-family:Arial;font-size:1.66667em;font-weight:bold}
.h {fill:#006600;stroke:#006600;stroke-linecap:round;stroke-linejoin:round;stroke-width:2.25}
.i {fill:#e82200;stroke:#e82200;stroke-linecap:round;stroke-linejoin:round;stroke-width:2.25}
.j {fill:#a058c0;stroke:#a058c0;stroke-linecap:round;stroke-linejoin:round;stroke-width:2.25}
.k {fill:#a41500;stroke:none;stroke-linecap:round;stroke-linejoin:round;stroke-width:1}
.l {fill:#ffffff;font-family:Arial;font-size:1.16666em;font-weight:bold}
.m {font-size:1em}
.n {fill:#2080a0;stroke:none;stroke-linecap:round;stroke-linejoin:round;stroke-width:1}
.o {fill:#008800;stroke:none;stroke-linecap:round;stroke-linejoin:round;stroke-width:1}
.p {font-size:0.928588em}
.q {fill:#ffffff;font-family:Arial;font-size:1.00001em;font-weight:bold}
.r {fill:none;stroke:none;stroke-linecap:round;stroke-linejoin:round;stroke-width:0.75}
.s {fill:#0070f7;font-family:Arial;font-size:4.00001em;font-weight:bold}
.t {fill:none;stroke:none;stroke-linecap:round;stroke-linejoin:round;stroke-width:1}
.u {fill:#0070f7;font-family:Arial;font-size:2.50001em;font-weight:bold}
.v {fill:#0070f7;font-family:Arial;font-size:1.5em;font-weight:bold}
.w {fill:#907000;stroke:none;stroke-linecap:round;stroke-linejoin:round;stroke-width:1}
.a {fill:none;fill-rule:evenodd;font-size:12px;overflow:visible;stroke-linecap:square;stroke-miterlimit:3}
</style><rect x="16" y="1184" width="912" height="368" rx="8" ry="8" class="b"/><rect x="16" y="976" width="912" height="176" rx="8" ry="8" class="c"/><rect x="16" y="384" width="912" height="560" rx="8" ry="8" class="d"/><rect x="112" y="176" width="720" height="1472" rx="8" ry="8" class="e"/><a target="_blank" href="https://www.microsoft.com/cloud-platform/enterprise-mobility-security" transform="translate(-1584,1152) rotate(-90)"><rect y="1600" width="176" height="64" rx="8" ry="8" class="f"/><text x="66.33" y="1638" class="g">EMS</text></a><a target="_blank" href="https://www.microsoft.com/windowsforbusiness" transform="translate(-1584,1552) rotate(-90)"><rect y="1600" width="368" height="64" rx="8" ry="8" class="h"/><text x="77.33" y="1638" class="g">Windows Pro Upgrade</text></a><a target="_blank" href="https://docs.microsoft.com/office365/servicedescriptions/office-365-platform-service-description/office-365-education" transform="translate(-1584,944) rotate(-90)"><rect y="1600" width="560" height="64" rx="8" ry="8" class="i"/><text x="232.2" y="1638" class="g">Office 365</text></a><a target="_blank" href="https://www.microsoft.com/microsoft-365/compare-all-microsoft-365-plans"><rect x="112" y="1584" width="720" height="64" rx="8" ry="8" class="j"/><text x="335.28" y="1622" class="g">Microsoft 365 A1 for Devices</text></a><a target="_blank" href="https://www.microsoft.com/microsoft-365/compare-all-microsoft-365-plans"><rect x="112" y="176" width="720" height="64" rx="8" ry="8" class="j"/><text x="335.28" y="214" class="g">Microsoft 365 A1 for Devices</text></a><a target="_blank" href="https://products.office.com/yammer/yammer-overview"><rect x="592" y="816" width="96" height="80" rx="8" ry="8" class="k"/><text x="612.37" y="851.8" class="l">Yammer <tspan x="606.93" dy="1.2em" class="m">Academic</tspan></text></a><a target="_blank" href="https://support.office.com/sway"><rect x="480" y="816" width="96" height="80" rx="8" ry="8" class="k"/><text x="510.1" y="860.2" class="l">Sway</text></a><a target="_blank" href="https://www.microsoft.com/microsoft-365/exchange/exchange-email-security-spam-protection"><rect x="256" y="528" width="96" height="80" rx="8" ry="8" class="k"/><text x="270.93" y="555.4" class="l">Exchange <tspan x="282.22" dy="1.2em" class="m">Online </tspan><tspan x="269.39" dy="1.2em" class="m">Protection</tspan></text></a><a target="_blank" href="https://products.office.com/microsoft-teams/"><rect x="256" y="624" width="96" height="80" rx="8" ry="8" class="k"/><text x="272.5" y="659.8" class="l">Microsoft <tspan x="281.82" dy="1.2em" class="m">Teams</tspan></text></a><a target="_blank" href="https://docs.microsoft.com/office365/servicedescriptions/exchange-online-service-description/exchange-online-service-description#feature-availability-across-exchange-online-standalone-plans"><rect x="144" y="528" width="96" height="80" rx="8" ry="8" class="k"/><text x="158.93" y="555.4" class="l">Exchange <tspan x="170.22" dy="1.2em" class="m">Online</tspan><tspan x="167.29" dy="1.2em" class="m">Plan 1+</tspan></text></a><a target="_blank" href="https://docs.microsoft.com/sharepoint/introduction"><rect x="256" y="816" width="96" height="80" rx="8" ry="8" class="k"/><text x="267.05" y="843.4" class="l">SharePoint <tspan x="282.22" dy="1.2em" class="m">Online </tspan><tspan x="279.29" dy="1.2em" class="m">Plan 1+</tspan></text></a><a target="_blank" href="https://docs.microsoft.com/office365/servicedescriptions/onedrive-for-business-service-description"><rect x="704" y="624" width="96" height="80" rx="8" ry="8" class="k"/><text x="709.6" y="651.4" class="l">OneDrive for <tspan x="720.88" dy="1.2em" class="m">Business </tspan><tspan x="731.38" dy="1.2em" class="m">Plan 1</tspan></text></a><a target="_blank" href="https://products.office.com/business/task-management-software"><rect x="256" y="720" width="96" height="80" rx="8" ry="8" class="k"/><text x="278.32" y="764.2" class="l">Planner</text></a><a target="_blank" href="https://docs.microsoft.com/stream/"><rect x="368" y="816" width="96" height="80" rx="8" ry="8" class="k"/><text x="380.99" y="851.8" class="l">Stream for <tspan x="382.54" dy="1.2em" class="m">Office 365</tspan></text></a><a target="_blank" href="https://powerapps.microsoft.com/"><rect x="480" y="720" width="96" height="80" rx="8" ry="8" class="k"/><text x="487.55" y="747.4" class="l">Power Apps<tspan x="518.67" dy="1.2em" class="m">for</tspan><tspan x="494.54" dy="1.2em" class="m">Office 365</tspan></text></a><a target="_blank" href="https://support.microsoft.com/office/1315665a-c6af-4409-a28d-49f8916878ca"><rect x="592" y="432" width="96" height="80" rx="8" ry="8" class="k"/><text x="621.32" y="476.2" class="l">Delve</text></a><a target="_blank" href="https://docs.microsoft.com/office365/securitycompliance/data-loss-prevention-policies"><rect x="480" y="432" width="96" height="80" rx="8" ry="8" class="k"/><text x="494.55" y="467.8" class="l">Data Loss <tspan x="491.82" dy="1.2em" class="m">Prevention</tspan></text></a><a target="_blank" href="https://sds.microsoft.com/"><rect x="144" y="816" width="96" height="80" rx="8" ry="8" class="k"/><text x="151.55" y="851.8" class="l">School Data <tspan x="175.27" dy="1.2em" class="m">Sync</tspan></text></a><a target="_blank" href="https://support.office.com/forms"><rect x="704" y="528" width="96" height="80" rx="8" ry="8" class="k"/><text x="720.5" y="563.8" class="l">Microsoft <tspan x="730.61" dy="1.2em" class="m">Forms</tspan></text></a><a target="_blank" href="https://www.onenote.com/classnotebook"><rect x="144" y="720" width="96" height="80" rx="8" ry="8" class="k"/><text x="162.83" y="747.4" class="l">OneNote <tspan x="173.32" dy="1.2em" class="m">Class </tspan><tspan x="159.72" dy="1.2em" class="m">Notebook</tspan></text></a><a target="_blank" href="https://www.microsoft.com/en-us/microsoft-365/blog/2016/06/20/professional-learning-community-groups-in-office-365-education/"><rect x="368" y="720" width="96" height="80" rx="8" ry="8" class="k"/><text x="402" y="755.8" class="l">PLC<tspan x="391.11" dy="1.2em" class="m">Groups</tspan></text></a><a target="_blank" href="https://powerautomate.microsoft.com/"><rect x="592" y="720" width="96" height="80" rx="8" ry="8" class="k"/><text x="618.99" y="747.4" class="l">Power <tspan x="596.45" dy="1.2em" class="m">Automate for</tspan><tspan x="606.54" dy="1.2em" class="m">Office 365</tspan></text></a><a target="_blank" href="https://docs.microsoft.com/intune-education/what-is-intune-for-education"><rect x="144" y="1024" width="96" height="80" rx="8" ry="8" class="n"/><text x="159.73" y="1059.8" class="l">Intune for <tspan x="158.17" dy="1.2em" class="m">Education</tspan></text></a><a target="_blank" href="https://support.microsoft.com/office/d236aef8-fcdf-4b5e-b5d7-7f157461e920"><rect x="480" y="624" width="96" height="80" rx="8" ry="8" class="k"/><text x="496.5" y="659.8" class="l">Microsoft <tspan x="489.5" dy="1.2em" class="m">Whiteboard</tspan></text></a><a target="_blank" href="https://www.microsoft.com/microsoft-365/microsoft-to-do-list-app"><rect x="368" y="624" width="96" height="80" rx="8" ry="8" class="k"/><text x="384.5" y="659.8" class="l">Microsoft <tspan x="395.79" dy="1.2em" class="m">To</tspan>-Do</text></a><a target="_blank" href="https://support.microsoft.com/help/17209/windows-10-use-touch-with-windows"><rect x="704" y="1328" width="96" height="80" rx="8" ry="8" class="o"/><text x="714.65" y="1355.4" class="l">Voice, Pen, <tspan x="715.06" dy="1.2em" class="m">Touch, Ink, </tspan><tspan x="711.16" dy="1.2em" class="m">and Gesture</tspan></text></a><a target="_blank" href="https://docs.microsoft.com/microsoft-store/microsoft-store-for-business-overview"><rect x="368" y="1328" width="96" height="80" rx="8" ry="8" class="o"/><text x="384.5" y="1347" class="l">Microsoft <tspan x="386.83" dy="1.2em" class="m">Store for </tspan><tspan x="384.88" dy="1.2em" class="m">Business</tspan><tspan x="389.28" dy="1.292em" class="p">(retiring)</tspan></text></a><a target="_blank" href="https://docs.microsoft.com/windows-server/identity/ad-fs/operations/configure-device-based-conditional-access-on-premises"><rect x="256" y="1424" width="96" height="80" rx="8" ry="8" class="o"/><text x="273.28" y="1451.4" class="l">Windows <tspan x="265.51" dy="1.2em" class="m">Conditional </tspan><tspan x="279.48" dy="1.2em" class="m">Access</tspan></text></a><a target="_blank" href="https://docs.microsoft.com/windows/security/information-protection/windows-information-protection/protect-enterprise-data-using-wip"><rect x="592" y="1424" width="96" height="80" rx="8" ry="8" class="o"/><text x="609.28" y="1451.4" class="l">Windows <tspan x="601.5" dy="1.2em" class="m">Information </tspan><tspan x="605.39" dy="1.2em" class="m">Protection</tspan></text></a><a target="_blank" href="https://docs.microsoft.com/windows/deployment/update/waas-manage-updates-wufb"><rect x="704" y="1424" width="96" height="80" rx="8" ry="8" class="o"/><text x="721.28" y="1451.4" class="l">Windows <tspan x="717" dy="1.2em" class="m">Update for </tspan><tspan x="720.88" dy="1.2em" class="m">Business</tspan></text></a><a target="_blank" href="https://docs.microsoft.com/windows/security/identity-protection/hello-for-business/hello-identity-verification"><rect x="480" y="1424" width="96" height="80" rx="8" ry="8" class="o"/><text x="497.28" y="1451.4" class="l">Windows <tspan x="499.61" dy="1.2em" class="m">Hello for </tspan><tspan x="496.88" dy="1.2em" class="m">Business</tspan></text></a><a target="_blank" href="https://www.microsoft.com/edge/business"><rect x="704" y="1232" width="96" height="80" rx="8" ry="8" class="o"/><text x="723.61" y="1267.8" class="l">Edge for <tspan x="720.88" dy="1.2em" class="m">Business</tspan></text></a><a target="_blank" href="https://support.microsoft.com/help/17214/windows-10-what-is"><rect x="592" y="1232" width="96" height="80" rx="8" ry="8" class="o"/><text x="613.55" y="1276.2" class="l">Cortana</text></a><a target="_blank" href="https://docs.microsoft.com/windows/security/threat-protection/windows-defender-application-guard/wd-app-guard-overview"><rect x="256" y="1232" width="96" height="80" rx="8" ry="8" class="o"/><text x="265.89" y="1267.8" class="l">Application <tspan x="283.39" dy="1.2em" class="m">Guard</tspan></text></a><a target="_blank" href="https://docs.microsoft.com/azure/active-directory/devices/concept-azure-ad-join"><rect x="368" y="1232" width="96" height="80" rx="8" ry="8" class="o"/><text x="384.5" y="1259.4" class="l">Azure AD<tspan x="383.33" dy="1.2em" class="m">&amp; Domain </tspan><tspan x="401.61" dy="1.2em" class="m">Join</tspan></text></a><a target="_blank" href="https://www.microsoft.com/windows/comprehensive-security"><rect x="256" y="1328" width="96" height="80" rx="8" ry="8" class="o"/><text x="272.5" y="1355.4" class="l">Microsoft <tspan x="273.66" dy="1.2em" class="m">Defender </tspan><tspan x="273.66" dy="1.2em" class="m">Antivirus</tspan></text></a><a target="_blank" href="https://docs.microsoft.com/windows/deployment/windows-autopilot/windows-autopilot"><rect x="144" y="1424" width="96" height="80" rx="8" ry="8" class="o"/><text x="161.28" y="1459.8" class="l">Windows <tspan x="161.29" dy="1.2em" class="m">Autopilot</tspan></text></a><a target="_blank" href="https://docs.microsoft.com/windows/security/information-protection/bitlocker/bitlocker-overview"><rect x="480" y="1232" width="96" height="80" rx="8" ry="8" class="o"/><text x="488.71" y="1259.4" class="l">BitLocker &amp; <tspan x="487.16" dy="1.2em" class="m">BitLocker to </tspan><tspan x="518.28" dy="1.2em" class="m">Go</tspan></text></a><a target="_blank" href="https://docs.microsoft.com/windows/security/threat-protection/windows-firewall/windows-firewall-with-advanced-security"><rect x="368" y="1424" width="96" height="80" rx="8" ry="8" class="o"/><text x="385.28" y="1459.8" class="l">Windows <tspan x="389.93" dy="1.2em" class="m">Firewall</tspan></text></a><a target="_blank" href="https://docs.microsoft.com/windows/security/threat-protection/windows-defender-application-control/windows-defender-application-control"><rect x="144" y="1232" width="96" height="80" rx="8" ry="8" class="o"/><text x="153.89" y="1267.8" class="l">Application <tspan x="167.12" dy="1.2em" class="m">Control</tspan></text></a><a target="_blank" href="https://docs.microsoft.com/microsoft-365/compliance/retention"><rect x="704" y="720" width="96" height="80" rx="8" ry="8" class="k"/><text x="719.72" y="747.4" class="l">Retention <tspan x="722.82" dy="1.2em" class="m">Labels &amp; </tspan><tspan x="725.54" dy="1.2em" class="m">Policies</tspan></text></a><a target="_blank" href="https://docs.microsoft.com/office365/securitycompliance/ediscovery-cases"><rect x="704" y="432" width="96" height="80" rx="8" ry="8" class="k"/><text x="714.64" y="476.2" class="l">eDiscovery</text></a><a target="_blank" href="https://www.microsoft.com/microsoft-365/microsoft-lists"><rect x="144" y="624" width="96" height="80" rx="8" ry="8" class="k"/><text x="160.5" y="659.8" class="l">Microsoft <tspan x="175.66" dy="1.2em" class="m">Lists</tspan></text></a><a target="_blank" href="https://products.office.com/en/business/microsoft-kaizala"><rect x="480" y="528" width="96" height="80" rx="8" ry="8" class="k"/><text x="490.26" y="563.8" class="l">Kaizala Pro<tspan x="501.28" dy="1.292em" class="p">(retiring)</tspan></text></a><a target="_blank" href="https://docs.microsoft.com/windows/client-management/mdm/"><rect x="144" y="1328" width="96" height="80" rx="8" ry="8" class="o"/><text x="155.82" y="1363.8" class="l">Manage by <tspan x="175.28" dy="1.2em" class="m">MDM</tspan></text></a><a target="_blank" href="https://www.microsoft.com/cloud-platform/enterprise-mobility-security" transform="translate(-736,1152) rotate(-90)"><rect y="1600" width="176" height="64" rx="8" ry="8" class="f"/><text x="66.33" y="1638" class="g">EMS</text></a><a target="_blank" href="https://www.microsoft.com/windowsforbusiness" transform="translate(-736,1552) rotate(-90)"><rect y="1600" width="368" height="64" rx="8" ry="8" class="h"/><text x="77.33" y="1638" class="g">Windows Pro Upgrade</text></a><a target="_blank" href="https://docs.microsoft.com/office365/servicedescriptions/office-365-platform-service-description/office-365-education" transform="translate(-736,944) rotate(-90)"><rect y="1600" width="560" height="64" rx="8" ry="8" class="i"/><text x="232.2" y="1638" class="g">Office 365</text></a><a target="_blank" href="https://docs.microsoft.com/office365/securitycompliance/search-the-audit-log-in-security-and-compliance"><rect x="144" y="432" width="96" height="80" rx="8" ry="8" class="k"/><text x="174.12" y="459.4" class="l">Audit <tspan x="157.4" dy="1.2em" class="m">Logging &amp; </tspan><tspan x="165.56" dy="1.2em" class="m">Alerting</tspan></text></a><a target="_blank" href="https://products.office.com/mobile/office"><rect x="592" y="624" width="96" height="80" rx="8" ry="8" class="k"/><text x="596.44" y="659.8" class="l">Office Web &amp; <tspan x="598.39" dy="1.2em" class="m">Mobile Apps</tspan></text></a><a target="_blank" href="https://docs.microsoft.com/microsoft-365/admin/basic-mobility-security/capabilities"><rect x="368" y="432" width="96" height="80" rx="8" ry="8" class="k"/><text x="397.32" y="459.4" class="l">Basic <tspan x="382.56" dy="1.2em" class="m">Mobility &amp; </tspan><tspan x="388.38" dy="1.2em" class="m">Security</tspan></text></a><a target="_blank" href="https://azure.microsoft.com/pricing/details/active-directory/"><rect x="256" y="432" width="96" height="80" rx="8" ry="8" class="k"/><text x="261.22" y="467.8" class="l">Azure AD for <tspan x="270.54" dy="1.2em" class="m">Office 365</tspan></text></a><a target="_blank" href="https://docs.microsoft.com/universal-print/"><rect x="592" y="1328" width="96" height="80" rx="8" ry="8" class="o"/><text x="608.48" y="1363.8" class="l">Universal <tspan x="624.06" dy="1.2em" class="m">Print</tspan></text></a><a target="_blank" href="https://docs.microsoft.com/microsoft-365/compliance/sensitivity-labels"><rect x="368" y="528" width="96" height="80" rx="8" ry="8" class="k"/><text x="377.5" y="555.4" class="l">Information <tspan x="381.39" dy="1.2em" class="m">Protection</tspan><tspan x="387.21" dy="1.2em" class="m">for M365</tspan></text></a><a target="_blank" href="https://go.microsoft.com/fwlink/?linkid=2085130"><rect x="480" y="1328" width="96" height="80" rx="8" ry="8" class="o"/><text x="509.99" y="1350" class="q">Power <tspan x="500.33" dy="1.2em" class="m">Automate </tspan><tspan x="502" dy="1.2em" class="m">Attended </tspan><tspan x="485.66" dy="1.2em" class="m">Desktop Flows</tspan></text></a><a target="_blank" href="https://m365maps.com/"><rect x="16" y="16" width="912" height="64" class="r"/><text x="143.87" y="62.4" class="s">Microsoft 365 A1 for Devices</text></a><g><rect x="16" y="80" width="912" height="32" rx="8" ry="8" class="t"/><text x="361.92" y="105" class="u">December 2021</text></g><a target="_blank" href="https://m365maps.com/"><rect x="16" y="112" width="912" height="32" class="r"/><text x="404.47" y="133.4" class="v">m365maps.com</text></a><a target="_blank" href="https://www.microsoft.com/microsoft-365/business/microsoft-365-apps-for-enterprise-product"><rect x="592" y="528" width="96" height="80" rx="8" ry="8" class="k"/><text x="608.5" y="555.4" class="l">Microsoft <tspan x="597.6" dy="1.2em" class="m">365 Apps for </tspan><tspan x="606.17" dy="1.2em" class="m">Education</tspan></text></a><a target="_blank" href="https://education.minecraft.net/homepage"><rect x="144" y="272" width="96" height="80" rx="8" ry="8" class="w"/><text x="160.88" y="299.4" class="l">Minecraft <tspan x="158.17" dy="1.2em" class="m">Education </tspan><tspan x="168.28" dy="1.2em" class="m">Edition</tspan></text></a></svg>