<svg xmlns="http://www.w3.org/2000/svg" width="640" height="752" viewBox="0 0 640 752" class="a"><style>
.b {fill:#a5a5a5;fill-opacity:0.2;stroke:#7030a0;stroke-linecap:round;stroke-linejoin:round;stroke-width:2.25}
.c {fill:#7030a0;stroke:#7030a0;stroke-linecap:round;stroke-linejoin:round;stroke-width:2.25}
.d {fill:#ffffff;font-family:Arial;font-size:1.66667em;font-weight:bold}
.e {fill:none;stroke:none;stroke-linecap:round;stroke-linejoin:round;stroke-width:0.75}
.f {fill:#0070f7;font-family:Arial;font-size:3em;font-weight:bold}
.g {fill:#0070f7;font-family:Arial;font-size:2.50001em;font-weight:bold}
.h {fill:#0070f7;font-family:Arial;font-size:1.5em;font-weight:bold}
.i {fill:#a41500;stroke:none;stroke-linecap:round;stroke-linejoin:round;stroke-width:1}
.j {fill:#ffffff;font-family:Arial;font-size:1.16666em;font-weight:bold}
.k {font-size:1em}
.l {fill:#ffffff;font-family:Arial;font-size:1.08334em;font-weight:bold}
.m {font-size:0.928588em}
.a {fill:none;fill-rule:evenodd;font-size:12px;overflow:visible;stroke-linecap:square;stroke-miterlimit:3}
</style><rect x="16" y="144" width="608" height="592" rx="8" ry="8" class="b"/><a target="_blank" href="https://www.microsoft.com/microsoft-365/business/microsoft-365-business-basic"><rect x="16" y="704" width="608" height="32" rx="8" ry="8" class="c"/><text x="178.83" y="726" class="d">Microsoft 365 Business Basic</text></a><a target="_blank" href="https://www.microsoft.com/microsoft-365/business/microsoft-365-business-basic"><rect x="16" y="144" width="608" height="32" rx="8" ry="8" class="c"/><text x="178.83" y="166" class="d">Microsoft 365 Business Basic</text></a><a target="_blank" href="https://m365maps.com/"><rect x="16" y="16" width="608" height="48" class="e"/><text x="65.9" y="50.8" class="f">Microsoft 365 Business Basic</text></a><g><rect x="16" y="64" width="608" height="32" class="e"/><text x="209.92" y="89" class="g">December 2021</text></g><a target="_blank" href="https://m365maps.com/"><rect x="16" y="96" width="608" height="32" class="e"/><text x="252.46" y="117.4" class="h">m365maps.com</text></a><a target="_blank" href="https://docs.microsoft.com/microsoft-365/admin/basic-mobility-security/capabilities"><rect x="384" y="208" width="96" height="80" rx="8" ry="8" class="i"/><text x="413.32" y="235.4" class="j">Basic <tspan x="398.56" dy="1.2em" class="k">Mobility &amp; </tspan><tspan x="404.38" dy="1.2em" class="k">Security</tspan></text></a><a target="_blank" href="https://docs.microsoft.com/office365/servicedescriptions/exchange-online-service-description/exchange-online-service-description#feature-availability-across-exchange-online-standalone-plans"><rect x="496" y="208" width="96" height="80" rx="8" ry="8" class="i"/><text x="510.93" y="235.4" class="j">Exchange <tspan x="522.22" dy="1.2em" class="k">Online </tspan><tspan x="523.38" dy="1.2em" class="k">Plan 1</tspan></text></a><a target="_blank" href="https://docs.microsoft.com/sharepoint/introduction"><rect x="496" y="496" width="96" height="80" rx="8" ry="8" class="i"/><text x="507.05" y="523.4" class="j">SharePoint <tspan x="522.22" dy="1.2em" class="k">Online</tspan><tspan x="523.38" dy="1.2em" class="k">Plan 1</tspan></text></a><a target="_blank" href="https://docs.microsoft.com/office365/servicedescriptions/onedrive-for-business-service-description"><rect x="496" y="400" width="96" height="80" rx="8" ry="8" class="i"/><text x="501.6" y="427.4" class="j">OneDrive for <tspan x="512.88" dy="1.2em" class="k">Business </tspan><tspan x="523.38" dy="1.2em" class="k">Plan 1</tspan></text></a><a target="_blank" href="https://products.office.com/yammer/yammer-overview"><rect x="272" y="592" width="96" height="80" rx="8" ry="8" class="i"/><text x="292.37" y="627.8" class="j">Yammer <tspan x="285.38" dy="1.2em" class="k">Enterprise</tspan></text></a><a target="_blank" href="https://products.office.com/business/task-management-software"><rect x="48" y="496" width="96" height="80" rx="8" ry="8" class="i"/><text x="70.32" y="540.2" class="j">Planner</text></a><a target="_blank" href="https://products.office.com/microsoft-teams/"><rect x="496" y="304" width="96" height="80" rx="8" ry="8" class="i"/><text x="512.5" y="339.8" class="j">Microsoft <tspan x="521.82" dy="1.2em" class="k">Teams</tspan></text></a><a target="_blank" href="https://docs.microsoft.com/stream/"><rect x="48" y="592" width="96" height="80" rx="8" ry="8" class="i"/><text x="60.99" y="627.8" class="j">Stream for <tspan x="62.54" dy="1.2em" class="k">Office 365</tspan></text></a><a target="_blank" href="https://products.office.com/business/myanalytics-personal-analytics"><rect x="48" y="304" width="96" height="80" rx="8" ry="8" class="i"/><text x="59.05" y="339.8" class="j">Insights by <tspan x="55.15" dy="1.2em" class="k">MyAnalytics</tspan></text></a><a target="_blank" href="https://powerapps.microsoft.com/"><rect x="160" y="496" width="96" height="80" rx="8" ry="8" class="i"/><text x="167.55" y="523.4" class="j">Power Apps<tspan x="198.67" dy="1.2em" class="k">for</tspan><tspan x="174.54" dy="1.2em" class="k">Office 365</tspan></text></a><a target="_blank" href="https://powerautomate.microsoft.com/"><rect x="272" y="496" width="96" height="80" rx="8" ry="8" class="i"/><text x="298.99" y="523.4" class="j">Power <tspan x="276.45" dy="1.2em" class="k">Automate for</tspan><tspan x="286.54" dy="1.2em" class="k">Office 365</tspan></text></a><a target="_blank" href="https://support.office.com/sway"><rect x="160" y="592" width="96" height="80" rx="8" ry="8" class="i"/><text x="190.1" y="636.2" class="j">Sway</text></a><a target="_blank" href="https://support.office.com/forms"><rect x="272" y="304" width="96" height="80" rx="8" ry="8" class="i"/><text x="288.5" y="339.8" class="j">Microsoft <tspan x="298.61" dy="1.2em" class="k">Forms</tspan></text></a><a target="_blank" href="https://docs.microsoft.com/powerapps/teams/overview-data-platform"><rect x="160" y="304" width="96" height="80" rx="8" ry="8" class="i"/><text x="176.5" y="331.4" class="j">Microsoft <tspan x="174.53" dy="1.2em" class="k">Dataverse </tspan><tspan x="174.55" dy="1.2em" class="k">for Teams</tspan></text></a><a target="_blank" href="https://products.office.com/mobile/office"><rect x="384" y="400" width="96" height="80" rx="8" ry="8" class="i"/><text x="412.16" y="435.8" class="j">Office<tspan x="390.39" dy="1.2em" class="k">Mobile Apps</tspan></text></a><a target="_blank" href="https://docs.microsoft.com/office365/servicedescriptions/office-online-service-description/office-online-service-description"><rect x="272" y="400" width="96" height="80" rx="8" ry="8" class="i"/><text x="300.16" y="427.4" class="j">Office<tspan x="281.5" dy="1.2em" class="k">for the Web</tspan><tspan x="284.61" dy="1.2em" class="k">(incl Visio)</tspan></text></a><a target="_blank" href="https://www.microsoft.com/microsoft-365/microsoft-lists"><rect x="384" y="304" width="96" height="80" rx="8" ry="8" class="i"/><text x="400.5" y="339.8" class="j">Microsoft <tspan x="415.66" dy="1.2em" class="k">Lists</tspan></text></a><a target="_blank" href="https://support.microsoft.com/office/d236aef8-fcdf-4b5e-b5d7-7f157461e920"><rect x="160" y="400" width="96" height="80" rx="8" ry="8" class="i"/><text x="176.5" y="435.8" class="j">Microsoft <tspan x="169.5" dy="1.2em" class="k">Whiteboard</tspan></text></a><a target="_blank" href="https://www.microsoft.com/microsoft-365/microsoft-to-do-list-app"><rect x="48" y="400" width="96" height="80" rx="8" ry="8" class="i"/><text x="64.5" y="435.8" class="j">Microsoft <tspan x="75.79" dy="1.2em" class="k">To</tspan>-Do</text></a><a target="_blank" href="https://docs.microsoft.com/power-virtual-agents/teams/fundamentals-what-is-power-virtual-agents-teams"><rect x="384" y="496" width="96" height="80" rx="8" ry="8" class="i"/><text x="390.46" y="524.3" class="l">Power Virtual <tspan x="399.5" dy="1.2em" class="k">Agents for </tspan><tspan x="411.4" dy="1.2em" class="k">Teams</tspan></text></a><a target="_blank" href="https://azure.microsoft.com/pricing/details/active-directory/"><rect x="272" y="208" width="96" height="80" rx="8" ry="8" class="i"/><text x="277.22" y="243.8" class="j">Azure AD for <tspan x="286.54" dy="1.2em" class="k">Office 365</tspan></text></a><a target="_blank" href="https://docs.microsoft.com/microsoftteams/audio-conferencing-in-office-365"><rect x="48" y="208" width="96" height="80" rx="8" ry="8" class="i"/><text x="76.17" y="236.6" class="j">Audio <tspan x="54.11" dy="1.223em" class="m">Conferencing </tspan><tspan x="55.91" dy="1.2em" class="m">(Dial In Only)</tspan></text></a><a target="_blank" href="https://docs.microsoft.com/office365/securitycompliance/search-the-audit-log-in-security-and-compliance"><rect x="160" y="208" width="96" height="80" rx="8" ry="8" class="i"/><text x="190.12" y="235.4" class="j">Audit <tspan x="173.4" dy="1.2em" class="k">Logging &amp; </tspan><tspan x="181.56" dy="1.2em" class="k">Alerting</tspan></text></a></svg>