<svg xmlns="http://www.w3.org/2000/svg" width="384" height="528" viewBox="0 0 384 528" class="a"><style>
.b {fill:#a5a5a5;fill-opacity:0.2;stroke:#d04a00;stroke-linecap:round;stroke-linejoin:round;stroke-width:2.25}
.c {fill:#d04a00;stroke:#d04a00;stroke-linecap:round;stroke-linejoin:round;stroke-width:2.25}
.d {fill:#ffffff;font-family:Arial;font-size:1.17em;font-weight:bold}
.e {fill:#d04a00;stroke:none;stroke-linecap:round;stroke-linejoin:round;stroke-width:1}
.f {font-size:1em}
.g {fill:#ffffff;font-family:Arial;font-size:1.08em;font-weight:bold}
.a {fill:none;fill-rule:evenodd;font-size:12px;overflow:visible;stroke-linecap:square;stroke-miterlimit:3}
</style><rect x="16" y="16" width="352" height="496" rx="8" ry="8" class="b"/><rect x="32" y="64" width="320" height="240" rx="8" ry="8" class="b"/><a target="_blank" href="https://docs.microsoft.com/office365/servicedescriptions/office-365-advanced-threat-protection-service-description#feature-availability-across-advanced-threat-protection-atp-plans"><rect x="16" y="16" width="352" height="32" rx="8" ry="8" class="c"/><text x="58.97" y="36.2" class="d">Microsoft Defender for Office 365 Plan 2</text></a><a target="_blank" href="https://docs.microsoft.com/office365/securitycompliance/threat-trackers"><rect x="256" y="416" width="96" height="80" rx="8" ry="8" class="e"/><text x="282.61" y="451.8" class="d">Threat <tspan x="274.81" dy="1.2em" class="f">Trackers</tspan></text></a><a target="_blank" href="https://docs.microsoft.com/microsoft-365/security/office-365-security/attack-simulation-training-get-started"><rect x="32" y="320" width="96" height="80" rx="8" ry="8" class="e"/><text x="58.6" y="347.4" class="d">Attack <tspan x="44.22" dy="1.2em" class="f">Simulation </tspan><tspan x="52.39" dy="1.2em" class="f">Training</tspan></text></a><a target="_blank" href="https://docs.microsoft.com/microsoft-365/security/office-365-security/threat-explorer"><rect x="144" y="416" width="96" height="80" rx="8" ry="8" class="e"/><text x="170.61" y="451.8" class="d">Threat <tspan x="163.6" dy="1.2em" class="f">Explorer</tspan></text></a><a target="_blank" href="https://docs.microsoft.com/microsoft-365/security/office-365-security/automated-investigation-response-office"><rect x="144" y="320" width="96" height="80" rx="8" ry="8" class="e"/><text x="155.45" y="347.4" class="d">Automated <tspan x="148.83" dy="1.2em" class="f">Investigation </tspan><tspan x="151.55" dy="1.2em" class="f">&amp; Response</tspan></text></a><a target="_blank" href="https://docs.microsoft.com/microsoft-365/security/office-365-security/atp-safe-links"><rect x="48" y="256" width="288" height="32" rx="8" ry="8" class="e"/><text x="156.99" y="276.2" class="d">Safe Links</text></a><a target="_blank" href="https://docs.microsoft.com/microsoft-365/security/office-365-security/atp-safe-attachments"><rect x="48" y="208" width="288" height="32" rx="8" ry="8" class="e"/><text x="132.87" y="228.2" class="d">Safe Attachments</text></a><a target="_blank" href="https://docs.microsoft.com/microsoft-365/security/office-365-security/atp-anti-phishing"><rect x="48" y="112" width="288" height="32" rx="8" ry="8" class="e"/><text x="146.51" y="132.2" class="d">Anti-Phishing</text></a><a target="_blank" href="https://docs.microsoft.com/office365/servicedescriptions/office-365-advanced-threat-protection-service-description#feature-availability-across-advanced-threat-protection-atp-plans"><rect x="32" y="64" width="320" height="32" rx="8" ry="8" class="c"/><text x="58.97" y="84.2" class="d">Microsoft Defender for Office 365 Plan 1</text></a><a target="_blank" href="https://docs.microsoft.com/microsoft-365/security/office-365-security/address-compromised-users-quickly"><rect x="32" y="416" width="96" height="80" rx="8" ry="8" class="e"/><text x="36.3" y="444.3" class="g">Compromised <tspan x="65.55" dy="1.2em" class="f">User </tspan><tspan x="50.38" dy="1.2em" class="f">Detection</tspan></text></a><a target="_blank" href="https://docs.microsoft.com/microsoft-365/security/office-365-security/campaigns"><rect x="256" y="320" width="96" height="80" rx="8" ry="8" class="e"/><text x="270.16" y="355.8" class="d">Campaign <tspan x="284.16" dy="1.2em" class="f">Views</tspan></text></a><a target="_blank" href="https://docs.microsoft.com/office365/servicedescriptions/office-365-advanced-threat-protection-service-description#real-time-reports"><rect x="48" y="160" width="288" height="32" rx="8" ry="8" class="e"/><text x="130.15" y="180.2" class="d">Real-Time Reports</text></a></svg>