<svg xmlns="http://www.w3.org/2000/svg" width="2176" height="1104" viewBox="0 0 2176 1104" class="a"><style>
.b {fill:#a5a5a5;fill-opacity:0.2;stroke:#7030a0;stroke-linecap:round;stroke-linejoin:round;stroke-width:2.25}
.c {fill:#a5a5a5;fill-opacity:0.2;stroke:#e82200;stroke-dasharray:33.75,20.25;stroke-linecap:round;stroke-linejoin:round;stroke-width:2.25}
.d {fill:#a5a5a5;fill-opacity:0.2;stroke:#006600;stroke-dasharray:33.75,20.25;stroke-linecap:round;stroke-linejoin:round;stroke-width:2.25}
.e {fill:#a5a5a5;fill-opacity:0.2;stroke:#2080a0;stroke-dasharray:33.75,20.25;stroke-linecap:round;stroke-linejoin:round;stroke-width:2.25}
.f {fill:#a5a5a5;fill-opacity:0.2;stroke:#0070f7;stroke-dasharray:2.25,4.5;stroke-linecap:round;stroke-linejoin:round;stroke-width:2.25}
.g {fill:#7030a0;stroke:#7030a0;stroke-linecap:round;stroke-linejoin:round;stroke-width:2.25}
.h {fill:#ffffff;font-family:Arial;font-size:1.66667em;font-weight:bold}
.i {fill:#e82200;stroke:#e82200;stroke-linecap:round;stroke-linejoin:round;stroke-width:2.25}
.j {fill:#006600;stroke:#006600;stroke-linecap:round;stroke-linejoin:round;stroke-width:2.25}
.k {fill:#2080a0;stroke:#2080a0;stroke-linecap:round;stroke-linejoin:round;stroke-width:2.25}
.l {font-size:1em}
.m {fill:none;stroke:none;stroke-linecap:round;stroke-linejoin:round;stroke-width:1}
.n {fill:#000000;font-family:Arial;font-size:1.16666em;font-weight:bold}
.o {fill:#0070f7;stroke:none;stroke-linecap:round;stroke-linejoin:round;stroke-width:1}
.p {fill:#ffffff;font-family:Arial;font-size:1.16666em;font-weight:bold}
.q {baseline-shift:32.4943%;font-size:0.649886em}
.r {fill:#2080a0;stroke:none;stroke-linecap:round;stroke-linejoin:round;stroke-width:1}
.s {font-size:0.928588em}
.t {fill:#0070f7;font-family:Arial;font-size:4.00001em;font-weight:bold}
.u {fill:#0070f7;font-family:Arial;font-size:2.50001em;font-weight:bold}
.v {fill:#0070f7;font-family:Arial;font-size:1.5em;font-weight:bold}
.w {fill:#006600;stroke:none;stroke-linecap:round;stroke-linejoin:round;stroke-width:1}
.x {fill:#ffffff;font-family:Arial;font-size:1.08334em;font-weight:bold}
.y {fill:#ffffff;font-family:Arial;font-size:1.00001em;font-weight:bold}
.z {fill:#e82200;stroke:none;stroke-linecap:round;stroke-linejoin:round;stroke-width:1}
.ba {fill:#a5a5a5;fill-opacity:0.2;stroke:#006600;stroke-dasharray:2.25,4.5;stroke-linecap:round;stroke-linejoin:round;stroke-width:2.25}
.a {fill:none;fill-rule:evenodd;font-size:12px;overflow:visible;stroke-linecap:square;stroke-miterlimit:3}
</style><rect y="-1040" width="720" height="2144" rx="8" ry="8" class="b" transform="translate(1056,992) rotate(-90)"/><rect x="112" y="176" width="608" height="912" rx="8" ry="8" class="c"/><rect x="1280" y="176" width="608" height="912" rx="8" ry="8" class="d"/><rect x="752" y="176" width="496" height="912" rx="8" ry="8" class="e"/><rect x="768" y="496" width="464" height="432" rx="8" ry="8" class="f"/><a target="_blank" href="https://www.microsoft.com/microsoft-365/compare-all-microsoft-365-plans" transform="translate(-1024,992) rotate(-90)"><rect y="1040" width="720" height="64" rx="8" ry="8" class="g"/><text x="280.53" y="1078" class="h">Microsoft 365 E3</text></a><a target="_blank" href="https://www.microsoft.com/microsoft-365/compare-all-microsoft-365-plans" transform="translate(1056,992) rotate(-90)"><rect y="1040" width="720" height="64" rx="8" ry="8" class="g"/><text x="280.53" y="1078" class="h">Microsoft 365 E3</text></a><a target="_blank" href="https://docs.microsoft.com/office365/enterprise/"><rect x="112" y="176" width="608" height="64" rx="8" ry="8" class="i"/><text x="353.19" y="214" class="h">Office 365 E3</text></a><a target="_blank" href="https://www.microsoft.com/windowsforbusiness"><rect x="1280" y="176" width="608" height="64" rx="8" ry="8" class="j"/><text x="1472.87" y="214" class="h">Windows Enterprise E3</text></a><a target="_blank" href="https://www.microsoft.com/cloud-platform/enterprise-mobility-security"><rect x="752" y="176" width="496" height="64" rx="8" ry="8" class="k"/><text x="844.12" y="202" class="h">Enterprise Mobility + Security E3<tspan x="956.66" dy="1.2em" class="l">(EMS E3)</tspan></text></a><a target="_blank" href="https://docs.microsoft.com/office365/enterprise/"><rect x="112" y="1024" width="608" height="64" rx="8" ry="8" class="i"/><text x="353.19" y="1062" class="h">Office 365 E3</text></a><a target="_blank" href="https://www.microsoft.com/windowsforbusiness"><rect x="1280" y="1024" width="608" height="64" rx="8" ry="8" class="j"/><text x="1472.87" y="1062" class="h">Windows Enterprise E3</text></a><a target="_blank" href="https://www.microsoft.com/cloud-platform/enterprise-mobility-security"><rect x="752" y="1024" width="496" height="64" rx="8" ry="8" class="k"/><text x="844.12" y="1050" class="h">Enterprise Mobility + Security E3<tspan x="956.66" dy="1.2em" class="l">(EMS E3)</tspan></text></a><a target="_blank" href="https://azure.microsoft.com/pricing/details/active-directory/"><rect x="768" y="880" width="464" height="48" rx="8" ry="8" class="m"/><text x="914.03" y="908.2" class="n">Azure AD Premium Plan 1</text></a><a target="_blank" href="https://docs.microsoft.com/azure/active-directory/reports-monitoring/"><rect x="784" y="512" width="96" height="80" rx="8" ry="8" class="o"/><text x="798.55" y="531" class="p">Advanced <tspan x="804.38" dy="1.2em" class="l">Security </tspan><tspan x="798.55" dy="1.2em" class="l">Reports &amp; </tspan><tspan x="812.16" dy="1.2em" class="l">Alerts</tspan></text></a><a target="_blank" href="https://docs.microsoft.com/azure/active-directory/hybrid/how-to-connect-sso"><rect x="896" y="800" width="96" height="80" rx="8" ry="8" class="o"/><text x="903.17" y="827.4" class="p">Single-Sign-<tspan x="906.28" dy="1.2em" class="l">On to other </tspan><tspan x="926.88" dy="1.2em" class="l">SaaS</tspan></text></a><a target="_blank" href="https://docs.microsoft.com/azure/active-directory/manage-apps/application-proxy"><rect x="896" y="512" width="96" height="80" rx="8" ry="8" class="o"/><text x="907.05" y="539.4" class="p">App Proxy, <tspan x="912.89" dy="1.2em" class="l">including </tspan><tspan x="904.31" dy="1.2em" class="l">PingAccess</tspan></text></a><a target="_blank" href="https://docs.microsoft.com/azure/active-directory/authentication/concept-mfa-howitworks"><rect x="896" y="704" width="96" height="80" rx="8" ry="8" class="o"/><text x="903.95" y="739.8" class="p">Multi-Factor <tspan x="906.29" dy="1.2em" class="l">Auth (MFA)</tspan></text></a><a target="_blank" href="https://docs.microsoft.com/azure/active-directory/hybrid/whatis-azure-ad-connect#what-is-azure-ad-connect-health"><rect x="1008" y="512" width="96" height="80" rx="8" ry="8" class="o"/><text x="1024.5" y="539.4" class="p">Azure AD <tspan x="1028" dy="1.2em" class="l">Connect </tspan><tspan x="1034.61" dy="1.2em" class="l">Health</tspan></text></a><a target="_blank" href="https://docs.microsoft.com/cloud-app-security/set-up-cloud-discovery"><rect x="896" y="608" width="96" height="80" rx="8" ry="8" class="o"/><text x="908.62" y="643.8" class="p">Cloud App <tspan x="910.54" dy="1.2em" class="l">Discovery</tspan></text></a><a target="_blank" href="https://docs.microsoft.com/azure/active-directory/users-groups-roles/users-sharing-accounts"><rect x="784" y="800" width="96" height="80" rx="8" ry="8" class="o"/><text x="808.27" y="819" class="p">Shared <tspan x="804" dy="1.2em" class="l">Account </tspan><tspan x="798.93" dy="1.2em" class="l">Password </tspan><tspan x="800.49" dy="1.2em" class="l">Roll</tspan>-Over</text></a><a target="_blank" href="https://docs.microsoft.com/azure/active-directory/authentication/concept-sspr-howitworks"><rect x="1120" y="704" width="96" height="80" rx="8" ry="8" class="o"/><text x="1127.92" y="731.4" class="p">Self-Service <tspan x="1134.93" dy="1.2em" class="l">Password </tspan><tspan x="1128.71" dy="1.2em" class="l">Reset in AD</tspan></text></a><a target="_blank" href="https://docs.microsoft.com/azure/active-directory/users-groups-roles/groups-self-service-management"><rect x="1008" y="704" width="96" height="80" rx="8" ry="8" class="o"/><text x="1015.92" y="731.4" class="p">Self-Service <tspan x="1035" dy="1.2em" class="l">Group </tspan><tspan x="1013.21" dy="1.2em" class="l">Management</tspan></text></a><a target="_blank" href="https://docs.microsoft.com/azure/active-directory/conditional-access/overview"><rect x="1008" y="608" width="96" height="80" rx="8" ry="8" class="o"/><text x="1017.51" y="643.8" class="p">Conditional <tspan x="1031.48" dy="1.2em" class="l">Access</tspan></text></a><a target="_blank" href="https://docs.microsoft.com/azure/active-directory/external-identities/"><rect x="1120" y="512" width="96" height="80" rx="8" ry="8" class="o"/><text x="1136.5" y="539.4" class="p">Azure AD <tspan x="1140.38" dy="1.2em" class="l">External </tspan><tspan x="1137.27" dy="1.2em" class="l">Identities</tspan></text></a><a target="_blank" href="https://docs.microsoft.com/azure/active-directory/devices/enterprise-state-roaming-overview"><rect x="1120" y="608" width="96" height="80" rx="8" ry="8" class="o"/><text x="1133.38" y="635.4" class="p">Enterprise <tspan x="1150.88" dy="1.2em" class="l">State </tspan><tspan x="1138.06" dy="1.2em" class="l">Roaming</tspan></text></a><a target="_blank" href="https://docs.microsoft.com/azure/active-directory/governance/active-directory-tou"><rect x="1008" y="800" width="96" height="80" rx="8" ry="8" class="o"/><text x="1026.44" y="835.8" class="p">Terms of <tspan x="1043.16" dy="1.2em" class="l">Use</tspan></text></a><a target="_blank" href="https://docs.microsoft.com/azure/active-directory/authentication/concept-password-ban-bad"><rect x="784" y="608" width="96" height="80" rx="8" ry="8" class="o"/><text x="800.5" y="635.4" class="p">Azure AD <tspan x="798.93" dy="1.2em" class="l">Password </tspan><tspan x="797.39" dy="1.2em" class="l">Protection</tspan></text></a><a target="_blank" href="https://docs.microsoft.com/microsoft-identity-manager/"><rect x="784" y="704" width="96" height="80" rx="8" ry="8" class="o"/><text x="800.5" y="731.4" class="p">Microsoft <tspan x="807.11" dy="1.2em" class="l">Identity </tspan><tspan x="803.21" dy="1.2em" class="l">Manager</tspan></text></a><a target="_blank" href="https://docs.microsoft.com/azure/active-directory/conditional-access/controls#custom-controls-preview"><rect x="1120" y="800" width="96" height="80" rx="8" ry="8" class="o"/><text x="1140.78" y="827.4" class="p">3<tspan dy="-0.235em" class="q">rd </tspan><tspan dy="0.153em" class="l">Party  </tspan><tspan x="1152.84" dy="1.2em" class="l">MFA </tspan><tspan x="1131.83" dy="1.2em" class="l">Integration</tspan></text></a><a target="_blank" href="https://docs.microsoft.com/mem/intune/fundamentals/what-is-intune"><rect x="784" y="400" width="96" height="80" rx="8" ry="8" class="r"/><text x="792.34" y="435.8" class="p">Intune MDM <tspan x="808.28" dy="1.2em" class="l">&amp; MAM</tspan></text></a><a target="_blank" href="https://www.microsoft.com/licensing/product-licensing/client-access-license"><rect x="1120" y="400" width="96" height="80" rx="8" ry="8" class="r"/><text x="1137.28" y="427.4" class="p">Windows <tspan x="1129.87" dy="1.2em" class="l">Server CAL </tspan><tspan x="1146.22" dy="1.2em" class="l">Rights</tspan></text></a><a target="_blank" href="https://docs.microsoft.com/configmgr/core/understand/introduction"><rect x="896" y="400" width="96" height="80" rx="8" ry="8" class="r"/><text x="912.5" y="419" class="p">Microsoft <tspan x="913.68" dy="1.2em" class="l">Endpoint </tspan><tspan x="921.84" dy="1.2em" class="l">Config </tspan><tspan x="915.21" dy="1.2em" class="l">Manager</tspan></text></a><a target="_blank" href="https://docs.microsoft.com/sccm/protect/deploy-use/endpoint-protection"><rect x="1008" y="400" width="96" height="80" rx="8" ry="8" class="r"/><text x="1031.1" y="419" class="p">System <tspan x="1033.83" dy="1.2em" class="l">Center </tspan><tspan x="1025.68" dy="1.2em" class="l">Endpoint </tspan><tspan x="1021.39" dy="1.2em" class="l">Protection</tspan></text></a><a target="_blank" href="https://docs.microsoft.com/azure/information-protection/what-is-azure-rms"><rect x="784" y="304" width="96" height="80" rx="8" ry="8" class="r"/><text x="810.99" y="323" class="p">Active <tspan x="794.27" dy="1.2em" class="l">Directory &amp; </tspan><tspan x="800.5" dy="1.2em" class="l">Azure AD </tspan><tspan x="816.45" dy="1.2em" class="l">RMS</tspan></text></a><a target="_blank" href="https://docs.microsoft.com/mem/analytics/overview"><rect x="1008" y="304" width="96" height="80" rx="8" ry="8" class="r"/><text x="1025.68" y="339.8" class="p">Endpoint <tspan x="1024.88" dy="1.2em" class="l">Analytics</tspan></text></a><a target="_blank" href="https://docs.microsoft.com/advanced-threat-analytics/"><rect x="896" y="304" width="96" height="80" rx="8" ry="8" class="r"/><text x="910.55" y="323" class="p">Advanced <tspan x="922.61" dy="1.2em" class="l">Threat </tspan><tspan x="912.88" dy="1.2em" class="l">Analytics </tspan><tspan x="917.28" dy="1.292em" class="s">(retiring)</tspan></text></a><a target="_blank" href="https://m365maps.com/"><rect x="16" y="16" width="2144" height="64" rx="8" ry="8" class="m"/><text x="897.27" y="62.4" class="t">Microsoft 365 E3</text></a><g><rect x="16" y="80" width="2144" height="32" class="m"/><text x="977.92" y="105" class="u">December 2021</text></g><a target="_blank" href="https://m365maps.com/"><rect x="16" y="112" width="2144" height="32" rx="8" ry="8" class="m"/><text x="1020.46" y="133.4" class="v">m365maps.com</text></a><a target="_blank" href="https://docs.microsoft.com/windows/security/threat-protection/microsoft-defender-atp/attack-surface-reduction"><rect x="1424" y="400" width="96" height="80" rx="8" ry="8" class="w"/><text x="1450.6" y="427.4" class="p">Attack <tspan x="1446.32" dy="1.2em" class="l">Surface </tspan><tspan x="1437.78" dy="1.2em" class="l">Reduction</tspan></text></a><a target="_blank" href="https://docs.microsoft.com/microsoft-store/microsoft-store-for-business-overview"><rect x="1424" y="688" width="96" height="80" rx="8" ry="8" class="w"/><text x="1440.5" y="707" class="p">Microsoft <tspan x="1442.83" dy="1.2em" class="l">Store for </tspan><tspan x="1440.88" dy="1.2em" class="l">Business</tspan><tspan x="1445.28" dy="1.292em" class="s">(retiring)</tspan></text></a><a target="_blank" href="https://docs.microsoft.com/windows-server/identity/ad-fs/operations/configure-device-based-conditional-access-on-premises"><rect x="1312" y="880" width="96" height="80" rx="8" ry="8" class="w"/><text x="1329.28" y="907.4" class="p">Windows <tspan x="1321.51" dy="1.2em" class="l">Conditional </tspan><tspan x="1335.48" dy="1.2em" class="l">Access</tspan></text></a><a target="_blank" href="https://docs.microsoft.com/windows/security/information-protection/windows-information-protection/protect-enterprise-data-using-wip"><rect x="1648" y="880" width="96" height="80" rx="8" ry="8" class="w"/><text x="1665.28" y="907.4" class="p">Windows <tspan x="1657.5" dy="1.2em" class="l">Information </tspan><tspan x="1661.39" dy="1.2em" class="l">Protection</tspan></text></a><a target="_blank" href="https://docs.microsoft.com/windows/deployment/update/waas-manage-updates-wufb"><rect x="1760" y="880" width="96" height="80" rx="8" ry="8" class="w"/><text x="1777.28" y="907.4" class="p">Windows <tspan x="1773" dy="1.2em" class="l">Update for </tspan><tspan x="1776.88" dy="1.2em" class="l">Business</tspan></text></a><a target="_blank" href="https://docs.microsoft.com/windows/security/identity-protection/hello-for-business/hello-identity-verification"><rect x="1536" y="880" width="96" height="80" rx="8" ry="8" class="w"/><text x="1553.28" y="907.4" class="p">Windows <tspan x="1555.61" dy="1.2em" class="l">Hello for </tspan><tspan x="1552.88" dy="1.2em" class="l">Business</tspan></text></a><a target="_blank" href="https://www.microsoft.com/edge/business"><rect x="1424" y="592" width="96" height="80" rx="8" ry="8" class="w"/><text x="1443.61" y="627.8" class="p">Edge for <tspan x="1440.88" dy="1.2em" class="l">Business</tspan></text></a><a target="_blank" href="https://support.microsoft.com/help/17214/windows-10-what-is"><rect x="1424" y="496" width="96" height="80" rx="8" ry="8" class="w"/><text x="1445.55" y="540.2" class="p">Cortana</text></a><a target="_blank" href="https://docs.microsoft.com/windows/security/threat-protection/windows-defender-application-guard/wd-app-guard-overview"><rect x="1536" y="304" width="96" height="80" rx="8" ry="8" class="w"/><text x="1545.89" y="339.8" class="p">Application <tspan x="1563.39" dy="1.2em" class="l">Guard</tspan></text></a><a target="_blank" href="https://docs.microsoft.com/azure/active-directory/devices/concept-azure-ad-join"><rect x="1536" y="400" width="96" height="80" rx="8" ry="8" class="w"/><text x="1552.5" y="427.4" class="p">Azure AD<tspan x="1551.33" dy="1.2em" class="l">&amp; Domain </tspan><tspan x="1569.61" dy="1.2em" class="l">Join</tspan></text></a><a target="_blank" href="https://docs.microsoft.com/mem/configmgr/desktop-analytics/overview"><rect x="1648" y="496" width="96" height="80" rx="8" ry="8" class="w"/><text x="1668.38" y="531.8" class="p">Desktop <tspan x="1664.88" dy="1.2em" class="l">Analytics</tspan></text></a><a target="_blank" href="https://www.microsoft.com/windows/comprehensive-security"><rect x="1312" y="688" width="96" height="80" rx="8" ry="8" class="w"/><text x="1328.5" y="715.4" class="p">Microsoft <tspan x="1329.66" dy="1.2em" class="l">Defender </tspan><tspan x="1329.66" dy="1.2em" class="l">Antivirus</tspan></text></a><a target="_blank" href="https://docs.microsoft.com/microsoft-desktop-optimization-pack/appv-v5/"><rect x="1312" y="400" width="96" height="80" rx="8" ry="8" class="w"/><text x="1339.39" y="444.2" class="p">App-V</text></a><a target="_blank" href="https://docs.microsoft.com/windows/security/threat-protection/windows-defender-application-control/applocker/applocker-overview"><rect x="1648" y="304" width="96" height="80" rx="8" ry="8" class="w"/><text x="1659.44" y="348.2" class="p">AppLocker</text></a><a target="_blank" href="https://www.microsoft.com/cloud-platform/desktop-virtualization"><rect x="1648" y="400" width="96" height="80" rx="8" ry="8" class="w"/><text x="1652.82" y="435.8" class="p">Azure Virtual <tspan x="1668.38" dy="1.2em" class="l">Desktop</tspan></text></a><a target="_blank" href="https://docs.microsoft.com/windows-server/remote/remote-access/directaccess/directaccess"><rect x="1312" y="592" width="96" height="80" rx="8" ry="8" class="w"/><text x="1318.81" y="635.9" class="x">DirectAccess</text></a><a target="_blank" href="https://docs.microsoft.com/windows/security/threat-protection/device-guard/introduction-to-device-guard-virtualization-based-security-and-windows-defender-application-control"><rect x="1760" y="496" width="96" height="80" rx="8" ry="8" class="w"/><text x="1785.43" y="531.8" class="p">Device <tspan x="1787.39" dy="1.2em" class="l">Guard</tspan></text></a><a target="_blank" href="https://docs.microsoft.com/windows-server/networking/branchcache/branchcache"><rect x="1312" y="496" width="96" height="80" rx="8" ry="8" class="w"/><text x="1318.1" y="539.9" class="x">BranchCache</text></a><a target="_blank" href="https://docs.microsoft.com/microsoft-desktop-optimization-pack/"><rect x="1760" y="592" width="96" height="80" rx="8" ry="8" class="w"/><text x="1787" y="636.2" class="p">MDOP</text></a><a target="_blank" href="https://docs.microsoft.com/windows/security/identity-protection/credential-guard/credential-guard"><rect x="1536" y="496" width="96" height="80" rx="8" ry="8" class="w"/><text x="1549.77" y="531.8" class="p">Credential <tspan x="1563.39" dy="1.2em" class="l">Guard</tspan></text></a><a target="_blank" href="https://docs.microsoft.com/windows/configuration/ue-v/uev-for-windows"><rect x="1648" y="784" width="96" height="80" rx="8" ry="8" class="w"/><text x="1681.55" y="812.3" class="x">User <tspan x="1661.31" dy="1.2em" class="l">Experience </tspan><tspan x="1654.83" dy="1.2em" class="l">Virtualisation</tspan></text></a><a target="_blank" href="https://docs.microsoft.com/windows/deployment/update/waas-overview#long-term-servicing-channel"><rect x="1536" y="592" width="96" height="80" rx="8" ry="8" class="w"/><text x="1547.83" y="619.4" class="p">Long Term <tspan x="1552.49" dy="1.2em" class="l">Servicing </tspan><tspan x="1556.39" dy="1.2em" class="l">Channel</tspan></text></a><a target="_blank" href="https://docs.microsoft.com/windows-server/remote/remote-access/vpn/always-on-vpn/"><rect x="1312" y="304" width="96" height="80" rx="8" ry="8" class="w"/><text x="1324.21" y="339.8" class="p">Always On <tspan x="1345.61" dy="1.2em" class="l">VPN</tspan></text></a><a target="_blank" href="https://docs.microsoft.com/universal-print/"><rect x="1536" y="784" width="96" height="80" rx="8" ry="8" class="w"/><text x="1552.48" y="819.8" class="p">Universal <tspan x="1568.06" dy="1.2em" class="l">Print</tspan></text></a><a target="_blank" href="https://docs.microsoft.com/fasttrack/products-and-capabilities#app-assure"><rect x="1760" y="304" width="96" height="80" rx="8" ry="8" class="w"/><text x="1768.71" y="348.2" class="p">App Assure</text></a><a target="_blank" href="https://docs.microsoft.com/windows/deployment/windows-autopilot/windows-autopilot"><rect x="1760" y="784" width="96" height="80" rx="8" ry="8" class="w"/><text x="1777.28" y="819.8" class="p">Windows <tspan x="1777.29" dy="1.2em" class="l">Autopilot</tspan></text></a><a target="_blank" href="https://docs.microsoft.com/windows/security/information-protection/bitlocker/bitlocker-overview"><rect x="1760" y="400" width="96" height="80" rx="8" ry="8" class="w"/><text x="1768.71" y="427.4" class="p">BitLocker &amp; <tspan x="1767.16" dy="1.2em" class="l">BitLocker to </tspan><tspan x="1798.28" dy="1.2em" class="l">Go</tspan></text></a><a target="_blank" href="https://docs.microsoft.com/windows/security/threat-protection/windows-firewall/windows-firewall-with-advanced-security"><rect x="1424" y="880" width="96" height="80" rx="8" ry="8" class="w"/><text x="1441.28" y="915.8" class="p">Windows <tspan x="1445.93" dy="1.2em" class="l">Firewall</tspan></text></a><a target="_blank" href="https://docs.microsoft.com/windows/security/threat-protection/windows-defender-application-control/windows-defender-application-control"><rect x="1424" y="304" width="96" height="80" rx="8" ry="8" class="w"/><text x="1433.89" y="339.8" class="p">Application <tspan x="1447.12" dy="1.2em" class="l">Control</tspan></text></a><a target="_blank" href="https://docs.microsoft.com/windows-server/storage/refs/refs-overview"><rect x="1760" y="688" width="96" height="80" rx="8" ry="8" class="w"/><text x="1764.82" y="715.4" class="p">Resilient File <tspan x="1783.1" dy="1.2em" class="l">System </tspan><tspan x="1785.45" dy="1.2em" class="l">(ReFS)</tspan></text></a><a target="_blank" href="https://docs.microsoft.com/windows-server/storage/file-server/smb-direct"><rect x="1312" y="784" width="96" height="80" rx="8" ry="8" class="w"/><text x="1322.66" y="828.2" class="p">SMB Direct</text></a><a target="_blank" href="https://docs.microsoft.com/windows-hardware/customize/enterprise/unified-write-filter"><rect x="1424" y="784" width="96" height="80" rx="8" ry="8" class="w"/><text x="1428.83" y="819.8" class="p">Unified Write <tspan x="1454.89" dy="1.2em" class="l">Filter</tspan></text></a><a target="_blank" href="https://docs.microsoft.com/windows-server/storage/storage-spaces/deploy-pmem"><rect x="1536" y="688" width="96" height="80" rx="8" ry="8" class="w"/><text x="1550.15" y="723.8" class="p">Persistent <tspan x="1557.16" dy="1.2em" class="l">Memory</tspan></text></a><a target="_blank" href="https://docs.microsoft.com/windows/client-management/mdm/"><rect x="1648" y="592" width="96" height="80" rx="8" ry="8" class="w"/><text x="1659.82" y="627.8" class="p">Manage by <tspan x="1679.28" dy="1.2em" class="l">MDM</tspan></text></a><a target="_blank" href="https://docs.microsoft.com/azure/information-protection/what-is-information-protection"><rect x="1120" y="304" width="96" height="80" rx="8" ry="8" class="r"/><text x="1129.5" y="339.8" class="p">Information <tspan x="1133.39" dy="1.2em" class="l">Protection</tspan></text></a><a target="_blank" href="https://go.microsoft.com/fwlink/?linkid=2085130"><rect x="1648" y="688" width="96" height="80" rx="8" ry="8" class="w"/><text x="1677.99" y="710" class="y">Power <tspan x="1668.33" dy="1.2em" class="l">Automate </tspan><tspan x="1670" dy="1.2em" class="l">Attended </tspan><tspan x="1653.66" dy="1.2em" class="l">Desktop Flows</tspan></text></a><a target="_blank" href="https://www.microsoft.com/microsoft-365/business/microsoft-365-apps-for-enterprise-product"><rect x="256" y="592" width="96" height="80" rx="8" ry="8" class="z"/><text x="272.5" y="619.4" class="p">Microsoft <tspan x="261.6" dy="1.2em" class="l">365 Apps for </tspan><tspan x="269.38" dy="1.2em" class="l">Enterprise</tspan></text></a><a target="_blank" href="https://products.office.com/business/task-management-software"><rect x="256" y="784" width="96" height="80" rx="8" ry="8" class="z"/><text x="278.32" y="828.2" class="p">Planner</text></a><a target="_blank" href="https://docs.microsoft.com/microsoftteams/teams-live-events/what-are-teams-live-events"><rect x="144" y="592" width="96" height="80" rx="8" ry="8" class="z"/><text x="153.09" y="627.8" class="p">Live Events <tspan x="153.49" dy="1.2em" class="l">&amp; Webinars</tspan></text></a><a target="_blank" href="https://products.office.com/business/myanalytics-personal-analytics"><rect x="480" y="496" width="96" height="80" rx="8" ry="8" class="z"/><text x="491.05" y="531.8" class="p">Insights by <tspan x="487.15" dy="1.2em" class="l">MyAnalytics</tspan></text></a><a target="_blank" href="https://products.office.com/yammer/yammer-overview"><rect x="592" y="880" width="96" height="80" rx="8" ry="8" class="z"/><text x="612.37" y="915.8" class="p">Yammer <tspan x="605.38" dy="1.2em" class="l">Enterprise</tspan></text></a><a target="_blank" href="https://products.office.com/microsoft-teams/"><rect x="144" y="688" width="96" height="80" rx="8" ry="8" class="z"/><text x="160.5" y="723.8" class="p">Microsoft <tspan x="169.82" dy="1.2em" class="l">Teams</tspan></text></a><a target="_blank" href="https://docs.microsoft.com/stream/"><rect x="368" y="880" width="96" height="80" rx="8" ry="8" class="z"/><text x="380.99" y="915.8" class="p">Stream for <tspan x="382.54" dy="1.2em" class="l">Office 365</tspan></text></a><a target="_blank" href="https://docs.microsoft.com/sharepoint/introduction"><rect x="256" y="880" width="96" height="80" rx="8" ry="8" class="z"/><text x="267.05" y="907.4" class="p">SharePoint <tspan x="282.22" dy="1.2em" class="l">Online </tspan><tspan x="283.38" dy="1.2em" class="l">Plan 2</tspan></text></a><a target="_blank" href="https://docs.microsoft.com/office365/servicedescriptions/onedrive-for-business-service-description"><rect x="144" y="784" width="96" height="80" rx="8" ry="8" class="z"/><text x="149.6" y="811.4" class="p">OneDrive for <tspan x="160.88" dy="1.2em" class="l">Business </tspan><tspan x="171.38" dy="1.2em" class="l">Plan 2</tspan></text></a><a target="_blank" href="https://powerapps.microsoft.com/"><rect x="368" y="784" width="96" height="80" rx="8" ry="8" class="z"/><text x="375.55" y="811.4" class="p">Power Apps<tspan x="406.67" dy="1.2em" class="l">for</tspan><tspan x="382.54" dy="1.2em" class="l">Office 365</tspan></text></a><a target="_blank" href="https://support.office.com/sway"><rect x="480" y="880" width="96" height="80" rx="8" ry="8" class="z"/><text x="510.1" y="924.2" class="p">Sway</text></a><a target="_blank" href="https://support.office.com/forms"><rect x="480" y="592" width="96" height="80" rx="8" ry="8" class="z"/><text x="496.5" y="627.8" class="p">Microsoft <tspan x="506.61" dy="1.2em" class="l">Forms</tspan></text></a><a target="_blank" href="https://support.microsoft.com/office/1315665a-c6af-4409-a28d-49f8916878ca"><rect x="368" y="400" width="96" height="80" rx="8" ry="8" class="z"/><text x="397.32" y="444.2" class="p">Delve</text></a><a target="_blank" href="https://powerautomate.microsoft.com/"><rect x="480" y="784" width="96" height="80" rx="8" ry="8" class="z"/><text x="506.99" y="811.4" class="p">Power <tspan x="484.45" dy="1.2em" class="l">Automate for</tspan><tspan x="494.54" dy="1.2em" class="l">Office 365</tspan></text></a><a target="_blank" href="https://docs.microsoft.com/office365/securitycompliance/data-loss-prevention-policies"><rect x="256" y="400" width="96" height="80" rx="8" ry="8" class="z"/><text x="270.55" y="435.8" class="p">Data Loss <tspan x="267.82" dy="1.2em" class="l">Prevention</tspan></text></a><a target="_blank" href="https://docs.microsoft.com/microsoft-365/compliance/retention"><rect x="144" y="880" width="96" height="80" rx="8" ry="8" class="z"/><text x="159.72" y="907.4" class="p">Retention <tspan x="162.82" dy="1.2em" class="l">Labels &amp; </tspan><tspan x="165.54" dy="1.2em" class="l">Policies</tspan></text></a><a target="_blank" href="https://www.microsoft.com/microsoft-365/exchange/exchange-email-security-spam-protection"><rect x="144" y="496" width="96" height="80" rx="8" ry="8" class="z"/><text x="158.93" y="523.4" class="p">Exchange <tspan x="170.22" dy="1.2em" class="l">Online </tspan><tspan x="157.39" dy="1.2em" class="l">Protection</tspan></text></a><a target="_blank" href="https://docs.microsoft.com/office365/securitycompliance/ediscovery-cases"><rect x="480" y="400" width="96" height="80" rx="8" ry="8" class="z"/><text x="490.64" y="444.2" class="p">eDiscovery</text></a><a target="_blank" href="https://products.office.com/en/business/microsoft-kaizala"><rect x="592" y="496" width="96" height="80" rx="8" ry="8" class="z"/><text x="602.26" y="531.8" class="p">Kaizala Pro<tspan x="613.28" dy="1.292em" class="s">(retiring)</tspan></text></a><a target="_blank" href="https://docs.microsoft.com/office365/servicedescriptions/exchange-online-service-description/exchange-online-service-description#feature-availability-across-exchange-online-standalone-plans"><rect x="592" y="400" width="96" height="80" rx="8" ry="8" class="z"/><text x="606.93" y="427.4" class="p">Exchange <tspan x="618.22" dy="1.2em" class="l">Online </tspan><tspan x="619.38" dy="1.2em" class="l">Plan 2</tspan></text></a><a target="_blank" href="https://docs.microsoft.com/powerapps/teams/overview-data-platform"><rect x="368" y="592" width="96" height="80" rx="8" ry="8" class="z"/><text x="384.5" y="619.4" class="p">Microsoft <tspan x="382.53" dy="1.2em" class="l">Dataverse </tspan><tspan x="382.55" dy="1.2em" class="l">for Teams</tspan></text></a><a target="_blank" href="https://www.microsoft.com/microsoft-365/microsoft-lists"><rect x="592" y="592" width="96" height="80" rx="8" ry="8" class="z"/><text x="608.5" y="627.8" class="p">Microsoft <tspan x="623.66" dy="1.2em" class="l">Lists</tspan></text></a><a target="_blank" href="https://docs.microsoft.com/microsoft-365/bookings/bookings-overview"><rect x="144" y="400" width="96" height="80" rx="8" ry="8" class="z"/><text x="160.11" y="444.2" class="p">Bookings</text></a><a target="_blank" href="https://www.microsoft.com/download/details.aspx?id=48734"><rect x="256" y="496" width="96" height="80" rx="8" ry="8" class="z"/><text x="276" y="531.8" class="p">InfoPath<tspan x="290.39" dy="1.2em" class="l">App</tspan></text></a><a target="_blank" href="https://docs.microsoft.com/office365/securitycompliance/search-the-audit-log-in-security-and-compliance"><rect x="368" y="304" width="96" height="80" rx="8" ry="8" class="z"/><text x="398.12" y="339.8" class="p">Audit <tspan x="388.4" dy="1.2em" class="l">Logging</tspan></text></a><a target="_blank" href="https://docs.microsoft.com/microsoft-365/compliance/alert-policies"><rect x="144" y="304" width="96" height="80" rx="8" ry="8" class="z"/><text x="176.05" y="339.8" class="p">Alert <tspan x="165.54" dy="1.2em" class="l">Policies</tspan></text></a><a target="_blank" href="https://support.microsoft.com/office/d236aef8-fcdf-4b5e-b5d7-7f157461e920"><rect x="368" y="688" width="96" height="80" rx="8" ry="8" class="z"/><text x="384.5" y="723.8" class="p">Microsoft <tspan x="377.5" dy="1.2em" class="l">Whiteboard</tspan></text></a><a target="_blank" href="https://www.microsoft.com/microsoft-365/microsoft-to-do-list-app"><rect x="256" y="688" width="96" height="80" rx="8" ry="8" class="z"/><text x="272.5" y="723.8" class="p">Microsoft <tspan x="283.79" dy="1.2em" class="l">To</tspan>-Do</text></a><a target="_blank" href="https://docs.microsoft.com/power-virtual-agents/teams/fundamentals-what-is-power-virtual-agents-teams"><rect x="592" y="784" width="96" height="80" rx="8" ry="8" class="z"/><text x="598.46" y="812.3" class="x">Power Virtual <tspan x="607.5" dy="1.2em" class="l">Agents for </tspan><tspan x="619.4" dy="1.2em" class="l">Teams</tspan></text></a><a target="_blank" href="https://products.office.com/mobile/office"><rect x="592" y="688" width="96" height="80" rx="8" ry="8" class="z"/><text x="620.16" y="723.8" class="p">Office<tspan x="598.39" dy="1.2em" class="l">Mobile Apps</tspan></text></a><a target="_blank" href="https://docs.microsoft.com/office365/servicedescriptions/office-online-service-description/office-online-service-description"><rect x="480" y="688" width="96" height="80" rx="8" ry="8" class="z"/><text x="508.16" y="715.4" class="p">Office<tspan x="489.5" dy="1.2em" class="l">for the Web</tspan><tspan x="492.61" dy="1.2em" class="l">(incl Visio)</tspan></text></a><a target="_blank" href="https://docs.microsoft.com/microsoft-365/admin/basic-mobility-security/capabilities"><rect x="592" y="304" width="96" height="80" rx="8" ry="8" class="z"/><text x="621.32" y="331.4" class="p">Basic <tspan x="606.56" dy="1.2em" class="l">Mobility &amp; </tspan><tspan x="612.38" dy="1.2em" class="l">Security</tspan></text></a><a target="_blank" href="https://azure.microsoft.com/pricing/details/active-directory/"><rect x="480" y="304" width="96" height="80" rx="8" ry="8" class="z"/><text x="485.22" y="339.8" class="p">Azure AD for <tspan x="494.54" dy="1.2em" class="l">Office 365</tspan></text></a><a target="_blank" href="https://docs.microsoft.com/microsoft-365/compliance/sensitivity-labels"><rect x="368" y="496" width="96" height="80" rx="8" ry="8" class="z"/><text x="377.5" y="523.4" class="p">Information <tspan x="381.39" dy="1.2em" class="l">Protection</tspan><tspan x="387.21" dy="1.2em" class="l">for M365</tspan></text></a><a target="_blank" href="https://docs.microsoft.com/microsoftteams/audio-conferencing-in-office-365"><rect x="256" y="304" width="96" height="80" rx="8" ry="8" class="z"/><text x="285.59" y="332.3" class="x">Audio <tspan x="262.11" dy="1.2em" class="l">Conferencing </tspan><tspan x="263.91" dy="1.2em" class="l">(Dial In Only)</tspan></text></a><rect x="1904" y="288" width="160" height="688" rx="8" ry="8" class="ba"/><a target="_blank" href="https://docs.microsoft.com/windows/security/threat-protection/microsoft-defender-atp/overview-attack-surface-reduction"><rect x="1952" y="688" width="96" height="80" rx="8" ry="8" class="w"/><text x="1966.55" y="723.8" class="p">Enhanced <tspan x="1985.22" dy="1.2em" class="l">ASR</tspan></text></a><a target="_blank" href="https://docs.microsoft.com/windows/security/threat-protection/microsoft-defender-atp/microsoft-defender-atp-mac"><rect x="1952" y="496" width="96" height="80" rx="8" ry="8" class="w"/><text x="1958.38" y="523.4" class="p">Defender for <tspan x="1969.68" dy="1.2em" class="l">Endpoint </tspan><tspan x="1981.72" dy="1.2em" class="l">(Mac)</tspan></text></a><a target="_blank" href="https://docs.microsoft.com/microsoft-365/security/defender-endpoint/non-windows"><rect x="1952" y="592" width="96" height="80" rx="8" ry="8" class="w"/><text x="1958.38" y="619.4" class="p">Defender for <tspan x="1969.68" dy="1.2em" class="l">Endpoint </tspan><tspan x="1973.17" dy="1.2em" class="l">(Mobile)</tspan></text></a><a target="_blank" href="https://docs.microsoft.com/microsoft-365/security/defender-endpoint/defender-endpoint-plan-1" transform="translate(848,976) rotate(-90)"><rect y="1056" width="688" height="48" rx="8" ry="8" class="m"/><text x="214.1" y="1084.2" class="n">Microsoft Defender for Endpoint Plan 1</text></a><a target="_blank" href="https://docs.microsoft.com/windows/security/threat-protection/microsoft-defender-antivirus/prevent-changes-to-security-settings-with-tamper-protection"><rect x="1952" y="784" width="96" height="80" rx="8" ry="8" class="w"/><text x="1974.71" y="819.8" class="p">Tamper <tspan x="1965.39" dy="1.2em" class="l">Protection</tspan></text></a><a target="_blank" href="https://docs.microsoft.com/windows/security/threat-protection/microsoft-defender-antivirus/configure-block-at-first-sight-microsoft-defender-antivirus"><rect x="1952" y="304" width="96" height="80" rx="8" ry="8" class="w"/><text x="1972.77" y="339.8" class="p">Block at <tspan x="1965.39" dy="1.2em" class="l">First Sight</tspan></text></a><a target="_blank" href="https://docs.microsoft.com/windows/security/threat-protection/microsoft-defender-atp/web-content-filtering"><rect x="1952" y="880" width="96" height="80" rx="8" ry="8" class="w"/><text x="1956.84" y="915.8" class="p">Web Content <tspan x="1972.39" dy="1.2em" class="l">Filtering</tspan></text></a><a target="_blank" href="https://docs.microsoft.com/windows/security/threat-protection/microsoft-defender-atp/microsoft-cloud-app-security-integration"><rect x="1952" y="400" width="96" height="80" rx="8" ry="8" class="w"/><text x="1958.38" y="427.4" class="p">Defender for <tspan x="1960.73" dy="1.2em" class="l">Cloud Apps </tspan><tspan x="1963.83" dy="1.2em" class="l">Integration</tspan></text></a></svg>