<svg xmlns="http://www.w3.org/2000/svg" width="416" height="304" viewBox="0 0 416 304" class="a"><style>
.b {fill:#a5a5a5;fill-opacity:0.2;stroke:#a41500;stroke-linecap:round;stroke-linejoin:round;stroke-width:2.25}
.c {fill:#a41500;stroke:#a41500;stroke-linecap:round;stroke-linejoin:round;stroke-width:2.25}
.d {fill:#ffffff;font-family:Arial;font-size:1.67em;font-weight:bold}
.e {fill:#a41500;stroke:none;stroke-linecap:round;stroke-linejoin:round;stroke-width:1}
.f {fill:#ffffff;font-family:Arial;font-size:1.17em;font-weight:bold}
.g {font-size:1em}
.a {fill:none;fill-rule:evenodd;font-size:12px;overflow:visible;stroke-linecap:square;stroke-miterlimit:3}
</style><rect x="16" y="16" width="384" height="272" rx="8" ry="8" class="b"/><a target="_blank" href="https://www.microsoft.com/microsoft-365/business/microsoft-365-apps-for-business"><rect x="16" y="16" width="384" height="32" rx="8" ry="8" class="c"/><text x="52.41" y="38" class="d">Microsoft 365 Apps for Business</text></a><a target="_blank" href="https://products.office.com/mobile/office"><rect x="48" y="176" width="96" height="80" rx="8" ry="8" class="e"/><text x="76.16" y="211.8" class="f">Office <tspan x="54.39" dy="1.2em" class="g">Mobile Apps</tspan></text></a><a target="_blank" href="https://docs.microsoft.com/office365/servicedescriptions/office-online-service-description/office-online-service-description"><rect x="272" y="80" width="96" height="80" rx="8" ry="8" class="e"/><text x="300.16" y="107.4" class="f">Office<tspan x="281.5" dy="1.2em" class="g">for the Web</tspan><tspan x="284.61" dy="1.2em" class="g">(incl Visio)</tspan></text></a><a target="_blank" href="https://www.microsoft.com/microsoft-365/business/microsoft-365-apps-for-business"><rect x="160" y="80" width="96" height="80" rx="8" ry="8" class="e"/><text x="188.16" y="107.4" class="f">Office <tspan x="166" dy="1.2em" class="g">Applications </tspan><tspan x="171.05" dy="1.2em" class="g">(PC &amp; Mac)</tspan></text></a><a target="_blank" href="https://support.office.com/sway"><rect x="272" y="176" width="96" height="80" rx="8" ry="8" class="e"/><text x="302.1" y="220.2" class="f">Sway</text></a><a target="_blank" href="https://support.office.com/forms"><rect x="48" y="80" width="96" height="80" rx="8" ry="8" class="e"/><text x="64.5" y="115.8" class="f">Microsoft <tspan x="74.61" dy="1.2em" class="g">Forms</tspan></text></a><a target="_blank" href="https://docs.microsoft.com/office365/servicedescriptions/onedrive-for-business-service-description"><rect x="160" y="176" width="96" height="80" rx="8" ry="8" class="e"/><text x="165.6" y="203.4" class="f">OneDrive for <tspan x="176.88" dy="1.2em" class="g">Business </tspan><tspan x="187.38" dy="1.2em" class="g">Plan 1</tspan></text></a></svg>