<svg xmlns="http://www.w3.org/2000/svg" width="2288" height="1280" viewBox="0 0 2288 1280" class="a"><style>
.b {fill:#a5a5a5;fill-opacity:0.2;stroke:#442060;stroke-linecap:round;stroke-linejoin:round;stroke-width:2.25}
.c {fill:#a5a5a5;fill-opacity:0.2;stroke:#303040;stroke-linecap:round;stroke-linejoin:round;stroke-width:2.25}
.d {fill:#a5a5a5;fill-opacity:0.2;stroke:#006600;stroke-dasharray:33.75,20.25;stroke-linecap:round;stroke-linejoin:round;stroke-width:2.25}
.e {fill:#a5a5a5;fill-opacity:0.2;stroke:#2080a0;stroke-dasharray:33.75,20.25;stroke-linecap:round;stroke-linejoin:round;stroke-width:2.25}
.f {fill:#a5a5a5;fill-opacity:0.2;stroke:#e82200;stroke-dasharray:33.75,20.25;stroke-linecap:round;stroke-linejoin:round;stroke-width:2.25}
.g {fill:#a5a5a5;fill-opacity:0.2;stroke:#d04a00;stroke-dasharray:2.25,4.5;stroke-linecap:round;stroke-linejoin:round;stroke-width:2.25}
.h {fill:#a5a5a5;fill-opacity:0.2;stroke:#d04a00;stroke-dasharray:15.75,11.25;stroke-linecap:round;stroke-linejoin:round;stroke-width:2.25}
.i {fill:#a5a5a5;fill-opacity:0.2;stroke:#0050c0;stroke-dasharray:2.25,4.5;stroke-linecap:round;stroke-linejoin:round;stroke-width:2.25}
.j {fill:#442060;stroke:#442060;stroke-linecap:round;stroke-linejoin:round;stroke-width:2.25}
.k {fill:#ffffff;font-family:Arial;font-size:1.66667em;font-weight:bold}
.l {fill:#e82200;stroke:#e82200;stroke-linecap:round;stroke-linejoin:round;stroke-width:2.25}
.m {fill:#006600;stroke:#006600;stroke-linecap:round;stroke-linejoin:round;stroke-width:2.25}
.n {fill:#2080a0;stroke:#2080a0;stroke-linecap:round;stroke-linejoin:round;stroke-width:2.25}
.o {font-size:1em}
.p {fill:none;stroke:none;stroke-linecap:round;stroke-linejoin:round;stroke-width:1}
.q {fill:#0070f7;font-family:Arial;font-size:4.00001em;font-weight:bold}
.r {fill:none;stroke:none;stroke-linecap:round;stroke-linejoin:round;stroke-width:0.75}
.s {fill:#0070f7;font-family:Arial;font-size:2.50001em;font-weight:bold}
.t {fill:#0070f7;font-family:Arial;font-size:1.5em;font-weight:bold}
.u {fill:#d04a00;stroke:none;stroke-linecap:round;stroke-linejoin:round;stroke-width:1}
.v {fill:#ffffff;font-family:Arial;font-size:1.16666em;font-weight:bold}
.w {fill:#ffffff;font-family:Arial;font-size:1.08334em;font-weight:bold}
.x {fill:#000000;font-family:Arial;font-size:1.16666em;font-weight:bold}
.y {fill:#0050c0;stroke:none;stroke-linecap:round;stroke-linejoin:round;stroke-width:1}
.z {fill:#105868;stroke:none;stroke-linecap:round;stroke-linejoin:round;stroke-width:1}
.ba {fill:#504060;stroke:none;stroke-linecap:round;stroke-linejoin:round;stroke-width:1}
.bb {fill:#303040;stroke:#303040;stroke-linecap:round;stroke-linejoin:round;stroke-width:2.25}
.bc {fill:#ffffff;font-family:Arial;font-size:1.5em;font-weight:bold}
.bd {stroke:#105868;stroke-dasharray:8,4;stroke-linecap:butt;stroke-width:4}
.be {fill:#e82200;stroke:none;stroke-linecap:round;stroke-linejoin:round;stroke-width:1}
.bf {fill:#a5a5a5;fill-opacity:0.2;stroke:#004400;stroke-dasharray:2.25,4.5;stroke-linecap:round;stroke-linejoin:round;stroke-width:2.25}
.bg {fill:#004400;stroke:none;stroke-linecap:round;stroke-linejoin:round;stroke-width:1}
.a {fill:none;fill-rule:evenodd;font-size:12px;overflow:visible;stroke-linecap:square;stroke-miterlimit:3}
</style><rect y="-976" width="896" height="2256" rx="8" ry="8" class="b" transform="translate(992,1168) rotate(-90)"/><rect x="112" y="768" width="2064" height="368" rx="8" ry="8" class="c"/><rect x="112" y="304" width="2064" height="432" rx="8" ry="8" class="c"/><rect x="1488" y="176" width="608" height="1088" rx="8" ry="8" class="d"/><rect x="960" y="176" width="496" height="1088" rx="8" ry="8" class="e"/><rect x="320" y="176" width="608" height="1088" rx="8" ry="8" class="f"/><rect x="336" y="784" width="576" height="336" rx="8" ry="8" class="g"/><rect x="576" y="800" width="320" height="240" rx="8" ry="8" class="h"/><rect x="1088" y="784" width="352" height="240" rx="8" ry="8" class="i"/><a target="_blank" href="https://www.microsoft.com/microsoft-365/compare-all-microsoft-365-plans" transform="translate(-1200,1168) rotate(-90)"><rect y="1216" width="896" height="64" rx="8" ry="8" class="j"/><text x="258.77" y="1254" class="k">Microsoft 365 F5 Security + Compliance</text></a><a target="_blank" href="https://www.microsoft.com/microsoft-365/compare-all-microsoft-365-plans" transform="translate(992,1168) rotate(-90)"><rect y="1216" width="896" height="64" rx="8" ry="8" class="j"/><text x="258.77" y="1254" class="k">Microsoft 365 F5 Security + Compliance</text></a><a target="_blank" href="https://docs.microsoft.com/office365/enterprise/"><rect x="320" y="176" width="608" height="64" rx="8" ry="8" class="l"/><text x="576.2" y="214" class="k">Office 365</text></a><a target="_blank" href="https://www.microsoft.com/windowsforbusiness"><rect x="1488" y="176" width="608" height="64" rx="8" ry="8" class="m"/><text x="1748.12" y="214" class="k">Windows</text></a><a target="_blank" href="https://docs.microsoft.com/office365/enterprise/"><rect x="320" y="1200" width="608" height="64" rx="8" ry="8" class="l"/><text x="576.2" y="1238" class="k">Office 365</text></a><a target="_blank" href="https://www.microsoft.com/windowsforbusiness"><rect x="1488" y="1200" width="608" height="64" rx="8" ry="8" class="m"/><text x="1748.12" y="1238" class="k">Windows</text></a><a target="_blank" href="https://www.microsoft.com/cloud-platform/enterprise-mobility-security"><rect x="960" y="176" width="496" height="64" rx="8" ry="8" class="n"/><text x="1067.13" y="202" class="k">Enterprise Mobility + Security <tspan x="1179.67" dy="1.2em" class="o">(EMS)</tspan></text></a><a target="_blank" href="https://www.microsoft.com/cloud-platform/enterprise-mobility-security"><rect x="960" y="1200" width="496" height="64" rx="8" ry="8" class="n"/><text x="1067.13" y="1226" class="k">Enterprise Mobility + Security <tspan x="1179.67" dy="1.2em" class="o">(EMS)</tspan></text></a><a target="_blank" href="https://m365maps.com/"><rect x="16" y="16" width="2256" height="64" rx="8" ry="8" class="p"/><text x="689.85" y="62.4" class="q">Microsoft 365 F5 Security + Compliance</text></a><g><rect x="16" y="80" width="2256" height="32" class="r"/><text x="1033.92" y="105" class="s">December 2021</text></g><a target="_blank" href="https://m365maps.com/"><rect x="16" y="112" width="2256" height="32" class="p"/><text x="1076.46" y="133.4" class="t">m365maps.com</text></a><a target="_blank" href="https://docs.microsoft.com/microsoft-365/security/office-365-security/atp-safe-links"><rect x="592" y="960" width="288" height="32" rx="8" ry="8" class="u"/><text x="700.99" y="980.2" class="v">Safe Links</text></a><a target="_blank" href="https://docs.microsoft.com/microsoft-365/security/office-365-security/atp-safe-attachments"><rect x="592" y="912" width="288" height="32" rx="8" ry="8" class="u"/><text x="676.87" y="932.2" class="v">Safe Attachments</text></a><a target="_blank" href="https://docs.microsoft.com/microsoft-365/security/office-365-security/atp-anti-phishing"><rect x="592" y="816" width="288" height="32" rx="8" ry="8" class="u"/><text x="690.51" y="836.2" class="v">Anti-Phishing</text></a><a target="_blank" href="https://docs.microsoft.com/microsoft-365/security/office-365-security/attack-simulation-training-get-started"><rect x="352" y="800" width="96" height="80" rx="8" ry="8" class="u"/><text x="378.6" y="827.4" class="v">Attack <tspan x="364.22" dy="1.2em" class="o">Simulation </tspan><tspan x="372.39" dy="1.2em" class="o">Training</tspan></text></a><a target="_blank" href="https://docs.microsoft.com/microsoft-365/security/office-365-security/automated-investigation-response-office"><rect x="464" y="800" width="96" height="80" rx="8" ry="8" class="u"/><text x="475.45" y="827.4" class="v">Automated <tspan x="468.83" dy="1.2em" class="o">Investigation </tspan><tspan x="471.55" dy="1.2em" class="o">&amp; Response</tspan></text></a><a target="_blank" href="https://docs.microsoft.com/microsoft-365/security/office-365-security/campaigns"><rect x="352" y="896" width="96" height="80" rx="8" ry="8" class="u"/><text x="366.16" y="931.8" class="v">Campaign <tspan x="380.16" dy="1.2em" class="o">Views</tspan></text></a><a target="_blank" href="https://docs.microsoft.com/microsoft-365/security/office-365-security/threat-explorer"><rect x="352" y="992" width="96" height="80" rx="8" ry="8" class="u"/><text x="378.61" y="1027.8" class="v">Threat <tspan x="371.6" dy="1.2em" class="o">Explorer</tspan></text></a><a target="_blank" href="https://docs.microsoft.com/office365/securitycompliance/threat-trackers"><rect x="464" y="992" width="96" height="80" rx="8" ry="8" class="u"/><text x="490.61" y="1027.8" class="v">Threat <tspan x="482.81" dy="1.2em" class="o">Trackers</tspan></text></a><a target="_blank" href="https://docs.microsoft.com/microsoft-365/security/office-365-security/address-compromised-users-quickly"><rect x="464" y="896" width="96" height="80" rx="8" ry="8" class="u"/><text x="468.3" y="924.3" class="w">Compromised <tspan x="497.55" dy="1.2em" class="o">User </tspan><tspan x="482.38" dy="1.2em" class="o">Detection</tspan></text></a><a target="_blank" href="https://docs.microsoft.com/office365/servicedescriptions/office-365-advanced-threat-protection-service-description#feature-availability-across-advanced-threat-protection-atp-plans"><rect x="576" y="992" width="320" height="48" rx="8" ry="8" class="p"/><text x="602.97" y="1020.2" class="x">Microsoft Defender for Office 365 Plan 1</text></a><a target="_blank" href="https://docs.microsoft.com/office365/servicedescriptions/office-365-advanced-threat-protection-service-description#feature-availability-across-advanced-threat-protection-atp-plans"><rect x="336" y="1072" width="576" height="48" rx="8" ry="8" class="p"/><text x="490.97" y="1100.2" class="x">Microsoft Defender for Office 365 Plan 2</text></a><a target="_blank" href="https://azure.microsoft.com/pricing/details/active-directory/"><rect x="1088" y="976" width="352" height="48" rx="8" ry="8" class="p"/><text x="1150.04" y="1004.2" class="x">Azure AD Premium Plan 2 Step-up</text></a><a target="_blank" href="https://docs.microsoft.com/azure/active-directory/identity-protection/overview"><rect x="1216" y="800" width="96" height="80" rx="8" ry="8" class="y"/><text x="1244.55" y="827.4" class="v">Azure <tspan x="1239.11" dy="1.2em" class="o">Identity </tspan><tspan x="1229.39" dy="1.2em" class="o">Protection</tspan></text></a><a target="_blank" href="https://docs.microsoft.com/azure/active-directory/active-directory-privileged-identity-management-configure"><rect x="1104" y="896" width="96" height="80" rx="8" ry="8" class="y"/><text x="1118.54" y="923.4" class="v">Privileged <tspan x="1127.11" dy="1.2em" class="o">Identity </tspan><tspan x="1109.21" dy="1.2em" class="o">Management</tspan></text></a><a target="_blank" href="https://docs.microsoft.com/azure/active-directory/governance/access-reviews-overview"><rect x="1104" y="800" width="96" height="80" rx="8" ry="8" class="y"/><text x="1127.48" y="835.8" class="v">Access <tspan x="1123.98" dy="1.2em" class="o">Reviews</tspan></text></a><a target="_blank" href="https://docs.microsoft.com/azure/active-directory/active-directory-conditional-access-conditions#sign-in-risk"><rect x="1216" y="896" width="96" height="80" rx="8" ry="8" class="y"/><text x="1225.87" y="923.4" class="v">Risk-Based <tspan x="1225.51" dy="1.2em" class="o">Conditional </tspan><tspan x="1239.48" dy="1.2em" class="o">Access</tspan></text></a><a target="_blank" href="https://docs.microsoft.com/azure/active-directory/governance/entitlement-management-overview"><rect x="1328" y="800" width="96" height="80" rx="8" ry="8" class="y"/><text x="1337.89" y="835.8" class="v">Entitlement <tspan x="1333.21" dy="1.2em" class="o">Management</tspan></text></a><a target="_blank" href="https://docs.microsoft.com/cloud-app-security/what-is-cloud-app-security"><rect x="976" y="800" width="96" height="80" rx="8" ry="8" class="z"/><text x="992.5" y="827.4" class="v">Microsoft <tspan x="982.38" dy="1.2em" class="o">Defender for </tspan><tspan x="984.73" dy="1.2em" class="o">Cloud Apps</tspan></text></a><a target="_blank" href="https://docs.microsoft.com/defender-for-identity/what-is"><rect x="976" y="896" width="96" height="80" rx="8" ry="8" class="z"/><text x="992.5" y="923.4" class="v">Microsoft <tspan x="982.38" dy="1.2em" class="o">Defender for </tspan><tspan x="999.11" dy="1.2em" class="o">Identity</tspan></text></a><a target="_blank" href="https://docs.microsoft.com/cloud-app-security/what-is-cloud-app-security"><rect x="976" y="624" width="96" height="80" rx="8" ry="8" class="z"/><text x="992.5" y="651.4" class="v">Microsoft <tspan x="982.38" dy="1.2em" class="o">Defender for </tspan><tspan x="984.73" dy="1.2em" class="o">Cloud Apps</tspan></text></a><a target="_blank" href="https://docs.microsoft.com/microsoft-365/security/office-365-security/install-app-guard"><rect x="192" y="800" width="96" height="80" rx="8" ry="8" class="ba"/><text x="201.89" y="827.4" class="v">Application <tspan x="208.11" dy="1.2em" class="o">Guard for </tspan><tspan x="220.16" dy="1.2em" class="o">Office</tspan></text></a><a target="_blank" href="https://docs.microsoft.com/microsoft-365/security/office-365-security/safe-docs"><rect x="192" y="896" width="96" height="80" rx="8" ry="8" class="ba"/><text x="225.21" y="931.8" class="v">Safe <tspan x="201.88" dy="1.2em" class="o">Documents</tspan></text></a><a target="_blank" href="https://docs.microsoft.com/microsoft-365/compliance/classifier-learn-about"><rect x="192" y="624" width="96" height="80" rx="8" ry="8" class="ba"/><text x="208.88" y="659.8" class="v">Trainable <tspan x="204.59" dy="1.2em" class="o">Classifiers</tspan></text></a><a target="_blank" href="https://docs.microsoft.com/microsoft-365/compliance/endpoint-dlp-learn-about"><rect x="192" y="432" width="96" height="80" rx="8" ry="8" class="ba"/><text x="209.68" y="467.8" class="v">Endpoint <tspan x="226" dy="1.2em" class="o">DLP</tspan></text></a><a target="_blank" href="https://docs.microsoft.com/microsoft-365/compliance/insider-risk-management"><rect x="192" y="528" width="96" height="80" rx="8" ry="8" class="ba"/><text x="200.32" y="563.8" class="v">Insider Risk <tspan x="197.21" dy="1.2em" class="o">Management</tspan></text></a><a target="_blank" href="https://support.office.com/article/f2cd475a-e592-46cf-80a3-1bfb0fa17697"><rect x="464" y="528" width="96" height="80" rx="8" ry="8" class="u"/><text x="479.33" y="563.8" class="v">Customer <tspan x="499.16" dy="1.2em" class="o">Key</tspan></text></a><a target="_blank" href="https://docs.microsoft.com/office365/securitycompliance/data-loss-prevention-policies#policy-evaluation-in-microsoft-teams"><rect x="800" y="624" width="96" height="80" rx="8" ry="8" class="u"/><text x="825.82" y="651.4" class="v">Teams<tspan x="814.55" dy="1.2em" class="o">Data Loss </tspan><tspan x="811.82" dy="1.2em" class="o">Prevention</tspan></text></a><a target="_blank" href="https://docs.microsoft.com/microsoft-365/compliance/ome-advanced-message-encryption"><rect x="576" y="432" width="96" height="80" rx="8" ry="8" class="u"/><text x="590.55" y="459.4" class="v">Advanced <tspan x="594.43" dy="1.2em" class="o">Message </tspan><tspan x="587.44" dy="1.2em" class="o">Encryption</tspan></text></a><a target="_blank" href="https://docs.microsoft.com/microsoft-365/compliance/records-management"><rect x="576" y="624" width="96" height="80" rx="8" ry="8" class="u"/><text x="595.99" y="659.8" class="v">Records <tspan x="581.21" dy="1.2em" class="o">Management</tspan></text></a><a target="_blank" href="https://docs.microsoft.com/microsoft-365/compliance/double-key-encryption"><rect x="688" y="528" width="96" height="80" rx="8" ry="8" class="u"/><text x="697.49" y="563.8" class="v">Double Key <tspan x="699.44" dy="1.2em" class="o">Encryption</tspan></text></a><a target="_blank" href="https://support.office.com/article/36f9cdd1-e64c-421b-a7e4-4a54d16440a2"><rect x="576" y="528" width="96" height="80" rx="8" ry="8" class="u"/><text x="591.33" y="563.8" class="v">Customer <tspan x="595.22" dy="1.2em" class="o">Lockbox</tspan></text></a><a target="_blank" href="https://docs.microsoft.com/microsoft-365/compliance/information-barriers"><rect x="800" y="528" width="96" height="80" rx="8" ry="8" class="u"/><text x="809.5" y="563.8" class="v">Information <tspan x="821.15" dy="1.2em" class="o">Barriers</tspan></text></a><a target="_blank" href="https://docs.microsoft.com/microsoft-365/compliance/communication-compliance"><rect x="352" y="528" width="96" height="80" rx="8" ry="8" class="u"/><text x="378.22" y="563.8" class="v">Comm <tspan x="360.32" dy="1.2em" class="o">Compliance</tspan></text></a><a target="_blank" href="https://docs.microsoft.com/microsoft-365/compliance/manage-legal-investigations"><rect x="464" y="432" width="96" height="80" rx="8" ry="8" class="u"/><text x="478.55" y="467.8" class="v">Advanced <tspan x="474.64" dy="1.2em" class="o">eDiscovery</tspan></text></a><a target="_blank" href="https://docs.microsoft.com/microsoft-365/compliance/advanced-audit"><rect x="352" y="432" width="96" height="80" rx="8" ry="8" class="u"/><text x="366.55" y="467.8" class="v">Advanced <tspan x="382.12" dy="1.2em" class="o">Audit</tspan></text></a><a target="_blank" href="https://docs.microsoft.com/office365/servicedescriptions/office-365-advanced-threat-protection-service-description#real-time-reports"><rect x="592" y="864" width="288" height="32" rx="8" ry="8" class="u"/><text x="674.15" y="884.2" class="v">Real-Time Reports</text></a><a target="_blank" href="https://docs.microsoft.com/microsoft-365/compliance/manage-information-governance"><rect x="352" y="624" width="96" height="80" rx="8" ry="8" class="u"/><text x="361.5" y="659.8" class="v">Information <tspan x="359.54" dy="1.2em" class="o">Governance</tspan></text></a><a target="_blank" href="https://docs.microsoft.com/microsoft-365/security/" transform="translate(-1120,1136) rotate(-90)"><rect y="1232" width="368" height="48" rx="8" ry="8" class="bb"/><text x="74.96" y="1261.4" class="bc">Microsoft 365 F5 Security</text></a><a target="_blank" href="https://docs.microsoft.com/microsoft-365/compliance/privileged-access-management-solution-overview"><rect x="464" y="624" width="96" height="80" rx="8" ry="8" class="u"/><text x="478.54" y="651.4" class="v">Privileged <tspan x="487.48" dy="1.2em" class="o">Access </tspan><tspan x="469.21" dy="1.2em" class="o">Management</tspan></text></a><a target="_blank" href="https://docs.microsoft.com/microsoft-365/compliance/" transform="translate(-1120,736) rotate(-90)"><rect y="1232" width="432" height="48" rx="8" ry="8" class="bb"/><text x="91.47" y="1261.4" class="bc">Microsoft 365 F5 Compliance</text></a><a target="_blank" href="https://docs.microsoft.com/microsoft-365/compliance/apply-sensitivity-label-automatically"><rect x="688" y="624" width="96" height="80" rx="8" ry="8" class="u"/><text x="696.63" y="652.3" class="w">Rules-Based <tspan x="693.74" dy="1.2em" class="o">Classification</tspan><tspan x="700.6" dy="1.2em" class="o">(Office 365)</tspan></text></a><a target="_blank" href="https://docs.microsoft.com/azure/information-protection/deploy-aip-scanner"><rect x="1088" y="624" width="96" height="80" rx="8" ry="8" class="z"/><text x="1096.63" y="644.5" class="w">Rules-Based <tspan x="1093.74" dy="1.2em" class="o">Classification </tspan><tspan x="1096.64" dy="1.2em" class="o">(AIP Client &amp; </tspan><tspan x="1108.18" dy="1.2em" class="o">Scanner)</tspan></text></a><a target="_blank" href="https://docs.microsoft.com/microsoft-365/security/" transform="translate(896,1136) rotate(-90)"><rect y="1232" width="368" height="48" rx="8" ry="8" class="bb"/><text x="74.96" y="1261.4" class="bc">Microsoft 365 F5 Security</text></a><a target="_blank" href="https://docs.microsoft.com/microsoft-365/compliance/" transform="translate(896,736) rotate(-90)"><rect y="1232" width="432" height="48" rx="8" ry="8" class="bb"/><text x="91.47" y="1261.4" class="bc">Microsoft 365 F5 Compliance</text></a><path d="M0 1280 L96 1280" class="bd" transform="translate(2304,704) rotate(90)"/><a target="_blank" href="https://docs.microsoft.com/office365/servicedescriptions/exchange-online-archiving-service-description/exchange-online-archiving-service-description"><rect x="464" y="336" width="96" height="80" rx="8" ry="8" class="be"/><text x="478.93" y="363.4" class="v">Exchange <tspan x="490.22" dy="1.2em" class="o">Online </tspan><tspan x="479.72" dy="1.2em" class="o">Archiving</tspan></text></a><a target="_blank" href="https://docs.microsoft.com/office365/securitycompliance/data-loss-prevention-policies"><rect x="352" y="336" width="96" height="80" rx="8" ry="8" class="be"/><text x="366.55" y="371.8" class="v">Data Loss <tspan x="363.82" dy="1.2em" class="o">Prevention</tspan></text></a><a target="_blank" href="https://docs.microsoft.com/microsoft-365/compliance/create-retention-policies"><rect x="576" y="336" width="96" height="80" rx="8" ry="8" class="be"/><text x="591.72" y="371.8" class="v">Retention <tspan x="597.54" dy="1.2em" class="o">Policies</tspan></text></a><rect x="1504" y="784" width="576" height="240" rx="8" ry="8" class="bf"/><a target="_blank" href="https://docs.microsoft.com/microsoft-365/security/defender-endpoint/microsoft-defender-endpoint"><rect x="1504" y="976" width="576" height="48" rx="8" ry="8" class="p"/><text x="1634.11" y="1004.2" class="x">Microsoft Defender for Endpoint Plan 2 Step-up</text></a><a target="_blank" href="https://docs.microsoft.com/windows/security/threat-protection/windows-defender-atp/automated-investigations-windows-defender-advanced-threat-protection"><rect x="1632" y="800" width="96" height="80" rx="8" ry="8" class="bg"/><text x="1643.45" y="827.4" class="v">Automated <tspan x="1636.83" dy="1.2em" class="o">Investigation </tspan><tspan x="1639.55" dy="1.2em" class="o">&amp; Response</tspan></text></a><a target="_blank" href="https://docs.microsoft.com/windows/security/threat-protection/windows-defender-atp/overview-hunting-windows-defender-advanced-threat-protection"><rect x="1520" y="800" width="96" height="80" rx="8" ry="8" class="bg"/><text x="1534.55" y="835.8" class="v">Advanced <tspan x="1541.57" dy="1.2em" class="o">Hunting</tspan></text></a><a target="_blank" href="https://docs.microsoft.com/windows/security/threat-protection/windows-defender-atp/overview-endpoint-detection-response"><rect x="1744" y="800" width="96" height="80" rx="8" ry="8" class="bg"/><text x="1761.68" y="827.4" class="v">Endpoint <tspan x="1753.11" dy="1.2em" class="o">Detection &amp; </tspan><tspan x="1758.55" dy="1.2em" class="o">Response</tspan></text></a><a target="_blank" href="https://docs.microsoft.com/windows/security/threat-protection/windows-defender-atp/microsoft-threat-experts"><rect x="1968" y="800" width="96" height="80" rx="8" ry="8" class="bg"/><text x="1984.5" y="827.4" class="v">Microsoft <tspan x="1994.61" dy="1.2em" class="o">Threat </tspan><tspan x="1990.32" dy="1.2em" class="o">Experts</tspan></text></a><a target="_blank" href="https://docs.microsoft.com/windows/security/threat-protection/microsoft-defender-atp/evaluation-lab"><rect x="1856" y="800" width="96" height="80" rx="8" ry="8" class="bg"/><text x="1868.6" y="835.8" class="v">Evaluation <tspan x="1891.56" dy="1.2em" class="o">Lab</tspan></text></a><a target="_blank" href="https://www.microsoft.com/security/blog/2019/01/17/windows-defender-atp-integrates-with-microsoft-information-protection-to-discover-protect-and-monitor-sensitive-data-on-windows-devices/"><rect x="1520" y="896" width="96" height="80" rx="8" ry="8" class="bg"/><text x="1555.56" y="931.8" class="v">MIP <tspan x="1531.83" dy="1.2em" class="o">Integration</tspan></text></a><a target="_blank" href="https://docs.microsoft.com/windows/security/threat-protection/microsoft-defender-atp/next-gen-threat-and-vuln-mgt"><rect x="1744" y="896" width="96" height="80" rx="8" ry="8" class="bg"/><text x="1763.61" y="923.4" class="v">Threat &amp; <tspan x="1749.99" dy="1.2em" class="o">Vulnerability </tspan><tspan x="1749.21" dy="1.2em" class="o">Management</tspan></text></a><a target="_blank" href="https://docs.microsoft.com/windows/security/threat-protection/windows-defender-atp/threat-analytics"><rect x="1632" y="896" width="96" height="80" rx="8" ry="8" class="bg"/><text x="1658.61" y="931.8" class="v">Threat <tspan x="1648.88" dy="1.2em" class="o">Analytics</tspan></text></a><a target="_blank" href="https://docs.microsoft.com/microsoft-365/security/defender-endpoint/data-storage-privacy#how-long-will-microsoft-store-my-data-what-is-microsofts-data-retention-policy"><rect x="1856" y="896" width="96" height="80" rx="8" ry="8" class="bg"/><text x="1872.89" y="923.4" class="v">6-Months <tspan x="1866.65" dy="1.2em" class="o">Searchable </tspan><tspan x="1888.83" dy="1.2em" class="o">Data</tspan></text></a></svg>