<svg xmlns="http://www.w3.org/2000/svg" width="944" height="1024" viewBox="0 0 944 1024" class="a"><style>
.b {fill:#a5a5a5;fill-opacity:0.2;stroke:#d04a00;stroke-linecap:round;stroke-linejoin:round;stroke-width:2.25}
.c {fill:#a5a5a5;fill-opacity:0.2;stroke:#e82200;stroke-dasharray:15.75,11.25;stroke-linecap:round;stroke-linejoin:round;stroke-width:2.25}
.d {fill:#d04a00;stroke:#d04a00;stroke-linecap:round;stroke-linejoin:round;stroke-width:2.25}
.e {fill:#ffffff;font-family:Arial;font-size:1.66667em;font-weight:bold}
.f {fill:#e82200;stroke:#e82200;stroke-linecap:round;stroke-linejoin:round;stroke-width:2.25}
.g {fill:#d04a00;stroke:none;stroke-linecap:round;stroke-linejoin:round;stroke-width:0.24}
.h {fill:#ffffff;font-family:Arial;font-size:1.16666em;font-weight:bold}
.i {font-size:1em}
.j {fill:#ffffff;font-family:Arial;font-size:1.08334em;font-weight:bold}
.k {font-size:0.928588em}
.l {fill:#e82200;stroke:none;stroke-linecap:round;stroke-linejoin:round;stroke-width:2.25}
.m {fill:none;stroke:none;stroke-linecap:round;stroke-linejoin:round;stroke-width:1}
.n {fill:#000000;font-family:Arial;font-size:1.16666em;font-weight:bold}
.o {fill:#e82200;stroke:none;stroke-linecap:round;stroke-linejoin:round;stroke-width:1}
.a {fill:none;fill-rule:evenodd;font-size:12px;overflow:visible;stroke-linecap:square;stroke-miterlimit:3}
</style><rect x="16" y="16" width="912" height="992" rx="8" ry="8" class="b"/><rect x="48" y="352" width="784" height="624" rx="8" ry="8" class="c"/><a target="_blank" href="https://docs.microsoft.com/office365/enterprise/" transform="translate(-96,1008) rotate(-90)"><rect y="960" width="992" height="64" rx="8" ry="8" class="d"/><text x="432.64" y="998" class="e">Office 365 A5</text></a><a target="_blank" href="https://docs.microsoft.com/office365/enterprise/" transform="translate(-912,975.2) rotate(-90)"><rect y="960" width="624" height="64" rx="8" ry="8" class="f"/><text x="248.64" y="998" class="e">Office 365 A3</text></a><a target="_blank" href="https://docs.microsoft.com/MicrosoftTeams/what-is-phone-system-in-office-365"><rect x="144" y="240" width="96" height="80" rx="8" ry="8" class="g"/><text x="170.61" y="275.8" class="h">Phone <tspan x="167.1" dy="1.2em" class="i">System</tspan></text></a><a target="_blank" href="https://docs.microsoft.com/microsoftteams/audio-conferencing-in-office-365"><rect x="480" y="48" width="96" height="80" rx="8" ry="8" class="g"/><text x="509.59" y="76.3" class="j">Audio <tspan x="486.11" dy="1.2em" class="i">Conferencing </tspan><tspan x="512.12" dy="1.2em" class="i">(Full)</tspan></text></a><a target="_blank" href="https://docs.microsoft.com/power-bi/service-get-started"><rect x="256" y="240" width="96" height="80" rx="8" ry="8" class="g"/><text x="260.43" y="284.2" class="h">Power BI Pro</text></a><a target="_blank" href="https://support.office.com/article/36f9cdd1-e64c-421b-a7e4-4a54d16440a2"><rect x="144" y="144" width="96" height="80" rx="8" ry="8" class="g"/><text x="159.33" y="179.8" class="h">Customer <tspan x="163.22" dy="1.2em" class="i">Lockbox</tspan></text></a><a target="_blank" href="https://support.office.com/article/f2cd475a-e592-46cf-80a3-1bfb0fa17697"><rect x="704" y="48" width="96" height="80" rx="8" ry="8" class="g"/><text x="719.33" y="83.8" class="h">Customer <tspan x="739.16" dy="1.2em" class="i">Key</tspan></text></a><a target="_blank" href="https://docs.microsoft.com/microsoft-365/compliance/manage-legal-investigations"><rect x="256" y="48" width="96" height="80" rx="8" ry="8" class="g"/><text x="270.55" y="83.8" class="h">Advanced <tspan x="266.64" dy="1.2em" class="i">eDiscovery</tspan></text></a><a target="_blank" href="https://docs.microsoft.com/microsoft-365/compliance/privileged-access-management-solution-overview"><rect x="368" y="240" width="96" height="80" rx="8" ry="8" class="g"/><text x="382.54" y="267.4" class="h">Privileged <tspan x="391.48" dy="1.2em" class="i">Access </tspan><tspan x="373.21" dy="1.2em" class="i">Management</tspan></text></a><a target="_blank" href="https://docs.microsoft.com/office365/securitycompliance/data-loss-prevention-policies#policy-evaluation-in-microsoft-teams"><rect x="704" y="240" width="96" height="80" rx="8" ry="8" class="g"/><text x="729.82" y="267.4" class="h">Teams<tspan x="718.55" dy="1.2em" class="i">Data Loss </tspan><tspan x="715.82" dy="1.2em" class="i">Prevention</tspan></text></a><a target="_blank" href="https://docs.microsoft.com/microsoft-365/compliance/ome-advanced-message-encryption"><rect x="368" y="48" width="96" height="80" rx="8" ry="8" class="g"/><text x="382.55" y="75.4" class="h">Advanced <tspan x="386.43" dy="1.2em" class="i">Message </tspan><tspan x="379.44" dy="1.2em" class="i">Encryption</tspan></text></a><a target="_blank" href="https://docs.microsoft.com/microsoft-365/compliance/information-barriers"><rect x="368" y="144" width="96" height="80" rx="8" ry="8" class="g"/><text x="377.5" y="179.8" class="h">Information <tspan x="389.15" dy="1.2em" class="i">Barriers</tspan></text></a><a target="_blank" href="https://docs.microsoft.com/office365/servicedescriptions/mya-service-description"><rect x="704" y="144" width="96" height="80" rx="8" ry="8" class="g"/><text x="711.15" y="179.8" class="h">MyAnalytics <tspan x="736.12" dy="1.292em" class="k">(Full)</tspan></text></a><a target="_blank" href="https://docs.microsoft.com/microsoft-365/compliance/communication-compliance"><rect x="592" y="48" width="96" height="80" rx="8" ry="8" class="g"/><text x="618.22" y="83.8" class="h">Comm <tspan x="600.32" dy="1.2em" class="i">Compliance</tspan></text></a><a target="_blank" href="https://docs.microsoft.com/microsoft-365/compliance/manage-information-governance"><rect x="480" y="144" width="96" height="80" rx="8" ry="8" class="g"/><text x="489.5" y="179.8" class="h">Information <tspan x="487.54" dy="1.2em" class="i">Governance</tspan></text></a><a target="_blank" href="https://docs.microsoft.com/microsoft-365/compliance/records-management"><rect x="480" y="240" width="96" height="80" rx="8" ry="8" class="g"/><text x="499.99" y="275.8" class="h">Records <tspan x="485.21" dy="1.2em" class="i">Management</tspan></text></a><a target="_blank" href="https://docs.microsoft.com/microsoft-365/compliance/advanced-audit"><rect x="144" y="48" width="96" height="80" rx="8" ry="8" class="g"/><text x="158.55" y="83.8" class="h">Advanced <tspan x="174.12" dy="1.2em" class="i">Audit</tspan></text></a><a target="_blank" href="https://docs.microsoft.com/microsoft-365/compliance/double-key-encryption"><rect x="256" y="144" width="96" height="80" rx="8" ry="8" class="g"/><text x="265.49" y="179.8" class="h">Double Key <tspan x="267.44" dy="1.2em" class="i">Encryption</tspan></text></a><a target="_blank" href="https://docs.microsoft.com/office365/servicedescriptions/office-365-advanced-threat-protection-service-description#feature-availability-across-advanced-threat-protection-atp-plans"><rect x="592" y="144" width="96" height="80" rx="8" ry="8" class="g"/><text x="608.5" y="163" class="h">Microsoft <tspan x="598.38" dy="1.2em" class="i">Defender for </tspan><tspan x="606.54" dy="1.2em" class="i">Office 365 </tspan><tspan x="619.38" dy="1.2em" class="i">Plan 2</tspan></text></a><a target="_blank" href="https://docs.microsoft.com/office365/servicedescriptions/exchange-online-service-description/exchange-online-service-description#feature-availability-across-exchange-online-standalone-plans"><rect x="256" y="480" width="96" height="80" rx="8" ry="8" class="l"/><text x="270.93" y="507.4" class="h">Exchange <tspan x="282.22" dy="1.2em" class="i">Online </tspan><tspan x="283.38" dy="1.2em" class="i">Plan 2</tspan></text></a><a target="_blank" href="https://docs.microsoft.com/cloud-app-security/editions-cloud-app-security-o365"><rect x="368" y="672" width="96" height="80" rx="8" ry="8" class="l"/><text x="382.54" y="699.4" class="h">Office 365 <tspan x="380.62" dy="1.2em" class="i">Cloud App </tspan><tspan x="388.38" dy="1.2em" class="i">Security</tspan></text></a><a target="_blank" href="https://docs.microsoft.com/microsoft-365/bookings/bookings-overview"><rect x="480" y="384" width="96" height="80" rx="8" ry="8" class="l"/><text x="496.11" y="428.2" class="h">Bookings</text></a><a target="_blank" href="https://docs.microsoft.com/microsoftteams/teams-live-events/what-are-teams-live-events"><rect x="144" y="576" width="96" height="80" rx="8" ry="8" class="l"/><text x="153.09" y="611.8" class="h">Live Events <tspan x="153.49" dy="1.2em" class="i">&amp; Webinars</tspan></text></a><a target="_blank" href="https://www.microsoft.com/microsoft-365/business/microsoft-365-apps-for-enterprise-product"><rect x="256" y="576" width="96" height="80" rx="8" ry="8" class="l"/><text x="272.5" y="603.4" class="h">Microsoft <tspan x="261.6" dy="1.2em" class="i">365 Apps for </tspan><tspan x="270.17" dy="1.2em" class="i">Education</tspan></text></a><a target="_blank" href="https://docs.microsoft.com/powerapps/teams/overview-data-platform"><rect x="368" y="576" width="96" height="80" rx="8" ry="8" class="l"/><text x="384.5" y="603.4" class="h">Microsoft <tspan x="382.53" dy="1.2em" class="i">Dataverse </tspan><tspan x="382.55" dy="1.2em" class="i">for Teams</tspan></text></a><a target="_blank" href="https://docs.microsoft.com/sharepoint/introduction"><rect x="368" y="864" width="96" height="80" rx="8" ry="8" class="l"/><text x="379.05" y="891.4" class="h">SharePoint <tspan x="394.22" dy="1.2em" class="i">Online </tspan><tspan x="395.38" dy="1.2em" class="i">Plan 2</tspan></text></a><a target="_blank" href="https://products.office.com/yammer/yammer-overview"><rect x="704" y="864" width="96" height="80" rx="8" ry="8" class="l"/><text x="724.37" y="899.8" class="h">Yammer <tspan x="718.93" dy="1.2em" class="i">Academic</tspan></text></a><a target="_blank" href="https://support.office.com/sway"><rect x="592" y="864" width="96" height="80" rx="8" ry="8" class="l"/><text x="622.1" y="908.2" class="h">Sway</text></a><a target="_blank" href="https://www.microsoft.com/microsoft-365/exchange/exchange-email-security-spam-protection"><rect x="368" y="480" width="96" height="80" rx="8" ry="8" class="l"/><text x="382.93" y="507.4" class="h">Exchange <tspan x="394.22" dy="1.2em" class="i">Online </tspan><tspan x="381.39" dy="1.2em" class="i">Protection</tspan></text></a><a target="_blank" href="https://products.office.com/microsoft-teams/"><rect x="704" y="576" width="96" height="80" rx="8" ry="8" class="l"/><text x="720.5" y="611.8" class="h">Microsoft <tspan x="729.82" dy="1.2em" class="i">Teams</tspan></text></a><a target="_blank" href="https://docs.microsoft.com/office365/servicedescriptions/onedrive-for-business-service-description"><rect x="704" y="672" width="96" height="80" rx="8" ry="8" class="l"/><text x="709.6" y="699.4" class="h">OneDrive for <tspan x="720.88" dy="1.2em" class="i">Business </tspan><tspan x="731.38" dy="1.2em" class="i">Plan 2</tspan></text></a><a target="_blank" href="https://products.office.com/business/task-management-software"><rect x="256" y="768" width="96" height="80" rx="8" ry="8" class="l"/><text x="278.32" y="812.2" class="h">Planner</text></a><a target="_blank" href="https://docs.microsoft.com/stream/"><rect x="480" y="864" width="96" height="80" rx="8" ry="8" class="l"/><text x="492.99" y="899.8" class="h">Stream for <tspan x="494.54" dy="1.2em" class="i">Office 365</tspan></text></a><a target="_blank" href="https://powerapps.microsoft.com/"><rect x="480" y="768" width="96" height="80" rx="8" ry="8" class="l"/><text x="487.55" y="795.4" class="h">Power Apps<tspan x="518.67" dy="1.2em" class="i">for </tspan><tspan x="494.54" dy="1.2em" class="i">Office 365</tspan></text></a><a target="_blank" href="https://support.microsoft.com/office/1315665a-c6af-4409-a28d-49f8916878ca"><rect x="704" y="384" width="96" height="80" rx="8" ry="8" class="l"/><text x="733.32" y="428.2" class="h">Delve</text></a><a target="_blank" href="https://docs.microsoft.com/office365/securitycompliance/data-loss-prevention-policies"><rect x="592" y="384" width="96" height="80" rx="8" ry="8" class="l"/><text x="606.55" y="419.8" class="h">Data Loss <tspan x="603.82" dy="1.2em" class="i">Prevention</tspan></text></a><a target="_blank" href="https://sds.microsoft.com/"><rect x="256" y="864" width="96" height="80" rx="8" ry="8" class="l"/><text x="263.55" y="899.8" class="h">School Data <tspan x="287.27" dy="1.2em" class="i">Sync</tspan></text></a><a target="_blank" href="https://support.office.com/forms"><rect x="480" y="576" width="96" height="80" rx="8" ry="8" class="l"/><text x="496.5" y="611.8" class="h">Microsoft <tspan x="506.61" dy="1.2em" class="i">Forms</tspan></text></a><a target="_blank" href="https://www.onenote.com/classnotebook"><rect x="144" y="768" width="96" height="80" rx="8" ry="8" class="l"/><text x="162.83" y="795.4" class="h">OneNote <tspan x="173.32" dy="1.2em" class="i">Class </tspan><tspan x="159.72" dy="1.2em" class="i">Notebook</tspan></text></a><a target="_blank" href="https://www.microsoft.com/en-us/microsoft-365/blog/2016/06/20/professional-learning-community-groups-in-office-365-education/"><rect x="368" y="768" width="96" height="80" rx="8" ry="8" class="l"/><text x="402" y="803.8" class="h">PLC <tspan x="391.11" dy="1.2em" class="i">Groups</tspan></text></a><a target="_blank" href="https://powerautomate.microsoft.com/"><rect x="592" y="768" width="96" height="80" rx="8" ry="8" class="l"/><text x="618.99" y="795.4" class="h">Power <tspan x="596.45" dy="1.2em" class="i">Automate for</tspan><tspan x="606.54" dy="1.2em" class="i">Office 365</tspan></text></a><a target="_blank" href="https://docs.microsoft.com/office365/securitycompliance/search-the-audit-log-in-security-and-compliance"><rect x="144" y="384" width="96" height="80" rx="8" ry="8" class="l"/><text x="174.12" y="411.4" class="h">Audit <tspan x="157.4" dy="1.2em" class="i">Logging &amp; </tspan><tspan x="165.56" dy="1.2em" class="i">Alerting</tspan></text></a><a target="_blank" href="https://support.microsoft.com/office/d236aef8-fcdf-4b5e-b5d7-7f157461e920"><rect x="256" y="672" width="96" height="80" rx="8" ry="8" class="l"/><text x="272.5" y="707.8" class="h">Microsoft <tspan x="265.5" dy="1.2em" class="i">Whiteboard</tspan></text></a><a target="_blank" href="https://www.microsoft.com/microsoft-365/microsoft-to-do-list-app"><rect x="144" y="672" width="96" height="80" rx="8" ry="8" class="l"/><text x="160.5" y="707.8" class="h">Microsoft <tspan x="171.79" dy="1.2em" class="i">To</tspan>-Do</text></a><a target="_blank" href="https://products.office.com/mobile/office"><rect x="592" y="672" width="96" height="80" rx="8" ry="8" class="l"/><text x="620.16" y="707.8" class="h">Office <tspan x="598.39" dy="1.2em" class="i">Mobile Apps</tspan></text></a><a target="_blank" href="https://docs.microsoft.com/office365/servicedescriptions/office-online-service-description/office-online-service-description"><rect x="480" y="672" width="96" height="80" rx="8" ry="8" class="l"/><text x="508.16" y="699.4" class="h">Office<tspan x="489.5" dy="1.2em" class="i">for the Web</tspan><tspan x="492.61" dy="1.2em" class="i">(incl Visio)</tspan></text></a><a target="_blank" href="https://docs.microsoft.com/microsoft-365/compliance/retention"><rect x="144" y="864" width="96" height="80" rx="8" ry="8" class="l"/><text x="159.72" y="891.4" class="h">Retention <tspan x="162.82" dy="1.2em" class="i">Labels &amp; </tspan><tspan x="165.54" dy="1.2em" class="i">Policies</tspan></text></a><a target="_blank" href="https://docs.microsoft.com/office365/securitycompliance/ediscovery-cases"><rect x="144" y="480" width="96" height="80" rx="8" ry="8" class="l"/><text x="154.64" y="524.2" class="h">eDiscovery</text></a><a target="_blank" href="https://www.microsoft.com/microsoft-365/microsoft-lists"><rect x="592" y="576" width="96" height="80" rx="8" ry="8" class="l"/><text x="608.5" y="611.8" class="h">Microsoft <tspan x="623.66" dy="1.2em" class="i">Lists</tspan></text></a><a target="_blank" href="https://docs.microsoft.com/power-virtual-agents/teams/fundamentals-what-is-power-virtual-agents-teams"><rect x="704" y="768" width="96" height="80" rx="8" ry="8" class="l"/><text x="710.46" y="796.3" class="j">Power Virtual <tspan x="719.5" dy="1.2em" class="i">Agents for </tspan><tspan x="731.4" dy="1.2em" class="i">Teams</tspan></text></a><a target="_blank" href="https://products.office.com/en/business/microsoft-kaizala"><rect x="704" y="480" width="96" height="80" rx="8" ry="8" class="l"/><text x="714.26" y="515.8" class="h">Kaizala Pro <tspan x="725.28" dy="1.292em" class="k">(retiring)</tspan></text></a><a target="_blank" href="https://docs.microsoft.com/microsoft-365/compliance/apply-sensitivity-label-automatically"><rect x="592" y="240" width="96" height="80" rx="8" ry="8" class="g"/><text x="600.63" y="268.3" class="j">Rules-Based <tspan x="597.74" dy="1.2em" class="i">Classification</tspan><tspan x="604.6" dy="1.2em" class="i">(Office 365)</tspan></text></a><g><rect x="16" y="16" width="848" height="32" rx="8" ry="8" class="m"/><text x="34.17" y="36.2" class="n">Education</text></g><a target="_blank" href="https://docs.microsoft.com/microsoft-365/admin/basic-mobility-security/capabilities"><rect x="368" y="384" width="96" height="80" rx="8" ry="8" class="l"/><text x="397.32" y="411.4" class="h">Basic <tspan x="382.56" dy="1.2em" class="i">Mobility &amp; </tspan><tspan x="388.38" dy="1.2em" class="i">Security</tspan></text></a><a target="_blank" href="https://azure.microsoft.com/pricing/details/active-directory/"><rect x="256" y="384" width="96" height="80" rx="8" ry="8" class="l"/><text x="261.22" y="419.8" class="h">Azure AD for <tspan x="270.54" dy="1.2em" class="i">Office 365</tspan></text></a><a target="_blank" href="https://products.office.com/business/myanalytics-personal-analytics"><rect x="592" y="480" width="96" height="80" rx="8" ry="8" class="o"/><text x="603.05" y="515.8" class="h">Insights by <tspan x="599.15" dy="1.2em" class="i">MyAnalytics</tspan></text></a><a target="_blank" href="https://docs.microsoft.com/microsoft-365/compliance/sensitivity-labels"><rect x="480" y="480" width="96" height="80" rx="8" ry="8" class="o"/><text x="489.5" y="507.4" class="h">Information <tspan x="493.39" dy="1.2em" class="i">Protection</tspan><tspan x="499.21" dy="1.2em" class="i">for M365</tspan></text></a></svg>