<svg xmlns="http://www.w3.org/2000/svg" width="976" height="624" viewBox="0 0 976 624" class="a"><style>
.b {fill:#a5a5a5;fill-opacity:0.2;stroke:#e82200;stroke-linecap:round;stroke-linejoin:round;stroke-width:2.25}
.c {fill:#e82200;stroke:#e82200;stroke-linecap:round;stroke-linejoin:round;stroke-width:2.25}
.d {fill:#ffffff;font-family:Arial;font-size:1.67em;font-weight:bold}
.e {fill:#e82200;stroke:none;stroke-linecap:round;stroke-linejoin:round;stroke-width:1}
.f {fill:#ffffff;font-family:Arial;font-size:1.17em;font-weight:bold}
.g {font-size:1em}
.h {font-size:0.93em}
.i {fill:#ffffff;font-family:Arial;font-size:1.08em;font-weight:bold}
.j {fill:none;stroke:none;stroke-linecap:round;stroke-linejoin:round;stroke-width:1}
.k {fill:#000000;font-family:Arial;font-size:1.17em;font-weight:bold}
.a {fill:none;fill-rule:evenodd;font-size:12px;overflow:visible;stroke-linecap:square;stroke-miterlimit:3}
</style><rect x="16" y="16" width="944" height="592" rx="8" ry="8" class="b"/><a target="_blank" href="https://docs.microsoft.com/office365/enterprise/"><rect x="16" y="16" width="944" height="64" rx="8" ry="8" class="c"/><text x="425.19" y="54" class="d">Office 365 E3</text></a><a target="_blank" href="https://www.microsoft.com/microsoft-365/business/microsoft-365-apps-for-enterprise-product"><rect x="48" y="304" width="96" height="80" rx="8" ry="8" class="e"/><text x="64.5" y="331.4" class="f">Microsoft <tspan x="53.6" dy="1.2em" class="g">365 Apps for </tspan><tspan x="61.38" dy="1.2em" class="g">Enterprise</tspan></text></a><a target="_blank" href="https://products.office.com/business/task-management-software"><rect x="384" y="400" width="96" height="80" rx="8" ry="8" class="e"/><text x="406.32" y="444.2" class="f">Planner</text></a><a target="_blank" href="https://docs.microsoft.com/microsoftteams/teams-live-events/what-are-teams-live-events"><rect x="832" y="208" width="96" height="80" rx="8" ry="8" class="e"/><text x="841.09" y="243.8" class="f">Live Events <tspan x="841.49" dy="1.2em" class="g">&amp; Webinars</tspan></text></a><a target="_blank" href="https://docs.microsoft.com/viva/insights/personal/overview/plans-environments"><rect x="608" y="208" width="96" height="80" rx="8" ry="8" class="e"/><text x="619.05" y="243.8" class="f">Insights by <tspan x="615.15" dy="1.2em" class="g">MyAnalytics</tspan></text></a><a target="_blank" href="https://products.office.com/yammer/yammer-overview"><rect x="720" y="496" width="96" height="80" rx="8" ry="8" class="e"/><text x="740.37" y="531.8" class="f">Yammer <tspan x="733.38" dy="1.2em" class="g">Enterprise</tspan></text></a><a target="_blank" href="https://products.office.com/microsoft-teams/"><rect x="496" y="304" width="96" height="80" rx="8" ry="8" class="e"/><text x="512.5" y="339.8" class="f">Microsoft <tspan x="521.82" dy="1.2em" class="g">Teams</tspan></text></a><a target="_blank" href="https://docs.microsoft.com/stream/"><rect x="272" y="496" width="96" height="80" rx="8" ry="8" class="e"/><text x="284.99" y="531.8" class="f">Stream for <tspan x="286.54" dy="1.2em" class="g">Office 365</tspan></text></a><a target="_blank" href="https://docs.microsoft.com/sharepoint/introduction"><rect x="160" y="496" width="96" height="80" rx="8" ry="8" class="e"/><text x="171.05" y="523.4" class="f">SharePoint <tspan x="186.22" dy="1.2em" class="g">Online </tspan><tspan x="187.38" dy="1.2em" class="g">Plan 2</tspan></text></a><a target="_blank" href="https://docs.microsoft.com/office365/servicedescriptions/onedrive-for-business-service-description"><rect x="272" y="400" width="96" height="80" rx="8" ry="8" class="e"/><text x="277.6" y="427.4" class="f">OneDrive for <tspan x="288.88" dy="1.2em" class="g">Business </tspan><tspan x="299.38" dy="1.2em" class="g">Plan 2</tspan></text></a><a target="_blank" href="https://powerapps.microsoft.com/"><rect x="496" y="400" width="96" height="80" rx="8" ry="8" class="e"/><text x="503.55" y="427.4" class="f">Power Apps<tspan x="534.67" dy="1.2em" class="g">for </tspan><tspan x="510.54" dy="1.2em" class="g">Office 365</tspan></text></a><a target="_blank" href="https://support.office.com/sway"><rect x="384" y="496" width="96" height="80" rx="8" ry="8" class="e"/><text x="414.1" y="540.2" class="f">Sway</text></a><a target="_blank" href="https://support.office.com/forms"><rect x="272" y="304" width="96" height="80" rx="8" ry="8" class="e"/><text x="288.5" y="339.8" class="f">Microsoft <tspan x="298.61" dy="1.2em" class="g">Forms</tspan></text></a><a target="_blank" href="https://support.microsoft.com/office/1315665a-c6af-4409-a28d-49f8916878ca"><rect x="832" y="112" width="96" height="80" rx="8" ry="8" class="e"/><text x="861.32" y="156.2" class="f">Delve</text></a><a target="_blank" href="https://powerautomate.microsoft.com/"><rect x="608" y="400" width="96" height="80" rx="8" ry="8" class="e"/><text x="634.99" y="427.4" class="f">Power <tspan x="612.45" dy="1.2em" class="g">Automate for</tspan><tspan x="622.54" dy="1.2em" class="g">Office 365</tspan></text></a><a target="_blank" href="https://docs.microsoft.com/office365/securitycompliance/data-loss-prevention-policies"><rect x="720" y="112" width="96" height="80" rx="8" ry="8" class="e"/><text x="734.55" y="147.8" class="f">Data Loss <tspan x="731.82" dy="1.2em" class="g">Prevention</tspan></text></a><a target="_blank" href="https://docs.microsoft.com/microsoft-365/compliance/retention"><rect x="48" y="496" width="96" height="80" rx="8" ry="8" class="e"/><text x="63.72" y="523.4" class="f">Retention <tspan x="66.82" dy="1.2em" class="g">Labels &amp; </tspan><tspan x="69.54" dy="1.2em" class="g">Policies</tspan></text></a><a target="_blank" href="https://docs.microsoft.com/office365/servicedescriptions/exchange-online-protection-service-description/exchange-online-protection-service-description"><rect x="272" y="208" width="96" height="80" rx="8" ry="8" class="e"/><text x="286.93" y="235.4" class="f">Exchange <tspan x="298.22" dy="1.2em" class="g">Online </tspan><tspan x="285.39" dy="1.2em" class="g">Protection</tspan></text></a><a target="_blank" href="https://docs.microsoft.com/office365/securitycompliance/ediscovery-cases"><rect x="48" y="208" width="96" height="80" rx="8" ry="8" class="e"/><text x="58.64" y="252.2" class="f">eDiscovery</text></a><a target="_blank" href="https://products.office.com/en/business/microsoft-kaizala"><rect x="720" y="208" width="96" height="80" rx="8" ry="8" class="e"/><text x="730.26" y="243.8" class="f">Kaizala Pro <tspan x="741.28" dy="1.29em" class="h">(retiring)</tspan></text></a><a target="_blank" href="https://docs.microsoft.com/office365/servicedescriptions/exchange-online-service-description/exchange-online-service-description#feature-availability-across-exchange-online-standalone-plans"><rect x="160" y="208" width="96" height="80" rx="8" ry="8" class="e"/><text x="174.93" y="235.4" class="f">Exchange <tspan x="186.22" dy="1.2em" class="g">Online </tspan><tspan x="187.38" dy="1.2em" class="g">Plan 2</tspan></text></a><a target="_blank" href="https://docs.microsoft.com/powerapps/teams/overview-data-platform"><rect x="160" y="304" width="96" height="80" rx="8" ry="8" class="e"/><text x="176.5" y="331.4" class="f">Microsoft <tspan x="174.53" dy="1.2em" class="g">Dataverse </tspan><tspan x="174.55" dy="1.2em" class="g">for Teams</tspan></text></a><a target="_blank" href="https://www.microsoft.com/microsoft-365/microsoft-lists"><rect x="384" y="304" width="96" height="80" rx="8" ry="8" class="e"/><text x="400.5" y="339.8" class="f">Microsoft <tspan x="415.66" dy="1.2em" class="g">Lists</tspan></text></a><a target="_blank" href="https://docs.microsoft.com/microsoft-365/bookings/bookings-overview"><rect x="608" y="112" width="96" height="80" rx="8" ry="8" class="e"/><text x="624.11" y="156.2" class="f">Bookings</text></a><a target="_blank" href="https://www.microsoft.com/download/details.aspx?id=48734"><rect x="384" y="208" width="96" height="80" rx="8" ry="8" class="e"/><text x="404" y="243.8" class="f">InfoPath <tspan x="418.39" dy="1.2em" class="g">App</tspan></text></a><a target="_blank" href="https://docs.microsoft.com/office365/securitycompliance/search-the-audit-log-in-security-and-compliance"><rect x="272" y="112" width="96" height="80" rx="8" ry="8" class="e"/><text x="302.12" y="147.8" class="f">Audit <tspan x="292.4" dy="1.2em" class="g">Logging</tspan></text></a><a target="_blank" href="https://docs.microsoft.com/microsoft-365/compliance/alert-policies"><rect x="48" y="112" width="96" height="80" rx="8" ry="8" class="e"/><text x="80.05" y="147.8" class="f">Alert <tspan x="69.54" dy="1.2em" class="g">Policies</tspan></text></a><a target="_blank" href="https://support.microsoft.com/office/d236aef8-fcdf-4b5e-b5d7-7f157461e920"><rect x="720" y="304" width="96" height="80" rx="8" ry="8" class="e"/><text x="736.5" y="339.8" class="f">Microsoft <tspan x="729.5" dy="1.2em" class="g">Whiteboard</tspan></text></a><a target="_blank" href="https://www.microsoft.com/microsoft-365/microsoft-to-do-list-app"><rect x="608" y="304" width="96" height="80" rx="8" ry="8" class="e"/><text x="624.5" y="339.8" class="f">Microsoft <tspan x="635.79" dy="1.2em" class="g">To</tspan>-Do</text></a><a target="_blank" href="https://docs.microsoft.com/power-virtual-agents/teams/fundamentals-what-is-power-virtual-agents-teams"><rect x="720" y="400" width="96" height="80" rx="8" ry="8" class="e"/><text x="726.46" y="428.3" class="i">Power Virtual <tspan x="735.5" dy="1.2em" class="g">Agents for </tspan><tspan x="747.4" dy="1.2em" class="g">Teams</tspan></text></a><a target="_blank" href="https://products.office.com/mobile/office"><rect x="160" y="400" width="96" height="80" rx="8" ry="8" class="e"/><text x="188.16" y="435.8" class="f">Office <tspan x="166.39" dy="1.2em" class="g">Mobile Apps</tspan></text></a><a target="_blank" href="https://docs.microsoft.com/office365/servicedescriptions/office-online-service-description/office-online-service-description"><rect x="48" y="400" width="96" height="80" rx="8" ry="8" class="e"/><text x="76.16" y="427.4" class="f">Office<tspan x="57.5" dy="1.2em" class="g">for the Web</tspan><tspan x="60.61" dy="1.2em" class="g">(incl Visio)</tspan></text></a><a target="_blank" href="https://docs.microsoft.com/microsoft-365/admin/basic-mobility-security/capabilities"><rect x="496" y="112" width="96" height="80" rx="8" ry="8" class="e"/><text x="525.32" y="139.4" class="f">Basic <tspan x="510.56" dy="1.2em" class="g">Mobility &amp; </tspan><tspan x="516.38" dy="1.2em" class="g">Security</tspan></text></a><a target="_blank" href="https://azure.microsoft.com/pricing/details/active-directory/"><rect x="384" y="112" width="96" height="80" rx="8" ry="8" class="e"/><text x="389.22" y="147.8" class="f">Azure AD for <tspan x="398.54" dy="1.2em" class="g">Office 365</tspan></text></a><a target="_blank" href="https://docs.microsoft.com/microsoft-365/compliance/sensitivity-labels"><rect x="496" y="208" width="96" height="80" rx="8" ry="8" class="e"/><text x="505.5" y="235.4" class="f">Information <tspan x="509.39" dy="1.2em" class="g">Protection</tspan><tspan x="515.21" dy="1.2em" class="g">for M365</tspan></text></a><a target="_blank" href="https://docs.microsoft.com/microsoftteams/audio-conferencing-in-office-365"><rect x="160" y="112" width="96" height="80" rx="8" ry="8" class="e"/><text x="188.17" y="140.6" class="f">Audio <tspan x="166.11" dy="1.22em" class="h">Conferencing </tspan><tspan x="167.91" dy="1.2em" class="h">(Dial In Only)</tspan></text></a><a target="_blank" href="https://www.microsoft.com/microsoft-viva/connections"><rect x="496" y="496" width="96" height="80" rx="8" ry="8" class="e"/><text x="529.6" y="531.8" class="f">Viva <tspan x="501.61" dy="1.2em" class="g">Connections</tspan></text></a><a target="_blank" href="https://www.microsoft.com/microsoft-viva/learning"><rect x="608" y="496" width="96" height="80" rx="8" ry="8" class="e"/><text x="641.6" y="523.4" class="f">Viva <tspan x="626.44" dy="1.2em" class="g">Learning </tspan><tspan x="632.66" dy="1.2em" class="g">(Basic)</tspan></text></a><a target="_blank" href="https://docs.microsoft.com/microsoft-365/compliance/ome"><rect x="832" y="304" width="96" height="80" rx="8" ry="8" class="e"/><text x="846.54" y="331.4" class="f">Office 365 <tspan x="850.43" dy="1.2em" class="g">Message </tspan><tspan x="843.44" dy="1.2em" class="g">Encryption</tspan></text></a><a target="_blank" href="https://www.microsoft.com/licensing/terms/product/CALandMLEquivalencyLicenses/"><rect x="832" y="400" width="96" height="80" rx="8" ry="8" class="e"/><text x="839.55" y="435.8" class="f">Productivity <tspan x="841.87" dy="1.2em" class="g">Server CAL</tspan></text></a><g><rect x="16" y="576" width="944" height="32" rx="8" ry="8" class="j"/><text x="872.75" y="596.2" class="k">Enterprise</text></g></svg>