<svg xmlns="http://www.w3.org/2000/svg" width="1056" height="1234" viewBox="0 0 1056 1234" class="a"><style>
.b {fill:none;stroke:none;stroke-linecap:round;stroke-linejoin:round;stroke-width:1}
.c {fill:#0070c0;font-family:Arial;font-size:1.16666em;font-weight:bold}
.d {fill:#a5a5a5;fill-opacity:0.2;stroke:#d04a00;stroke-linecap:round;stroke-linejoin:round;stroke-width:2.25}
.e {fill:#a5a5a5;fill-opacity:0.2;stroke:#e82200;stroke-dasharray:15.75,11.25;stroke-linecap:round;stroke-linejoin:round;stroke-width:2.25}
.f {fill:#a5a5a5;fill-opacity:0.2;stroke:#c42500;stroke-dasharray:2.25,4.5;stroke-linecap:round;stroke-linejoin:round;stroke-width:2.25}
.g {fill:#d04a00;stroke:#d04a00;stroke-linecap:round;stroke-linejoin:round;stroke-width:2.25}
.h {fill:#ffffff;font-family:Arial;font-size:1.66667em;font-weight:bold}
.i {fill:#e82200;stroke:#e82200;stroke-linecap:round;stroke-linejoin:round;stroke-width:2.25}
.j {fill:#c42500;stroke:#c42500;stroke-linecap:round;stroke-linejoin:round;stroke-width:2.25}
.k {fill:#d04a00;stroke:none;stroke-linecap:round;stroke-linejoin:round;stroke-width:1}
.l {fill:#ffffff;font-family:Arial;font-size:1.16666em;font-weight:bold}
.m {font-size:1em}
.n {fill:#ffffff;font-family:Arial;font-size:1.08334em;font-weight:bold}
.o {font-size:0.928588em}
.p {fill:#c42500;stroke:none;stroke-linecap:round;stroke-linejoin:round;stroke-width:1}
.q {font-size:0.857157em}
.r {fill:#e82200;stroke:none;stroke-linecap:round;stroke-linejoin:round;stroke-width:1}
.s {fill:#606060;stroke:none;stroke-linecap:round;stroke-linejoin:round;stroke-width:1}
.t {fill:#000000;font-family:Arial;font-size:1.16666em;font-weight:bold}
.u {fill:#7f7f7f;font-family:Arial;font-size:4.00001em}
.v {fill:#cbcbcb;font-family:Arial;font-size:4.00001em}
.a {fill:none;fill-rule:evenodd;font-size:12px;overflow:visible;stroke-linecap:square;stroke-miterlimit:3}
</style><a target="_blank" href="https://docs.microsoft.com/office365/servicedescriptions/office-365-platform-service-description/office-365-us-government/office-365-us-government"><rect x="16" y="1186" width="1024" height="32" rx="8" ry="8" class="b"/><text x="119.15" y="1206.2" class="c">Not all features are available in GCC, GCC High, and DoD services. Refer to the service description for specific differences.</text></a><rect x="16" y="18" width="1024" height="1168" rx="8" ry="8" class="d"/><rect x="48" y="354" width="896" height="800" rx="8" ry="8" class="e"/><rect x="128" y="690" width="800" height="448" rx="8" ry="8" class="f"/><a target="_blank" href="https://docs.microsoft.com/office365/enterprise/" transform="translate(-194,1186) rotate(-90)"><rect y="1170" width="1168" height="64" rx="8" ry="8" class="g"/><text x="520.08" y="1208" class="h">Office 365 G5</text></a><a target="_blank" href="https://docs.microsoft.com/office365/enterprise/" transform="translate(-1122,1154) rotate(-90)"><rect y="1170" width="800" height="64" rx="8" ry="8" class="i"/><text x="336.08" y="1208" class="h">Office 365 G3</text></a><a target="_blank" href="https://docs.microsoft.com/office365/enterprise/"><rect x="128" y="1090" width="800" height="48" rx="8" ry="8" class="j"/><text x="443.52" y="1120" class="h">Office 365 Gov F3</text></a><a target="_blank" href="https://docs.microsoft.com/MicrosoftTeams/what-is-phone-system-in-office-365"><rect x="816" y="146" width="96" height="80" rx="8" ry="8" class="k"/><text x="842.61" y="181.8" class="l">Phone <tspan x="839.1" dy="1.2em" class="m">System</tspan></text></a><a target="_blank" href="https://docs.microsoft.com/microsoftteams/audio-conferencing-in-office-365"><rect x="480" y="50" width="96" height="80" rx="8" ry="8" class="k"/><text x="509.59" y="78.3" class="n">Audio <tspan x="486.11" dy="1.2em" class="m">Conferencing </tspan><tspan x="512.12" dy="1.2em" class="m">(Full)</tspan></text></a><a target="_blank" href="https://docs.microsoft.com/power-bi/service-get-started"><rect x="144" y="242" width="96" height="80" rx="8" ry="8" class="k"/><text x="148.43" y="286.2" class="l">Power BI Pro</text></a><a target="_blank" href="https://support.office.com/article/36f9cdd1-e64c-421b-a7e4-4a54d16440a2"><rect x="816" y="50" width="96" height="80" rx="8" ry="8" class="k"/><text x="831.33" y="85.8" class="l">Customer <tspan x="835.22" dy="1.2em" class="m">Lockbox</tspan></text></a><a target="_blank" href="https://support.office.com/article/f2cd475a-e592-46cf-80a3-1bfb0fa17697"><rect x="704" y="50" width="96" height="80" rx="8" ry="8" class="k"/><text x="719.33" y="85.8" class="l">Customer <tspan x="739.16" dy="1.2em" class="m">Key</tspan></text></a><a target="_blank" href="https://docs.microsoft.com/microsoft-365/compliance/manage-legal-investigations"><rect x="256" y="50" width="96" height="80" rx="8" ry="8" class="k"/><text x="270.55" y="85.8" class="l">Advanced <tspan x="266.64" dy="1.2em" class="m">eDiscovery</tspan></text></a><a target="_blank" href="https://docs.microsoft.com/microsoft-365/compliance/privileged-access-management-solution-overview"><rect x="256" y="242" width="96" height="80" rx="8" ry="8" class="k"/><text x="270.54" y="269.4" class="l">Privileged <tspan x="279.48" dy="1.2em" class="m">Access </tspan><tspan x="261.21" dy="1.2em" class="m">Management</tspan></text></a><a target="_blank" href="https://docs.microsoft.com/office365/securitycompliance/data-loss-prevention-policies#policy-evaluation-in-microsoft-teams"><rect x="592" y="242" width="96" height="80" rx="8" ry="8" class="k"/><text x="617.82" y="269.4" class="l">Teams<tspan x="606.55" dy="1.2em" class="m">Data Loss </tspan><tspan x="603.82" dy="1.2em" class="m">Prevention</tspan></text></a><a target="_blank" href="https://docs.microsoft.com/microsoft-365/compliance/ome-advanced-message-encryption"><rect x="368" y="50" width="96" height="80" rx="8" ry="8" class="k"/><text x="382.55" y="77.4" class="l">Advanced <tspan x="386.43" dy="1.2em" class="m">Message </tspan><tspan x="379.44" dy="1.2em" class="m">Encryption</tspan></text></a><a target="_blank" href="https://docs.microsoft.com/microsoft-365/compliance/information-barriers"><rect x="256" y="146" width="96" height="80" rx="8" ry="8" class="k"/><text x="265.5" y="181.8" class="l">Information <tspan x="277.15" dy="1.2em" class="m">Barriers</tspan></text></a><a target="_blank" href="https://docs.microsoft.com/office365/servicedescriptions/mya-service-description"><rect x="592" y="146" width="96" height="80" rx="8" ry="8" class="k"/><text x="599.15" y="181.8" class="l">MyAnalytics <tspan x="624.12" dy="1.292em" class="o">(Full)</tspan></text></a><a target="_blank" href="https://docs.microsoft.com/microsoft-365/compliance/communication-compliance"><rect x="592" y="50" width="96" height="80" rx="8" ry="8" class="k"/><text x="618.22" y="85.8" class="l">Comm <tspan x="600.32" dy="1.2em" class="m">Compliance</tspan></text></a><a target="_blank" href="https://docs.microsoft.com/cloud-app-security/editions-cloud-app-security-o365"><rect x="704" y="146" width="96" height="80" rx="8" ry="8" class="k"/><text x="718.54" y="173.4" class="l">Office 365 <tspan x="716.62" dy="1.2em" class="m">Cloud App </tspan><tspan x="724.38" dy="1.2em" class="m">Security</tspan></text></a><a target="_blank" href="https://docs.microsoft.com/microsoft-365/compliance/manage-information-governance"><rect x="368" y="146" width="96" height="80" rx="8" ry="8" class="k"/><text x="377.5" y="181.8" class="l">Information <tspan x="375.54" dy="1.2em" class="m">Governance</tspan></text></a><a target="_blank" href="https://docs.microsoft.com/microsoft-365/compliance/records-management"><rect x="368" y="242" width="96" height="80" rx="8" ry="8" class="k"/><text x="387.99" y="277.8" class="l">Records <tspan x="373.21" dy="1.2em" class="m">Management</tspan></text></a><a target="_blank" href="https://docs.microsoft.com/microsoft-365/compliance/advanced-audit"><rect x="144" y="50" width="96" height="80" rx="8" ry="8" class="k"/><text x="158.55" y="85.8" class="l">Advanced <tspan x="174.12" dy="1.2em" class="m">Audit</tspan></text></a><a target="_blank" href="https://docs.microsoft.com/microsoft-365/compliance/double-key-encryption"><rect x="144" y="146" width="96" height="80" rx="8" ry="8" class="k"/><text x="153.49" y="181.8" class="l">Double Key <tspan x="155.44" dy="1.2em" class="m">Encryption</tspan></text></a><a target="_blank" href="https://docs.microsoft.com/office365/servicedescriptions/office-365-advanced-threat-protection-service-description#feature-availability-across-advanced-threat-protection-atp-plans"><rect x="480" y="146" width="96" height="80" rx="8" ry="8" class="k"/><text x="496.5" y="165" class="l">Microsoft <tspan x="486.38" dy="1.2em" class="m">Defender for </tspan><tspan x="494.54" dy="1.2em" class="m">Office 365 </tspan><tspan x="507.38" dy="1.2em" class="m">Plan 2</tspan></text></a><a target="_blank" href="https://www.microsoft.com/microsoft-365/exchange/exchange-email-security-spam-protection"><rect x="816" y="706" width="96" height="80" rx="8" ry="8" class="p"/><text x="830.93" y="733.4" class="l">Exchange <tspan x="842.22" dy="1.2em" class="m">Online </tspan><tspan x="829.39" dy="1.2em" class="m">Protection</tspan></text></a><a target="_blank" href="https://products.office.com/microsoft-teams/"><rect x="592" y="802" width="96" height="80" rx="8" ry="8" class="p"/><text x="608.5" y="837.8" class="l">Microsoft <tspan x="617.82" dy="1.2em" class="m">Teams</tspan></text></a><a target="_blank" href="https://docs.microsoft.com/office365/servicedescriptions/exchange-online-service-description/exchange-online-service-description#feature-availability-across-exchange-online-standalone-plans"><rect x="704" y="706" width="96" height="80" rx="8" ry="8" class="p"/><text x="718.93" y="733.4" class="l">Exchange <tspan x="709.21" dy="1.2em" class="m">Online Kiosk</tspan><tspan x="732.5" dy="1.292em" class="o">(2 GB)</tspan></text></a><a target="_blank" href="https://docs.microsoft.com/office365/servicedescriptions/onedrive-for-business-service-description"><rect x="256" y="898" width="96" height="80" rx="8" ry="8" class="p"/><text x="261.6" y="925.4" class="l">OneDrive for <tspan x="272.88" dy="1.2em" class="m">Business </tspan><tspan x="284.5" dy="1.292em" class="o">(2 GB)</tspan></text></a><a target="_blank" href="https://powerautomate.microsoft.com/"><rect x="592" y="898" width="96" height="80" rx="8" ry="8" class="p"/><text x="618.99" y="925.4" class="l">Power <tspan x="607.72" dy="1.2em" class="m">Automate </tspan><tspan x="596.65" dy="1.4em" class="q">(2000 step/day)</tspan></text></a><a target="_blank" href="https://products.office.com/en/business/microsoft-kaizala"><rect x="144" y="802" width="96" height="80" rx="8" ry="8" class="p"/><text x="154.26" y="837.8" class="l">Kaizala Pro<tspan x="165.28" dy="1.292em" class="o">(retiring)</tspan></text></a><a target="_blank" href="https://powerapps.microsoft.com/"><rect x="480" y="898" width="96" height="80" rx="8" ry="8" class="p"/><text x="487.55" y="925.4" class="l">Power Apps<tspan x="518.67" dy="1.2em" class="m">for</tspan><tspan x="494.54" dy="1.2em" class="m">Office 365</tspan></text></a><a target="_blank" href="https://support.office.com/forms"><rect x="368" y="802" width="96" height="80" rx="8" ry="8" class="p"/><text x="384.5" y="837.8" class="l">Microsoft <tspan x="394.61" dy="1.2em" class="m">Forms</tspan></text></a><a target="_blank" href="https://products.office.com/yammer/yammer-overview"><rect x="368" y="994" width="96" height="80" rx="8" ry="8" class="p"/><text x="388.37" y="1021.4" class="l">Yammer <tspan x="381.38" dy="1.2em" class="m">Enterprise </tspan><tspan x="375.57" dy="1.292em" class="o">(GCC option)</tspan></text></a><a target="_blank" href="https://docs.microsoft.com/sharepoint/introduction"><rect x="816" y="898" width="96" height="80" rx="8" ry="8" class="p"/><text x="827.05" y="933.8" class="l">SharePoint <tspan x="821.21" dy="1.2em" class="m">Online Kiosk</tspan></text></a><a target="_blank" href="https://docs.microsoft.com/stream/"><rect x="144" y="994" width="96" height="80" rx="8" ry="8" class="p"/><text x="168.27" y="1029.8" class="l">Stream <tspan x="158.06" dy="1.292em" class="o">(Consume)</tspan></text></a><a target="_blank" href="https://products.office.com/business/task-management-software"><rect x="368" y="898" width="96" height="80" rx="8" ry="8" class="p"/><text x="390.32" y="942.2" class="l">Planner</text></a><a target="_blank" href="https://docs.microsoft.com/powerapps/teams/overview-data-platform"><rect x="256" y="802" width="96" height="80" rx="8" ry="8" class="p"/><text x="272.5" y="829.4" class="l">Microsoft <tspan x="270.53" dy="1.2em" class="m">Dataverse </tspan><tspan x="270.55" dy="1.2em" class="m">for Teams</tspan></text></a><a target="_blank" href="https://www.microsoft.com/microsoft-365/business/microsoft-365-apps-for-enterprise-product"><rect x="368" y="482" width="96" height="80" rx="8" ry="8" class="r"/><text x="384.5" y="509.4" class="l">Microsoft <tspan x="373.6" dy="1.2em" class="m">365 Apps for </tspan><tspan x="381.38" dy="1.2em" class="m">Enterprise</tspan></text></a><a target="_blank" href="https://docs.microsoft.com/microsoftteams/teams-live-events/what-are-teams-live-events"><rect x="256" y="482" width="96" height="80" rx="8" ry="8" class="r"/><text x="265.09" y="517.8" class="l">Live Events <tspan x="265.49" dy="1.2em" class="m">&amp; Webinars</tspan></text></a><a target="_blank" href="https://products.office.com/business/myanalytics-personal-analytics"><rect x="144" y="482" width="96" height="80" rx="8" ry="8" class="r"/><text x="155.05" y="517.8" class="l">Insights by <tspan x="151.15" dy="1.2em" class="m">MyAnalytics</tspan></text></a><a target="_blank" href="https://docs.microsoft.com/stream/"><rect x="144" y="578" width="96" height="80" rx="8" ry="8" class="r"/><text x="156.99" y="613.8" class="l">Stream for <tspan x="158.54" dy="1.2em" class="m">Office 365</tspan></text></a><a target="_blank" href="https://docs.microsoft.com/sharepoint/introduction"><rect x="816" y="482" width="96" height="80" rx="8" ry="8" class="r"/><text x="827.05" y="509.4" class="l">SharePoint <tspan x="842.22" dy="1.2em" class="m">Online </tspan><tspan x="843.38" dy="1.2em" class="m">Plan 2</tspan></text></a><a target="_blank" href="https://docs.microsoft.com/office365/servicedescriptions/onedrive-for-business-service-description"><rect x="480" y="482" width="96" height="80" rx="8" ry="8" class="r"/><text x="485.6" y="509.4" class="l">OneDrive for <tspan x="496.88" dy="1.2em" class="m">Business </tspan><tspan x="507.38" dy="1.2em" class="m">Plan 2</tspan></text></a><a target="_blank" href="https://support.microsoft.com/office/1315665a-c6af-4409-a28d-49f8916878ca"><rect x="368" y="386" width="96" height="80" rx="8" ry="8" class="r"/><text x="397.32" y="430.2" class="l">Delve</text></a><a target="_blank" href="https://powerautomate.microsoft.com/"><rect x="592" y="482" width="96" height="80" rx="8" ry="8" class="r"/><text x="618.99" y="509.4" class="l">Power <tspan x="596.45" dy="1.2em" class="m">Automate for</tspan><tspan x="606.54" dy="1.2em" class="m">Office 365</tspan></text></a><a target="_blank" href="https://docs.microsoft.com/office365/securitycompliance/data-loss-prevention-policies"><rect x="256" y="386" width="96" height="80" rx="8" ry="8" class="r"/><text x="270.55" y="421.8" class="l">Data Loss <tspan x="267.82" dy="1.2em" class="m">Prevention</tspan></text></a><a target="_blank" href="https://docs.microsoft.com/microsoft-365/compliance/retention"><rect x="704" y="482" width="96" height="80" rx="8" ry="8" class="r"/><text x="719.72" y="509.4" class="l">Retention <tspan x="722.82" dy="1.2em" class="m">Labels &amp; </tspan><tspan x="725.54" dy="1.2em" class="m">Policies</tspan></text></a><a target="_blank" href="https://docs.microsoft.com/office365/securitycompliance/ediscovery-cases"><rect x="480" y="386" width="96" height="80" rx="8" ry="8" class="r"/><text x="490.64" y="430.2" class="l">eDiscovery</text></a><a target="_blank" href="https://docs.microsoft.com/office365/servicedescriptions/exchange-online-service-description/exchange-online-service-description#feature-availability-across-exchange-online-standalone-plans"><rect x="592" y="386" width="96" height="80" rx="8" ry="8" class="r"/><text x="606.93" y="413.4" class="l">Exchange <tspan x="618.22" dy="1.2em" class="m">Online </tspan><tspan x="619.38" dy="1.2em" class="m">Plan 2</tspan></text></a><a target="_blank" href="https://www.microsoft.com/microsoft-365/microsoft-lists"><rect x="480" y="802" width="96" height="80" rx="8" ry="8" class="p"/><text x="496.5" y="837.8" class="l">Microsoft <tspan x="511.66" dy="1.2em" class="m">Lists</tspan></text></a><a target="_blank" href="https://docs.microsoft.com/microsoft-365/bookings/bookings-overview"><rect x="144" y="386" width="96" height="80" rx="8" ry="8" class="r"/><text x="160.11" y="430.2" class="l">Bookings</text></a><a target="_blank" href="https://www.microsoft.com/download/details.aspx?id=48734"><rect x="704" y="386" width="96" height="80" rx="8" ry="8" class="r"/><text x="724" y="421.8" class="l">InfoPath<tspan x="738.39" dy="1.2em" class="m">App</tspan></text></a><a target="_blank" href="https://support.microsoft.com/office/d236aef8-fcdf-4b5e-b5d7-7f157461e920"><rect x="816" y="802" width="96" height="80" rx="8" ry="8" class="s"/><text x="832.5" y="837.8" class="l">Microsoft <tspan x="825.5" dy="1.2em" class="m">Whiteboard</tspan></text></a><a target="_blank" href="https://www.microsoft.com/microsoft-365/microsoft-to-do-list-app"><rect x="704" y="802" width="96" height="80" rx="8" ry="8" class="p"/><text x="720.5" y="837.8" class="l">Microsoft <tspan x="731.79" dy="1.2em" class="m">To</tspan>-Do</text></a><a target="_blank" href="https://docs.microsoft.com/power-virtual-agents/teams/fundamentals-what-is-power-virtual-agents-teams"><rect x="704" y="898" width="96" height="80" rx="8" ry="8" class="p"/><text x="710.46" y="926.3" class="n">Power Virtual <tspan x="719.5" dy="1.2em" class="m">Agents for </tspan><tspan x="731.4" dy="1.2em" class="m">Teams</tspan></text></a><a target="_blank" href="https://products.office.com/mobile/office"><rect x="144" y="898" width="96" height="80" rx="8" ry="8" class="p"/><text x="148.44" y="933.8" class="l">Office Web &amp; <tspan x="150.39" dy="1.2em" class="m">Mobile Apps</tspan></text></a><a target="_blank" href="https://docs.microsoft.com/microsoft-365/compliance/apply-sensitivity-label-automatically"><rect x="480" y="242" width="96" height="80" rx="8" ry="8" class="k"/><text x="488.63" y="270.3" class="n">Rules-Based <tspan x="485.74" dy="1.2em" class="m">Classification</tspan><tspan x="492.6" dy="1.2em" class="m">(Office 365)</tspan></text></a><g><rect x="16" y="18" width="960" height="32" rx="8" ry="8" class="b"/><text x="34.17" y="38.2" class="t">United States Government</text></g><a target="_blank" href="https://support.office.com/sway"><rect x="256" y="994" width="96" height="80" rx="8" ry="8" class="s"/><text x="286.1" y="1038.2" class="l">Sway</text></a><g transform="translate(-1106,338) rotate(-90)"><rect y="1138" width="272" height="96" rx="8" ry="8" class="b"/><text x="56.01" y="1200.4" class="u">DRAFT</text></g><g><rect x="256" y="578" width="656" height="80" rx="8" ry="8" class="b"/><text x="504.01" y="632.4" class="u">DRAFT</text></g><g><rect x="704" y="242" width="208" height="80" rx="8" ry="8" class="b"/><text x="728.01" y="296.4" class="v">DRAFT</text></g><a target="_blank" href="https://docs.microsoft.com/microsoft-365/admin/basic-mobility-security/capabilities"><rect x="592" y="706" width="96" height="80" rx="8" ry="8" class="p"/><text x="621.32" y="733.4" class="l">Basic <tspan x="606.56" dy="1.2em" class="m">Mobility &amp; </tspan><tspan x="612.38" dy="1.2em" class="m">Security</tspan></text></a><a target="_blank" href="https://azure.microsoft.com/pricing/details/active-directory/"><rect x="480" y="706" width="96" height="80" rx="8" ry="8" class="p"/><text x="485.22" y="741.8" class="l">Azure AD for <tspan x="494.54" dy="1.2em" class="m">Office 365</tspan></text></a><g><rect x="480" y="994" width="432" height="80" rx="8" ry="8" class="b"/><text x="616.01" y="1048.4" class="u">DRAFT</text></g><a target="_blank" href="https://docs.microsoft.com/office365/securitycompliance/search-the-audit-log-in-security-and-compliance"><rect x="368" y="706" width="96" height="80" rx="8" ry="8" class="p"/><text x="398.12" y="741.8" class="l">Audit <tspan x="388.4" dy="1.2em" class="m">Logging</tspan></text></a><a target="_blank" href="https://docs.microsoft.com/microsoft-365/compliance/alert-policies"><rect x="144" y="706" width="96" height="80" rx="8" ry="8" class="p"/><text x="176.05" y="741.8" class="l">Alert <tspan x="165.54" dy="1.2em" class="m">Policies</tspan></text></a><a target="_blank" href="https://docs.microsoft.com/microsoft-365/compliance/sensitivity-labels"><rect x="816" y="386" width="96" height="80" rx="8" ry="8" class="r"/><text x="825.5" y="413.4" class="l">Information <tspan x="829.39" dy="1.2em" class="m">Protection</tspan><tspan x="835.21" dy="1.2em" class="m">for M365</tspan></text></a><a target="_blank" href="https://docs.microsoft.com/microsoftteams/audio-conferencing-in-office-365"><rect x="256" y="706" width="96" height="80" rx="8" ry="8" class="p"/><text x="284.17" y="734.6" class="l">Audio <tspan x="262.11" dy="1.223em" class="o">Conferencing </tspan><tspan x="263.91" dy="1.2em" class="o">(Dial In Only)</tspan></text></a></svg>