<svg xmlns="http://www.w3.org/2000/svg" width="1056" height="1088" viewBox="0 0 1056 1088" class="a"><style>
.b {fill:#a5a5a5;fill-opacity:0.2;stroke:#d04a00;stroke-linecap:round;stroke-linejoin:round;stroke-width:2.25}
.c {fill:#a5a5a5;fill-opacity:0.2;stroke:#e82200;stroke-dasharray:15.75,11.25;stroke-linecap:round;stroke-linejoin:round;stroke-width:2.25}
.d {fill:#a5a5a5;fill-opacity:0.2;stroke:#c42500;stroke-dasharray:2.25,4.5;stroke-linecap:round;stroke-linejoin:round;stroke-width:2.25}
.e {fill:#d04a00;stroke:#d04a00;stroke-linecap:round;stroke-linejoin:round;stroke-width:2.25}
.f {fill:#ffffff;font-family:Arial;font-size:1.66667em;font-weight:bold}
.g {fill:#e82200;stroke:#e82200;stroke-linecap:round;stroke-linejoin:round;stroke-width:2.25}
.h {fill:#c42500;stroke:#c42500;stroke-linecap:round;stroke-linejoin:round;stroke-width:2.25}
.i {fill:#d04a00;stroke:none;stroke-linecap:round;stroke-linejoin:round;stroke-width:1}
.j {fill:#ffffff;font-family:Arial;font-size:1.16666em;font-weight:bold}
.k {font-size:1em}
.l {fill:#ffffff;font-family:Arial;font-size:1.08334em;font-weight:bold}
.m {font-size:0.928588em}
.n {fill:#c42500;stroke:none;stroke-linecap:round;stroke-linejoin:round;stroke-width:1}
.o {font-size:0.857157em}
.p {fill:#e82200;stroke:none;stroke-linecap:round;stroke-linejoin:round;stroke-width:1}
.q {fill:none;stroke:none;stroke-linecap:round;stroke-linejoin:round;stroke-width:1}
.r {fill:#000000;font-family:Arial;font-size:1.16666em;font-weight:bold}
.a {fill:none;fill-rule:evenodd;font-size:12px;overflow:visible;stroke-linecap:square;stroke-miterlimit:3}
</style><rect x="16" y="16" width="1024" height="1056" rx="8" ry="8" class="b"/><rect x="48" y="352" width="896" height="688" rx="8" ry="8" class="c"/><rect x="128" y="576" width="800" height="448" rx="8" ry="8" class="d"/><a target="_blank" href="https://docs.microsoft.com/office365/enterprise/" transform="translate(-48,1072) rotate(-90)"><rect y="1024" width="1056" height="64" rx="8" ry="8" class="e"/><text x="465.19" y="1062" class="f">Office 365 E5</text></a><a target="_blank" href="https://docs.microsoft.com/office365/enterprise/" transform="translate(-976,1040) rotate(-90)"><rect y="1024" width="688" height="64" rx="8" ry="8" class="g"/><text x="281.19" y="1062" class="f">Office 365 E3</text></a><a target="_blank" href="https://docs.microsoft.com/office365/enterprise/"><rect x="128" y="976" width="800" height="48" rx="8" ry="8" class="h"/><text x="465.75" y="1006" class="f">Office 365 F3</text></a><a target="_blank" href="https://docs.microsoft.com/MicrosoftTeams/what-is-phone-system-in-office-365"><rect x="816" y="144" width="96" height="80" rx="8" ry="8" class="i"/><text x="842.61" y="179.8" class="j">Phone <tspan x="839.1" dy="1.2em" class="k">System</tspan></text></a><a target="_blank" href="https://docs.microsoft.com/microsoftteams/audio-conferencing-in-office-365"><rect x="480" y="48" width="96" height="80" rx="8" ry="8" class="i"/><text x="509.59" y="76.3" class="l">Audio <tspan x="486.11" dy="1.2em" class="k">Conferencing </tspan><tspan x="512.12" dy="1.2em" class="k">(Full)</tspan></text></a><a target="_blank" href="https://docs.microsoft.com/power-bi/service-get-started"><rect x="144" y="240" width="96" height="80" rx="8" ry="8" class="i"/><text x="148.43" y="284.2" class="j">Power BI Pro</text></a><a target="_blank" href="https://support.office.com/article/36f9cdd1-e64c-421b-a7e4-4a54d16440a2"><rect x="816" y="48" width="96" height="80" rx="8" ry="8" class="i"/><text x="831.33" y="83.8" class="j">Customer <tspan x="835.22" dy="1.2em" class="k">Lockbox</tspan></text></a><a target="_blank" href="https://support.office.com/article/f2cd475a-e592-46cf-80a3-1bfb0fa17697"><rect x="704" y="48" width="96" height="80" rx="8" ry="8" class="i"/><text x="719.33" y="83.8" class="j">Customer <tspan x="739.16" dy="1.2em" class="k">Key</tspan></text></a><a target="_blank" href="https://docs.microsoft.com/microsoft-365/compliance/manage-legal-investigations"><rect x="256" y="48" width="96" height="80" rx="8" ry="8" class="i"/><text x="270.55" y="83.8" class="j">Advanced <tspan x="266.64" dy="1.2em" class="k">eDiscovery</tspan></text></a><a target="_blank" href="https://docs.microsoft.com/microsoft-365/compliance/privileged-access-management-solution-overview"><rect x="256" y="240" width="96" height="80" rx="8" ry="8" class="i"/><text x="270.54" y="267.4" class="j">Privileged <tspan x="279.48" dy="1.2em" class="k">Access </tspan><tspan x="261.21" dy="1.2em" class="k">Management</tspan></text></a><a target="_blank" href="https://docs.microsoft.com/office365/securitycompliance/data-loss-prevention-policies#policy-evaluation-in-microsoft-teams"><rect x="592" y="240" width="96" height="80" rx="8" ry="8" class="i"/><text x="617.82" y="267.4" class="j">Teams<tspan x="606.55" dy="1.2em" class="k">Data Loss </tspan><tspan x="603.82" dy="1.2em" class="k">Prevention</tspan></text></a><a target="_blank" href="https://docs.microsoft.com/microsoft-365/compliance/ome-advanced-message-encryption"><rect x="368" y="48" width="96" height="80" rx="8" ry="8" class="i"/><text x="382.55" y="75.4" class="j">Advanced <tspan x="386.43" dy="1.2em" class="k">Message </tspan><tspan x="379.44" dy="1.2em" class="k">Encryption</tspan></text></a><a target="_blank" href="https://docs.microsoft.com/microsoft-365/compliance/information-barriers"><rect x="256" y="144" width="96" height="80" rx="8" ry="8" class="i"/><text x="265.5" y="179.8" class="j">Information <tspan x="277.15" dy="1.2em" class="k">Barriers</tspan></text></a><a target="_blank" href="https://docs.microsoft.com/office365/servicedescriptions/mya-service-description"><rect x="592" y="144" width="96" height="80" rx="8" ry="8" class="i"/><text x="599.15" y="179.8" class="j">MyAnalytics <tspan x="624.12" dy="1.292em" class="m">(Full)</tspan></text></a><a target="_blank" href="https://docs.microsoft.com/microsoft-365/compliance/communication-compliance"><rect x="592" y="48" width="96" height="80" rx="8" ry="8" class="i"/><text x="618.22" y="83.8" class="j">Comm <tspan x="600.32" dy="1.2em" class="k">Compliance</tspan></text></a><a target="_blank" href="https://docs.microsoft.com/cloud-app-security/editions-cloud-app-security-o365"><rect x="704" y="144" width="96" height="80" rx="8" ry="8" class="i"/><text x="718.54" y="171.4" class="j">Office 365 <tspan x="716.62" dy="1.2em" class="k">Cloud App </tspan><tspan x="724.38" dy="1.2em" class="k">Security</tspan></text></a><a target="_blank" href="https://docs.microsoft.com/microsoft-365/compliance/manage-information-governance"><rect x="368" y="144" width="96" height="80" rx="8" ry="8" class="i"/><text x="377.5" y="179.8" class="j">Information <tspan x="375.54" dy="1.2em" class="k">Governance</tspan></text></a><a target="_blank" href="https://docs.microsoft.com/microsoft-365/compliance/records-management"><rect x="368" y="240" width="96" height="80" rx="8" ry="8" class="i"/><text x="387.99" y="275.8" class="j">Records <tspan x="373.21" dy="1.2em" class="k">Management</tspan></text></a><a target="_blank" href="https://docs.microsoft.com/microsoft-365/compliance/advanced-audit"><rect x="144" y="48" width="96" height="80" rx="8" ry="8" class="i"/><text x="158.55" y="83.8" class="j">Advanced <tspan x="174.12" dy="1.2em" class="k">Audit</tspan></text></a><a target="_blank" href="https://docs.microsoft.com/microsoft-365/compliance/double-key-encryption"><rect x="144" y="144" width="96" height="80" rx="8" ry="8" class="i"/><text x="153.49" y="179.8" class="j">Double Key <tspan x="155.44" dy="1.2em" class="k">Encryption</tspan></text></a><a target="_blank" href="https://docs.microsoft.com/office365/servicedescriptions/office-365-advanced-threat-protection-service-description#feature-availability-across-advanced-threat-protection-atp-plans"><rect x="480" y="144" width="96" height="80" rx="8" ry="8" class="i"/><text x="496.5" y="163" class="j">Microsoft <tspan x="486.38" dy="1.2em" class="k">Defender for </tspan><tspan x="494.54" dy="1.2em" class="k">Office 365 </tspan><tspan x="507.38" dy="1.2em" class="k">Plan 2</tspan></text></a><a target="_blank" href="https://www.microsoft.com/microsoft-365/exchange/exchange-email-security-spam-protection"><rect x="144" y="688" width="96" height="80" rx="8" ry="8" class="n"/><text x="158.93" y="715.4" class="j">Exchange <tspan x="170.22" dy="1.2em" class="k">Online </tspan><tspan x="157.39" dy="1.2em" class="k">Protection</tspan></text></a><a target="_blank" href="https://products.office.com/microsoft-teams/"><rect x="704" y="688" width="96" height="80" rx="8" ry="8" class="n"/><text x="720.5" y="723.8" class="j">Microsoft <tspan x="729.82" dy="1.2em" class="k">Teams</tspan></text></a><a target="_blank" href="https://docs.microsoft.com/office365/servicedescriptions/exchange-online-service-description/exchange-online-service-description#feature-availability-across-exchange-online-standalone-plans"><rect x="816" y="592" width="96" height="80" rx="8" ry="8" class="n"/><text x="830.93" y="619.4" class="j">Exchange <tspan x="821.21" dy="1.2em" class="k">Online Kiosk</tspan><tspan x="844.5" dy="1.292em" class="m">(2 GB)</tspan></text></a><a target="_blank" href="https://docs.microsoft.com/office365/servicedescriptions/onedrive-for-business-service-description"><rect x="480" y="784" width="96" height="80" rx="8" ry="8" class="n"/><text x="485.6" y="811.4" class="j">OneDrive for <tspan x="496.88" dy="1.2em" class="k">Business </tspan><tspan x="508.5" dy="1.292em" class="m">(2 GB)</tspan></text></a><a target="_blank" href="https://powerautomate.microsoft.com/"><rect x="816" y="784" width="96" height="80" rx="8" ry="8" class="n"/><text x="842.99" y="811.4" class="j">Power <tspan x="831.72" dy="1.2em" class="k">Automate </tspan><tspan x="820.65" dy="1.4em" class="o">(2000 step/day)</tspan></text></a><a target="_blank" href="https://products.office.com/en/business/microsoft-kaizala"><rect x="256" y="688" width="96" height="80" rx="8" ry="8" class="n"/><text x="266.26" y="723.8" class="j">Kaizala Pro<tspan x="277.28" dy="1.292em" class="m">(retiring)</tspan></text></a><a target="_blank" href="https://powerapps.microsoft.com/"><rect x="704" y="784" width="96" height="80" rx="8" ry="8" class="n"/><text x="711.55" y="811.4" class="j">Power Apps<tspan x="742.67" dy="1.2em" class="k">for</tspan><tspan x="718.54" dy="1.2em" class="k">Office 365</tspan></text></a><a target="_blank" href="https://support.office.com/forms"><rect x="480" y="688" width="96" height="80" rx="8" ry="8" class="n"/><text x="496.5" y="723.8" class="j">Microsoft <tspan x="506.61" dy="1.2em" class="k">Forms</tspan></text></a><a target="_blank" href="https://products.office.com/yammer/yammer-overview"><rect x="704" y="880" width="96" height="80" rx="8" ry="8" class="n"/><text x="724.37" y="915.8" class="j">Yammer <tspan x="717.38" dy="1.2em" class="k">Enterprise</tspan></text></a><a target="_blank" href="https://docs.microsoft.com/sharepoint/introduction"><rect x="368" y="880" width="96" height="80" rx="8" ry="8" class="n"/><text x="379.05" y="915.8" class="j">SharePoint <tspan x="373.21" dy="1.2em" class="k">Online Kiosk</tspan></text></a><a target="_blank" href="https://docs.microsoft.com/stream/"><rect x="480" y="880" width="96" height="80" rx="8" ry="8" class="n"/><text x="504.27" y="915.8" class="j">Stream <tspan x="494.06" dy="1.292em" class="m">(Consume)</tspan></text></a><a target="_blank" href="https://products.office.com/business/task-management-software"><rect x="592" y="784" width="96" height="80" rx="8" ry="8" class="n"/><text x="614.32" y="828.2" class="j">Planner</text></a><a target="_blank" href="https://support.office.com/sway"><rect x="592" y="880" width="96" height="80" rx="8" ry="8" class="n"/><text x="622.1" y="924.2" class="j">Sway</text></a><a target="_blank" href="https://docs.microsoft.com/powerapps/teams/overview-data-platform"><rect x="368" y="688" width="96" height="80" rx="8" ry="8" class="n"/><text x="384.5" y="715.4" class="j">Microsoft <tspan x="382.53" dy="1.2em" class="k">Dataverse </tspan><tspan x="382.55" dy="1.2em" class="k">for Teams</tspan></text></a><a target="_blank" href="https://www.microsoft.com/microsoft-365/business/microsoft-365-apps-for-enterprise-product"><rect x="256" y="480" width="96" height="80" rx="8" ry="8" class="p"/><text x="272.5" y="507.4" class="j">Microsoft <tspan x="261.6" dy="1.2em" class="k">365 Apps for </tspan><tspan x="269.38" dy="1.2em" class="k">Enterprise</tspan></text></a><a target="_blank" href="https://docs.microsoft.com/microsoftteams/teams-live-events/what-are-teams-live-events"><rect x="144" y="480" width="96" height="80" rx="8" ry="8" class="p"/><text x="153.09" y="515.8" class="j">Live Events <tspan x="153.49" dy="1.2em" class="k">&amp; Webinars</tspan></text></a><a target="_blank" href="https://products.office.com/business/myanalytics-personal-analytics"><rect x="816" y="384" width="96" height="80" rx="8" ry="8" class="p"/><text x="827.05" y="419.8" class="j">Insights by <tspan x="823.15" dy="1.2em" class="k">MyAnalytics</tspan></text></a><a target="_blank" href="https://docs.microsoft.com/stream/"><rect x="816" y="480" width="96" height="80" rx="8" ry="8" class="p"/><text x="828.99" y="515.8" class="j">Stream for <tspan x="830.54" dy="1.2em" class="k">Office 365</tspan></text></a><a target="_blank" href="https://docs.microsoft.com/sharepoint/introduction"><rect x="704" y="480" width="96" height="80" rx="8" ry="8" class="p"/><text x="715.05" y="507.4" class="j">SharePoint <tspan x="730.22" dy="1.2em" class="k">Online </tspan><tspan x="731.38" dy="1.2em" class="k">Plan 2</tspan></text></a><a target="_blank" href="https://docs.microsoft.com/office365/servicedescriptions/onedrive-for-business-service-description"><rect x="368" y="480" width="96" height="80" rx="8" ry="8" class="p"/><text x="373.6" y="507.4" class="j">OneDrive for <tspan x="384.88" dy="1.2em" class="k">Business </tspan><tspan x="395.38" dy="1.2em" class="k">Plan 2</tspan></text></a><a target="_blank" href="https://support.microsoft.com/office/1315665a-c6af-4409-a28d-49f8916878ca"><rect x="256" y="384" width="96" height="80" rx="8" ry="8" class="p"/><text x="285.32" y="428.2" class="j">Delve</text></a><a target="_blank" href="https://powerautomate.microsoft.com/"><rect x="480" y="480" width="96" height="80" rx="8" ry="8" class="p"/><text x="506.99" y="507.4" class="j">Power <tspan x="484.45" dy="1.2em" class="k">Automate for</tspan><tspan x="494.54" dy="1.2em" class="k">Office 365</tspan></text></a><a target="_blank" href="https://docs.microsoft.com/office365/securitycompliance/data-loss-prevention-policies"><rect x="144" y="384" width="96" height="80" rx="8" ry="8" class="p"/><text x="158.55" y="419.8" class="j">Data Loss <tspan x="155.82" dy="1.2em" class="k">Prevention</tspan></text></a><a target="_blank" href="https://docs.microsoft.com/microsoft-365/compliance/retention"><rect x="592" y="480" width="96" height="80" rx="8" ry="8" class="p"/><text x="607.72" y="507.4" class="j">Retention <tspan x="610.82" dy="1.2em" class="k">Labels &amp; </tspan><tspan x="613.54" dy="1.2em" class="k">Policies</tspan></text></a><a target="_blank" href="https://docs.microsoft.com/office365/securitycompliance/ediscovery-cases"><rect x="368" y="384" width="96" height="80" rx="8" ry="8" class="p"/><text x="378.64" y="428.2" class="j">eDiscovery</text></a><a target="_blank" href="https://docs.microsoft.com/office365/servicedescriptions/exchange-online-service-description/exchange-online-service-description#feature-availability-across-exchange-online-standalone-plans"><rect x="480" y="384" width="96" height="80" rx="8" ry="8" class="p"/><text x="494.93" y="411.4" class="j">Exchange <tspan x="506.22" dy="1.2em" class="k">Online </tspan><tspan x="507.38" dy="1.2em" class="k">Plan 2</tspan></text></a><a target="_blank" href="https://www.microsoft.com/microsoft-365/microsoft-lists"><rect x="592" y="688" width="96" height="80" rx="8" ry="8" class="n"/><text x="608.5" y="723.8" class="j">Microsoft <tspan x="623.66" dy="1.2em" class="k">Lists</tspan></text></a><a target="_blank" href="https://docs.microsoft.com/microsoft-365/bookings/bookings-overview"><rect x="704" y="592" width="96" height="80" rx="8" ry="8" class="n"/><text x="720.11" y="636.2" class="j">Bookings</text></a><a target="_blank" href="https://www.microsoft.com/download/details.aspx?id=48734"><rect x="592" y="384" width="96" height="80" rx="8" ry="8" class="p"/><text x="612" y="419.8" class="j">InfoPath<tspan x="626.39" dy="1.2em" class="k">App</tspan></text></a><a target="_blank" href="https://support.microsoft.com/office/d236aef8-fcdf-4b5e-b5d7-7f157461e920"><rect x="144" y="784" width="96" height="80" rx="8" ry="8" class="n"/><text x="160.5" y="819.8" class="j">Microsoft <tspan x="153.5" dy="1.2em" class="k">Whiteboard</tspan></text></a><a target="_blank" href="https://www.microsoft.com/microsoft-365/microsoft-to-do-list-app"><rect x="816" y="688" width="96" height="80" rx="8" ry="8" class="n"/><text x="832.5" y="723.8" class="j">Microsoft <tspan x="843.79" dy="1.2em" class="k">To</tspan>-Do</text></a><a target="_blank" href="https://docs.microsoft.com/power-virtual-agents/teams/fundamentals-what-is-power-virtual-agents-teams"><rect x="144" y="880" width="96" height="80" rx="8" ry="8" class="n"/><text x="150.46" y="908.3" class="l">Power Virtual <tspan x="159.5" dy="1.2em" class="k">Agents for </tspan><tspan x="171.4" dy="1.2em" class="k">Teams</tspan></text></a><a target="_blank" href="https://docs.microsoft.com/microsoft-365/compliance/apply-sensitivity-label-automatically"><rect x="480" y="240" width="96" height="80" rx="8" ry="8" class="i"/><text x="488.63" y="268.3" class="l">Rules-Based <tspan x="485.74" dy="1.2em" class="k">Classification</tspan><tspan x="492.6" dy="1.2em" class="k">(Office 365)</tspan></text></a><g><rect x="16" y="16" width="960" height="32" rx="8" ry="8" class="q"/><text x="34.17" y="36.2" class="r">Enterprise</text></g><a target="_blank" href="https://docs.microsoft.com/microsoft-365/admin/basic-mobility-security/capabilities"><rect x="592" y="592" width="96" height="80" rx="8" ry="8" class="n"/><text x="621.32" y="619.4" class="j">Basic <tspan x="606.56" dy="1.2em" class="k">Mobility &amp; </tspan><tspan x="612.38" dy="1.2em" class="k">Security</tspan></text></a><a target="_blank" href="https://azure.microsoft.com/pricing/details/active-directory/"><rect x="480" y="592" width="96" height="80" rx="8" ry="8" class="n"/><text x="485.22" y="627.8" class="j">Azure AD for <tspan x="494.54" dy="1.2em" class="k">Office 365</tspan></text></a><a target="_blank" href="https://products.office.com/mobile/office"><rect x="368" y="787.654" width="96" height="80" rx="8" ry="8" class="n"/><text x="396.16" y="823.454" class="j">Office <tspan x="374.39" dy="1.2em" class="k">Mobile Apps</tspan></text></a><a target="_blank" href="https://docs.microsoft.com/office365/servicedescriptions/office-online-service-description/office-online-service-description"><rect x="256" y="784" width="96" height="80" rx="8" ry="8" class="n"/><text x="284.16" y="811.4" class="j">Office<tspan x="265.5" dy="1.2em" class="k">for the Web</tspan><tspan x="268.61" dy="1.2em" class="k">(incl Visio)</tspan></text></a><a target="_blank" href="https://docs.microsoft.com/office365/securitycompliance/search-the-audit-log-in-security-and-compliance"><rect x="368" y="592" width="96" height="80" rx="8" ry="8" class="n"/><text x="398.12" y="627.8" class="j">Audit <tspan x="388.4" dy="1.2em" class="k">Logging</tspan></text></a><a target="_blank" href="https://docs.microsoft.com/microsoft-365/compliance/alert-policies"><rect x="144" y="592" width="96" height="80" rx="8" ry="8" class="n"/><text x="176.05" y="627.8" class="j">Alert <tspan x="165.54" dy="1.2em" class="k">Policies</tspan></text></a><a target="_blank" href="https://docs.microsoft.com/microsoft-365/compliance/create-apply-retention-labels"><rect x="256" y="880" width="96" height="80" rx="8" ry="8" class="n"/><text x="271.72" y="915.8" class="j">Retention <tspan x="281.82" dy="1.2em" class="k">Labels</tspan></text></a><a target="_blank" href="https://docs.microsoft.com/microsoft-365/compliance/sensitivity-labels"><rect x="704" y="384" width="96" height="80" rx="8" ry="8" class="p"/><text x="713.5" y="411.4" class="j">Information <tspan x="717.39" dy="1.2em" class="k">Protection</tspan><tspan x="723.21" dy="1.2em" class="k">for M365</tspan></text></a><a target="_blank" href="https://docs.microsoft.com/microsoftteams/audio-conferencing-in-office-365"><rect x="256" y="592" width="96" height="80" rx="8" ry="8" class="n"/><text x="284.17" y="620.6" class="j">Audio <tspan x="262.11" dy="1.223em" class="m">Conferencing </tspan><tspan x="263.91" dy="1.2em" class="m">(Dial In Only)</tspan></text></a></svg>