<svg xmlns="http://www.w3.org/2000/svg" width="480" height="656" viewBox="0 0 480 656" class="a"><style>
.b {fill:#a5a5a5;fill-opacity:0.2;stroke:#008800;stroke-linecap:round;stroke-linejoin:round;stroke-width:2.25}
.c {fill:#008800;stroke:#008800;stroke-linecap:round;stroke-linejoin:round;stroke-width:2.25}
.d {fill:#ffffff;font-family:Arial;font-size:1.67em;font-weight:bold}
.e {fill:#008800;stroke:none;stroke-linecap:round;stroke-linejoin:round;stroke-width:2}
.f {fill:#ffffff;font-family:Arial;font-size:1.17em;font-weight:bold}
.g {font-size:1em}
.h {font-size:0.93em}
.i {fill:#ffffff;font-family:Arial;font-size:1em;font-weight:bold}
.a {fill:none;fill-rule:evenodd;font-size:12px;overflow:visible;stroke-linecap:square;stroke-miterlimit:3}
</style><rect x="16" y="16" width="448" height="624" rx="8" ry="8" class="b"/><a target="_blank" href="https://www.microsoft.com/windowsforbusiness" transform="translate(-192,640) rotate(-90)"><rect y="592" width="624" height="64" rx="8" ry="8" class="c"/><text x="248.67" y="630" class="d">Windows Pro</text></a><a target="_blank" href="https://support.microsoft.com/help/17209/windows-10-use-touch-with-windows"><rect x="160" y="336" width="96" height="80" rx="8" ry="8" class="e"/><text x="170.65" y="363.4" class="f">Voice, Pen, <tspan x="171.06" dy="1.2em" class="g">Touch, Ink, </tspan><tspan x="167.16" dy="1.2em" class="g">and Gesture</tspan></text></a><a target="_blank" href="https://docs.microsoft.com/windows/client-management/mdm/"><rect x="48" y="240" width="96" height="80" rx="8" ry="8" class="e"/><text x="59.82" y="275.8" class="f">Manage by <tspan x="79.28" dy="1.2em" class="g">MDM</tspan></text></a><a target="_blank" href="https://docs.microsoft.com/microsoft-store/microsoft-store-for-business-overview"><rect x="272" y="240" width="96" height="80" rx="8" ry="8" class="e"/><text x="288.5" y="259" class="f">Microsoft <tspan x="290.83" dy="1.2em" class="g">Store for </tspan><tspan x="288.88" dy="1.2em" class="g">Business</tspan><tspan x="293.28" dy="1.29em" class="h">(retiring)</tspan></text></a><a target="_blank" href="https://docs.microsoft.com/windows-server/identity/ad-fs/operations/configure-device-based-conditional-access-on-premises"><rect x="48" y="432" width="96" height="80" rx="8" ry="8" class="e"/><text x="65.28" y="459.4" class="f">Windows <tspan x="57.51" dy="1.2em" class="g">Conditional </tspan><tspan x="71.48" dy="1.2em" class="g">Access</tspan></text></a><a target="_blank" href="https://docs.microsoft.com/windows/security/information-protection/windows-information-protection/protect-enterprise-data-using-wip"><rect x="48" y="528" width="96" height="80" rx="8" ry="8" class="e"/><text x="65.28" y="555.4" class="f">Windows <tspan x="57.5" dy="1.2em" class="g">Information </tspan><tspan x="61.39" dy="1.2em" class="g">Protection</tspan></text></a><a target="_blank" href="https://docs.microsoft.com/windows/deployment/update/waas-manage-updates-wufb"><rect x="160" y="528" width="96" height="80" rx="8" ry="8" class="e"/><text x="177.28" y="555.4" class="f">Windows <tspan x="173" dy="1.2em" class="g">Update for </tspan><tspan x="176.88" dy="1.2em" class="g">Business</tspan></text></a><a target="_blank" href="https://docs.microsoft.com/windows/security/identity-protection/hello-for-business/hello-identity-verification"><rect x="272" y="432" width="96" height="80" rx="8" ry="8" class="e"/><text x="289.28" y="459.4" class="f">Windows <tspan x="291.61" dy="1.2em" class="g">Hello for </tspan><tspan x="288.88" dy="1.2em" class="g">Business</tspan></text></a><a target="_blank" href="https://www.microsoft.com/edge/business"><rect x="272" y="144" width="96" height="80" rx="8" ry="8" class="e"/><text x="291.61" y="179.8" class="f">Edge for <tspan x="288.88" dy="1.2em" class="g">Business</tspan></text></a><a target="_blank" href="https://support.microsoft.com/help/17214/windows-10-what-is"><rect x="160" y="144" width="96" height="80" rx="8" ry="8" class="e"/><text x="181.55" y="188.2" class="f">Cortana</text></a><a target="_blank" href="https://docs.microsoft.com/windows/security/threat-protection/windows-defender-application-guard/wd-app-guard-overview"><rect x="160" y="48" width="96" height="80" rx="8" ry="8" class="e"/><text x="169.89" y="83.8" class="f">Application <tspan x="187.39" dy="1.2em" class="g">Guard</tspan></text></a><a target="_blank" href="https://docs.microsoft.com/azure/active-directory/devices/concept-azure-ad-join"><rect x="272" y="48" width="96" height="80" rx="8" ry="8" class="e"/><text x="288.5" y="75.4" class="f">Azure AD<tspan x="287.33" dy="1.2em" class="g">&amp; Domain </tspan><tspan x="305.61" dy="1.2em" class="g">Join</tspan></text></a><a target="_blank" href="https://www.microsoft.com/windows/comprehensive-security"><rect x="160" y="240" width="96" height="80" rx="8" ry="8" class="e"/><text x="176.5" y="267.4" class="f">Microsoft <tspan x="177.66" dy="1.2em" class="g">Defender </tspan><tspan x="177.66" dy="1.2em" class="g">Antivirus</tspan></text></a><a target="_blank" href="https://docs.microsoft.com/windows/deployment/windows-autopilot/windows-autopilot"><rect x="272" y="336" width="96" height="80" rx="8" ry="8" class="e"/><text x="289.28" y="371.8" class="f">Windows <tspan x="289.29" dy="1.2em" class="g">Autopilot</tspan></text></a><a target="_blank" href="https://docs.microsoft.com/windows/security/information-protection/bitlocker/bitlocker-overview"><rect x="48" y="144" width="96" height="80" rx="8" ry="8" class="e"/><text x="56.71" y="171.4" class="f">BitLocker &amp; <tspan x="55.16" dy="1.2em" class="g">BitLocker to </tspan><tspan x="86.28" dy="1.2em" class="g">Go</tspan></text></a><a target="_blank" href="https://docs.microsoft.com/windows/security/threat-protection/windows-firewall/windows-firewall-with-advanced-security"><rect x="160" y="432" width="96" height="80" rx="8" ry="8" class="e"/><text x="177.28" y="467.8" class="f">Windows <tspan x="181.93" dy="1.2em" class="g">Firewall</tspan></text></a><a target="_blank" href="https://docs.microsoft.com/windows/security/threat-protection/windows-defender-application-control/windows-defender-application-control"><rect x="48" y="48" width="96" height="80" rx="8" ry="8" class="e"/><text x="57.89" y="83.8" class="f">Application <tspan x="71.12" dy="1.2em" class="g">Control</tspan></text></a><a target="_blank" href="https://go.microsoft.com/fwlink/?linkid=2085130"><rect x="48" y="336" width="96" height="80" rx="8" ry="8" class="e"/><text x="77.99" y="358" class="i">Power <tspan x="68.33" dy="1.2em" class="g">Automate </tspan><tspan x="70" dy="1.2em" class="g">Attended </tspan><tspan x="53.66" dy="1.2em" class="g">Desktop Flows</tspan></text></a></svg>