<svg xmlns="http://www.w3.org/2000/svg" fill="none" viewBox="0 0 896 896"><view id="back" viewBox="0 0 128 128"/><g stroke="#0070f7" stroke-width="11" transform="translate(10 -20)"><path d="M44 40 L0 84 L44 128"/><path stroke-linecap="round" stroke-linejoin="round" d="M2.2 84 110 84M44 40 0 84 44 128"/></g><view id="bug" viewBox="128 0 128 128"/><g transform="translate(133.8 -4)"><path d="M94.67 85 A36.5 43 -180 1 0 21.67 85 A36.5 43 -180 1 0 94.67 85 Z"/><path stroke="#e60000" stroke-linecap="round" stroke-linejoin="round" stroke-width="6" d="M92.2 68A28.1 22.3-125 0 0 108.6 56.5M94.7 87A33.1 32.1 100 0 1 116.3 90.8M90.2 107A52.7 34.8 130 0 1 104.7 119.2M77.2 26A17.5 17.7 0 1 1 112.2 26M24.2 68A28.1 22.3 125 0 1 7.8 56.5M21.7 87A33.1 32.1-100 0 0 0 90.8M26.2 107A52.7 34.8-130 0 0 11.6 119.2M39.2 26A17.7 17.5-90 1 0 4.2 26"/><path stroke="#e60000" stroke-linecap="round" stroke-linejoin="round" stroke-width="6" d="M32.17 54 A26.9948 28.3694 0 1 1 84.17 54"/><path stroke="#e60000" stroke-linecap="round" stroke-linejoin="round" stroke-width="6" d="M94.67 85 A36.5 43 -180 1 0 21.67 85 A36.5 43 -180 1 0 94.67 85"/></g><view id="changes" viewBox="256 0 128 128"/><g stroke="#0070f7" stroke-linecap="round" stroke-linejoin="round" stroke-width="6" transform="translate(256)"><path d="M74.59 35.67 L92.33 53.41 A12.5378 12.5378 -180 1 0 74.59 35.67 ZM0 128 L24.65 120.61 A16.8483 16.8483 -180 0 0 7.39 103.35 L0 128 ZM74.4 35.89 L7.78 102.51 A17.2005 17.2005 0 0 1 25.49 120.22 L92.11 53.6 L74.4 35.89 Z" transform="translate(28 -28)"/><g transform="translate(4 -4)"><path d="M52 128A53.3 52-135 0 0 104 76M0 76A53.3 52-45 0 0 52 128M52 24A53.3 52-135 0 0 0 76"/><path d="M37 10 L53 24 L37 38"/></g></g><view id="cog" viewBox="384 0 128 128"/><g stroke="#0070f7" stroke-width="6" transform="translate(384)"><path d="M69.62 10 L93.22 19.44 L88.5 31.24 L96.76 39.5 L108.56 34.78 L118 57.2 L106.2 63.1 L106.2 74.9 L118 80.8 L108.56 103.22 L96.76 98.5 L87.32 106.76 L93.22 118.56 L69.62 128 L64.9 116.2 L53.1 116.2 L47.2 128 L24.78 118.56 L29.5 106.76 L21.24 98.5 L9.44 103.22 L0 80.8 L11.8 74.9 L11.8 63.1 L0 57.2 L9.44 34.78 L21.24 39.5 L29.5 31.24 L24.78 19.44 L48.38 10 L53.1 21.8 L64.9 21.8 L69.62 10 Z" transform="translate(5 -5)"/><circle cx="64" cy="64" r="12" stroke-linecap="round" stroke-linejoin="round"/></g><view id="compare" viewBox="512 0 128 128"/><g transform="translate(520 -6)"><path d="M8 116 L104 116 A8 8 -180 0 0 112 108 L112 32 A8.00001 8.00001 -180 0 0 104 24 L8 24 A8.00001 8.00001 -180 0 0 0 32 L0 108 A8 8 -180 0 0 8 116 Z"/><path stroke="#0070f7" stroke-linecap="round" stroke-linejoin="round" stroke-width="8" d="M8 116 104 116A8 8-180 0 0 112 108L112 32A8 8-180 0 0 104 24L8 24A8 8-180 0 0 0 32L0 108A8 8-180 0 0 8 116M56 12 56 128"/></g><view id="controls" viewBox="640 0 128 128"/><g transform="translate(640)"><g transform="translate(12 -104)"><path d="M28 120 A8 8 -180 1 0 12 120 A8 8 -180 1 0 28 120 Z"/><path stroke="#0070f7" stroke-linecap="round" stroke-linejoin="round" stroke-width="8" d="M104 120 0 120M28 120A8 8-180 1 0 12 120 8 8-180 1 0 28 120"/></g><g transform="translate(12 -72)"><path d="M84 120 A8 8 -180 1 0 68 120 A8 8 -180 1 0 84 120 Z"/><path stroke="#0070f7" stroke-linecap="round" stroke-linejoin="round" stroke-width="8" d="M104 120 0 120M84 120A8 8-180 1 0 68 120 8 8-180 1 0 84 120"/></g><g transform="translate(12 -40)"><path d="M54 120 A8 8 -180 1 0 38 120 A8 8 -180 1 0 54 120 Z"/><path stroke="#0070f7" stroke-linecap="round" stroke-linejoin="round" stroke-width="8" d="M104 120 0 120M54 120A8 8-180 1 0 38 120 8 8-180 1 0 54 120"/></g><g transform="translate(12 -8)"><path d="M78 120 A8 8 -180 1 0 62 120 A8 8 -180 1 0 78 120 Z"/><path stroke="#0070f7" stroke-linecap="round" stroke-linejoin="round" stroke-width="8" d="M104 120 0 120M78 120A8 8-180 1 0 62 120 8 8-180 1 0 78 120"/></g></g><view id="defaults" viewBox="768 0 128 128"/><g stroke="#0070f7" transform="translate(768)"><path stroke-width="5" d="M42.48 56 L56.88 61.76 L54 68.96 L59.04 74 L66.24 71.12 L72 84.8 L64.8 88.4 L64.8 95.6 L72 99.2 L66.24 112.88 L59.04 110 L53.28 115.04 L56.88 122.24 L42.48 128 L39.6 120.8 L32.4 120.8 L28.8 128 L15.12 122.24 L18 115.04 L12.96 110 L5.76 112.88 L0 99.2 L7.2 95.6 L7.2 88.4 L0 84.8 L5.76 71.12 L12.96 74 L18 68.96 L15.12 61.76 L29.52 56 L32.4 63.2 L39.6 63.2 L42.48 56 Z" transform="translate(28 -28)"/><circle cx="64" cy="64" r="8" stroke-linecap="round" stroke-linejoin="round" stroke-width="5"/><g stroke-linecap="round" stroke-linejoin="round" stroke-width="8" transform="translate(34.3 -5.5)"><path d="M85.82 117.45 L81.7 96.6 L61.57 103.45"/><path d="M81.14 97.78 A61.4558 59.397 75 0 1 0 119.53"/></g><g stroke-linecap="round" stroke-linejoin="round" stroke-width="8" transform="translate(11.4 -91.9)"><path d="M1.14 127.61 A61.4558 59.397 75 0 1 82.28 105.87"/><path d="M0 106.74 L0.44 128 L21.45 124.74"/></g></g><view id="delete" viewBox="0 128 128 128"/><path stroke="#0070f7" stroke-width="10" d="M112 16 0 128M112 128 0 16" transform="translate(8 120)"/><view id="download" viewBox="128 128 128 128"/><g stroke="#0070f7" stroke-width="6" transform="translate(128 128)"><path d="M42 128 L24 128 A25.0259 25.4186 0 1 1 38.4 80.76 A28.9548 27.9389 0 0 1 96 84.93 A22.3796 21.5943 0 1 1 96 128 L78 128" transform="translate(4 -52)"/><path d="M0 116 12 128 24 116M12 124 12 84" transform="translate(52 -20)"/></g><view id="draw" viewBox="256 128 128 128"/><g stroke="#0070f7" stroke-linecap="round" stroke-linejoin="round" stroke-width="6" transform="translate(260 124)"><path fill="#222d65" d="M0 105.84 A15.6722 15.6722 0 1 1 22.16 128 L0 105.84 Z" transform="translate(93.2 -93.2)"/><path fill="#ff0" d="M0 128 L9.24 97.19 A21.0603 21.0603 0 0 1 30.81 118.76 L0 128 Z"/><path fill="#e60000" d="M83.27 22.59 L0 105.86 A21.5006 21.5006 0 0 1 22.14 128 L105.41 44.73 L83.27 22.59 Z" transform="translate(9.7 -9.7)"/></g><view id="edit" viewBox="384 128 128 128"/><g stroke="#0070f7" stroke-linecap="round" stroke-linejoin="round" transform="translate(384 128)"><path stroke-width="6" d="M0 22.88 L22.33 22.88 A11.1665 11.1665 -180 1 0 0 22.88 ZM11.17 128 L22.03 107.82 A15.0055 15.0055 -135 0 0 0.3 107.82 L11.17 128 ZM0.01 23.14 L0.01 107.04 A15.3192 15.3192 135 0 1 22.32 107.04 L22.32 23.14 L0.01 23.14 Z" transform="translate(24.8 -5.9)"/><g transform="translate(69.7 -5.5)"><path stroke-width="2" d="M7.67 120.69 L0 120.69 L0 128 L7.67 125.56 L7.67 120.69 Z" transform="translate(15.3)"/><path stroke-width="6" d="M38.33 98.77 L0 98.77 L0 105.2 A32.9543 32.9543 0 0 1 15.33 128 L23 128 A32.9543 32.9543 0 0 1 38.33 105.2 L38.33 98.77 ZM0 98.77 L38.33 98.77 L32.58 20 A90.5045 90.5045 -180 0 0 5.75 20 L0 98.77 Z" transform="translate(0 -7.3)"/></g></g><view id="erase" viewBox="512 128 128 128"/><g stroke="#0070f7" stroke-width="4" transform="translate(512 128)"><path fill="#ff2da6" d="M0 85a5 5 0 0 1 4-5h73v48H4a5 5 0 0 1-4-5V85Z"/><path fill="#0070c0" d="M116 80a6 6 0 0 1 4 5v38a6 6 0 0 1-4 5H77V80h39Z"/><animateTransform additive="sum" attributeName="transform" attributeType="XML" dur="1s" repeatCount="indefinite" type="translate" values="58 52"/><animateTransform additive="sum" attributeName="transform" attributeType="XML" dur="1s" repeatCount="indefinite" type="rotate" values="-45;-42;-45;-48;-45"/><animateTransform additive="sum" attributeName="transform" attributeType="XML" dur="1s" repeatCount="indefinite" type="translate" values="-64 -92"/></g><view id="export" viewBox="640 128 128 128"/><g transform="translate(640 128)"><path stroke="#0070f7" stroke-width="6" d="M0 116 12 128 24 116M12 124 12 84" transform="translate(52 -20)"/><g transform="translate(18 -4)"><path d="M0 8 L0 128 L92 128 L92 36.8 L64.4 8 L0 8 Z"/><path stroke="#0070f7" stroke-linecap="round" stroke-linejoin="round" stroke-width="6" d="M64 8 L64 37 L92 37"/><path stroke="#0070f7" stroke-linecap="round" stroke-linejoin="round" stroke-width="6" d="M0 8 L0 128 L92 128 L92 36.8 L64.4 8 L0 8"/></g></g><view id="feedback" viewBox="768 128 128 128"/><g stroke="#0070f7" stroke-linecap="round" stroke-linejoin="round" stroke-width="6" transform="translate(768 128)"><path d="M33.75 94.25 L0 94.25 L0 8 L120 8 L120 94.25 L67.5 94.25 L33.75 128 L33.75 94.25 Z" transform="translate(4 -4)"/><path d="M0 128 L76 128" transform="translate(16 -76)"/><path d="M0 128 L96 128" transform="translate(16 -100)"/></g><view id="flagged" viewBox="0 256 128 128"/><path fill="#e60000" stroke="#0070f7" stroke-linecap="round" stroke-linejoin="round" stroke-width="8" d="M60.9 26.34 A33.3936 33.3936 0 0 1 79.83 9.23 A1 1 0 0 1 80.02 9.19 A43.3688 43.3688 0 0 1 98.32 10.38 A1 1 0 0 1 98.48 10.44 A36.313 36.313 0 0 1 118.8 40.99 A1 1 0 0 1 118.8 41.01 A55.4825 55.4825 0 0 1 105.01 79.99 A1 1 0 0 1 104.99 80.01 L60.73 127.22 A1 1 0 0 1 59.27 127.22 L15.01 80.01 A1 1 0 0 1 14.99 79.99 A55.4825 55.4825 0 0 1 1.2 41.01 A1 1 0 0 1 1.2 40.99 A36.313 36.313 0 0 1 21.52 10.44 A1 1 0 0 1 21.68 10.38 A42.8162 42.8162 0 0 1 39.86 9.19 A1 1 0 0 1 40.05 9.23 A33.5934 33.5934 0 0 1 59.09 26.34 A1 1 -180 0 0 60.9 26.34 Z" transform="translate(4 252)"/><view id="github" viewBox="128 256 128 128"/><path fill="#24292e" d="M62 6 A64.1951 63.1597 -180 0 0 40.92 128 C44.64 128 45.88 125.56 45.88 124.34 L45.88 113.36 C31 115.8 26.04 108.48 24.8 106.04 C24.8 103.6 21.08 97.5 18.6 96.28 C16.12 95.06 13.64 91.4 18.6 92.62 C23.56 92.62 27.28 97.5 28.52 98.72 C33.48 108.48 42.16 106.04 45.88 103.6 C47.12 99.94 48.36 97.5 50.84 96.28 C35.96 93.84 22.32 88.96 22.32 64.56 C22.32 58.46 24.8 52.36 28.52 48.7 C27.28 46.26 24.8 40.16 28.52 31.62 C28.52 31.62 34.72 30.4 45.88 37.72 A49.6039 48.8038 0 0 1 76.88 37.72 C89.28 30.4 94.24 30.4 94.24 31.62 C97.96 40.16 95.48 46.26 95.48 48.7 C99.2 52.36 101.68 57.24 101.68 64.56 C101.68 88.96 86.8 93.84 73.16 96.28 C75.64 97.5 76.88 101.16 76.88 107.26 L76.88 124.34 C76.88 125.56 78.12 128 81.84 128 A63.8783 62.848 -180 0 0 62 6 Z" transform="translate(130 253)"/><view id="grip" viewBox="256 256 128 128"/><path stroke="#639" stroke-linecap="round" stroke-linejoin="round" stroke-width="14" d="M0 16 L64 72 L0 128" transform="translate(280 248)"/><view id="guide" viewBox="384 256 128 128"/><g transform="translate(384 256)"><circle cx="64" cy="64" r="60" stroke="#0070f7" stroke-linecap="round" stroke-linejoin="round" stroke-width="6"/><path stroke="#0070f7" stroke-linecap="round" stroke-linejoin="round" stroke-width="12" d="M-0 86.98 A22.309 20.1177 91 1 1 33.7 106.46 A9 9 0 0 1 29.51 108.96 A15.2251 13.5025 -103.17 0 0 20.32 118.57 A9 9 -180 0 0 20 120.96 L20.01 128" transform="translate(44 -44)"/><circle cx="64" cy="105" r="6" fill="#0070f7"/></g><view id="highlight" viewBox="512 256 128 128"/><g stroke="#0070f7" stroke-linecap="round" stroke-linejoin="round" transform="translate(514 212)"><path fill="#ff0" stroke-width="6" d="M0 128 L40 128 L34 45.8 A98.5 98.5 -180 0 0 6 45.8 L0 128 Z" transform="rotate(90 39 127)"/><path fill="#222d65" stroke-width="6" d="M40 97.5 L0 97.5 L0 104.21 A35.7485 35.7485 0 0 1 16 128 L24 128 A35.7485 35.7485 0 0 1 40 104.21 L40 97.5 Z" transform="rotate(90 23.8 111.8)"/><path fill="#ff0" stroke-width="2" d="M8 120.37 L0 120.37 L0 128 L8 125.46 L8 120.37 Z" transform="rotate(90 12 116)"/></g><view id="history" viewBox="640 256 128 128"/><g stroke="#0070f7" stroke-linecap="round" stroke-linejoin="round" stroke-width="6" transform="translate(640 256)"><path d="M36 70 L0 99 L36 128" transform="rotate(-51 1.6 17.4)"/><g transform="translate(8.8 -3.4)"><path d="M23.15 27.4 A55.4987 55.4987 0 1 1 0.15 68.4"/><path d="M30.01 7.28 L23.15 27.4 L44.01 31.53"/></g></g><view id="home" viewBox="768 256 128 128"/><path stroke="#0070f7" stroke-linecap="round" stroke-linejoin="round" stroke-width="6" d="M72 128 L108 128 L108 68 L120 68 L60 8 L0 68 L12 68 L12 128 L48 128 L48 92 L72 92 L72 128 Z" transform="translate(772 252)"/><view id="import" viewBox="0 384 128 128"/><g transform="translate(0 384)"><path stroke="#0070f7" stroke-width="6" d="M0 96 12 84 24 96M12 128 12 88" transform="translate(52 -24)"/><g transform="translate(18 -4)"><path d="M0 8 L0 128 L92 128 L92 36.8 L64.4 8 L0 8 Z"/><path stroke="#0070f7" stroke-linecap="round" stroke-linejoin="round" stroke-width="6" d="M64 8 L64 37 L92 37"/><path stroke="#0070f7" stroke-linecap="round" stroke-linejoin="round" stroke-width="6" d="M0 8 L0 128 L92 128 L92 36.8 L64.4 8 L0 8"/></g></g><view id="link" viewBox="128 384 128 128"/><g stroke="#0070f7" stroke-linecap="round" stroke-linejoin="round" stroke-width="6" transform="translate(132 350)"><path d="M28 128 L20 128 A20 20 0 0 1 20 88 L60 88 A20 20 0 0 1 60 128 L52 128" transform="translate(0 -20)"/><path d="M28 128 L20 128 A20 20 0 0 1 20 88 L60 88 A20 20 0 0 1 60 128 L52 128" transform="matrix(1 0 0 -1 40 216)"/></g><view id="linkedin" viewBox="256 384 128 128"/><path fill="#0a66c2" d="M126 11.26 L126 118.74 A9.26471 9.26471 0 0 1 116.74 128 L9.26 128 A9.26471 9.26471 0 0 1 0 118.74 L0 11.26 A9.26471 9.26471 0 0 1 9.26 2 L116.74 2 A9.26471 9.26471 0 0 1 126 11.26 ZM37.06 50.18 L18.53 50.18 L18.53 109.47 L37.06 109.47 L37.06 50.18 ZM38.91 29.79 A10.7471 10.7471 -180 0 0 27.79 19.05 A10.7471 10.7471 -180 0 0 27.79 40.54 A10.7471 10.7471 -180 0 0 38.91 30.16 L38.91 29.79 ZM107.47 73.52 C107.47 55.74 96.35 48.69 84.86 48.69 A21.1235 21.1235 -180 0 0 66.34 58.33 L65.59 58.33 L65.59 50.18 L48.18 50.18 L48.18 109.47 L66.71 109.47 L66.71 77.97 A12.2294 12.2294 0 0 1 77.82 64.63 L78.56 64.63 C84.49 64.63 88.94 68.34 88.94 77.6 L88.94 109.47 L107.47 109.47 L107.47 73.52 Z" transform="translate(257 383)"/><view id="matrix" viewBox="384 384 128 128"/><g stroke="#0070f7" transform="translate(388 380)"><path stroke-linecap="round" stroke-linejoin="round" stroke-width="6" d="M0 8H120V128H0z"/><path stroke-width="8" d="M0 128 L116 128" transform="translate(2 -96)"/><path stroke-width="4" d="M0 128 L116 128" transform="rotate(-90 17 109)"/><path stroke-width="4" d="M0 128 L116 128" transform="rotate(-90 41 85)"/><path stroke-width="4" d="M0 128 L116 128" transform="translate(2 -72)"/><path stroke-width="4" d="M0 128 L116 128" transform="translate(2 -48)"/><path stroke-width="4" d="M0 128 L116 128" transform="translate(2 -24)"/></g><view id="move" viewBox="512 384 128 128"/><path stroke="#639" stroke-linecap="square" stroke-linejoin="square" stroke-width="10" d="M109.3 52.7 120.6 64m-67.9 45.2L64 120.6M7.5 64l11.3 11.3M64 7.4l11.3 11.3m0 90.5L64 120.6m-45.2-68L7.5 64M64 7.4 52.7 18.7M120.6 64l-11.3 11.3m5.6-11.3H13.1m51 50.9V13.1" transform="translate(512 384)"><animateTransform additive="sum" attributeName="transform" attributeType="XML" dur="1s" repeatCount="indefinite" type="translate" values="64 64"/><animateTransform additive="sum" attributeName="transform" attributeType="XML" dur="1s" repeatCount="indefinite" type="rotate" values="0;10;0;-10;0"/><animateTransform additive="sum" attributeName="transform" attributeType="XML" dur="1s" repeatCount="indefinite" type="translate" values="-64 -64"/></path><view id="new" viewBox="640 384 128 128"/><path stroke="#e60000" stroke-linecap="round" stroke-linejoin="round" stroke-width="6" d="M17.6 110.4 102.4 25.6M17.6 25.6 102.4 110.4M0 68 120 68M60 8 60 128" transform="translate(644 380)"/><view id="paypal" viewBox="768 384 128 128"/><g transform="translate(768 384)"><path fill="#012169" d="M43.5 28.8H106.3V76.2H43.5z"/><path fill="#009cde" d="M28.65 72.72 A41.0146 41.0146 179.99 0 0 69.81 35.01 A20.8628 20.8628 0 0 1 80.25 54.81 A38.6945 38.6945 0 0 1 36.7 93.53 A4.53162 4.53162 -86.01 0 0 32.34 97.4 L27.98 124.12 A4.91092 4.91092 0 0 1 23.92 128 L3.78 128 A3.27491 3.27491 97.43 0 1 0.25 123.53 L7.66 76.94 A5.41113 5.41113 68.21 0 1 12.5 72.71 L28.65 72.72 Z" transform="translate(36.5 -1.4)"/><path fill="#003087" d="M27.1 128 L39.48 49.01 A4.8867 4.88931 0 0 1 43.93 45.04 L76.73 45.04 A42.0001 42.0226 0 0 1 95.02 49.01 A24.2278 24.2408 -180 0 0 73.54 18.62 L62.9 17.45 L21.3 17.45 A5.11586 5.11859 -180 0 0 16.36 21.33 L0 124.42 A3.35781 3.3596 -180 0 0 2.91 128 L27.1 128 Z" transform="translate(11.3 -15.3)"/></g><view id="print" viewBox="0 512 128 128"/><g transform="translate(0 512)"><circle cx="20.8" cy="61.2" r="4.8" fill="#0070f7"/><g transform="translate(4 -4)"><path d="M31.69 50 L84.99 50 A97.0789 101.995 0 0 1 88.8 10 L35.5 10 A95.7806 100.631 -180 0 0 31.69 50 ZM28 128 L92 128 L92 88 L28 88 L28 128 Z"/><path stroke="#0070f7" stroke-width="6" d="M31.7 50 85 50A97.1 102 0 0 1 88.8 10L35.5 10A95.8 100.6-180 0 0 31.7 50M24 100.8 0 100.8 0 65.7A17.1 17.4 0 0 1 18 52L102 52A17.1 17.4 0 0 1 120 65.7L120 100.8 96 100.8"/><path stroke="#0070f7" stroke-width="6" d="M28 128 L92 128 L92 88 L28 88 L28 128"/></g></g><view id="rename" viewBox="128 512 128 128"/><g transform="translate(128 512)"><path stroke="#0070f7" stroke-linecap="round" stroke-linejoin="round" stroke-width="6" d="M6 104 A5.67 5.67 -180 0 0 0 108.8 L0 123.2 A5.67 5.67 -180 0 0 6 128 L114 128 A5.67 5.67 -180 0 0 120 123.2 L120 108.8 A5.67 5.67 -180 0 0 114 104 L6 104 Z" transform="translate(4 -52)"/><circle cx="16" cy="64" r="4.8" fill="#0070f7"/><circle cx="32" cy="64" r="4.8" fill="#0070f7"/><circle cx="48" cy="64" r="4.8" fill="#0070f7"/><g stroke="#0070f7" stroke-width="6" transform="translate(64 -30)"><path d="M0 128 L64 128" transform="rotate(-90 7 119)"/><path d="M0 128 L12 128" transform="rotate(180 16 94)"/><path d="M0 128 L12 128" transform="rotate(180 6 94)"/><path d="M0 128 L12 128" transform="rotate(180 16 128)"/><path d="M0 128 L12 128" transform="rotate(180 6 128)"/></g><circle cx="64" cy="64" r="4.8" fill="#0070f7"/></g><view id="resize" viewBox="256 512 128 128"/><path stroke="#639" stroke-linecap="square" stroke-linejoin="square" stroke-width="10" d="M98 8h22M98 120h22M8 120h22M8 8h22m90 90v22M8 98v22M8 8v22M120 8v22m-6-16L14 114m100 0L14 14" transform="translate(256 512)"><animateTransform additive="sum" attributeName="transform" attributeType="XML" dur="1s" repeatCount="indefinite" type="translate" values="64 64"/><animateTransform additive="sum" attributeName="transform" attributeType="XML" dur="1s" repeatCount="indefinite" type="scale" values="1.0;0.9;1.0"/><animateTransform additive="sum" attributeName="transform" attributeType="XML" dur="1s" repeatCount="indefinite" type="translate" values="-64 -64"/></path><view id="rotate" viewBox="384 512 128 128"/><g stroke="#639" stroke-linecap="round" stroke-linejoin="round" stroke-width="6" transform="translate(384 512)"><path d="M46 128a47 46-139 0 0 46-46M0 82a47 46-41 0 0 46 46m0-92A47 46-139 0 0 0 82"/><path d="m33 24 14 12-14 13"/><animateTransform additive="sum" attributeName="transform" attributeType="XML" dur="1s" repeatCount="indefinite" type="translate" values="64 64"/><animateTransform additive="sum" attributeName="transform" attributeType="XML" dur="1s" repeatCount="indefinite" type="rotate" values="0;360"/><animateTransform additive="sum" attributeName="transform" attributeType="XML" dur="1s" repeatCount="indefinite" type="translate" values="-46 -82"/></g><view id="save-changes" viewBox="512 512 128 128"/><g transform="translate(516 508)"><path d="M0 8 L0 110 L18 128 L120 128 L120 8 L0 8 Z"/><path stroke="#639" stroke-linecap="round" stroke-linejoin="round" stroke-width="6" d="M0 8 L0 110 L18 128 L120 128 L120 8 L0 8"/><path stroke="#639" stroke-linecap="round" stroke-linejoin="round" stroke-width="6" d="M12 8 12 68 108 68 108 8M96 128 96 92 24 92 24 128"/></g><view id="save" viewBox="640 512 128 128"/><g transform="translate(644 508)"><path d="M0 8 L0 110 L18 128 L120 128 L120 8 L0 8 Z"/><path stroke="#0070f7" stroke-linecap="round" stroke-linejoin="round" stroke-width="6" d="M0 8 L0 110 L18 128 L120 128 L120 8 L0 8"/><path stroke="#0070f7" stroke-linecap="round" stroke-linejoin="round" stroke-width="6" d="M12 8 12 68 108 68 108 8M96 128 96 92 24 92 24 128"/></g><view id="search" viewBox="768 512 128 128"/><g transform="translate(768 512)"><path stroke="#0070f7" stroke-linecap="round" stroke-linejoin="round" stroke-width="6" d="M-0 108.86 A10.4115 10.0582 93.01 1 1 19.52 113.57 A9 9 0 0 1 14.07 119.32 A7.15762 6.70166 -117.07 0 0 10.22 123.4 A4.5 4.5 -180 0 0 10 124.8 L10 128" transform="translate(30 -80)"/><circle cx="40" cy="58" r="3" fill="#0070f7"/><g transform="translate(4 -4)"><path d="M72 44 A36 36 -180 1 0 -0 44 A36 36 -180 1 0 72 44 Z"/><path stroke="#0070f7" stroke-linecap="round" stroke-linejoin="round" stroke-width="6" d="M72 44A36 36-180 1 0 0 44 36 36-180 1 0 72 44M62 70 120 128"/></g></g><view id="section-top" viewBox="0 640 128 128"/><g stroke="#0070f7" stroke-width="6" transform="translate(0 640)"><path stroke-linecap="round" stroke-linejoin="round" d="M0 128 L120 128" transform="translate(4 -124)"/><path stroke-linecap="round" stroke-linejoin="round" d="M0 128 L52 128" transform="translate(72 -104)"/><path d="M0 72 24 44 48 72M24 128 24 48" transform="translate(74 -4)"/></g><view id="text" viewBox="128 640 128 128"/><path fill="#080" d="M83.14 75.13 L38.86 75.13 L61 18.2 L83.14 75.13 ZM0 128 L18.3 128 L32.53 91.4 L89.47 91.4 L103.7 128 L122 128 L73.2 6 L48.8 6 L0 128 Z" transform="translate(131 637)"/><view id="theme" viewBox="256 640 128 128"/><g stroke="#0070f7" stroke-linecap="round" stroke-linejoin="round" stroke-width="6" transform="translate(256 640)"><circle cx="64" cy="64" r="22" fill="#ff0"/><path d="M0 128 L24 128" transform="rotate(90 94 98)"/><path d="M0 128 L24 128" transform="rotate(90 46 146)"/><path d="M0 128 L24 128" transform="rotate(45 139.3 100.8)"/><path d="M0 128 L24 128" transform="rotate(45 91.3 216.7)"/><path d="M0 128 L24 128" transform="translate(4 -64)"/><path d="M0 128 L24 128" transform="translate(100 -64)"/><path d="M0 128 L24 128" transform="rotate(-45 -15.3 91.2)"/><path d="M0 128 L24 128" transform="rotate(-45 -63.3 -24.7)"/></g><view id="top" viewBox="384 640 128 128"/><g stroke="#0070f7" stroke-width="6" transform="translate(384 640)"><path stroke-linecap="round" stroke-linejoin="round" d="M0 128 L120 128" transform="translate(4 -124)"/><path stroke-linecap="round" stroke-linejoin="round" d="M0 128 L52 128" transform="translate(72 -64)"/><path stroke-linecap="round" stroke-linejoin="round" d="M0 128 L52 128" transform="translate(72 -4)"/><path stroke-linecap="round" stroke-linejoin="round" d="M0 128 L52 128" transform="translate(72 -34)"/><path d="M0 52 24 24 48 52M24 128 24 28" transform="translate(6 -4)"/></g><view id="twitter" viewBox="512 640 128 128"/><path fill="#1da1f2" d="M8.77 30.84 A76.2294 76.2294 -180 0 0 62.08 57.76 A25.8244 25.8244 0 0 1 106.18 34.25 A38.1634 38.1634 -180 0 0 122.52 28.03 A21.4957 21.4957 0 0 1 111.15 42.27 A29.6604 29.6604 -180 0 0 126 38.22 A40.9217 40.9217 0 0 1 113.45 51.27 A73.896 73.896 0 0 1 -0 116.58 A51.3038 51.3038 -180 0 0 38.27 105.94 A25.0692 25.0692 0 0 1 14.14 88.04 A17.4893 17.4893 -180 0 0 25.79 87.6 A25.5834 25.5834 0 0 1 5.06 62.03 A18.9244 18.9244 -180 0 0 16.76 65.23 A25.7609 25.7609 0 0 1 8.77 30.84 Z" transform="translate(513 627)"/><view id="unflagged" viewBox="640 640 128 128"/><path stroke="#0070f7" stroke-linecap="round" stroke-linejoin="round" stroke-width="8" d="M60.9 26.34 A33.3936 33.3936 0 0 1 79.83 9.23 A1 1 0 0 1 80.02 9.19 A43.3688 43.3688 0 0 1 98.32 10.38 A1 1 0 0 1 98.48 10.44 A36.313 36.313 0 0 1 118.8 40.99 A1 1 0 0 1 118.8 41.01 A55.4825 55.4825 0 0 1 105.01 79.99 A1 1 0 0 1 104.99 80.01 L60.73 127.22 A1 1 0 0 1 59.27 127.22 L15.01 80.01 A1 1 0 0 1 14.99 79.99 A55.4825 55.4825 0 0 1 1.2 41.01 A1 1 0 0 1 1.2 40.99 A36.313 36.313 0 0 1 21.52 10.44 A1 1 0 0 1 21.68 10.38 A42.8162 42.8162 0 0 1 39.86 9.19 A1 1 0 0 1 40.05 9.23 A33.5934 33.5934 0 0 1 59.09 26.34 A1 1 -180 0 0 60.9 26.34 Z" transform="translate(644 636)"/><view id="zoom" viewBox="768 640 128 128"/><g transform="translate(768 640)"><path stroke="#0070f7" stroke-width="6" d="M0 108 40 108M20 128 20 88" transform="translate(20 -68)"/><g transform="translate(4 -4)"><path d="M72 44 A36 36 -180 1 0 -0 44 A36 36 -180 1 0 72 44 Z"/><path stroke="#0070f7" stroke-linecap="round" stroke-linejoin="round" stroke-width="6" d="M72 44A36 36-180 1 0 0 44 36 36-180 1 0 72 44M62 70 120 128"/></g></g></svg>