<svg xmlns="http://www.w3.org/2000/svg" width="128" height="128" fill="none" viewBox="0 0 1152 1152"><view id="arrow-down" preserveAspectRatio="none" viewBox="0 0 128 128"/><path fill="red" stroke="#7f0000" stroke-linecap="round" stroke-linejoin="round" stroke-width="3" d="M64 126 2 64h37.2V2h49.6v62H126l-62 62Z"/><view id="arrow-left" preserveAspectRatio="none" viewBox="128 0 128 128"/><path fill="#00f" stroke="#00007f" stroke-linecap="round" stroke-linejoin="round" stroke-width="3" d="m130 64 62-62v37.2h62v49.6h-62V126l-62-62Z"/><view id="arrow-right" preserveAspectRatio="none" viewBox="256 0 128 128"/><path fill="#ffc000" stroke="#c07f00" stroke-linecap="round" stroke-linejoin="round" stroke-width="3" d="M382 64 320 2v37.2h-62v49.6h62V126l62-62Z"/><view id="arrow-up" preserveAspectRatio="none" viewBox="384 0 128 128"/><path fill="#0f0" stroke="#007f00" stroke-linecap="round" stroke-linejoin="round" stroke-width="3" d="m448 2-62 62h37.2v62h49.6V64H510L448 2Z"/><view id="back" preserveAspectRatio="none" viewBox="512 0 128 128"/><path stroke="#0070f7" stroke-linecap="round" stroke-linejoin="round" stroke-width="11" d="M520.3 64H634m-69.6-44L518 64l46.4 44"/><view id="changes" preserveAspectRatio="none" viewBox="640 0 128 128"/><path stroke="#0070f7" stroke-linecap="round" stroke-linejoin="round" stroke-width="6" d="m742.6 7.7 17.7 17.7a12.5 12.5 0 1 0-17.7-17.7ZM668 100l24.6-7.4a16.8 16.8 0 0 0-17.2-17.2L668 100Zm74.4-92.1-66.6 66.6a17.2 17.2 0 0 1 17.7 17.7L760 25.6 742.4 7.9Z"/><g stroke="#0070f7" stroke-linecap="round" stroke-linejoin="round" stroke-width="6"><path d="M696 124a52 53.3-45 0 0 52-52m-104 0a53.3 52-45 0 0 52 52m0-104a52 53.3-45 0 0-52 52"/><path d="m681 6 16 14-16 14"/></g><view id="cog" preserveAspectRatio="none" viewBox="768 0 128 128"/><path stroke="#0070f7" stroke-width="6" d="m842.6 5 23.6 9.4-4.7 11.8 8.3 8.3 11.8-4.7 9.4 22.4-11.8 5.9v11.8l11.8 5.9-9.4 22.4-11.8-4.7-9.5 8.3 6 11.8-23.7 9.4-4.7-11.8h-11.8l-5.9 11.8-22.4-9.4 4.7-11.8-8.3-8.3-11.8 4.7-9.4-22.4 11.8-5.9V58.1L773 52.2l9.4-22.4 11.8 4.7 8.3-8.3-4.7-11.8L821.4 5l4.7 11.8h11.8L842.6 5Z"/><circle cx="64" cy="64" r="12" stroke="#0070f7" stroke-linecap="round" stroke-linejoin="round" stroke-width="6" transform="translate(768)"/><view id="compare" preserveAspectRatio="none" viewBox="896 0 128 128"/><path d="M912 110h96a8 8 0 0 0 8-8V26a8 8 0 0 0-8-8h-96a8 8 0 0 0-8 8v76a8 8 0 0 0 8 8Z"/><path stroke="#0070f7" stroke-linecap="round" stroke-linejoin="round" stroke-width="8" d="M912 110h96a8 8 0 0 0 8-8V26a8 8 0 0 0-8-8h-96a8 8 0 0 0-8 8v76a8 8 0 0 0 8 8M960 6v116"/><view id="controls" preserveAspectRatio="none" viewBox="1024 0 128 128"/><path d="M1064 16a8 8 0 1 0-16 0 8 8 0 1 0 16 0Z"/><path stroke="#0070f7" stroke-linecap="round" stroke-linejoin="round" stroke-width="8" d="M1140 16h-104m28 0a8 8 0 1 0-16 0 8 8 0 1 0 16 0"/><path d="M1120 48a8 8 0 1 0-16 0 8 8 0 1 0 16 0Z"/><path stroke="#0070f7" stroke-linecap="round" stroke-linejoin="round" stroke-width="8" d="M1140 48h-104m84 0a8 8 0 1 0-16 0 8 8 0 1 0 16 0"/><path d="M1090 80a8 8 0 1 0-16 0 8 8 0 1 0 16 0Z"/><path stroke="#0070f7" stroke-linecap="round" stroke-linejoin="round" stroke-width="8" d="M1140 80h-104m54 0a8 8 0 1 0-16 0 8 8 0 1 0 16 0"/><path d="M1114 112a8 8 0 1 0-16 0 8 8 0 1 0 16 0Z"/><path stroke="#0070f7" stroke-linecap="round" stroke-linejoin="round" stroke-width="8" d="M1140 112h-104m78 0a8 8 0 1 0-16 0 8 8 0 1 0 16 0"/><view id="cross" preserveAspectRatio="none" viewBox="0 128 128 128"/><path fill="red" stroke="#7f0000" stroke-linecap="round" stroke-linejoin="round" stroke-width="3" d="M2 149.8A99 99 0 0 1 21.8 130 419.5 419.5 0 0 1 64 169.7a419.5 419.5 0 0 1 42.2-39.7 99 99 0 0 1 19.8 19.8A419.5 419.5 0 0 1 86.3 192a419.5 419.5 0 0 1 39.7 42.2 99 99 0 0 1-19.8 19.8A419.5 419.5 0 0 1 64 214.3 419.5 419.5 0 0 1 21.8 254 99 99 0 0 1 2 234.2 419.5 419.5 0 0 1 41.7 192 419.5 419.5 0 0 1 2 149.8Z"/><view id="defaults" preserveAspectRatio="none" viewBox="128 128 128 128"/><path stroke="#0070f7" stroke-width="5" d="m198.5 156 14.4 5.8-2.9 7.2 5 5 7.2-2.9 5.8 13.7-7.2 3.6v7.2l7.2 3.6-5.8 13.7-7.2-2.9-5.7 5 3.6 7.2-14.4 5.8-2.9-7.2h-7.2l-3.6 7.2-13.7-5.8 2.9-7.2-5-5-7.2 2.9-5.8-13.7 7.2-3.6v-7.2l-7.2-3.6 5.8-13.7 7.2 2.9 5-5-2.9-7.2 14.4-5.8 2.9 7.2h7.2l2.9-7.2Z"/><circle cx="64" cy="64" r="8" stroke="#0070f7" stroke-linecap="round" stroke-linejoin="round" stroke-width="5" transform="translate(128 128)"/><g stroke="#0070f7" stroke-linecap="round" stroke-linejoin="round" stroke-width="8"><path d="m248.1 240-4.1-21-20.1 7"/><path d="M243.4 220.3a61.5 59.4 75 0 1-81.1 21.7"/></g><g stroke="#0070f7" stroke-linecap="round" stroke-linejoin="round" stroke-width="8"><path d="M140.6 163.7a61.5 59.4 75 0 1 81.1-21.7"/><path d="m139.4 142.9.5 21.2 21-3.2"/></g><view id="delete" preserveAspectRatio="none" viewBox="256 128 128 128"/><path stroke="#0070f7" stroke-width="10" d="M376 136 264 248m112 0L264 136"/><view id="download" preserveAspectRatio="none" viewBox="384 128 128 128"/><path stroke="#0070f7" stroke-width="6" d="M430 204h-18a25 25.4 0 1 1 14.4-47.2 29 28 0 0 1 57.6 4.1 22.4 21.6 0 1 1 0 43.1h-18m-30 20 12 12 12-12m-12 8v-40"/><view id="draw" preserveAspectRatio="none" viewBox="512 128 128 128"/><path fill="#222d65" stroke="#0070f7" stroke-linecap="round" stroke-linejoin="round" stroke-width="6" d="M609.2 136.6a15.7 15.7 0 1 1 22.2 22.2l-22.2-22.2Z"/><path fill="#ff0" stroke="#0070f7" stroke-linecap="round" stroke-linejoin="round" stroke-width="6" d="m516 252 9.2-30.8a21 21 0 0 1 21.6 21.6L516 252Z"/><path fill="#e60000" stroke="#0070f7" stroke-linecap="round" stroke-linejoin="round" stroke-width="6" d="M609 136.9 525.7 220a21.5 21.5 0 0 1 22.2 22.2L631 159l-22-22.1Z"/><view id="edit" preserveAspectRatio="none" viewBox="640 128 128 128"/><path stroke="#0070f7" stroke-linecap="round" stroke-linejoin="round" stroke-width="4" d="m749.3 133.8 12.9 13a10 9.1-45 1 0-13-13Zm-60 73 19-6.5a13.4 12.3-45 0 0-12.6-12.6l-6.5 19ZM749 134l-53 53a12.5 13.7 45 0 1 12.8 13l53-53.1L749 134Z"/><path stroke="#0070f7" stroke-linecap="round" stroke-linejoin="round" stroke-width="6" d="M715.7 144h-60.5a14.1 14.1 0 0 0-11.2 10.8v86.4a14.1 14.1 0 0 0 11.2 10.8h89.6a14.1 14.1 0 0 0 11.2-10.8v-64.8"/><view id="erase" preserveAspectRatio="none" viewBox="768 128 128 128"/><path fill="#ff2da6" stroke="#0070f7" stroke-width="4" d="M776 220.8a5.2 5.2 0 0 1-.7-6l51.8-51.9 34 34-51.8 51.8a5.2 5.2 0 0 1-6.1-.7L776 220.8Z"/><path fill="#0070c0" stroke="#0070f7" stroke-width="4" d="M854.4 135.6a5.7 5.7 0 0 1 6.5.4l27.1 27.1a5.7 5.7 0 0 1 .4 6.5L861 196.8 827 163l27.3-27.3Z"/><view id="export" preserveAspectRatio="none" viewBox="896 128 128 128"/><path stroke="#0070f7" stroke-width="6" d="m948 224 12 12 12-12m-12 8v-40"/><path d="M914 132v120h92v-91.2L978.4 132H914Z"/><path stroke="#0070f7" stroke-linecap="round" stroke-linejoin="round" stroke-width="6" d="M978 132v29h28"/><path stroke="#0070f7" stroke-linecap="round" stroke-linejoin="round" stroke-width="6" d="M914 132v120h92v-91.2L978.4 132H914"/><view id="flagged" preserveAspectRatio="none" viewBox="1024 128 128 128"/><path fill="#e60000" stroke="#0070f7" stroke-linecap="round" stroke-linejoin="round" stroke-width="8" d="M1088.9 150.3a33.4 33.4 0 0 1 19-17 1 1 0 0 1 .1-.1 43.4 43.4 0 0 1 18.3 1.2 1 1 0 0 1 .2 0 36.3 36.3 0 0 1 20.3 30.6 1 1 0 0 1 0 0 55.5 55.5 0 0 1-13.8 39 1 1 0 0 1 0 0l-44.3 47.2a1 1 0 0 1-1.4 0L1043 204a1 1 0 0 1 0 0 55.5 55.5 0 0 1-13.8-39 1 1 0 0 1 0 0 36.3 36.3 0 0 1 20.3-30.6 1 1 0 0 1 .2 0 42.8 42.8 0 0 1 18.2-1.2 1 1 0 0 1 .1 0 33.6 33.6 0 0 1 19 17.1 1 1 0 0 0 1.9 0Z"/><view id="github-dark" preserveAspectRatio="none" viewBox="0 256 128 128"/><path fill="#171516" d="M64 259a63.2 64.2-90 0 0-21 122c3.6 0 4.9-2.4 4.9-3.7v-11C33 368.9 28 361.6 26.8 359c0-2.4-3.7-8.5-6.2-9.7-2.5-1.2-5-4.9 0-3.7 5 0 8.7 4.9 10 6.1 4.9 9.8 13.6 7.3 17.3 4.9 1.2-3.7 2.5-6.1 5-7.3-15-2.5-28.6-7.3-28.6-31.7a23 23 0 0 1 6.2-15.9 19.3 19.3 0 0 1 0-17s6.2-1.3 17.4 6a49.6 48.8 0 0 1 31 0c12.4-7.3 17.3-7.3 17.3-6 3.8 8.5 1.3 14.6 1.3 17a21 21 0 0 1 6.2 15.9c0 24.4-14.9 29.2-28.5 31.7 2.4 1.2 3.7 4.9 3.7 11v17c0 1.3 1.2 3.7 5 3.7A62.8 63.9-90 0 0 64 259Z"/><view id="github-light" preserveAspectRatio="none" viewBox="128 256 128 128"/><path fill="#fff" d="M192 259a63.2 64.2-90 0 0-21 122c3.6 0 4.9-2.4 4.9-3.7v-11c-14.9 2.5-19.9-4.8-21.1-7.3 0-2.4-3.7-8.5-6.2-9.7-2.5-1.2-5-4.9 0-3.7 5 0 8.7 4.9 10 6.1 4.9 9.8 13.6 7.3 17.3 4.9 1.2-3.7 2.5-6.1 5-7.3-15-2.5-28.6-7.3-28.6-31.7a23 23 0 0 1 6.2-15.9 19.3 19.3 0 0 1 0-17s6.2-1.3 17.4 6a49.6 48.8 0 0 1 31 0c12.4-7.3 17.3-7.3 17.3-6 3.8 8.5 1.3 14.6 1.3 17a21 21 0 0 1 6.2 15.9c0 24.4-14.9 29.2-28.5 31.7 2.4 1.2 3.7 4.9 3.7 11v17c0 1.3 1.2 3.7 5 3.7A62.8 63.9-90 0 0 192 259Z"/><view id="grip" preserveAspectRatio="none" viewBox="256 256 128 128"/><path stroke="#639" stroke-linecap="round" stroke-linejoin="round" stroke-width="14" d="m288 264 64 56-64 56"/><view id="guide" preserveAspectRatio="none" viewBox="384 256 128 128"/><circle cx="64" cy="64" r="60" stroke="#0070f7" stroke-linecap="round" stroke-linejoin="round" stroke-width="6" transform="translate(384 256)"/><path stroke="#0070f7" stroke-linecap="round" stroke-linejoin="round" stroke-width="12" d="M428 299a20.1 22.3 1 1 1 33.7 19.5 9 9 0 0 1-4.2 2.5 13.5 15.2-13.2 0 0-9.2 9.6 9 9 0 0 0-.3 2.4v7"/><circle cx="64" cy="105" r="6" fill="#0070f7" transform="translate(384 256)"/><view id="highlight" preserveAspectRatio="none" viewBox="512 256 128 128"/><path fill="#ea7010" stroke="#0070f7" stroke-linecap="round" stroke-linejoin="round" stroke-width="6" d="m547.1 338.2 39.5 14.4 23.3-82.6a108.5 108.5 0 0 0-27.6-10l-35.2 78.2Z"/><path fill="#222d65" stroke="#0070f7" stroke-linecap="round" stroke-linejoin="round" stroke-width="6" d="M586.6 352.6 547 338.2l-2.4 6.6a38.8 38.8 0 0 1 7.3 29l8 2.8a38.8 38.8 0 0 1 24.2-17.5l2.4-6.5Z"/><path fill="#ea7010" stroke="#0070f7" stroke-linecap="round" stroke-linejoin="round" stroke-width="2" d="m560 376.6-8-2.8-2.7 7.4 8.8.4 1.8-5Z"/><view id="history" preserveAspectRatio="none" viewBox="640 256 128 128"/><path stroke="#0070f7" stroke-linecap="round" stroke-linejoin="round" stroke-width="6" d="M704.1 279.8 704 326l45.2-9.7"/><g stroke="#0070f7" stroke-linecap="round" stroke-linejoin="round" stroke-width="6"><path d="M672 280a55.5 55.5 0 1 1-23 41"/><path d="M678.9 259.9 672 280l20.9 4.1"/></g><view id="home" preserveAspectRatio="none" viewBox="768 256 128 128"/><path stroke="#0070f7" stroke-linecap="round" stroke-linejoin="round" stroke-width="6" d="M844 380h36v-60h12l-60-60-60 60h12v60h36v-36h24v36Z"/><view id="image" preserveAspectRatio="none" viewBox="896 256 128 128"/><circle cx="108" cy="36" r="6" fill="red" transform="translate(896 256)"/><path stroke="#a0c" stroke-width="6" d="m968 328 20.8-22 31.2 44"/><path stroke="#a0c" stroke-width="6" d="m900 337 40-42 60 70"/><path stroke="#0070f7" stroke-linecap="round" stroke-linejoin="round" stroke-width="6" d="M900 275h120v90H900z"/><view id="import" preserveAspectRatio="none" viewBox="1024 256 128 128"/><path stroke="#0070f7" stroke-width="6" d="m1076 328 12-12 12 12m-12 32v-40"/><path d="M1042 260v120h92v-91.2l-27.6-28.8H1042Z"/><path stroke="#0070f7" stroke-linecap="round" stroke-linejoin="round" stroke-width="6" d="M1106 260v29h28"/><path stroke="#0070f7" stroke-linecap="round" stroke-linejoin="round" stroke-width="6" d="M1042 260v120h92v-91.2l-27.6-28.8H1042"/><view id="label-done" preserveAspectRatio="none" viewBox="0 384 128 20"/><path fill="#404040" d="M0 394a9.2 9.2 0 0 1 8-10h112a9.2 9.2 0 0 1 8 10 9.2 9.2 0 0 1-8 10H8a9.2 9.2 0 0 1-8-10Z"/><text x="46.5" y="14.2" fill="#fff" font-family="Arial" font-size="14" font-weight="700" transform="translate(0 384)">Done</text><view id="label-in-progress" preserveAspectRatio="none" viewBox="128 384 128 20"/><path fill="#404040" d="M128 394a9.2 9.2 0 0 1 8-10h112a9.2 9.2 0 0 1 8 10 9.2 9.2 0 0 1-8 10H136a9.2 9.2 0 0 1-8-10Z"/><text x="25.9" y="14.2" fill="#fff" font-family="Arial" font-size="14" font-weight="700" transform="translate(128 384)">In progress</text><view id="label-mscw-c" preserveAspectRatio="none" viewBox="256 384 128 128"/><path fill="#00b0f0" d="M256 396.8a13.1 13.1 0 0 1 12.8-12.8h102.4a13.1 13.1 0 0 1 12.8 12.8v102.4a13.1 13.1 0 0 1-12.8 12.8H268.8a13.1 13.1 0 0 1-12.8-12.8V396.8Z"/><text x="17.8" y="109.4" fill="#fff" font-family="Arial" font-size="128" font-weight="700" transform="translate(256 384)">C</text><view id="label-mscw-m" preserveAspectRatio="none" viewBox="384 384 128 128"/><path fill="#002060" d="M384 396.8a13.1 13.1 0 0 1 12.8-12.8h102.4a13.1 13.1 0 0 1 12.8 12.8v102.4a13.1 13.1 0 0 1-12.8 12.8H396.8a13.1 13.1 0 0 1-12.8-12.8V396.8Z"/><text x="10.7" y="109.4" fill="#fff" font-family="Arial" font-size="128" font-weight="700" transform="translate(384 384)">M</text><view id="label-mscw-s" preserveAspectRatio="none" viewBox="512 384 128 128"/><path fill="#0070c0" d="M512 396.8a13.1 13.1 0 0 1 12.8-12.8h102.4a13.1 13.1 0 0 1 12.8 12.8v102.4a13.1 13.1 0 0 1-12.8 12.8H524.8a13.1 13.1 0 0 1-12.8-12.8V396.8Z"/><text x="21.3" y="109.4" fill="#fff" font-family="Arial" font-size="128" font-weight="700" transform="translate(512 384)">S</text><view id="label-mscw-w" preserveAspectRatio="none" viewBox="640 384 128 128"/><path fill="#7f7f7f" d="M640 396.8a13.1 13.1 0 0 1 12.8-12.8h102.4a13.1 13.1 0 0 1 12.8 12.8v102.4a13.1 13.1 0 0 1-12.8 12.8H652.8a13.1 13.1 0 0 1-12.8-12.8V396.8Z"/><text x="3.6" y="109.4" fill="#fff" font-family="Arial" font-size="128" font-weight="700" transform="translate(640 384)">W</text><view id="label-not-yet" preserveAspectRatio="none" viewBox="768 384 128 20"/><path fill="#404040" d="M768 394a9.2 9.2 0 0 1 8-10h112a9.2 9.2 0 0 1 8 10 9.2 9.2 0 0 1-8 10H776a9.2 9.2 0 0 1-8-10Z"/><text x="40.3" y="14.2" fill="#fff" font-family="Arial" font-size="14" font-weight="700" transform="translate(768 384)">Not yet</text><view id="label-on-hold" preserveAspectRatio="none" viewBox="896 384 128 20"/><path fill="#404040" d="M896 394a9.2 9.2 0 0 1 8-10h112a9.2 9.2 0 0 1 8 10 9.2 9.2 0 0 1-8 10H904a9.2 9.2 0 0 1-8-10Z"/><text x="37.6" y="14.2" fill="#fff" font-family="Arial" font-size="14" font-weight="700" transform="translate(896 384)">On hold</text><view id="label-phase-1" preserveAspectRatio="none" viewBox="1024 384 128 20"/><path fill="#404040" d="M1024 394a9.2 9.2 0 0 1 8-10h112a9.2 9.2 0 0 1 8 10 9.2 9.2 0 0 1-8 10h-112a9.2 9.2 0 0 1-8-10Z"/><text x="37.5" y="14.2" fill="#fff" font-family="Arial" font-size="14" font-weight="700" transform="translate(1024 384)">Phase 1</text><view id="label-phase-2" preserveAspectRatio="none" viewBox="0 512 128 20"/><path fill="#404040" d="M0 522a9.2 9.2 0 0 1 8-10h112a9.2 9.2 0 0 1 8 10 9.2 9.2 0 0 1-8 10H8a9.2 9.2 0 0 1-8-10Z"/><text x="37.5" y="14.2" fill="#fff" font-family="Arial" font-size="14" font-weight="700" transform="translate(0 512)">Phase 2</text><view id="label-phase-3" preserveAspectRatio="none" viewBox="128 512 128 20"/><path fill="#404040" d="M128 522a9.2 9.2 0 0 1 8-10h112a9.2 9.2 0 0 1 8 10 9.2 9.2 0 0 1-8 10H136a9.2 9.2 0 0 1-8-10Z"/><text x="37.5" y="14.2" fill="#fff" font-family="Arial" font-size="14" font-weight="700" transform="translate(128 512)">Phase 3</text><view id="label-priority-high" preserveAspectRatio="none" viewBox="256 512 128 20"/><path fill="#404040" d="M256 522a9.2 9.2 0 0 1 8-10h112a9.2 9.2 0 0 1 8 10 9.2 9.2 0 0 1-8 10H264a9.2 9.2 0 0 1-8-10Z"/><text x="48.5" y="14.2" fill="#fff" font-family="Arial" font-size="14" font-weight="700" transform="translate(256 512)">High</text><view id="label-priority-low" preserveAspectRatio="none" viewBox="384 512 128 20"/><path fill="#404040" d="M384 522a9.2 9.2 0 0 1 8-10h112a9.2 9.2 0 0 1 8 10 9.2 9.2 0 0 1-8 10H392a9.2 9.2 0 0 1-8-10Z"/><text x="50" y="14.2" fill="#fff" font-family="Arial" font-size="14" font-weight="700" transform="translate(384 512)">Low</text><view id="label-priority-medium" preserveAspectRatio="none" viewBox="512 512 128 20"/><path fill="#404040" d="M512 522a9.2 9.2 0 0 1 8-10h112a9.2 9.2 0 0 1 8 10 9.2 9.2 0 0 1-8 10H520a9.2 9.2 0 0 1-8-10Z"/><text x="37.6" y="14.2" fill="#fff" font-family="Arial" font-size="14" font-weight="700" transform="translate(512 512)">Medium</text><view id="label-purchased" preserveAspectRatio="none" viewBox="640 512 128 20"/><path fill="#404040" d="M640 522a9.2 9.2 0 0 1 8-10h112a9.2 9.2 0 0 1 8 10 9.2 9.2 0 0 1-8 10H648a9.2 9.2 0 0 1-8-10Z"/><text x="28.2" y="14.2" fill="#fff" font-family="Arial" font-size="14" font-weight="700" transform="translate(640 512)">Purchased</text><view id="label-purchasing" preserveAspectRatio="none" viewBox="768 512 128 20"/><path fill="#404040" d="M768 522a9.2 9.2 0 0 1 8-10h112a9.2 9.2 0 0 1 8 10 9.2 9.2 0 0 1-8 10H776a9.2 9.2 0 0 1-8-10Z"/><text x="25.9" y="14.2" fill="#fff" font-family="Arial" font-size="14" font-weight="700" transform="translate(768 512)">Purchasing</text><view id="label-testing" preserveAspectRatio="none" viewBox="896 512 128 20"/><path fill="#404040" d="M896 522a9.2 9.2 0 0 1 8-10h112a9.2 9.2 0 0 1 8 10 9.2 9.2 0 0 1-8 10H904a9.2 9.2 0 0 1-8-10Z"/><text x="39.1" y="14.2" fill="#fff" font-family="Arial" font-size="14" font-weight="700" transform="translate(896 512)">Testing</text><view id="label-will" preserveAspectRatio="none" viewBox="1024 512 128 20"/><path fill="#404040" d="M1024 522a9.2 9.2 0 0 1 8-10h112a9.2 9.2 0 0 1 8 10 9.2 9.2 0 0 1-8 10h-112a9.2 9.2 0 0 1-8-10Z"/><text x="51.6" y="14.2" fill="#fff" font-family="Arial" font-size="14" font-weight="700" transform="translate(1024 512)">Will</text><view id="light-green" preserveAspectRatio="none" viewBox="0 640 48 128"/><path fill="#000" d="M0 652a13.5 13.5 0 0 1 12-12h24a13.5 13.5 0 0 1 12 12v104a13.5 13.5 0 0 1-12 12H12a13.5 13.5 0 0 1-12-12V652Z"/><circle cx="18" cy="110" r="18" fill="#00b050" transform="translate(6 634)"/><path fill="#fff" d="m12.8 745.6 2.6-3.6a63 63 0 0 1 5.2 4.8 127.2 127.2 0 0 1 11.7-13l3 4.1a99.5 99.5 0 0 0-14.7 16.2 84 84 0 0 0-7.9-8.5Z"/><circle cx="24" cy="24" r="18" fill="#595959" transform="translate(0 640)"/><circle cx="24" cy="64" r="18" fill="#595959" transform="translate(0 640)"/><view id="light-red" preserveAspectRatio="none" viewBox="128 640 48 128"/><path fill="#000" d="M128 652a13.5 13.5 0 0 1 12-12h24a13.5 13.5 0 0 1 12 12v104a13.5 13.5 0 0 1-12 12h-24a13.5 13.5 0 0 1-12-12V652Z"/><circle cx="24" cy="64" r="18" fill="#595959" transform="translate(128 640)"/><circle cx="24" cy="104" r="18" fill="#595959" transform="translate(128 640)"/><circle cx="18" cy="110" r="18" fill="#c00000" transform="translate(134 554)"/><path fill="#fff" d="M149.8 652.8v4.5l1.3 9h1.8l1.3-9v-4.5h-4.4Zm.5 16.2h3.4v3.4h-3.4v-3.3Z"/><view id="light-yellow" preserveAspectRatio="none" viewBox="256 640 48 128"/><path fill="#000" d="M256 652a13.5 13.5 0 0 1 12-12h24a13.5 13.5 0 0 1 12 12v104a13.5 13.5 0 0 1-12 12h-24a13.5 13.5 0 0 1-12-12V652Z"/><circle cx="18" cy="110" r="18" fill="#ffc000" transform="translate(262 594)"/><path fill="#fff" d="m280 695-9 9 9 9 9-9-9-9Z"/><circle cx="24" cy="24" r="18" fill="#595959" transform="translate(256 640)"/><circle cx="24" cy="104" r="18" fill="#595959" transform="translate(256 640)"/><view id="link" preserveAspectRatio="none" viewBox="384 640 128 128"/><g stroke="#0070f7" stroke-linecap="round" stroke-linejoin="round" stroke-width="6"><path d="M416 714h-8a20 20 0 0 1 0-40h40a20 20 0 0 1 0 40h-8"/><path d="M456 694h-8a20 20 0 0 0 0 40h40a20 20 0 0 0 0-40h-8"/></g><view id="linkedin" preserveAspectRatio="none" viewBox="512 640 128 128"/><path fill="#0a66c2" d="M639 650.3v107.4a9.3 9.3 0 0 1-9.3 9.3H522.3a9.3 9.3 0 0 1-9.3-9.3V650.3a9.3 9.3 0 0 1 9.3-9.3h107.4a9.3 9.3 0 0 1 9.3 9.3Zm-89 38.9h-18.5v59.3h18.6v-59.3Zm2-20.4a10.7 10.7 0 0 0-11.2-10.8 10.7 10.7 0 0 0 0 21.5 10.7 10.7 0 0 0 11.1-10.3v-.4Zm68.5 43.7c0-17.8-11.1-24.8-22.6-24.8a21.1 21.1 0 0 0-18.6 9.6h-.7v-8.1h-17.4v59.3h18.5V717a12.2 12.2 0 0 1 11.1-13.4h.8c5.9 0 10.3 3.7 10.3 13v31.9h18.6v-36Z"/><view id="matrix" preserveAspectRatio="none" viewBox="640 640 128 128"/><g stroke="#0070f7"><path stroke-linecap="round" stroke-linejoin="round" stroke-width="6" d="M644 644h120v120H644z"/><path stroke-width="8" d="M646 668h116"/><path stroke-width="4" d="M680 762V646m48 116V646m-82 46h116m-116 24h116m-116 24h116"/></g><view id="move" preserveAspectRatio="none" viewBox="768 640 128 128"/><path stroke="#0070f7" stroke-linecap="round" stroke-linejoin="round" stroke-width="10" d="m877.3 692.7 11.3 11.3m-67.9 45.3 11.3 11.3M775.4 704l11.3 11.3m45.3-67.9 11.3 11.3m0 90.6L832 760.6m-45.3-67.9L775.4 704m56.6-56.6-11.3 11.3m67.9 45.3-11.3 11.3M883 704H781m51 51V653"/><view id="new" preserveAspectRatio="none" viewBox="896 640 128 128"/><path stroke="#e60000" stroke-linecap="round" stroke-linejoin="round" stroke-width="6" d="m917.6 746.4 84.8-84.8m-84.8 0 84.8 84.8M900 704h120m-60-60v120"/><view id="notes" preserveAspectRatio="none" viewBox="1024 640 128 128"/><g stroke-linecap="round" stroke-linejoin="round" stroke-width="6"><path stroke="#0070f7" d="M1061.8 730.3H1028V644h120v86.3h-52.5l-33.8 33.7v-33.8Z"/><path stroke="#a0c" d="M1040 696h76m-76-24h96"/></g><view id="paypal" preserveAspectRatio="none" viewBox="0 768 128 128"/><path fill="#012169" d="M43.5 796.8h62.8v47.4H43.5z"/><path fill="#009cde" d="M65.1 839.3a41 41 0 0 0 41.2-37.7 20.9 20.9 0 0 1 10.4 19.8 38.7 38.7 0 0 1-43.5 38.7 4.5 4.5 0 0 0-4.4 4l-4.3 26.6a5 5 0 0 1-4 4H40.2a3.3 3.3 0 0 1-3.6-4.6l7.5-46.5a5.4 5.4 0 0 1 4.8-4.3H65Z"/><path fill="#003087" d="m38.4 880.7 12.3-79a4.9 4.9 0 0 1 4.5-4H88a42 42 0 0 1 18.3 4 24.2 24.2 0 0 0-21.5-30.4L74.2 770H32.6a5.1 5.1 0 0 0-5 3.9L11.3 877a3.4 3.4 0 0 0 2.9 3.7h24.2Z"/><view id="percent-0" preserveAspectRatio="none" viewBox="128 768 128 128"/><path fill="#a5a5a5" stroke="#262626" stroke-linecap="round" stroke-linejoin="round" stroke-width="3" d="M192 770v62h62a61.4 61.4 0 0 0-62-62Zm0 124v-62h-62a61.4 61.4 0 0 0 62 62Zm-62-62h62v-62a61.4 61.4 0 0 0-62 62Zm124 0h-62v62a61.4 61.4 0 0 0 62-62Z"/><view id="percent-1" preserveAspectRatio="none" viewBox="256 768 128 128"/><g stroke="#262626" stroke-linecap="round" stroke-linejoin="round" stroke-width="3"><path fill="#00b050" d="M320 770v62h62a61.4 61.4 0 0 0-62-62Z"/><path fill="#a5a5a5" d="M320 894v-62h-62a61.4 61.4 0 0 0 62 62Zm-62-62h62v-62a61.4 61.4 0 0 0-62 62Zm124 0h-62v62a61.4 61.4 0 0 0 62-62Z"/></g><view id="percent-2" preserveAspectRatio="none" viewBox="384 768 128 128"/><g stroke="#262626" stroke-linecap="round" stroke-linejoin="round" stroke-width="3"><path fill="#00b050" d="M448 770v62h62a61.4 61.4 0 0 0-62-62Z"/><path fill="#a5a5a5" d="M448 894v-62h-62a61.4 61.4 0 0 0 62 62Zm-62-62h62v-62a61.4 61.4 0 0 0-62 62Z"/><path fill="#00b050" d="M510 832h-62v62a61.4 61.4 0 0 0 62-62Z"/></g><view id="percent-3" preserveAspectRatio="none" viewBox="512 768 128 128"/><g stroke="#262626" stroke-linecap="round" stroke-linejoin="round" stroke-width="3"><path fill="#00b050" d="M576 770v62h62a61.4 61.4 0 0 0-62-62Zm0 124v-62h-62a61.4 61.4 0 0 0 62 62Z"/><path fill="#a5a5a5" d="M514 832h62v-62a61.4 61.4 0 0 0-62 62Z"/><path fill="#00b050" d="M638 832h-62v62a61.4 61.4 0 0 0 62-62Z"/></g><view id="percent-4" preserveAspectRatio="none" viewBox="640 768 128 128"/><path fill="#00b050" stroke="#262626" stroke-linecap="round" stroke-linejoin="round" stroke-width="3" d="M704 770v62h62a61.4 61.4 0 0 0-62-62Zm0 124v-62h-62a61.4 61.4 0 0 0 62 62Zm-62-62h62v-62a61.4 61.4 0 0 0-62 62Zm124 0h-62v62a61.4 61.4 0 0 0 62-62Z"/><view id="rename" preserveAspectRatio="none" viewBox="768 768 128 128"/><path stroke="#0070f7" stroke-linecap="round" stroke-linejoin="round" stroke-width="6" d="M778 820a5.7 5.7 0 0 0-6 4.8v14.4a5.7 5.7 0 0 0 6 4.8h108a5.7 5.7 0 0 0 6-4.8v-14.4a5.7 5.7 0 0 0-6-4.8H778Z"/><circle cx="16" cy="64" r="4.8" fill="#0070f7" transform="translate(768 768)"/><circle cx="32" cy="64" r="4.8" fill="#0070f7" transform="translate(768 768)"/><circle cx="48" cy="64" r="4.8" fill="#0070f7" transform="translate(768 768)"/><path stroke="#0070f7" stroke-width="6" d="M848 864v-64m16-2h-12m-8 0h-12m32 68h-12m-8 0h-12"/><circle cx="64" cy="64" r="4.8" fill="#0070f7" transform="translate(768 768)"/><view id="resize" preserveAspectRatio="none" viewBox="896 768 128 128"/><path stroke="#0070f7" stroke-linecap="round" stroke-linejoin="round" stroke-width="10" d="M993.6 776h22.4m-22.4 112h22.4m-112 0h22.4M904 776h22.4m89.6 89.6V888m-112-22.4V888m0-112v22.4m112-22.4v22.4m-5.6-16.8L909.6 882.4m100.8 0L909.6 781.6"/><view id="rotate" preserveAspectRatio="none" viewBox="1024 768 128 128"/><g stroke="#0070f7" stroke-linecap="round" stroke-linejoin="round" stroke-width="6"><path d="M1088 876a46 47-49.3 0 0 46-45.8m-92 0a47 46-40.7 0 0 46 45.8m0-91.7a46 47-49.3 0 0-46 45.9"/><path d="m1074.7 772 14.2 12.3-14.2 12.4"/></g><view id="save" preserveAspectRatio="none" viewBox="0 896 128 128"/><path d="M4 900v102l18 18h102V900H4Z"/><path stroke="#0070f7" stroke-linecap="round" stroke-linejoin="round" stroke-width="6" d="M4 900v102l18 18h102V900H4"/><path stroke="#0070f7" stroke-linecap="round" stroke-linejoin="round" stroke-width="6" d="M16 900v60h96v-60m-12 120v-36H28v36"/><view id="search" preserveAspectRatio="none" viewBox="128 896 128 128"/><path stroke="#0070f7" stroke-linecap="round" stroke-linejoin="round" stroke-width="6" d="M158 924.9a10 10.4 3 1 1 19.5 4.7 9 9 0 0 1-5.4 5.7 6.7 7.2-27 0 0-3.9 4.1 4.5 4.5 0 0 0-.2 1.4v3.2"/><circle cx="40" cy="58" r="3" fill="#0070f7" transform="translate(128 896)"/><path d="M204 936a36 36 0 1 0-72 0 36 36 0 1 0 72 0Z"/><path stroke="#0070f7" stroke-linecap="round" stroke-linejoin="round" stroke-width="6" d="M204 936a36 36 0 1 0-72 0 36 36 0 1 0 72 0m-10 26 58 58"/><view id="section-top" preserveAspectRatio="none" viewBox="256 896 128 128"/><g stroke="#0070f7" stroke-width="6"><path stroke-linecap="round" stroke-linejoin="round" d="M260 900h120m-52 20h52"/><path d="m330 964 24-28 24 28m-24 56v-80"/></g><view id="select-all" preserveAspectRatio="none" viewBox="384 896 128 128"/><g stroke="#0070f7"><path stroke-width="10" d="m414 972.2 26 27.8 54-71"/><path stroke-linecap="round" stroke-linejoin="round" stroke-width="6" d="M400 1012h-4a8.4 8.4 0 0 1-8-8v-96a8.4 8.4 0 0 1 8-8h96a8.4 8.4 0 0 1 8 8v4"/><path stroke-linecap="round" stroke-linejoin="round" stroke-width="6" d="M408 912a8.4 8.4 0 0 0-8 8v92a8.4 8.4 0 0 0 8 8h92a8.4 8.4 0 0 0 8-8v-92a8.4 8.4 0 0 0-8-8h-92Z"/></g><view id="select-none" preserveAspectRatio="none" viewBox="512 896 128 128"/><g stroke="#0070f7"><path stroke-linecap="round" stroke-linejoin="round" stroke-width="6" d="M528 1012h-4a8.4 8.4 0 0 1-8-8v-96a8.4 8.4 0 0 1 8-8h96a8.4 8.4 0 0 1 8 8v4"/><path stroke-linecap="round" stroke-linejoin="round" stroke-width="6" d="M536 912a8.4 8.4 0 0 0-8 8v92a8.4 8.4 0 0 0 8 8h92a8.4 8.4 0 0 0 8-8v-92a8.4 8.4 0 0 0-8-8h-92Z"/><path stroke-width="10" d="m620 928-76 76m76 0-76-76"/></g><view id="star" preserveAspectRatio="none" viewBox="640 896 128 128"/><path fill="#ffc000" stroke="#c07f00" stroke-linecap="round" stroke-linejoin="round" stroke-width="4" d="M718.6 945.4 704 899l-14.6 46.4H643l39 29.2-14.6 46.4 36.6-29.3 36.6 29.3-14.6-46.4 39-29.2h-46.4Z"/><view id="status-green" preserveAspectRatio="none" viewBox="768 896 128 128"/><circle cx="63" cy="65" r="63" fill="#00b050" transform="translate(769 895)"/><path fill="#fff" d="m792.6 965.7 9.5-12.8a771.8 771.8 0 0 1 18 17 1556.2 1556.2 0 0 1 41-45.3l10.3 14.1a1216 1216 0 0 0-51.2 56.7 1028.7 1028.7 0 0 0-27.6-29.7Z"/><view id="status-red" preserveAspectRatio="none" viewBox="896 896 128 128"/><circle cx="63" cy="65" r="63" fill="#c00000" transform="translate(897 895)"/><path fill="#fff" d="M952.1 920.6v16L957 968h6.3l4.7-31.2v-16h-16Zm1.9 57.1h12v11.8h-11.8v-11.8Z"/><view id="status-yellow" preserveAspectRatio="none" viewBox="1024 896 128 128"/><circle cx="63" cy="65" r="63" fill="#ffc000" transform="translate(1025 895)"/><path fill="#fff" d="m1088 928.5-31.5 31.5 31.5 31.5 31.5-31.5-31.5-31.5Z"/><view id="text" preserveAspectRatio="none" viewBox="0 1024 128 128"/><path fill="#080" d="M86.1 1096.1H42l22.1-56.9 22.1 57ZM3 1149h18.3l14.2-36.6h57l14.2 36.6H125l-48.8-122H51.8L3 1149Z"/><view id="theme" preserveAspectRatio="none" viewBox="128 1024 128 128"/><g stroke="#0070f7" stroke-linecap="round" stroke-linejoin="round" stroke-width="6"><circle cx="64" cy="64" r="22" fill="#ff0" transform="translate(128 1024)"/><path d="M192 1028v24m0 72v24m-42.4-102.4 17 17m50.9 50.9 17 17M132 1088h24m72 0h24m-102.4 42.4 17-17m50.9-50.9 17-17"/></g><view id="tick" preserveAspectRatio="none" viewBox="256 1024 128 128"/><path fill="#0f0" stroke="#007f00" stroke-linecap="round" stroke-linejoin="round" stroke-width="3" d="m258 1098 14.9-22.4a212.9 212.9 0 0 1 28.5 29.8 437.2 437.2 0 0 1 64.5-79.4l16.1 24.8a343.4 343.4 0 0 0-80.6 99.2 288.2 288.2 0 0 0-43.4-52Z"/><view id="top" preserveAspectRatio="none" viewBox="384 1024 128 128"/><g stroke="#0070f7" stroke-width="6"><path stroke-linecap="round" stroke-linejoin="round" d="M388 1028h120m-52 60h52m-52 60h52m-52-30h52"/><path d="m390 1072 24-28 24 28m-24 76v-100"/></g><view id="twitter" preserveAspectRatio="none" viewBox="512 1024 128 128"/><path fill="#1da1f2" d="M521.8 1041.8a76.2 76.2 0 0 0 53.3 27 25.8 25.8 0 0 1 44-23.5 38.2 38.2 0 0 0 16.4-6.3 21.5 21.5 0 0 1-11.4 14.3 29.7 29.7 0 0 0 14.9-4 41 41 0 0 1-12.5 13 73.9 73.9 0 0 1-113.5 65.3 51.3 51.3 0 0 0 38.3-10.7A25 25 0 0 1 527 1099a17.5 17.5 0 0 0 11.7-.4A25.6 25.6 0 0 1 518 1073a19 19 0 0 0 11.7 3.2 25.8 25.8 0 0 1-8-34.4Z"/><view id="unflagged" preserveAspectRatio="none" viewBox="640 1024 128 128"/><path stroke="#0070f7" stroke-linecap="round" stroke-linejoin="round" stroke-width="8" d="M704.9 1046.3a33.4 33.4 0 0 1 19-17 1 1 0 0 1 .1-.1 43.4 43.4 0 0 1 18.3 1.2 1 1 0 0 1 .2 0 36.3 36.3 0 0 1 20.3 30.6 1 1 0 0 1 0 0 55.5 55.5 0 0 1-13.8 39 1 1 0 0 1 0 0l-44.3 47.2a1 1 0 0 1-1.4 0L659 1100a1 1 0 0 1 0 0 55.5 55.5 0 0 1-13.8-39 1 1 0 0 1 0 0 36.3 36.3 0 0 1 20.3-30.6 1 1 0 0 1 .2 0 42.8 42.8 0 0 1 18.2-1.2 1 1 0 0 1 .1 0 33.6 33.6 0 0 1 19 17.1 1 1 0 0 0 1.9 0Z"/><view id="vimeo" preserveAspectRatio="none" viewBox="768 1024 128 128"/><path fill="#2caceb" d="M777 1025a8.4 8.4 0 0 0-8 8v110a8.4 8.4 0 0 0 8 8h110a8.4 8.4 0 0 0 8-8v-110a8.4 8.4 0 0 0-8-8H777Zm97.2 43.5c-.4 8.3-6.2 19.5-17.3 33.9-11.6 15-21.4 22.4-29.3 22.4-5 0-9.2-4.5-12.6-13.6l-6.8-25.2c-2.6-9.2-5.3-13.7-8.2-13.7-.7 0-2.9 1.3-6.7 4l-4-5.2 12.4-11c5.6-4.8 9.8-7.3 12.5-7.6 6.6-.6 10.7 3.8 12.2 13.5 1.7 10.4 2.8 16.9 3.4 19.5 2 8.5 4 12.9 6.3 12.9 1.8 0 4.5-2.8 8-8.4 3.6-5.6 5.5-9.8 5.7-12.7.5-4.9-1.4-7.3-5.7-7.3-2 0-4.1.5-6.2 1.3 4.1-13.6 12.1-20.1 24-19.8 8.7.3 12.8 6 12.3 17Z"/><view id="zoom" preserveAspectRatio="none" viewBox="896 1024 128 128"/><path stroke="#0070f7" stroke-width="6" d="M916 1064h40m-20 20v-40"/><path d="M972 1064a36 36 0 1 0-72 0 36 36 0 1 0 72 0Z"/><path stroke="#0070f7" stroke-linecap="round" stroke-linejoin="round" stroke-width="6" d="M972 1064a36 36 0 1 0-72 0 36 36 0 1 0 72 0m-10 26 58 58"/></svg>