<svg xmlns="http://www.w3.org/2000/svg" width="528" height="816" viewBox="0 0 528 816" class="a"><style>
.b {fill:#a5a5a5;fill-opacity:0.2;stroke:#0050c0;stroke-linecap:round;stroke-linejoin:round;stroke-width:2.2}
.c {fill:#a5a5a5;fill-opacity:0.2;stroke:#0070f7;stroke-linecap:round;stroke-linejoin:round;stroke-width:2.2}
.d {fill:#0050c0;stroke:#0050c0;stroke-linecap:round;stroke-linejoin:round;stroke-width:2.2}
.e {fill:#ffffff;font-family:Arial;font-size:1.7em;font-weight:bold}
.f {fill:#0070f7;stroke:#0070f7;stroke-linecap:round;stroke-linejoin:round;stroke-width:2.2}
.g {fill:#0050c0;stroke:none;stroke-linecap:round;stroke-linejoin:round;stroke-width:1}
.h {fill:#ffffff;font-family:Arial;font-size:1.2em;font-weight:bold}
.i {font-size:1em}
.j {fill:#0070f7;stroke:none;stroke-linecap:round;stroke-linejoin:round;stroke-width:1}
.k {baseline-shift:32.5%;font-size:0.6em}
.l {fill:#ffffff;font-family:Arial;font-size:1em;font-weight:bold}
.m {fill:none;stroke:none;stroke-linecap:round;stroke-linejoin:round;stroke-width:0.8}
.n {fill:#7f7f7f;font-family:Calibri;font-size:1em}
.a {fill:none;fill-rule:evenodd;font-size:12px;overflow:visible;stroke-linecap:square;stroke-miterlimit:3}
</style><rect x="16" y="16" width="496" height="784" rx="8" ry="8" class="b"/><rect x="32" y="256" width="464" height="528" rx="8" ry="8" class="c"/><a target="_blank" href="https://azure.microsoft.com/pricing/details/active-directory/"><rect x="16" y="16" width="496" height="32" rx="8" ry="8" class="d"/><text x="141.2" y="38" class="e">Azure AD Premium Plan 2</text></a><a target="_blank" href="https://azure.microsoft.com/pricing/details/active-directory/"><rect x="32" y="256" width="464" height="32" rx="8" ry="8" class="f"/><text x="141.2" y="278" class="e">Azure AD Premium Plan 1</text></a><a target="_blank" href="https://learn.microsoft.com/azure/active-directory/governance/access-reviews-overview"><rect x="48" y="64" width="96" height="80" rx="8" ry="8" class="g"/><text x="71.5" y="99.8" class="h">Access <tspan x="68" dy="1.2em" class="i">Reviews</tspan></text></a><a target="_blank" href="https://learn.microsoft.com/azure/active-directory/identity-protection/overview"><rect x="272" y="64" width="96" height="80" rx="8" ry="8" class="g"/><text x="295.1" y="99.8" class="h">Identity <tspan x="285.4" dy="1.2em" class="i">Protection</tspan></text></a><a target="_blank" href="https://learn.microsoft.com/azure/active-directory/governance/entitlement-management-overview"><rect x="160" y="64" width="96" height="80" rx="8" ry="8" class="g"/><text x="169.9" y="99.8" class="h">Entitlement <tspan x="165.2" dy="1.2em" class="i">Management</tspan></text></a><a target="_blank" href="https://learn.microsoft.com/azure/active-directory/active-directory-conditional-access-conditions#sign-in-risk"><rect x="160" y="160" width="96" height="80" rx="8" ry="8" class="g"/><text x="169.9" y="187.4" class="h">Risk-Based <tspan x="169.5" dy="1.2em" class="i">Conditional </tspan><tspan x="183.5" dy="1.2em" class="i">Access</tspan></text></a><a target="_blank" href="https://learn.microsoft.com/azure/active-directory/active-directory-privileged-identity-management-configure"><rect x="48" y="160" width="96" height="80" rx="8" ry="8" class="g"/><text x="62.5" y="187.4" class="h">Privileged <tspan x="71.1" dy="1.2em" class="i">Identity </tspan><tspan x="53.2" dy="1.2em" class="i">Management</tspan></text></a><a target="_blank" href="https://learn.microsoft.com/azure/active-directory/identity-protection/howto-identity-protection-configure-mfa-policy"><rect x="384" y="64" width="96" height="80" rx="8" ry="8" class="g"/><text x="416.8" y="91.4" class="h">MFA <tspan x="391.2" dy="1.2em" class="i">Registration </tspan><tspan x="411.4" dy="1.2em" class="i">Policy</tspan></text></a><a target="_blank" href="https://learn.microsoft.com/azure/active-directory/reports-monitoring/"><rect x="160" y="304" width="96" height="80" rx="8" ry="8" class="j"/><text x="174.6" y="323" class="h">Advanced <tspan x="180.4" dy="1.2em" class="i">Security </tspan><tspan x="174.6" dy="1.2em" class="i">Reports &amp; </tspan><tspan x="188.2" dy="1.2em" class="i">Alerts</tspan></text></a><a target="_blank" href="https://learn.microsoft.com/azure/active-directory/hybrid/how-to-connect-sso"><rect x="384" y="592" width="96" height="80" rx="8" ry="8" class="j"/><text x="391.2" y="619.4" class="h">Single-Sign-<tspan x="394.3" dy="1.2em" class="i">On to other </tspan><tspan x="414.9" dy="1.2em" class="i">SaaS</tspan></text></a><a target="_blank" href="https://learn.microsoft.com/azure/active-directory/manage-apps/application-proxy"><rect x="272" y="304" width="96" height="80" rx="8" ry="8" class="j"/><text x="283" y="331.4" class="h">App Proxy, <tspan x="288.9" dy="1.2em" class="i">including </tspan><tspan x="280.3" dy="1.2em" class="i">PingAccess</tspan></text></a><a target="_blank" href="https://learn.microsoft.com/azure/active-directory/authentication/concept-mfa-howitworks"><rect x="272" y="496" width="96" height="80" rx="8" ry="8" class="j"/><text x="280" y="531.8" class="h">Multi-Factor <tspan x="282.3" dy="1.2em" class="i">Auth (MFA)</tspan></text></a><a target="_blank" href="https://learn.microsoft.com/azure/active-directory/hybrid/whatis-azure-ad-connect#what-is-azure-ad-connect-health"><rect x="384" y="304" width="96" height="80" rx="8" ry="8" class="j"/><text x="400.5" y="331.4" class="h">Azure AD <tspan x="404" dy="1.2em" class="i">Connect </tspan><tspan x="410.6" dy="1.2em" class="i">Health</tspan></text></a><a target="_blank" href="https://learn.microsoft.com/cloud-app-security/set-up-cloud-discovery"><rect x="48" y="400" width="96" height="80" rx="8" ry="8" class="j"/><text x="60.6" y="435.8" class="h">Cloud App <tspan x="62.5" dy="1.2em" class="i">Discovery</tspan></text></a><a target="_blank" href="https://learn.microsoft.com/azure/active-directory/users-groups-roles/users-sharing-accounts"><rect x="272" y="592" width="96" height="80" rx="8" ry="8" class="j"/><text x="296.3" y="611" class="h">Shared <tspan x="292" dy="1.2em" class="i">Account </tspan><tspan x="286.9" dy="1.2em" class="i">Password </tspan><tspan x="288.5" dy="1.2em" class="i">Roll</tspan>-Over</text></a><a target="_blank" href="https://learn.microsoft.com/azure/active-directory/authentication/concept-sspr-howitworks"><rect x="160" y="592" width="96" height="80" rx="8" ry="8" class="j"/><text x="167.9" y="619.4" class="h">Self-Service <tspan x="174.9" dy="1.2em" class="i">Password </tspan><tspan x="168.7" dy="1.2em" class="i">Reset in AD</tspan></text></a><a target="_blank" href="https://learn.microsoft.com/azure/active-directory/users-groups-roles/groups-self-service-management"><rect x="48" y="592" width="96" height="80" rx="8" ry="8" class="j"/><text x="55.9" y="619.4" class="h">Self-Service <tspan x="75" dy="1.2em" class="i">Group </tspan><tspan x="53.2" dy="1.2em" class="i">Management</tspan></text></a><a target="_blank" href="https://learn.microsoft.com/azure/active-directory/conditional-access/overview"><rect x="160" y="400" width="96" height="80" rx="8" ry="8" class="j"/><text x="169.5" y="435.8" class="h">Conditional <tspan x="183.5" dy="1.2em" class="i">Access</tspan></text></a><a target="_blank" href="https://learn.microsoft.com/azure/active-directory/external-identities/"><rect x="48" y="496" width="96" height="80" rx="8" ry="8" class="j"/><text x="68.4" y="531.8" class="h">External <tspan x="65.3" dy="1.2em" class="i">Identities</tspan></text></a><a target="_blank" href="https://learn.microsoft.com/azure/active-directory/devices/enterprise-state-roaming-overview"><rect x="384" y="400" width="96" height="80" rx="8" ry="8" class="j"/><text x="397.4" y="427.4" class="h">Enterprise <tspan x="414.9" dy="1.2em" class="i">State </tspan><tspan x="402.1" dy="1.2em" class="i">Roaming</tspan></text></a><a target="_blank" href="https://learn.microsoft.com/azure/active-directory/governance/active-directory-tou"><rect x="272" y="688" width="96" height="80" rx="8" ry="8" class="j"/><text x="290.4" y="723.8" class="h">Terms of <tspan x="307.2" dy="1.2em" class="i">Use</tspan></text></a><a target="_blank" href="https://learn.microsoft.com/azure/active-directory/authentication/concept-password-ban-bad"><rect x="384" y="496" width="96" height="80" rx="8" ry="8" class="j"/><text x="398.9" y="531.8" class="h">Password <tspan x="397.4" dy="1.2em" class="i">Protection</tspan></text></a><a target="_blank" href="https://learn.microsoft.com/microsoft-identity-manager/"><rect x="160" y="496" width="96" height="80" rx="8" ry="8" class="j"/><text x="176.5" y="523.4" class="h">Microsoft <tspan x="183.1" dy="1.2em" class="i">Identity </tspan><tspan x="179.2" dy="1.2em" class="i">Manager</tspan></text></a><a target="_blank" href="https://learn.microsoft.com/azure/active-directory/conditional-access/controls#custom-controls-preview"><rect x="384" y="688" width="96" height="80" rx="8" ry="8" class="j"/><text x="404.8" y="715.4" class="h">3<tspan dy="-0.2em" class="k">rd </tspan><tspan dy="0.2em" class="i">Party  </tspan><tspan x="416.8" dy="1.2em" class="i">MFA </tspan><tspan x="395.8" dy="1.2em" class="i">Integration</tspan></text></a><a target="_blank" href="https://learn.microsoft.com/azure/active-directory/roles/administrative-units"><rect x="48" y="304" width="96" height="80" rx="8" ry="8" class="j"/><text x="54.3" y="340.4" class="l">Administrative <tspan x="81" dy="1.2em" class="i">Units</tspan></text></a><a target="_blank" href="https://learn.microsoft.com/azure/active-directory/enterprise-users/groups-create-rule"><rect x="272" y="400" width="96" height="80" rx="8" ry="8" class="j"/><text x="290.8" y="435.8" class="h">Dynamic <tspan x="295.1" dy="1.2em" class="i">Groups</tspan></text></a><a target="_blank" href="https://learn.microsoft.com/azure/active-directory/authentication/howto-authentication-sms-signin"><rect x="48" y="688" width="96" height="80" rx="8" ry="8" class="j"/><text x="55.2" y="732.2" class="h">SMS Sign-In</text></a><a target="_blank" href="https://learn.microsoft.com/azure/active-directory/authentication/howto-authentication-temporary-access-pass"><rect x="160" y="688" width="96" height="80" rx="8" ry="8" class="j"/><text x="171.8" y="723.8" class="h">Temporary <tspan x="165.2" dy="1.2em" class="i">Access Pass</tspan></text></a><a target="_blank" href="https://m365maps.com/"><rect y="800" width="528" height="16" class="m"/><text x="445.8" y="811.6" class="n">m365maps.com</text></a></svg>