<svg xmlns="http://www.w3.org/2000/svg" width="896" height="624" viewBox="0 0 896 624" class="a"><style>
.b {fill:#a5a5a5;fill-opacity:0.2;stroke:#3c3c3c;stroke-linecap:round;stroke-linejoin:round;stroke-width:2.2}
.c {fill:#a5a5a5;fill-opacity:0.2;stroke:#606060;stroke-dasharray:15.8,11.2;stroke-linecap:round;stroke-linejoin:round;stroke-width:2.2}
.d {fill:#a5a5a5;fill-opacity:0.2;stroke:#105868;stroke-linecap:round;stroke-linejoin:round;stroke-width:2.2}
.e {fill:#a5a5a5;fill-opacity:0.2;stroke:#e82200;stroke-linecap:round;stroke-linejoin:round;stroke-width:2.2}
.f {fill:#a5a5a5;fill-opacity:0.2;stroke:#a41500;stroke-dasharray:2.2,4.5;stroke-linecap:round;stroke-linejoin:round;stroke-width:2.2}
.g {fill:#a5a5a5;fill-opacity:0.2;stroke:#105868;stroke-dasharray:2.2,4.5;stroke-linecap:round;stroke-linejoin:round;stroke-width:2.2}
.h {fill:#2080a0;stroke:none;stroke-linecap:round;stroke-linejoin:round;stroke-width:0.5}
.i {fill:#ffffff;font-family:Arial;font-size:1.2em;font-weight:bold}
.j {font-size:1em}
.k {fill:#3c3c3c;stroke:#3c3c3c;stroke-linecap:round;stroke-linejoin:round;stroke-width:2.2}
.l {fill:#ffffff;font-family:Arial;font-size:1.5em;font-weight:bold}
.m {fill:#606060;stroke:#606060;stroke-linecap:round;stroke-linejoin:round;stroke-width:2.2}
.n {fill:#a41500;stroke:#a41500;stroke-linecap:round;stroke-linejoin:round;stroke-width:2.2}
.o {fill:#105868;stroke:#105868;stroke-linecap:round;stroke-linejoin:round;stroke-width:2.2}
.p {fill:#e82200;stroke:#e82200;stroke-linecap:round;stroke-linejoin:round;stroke-width:2.2}
.q {fill:#2080a0;stroke:#2080a0;stroke-linecap:round;stroke-linejoin:round;stroke-width:2.2}
.r {fill:#a41500;stroke:none;stroke-linecap:round;stroke-linejoin:round;stroke-width:1}
.s {fill:#e82200;stroke:none;stroke-linecap:round;stroke-linejoin:round;stroke-width:1}
.t {fill:none;stroke:none;stroke-linecap:round;stroke-linejoin:round;stroke-width:0.8}
.u {fill:#7f7f7f;font-family:Calibri;font-size:1em}
.a {fill:none;fill-rule:evenodd;font-size:12px;overflow:visible;stroke-linecap:square;stroke-miterlimit:3}
</style><rect x="16" y="16" width="864" height="592" rx="8" ry="8" class="b"/><rect x="32" y="336" width="832" height="256" rx="8" ry="8" class="c"/><rect x="48" y="80" width="384" height="448" rx="8" ry="8" class="d"/><rect x="464" y="176" width="384" height="352" rx="8" ry="8" class="e"/><rect x="480" y="352" width="352" height="160" rx="8" ry="8" class="f"/><rect x="64" y="352" width="352" height="160" rx="8" ry="8" class="g"/><a target="_blank" href="https://learn.microsoft.com/advanced-threat-analytics/"><rect x="608" y="240" width="96" height="80" rx="8" ry="8" class="h"/><text x="622.6" y="259" class="i">Advanced <tspan x="634.6" dy="1.2em" class="j">Threat </tspan><tspan x="624.9" dy="1.2em" class="j">Analytics </tspan><tspan x="627.2" dy="1.2em" class="j">(retiring)</tspan></text></a><a target="_blank" href="https://www.microsoft.com/licensing/product-licensing/client-access-license"><rect x="720" y="368" width="96" height="80" rx="8" ry="8" class="h"/><text x="737.3" y="403.8" class="i">Windows <tspan x="746.2" dy="1.2em" class="j">Server</tspan></text></a><a target="_blank" href="https://learn.microsoft.com/configmgr/core/understand/introduction"><rect x="496" y="368" width="96" height="80" rx="8" ry="8" class="h"/><text x="521.8" y="403.8" class="i">Config <tspan x="515.2" dy="1.2em" class="j">Manager</tspan></text></a><a target="_blank" href="https://learn.microsoft.com/sccm/protect/deploy-use/endpoint-protection"><rect x="608" y="368" width="96" height="80" rx="8" ry="8" class="h"/><text x="633.8" y="387" class="i">Config <tspan x="627.2" dy="1.2em" class="j">Manager </tspan><tspan x="625.7" dy="1.2em" class="j">Endpoint </tspan><tspan x="621.4" dy="1.2em" class="j">Protection</tspan></text></a><a target="_blank" href="https://learn.microsoft.com/azure/information-protection/compare-on-premise"><rect x="496" y="240" width="96" height="80" rx="8" ry="8" class="h"/><text x="523" y="267.4" class="i">Active <tspan x="513.3" dy="1.2em" class="j">Directory </tspan><tspan x="528.4" dy="1.2em" class="j">RMS</tspan></text></a><a target="_blank" href="https://www.microsoft.com/licensing/product-licensing/client-access-license"><rect x="16" y="16" width="864" height="48" rx="8" ry="8" class="k"/><text x="382.5" y="45.4" class="l">Enterprise CAL</text></a><a target="_blank" href="https://www.microsoft.com/licensing/product-licensing/client-access-license"><rect x="32" y="544" width="832" height="48" rx="8" ry="8" class="m"/><text x="406.5" y="573.4" class="l">Core CAL</text></a><a target="_blank" href="https://www.microsoft.com/licensing/product-licensing/client-access-license"><rect x="480" y="464" width="352" height="48" rx="8" ry="8" class="n"/><text x="523.5" y="493.4" class="l">Core CAL Bridge for Office 365</text></a><a target="_blank" href="https://www.microsoft.com/licensing/product-licensing/client-access-license"><rect x="48" y="80" width="384" height="48" rx="8" ry="8" class="o"/><text x="107" y="109.4" class="l">Enterprise CAL Bridge for EMS</text></a><a target="_blank" href="https://www.microsoft.com/licensing/product-licensing/client-access-license"><rect x="464" y="176" width="384" height="48" rx="8" ry="8" class="p"/><text x="499.5" y="205.4" class="l">Enterprise CAL Bridge for Office 365</text></a><a target="_blank" href="https://www.microsoft.com/licensing/product-licensing/client-access-license"><rect x="64" y="464" width="352" height="48" rx="8" ry="8" class="q"/><text x="131" y="493.4" class="l">Core CAL Bridge for EMS</text></a><a target="_blank" href="https://www.microsoft.com/microsoft-365/exchange/microsoft-exchange-server-licensing-licensing-overview"><rect x="80" y="368" width="96" height="80" rx="8" ry="8" class="r"/><text x="94.9" y="395.4" class="i">Exchange <tspan x="106.2" dy="1.2em" class="j">Server </tspan><tspan x="93" dy="1.2em" class="j">(Standard)</tspan></text></a><a target="_blank" href="https://www.microsoft.com/microsoft-365/sharepoint/sharepoint-licensing-overview"><rect x="192" y="368" width="96" height="80" rx="8" ry="8" class="r"/><text x="203" y="395.4" class="i">SharePoint <tspan x="218.2" dy="1.2em" class="j">Server </tspan><tspan x="205" dy="1.2em" class="j">(Standard)</tspan></text></a><a target="_blank" href="https://www.microsoft.com/microsoft-365/skype-for-business/it-pros"><rect x="304" y="368" width="96" height="80" rx="8" ry="8" class="r"/><text x="320.1" y="387" class="i">Skype for <tspan x="320.9" dy="1.2em" class="j">Business </tspan><tspan x="330.2" dy="1.2em" class="j">Server </tspan><tspan x="317" dy="1.2em" class="j">(Standard)</tspan></text></a><a target="_blank" href="https://www.microsoft.com/microsoft-365/exchange/microsoft-exchange-server-licensing-licensing-overview"><rect x="80" y="144" width="96" height="80" rx="8" ry="8" class="s"/><text x="94.9" y="171.4" class="i">Exchange <tspan x="106.2" dy="1.2em" class="j">Server </tspan><tspan x="88.7" dy="1.2em" class="j">(Enterprise)</tspan></text></a><a target="_blank" href="https://www.microsoft.com/microsoft-365/sharepoint/sharepoint-licensing-overview"><rect x="192" y="144" width="96" height="80" rx="8" ry="8" class="s"/><text x="203" y="171.4" class="i">SharePoint <tspan x="218.2" dy="1.2em" class="j">Server </tspan><tspan x="200.7" dy="1.2em" class="j">(Enterprise)</tspan></text></a><a target="_blank" href="https://www.microsoft.com/microsoft-365/skype-for-business/it-pros"><rect x="304" y="144" width="96" height="80" rx="8" ry="8" class="s"/><text x="320.1" y="163" class="i">Skype for <tspan x="320.9" dy="1.2em" class="j">Business </tspan><tspan x="330.2" dy="1.2em" class="j">Server </tspan><tspan x="312.7" dy="1.2em" class="j">(Enterprise)</tspan></text></a><a target="_blank" href="https://learn.microsoft.com/office365/servicedescriptions/exchange-online-protection-service-description/exchange-online-protection-service-description"><rect x="192" y="240" width="96" height="80" rx="8" ry="8" class="s"/><text x="206.9" y="267.4" class="i">Exchange <tspan x="218.2" dy="1.2em" class="j">Online </tspan><tspan x="205.4" dy="1.2em" class="j">Protection</tspan></text></a><a target="_blank" href="https://learn.microsoft.com/office365/servicedescriptions/exchange-online-archiving-service-description/exchange-online-archiving-service-description"><rect x="304" y="240" width="96" height="80" rx="8" ry="8" class="s"/><text x="330.2" y="259" class="i">Online <tspan x="308.4" dy="1.2em" class="j">Archiving for </tspan><tspan x="318.9" dy="1.2em" class="j">Exchange </tspan><tspan x="330.2" dy="1.2em" class="j">Server</tspan></text></a><a target="_blank" href="https://learn.microsoft.com/Exchange/policy-and-compliance/data-loss-prevention/data-loss-prevention"><rect x="80" y="240" width="96" height="80" rx="8" ry="8" class="s"/><text x="94.9" y="267.4" class="i">Exchange <tspan x="94.6" dy="1.2em" class="j">Data Loss </tspan><tspan x="91.8" dy="1.2em" class="j">Prevention</tspan></text></a><a target="_blank" href="https://m365maps.com/"><rect y="608" width="896" height="16" class="t"/><text x="813.8" y="619.6" class="u">m365maps.com</text></a></svg>