<svg xmlns="http://www.w3.org/2000/svg" width="832" height="784" viewBox="0 0 832 784" class="a"><style>
.b {fill:#a5a5a5;fill-opacity:0.2;stroke:#3c3c3c;stroke-linecap:round;stroke-linejoin:round;stroke-width:2.2}
.c {fill:#a5a5a5;fill-opacity:0.2;stroke:#606060;stroke-dasharray:15.8,11.2;stroke-linecap:round;stroke-linejoin:round;stroke-width:2.2}
.d {fill:#a5a5a5;fill-opacity:0.2;stroke:#0050c0;stroke-linecap:round;stroke-linejoin:round;stroke-width:2.2}
.e {fill:#a5a5a5;fill-opacity:0.2;stroke:#0070f7;stroke-dasharray:2.2,4.5;stroke-linecap:round;stroke-linejoin:round;stroke-width:2.2}
.f {fill:#a5a5a5;fill-opacity:0.2;stroke:#105868;stroke-linecap:round;stroke-linejoin:round;stroke-width:2.2}
.g {fill:#a5a5a5;fill-opacity:0.2;stroke:#105868;stroke-dasharray:2.2,4.5;stroke-linecap:round;stroke-linejoin:round;stroke-width:2.2}
.h {fill:#a5a5a5;fill-opacity:0.2;stroke:#d04a00;stroke-linecap:round;stroke-linejoin:round;stroke-width:2.2}
.i {fill:#a5a5a5;fill-opacity:0.2;stroke:#c42500;stroke-dasharray:2.2,4.5;stroke-linecap:round;stroke-linejoin:round;stroke-width:2.2}
.j {fill:#2080a0;stroke:none;stroke-linecap:round;stroke-linejoin:round;stroke-width:0.5}
.k {fill:#ffffff;font-family:Arial;font-size:1.2em;font-weight:bold}
.l {font-size:1em}
.m {fill:#c42500;stroke:#c42500;stroke-linecap:round;stroke-linejoin:round;stroke-width:2.2}
.n {fill:#ffffff;font-family:Arial;font-size:1em;font-weight:bold}
.o {fill:#0050c0;stroke:#0050c0;stroke-linecap:round;stroke-linejoin:round;stroke-width:2.2}
.p {fill:#ffffff;font-family:Arial;font-size:1.5em;font-weight:bold}
.q {fill:#d04a00;stroke:#d04a00;stroke-linecap:round;stroke-linejoin:round;stroke-width:2.2}
.r {fill:#0070f7;stroke:#0070f7;stroke-linecap:round;stroke-linejoin:round;stroke-width:2.2}
.s {fill:#a41500;stroke:none;stroke-linecap:round;stroke-linejoin:round;stroke-width:1}
.t {fill:#e82200;stroke:none;stroke-linecap:round;stroke-linejoin:round;stroke-width:1}
.u {fill:#606060;stroke:#606060;stroke-linecap:round;stroke-linejoin:round;stroke-width:2.2}
.v {fill:#3c3c3c;stroke:#3c3c3c;stroke-linecap:round;stroke-linejoin:round;stroke-width:2.2}
.w {fill:#2080a0;stroke:#2080a0;stroke-linecap:round;stroke-linejoin:round;stroke-width:2.2}
.x {fill:#105868;stroke:#105868;stroke-linecap:round;stroke-linejoin:round;stroke-width:2.2}
.y {fill:none;stroke:none;stroke-linecap:round;stroke-linejoin:round;stroke-width:0.8}
.z {fill:#7f7f7f;font-family:Calibri;font-size:1em}
.a {fill:none;fill-rule:evenodd;font-size:12px;overflow:visible;stroke-linecap:square;stroke-miterlimit:3}
</style><rect x="16" y="16" width="800" height="752" rx="8" ry="8" class="b"/><rect x="32" y="400" width="768" height="352" rx="8" ry="8" class="c"/><rect x="48" y="80" width="624" height="608" rx="8" ry="8" class="d"/><rect x="64" y="416" width="592" height="256" rx="8" ry="8" class="e"/><rect x="80" y="144" width="384" height="464" rx="8" ry="8" class="f"/><rect x="96" y="432" width="352" height="160" rx="8" ry="8" class="g"/><rect x="480" y="240" width="160" height="368" rx="8" ry="8" class="h"/><rect x="496" y="432" width="128" height="160" rx="8" ry="8" class="i"/><a target="_blank" href="https://learn.microsoft.com/advanced-threat-analytics/"><rect x="512" y="304" width="96" height="80" rx="8" ry="8" class="j"/><text x="526.6" y="323" class="k">Advanced <tspan x="538.6" dy="1.2em" class="l">Threat </tspan><tspan x="528.9" dy="1.2em" class="l">Analytics </tspan><tspan x="531.2" dy="1.2em" class="l">(retiring)</tspan></text></a><a target="_blank" href="https://www.microsoft.com/licensing/product-licensing/client-access-license"><rect x="512" y="448" width="96" height="80" rx="8" ry="8" class="j"/><text x="529.3" y="483.8" class="k">Windows <tspan x="538.2" dy="1.2em" class="l">Server</tspan></text></a><a target="_blank" href="https://learn.microsoft.com/configmgr/core/understand/introduction"><rect x="688" y="448" width="96" height="80" rx="8" ry="8" class="j"/><text x="713.8" y="483.8" class="k">Config <tspan x="707.2" dy="1.2em" class="l">Manager</tspan></text></a><a target="_blank" href="https://learn.microsoft.com/sccm/protect/deploy-use/endpoint-protection"><rect x="688" y="544" width="96" height="80" rx="8" ry="8" class="j"/><text x="713.8" y="563" class="k">Config <tspan x="707.2" dy="1.2em" class="l">Manager </tspan><tspan x="705.7" dy="1.2em" class="l">Endpoint </tspan><tspan x="701.4" dy="1.2em" class="l">Protection</tspan></text></a><a target="_blank" href="https://learn.microsoft.com/azure/information-protection/compare-on-premise"><rect x="688" y="304" width="96" height="80" rx="8" ry="8" class="j"/><text x="715" y="331.4" class="k">Active <tspan x="705.3" dy="1.2em" class="l">Directory </tspan><tspan x="720.4" dy="1.2em" class="l">RMS</tspan></text></a><a target="_blank" href="https://www.microsoft.com/licensing/product-licensing/client-access-license"><rect x="496" y="544" width="128" height="48" rx="8" ry="8" class="m"/><text x="502" y="564.4" class="n">Core CAL Bridge for <tspan x="506.5" dy="1.2em" class="l">Office 365 + Intune</tspan></text></a><a target="_blank" href="https://www.microsoft.com/licensing/product-licensing/client-access-license"><rect x="48" y="80" width="624" height="48" rx="8" ry="8" class="o"/><text x="219.5" y="109.4" class="p">Enterprise CAL Bridge for Intune</text></a><a target="_blank" href="https://www.microsoft.com/licensing/product-licensing/client-access-license"><rect x="480" y="240" width="160" height="48" rx="8" ry="8" class="q"/><text x="486" y="260.4" class="n">Enterprise CAL Bridge for <tspan x="506.5" dy="1.2em" class="l">Office 365 + Intune</tspan></text></a><a target="_blank" href="https://www.microsoft.com/licensing/product-licensing/client-access-license"><rect x="64" y="624" width="592" height="48" rx="8" ry="8" class="r"/><text x="243.5" y="653.4" class="p">Core CAL Bridge for Intune</text></a><a target="_blank" href="https://www.microsoft.com/microsoft-365/exchange/microsoft-exchange-server-licensing-licensing-overview"><rect x="112" y="448" width="96" height="80" rx="8" ry="8" class="s"/><text x="126.9" y="475.4" class="k">Exchange <tspan x="138.2" dy="1.2em" class="l">Server </tspan><tspan x="125" dy="1.2em" class="l">(Standard)</tspan></text></a><a target="_blank" href="https://www.microsoft.com/microsoft-365/sharepoint/sharepoint-licensing-overview"><rect x="224" y="448" width="96" height="80" rx="8" ry="8" class="s"/><text x="235" y="475.4" class="k">SharePoint <tspan x="250.2" dy="1.2em" class="l">Server </tspan><tspan x="237" dy="1.2em" class="l">(Standard)</tspan></text></a><a target="_blank" href="https://www.microsoft.com/microsoft-365/skype-for-business/it-pros"><rect x="336" y="448" width="96" height="80" rx="8" ry="8" class="s"/><text x="352.1" y="467" class="k">Skype for <tspan x="352.9" dy="1.2em" class="l">Business </tspan><tspan x="362.2" dy="1.2em" class="l">Server </tspan><tspan x="349" dy="1.2em" class="l">(Standard)</tspan></text></a><a target="_blank" href="https://www.microsoft.com/microsoft-365/exchange/microsoft-exchange-server-licensing-licensing-overview"><rect x="112" y="208" width="96" height="80" rx="8" ry="8" class="t"/><text x="126.9" y="235.4" class="k">Exchange <tspan x="138.2" dy="1.2em" class="l">Server </tspan><tspan x="120.7" dy="1.2em" class="l">(Enterprise)</tspan></text></a><a target="_blank" href="https://www.microsoft.com/microsoft-365/sharepoint/sharepoint-licensing-overview"><rect x="224" y="208" width="96" height="80" rx="8" ry="8" class="t"/><text x="235" y="235.4" class="k">SharePoint <tspan x="250.2" dy="1.2em" class="l">Server </tspan><tspan x="232.7" dy="1.2em" class="l">(Enterprise)</tspan></text></a><a target="_blank" href="https://www.microsoft.com/microsoft-365/skype-for-business/it-pros"><rect x="336" y="208" width="96" height="80" rx="8" ry="8" class="t"/><text x="352.1" y="227" class="k">Skype for <tspan x="352.9" dy="1.2em" class="l">Business </tspan><tspan x="362.2" dy="1.2em" class="l">Server </tspan><tspan x="344.7" dy="1.2em" class="l">(Enterprise)</tspan></text></a><a target="_blank" href="https://learn.microsoft.com/Exchange/policy-and-compliance/data-loss-prevention/data-loss-prevention"><rect x="112" y="304" width="96" height="80" rx="8" ry="8" class="t"/><text x="126.9" y="331.4" class="k">Exchange <tspan x="126.6" dy="1.2em" class="l">Data Loss </tspan><tspan x="123.8" dy="1.2em" class="l">Prevention</tspan></text></a><a target="_blank" href="https://learn.microsoft.com/office365/servicedescriptions/exchange-online-protection-service-description/exchange-online-protection-service-description"><rect x="224" y="304" width="96" height="80" rx="8" ry="8" class="t"/><text x="238.9" y="331.4" class="k">Exchange <tspan x="250.2" dy="1.2em" class="l">Online </tspan><tspan x="237.4" dy="1.2em" class="l">Protection</tspan></text></a><a target="_blank" href="https://learn.microsoft.com/office365/servicedescriptions/exchange-online-archiving-service-description/exchange-online-archiving-service-description"><rect x="336" y="304" width="96" height="80" rx="8" ry="8" class="t"/><text x="362.2" y="323" class="k">Online <tspan x="340.4" dy="1.2em" class="l">Archiving for </tspan><tspan x="350.9" dy="1.2em" class="l">Exchange </tspan><tspan x="362.2" dy="1.2em" class="l">Server</tspan></text></a><a target="_blank" href="https://www.microsoft.com/licensing/product-licensing/client-access-license"><rect x="32" y="704" width="768" height="48" rx="8" ry="8" class="u"/><text x="374.5" y="733.4" class="p">Core CAL</text></a><a target="_blank" href="https://www.microsoft.com/licensing/product-licensing/client-access-license"><rect x="16" y="16" width="800" height="48" rx="8" ry="8" class="v"/><text x="350.5" y="45.4" class="p">Enterprise CAL</text></a><a target="_blank" href="https://www.microsoft.com/licensing/product-licensing/client-access-license"><rect x="96" y="544" width="352" height="48" rx="8" ry="8" class="w"/><text x="163" y="573.4" class="p">Core CAL Bridge for EMS</text></a><a target="_blank" href="https://www.microsoft.com/licensing/product-licensing/client-access-license"><rect x="80" y="144" width="384" height="48" rx="8" ry="8" class="x"/><text x="139" y="173.4" class="p">Enterprise CAL Bridge for EMS</text></a><a target="_blank" href="https://m365maps.com/"><rect y="768" width="832" height="16" class="y"/><text x="749.8" y="779.6" class="z">m365maps.com</text></a></svg>