<svg xmlns="http://www.w3.org/2000/svg" width="752" height="432" viewBox="0 0 752 432" class="a"><style>
.b {fill:#a5a5a5;fill-opacity:0.2;stroke:#3c3c3c;stroke-linecap:round;stroke-linejoin:round;stroke-width:2.2}
.c {fill:#a5a5a5;fill-opacity:0.2;stroke:#606060;stroke-linecap:round;stroke-linejoin:round;stroke-width:2.2}
.d {fill:#2080a0;stroke:none;stroke-linecap:round;stroke-linejoin:round;stroke-width:0.5}
.e {fill:#ffffff;font-family:Arial;font-size:1.2em;font-weight:bold}
.f {font-size:1em}
.g {fill:#a41500;stroke:none;stroke-linecap:round;stroke-linejoin:round;stroke-width:1}
.h {fill:#e82200;stroke:none;stroke-linecap:round;stroke-linejoin:round;stroke-width:1}
.i {fill:#3c3c3c;stroke:#3c3c3c;stroke-linecap:round;stroke-linejoin:round;stroke-width:2.2}
.j {fill:#ffffff;font-family:Arial;font-size:1.5em;font-weight:bold}
.k {fill:#606060;stroke:#606060;stroke-linecap:round;stroke-linejoin:round;stroke-width:2.2}
.l {fill:none;stroke:none;stroke-linecap:round;stroke-linejoin:round;stroke-width:0.8}
.m {fill:#7f7f7f;font-family:Calibri;font-size:1em}
.a {fill:none;fill-rule:evenodd;font-size:12px;overflow:visible;stroke-linecap:square;stroke-miterlimit:3}
</style><rect x="16" y="16" width="720" height="400" rx="8" ry="8" class="b"/><rect x="32" y="256" width="688" height="144" rx="8" ry="8" class="c"/><a target="_blank" href="https://learn.microsoft.com/advanced-threat-analytics/"><rect x="496" y="160" width="96" height="80" rx="8" ry="8" class="d"/><text x="510.6" y="179" class="e">Advanced <tspan x="522.6" dy="1.2em" class="f">Threat </tspan><tspan x="512.9" dy="1.2em" class="f">Analytics </tspan><tspan x="515.2" dy="1.2em" class="f">(retiring)</tspan></text></a><a target="_blank" href="https://www.microsoft.com/licensing/product-licensing/client-access-license"><rect x="608" y="272" width="96" height="80" rx="8" ry="8" class="d"/><text x="625.3" y="307.8" class="e">Windows <tspan x="634.2" dy="1.2em" class="f">Server</tspan></text></a><a target="_blank" href="https://learn.microsoft.com/configmgr/core/understand/introduction"><rect x="384" y="272" width="96" height="80" rx="8" ry="8" class="d"/><text x="409.8" y="307.8" class="e">Config <tspan x="403.2" dy="1.2em" class="f">Manager</tspan></text></a><a target="_blank" href="https://learn.microsoft.com/sccm/protect/deploy-use/endpoint-protection"><rect x="496" y="272" width="96" height="80" rx="8" ry="8" class="d"/><text x="521.8" y="291" class="e">Config <tspan x="515.2" dy="1.2em" class="f">Manager </tspan><tspan x="513.7" dy="1.2em" class="f">Endpoint </tspan><tspan x="509.4" dy="1.2em" class="f">Protection</tspan></text></a><a target="_blank" href="https://learn.microsoft.com/azure/information-protection/compare-on-premise"><rect x="384" y="160" width="96" height="80" rx="8" ry="8" class="d"/><text x="411" y="187.4" class="e">Active <tspan x="401.3" dy="1.2em" class="f">Directory </tspan><tspan x="416.4" dy="1.2em" class="f">RMS</tspan></text></a><a target="_blank" href="https://www.microsoft.com/microsoft-365/exchange/microsoft-exchange-server-licensing-licensing-overview"><rect x="48" y="272" width="96" height="80" rx="8" ry="8" class="g"/><text x="62.9" y="299.4" class="e">Exchange <tspan x="74.2" dy="1.2em" class="f">Server </tspan><tspan x="61" dy="1.2em" class="f">(Standard)</tspan></text></a><a target="_blank" href="https://www.microsoft.com/microsoft-365/sharepoint/sharepoint-licensing-overview"><rect x="160" y="272" width="96" height="80" rx="8" ry="8" class="g"/><text x="171" y="299.4" class="e">SharePoint <tspan x="186.2" dy="1.2em" class="f">Server </tspan><tspan x="173" dy="1.2em" class="f">(Standard)</tspan></text></a><a target="_blank" href="https://www.microsoft.com/microsoft-365/skype-for-business/it-pros"><rect x="272" y="272" width="96" height="80" rx="8" ry="8" class="g"/><text x="288.1" y="291" class="e">Skype for <tspan x="288.9" dy="1.2em" class="f">Business </tspan><tspan x="298.2" dy="1.2em" class="f">Server </tspan><tspan x="285" dy="1.2em" class="f">(Standard)</tspan></text></a><a target="_blank" href="https://www.microsoft.com/microsoft-365/exchange/microsoft-exchange-server-licensing-licensing-overview"><rect x="48" y="64" width="96" height="80" rx="8" ry="8" class="h"/><text x="62.9" y="91.4" class="e">Exchange <tspan x="74.2" dy="1.2em" class="f">Server </tspan><tspan x="56.7" dy="1.2em" class="f">(Enterprise)</tspan></text></a><a target="_blank" href="https://www.microsoft.com/microsoft-365/sharepoint/sharepoint-licensing-overview"><rect x="160" y="64" width="96" height="80" rx="8" ry="8" class="h"/><text x="171" y="91.4" class="e">SharePoint <tspan x="186.2" dy="1.2em" class="f">Server </tspan><tspan x="168.7" dy="1.2em" class="f">(Enterprise)</tspan></text></a><a target="_blank" href="https://www.microsoft.com/microsoft-365/skype-for-business/it-pros"><rect x="272" y="64" width="96" height="80" rx="8" ry="8" class="h"/><text x="288.1" y="83" class="e">Skype for <tspan x="288.9" dy="1.2em" class="f">Business </tspan><tspan x="298.2" dy="1.2em" class="f">Server </tspan><tspan x="280.7" dy="1.2em" class="f">(Enterprise)</tspan></text></a><a target="_blank" href="https://www.microsoft.com/licensing/product-licensing/client-access-license"><rect x="16" y="16" width="720" height="32" rx="8" ry="8" class="i"/><text x="310.5" y="37.4" class="j">Enterprise CAL</text></a><a target="_blank" href="https://www.microsoft.com/licensing/product-licensing/client-access-license"><rect x="32" y="368" width="688" height="32" rx="8" ry="8" class="k"/><text x="334.5" y="389.4" class="j">Core CAL</text></a><a target="_blank" href="https://learn.microsoft.com/office365/servicedescriptions/exchange-online-protection-service-description/exchange-online-protection-service-description"><rect x="160" y="160" width="96" height="80" rx="8" ry="8" class="h"/><text x="174.9" y="187.4" class="e">Exchange <tspan x="186.2" dy="1.2em" class="f">Online </tspan><tspan x="173.4" dy="1.2em" class="f">Protection</tspan></text></a><a target="_blank" href="https://learn.microsoft.com/office365/servicedescriptions/exchange-online-archiving-service-description/exchange-online-archiving-service-description"><rect x="272" y="160" width="96" height="80" rx="8" ry="8" class="h"/><text x="298.2" y="179" class="e">Online <tspan x="276.4" dy="1.2em" class="f">Archiving for </tspan><tspan x="286.9" dy="1.2em" class="f">Exchange </tspan><tspan x="298.2" dy="1.2em" class="f">Server</tspan></text></a><a target="_blank" href="https://learn.microsoft.com/Exchange/policy-and-compliance/data-loss-prevention/data-loss-prevention"><rect x="48" y="160" width="96" height="80" rx="8" ry="8" class="h"/><text x="62.9" y="187.4" class="e">Exchange <tspan x="62.6" dy="1.2em" class="f">Data Loss </tspan><tspan x="59.8" dy="1.2em" class="f">Prevention</tspan></text></a><a target="_blank" href="https://m365maps.com/"><rect y="416" width="752" height="16" class="l"/><text x="669.8" y="427.6" class="m">m365maps.com</text></a></svg>