<svg xmlns="http://www.w3.org/2000/svg" width="1200" height="848" viewBox="0 0 1200 848" class="a"><style>
.b {fill:#a5a5a5;fill-opacity:0.2;stroke:#105868;stroke-linecap:round;stroke-linejoin:round;stroke-width:2.2}
.c {fill:#a5a5a5;fill-opacity:0.2;stroke:#2080a0;stroke-dasharray:15.8,11.2;stroke-linecap:round;stroke-linejoin:round;stroke-width:2.2}
.d {fill:#a5a5a5;fill-opacity:0.2;stroke:#0050c0;stroke-dasharray:2.2,4.5;stroke-linecap:round;stroke-linejoin:round;stroke-width:2.2}
.e {fill:#a5a5a5;fill-opacity:0.2;stroke:#0070f7;stroke-dasharray:2.2,4.5;stroke-linecap:round;stroke-linejoin:round;stroke-width:2.2}
.f {fill:#105868;stroke:#105868;stroke-linecap:round;stroke-linejoin:round;stroke-width:2.2}
.g {fill:#ffffff;font-family:Arial;font-size:1.7em;font-weight:bold}
.h {font-size:1em}
.i {fill:#2080a0;stroke:#2080a0;stroke-linecap:round;stroke-linejoin:round;stroke-width:2.2}
.j {fill:none;stroke:none;stroke-linecap:round;stroke-linejoin:round;stroke-width:2.5}
.k {fill:#000000;font-family:Arial;font-size:1.3em}
.l {fill:#2080a0;stroke:none;stroke-linecap:round;stroke-linejoin:round;stroke-width:1}
.m {fill:#ffffff;font-family:Arial;font-size:1.2em;font-weight:bold}
.n {fill:#0050c0;stroke:none;stroke-linecap:round;stroke-linejoin:round;stroke-width:1}
.o {fill:#105868;stroke:none;stroke-linecap:round;stroke-linejoin:round;stroke-width:1}
.p {fill:#ffffff;font-family:Arial;font-size:1.1em;font-weight:bold}
.q {fill:#0070f7;stroke:none;stroke-linecap:round;stroke-linejoin:round;stroke-width:1}
.r {baseline-shift:32.5%;font-size:0.6em}
.s {fill:#ffffff;font-family:Arial;font-size:1em;font-weight:bold}
.t {fill:none;stroke:none;stroke-linecap:round;stroke-linejoin:round;stroke-width:0.8}
.u {fill:#7f7f7f;font-family:Calibri;font-size:1em}
.a {fill:none;fill-rule:evenodd;font-size:12px;overflow:visible;stroke-linecap:square;stroke-miterlimit:3}
</style><rect x="16" y="16" width="1168" height="816" rx="8" ry="8" class="b"/><rect x="48" y="304" width="1040" height="496" rx="8" ry="8" class="c"/><rect x="128" y="48" width="608" height="736" rx="8" ry="8" class="d"/><rect x="144" y="336" width="576" height="432" rx="8" ry="8" class="e"/><a target="_blank" href="https://www.microsoft.com/cloud-platform/enterprise-mobility-security" transform="translate(336,832) rotate(-90)"><rect y="784" width="816" height="64" rx="8" ry="8" class="f"/><text x="252.1" y="810" class="g">Enterprise Mobility + Security E5<tspan x="364.7" dy="1.2em" class="h">(EMS E5)</tspan></text></a><a target="_blank" href="https://www.microsoft.com/cloud-platform/enterprise-mobility-security" transform="translate(-736,800) rotate(-90)"><rect y="784" width="496" height="64" rx="8" ry="8" class="i"/><text x="92.1" y="810" class="g">Enterprise Mobility + Security E3<tspan x="204.7" dy="1.2em" class="h">(EMS E3)</tspan></text></a><a target="_blank" href="https://azure.microsoft.com/pricing/details/active-directory/"><rect x="128" y="48" width="608" height="48" rx="8" ry="8" class="j"/><text x="363.5" y="67.2" class="k">Azure AD Premium <tspan x="409.3" dy="1.2em" class="h">Plan 2</tspan></text></a><a target="_blank" href="https://azure.microsoft.com/pricing/details/active-directory/"><rect x="144" y="720" width="576" height="48" rx="8" ry="8" class="j"/><text x="363.5" y="739.2" class="k">Azure AD Premium <tspan x="409.3" dy="1.2em" class="h">Plan 1</tspan></text></a><a target="_blank" href="https://learn.microsoft.com/advanced-threat-analytics/"><rect x="864" y="352" width="96" height="80" rx="8" ry="8" class="l"/><text x="878.6" y="371" class="m">Advanced <tspan x="890.6" dy="1.2em" class="h">Threat </tspan><tspan x="880.9" dy="1.2em" class="h">Analytics </tspan><tspan x="883.2" dy="1.2em" class="h">(retiring)</tspan></text></a><a target="_blank" href="https://learn.microsoft.com/mem/intune/fundamentals/what-is-intune"><rect x="864" y="544" width="96" height="80" rx="8" ry="8" class="l"/><text x="891" y="588.2" class="m">Intune</text></a><a target="_blank" href="https://learn.microsoft.com/azure/information-protection/what-is-information-protection"><rect x="752" y="544" width="96" height="80" rx="8" ry="8" class="l"/><text x="761.5" y="579.8" class="m">Information <tspan x="765.4" dy="1.2em" class="h">Protection</tspan></text></a><a target="_blank" href="https://www.microsoft.com/licensing/product-licensing/client-access-license"><rect x="976" y="544" width="96" height="80" rx="8" ry="8" class="l"/><text x="993.3" y="571.4" class="m">Windows <tspan x="985.9" dy="1.2em" class="h">Server CAL </tspan><tspan x="1002.2" dy="1.2em" class="h">Rights</tspan></text></a><a target="_blank" href="https://learn.microsoft.com/configmgr/core/understand/introduction"><rect x="752" y="448" width="96" height="80" rx="8" ry="8" class="l"/><text x="777.8" y="483.8" class="m">Config <tspan x="771.2" dy="1.2em" class="h">Manager</tspan></text></a><a target="_blank" href="https://learn.microsoft.com/sccm/protect/deploy-use/endpoint-protection"><rect x="864" y="448" width="96" height="80" rx="8" ry="8" class="l"/><text x="889.8" y="467" class="m">Config <tspan x="883.2" dy="1.2em" class="h">Manager </tspan><tspan x="881.7" dy="1.2em" class="h">Endpoint </tspan><tspan x="877.4" dy="1.2em" class="h">Protection</tspan></text></a><a target="_blank" href="https://learn.microsoft.com/azure/information-protection/compare-on-premise"><rect x="752" y="352" width="96" height="80" rx="8" ry="8" class="l"/><text x="779" y="379.4" class="m">Active <tspan x="769.3" dy="1.2em" class="h">Directory </tspan><tspan x="784.4" dy="1.2em" class="h">RMS</tspan></text></a><a target="_blank" href="https://learn.microsoft.com/azure/information-protection/what-is-azure-rms"><rect x="976" y="352" width="96" height="80" rx="8" ry="8" class="l"/><text x="1004.6" y="387.8" class="m">Azure <tspan x="1008.4" dy="1.2em" class="h">RMS</tspan></text></a><a target="_blank" href="https://learn.microsoft.com/mem/analytics/overview"><rect x="976" y="448" width="96" height="80" rx="8" ry="8" class="l"/><text x="993.7" y="483.8" class="m">Endpoint <tspan x="992.9" dy="1.2em" class="h">Analytics</tspan></text></a><a target="_blank" href="https://learn.microsoft.com/azure/active-directory/governance/access-reviews-overview"><rect x="160" y="96" width="96" height="80" rx="8" ry="8" class="n"/><text x="183.5" y="131.8" class="m">Access <tspan x="180" dy="1.2em" class="h">Reviews</tspan></text></a><a target="_blank" href="https://learn.microsoft.com/azure/active-directory/identity-protection/overview"><rect x="272" y="192" width="96" height="80" rx="8" ry="8" class="n"/><text x="295.1" y="227.8" class="m">Identity <tspan x="285.4" dy="1.2em" class="h">Protection</tspan></text></a><a target="_blank" href="https://learn.microsoft.com/azure/active-directory/governance/entitlement-management-overview"><rect x="160" y="192" width="96" height="80" rx="8" ry="8" class="n"/><text x="169.9" y="227.8" class="m">Entitlement <tspan x="165.2" dy="1.2em" class="h">Management</tspan></text></a><a target="_blank" href="https://learn.microsoft.com/azure/active-directory/active-directory-conditional-access-conditions#sign-in-risk"><rect x="608" y="192" width="96" height="80" rx="8" ry="8" class="n"/><text x="617.9" y="219.4" class="m">Risk-Based <tspan x="617.5" dy="1.2em" class="h">Conditional </tspan><tspan x="631.5" dy="1.2em" class="h">Access</tspan></text></a><a target="_blank" href="https://learn.microsoft.com/azure/active-directory/active-directory-privileged-identity-management-configure"><rect x="496" y="192" width="96" height="80" rx="8" ry="8" class="n"/><text x="510.5" y="219.4" class="m">Privileged <tspan x="519.1" dy="1.2em" class="h">Identity </tspan><tspan x="501.2" dy="1.2em" class="h">Management</tspan></text></a><a target="_blank" href="https://learn.microsoft.com/azure/active-directory/identity-protection/howto-identity-protection-configure-mfa-policy"><rect x="384" y="192" width="96" height="80" rx="8" ry="8" class="n"/><text x="416.8" y="219.4" class="m">MFA <tspan x="391.2" dy="1.2em" class="h">Registration </tspan><tspan x="411.4" dy="1.2em" class="h">Policy</tspan></text></a><a target="_blank" href="https://learn.microsoft.com/cloud-app-security/what-is-cloud-app-security"><rect x="752" y="192" width="96" height="80" rx="8" ry="8" class="o"/><text x="758.4" y="227.8" class="m">Defender for <tspan x="760.7" dy="1.2em" class="h">Cloud Apps</tspan></text></a><a target="_blank" href="https://learn.microsoft.com/azure/information-protection/deploy-aip-scanner"><rect x="976" y="192" width="96" height="80" rx="8" ry="8" class="o"/><text x="984.6" y="212.5" class="p">Rules-Based <tspan x="981.7" dy="1.2em" class="h">Classification </tspan><tspan x="997.3" dy="1.2em" class="h">(Client &amp; </tspan><tspan x="996.2" dy="1.2em" class="h">Scanner)</tspan></text></a><a target="_blank" href="https://learn.microsoft.com/defender-for-identity/what-is"><rect x="864" y="192" width="96" height="80" rx="8" ry="8" class="o"/><text x="870.4" y="227.8" class="m">Defender for <tspan x="887.1" dy="1.2em" class="h">Identity</tspan></text></a><a target="_blank" href="https://learn.microsoft.com/azure/active-directory/reports-monitoring/"><rect x="272" y="352" width="96" height="80" rx="8" ry="8" class="q"/><text x="286.6" y="371" class="m">Advanced <tspan x="292.4" dy="1.2em" class="h">Security </tspan><tspan x="286.6" dy="1.2em" class="h">Reports &amp; </tspan><tspan x="300.2" dy="1.2em" class="h">Alerts</tspan></text></a><a target="_blank" href="https://learn.microsoft.com/azure/active-directory/hybrid/how-to-connect-sso"><rect x="160" y="640" width="96" height="80" rx="8" ry="8" class="q"/><text x="167.2" y="667.4" class="m">Single-Sign-<tspan x="170.3" dy="1.2em" class="h">On to other </tspan><tspan x="190.9" dy="1.2em" class="h">SaaS</tspan></text></a><a target="_blank" href="https://learn.microsoft.com/azure/active-directory/manage-apps/application-proxy"><rect x="384" y="352" width="96" height="80" rx="8" ry="8" class="q"/><text x="395" y="379.4" class="m">App Proxy, <tspan x="400.9" dy="1.2em" class="h">including </tspan><tspan x="392.3" dy="1.2em" class="h">PingAccess</tspan></text></a><a target="_blank" href="https://learn.microsoft.com/azure/active-directory/authentication/concept-mfa-howitworks"><rect x="160" y="544" width="96" height="80" rx="8" ry="8" class="q"/><text x="168" y="579.8" class="m">Multi-Factor <tspan x="170.3" dy="1.2em" class="h">Auth (MFA)</tspan></text></a><a target="_blank" href="https://learn.microsoft.com/azure/active-directory/hybrid/whatis-azure-ad-connect#what-is-azure-ad-connect-health"><rect x="496" y="352" width="96" height="80" rx="8" ry="8" class="q"/><text x="512.5" y="379.4" class="m">Azure AD <tspan x="516" dy="1.2em" class="h">Connect </tspan><tspan x="522.6" dy="1.2em" class="h">Health</tspan></text></a><a target="_blank" href="https://learn.microsoft.com/cloud-app-security/set-up-cloud-discovery"><rect x="608" y="352" width="96" height="80" rx="8" ry="8" class="q"/><text x="620.6" y="387.8" class="m">Cloud App <tspan x="622.5" dy="1.2em" class="h">Discovery</tspan></text></a><a target="_blank" href="https://learn.microsoft.com/azure/active-directory/users-groups-roles/users-sharing-accounts"><rect x="608" y="544" width="96" height="80" rx="8" ry="8" class="q"/><text x="632.3" y="563" class="m">Shared <tspan x="628" dy="1.2em" class="h">Account </tspan><tspan x="622.9" dy="1.2em" class="h">Password </tspan><tspan x="624.5" dy="1.2em" class="h">Roll</tspan>-Over</text></a><a target="_blank" href="https://learn.microsoft.com/azure/active-directory/authentication/concept-sspr-howitworks"><rect x="496" y="544" width="96" height="80" rx="8" ry="8" class="q"/><text x="503.9" y="571.4" class="m">Self-Service <tspan x="510.9" dy="1.2em" class="h">Password </tspan><tspan x="504.7" dy="1.2em" class="h">Reset in AD</tspan></text></a><a target="_blank" href="https://learn.microsoft.com/azure/active-directory/users-groups-roles/groups-self-service-management"><rect x="384" y="544" width="96" height="80" rx="8" ry="8" class="q"/><text x="391.9" y="571.4" class="m">Self-Service <tspan x="411" dy="1.2em" class="h">Group </tspan><tspan x="389.2" dy="1.2em" class="h">Management</tspan></text></a><a target="_blank" href="https://learn.microsoft.com/azure/active-directory/conditional-access/overview"><rect x="160" y="448" width="96" height="80" rx="8" ry="8" class="q"/><text x="169.5" y="483.8" class="m">Conditional <tspan x="183.5" dy="1.2em" class="h">Access</tspan></text></a><a target="_blank" href="https://learn.microsoft.com/azure/active-directory/external-identities/"><rect x="496" y="448" width="96" height="80" rx="8" ry="8" class="q"/><text x="516.4" y="483.8" class="m">External <tspan x="513.3" dy="1.2em" class="h">Identities</tspan></text></a><a target="_blank" href="https://learn.microsoft.com/azure/active-directory/devices/enterprise-state-roaming-overview"><rect x="384" y="448" width="96" height="80" rx="8" ry="8" class="q"/><text x="397.4" y="475.4" class="m">Enterprise <tspan x="414.9" dy="1.2em" class="h">State </tspan><tspan x="402.1" dy="1.2em" class="h">Roaming</tspan></text></a><a target="_blank" href="https://learn.microsoft.com/azure/active-directory/governance/active-directory-tou"><rect x="496" y="640" width="96" height="80" rx="8" ry="8" class="q"/><text x="514.4" y="675.8" class="m">Terms of <tspan x="531.2" dy="1.2em" class="h">Use</tspan></text></a><a target="_blank" href="https://learn.microsoft.com/azure/active-directory/authentication/concept-password-ban-bad"><rect x="272" y="544" width="96" height="80" rx="8" ry="8" class="q"/><text x="286.9" y="579.8" class="m">Password <tspan x="285.4" dy="1.2em" class="h">Protection</tspan></text></a><a target="_blank" href="https://learn.microsoft.com/microsoft-identity-manager/"><rect x="608" y="448" width="96" height="80" rx="8" ry="8" class="q"/><text x="624.5" y="475.4" class="m">Microsoft <tspan x="631.1" dy="1.2em" class="h">Identity </tspan><tspan x="627.2" dy="1.2em" class="h">Manager</tspan></text></a><a target="_blank" href="https://learn.microsoft.com/azure/active-directory/conditional-access/controls#custom-controls-preview"><rect x="608" y="640" width="96" height="80" rx="8" ry="8" class="q"/><text x="628.8" y="667.4" class="m">3<tspan dy="-0.2em" class="r">rd </tspan><tspan dy="0.2em" class="h">Party  </tspan><tspan x="640.8" dy="1.2em" class="h">MFA </tspan><tspan x="619.8" dy="1.2em" class="h">Integration</tspan></text></a><a target="_blank" href="https://learn.microsoft.com/azure/active-directory/roles/administrative-units"><rect x="160" y="352" width="96" height="80" rx="8" ry="8" class="q"/><text x="166.3" y="388.4" class="s">Administrative <tspan x="193" dy="1.2em" class="h">Units</tspan></text></a><a target="_blank" href="https://learn.microsoft.com/azure/active-directory/enterprise-users/groups-create-rule"><rect x="272" y="448" width="96" height="80" rx="8" ry="8" class="q"/><text x="290.8" y="483.8" class="m">Dynamic <tspan x="295.1" dy="1.2em" class="h">Groups</tspan></text></a><a target="_blank" href="https://learn.microsoft.com/azure/active-directory/authentication/howto-authentication-sms-signin"><rect x="272" y="640" width="96" height="80" rx="8" ry="8" class="q"/><text x="279.2" y="684.2" class="m">SMS Sign-In</text></a><a target="_blank" href="https://learn.microsoft.com/azure/active-directory/authentication/howto-authentication-temporary-access-pass"><rect x="384" y="640" width="96" height="80" rx="8" ry="8" class="q"/><text x="395.8" y="675.8" class="m">Temporary <tspan x="389.2" dy="1.2em" class="h">Access Pass</tspan></text></a><a target="_blank" href="https://m365maps.com/"><rect y="832" width="1200" height="16" class="t"/><text x="1117.8" y="843.6" class="u">m365maps.com</text></a></svg>