<svg xmlns="http://www.w3.org/2000/svg" width="1168" height="736" viewBox="0 0 1168 736" class="a"><style>
.b {fill:#a5a5a5;fill-opacity:0.2;stroke:#105868;stroke-linecap:round;stroke-linejoin:round;stroke-width:2.2}
.c {fill:#a5a5a5;fill-opacity:0.2;stroke:#2080a0;stroke-dasharray:15.8,11.2;stroke-linecap:round;stroke-linejoin:round;stroke-width:2.2}
.d {fill:#105868;stroke:#105868;stroke-linecap:round;stroke-linejoin:round;stroke-width:2.2}
.e {fill:#ffffff;font-family:Arial;font-size:1.7em;font-weight:bold}
.f {font-size:1em}
.g {fill:#2080a0;stroke:#2080a0;stroke-linecap:round;stroke-linejoin:round;stroke-width:2.2}
.h {fill:#2080a0;stroke:none;stroke-linecap:round;stroke-linejoin:round;stroke-width:1}
.i {fill:#ffffff;font-family:Arial;font-size:1.2em;font-weight:bold}
.j {fill:#0050c0;stroke:none;stroke-linecap:round;stroke-linejoin:round;stroke-width:1}
.k {fill:#105868;stroke:none;stroke-linecap:round;stroke-linejoin:round;stroke-width:1}
.l {fill:#ffffff;font-family:Arial;font-size:1.1em;font-weight:bold}
.m {fill:#0070f7;stroke:none;stroke-linecap:round;stroke-linejoin:round;stroke-width:1}
.n {baseline-shift:32.5%;font-size:0.6em}
.o {fill:#ffffff;font-family:Arial;font-size:1em;font-weight:bold}
.p {fill:none;stroke:none;stroke-linecap:round;stroke-linejoin:round;stroke-width:0.8}
.q {fill:#7f7f7f;font-family:Calibri;font-size:1em}
.a {fill:none;fill-rule:evenodd;font-size:12px;overflow:visible;stroke-linecap:square;stroke-miterlimit:3}
</style><rect x="16" y="16" width="1136" height="704" rx="8" ry="8" class="b"/><rect x="48" y="256" width="1008" height="432" rx="8" ry="8" class="c"/><a target="_blank" href="https://www.microsoft.com/cloud-platform/enterprise-mobility-security" transform="translate(416,720) rotate(-90)"><rect y="672" width="704" height="64" rx="8" ry="8" class="d"/><text x="196.1" y="698" class="e">Enterprise Mobility + Security E5<tspan x="308.7" dy="1.2em" class="f">(EMS E5)</tspan></text></a><a target="_blank" href="https://www.microsoft.com/cloud-platform/enterprise-mobility-security" transform="translate(-624,688) rotate(-90)"><rect y="672" width="432" height="64" rx="8" ry="8" class="g"/><text x="60.1" y="698" class="e">Enterprise Mobility + Security E3<tspan x="172.7" dy="1.2em" class="f">(EMS E3)</tspan></text></a><a target="_blank" href="https://learn.microsoft.com/advanced-threat-analytics/"><rect x="816" y="288" width="96" height="80" rx="8" ry="8" class="h"/><text x="830.6" y="307" class="i">Advanced <tspan x="842.6" dy="1.2em" class="f">Threat </tspan><tspan x="832.9" dy="1.2em" class="f">Analytics </tspan><tspan x="835.2" dy="1.2em" class="f">(retiring)</tspan></text></a><a target="_blank" href="https://learn.microsoft.com/mem/intune/fundamentals/what-is-intune"><rect x="816" y="480" width="96" height="80" rx="8" ry="8" class="h"/><text x="843" y="524.2" class="i">Intune</text></a><a target="_blank" href="https://learn.microsoft.com/azure/information-protection/what-is-information-protection"><rect x="704" y="480" width="96" height="80" rx="8" ry="8" class="h"/><text x="713.5" y="515.8" class="i">Information <tspan x="717.4" dy="1.2em" class="f">Protection</tspan></text></a><a target="_blank" href="https://www.microsoft.com/licensing/product-licensing/client-access-license"><rect x="928" y="480" width="96" height="80" rx="8" ry="8" class="h"/><text x="945.3" y="507.4" class="i">Windows <tspan x="937.9" dy="1.2em" class="f">Server CAL </tspan><tspan x="954.2" dy="1.2em" class="f">Rights</tspan></text></a><a target="_blank" href="https://learn.microsoft.com/configmgr/core/understand/introduction"><rect x="704" y="384" width="96" height="80" rx="8" ry="8" class="h"/><text x="729.8" y="419.8" class="i">Config <tspan x="723.2" dy="1.2em" class="f">Manager</tspan></text></a><a target="_blank" href="https://learn.microsoft.com/sccm/protect/deploy-use/endpoint-protection"><rect x="816" y="384" width="96" height="80" rx="8" ry="8" class="h"/><text x="841.8" y="403" class="i">Config <tspan x="835.2" dy="1.2em" class="f">Manager </tspan><tspan x="833.7" dy="1.2em" class="f">Endpoint </tspan><tspan x="829.4" dy="1.2em" class="f">Protection</tspan></text></a><a target="_blank" href="https://learn.microsoft.com/azure/information-protection/compare-on-premise"><rect x="704" y="288" width="96" height="80" rx="8" ry="8" class="h"/><text x="731" y="315.4" class="i">Active <tspan x="721.3" dy="1.2em" class="f">Directory </tspan><tspan x="736.4" dy="1.2em" class="f">RMS</tspan></text></a><a target="_blank" href="https://learn.microsoft.com/azure/information-protection/what-is-azure-rms"><rect x="928" y="288" width="96" height="80" rx="8" ry="8" class="h"/><text x="956.6" y="323.8" class="i">Azure <tspan x="960.4" dy="1.2em" class="f">RMS</tspan></text></a><a target="_blank" href="https://learn.microsoft.com/mem/analytics/overview"><rect x="928" y="384" width="96" height="80" rx="8" ry="8" class="h"/><text x="945.7" y="419.8" class="i">Endpoint <tspan x="944.9" dy="1.2em" class="f">Analytics</tspan></text></a><a target="_blank" href="https://learn.microsoft.com/azure/active-directory/governance/access-reviews-overview"><rect x="144" y="48" width="96" height="80" rx="8" ry="8" class="j"/><text x="167.5" y="83.8" class="i">Access <tspan x="164" dy="1.2em" class="f">Reviews</tspan></text></a><a target="_blank" href="https://learn.microsoft.com/azure/active-directory/identity-protection/overview"><rect x="256" y="144" width="96" height="80" rx="8" ry="8" class="j"/><text x="279.1" y="179.8" class="i">Identity <tspan x="269.4" dy="1.2em" class="f">Protection</tspan></text></a><a target="_blank" href="https://learn.microsoft.com/azure/active-directory/governance/entitlement-management-overview"><rect x="144" y="144" width="96" height="80" rx="8" ry="8" class="j"/><text x="153.9" y="179.8" class="i">Entitlement <tspan x="149.2" dy="1.2em" class="f">Management</tspan></text></a><a target="_blank" href="https://learn.microsoft.com/azure/active-directory/active-directory-conditional-access-conditions#sign-in-risk"><rect x="592" y="144" width="96" height="80" rx="8" ry="8" class="j"/><text x="601.9" y="171.4" class="i">Risk-Based <tspan x="601.5" dy="1.2em" class="f">Conditional </tspan><tspan x="615.5" dy="1.2em" class="f">Access</tspan></text></a><a target="_blank" href="https://learn.microsoft.com/azure/active-directory/active-directory-privileged-identity-management-configure"><rect x="480" y="144" width="96" height="80" rx="8" ry="8" class="j"/><text x="494.5" y="171.4" class="i">Privileged <tspan x="503.1" dy="1.2em" class="f">Identity </tspan><tspan x="485.2" dy="1.2em" class="f">Management</tspan></text></a><a target="_blank" href="https://learn.microsoft.com/azure/active-directory/identity-protection/howto-identity-protection-configure-mfa-policy"><rect x="368" y="144" width="96" height="80" rx="8" ry="8" class="j"/><text x="400.8" y="171.4" class="i">MFA <tspan x="375.2" dy="1.2em" class="f">Registration </tspan><tspan x="395.4" dy="1.2em" class="f">Policy</tspan></text></a><a target="_blank" href="https://learn.microsoft.com/cloud-app-security/what-is-cloud-app-security"><rect x="704" y="144" width="96" height="80" rx="8" ry="8" class="k"/><text x="710.4" y="179.8" class="i">Defender for <tspan x="712.7" dy="1.2em" class="f">Cloud Apps</tspan></text></a><a target="_blank" href="https://learn.microsoft.com/azure/information-protection/deploy-aip-scanner"><rect x="928" y="144" width="96" height="80" rx="8" ry="8" class="k"/><text x="936.6" y="164.5" class="l">Rules-Based <tspan x="933.7" dy="1.2em" class="f">Classification </tspan><tspan x="949.3" dy="1.2em" class="f">(Client &amp; </tspan><tspan x="948.2" dy="1.2em" class="f">Scanner)</tspan></text></a><a target="_blank" href="https://learn.microsoft.com/defender-for-identity/what-is"><rect x="816" y="144" width="96" height="80" rx="8" ry="8" class="k"/><text x="822.4" y="179.8" class="i">Defender for <tspan x="839.1" dy="1.2em" class="f">Identity</tspan></text></a><a target="_blank" href="https://learn.microsoft.com/azure/active-directory/reports-monitoring/"><rect x="256" y="288" width="96" height="80" rx="8" ry="8" class="m"/><text x="270.6" y="307" class="i">Advanced <tspan x="276.4" dy="1.2em" class="f">Security </tspan><tspan x="270.6" dy="1.2em" class="f">Reports &amp; </tspan><tspan x="284.2" dy="1.2em" class="f">Alerts</tspan></text></a><a target="_blank" href="https://learn.microsoft.com/azure/active-directory/hybrid/how-to-connect-sso"><rect x="144" y="576" width="96" height="80" rx="8" ry="8" class="m"/><text x="151.2" y="603.4" class="i">Single-Sign-<tspan x="154.3" dy="1.2em" class="f">On to other </tspan><tspan x="174.9" dy="1.2em" class="f">SaaS</tspan></text></a><a target="_blank" href="https://learn.microsoft.com/azure/active-directory/manage-apps/application-proxy"><rect x="368" y="288" width="96" height="80" rx="8" ry="8" class="m"/><text x="379" y="315.4" class="i">App Proxy, <tspan x="384.9" dy="1.2em" class="f">including </tspan><tspan x="376.3" dy="1.2em" class="f">PingAccess</tspan></text></a><a target="_blank" href="https://learn.microsoft.com/azure/active-directory/authentication/concept-mfa-howitworks"><rect x="144" y="480" width="96" height="80" rx="8" ry="8" class="m"/><text x="152" y="515.8" class="i">Multi-Factor <tspan x="154.3" dy="1.2em" class="f">Auth (MFA)</tspan></text></a><a target="_blank" href="https://learn.microsoft.com/azure/active-directory/hybrid/whatis-azure-ad-connect#what-is-azure-ad-connect-health"><rect x="480" y="288" width="96" height="80" rx="8" ry="8" class="m"/><text x="496.5" y="315.4" class="i">Azure AD <tspan x="500" dy="1.2em" class="f">Connect </tspan><tspan x="506.6" dy="1.2em" class="f">Health</tspan></text></a><a target="_blank" href="https://learn.microsoft.com/cloud-app-security/set-up-cloud-discovery"><rect x="592" y="288" width="96" height="80" rx="8" ry="8" class="m"/><text x="604.6" y="323.8" class="i">Cloud App <tspan x="606.5" dy="1.2em" class="f">Discovery</tspan></text></a><a target="_blank" href="https://learn.microsoft.com/azure/active-directory/users-groups-roles/users-sharing-accounts"><rect x="592" y="480" width="96" height="80" rx="8" ry="8" class="m"/><text x="616.3" y="499" class="i">Shared <tspan x="612" dy="1.2em" class="f">Account </tspan><tspan x="606.9" dy="1.2em" class="f">Password </tspan><tspan x="608.5" dy="1.2em" class="f">Roll</tspan>-Over</text></a><a target="_blank" href="https://learn.microsoft.com/azure/active-directory/authentication/concept-sspr-howitworks"><rect x="480" y="480" width="96" height="80" rx="8" ry="8" class="m"/><text x="487.9" y="507.4" class="i">Self-Service <tspan x="494.9" dy="1.2em" class="f">Password </tspan><tspan x="488.7" dy="1.2em" class="f">Reset in AD</tspan></text></a><a target="_blank" href="https://learn.microsoft.com/azure/active-directory/users-groups-roles/groups-self-service-management"><rect x="368" y="480" width="96" height="80" rx="8" ry="8" class="m"/><text x="375.9" y="507.4" class="i">Self-Service <tspan x="395" dy="1.2em" class="f">Group </tspan><tspan x="373.2" dy="1.2em" class="f">Management</tspan></text></a><a target="_blank" href="https://learn.microsoft.com/azure/active-directory/conditional-access/overview"><rect x="144" y="384" width="96" height="80" rx="8" ry="8" class="m"/><text x="153.5" y="419.8" class="i">Conditional <tspan x="167.5" dy="1.2em" class="f">Access</tspan></text></a><a target="_blank" href="https://learn.microsoft.com/azure/active-directory/external-identities/"><rect x="480" y="384" width="96" height="80" rx="8" ry="8" class="m"/><text x="500.4" y="419.8" class="i">External <tspan x="497.3" dy="1.2em" class="f">Identities</tspan></text></a><a target="_blank" href="https://learn.microsoft.com/azure/active-directory/devices/enterprise-state-roaming-overview"><rect x="368" y="384" width="96" height="80" rx="8" ry="8" class="m"/><text x="381.4" y="411.4" class="i">Enterprise <tspan x="398.9" dy="1.2em" class="f">State </tspan><tspan x="386.1" dy="1.2em" class="f">Roaming</tspan></text></a><a target="_blank" href="https://learn.microsoft.com/azure/active-directory/governance/active-directory-tou"><rect x="480" y="576" width="96" height="80" rx="8" ry="8" class="m"/><text x="498.4" y="611.8" class="i">Terms of <tspan x="515.2" dy="1.2em" class="f">Use</tspan></text></a><a target="_blank" href="https://learn.microsoft.com/azure/active-directory/authentication/concept-password-ban-bad"><rect x="256" y="480" width="96" height="80" rx="8" ry="8" class="m"/><text x="270.9" y="515.8" class="i">Password <tspan x="269.4" dy="1.2em" class="f">Protection</tspan></text></a><a target="_blank" href="https://learn.microsoft.com/microsoft-identity-manager/"><rect x="592" y="384" width="96" height="80" rx="8" ry="8" class="m"/><text x="608.5" y="411.4" class="i">Microsoft <tspan x="615.1" dy="1.2em" class="f">Identity </tspan><tspan x="611.2" dy="1.2em" class="f">Manager</tspan></text></a><a target="_blank" href="https://learn.microsoft.com/azure/active-directory/conditional-access/controls#custom-controls-preview"><rect x="592" y="576" width="96" height="80" rx="8" ry="8" class="m"/><text x="612.8" y="603.4" class="i">3<tspan dy="-0.2em" class="n">rd </tspan><tspan dy="0.2em" class="f">Party  </tspan><tspan x="624.8" dy="1.2em" class="f">MFA </tspan><tspan x="603.8" dy="1.2em" class="f">Integration</tspan></text></a><a target="_blank" href="https://learn.microsoft.com/azure/active-directory/roles/administrative-units"><rect x="144" y="288" width="96" height="80" rx="8" ry="8" class="m"/><text x="150.3" y="324.4" class="o">Administrative <tspan x="177" dy="1.2em" class="f">Units</tspan></text></a><a target="_blank" href="https://learn.microsoft.com/azure/active-directory/enterprise-users/groups-create-rule"><rect x="256" y="384" width="96" height="80" rx="8" ry="8" class="m"/><text x="274.8" y="419.8" class="i">Dynamic <tspan x="279.1" dy="1.2em" class="f">Groups</tspan></text></a><a target="_blank" href="https://learn.microsoft.com/azure/active-directory/authentication/howto-authentication-sms-signin"><rect x="256" y="576" width="96" height="80" rx="8" ry="8" class="m"/><text x="263.2" y="620.2" class="i">SMS Sign-In</text></a><a target="_blank" href="https://learn.microsoft.com/azure/active-directory/authentication/howto-authentication-temporary-access-pass"><rect x="368" y="576" width="96" height="80" rx="8" ry="8" class="m"/><text x="379.8" y="611.8" class="i">Temporary <tspan x="373.2" dy="1.2em" class="f">Access Pass</tspan></text></a><a target="_blank" href="https://m365maps.com/"><rect y="720" width="1168" height="16" class="p"/><text x="1085.8" y="731.6" class="q">m365maps.com</text></a></svg>