<svg xmlns="http://www.w3.org/2000/svg" width="2592" height="1424" viewBox="0 0 2592 1424" class="a"><style>
.b {fill:#a5a5a5;fill-opacity:0.2;stroke:#d04a00;stroke-dasharray:33.8,20.2;stroke-linecap:round;stroke-linejoin:round;stroke-width:2.2}
.c {fill:#a5a5a5;fill-opacity:0.2;stroke:#105868;stroke-dasharray:33.8,20.2;stroke-linecap:round;stroke-linejoin:round;stroke-width:2.2}
.d {fill:#a5a5a5;fill-opacity:0.2;stroke:#004400;stroke-dasharray:33.8,20.2;stroke-linecap:round;stroke-linejoin:round;stroke-width:2.2}
.e {fill:#d04a00;stroke:#d04a00;stroke-linecap:round;stroke-linejoin:round;stroke-width:2.2}
.f {fill:#ffffff;font-family:Arial;font-size:1.7em;font-weight:bold}
.g {fill:#004400;stroke:#004400;stroke-linecap:round;stroke-linejoin:round;stroke-width:2.2}
.h {fill:#105868;stroke:#105868;stroke-linecap:round;stroke-linejoin:round;stroke-width:2.2}
.i {font-size:1em}
.j {fill:none;stroke:none;stroke-linecap:round;stroke-linejoin:round;stroke-width:1}
.k {fill:#0070f7;font-family:Arial;font-size:4em;font-weight:bold}
.l {fill:#0070f7;font-family:Arial;font-size:2.5em;font-weight:bold}
.m {fill:#0070f7;font-family:Arial;font-size:1.5em;font-weight:bold}
.n {fill:#a5a5a5;fill-opacity:0.2;stroke:#431d5f;stroke-linecap:round;stroke-linejoin:round;stroke-width:2.2}
.o {fill:#a5a5a5;fill-opacity:0.2;stroke:#303040;stroke-linecap:round;stroke-linejoin:round;stroke-width:2.2}
.p {fill:#a5a5a5;fill-opacity:0.2;stroke:#d04a00;stroke-dasharray:2.2,4.5;stroke-linecap:round;stroke-linejoin:round;stroke-width:2.2}
.q {fill:#a5a5a5;fill-opacity:0.2;stroke:#d04a00;stroke-dasharray:15.8,11.2;stroke-linecap:round;stroke-linejoin:round;stroke-width:2.2}
.r {fill:#a5a5a5;fill-opacity:0.2;stroke:#0050c0;stroke-dasharray:2.2,4.5;stroke-linecap:round;stroke-linejoin:round;stroke-width:2.2}
.s {fill:#a5a5a5;fill-opacity:0.2;stroke:#403050;stroke-dasharray:2.2,4.5;stroke-linecap:round;stroke-linejoin:round;stroke-width:2.2}
.t {fill:#431d5f;stroke:#431d5f;stroke-linecap:round;stroke-linejoin:round;stroke-width:2.2}
.u {fill:#000000;font-family:Arial;font-size:1.3em}
.v {fill:#403050;stroke:#403050;stroke-linecap:round;stroke-linejoin:round;stroke-width:2.2}
.w {fill:#ffffff;font-family:Arial;font-size:1.2em;font-weight:bold}
.x {fill:#d04a00;stroke:none;stroke-linecap:round;stroke-linejoin:round;stroke-width:1}
.y {fill:#ffffff;font-family:Arial;font-size:1.1em;font-weight:bold}
.z {fill:#105868;stroke:none;stroke-linecap:round;stroke-linejoin:round;stroke-width:1}
.ba {fill:#504060;stroke:none;stroke-linecap:round;stroke-linejoin:round;stroke-width:1}
.bb {fill:#303040;stroke:#303040;stroke-linecap:round;stroke-linejoin:round;stroke-width:2.2}
.bc {fill:#ffffff;font-family:Arial;font-size:1.5em;font-weight:bold}
.bd {stroke:#105868;stroke-dasharray:8,4;stroke-linecap:butt;stroke-width:4}
.be {fill:#a5a5a5;fill-opacity:0.2;stroke:#004400;stroke-dasharray:2.2,4.5;stroke-linecap:round;stroke-linejoin:round;stroke-width:2.2}
.bf {fill:#004400;stroke:none;stroke-linecap:round;stroke-linejoin:round;stroke-width:1}
.bg {fill:#0050c0;stroke:none;stroke-linecap:round;stroke-linejoin:round;stroke-width:1}
.bh {stroke:#d04a00;stroke-dasharray:8,4;stroke-linecap:butt;stroke-width:4}
.a {fill:none;fill-rule:evenodd;font-size:12px;overflow:visible;stroke-linecap:square;stroke-miterlimit:3}
</style><rect x="400" y="176" width="832" height="1232" rx="8" ry="8" class="b"/><rect x="1264" y="176" width="496" height="1232" rx="8" ry="8" class="c"/><rect x="1792" y="176" width="608" height="1232" rx="8" ry="8" class="d"/><a target="_blank" href="https://www.microsoft.com/microsoft-365/enterprise/compare-office-365-plans"><rect x="400" y="176" width="832" height="64" rx="8" ry="8" class="e"/><text x="713.2" y="214" class="f">Office 365 E5 Step-up</text></a><a target="_blank" href="https://www.microsoft.com/microsoft-365/windows/windows-11-enterprise"><rect x="1792" y="176" width="608" height="64" rx="8" ry="8" class="g"/><text x="1944.9" y="214" class="f">Windows Enterprise E5 Step-up</text></a><a target="_blank" href="https://www.microsoft.com/cloud-platform/enterprise-mobility-security"><rect x="1264" y="176" width="496" height="64" rx="8" ry="8" class="h"/><text x="1316.1" y="202" class="f">Enterprise Mobility + Security E5 Step-up<tspan x="1468.7" dy="1.2em" class="i">(EMS E5)</tspan></text></a><a target="_blank" href="https://m365maps.com/"><rect x="16" y="16" width="2448" height="64" rx="8" ry="8" class="j"/><text x="953.3" y="62.4" class="k">Microsoft 365 E5 Step-up</text></a><g><rect x="16" y="80" width="2448" height="32" class="j"/><text x="1144.9" y="105" class="l">January 2023</text></g><a target="_blank" href="https://m365maps.com/"><rect x="16" y="112" width="2448" height="32" rx="8" ry="8" class="j"/><text x="1172.5" y="133.4" class="m">m365maps.com</text></a><a target="_blank" href="https://www.microsoft.com/microsoft-365/enterprise/compare-office-365-plans"><rect x="400" y="1344" width="832" height="64" rx="8" ry="8" class="e"/><text x="713.2" y="1382" class="f">Office 365 E5 Step-up</text></a><a target="_blank" href="https://www.microsoft.com/microsoft-365/windows/windows-11-enterprise"><rect x="1792" y="1344" width="608" height="64" rx="8" ry="8" class="g"/><text x="1944.9" y="1382" class="f">Windows Enterprise E5 Step-up</text></a><a target="_blank" href="https://www.microsoft.com/cloud-platform/enterprise-mobility-security"><rect x="1264" y="1344" width="496" height="64" rx="8" ry="8" class="h"/><text x="1316.1" y="1370" class="f">Enterprise Mobility + Security E5 Step-up<tspan x="1468.7" dy="1.2em" class="i">(EMS E5)</tspan></text></a><rect x="16" y="272" width="2560" height="1040" rx="8" ry="8" class="n"/><rect x="112" y="944" width="2368" height="336" rx="8" ry="8" class="o"/><rect x="416" y="960" width="800" height="304" rx="8" ry="8" class="p"/><rect x="432" y="976" width="768" height="144" rx="8" ry="8" class="q"/><rect x="1392" y="960" width="352" height="240" rx="8" ry="8" class="r"/><rect x="112" y="416" width="2368" height="496" rx="8" ry="8" class="o"/><rect x="192" y="432" width="1056" height="112" rx="8" ry="8" class="s"/><rect x="192" y="560" width="1056" height="112" rx="8" ry="8" class="s"/><rect x="192" y="688" width="1584" height="208" rx="8" ry="8" class="s"/><a target="_blank" href="https://www.microsoft.com/microsoft-365/compare-all-microsoft-365-plans" transform="translate(1152,1312) rotate(-90)"><rect y="1360" width="1040" height="64" rx="8" ry="8" class="t"/><text x="400.5" y="1398" class="f">Microsoft 365 E5 Step-up</text></a><a target="_blank" href="https://www.microsoft.com/microsoft-365/compare-all-microsoft-365-plans" transform="translate(-1344,1312) rotate(-90)"><rect y="1360" width="1040" height="64" rx="8" ry="8" class="t"/><text x="400.5" y="1398" class="f">Microsoft 365 E5 Step-up</text></a><a target="_blank" href="https://azure.microsoft.com/pricing/details/active-directory/"><rect x="1392" y="1152" width="352" height="48" rx="8" ry="8" class="j"/><text x="1499.5" y="1171.2" class="u">Azure AD Premium <tspan x="1515.1" dy="1.2em" class="i">Plan 2 Step</tspan>-up</text></a><a target="_blank" href="https://learn.microsoft.com/microsoft-365/compliance/microsoft-365-solution-catalog#information-protection--governance-section" transform="translate(-1184,896) rotate(-90)"><rect y="1376" width="208" height="48" rx="8" ry="8" class="v"/><text x="22" y="1395.8" class="w">Information Protection &amp; <tspan x="63.5" dy="1.2em" class="i">Governance</tspan></text></a><a target="_blank" href="https://learn.microsoft.com/office365/servicedescriptions/microsoft-365-service-descriptions/microsoft-365-tenantlevel-services-licensing-guidance/microsoft-365-security-compliance-licensing-guidance#microsoft-purview-insider-risk-management" transform="translate(-1184,672) rotate(-90)"><rect y="1376" width="112" height="48" rx="8" ry="8" class="v"/><text x="16.3" y="1395.8" class="w">Insider Risk <tspan x="13.2" dy="1.2em" class="i">Management</tspan></text></a><a target="_blank" href="https://learn.microsoft.com/microsoft-365/compliance/microsoft-365-solution-catalog#discovery--response-section" transform="translate(-1184,544) rotate(-90)"><rect y="1376" width="112" height="48" rx="8" ry="8" class="v"/><text x="11.6" y="1395.8" class="w">eDiscovery &amp; <tspan x="38.1" dy="1.2em" class="i">Audit</tspan></text></a><a target="_blank" href="https://learn.microsoft.com/microsoft-365/security/office-365-security/atp-safe-links"><rect x="896" y="992" width="96" height="80" rx="8" ry="8" class="x"/><text x="909" y="1036.2" class="w">Safe Links</text></a><a target="_blank" href="https://learn.microsoft.com/microsoft-365/security/office-365-security/atp-safe-attachments"><rect x="784" y="992" width="96" height="80" rx="8" ry="8" class="x"/><text x="817.2" y="1027.8" class="w">Safe <tspan x="789.6" dy="1.2em" class="i">Attachments</tspan></text></a><a target="_blank" href="https://learn.microsoft.com/microsoft-365/security/office-365-security/atp-anti-phishing"><rect x="448" y="992" width="96" height="80" rx="8" ry="8" class="x"/><text x="480.1" y="1027.8" class="w">Anti-<tspan x="466.4" dy="1.2em" class="i">Phishing</tspan></text></a><a target="_blank" href="https://learn.microsoft.com/microsoft-365/security/office-365-security/attack-simulation-training-get-started"><rect x="432" y="1136" width="96" height="80" rx="8" ry="8" class="x"/><text x="458.6" y="1163.4" class="w">Attack <tspan x="444.2" dy="1.2em" class="i">Simulation </tspan><tspan x="452.4" dy="1.2em" class="i">Training</tspan></text></a><a target="_blank" href="https://learn.microsoft.com/microsoft-365/security/office-365-security/automated-investigation-response-office"><rect x="544" y="1136" width="96" height="80" rx="8" ry="8" class="x"/><text x="555.4" y="1163.4" class="w">Automated <tspan x="548.8" dy="1.2em" class="i">Investigation </tspan><tspan x="551.6" dy="1.2em" class="i">&amp; Response</tspan></text></a><a target="_blank" href="https://learn.microsoft.com/microsoft-365/security/office-365-security/campaigns"><rect x="656" y="1136" width="96" height="80" rx="8" ry="8" class="x"/><text x="670.2" y="1171.8" class="w">Campaign <tspan x="684.2" dy="1.2em" class="i">Views</tspan></text></a><a target="_blank" href="https://learn.microsoft.com/microsoft-365/security/office-365-security/threat-explorer"><rect x="880" y="1136" width="96" height="80" rx="8" ry="8" class="x"/><text x="906.6" y="1171.8" class="w">Threat <tspan x="899.6" dy="1.2em" class="i">Explorer</tspan></text></a><a target="_blank" href="https://learn.microsoft.com/office365/securitycompliance/threat-trackers"><rect x="992" y="1136" width="96" height="80" rx="8" ry="8" class="x"/><text x="1018.6" y="1171.8" class="w">Threat <tspan x="1010.8" dy="1.2em" class="i">Trackers</tspan></text></a><a target="_blank" href="https://learn.microsoft.com/microsoft-365/security/office-365-security/address-compromised-users-quickly"><rect x="768" y="1136" width="96" height="80" rx="8" ry="8" class="x"/><text x="772.3" y="1164.3" class="y">Compromised <tspan x="801.6" dy="1.2em" class="i">User </tspan><tspan x="786.4" dy="1.2em" class="i">Detection</tspan></text></a><a target="_blank" href="https://learn.microsoft.com/office365/servicedescriptions/office-365-advanced-threat-protection-service-description#feature-availability-across-advanced-threat-protection-atp-plans"><rect x="432" y="1072" width="768" height="48" rx="8" ry="8" class="j"/><text x="732.8" y="1091.2" class="u">Defender for Office 365 <tspan x="793.3" dy="1.2em" class="i">Plan 1</tspan></text></a><a target="_blank" href="https://learn.microsoft.com/office365/servicedescriptions/office-365-advanced-threat-protection-service-description#feature-availability-across-advanced-threat-protection-atp-plans"><rect x="416" y="1216" width="800" height="48" rx="8" ry="8" class="j"/><text x="732.8" y="1235.2" class="u">Defender for Office 365 <tspan x="793.3" dy="1.2em" class="i">Plan 2</tspan></text></a><a target="_blank" href="https://learn.microsoft.com/cloud-app-security/what-is-cloud-app-security"><rect x="1280" y="976" width="96" height="80" rx="8" ry="8" class="z"/><text x="1286.4" y="1011.8" class="w">Defender for <tspan x="1288.7" dy="1.2em" class="i">Cloud Apps</tspan></text></a><a target="_blank" href="https://learn.microsoft.com/defender-for-identity/what-is"><rect x="1280" y="1072" width="96" height="80" rx="8" ry="8" class="z"/><text x="1286.4" y="1107.8" class="w">Defender for <tspan x="1303.1" dy="1.2em" class="i">Identity</tspan></text></a><a target="_blank" href="https://learn.microsoft.com/cloud-app-security/what-is-cloud-app-security"><rect x="1280" y="800" width="96" height="80" rx="8" ry="8" class="z"/><text x="1286.4" y="835.8" class="w">Defender for <tspan x="1288.7" dy="1.2em" class="i">Cloud Apps</tspan></text></a><a target="_blank" href="https://learn.microsoft.com/microsoft-365/compliance/classifier-learn-about"><rect x="272" y="800" width="96" height="80" rx="8" ry="8" class="ba"/><text x="288.9" y="835.8" class="w">Trainable <tspan x="284.6" dy="1.2em" class="i">Classifiers</tspan></text></a><a target="_blank" href="https://learn.microsoft.com/microsoft-365/compliance/endpoint-dlp-learn-about"><rect x="272" y="704" width="96" height="80" rx="8" ry="8" class="ba"/><text x="289.7" y="739.8" class="w">Endpoint <tspan x="306" dy="1.2em" class="i">DLP</tspan></text></a><a target="_blank" href="https://learn.microsoft.com/microsoft-365/security/office-365-security/install-app-guard"><rect x="272" y="976" width="96" height="80" rx="8" ry="8" class="ba"/><text x="281.9" y="1003.4" class="w">Application <tspan x="288.1" dy="1.2em" class="i">Guard for </tspan><tspan x="300.2" dy="1.2em" class="i">Office</tspan></text></a><a target="_blank" href="https://learn.microsoft.com/microsoft-365/security/office-365-security/safe-docs"><rect x="272" y="1072" width="96" height="80" rx="8" ry="8" class="ba"/><text x="305.2" y="1107.8" class="w">Safe <tspan x="281.9" dy="1.2em" class="i">Documents</tspan></text></a><a target="_blank" href="https://learn.microsoft.com/microsoft-365/compliance/insider-risk-management"><rect x="272" y="576" width="96" height="80" rx="8" ry="8" class="ba"/><text x="280.3" y="611.8" class="w">Insider Risk <tspan x="277.2" dy="1.2em" class="i">Management</tspan></text></a><a target="_blank" href="https://learn.microsoft.com/MicrosoftTeams/what-is-phone-system-in-office-365"><rect x="1104" y="304" width="96" height="80" rx="8" ry="8" class="x"/><text x="1129.8" y="339.8" class="w">Teams <tspan x="1130.6" dy="1.2em" class="i">Phone</tspan></text></a><a target="_blank" href="https://learn.microsoft.com/microsoftteams/audio-conferencing-in-office-365"><rect x="432" y="304" width="96" height="80" rx="8" ry="8" class="x"/><text x="461.6" y="332.3" class="y">Audio <tspan x="438.1" dy="1.2em" class="i">Conferencing </tspan><tspan x="465.9" dy="1.2em" class="i">(full)</tspan></text></a><a target="_blank" href="https://learn.microsoft.com/power-bi/service-get-started"><rect x="880" y="304" width="96" height="80" rx="8" ry="8" class="x"/><text x="884.4" y="348.2" class="w">Power BI Pro</text></a><a target="_blank" href="https://learn.microsoft.com/office365/servicedescriptions/mya-service-description"><rect x="656" y="304" width="96" height="80" rx="8" ry="8" class="x"/><text x="663.2" y="339.8" class="w">MyAnalytics <tspan x="688.8" dy="1.2em" class="i">(full)</tspan></text></a><a target="_blank" href="https://learn.microsoft.com/cloud-app-security/editions-cloud-app-security-o365"><rect x="768" y="304" width="96" height="80" rx="8" ry="8" class="x"/><text x="782.5" y="331.4" class="w">Office 365 <tspan x="780.6" dy="1.2em" class="i">Cloud App </tspan><tspan x="788.4" dy="1.2em" class="i">Security</tspan></text></a><a target="_blank" href="https://learn.microsoft.com/microsoft-365/security/office-365-security/view-reports-for-mdo"><rect x="672" y="992" width="96" height="80" rx="8" ry="8" class="x"/><text x="686.6" y="1027.8" class="w">Real-Time <tspan x="693.6" dy="1.2em" class="i">Reports</tspan></text></a><a target="_blank" href="https://learn.microsoft.com/microsoft-365/security/" transform="translate(1056,1280) rotate(-90)"><rect y="1376" width="336" height="48" rx="8" ry="8" class="bb"/><text x="58.5" y="1405.4" class="bc">Microsoft 365 E5 Security</text></a><a target="_blank" href="https://learn.microsoft.com/microsoft-365/security/" transform="translate(-1264,1280) rotate(-90)"><rect y="1376" width="336" height="48" rx="8" ry="8" class="bb"/><text x="58.5" y="1405.4" class="bc">Microsoft 365 E5 Security</text></a><a target="_blank" href="https://learn.microsoft.com/microsoft-365/compliance/" transform="translate(-1264,912) rotate(-90)"><rect y="1376" width="496" height="48" rx="8" ry="8" class="bb"/><text x="123" y="1405.4" class="bc">Microsoft 365 E5 Compliance</text></a><a target="_blank" href="https://learn.microsoft.com/microsoft-365/compliance/" transform="translate(1056,912) rotate(-90)"><rect y="1376" width="496" height="48" rx="8" ry="8" class="bb"/><text x="123" y="1405.4" class="bc">Microsoft 365 E5 Compliance</text></a><a target="_blank" href="https://learn.microsoft.com/azure/information-protection/deploy-aip-scanner"><rect x="1280" y="704" width="96" height="80" rx="8" ry="8" class="z"/><text x="1288.6" y="724.5" class="y">Rules-Based <tspan x="1285.7" dy="1.2em" class="i">Classification </tspan><tspan x="1301.3" dy="1.2em" class="i">(Client &amp; </tspan><tspan x="1300.2" dy="1.2em" class="i">Scanner)</tspan></text></a><path d="M0 1424 L96 1424" class="bd" transform="translate(2752,880) rotate(90)"/><rect x="1808" y="960" width="576" height="240" rx="8" ry="8" class="be"/><a target="_blank" href="https://learn.microsoft.com/microsoft-365/security/defender-endpoint/microsoft-defender-endpoint"><rect x="1808" y="1152" width="576" height="48" rx="8" ry="8" class="j"/><text x="2017.7" y="1171.2" class="u">Defender for Endpoint <tspan x="2043.1" dy="1.2em" class="i">Plan 2 Step</tspan>-up</text></a><a target="_blank" href="https://www.microsoft.com/licensing/terms/product/CALandMLEquivalencyLicenses/"><rect x="992" y="304" width="96" height="80" rx="8" ry="8" class="x"/><text x="1008.1" y="331.4" class="w">Skype for <tspan x="1008.9" dy="1.2em" class="i">Business </tspan><tspan x="1008.9" dy="1.2em" class="i">Plus CAL</tspan></text></a><a target="_blank" href="https://learn.microsoft.com/office365/servicedescriptions/exchange-online-protection-service-description/exchange-online-protection-service-description"><rect x="560" y="992" width="96" height="80" rx="8" ry="8" class="x"/><text x="574.9" y="1019.4" class="w">Exchange <tspan x="586.2" dy="1.2em" class="i">Online </tspan><tspan x="573.4" dy="1.2em" class="i">Protection</tspan></text></a><a target="_blank" href="https://learn.microsoft.com/windows/security/threat-protection/windows-defender-atp/automated-investigations-windows-defender-advanced-threat-protection"><rect x="1936" y="976" width="96" height="80" rx="8" ry="8" class="bf"/><text x="1947.4" y="1003.4" class="w">Automated <tspan x="1940.8" dy="1.2em" class="i">Investigation </tspan><tspan x="1943.6" dy="1.2em" class="i">&amp; Response</tspan></text></a><a target="_blank" href="https://learn.microsoft.com/windows/security/threat-protection/windows-defender-atp/overview-hunting-windows-defender-advanced-threat-protection"><rect x="1824" y="976" width="96" height="80" rx="8" ry="8" class="bf"/><text x="1838.6" y="1011.8" class="w">Advanced <tspan x="1845.6" dy="1.2em" class="i">Hunting</tspan></text></a><a target="_blank" href="https://learn.microsoft.com/windows/security/threat-protection/windows-defender-atp/overview-endpoint-detection-response"><rect x="2160" y="976" width="96" height="80" rx="8" ry="8" class="bf"/><text x="2177.7" y="1003.4" class="w">Endpoint <tspan x="2169.1" dy="1.2em" class="i">Detection &amp; </tspan><tspan x="2174.6" dy="1.2em" class="i">Response</tspan></text></a><a target="_blank" href="https://learn.microsoft.com/windows/security/threat-protection/windows-defender-atp/microsoft-threat-experts"><rect x="1824" y="1072" width="96" height="80" rx="8" ry="8" class="bf"/><text x="1840.5" y="1099.4" class="w">Microsoft <tspan x="1850.6" dy="1.2em" class="i">Threat </tspan><tspan x="1846.3" dy="1.2em" class="i">Experts</tspan></text></a><a target="_blank" href="https://learn.microsoft.com/windows/security/threat-protection/microsoft-defender-atp/evaluation-lab"><rect x="2272" y="976" width="96" height="80" rx="8" ry="8" class="bf"/><text x="2284.6" y="1011.8" class="w">Evaluation <tspan x="2307.6" dy="1.2em" class="i">Lab</tspan></text></a><a target="_blank" href="https://www.microsoft.com/security/blog/2019/01/17/windows-defender-atp-integrates-with-microsoft-information-protection-to-discover-protect-and-monitor-sensitive-data-on-windows-devices/"><rect x="1936" y="1072" width="96" height="80" rx="8" ry="8" class="bf"/><text x="1971.6" y="1107.8" class="w">MIP <tspan x="1947.8" dy="1.2em" class="i">Integration</tspan></text></a><a target="_blank" href="https://learn.microsoft.com/microsoft-365/security/defender-vulnerability-management/defender-vulnerability-management-capabilities"><rect x="2160" y="1072" width="96" height="80" rx="8" ry="8" class="bf"/><text x="2166" y="1099.4" class="w">Vulnerability <tspan x="2165.2" dy="1.2em" class="i">Management </tspan><tspan x="2188.6" dy="1.2em" class="i">(core)</tspan></text></a><a target="_blank" href="https://learn.microsoft.com/windows/security/threat-protection/windows-defender-atp/threat-analytics"><rect x="2048" y="1072" width="96" height="80" rx="8" ry="8" class="bf"/><text x="2074.6" y="1107.8" class="w">Threat <tspan x="2064.9" dy="1.2em" class="i">Analytics</tspan></text></a><a target="_blank" href="https://learn.microsoft.com/windows/security/threat-protection/microsoft-defender-atp/microsoft-cloud-app-security-integration"><rect x="2048" y="976" width="96" height="80" rx="8" ry="8" class="bf"/><text x="2054.4" y="1003.4" class="w">Defender for <tspan x="2056.7" dy="1.2em" class="i">Cloud Apps </tspan><tspan x="2059.8" dy="1.2em" class="i">Integration</tspan></text></a><a target="_blank" href="https://learn.microsoft.com/microsoft-365/security/defender-endpoint/data-storage-privacy#how-long-will-microsoft-store-my-data-what-is-microsofts-data-retention-policy"><rect x="2272" y="1072" width="96" height="80" rx="8" ry="8" class="bf"/><text x="2288.9" y="1099.4" class="w">6-Months <tspan x="2282.6" dy="1.2em" class="i">Searchable </tspan><tspan x="2304.8" dy="1.2em" class="i">Data</tspan></text></a><a target="_blank" href="https://learn.microsoft.com/azure/active-directory/governance/access-reviews-overview"><rect x="1408" y="976" width="96" height="80" rx="8" ry="8" class="bg"/><text x="1431.5" y="1011.8" class="w">Access <tspan x="1428" dy="1.2em" class="i">Reviews</tspan></text></a><a target="_blank" href="https://learn.microsoft.com/azure/active-directory/identity-protection/overview"><rect x="1632" y="976" width="96" height="80" rx="8" ry="8" class="bg"/><text x="1655.1" y="1011.8" class="w">Identity <tspan x="1645.4" dy="1.2em" class="i">Protection</tspan></text></a><a target="_blank" href="https://learn.microsoft.com/azure/active-directory/governance/entitlement-management-overview"><rect x="1520" y="976" width="96" height="80" rx="8" ry="8" class="bg"/><text x="1529.9" y="1011.8" class="w">Entitlement <tspan x="1525.2" dy="1.2em" class="i">Management</tspan></text></a><a target="_blank" href="https://learn.microsoft.com/azure/active-directory/active-directory-conditional-access-conditions#sign-in-risk"><rect x="1632" y="1072" width="96" height="80" rx="8" ry="8" class="bg"/><text x="1641.9" y="1099.4" class="w">Risk-Based <tspan x="1641.5" dy="1.2em" class="i">Conditional </tspan><tspan x="1655.5" dy="1.2em" class="i">Access</tspan></text></a><a target="_blank" href="https://learn.microsoft.com/azure/active-directory/active-directory-privileged-identity-management-configure"><rect x="1520" y="1072" width="96" height="80" rx="8" ry="8" class="bg"/><text x="1534.5" y="1099.4" class="w">Privileged <tspan x="1543.1" dy="1.2em" class="i">Identity </tspan><tspan x="1525.2" dy="1.2em" class="i">Management</tspan></text></a><a target="_blank" href="https://learn.microsoft.com/azure/active-directory/identity-protection/howto-identity-protection-configure-mfa-policy"><rect x="1408" y="1072" width="96" height="80" rx="8" ry="8" class="bg"/><text x="1440.8" y="1099.4" class="w">MFA <tspan x="1415.2" dy="1.2em" class="i">Registration </tspan><tspan x="1435.4" dy="1.2em" class="i">Policy</tspan></text></a><a target="_blank" href="https://learn.microsoft.com/microsoftsearch/licensing#entitlement-built-into-microsoft-365-or-office-365-e5-licenses"><rect x="544" y="304" width="96" height="80" rx="8" ry="8" class="x"/><text x="572.9" y="324.5" class="y">Graph <tspan x="559.5" dy="1.2em" class="i">Connector </tspan><tspan x="554.4" dy="1.2em" class="i">Index Quota </tspan><tspan x="549.4" dy="1.2em" class="i">(500 per user)</tspan></text></a><a target="_blank" href="https://azure.microsoft.com/offers/sentinel-microsoft-365-offer/"><rect x="272" y="1168" width="96" height="80" rx="8" ry="8" class="ba"/><text x="292.8" y="1203.8" class="w">Sentinel <tspan x="296.3" dy="1.2em" class="i">Benefit</tspan></text></a><a target="_blank" href="https://learn.microsoft.com/microsoft-365/compliance/customer-lockbox-requests"><rect x="656" y="576" width="96" height="80" rx="8" ry="8" class="x"/><text x="671.3" y="611.8" class="w">Customer <tspan x="675.2" dy="1.2em" class="i">Lockbox</tspan></text></a><a target="_blank" href="https://learn.microsoft.com/microsoft-365/compliance/information-barriers"><rect x="768" y="576" width="96" height="80" rx="8" ry="8" class="x"/><text x="777.5" y="611.8" class="w">Information <tspan x="789.2" dy="1.2em" class="i">Barriers</tspan></text></a><a target="_blank" href="https://learn.microsoft.com/microsoft-365/compliance/communication-compliance"><rect x="544" y="576" width="96" height="80" rx="8" ry="8" class="x"/><text x="570.2" y="611.8" class="w">Comm <tspan x="552.3" dy="1.2em" class="i">Compliance</tspan></text></a><a target="_blank" href="https://learn.microsoft.com/microsoft-365/compliance/overview-ediscovery-20"><rect x="656" y="448" width="96" height="80" rx="8" ry="8" class="x"/><text x="666.6" y="483.8" class="w">eDiscovery <tspan x="669.8" dy="1.2em" class="i">(premium)</tspan></text></a><a target="_blank" href="https://learn.microsoft.com/microsoft-365/compliance/advanced-audit"><rect x="544" y="448" width="96" height="80" rx="8" ry="8" class="x"/><text x="574.1" y="483.8" class="w">Audit <tspan x="557.8" dy="1.2em" class="i">(premium)</tspan></text></a><a target="_blank" href="https://learn.microsoft.com/microsoft-365/compliance/privileged-access-management-solution-overview"><rect x="880" y="576" width="96" height="80" rx="8" ry="8" class="x"/><text x="894.5" y="603.4" class="w">Privileged <tspan x="903.5" dy="1.2em" class="i">Access </tspan><tspan x="885.2" dy="1.2em" class="i">Management</tspan></text></a><path d="M0 1424 L48 1424" class="bh" transform="translate(-944,576) rotate(-90)"/><path d="M0 1424 L48 1424" class="bh" transform="translate(-944,704) rotate(-90)"/><a target="_blank" href="https://learn.microsoft.com/microsoft-365/compliance/customer-key-overview"><rect x="544" y="800" width="96" height="80" rx="8" ry="8" class="x"/><text x="559.3" y="835.8" class="w">Customer <tspan x="579.2" dy="1.2em" class="i">Key</tspan></text></a><a target="_blank" href="https://learn.microsoft.com/microsoft-365/compliance/dlp-microsoft-teams"><rect x="880" y="800" width="96" height="80" rx="8" ry="8" class="x"/><text x="905.8" y="827.4" class="w">Teams<tspan x="894.6" dy="1.2em" class="i">Data Loss </tspan><tspan x="891.8" dy="1.2em" class="i">Prevention</tspan></text></a><a target="_blank" href="https://learn.microsoft.com/microsoft-365/compliance/ome-advanced-message-encryption"><rect x="544" y="704" width="96" height="80" rx="8" ry="8" class="x"/><text x="558.6" y="731.4" class="w">Advanced <tspan x="562.4" dy="1.2em" class="i">Message </tspan><tspan x="555.4" dy="1.2em" class="i">Encryption</tspan></text></a><a target="_blank" href="https://learn.microsoft.com/microsoft-365/compliance/records-management"><rect x="768" y="800" width="96" height="80" rx="8" ry="8" class="x"/><text x="788" y="835.8" class="w">Records <tspan x="773.2" dy="1.2em" class="i">Management</tspan></text></a><a target="_blank" href="https://learn.microsoft.com/microsoft-365/compliance/double-key-encryption"><rect x="656" y="800" width="96" height="80" rx="8" ry="8" class="x"/><text x="665.5" y="835.8" class="w">Double Key <tspan x="667.4" dy="1.2em" class="i">Encryption</tspan></text></a><a target="_blank" href="https://learn.microsoft.com/microsoft-365/compliance/manage-data-governance"><rect x="656" y="704" width="96" height="80" rx="8" ry="8" class="x"/><text x="688.8" y="731.4" class="w">Data <tspan x="674" dy="1.2em" class="i">Lifecycle </tspan><tspan x="661.2" dy="1.2em" class="i">Management</tspan></text></a><a target="_blank" href="https://learn.microsoft.com/microsoft-365/compliance/apply-sensitivity-label-automatically"><rect x="880" y="704" width="96" height="80" rx="8" ry="8" class="x"/><text x="888.6" y="732.3" class="y">Rules-Based <tspan x="885.7" dy="1.2em" class="i">Classification</tspan><tspan x="892.6" dy="1.2em" class="i">(Office 365)</tspan></text></a><a target="_blank" href="https://learn.microsoft.com/microsoft-365/compliance/sit-learn-about-exact-data-match-based-sits"><rect x="768" y="704" width="96" height="80" rx="8" ry="8" class="x"/><text x="780.2" y="739.8" class="w">Exact Data <tspan x="795.8" dy="1.2em" class="i">Match</tspan></text></a><a target="_blank" href="https://learn.microsoft.com/office365/servicedescriptions/microsoft-365-service-descriptions/microsoft-365-tenantlevel-services-licensing-guidance/microsoft-365-security-compliance-licensing-guidance#which-templates-are-included-by-default-free-of-cost"><rect x="432" y="448" width="96" height="80" rx="8" ry="8" class="x"/><text x="440.3" y="467" class="w">3x Premium <tspan x="447" dy="1.2em" class="i">&amp; Custom </tspan><tspan x="440.3" dy="1.2em" class="i">Compliance </tspan><tspan x="445.4" dy="1.2em" class="i">Templates</tspan></text></a><a target="_blank" href="https://learn.microsoft.com/office365/servicedescriptions/microsoft-365-service-descriptions/microsoft-365-tenantlevel-services-licensing-guidance/microsoft-365-security-compliance-licensing-guidance#which-templates-are-included-by-default-free-of-cost"><rect x="432" y="576" width="96" height="80" rx="8" ry="8" class="x"/><text x="440.3" y="595" class="w">3x Premium <tspan x="447" dy="1.2em" class="i">&amp; Custom </tspan><tspan x="440.3" dy="1.2em" class="i">Compliance </tspan><tspan x="445.4" dy="1.2em" class="i">Templates</tspan></text></a><a target="_blank" href="https://learn.microsoft.com/office365/servicedescriptions/microsoft-365-service-descriptions/microsoft-365-tenantlevel-services-licensing-guidance/microsoft-365-security-compliance-licensing-guidance#which-templates-are-included-by-default-free-of-cost"><rect x="432" y="704" width="96" height="80" rx="8" ry="8" class="x"/><text x="440.3" y="723" class="w">3x Premium <tspan x="447" dy="1.2em" class="i">&amp; Custom </tspan><tspan x="440.3" dy="1.2em" class="i">Compliance </tspan><tspan x="445.4" dy="1.2em" class="i">Templates</tspan></text></a></svg>