<svg xmlns="http://www.w3.org/2000/svg" width="720" height="480" viewBox="0 0 720 480" class="a"><style>
.b {fill:#a5a5a5;fill-opacity:0.2;stroke:#303040;stroke-linecap:round;stroke-linejoin:round;stroke-width:2.2}
.c {fill:none;stroke:none;stroke-linecap:round;stroke-linejoin:round;stroke-width:0.8}
.d {fill:#7f7f7f;font-family:Arial;font-size:1em}
.e {fill:#9050d0;stroke:none;stroke-linecap:round;stroke-linejoin:round;stroke-width:0.5}
.f {fill:#ffffff;font-family:Arial;font-size:1.1em;font-weight:bold}
.g {font-size:1em}
.h {fill:#ffffff;font-family:Arial;font-size:1.2em;font-weight:bold}
.i {fill:#303040;stroke:#303040;stroke-linecap:round;stroke-linejoin:round;stroke-width:2.2}
.j {fill:#ffffff;font-family:Arial;font-size:1.5em;font-weight:bold}
.k {fill:#7030a0;stroke:none;stroke-linecap:round;stroke-linejoin:round;stroke-width:0.5}
.a {fill:none;fill-rule:evenodd;font-size:12px;overflow:visible;stroke-linecap:square;stroke-miterlimit:3}
</style><rect x="16" y="16" width="688" height="448" rx="8" ry="8" class="b"/><a target="_blank" href="https://m365maps.com/"><rect y="464" width="720" height="16" class="c"/><text x="630.6" y="475.6" class="d">m365maps.com</text></a><a target="_blank" href="https://learn.microsoft.com/microsoftteams/audio-conferencing-in-office-365"><rect x="32" y="80" width="96" height="80" rx="8" ry="8" class="e"/><text x="61.6" y="108.3" class="f">Audio <tspan x="38.1" dy="1.2em" class="g">Conferencing </tspan><tspan x="65.9" dy="1.2em" class="g">(full)</tspan></text></a><a target="_blank" href="https://products.office.com/microsoft-teams/"><rect x="592" y="176" width="96" height="80" rx="8" ry="8" class="e"/><text x="608.5" y="211.8" class="h">Microsoft <tspan x="617.8" dy="1.2em" class="g">Teams</tspan></text></a><a target="_blank" href="https://www.microsoft.com/microsoft-teams/microsoft-teams-rooms"><rect x="16" y="16" width="688" height="48" rx="8" ry="8" class="i"/><text x="238" y="45.4" class="j">Microsoft Teams Rooms Pro</text></a><a target="_blank" href="https://learn.microsoft.com/microsoft-365/whiteboard/"><rect x="32" y="272" width="96" height="80" rx="8" ry="8" class="e"/><text x="48.5" y="307.8" class="h">Microsoft <tspan x="41.5" dy="1.2em" class="g">Whiteboard</tspan></text></a><a target="_blank" href="https://learn.microsoft.com/microsoftteams/rooms/rooms-licensing#device-management"><rect x="144" y="80" width="96" height="80" rx="8" ry="8" class="e"/><text x="157.8" y="115.8" class="h">Automatic <tspan x="164.4" dy="1.2em" class="g">Updates</tspan></text></a><a target="_blank" href="https://azure.microsoft.com/pricing/details/active-directory/"><rect x="256" y="80" width="96" height="80" rx="8" ry="8" class="k"/><text x="272.5" y="107.4" class="h">Azure AD <tspan x="274" dy="1.2em" class="g">Premium </tspan><tspan x="283.4" dy="1.2em" class="g">Plan 1</tspan></text></a><a target="_blank" href="https://learn.microsoft.com/mem/intune/fundamentals/what-is-intune"><rect x="256" y="176" width="96" height="80" rx="8" ry="8" class="k"/><text x="283" y="220.2" class="h">Intune</text></a><a target="_blank" href="https://learn.microsoft.com/MicrosoftTeams/what-is-phone-system-in-office-365"><rect x="256" y="368" width="96" height="80" rx="8" ry="8" class="k"/><text x="281.8" y="403.8" class="h">Teams <tspan x="282.6" dy="1.2em" class="g">Phone</tspan></text></a><a target="_blank" href="https://learn.microsoft.com/microsoftteams/rooms/third-party-join"><rect x="368" y="176" width="96" height="80" rx="8" ry="8" class="e"/><text x="377.1" y="203.4" class="h">Join Webex <tspan x="382.6" dy="1.2em" class="g">and Zoom </tspan><tspan x="385.7" dy="1.2em" class="g">Meetings</tspan></text></a><a target="_blank" href="https://learn.microsoft.com/microsoftteams/devices/check-in-and-room-release"><rect x="144" y="368" width="96" height="80" rx="8" ry="8" class="k"/><text x="149.2" y="403.8" class="h">Teams Panel <tspan x="162.4" dy="1.2em" class="g">Check</tspan>-In</text></a><a target="_blank" href="https://learn.microsoft.com/MicrosoftTeams/what-is-phone-system-in-office-365"><rect x="368" y="80" width="96" height="80" rx="8" ry="8" class="k"/><text x="389.6" y="107.4" class="h">Content <tspan x="390.3" dy="1.2em" class="g">Camera </tspan><tspan x="389.2" dy="1.2em" class="g">Support</tspan></text></a><a target="_blank" href="https://www.microsoft.com/microsoft-teams/microsoft-teams-rooms/compare-rooms-plans"><rect x="32" y="368" width="96" height="80" rx="8" ry="8" class="k"/><text x="50" y="403.8" class="h">SIP/H323 <tspan x="53.2" dy="1.2em" class="g">Support</tspan></text></a><a target="_blank" href="https://learn.microsoft.com/microsoftteams/rooms/rooms-licensing#intelligent-audio-and-video"><rect x="144" y="176" width="96" height="80" rx="8" ry="8" class="k"/><text x="158.9" y="203.4" class="h">Intelligent <tspan x="165.2" dy="1.2em" class="g">Audio &amp; </tspan><tspan x="172.9" dy="1.2em" class="g">Video</tspan></text></a><a target="_blank" href="https://learn.microsoft.com/microsoftteams/rooms/microsoft-teams-rooms-premium#service-capabilities"><rect x="480" y="272" width="96" height="80" rx="8" ry="8" class="k"/><text x="508.2" y="299.4" class="h">Room <tspan x="491.4" dy="1.2em" class="g">Planning &amp; </tspan><tspan x="503.9" dy="1.2em" class="g">Rollout</tspan></text></a><a target="_blank" href="https://learn.microsoft.com/microsoftteams/rooms/microsoft-teams-rooms-premium#service-features"><rect x="144" y="272" width="96" height="80" rx="8" ry="8" class="k"/><text x="155.8" y="299.4" class="h">Monitoring <tspan x="149.6" dy="1.2em" class="g">and Trouble</tspan>-<tspan x="162.4" dy="1.2em" class="g">shooting</tspan></text></a><a target="_blank" href="https://learn.microsoft.com/microsoftteams/rooms/microsoft-teams-rooms-premium#service-capabilities"><rect x="592" y="272" width="96" height="80" rx="8" ry="8" class="k"/><text x="596.4" y="307.8" class="h">Service Desk <tspan x="603.8" dy="1.2em" class="g">Integration</tspan></text></a><a target="_blank" href="https://learn.microsoft.com/microsoftteams/rooms/microsoft-teams-rooms-premium#service-features"><rect x="480" y="368" width="96" height="80" rx="8" ry="8" class="k"/><text x="504.3" y="403.8" class="h">Update <tspan x="485.2" dy="1.2em" class="g">Management</tspan></text></a><a target="_blank" href="https://learn.microsoft.com/microsoftteams/rooms/health-and-usage-reports"><rect x="32" y="176" width="96" height="80" rx="8" ry="8" class="k"/><text x="44.2" y="203.4" class="h">Health and <tspan x="59" dy="1.2em" class="g">Usage </tspan><tspan x="53.6" dy="1.2em" class="g">Reports</tspan></text></a><a target="_blank" href="https://learn.microsoft.com/microsoftteams/rooms/admin-center-license-overview"><rect x="368" y="368" width="96" height="80" rx="8" ry="8" class="e"/><text x="393.8" y="395.4" class="h">Teams <tspan x="392.3" dy="1.2em" class="g">Rooms </tspan><tspan x="394.2" dy="1.2em" class="g">Admin</tspan></text></a><a target="_blank" href="https://learn.microsoft.com/microsoftteams/rooms/rooms-licensing#meeting-engagement"><rect x="480" y="176" width="96" height="80" rx="8" ry="8" class="k"/><text x="508.9" y="203.4" class="h">Large <tspan x="504.3" dy="1.2em" class="g">Gallery </tspan><tspan x="501.2" dy="1.2em" class="g">Support</tspan></text></a><a target="_blank" href="https://learn.microsoft.com/microsoftteams/rooms/rooms-licensing#meeting-engagement"><rect x="480" y="80" width="96" height="80" rx="8" ry="8" class="k"/><text x="487.5" y="115.8" class="h">Dual Screen <tspan x="501.2" dy="1.2em" class="g">Support</tspan></text></a><a target="_blank" href="https://learn.microsoft.com/microsoftteams/rooms/admin-center-license-overview#comparison-of-teams-rooms-feature-availability-by-license"><rect x="592" y="80" width="96" height="80" rx="8" ry="8" class="k"/><text x="601.9" y="115.8" class="h">Graph APIs <tspan x="607" dy="1.2em" class="g">for Admin</tspan></text></a><a target="_blank" href="https://learn.microsoft.com/microsoftteams/rooms/multi-tenant-auditing"><rect x="368" y="272" width="96" height="80" rx="8" ry="8" class="k"/><text x="396.2" y="299.4" class="h">Room <tspan x="390.7" dy="1.2em" class="g">Activity </tspan><tspan x="379.4" dy="1.2em" class="g">Audit Logs</tspan></text></a><a target="_blank" href="https://learn.microsoft.com/microsoftteams/rooms/multi-tenant-management-customer"><rect x="256" y="272" width="96" height="80" rx="8" ry="8" class="k"/><text x="279.5" y="307.8" class="h">Partner <tspan x="261.2" dy="1.2em" class="g">Management</tspan></text></a></svg>