<svg xmlns="http://www.w3.org/2000/svg" width="416" height="624" viewBox="0 0 416 624" class="a"><style>
.b {fill:#a5a5a5;fill-opacity:0.2;stroke:#e82200;stroke-linecap:round;stroke-linejoin:round;stroke-width:2.2}
.c {fill:#a5a5a5;fill-opacity:0.2;stroke:#a41500;stroke-dasharray:15.8,11.2;stroke-linecap:round;stroke-linejoin:round;stroke-width:2.2}
.d {fill:#a41500;stroke:#a41500;stroke-linecap:round;stroke-linejoin:round;stroke-width:2.2}
.e {fill:#ffffff;font-family:Arial;font-size:1.5em;font-weight:bold}
.f {fill:#a41500;stroke:none;stroke-linecap:round;stroke-linejoin:round;stroke-width:1}
.g {fill:#ffffff;font-family:Arial;font-size:1.2em;font-weight:bold}
.h {font-size:1em}
.i {fill:#e82200;stroke:#e82200;stroke-linecap:round;stroke-linejoin:round;stroke-width:2.2}
.j {fill:#e82200;stroke:none;stroke-linecap:round;stroke-linejoin:round;stroke-width:1}
.k {fill:none;stroke:none;stroke-linecap:round;stroke-linejoin:round;stroke-width:0.8}
.l {fill:#7f7f7f;font-family:Arial;font-size:1em}
.a {fill:none;fill-rule:evenodd;font-size:12px;overflow:visible;stroke-linecap:square;stroke-miterlimit:3}
</style><rect x="16" y="16" width="384" height="592" rx="8" ry="8" class="b"/><rect x="32" y="64" width="352" height="240" rx="8" ry="8" class="c"/><a target="_blank" href="https://www.microsoft.com/microsoft-365/business/microsoft-365-apps-for-business"><rect x="32" y="64" width="352" height="32" rx="8" ry="8" class="d"/><text x="68" y="85.4" class="e">Microsoft 365 Apps for Business</text></a><a target="_blank" href="https://products.office.com/mobile/office"><rect x="48" y="208" width="96" height="80" rx="8" ry="8" class="f"/><text x="76.2" y="243.8" class="g">Office <tspan x="54.4" dy="1.2em" class="h">Mobile Apps</tspan></text></a><a target="_blank" href="https://learn.microsoft.com/office365/servicedescriptions/office-online-service-description/office-online-service-description"><rect x="272" y="112" width="96" height="80" rx="8" ry="8" class="f"/><text x="300.2" y="139.4" class="g">Office<tspan x="281.5" dy="1.2em" class="h">for the Web</tspan><tspan x="284.6" dy="1.2em" class="h">(incl Visio)</tspan></text></a><a target="_blank" href="https://www.microsoft.com/microsoft-365/business/microsoft-365-apps-for-business"><rect x="160" y="112" width="96" height="80" rx="8" ry="8" class="f"/><text x="188.2" y="139.4" class="g">Office <tspan x="166" dy="1.2em" class="h">Applications </tspan><tspan x="171" dy="1.2em" class="h">(PC &amp; Mac)</tspan></text></a><a target="_blank" href="https://support.office.com/sway"><rect x="272" y="208" width="96" height="80" rx="8" ry="8" class="f"/><text x="302.1" y="252.2" class="g">Sway</text></a><a target="_blank" href="https://support.office.com/forms"><rect x="48" y="112" width="96" height="80" rx="8" ry="8" class="f"/><text x="64.5" y="147.8" class="g">Microsoft <tspan x="74.6" dy="1.2em" class="h">Forms</tspan></text></a><a target="_blank" href="https://learn.microsoft.com/office365/servicedescriptions/onedrive-for-business-service-description"><rect x="160" y="208" width="96" height="80" rx="8" ry="8" class="f"/><text x="165.6" y="235.4" class="g">OneDrive for <tspan x="176.9" dy="1.2em" class="h">Business </tspan><tspan x="187.4" dy="1.2em" class="h">Plan 1</tspan></text></a><a target="_blank" href="https://www.microsoft.com/microsoft-365/business/microsoft-365-apps-for-enterprise-product"><rect x="16" y="16" width="384" height="32" rx="8" ry="8" class="i"/><text x="63.5" y="37.4" class="e">Microsoft 365 Apps for Enterprise</text></a><a target="_blank" href="https://learn.microsoft.com/DeployOffice/overview-shared-computer-activation"><rect x="160" y="512" width="96" height="80" rx="8" ry="8" class="j"/><text x="184.3" y="539.4" class="g">Shared <tspan x="175" dy="1.2em" class="h">Computer </tspan><tspan x="174.2" dy="1.2em" class="h">Activation</tspan></text></a><a target="_blank" href="https://learn.microsoft.com/office365/servicedescriptions/office-applications-service-description/office-applications-service-description"><rect x="272" y="320" width="96" height="80" rx="8" ry="8" class="j"/><text x="276.1" y="355.8" class="g">Office Add-in <tspan x="293.2" dy="1.2em" class="h">Support</tspan></text></a><a target="_blank" href="https://learn.microsoft.com/office365/servicedescriptions/office-applications-service-description/office-applications-service-description"><rect x="160" y="416" width="96" height="80" rx="8" ry="8" class="j"/><text x="165.2" y="443.4" class="g">Office Group <tspan x="187.4" dy="1.2em" class="h">Policy </tspan><tspan x="181.2" dy="1.2em" class="h">Support</tspan></text></a><a target="_blank" href="https://support.microsoft.com/office/1315665a-c6af-4409-a28d-49f8916878ca"><rect x="48" y="320" width="96" height="80" rx="8" ry="8" class="j"/><text x="77.3" y="364.2" class="g">Delve</text></a><a target="_blank" href="https://learn.microsoft.com/deployoffice/compat/compatibility-and-telemetry-in-office"><rect x="272" y="416" width="96" height="80" rx="8" ry="8" class="j"/><text x="300.2" y="451.8" class="g">Office <tspan x="286.9" dy="1.2em" class="h">Telemetry</tspan></text></a><a target="_blank" href="https://learn.microsoft.com/deployoffice/overview-office-cloud-policy-service"><rect x="48" y="416" width="96" height="80" rx="8" ry="8" class="j"/><text x="54.4" y="443.4" class="g">Office Cloud <tspan x="75.4" dy="1.2em" class="h">Policy </tspan><tspan x="71.1" dy="1.2em" class="h">Service</tspan></text></a><a target="_blank" href="https://learn.microsoft.com/office365/servicedescriptions/office-applications-service-description/office-applications-service-description"><rect x="272" y="512" width="96" height="80" rx="8" ry="8" class="j"/><text x="298.2" y="539.4" class="g">Virtual <tspan x="277.6" dy="1.2em" class="h">Desktop Use </tspan><tspan x="298.2" dy="1.2em" class="h">Rights</tspan></text></a><a target="_blank" href="https://learn.microsoft.com/microsoft-365/whiteboard/"><rect x="160" y="320" width="96" height="80" rx="8" ry="8" class="j"/><text x="176.5" y="355.8" class="g">Microsoft <tspan x="169.5" dy="1.2em" class="h">Whiteboard</tspan></text></a><a target="_blank" href="https://learn.microsoft.com/office365/servicedescriptions/office-applications-service-description/office-applications-service-description"><rect x="48" y="512" width="96" height="80" rx="8" ry="8" class="j"/><text x="66.1" y="547.8" class="g">Roaming <tspan x="68.4" dy="1.2em" class="h">Settings</tspan></text></a><a target="_blank" href="https://m365maps.com/"><rect y="608" width="416" height="16" class="k"/><text x="326.6" y="619.6" class="l">m365maps.com</text></a></svg>