<svg xmlns="http://www.w3.org/2000/svg" width="2624" height="1104" viewBox="0 0 2624 1104" class="a"><style>
.b {fill:#a5a5a5;fill-opacity:0.2;stroke:#7030a0;stroke-linecap:round;stroke-linejoin:round;stroke-width:2.2}
.c {fill:#a5a5a5;fill-opacity:0.2;stroke:#e82200;stroke-dasharray:33.8,20.2;stroke-linecap:round;stroke-linejoin:round;stroke-width:2.2}
.d {fill:#a5a5a5;fill-opacity:0.2;stroke:#006600;stroke-dasharray:33.8,20.2;stroke-linecap:round;stroke-linejoin:round;stroke-width:2.2}
.e {fill:#a5a5a5;fill-opacity:0.2;stroke:#2080a0;stroke-dasharray:33.8,20.2;stroke-linecap:round;stroke-linejoin:round;stroke-width:2.2}
.f {fill:#7030a0;stroke:#7030a0;stroke-linecap:round;stroke-linejoin:round;stroke-width:2.2}
.g {fill:#ffffff;font-family:Arial;font-size:1.7em;font-weight:bold}
.h {fill:#e82200;stroke:#e82200;stroke-linecap:round;stroke-linejoin:round;stroke-width:2.2}
.i {fill:#006600;stroke:#006600;stroke-linecap:round;stroke-linejoin:round;stroke-width:2.2}
.j {fill:#2080a0;stroke:#2080a0;stroke-linecap:round;stroke-linejoin:round;stroke-width:2.2}
.k {font-size:1em}
.l {fill:none;stroke:none;stroke-linecap:round;stroke-linejoin:round;stroke-width:1}
.m {fill:#0070f7;font-family:Arial;font-size:4em;font-weight:bold}
.n {fill:#0070f7;font-family:Arial;font-size:2.5em;font-weight:bold}
.o {fill:#0070f7;font-family:Arial;font-size:1.5em;font-weight:bold}
.p {fill:#a5a5a5;fill-opacity:0.2;stroke:#006600;stroke-dasharray:2.2,4.5;stroke-linecap:round;stroke-linejoin:round;stroke-width:2.2}
.q {fill:#000000;font-family:Arial;font-size:1.3em}
.r {fill:#006600;stroke:none;stroke-linecap:round;stroke-linejoin:round;stroke-width:1}
.s {fill:#ffffff;font-family:Arial;font-size:1.2em;font-weight:bold}
.t {fill:#a5a5a5;fill-opacity:0.2;stroke:#0070f7;stroke-dasharray:2.2,4.5;stroke-linecap:round;stroke-linejoin:round;stroke-width:2.2}
.u {fill:#2080a0;stroke:none;stroke-linecap:round;stroke-linejoin:round;stroke-width:1}
.v {fill:#e82200;stroke:none;stroke-linecap:round;stroke-linejoin:round;stroke-width:1}
.w {font-size:0.9em}
.x {fill:#ffffff;font-family:Arial;font-size:1.1em;font-weight:bold}
.y {fill:#0070f7;stroke:none;stroke-linecap:round;stroke-linejoin:round;stroke-width:1}
.z {baseline-shift:32.5%;font-size:0.6em}
.ba {fill:#ffffff;font-family:Arial;font-size:1em;font-weight:bold}
.a {fill:none;fill-rule:evenodd;font-size:12px;overflow:visible;stroke-linecap:square;stroke-miterlimit:3}
</style><rect y="-1488" width="720" height="2592" rx="8" ry="8" class="b" transform="translate(1504,992) rotate(-90)"/><rect x="112" y="176" width="832" height="912" rx="8" ry="8" class="c"/><rect x="1616" y="176" width="720" height="912" rx="8" ry="8" class="d"/><rect x="976" y="176" width="608" height="912" rx="8" ry="8" class="e"/><a target="_blank" href="https://www.microsoft.com/microsoft-365/compare-all-microsoft-365-plans" transform="translate(-1024,992) rotate(-90)"><rect y="1040" width="720" height="64" rx="8" ry="8" class="f"/><text x="280.5" y="1078" class="g">Microsoft 365 E3</text></a><a target="_blank" href="https://www.microsoft.com/microsoft-365/compare-all-microsoft-365-plans" transform="translate(1504,992) rotate(-90)"><rect y="1040" width="720" height="64" rx="8" ry="8" class="f"/><text x="280.5" y="1078" class="g">Microsoft 365 E3</text></a><a target="_blank" href="https://www.microsoft.com/microsoft-365/enterprise/compare-office-365-plans"><rect x="112" y="176" width="832" height="64" rx="8" ry="8" class="h"/><text x="465.2" y="214" class="g">Office 365 E3</text></a><a target="_blank" href="https://www.microsoft.com/microsoft-365/windows/windows-11-enterprise"><rect x="1616" y="176" width="720" height="64" rx="8" ry="8" class="i"/><text x="1864.9" y="214" class="g">Windows Enterprise E3</text></a><a target="_blank" href="https://www.microsoft.com/cloud-platform/enterprise-mobility-security"><rect x="976" y="176" width="608" height="64" rx="8" ry="8" class="j"/><text x="1124.1" y="202" class="g">Enterprise Mobility + Security E3<tspan x="1236.7" dy="1.2em" class="k">(EMS E3)</tspan></text></a><a target="_blank" href="https://www.microsoft.com/microsoft-365/enterprise/compare-office-365-plans"><rect x="112" y="1024" width="832" height="64" rx="8" ry="8" class="h"/><text x="465.2" y="1062" class="g">Office 365 E3</text></a><a target="_blank" href="https://www.microsoft.com/microsoft-365/windows/windows-11-enterprise"><rect x="1616" y="1024" width="720" height="64" rx="8" ry="8" class="i"/><text x="1864.9" y="1062" class="g">Windows Enterprise E3</text></a><a target="_blank" href="https://www.microsoft.com/cloud-platform/enterprise-mobility-security"><rect x="976" y="1024" width="608" height="64" rx="8" ry="8" class="j"/><text x="1124.1" y="1050" class="g">Enterprise Mobility + Security E3<tspan x="1236.7" dy="1.2em" class="k">(EMS E3)</tspan></text></a><a target="_blank" href="https://m365maps.com/"><rect x="16" y="16" width="2592" height="64" rx="8" ry="8" class="l"/><text x="1121.3" y="62.4" class="m">Microsoft 365 E3</text></a><g><rect x="16" y="80" width="2592" height="32" class="l"/><text x="1216.9" y="105" class="n">January 2023</text></g><a target="_blank" href="https://m365maps.com/"><rect x="16" y="112" width="2592" height="32" rx="8" ry="8" class="l"/><text x="1244.5" y="133.4" class="o">m365maps.com</text></a><rect x="2352" y="288" width="160" height="688" rx="8" ry="8" class="p"/><a target="_blank" href="https://learn.microsoft.com/microsoft-365/security/defender-endpoint/defender-endpoint-plan-1" transform="translate(1296,976) rotate(-90)"><rect y="1056" width="688" height="48" rx="8" ry="8" class="l"/><text x="265.7" y="1075.2" class="q">Defender for Endpoint <tspan x="321.3" dy="1.2em" class="k">Plan 1</tspan></text></a><a target="_blank" href="https://learn.microsoft.com/windows/security/threat-protection/microsoft-defender-atp/overview-attack-surface-reduction"><rect x="2400" y="592" width="96" height="80" rx="8" ry="8" class="r"/><text x="2414.6" y="627.8" class="s">Enhanced <tspan x="2433.2" dy="1.2em" class="k">ASR</tspan></text></a><a target="_blank" href="https://learn.microsoft.com/windows/security/threat-protection/microsoft-defender-antivirus/prevent-changes-to-security-settings-with-tamper-protection"><rect x="2400" y="784" width="96" height="80" rx="8" ry="8" class="r"/><text x="2422.7" y="819.8" class="s">Tamper <tspan x="2413.4" dy="1.2em" class="k">Protection</tspan></text></a><a target="_blank" href="https://learn.microsoft.com/windows/security/threat-protection/microsoft-defender-antivirus/configure-block-at-first-sight-microsoft-defender-antivirus"><rect x="2400" y="304" width="96" height="80" rx="8" ry="8" class="r"/><text x="2420.8" y="339.8" class="s">Block at <tspan x="2413.4" dy="1.2em" class="k">First Sight</tspan></text></a><a target="_blank" href="https://learn.microsoft.com/windows/security/threat-protection/microsoft-defender-atp/web-content-filtering"><rect x="2400" y="880" width="96" height="80" rx="8" ry="8" class="r"/><text x="2404.8" y="915.8" class="s">Web Content <tspan x="2420.4" dy="1.2em" class="k">Filtering</tspan></text></a><a target="_blank" href="https://learn.microsoft.com/microsoft-365/security/defender-endpoint/non-windows"><rect x="2400" y="496" width="96" height="80" rx="8" ry="8" class="r"/><text x="2425.8" y="523.4" class="s">Cross-<tspan x="2419.6" dy="1.2em" class="k">Platform </tspan><tspan x="2421.2" dy="1.2em" class="k">Support</tspan></text></a><a target="_blank" href="https://learn.microsoft.com/microsoft-365/security/defender-endpoint/defender-endpoint-plan-1#centralized-management"><rect x="2400" y="400" width="96" height="80" rx="8" ry="8" class="r"/><text x="2410.3" y="435.8" class="s">Centralized <tspan x="2405.2" dy="1.2em" class="k">Management</tspan></text></a><a target="_blank" href="https://learn.microsoft.com/microsoft-365/security/defender-endpoint/defender-endpoint-plan-1#manual-response-actions"><rect x="2400" y="688" width="96" height="80" rx="8" ry="8" class="r"/><text x="2423.9" y="715.4" class="s">Manual <tspan x="2414.6" dy="1.2em" class="k">Response </tspan><tspan x="2422.3" dy="1.2em" class="k">Actions</tspan></text></a><rect x="992" y="496" width="576" height="432" rx="8" ry="8" class="t"/><a target="_blank" href="https://learn.microsoft.com/advanced-threat-analytics/"><rect x="1120" y="304" width="96" height="80" rx="8" ry="8" class="u"/><text x="1134.6" y="323" class="s">Advanced <tspan x="1146.6" dy="1.2em" class="k">Threat </tspan><tspan x="1136.9" dy="1.2em" class="k">Analytics </tspan><tspan x="1139.2" dy="1.2em" class="k">(retiring)</tspan></text></a><a target="_blank" href="https://learn.microsoft.com/mem/intune/fundamentals/what-is-intune"><rect x="1232" y="400" width="96" height="80" rx="8" ry="8" class="u"/><text x="1259" y="444.2" class="s">Intune</text></a><a target="_blank" href="https://learn.microsoft.com/azure/information-protection/what-is-information-protection"><rect x="1120" y="400" width="96" height="80" rx="8" ry="8" class="u"/><text x="1129.5" y="435.8" class="s">Information <tspan x="1133.4" dy="1.2em" class="k">Protection</tspan></text></a><a target="_blank" href="https://www.microsoft.com/licensing/product-licensing/client-access-license"><rect x="1344" y="400" width="96" height="80" rx="8" ry="8" class="u"/><text x="1361.3" y="427.4" class="s">Windows <tspan x="1353.9" dy="1.2em" class="k">Server CAL </tspan><tspan x="1370.2" dy="1.2em" class="k">Rights</tspan></text></a><a target="_blank" href="https://learn.microsoft.com/configmgr/core/understand/introduction"><rect x="1344" y="304" width="96" height="80" rx="8" ry="8" class="u"/><text x="1369.8" y="339.8" class="s">Config <tspan x="1363.2" dy="1.2em" class="k">Manager</tspan></text></a><a target="_blank" href="https://learn.microsoft.com/sccm/protect/deploy-use/endpoint-protection"><rect x="1456" y="304" width="96" height="80" rx="8" ry="8" class="u"/><text x="1481.8" y="323" class="s">Config <tspan x="1475.2" dy="1.2em" class="k">Manager </tspan><tspan x="1473.7" dy="1.2em" class="k">Endpoint </tspan><tspan x="1469.4" dy="1.2em" class="k">Protection</tspan></text></a><a target="_blank" href="https://learn.microsoft.com/azure/information-protection/compare-on-premise"><rect x="1008" y="304" width="96" height="80" rx="8" ry="8" class="u"/><text x="1035" y="331.4" class="s">Active <tspan x="1025.3" dy="1.2em" class="k">Directory </tspan><tspan x="1040.4" dy="1.2em" class="k">RMS</tspan></text></a><a target="_blank" href="https://learn.microsoft.com/azure/information-protection/what-is-azure-rms"><rect x="1232" y="304" width="96" height="80" rx="8" ry="8" class="u"/><text x="1260.6" y="339.8" class="s">Azure <tspan x="1264.4" dy="1.2em" class="k">RMS</tspan></text></a><a target="_blank" href="https://azure.microsoft.com/pricing/details/active-directory/"><rect x="992" y="880" width="576" height="48" rx="8" ry="8" class="l"/><text x="1211.5" y="899.2" class="q">Azure AD Premium <tspan x="1257.3" dy="1.2em" class="k">Plan 1</tspan></text></a><a target="_blank" href="https://learn.microsoft.com/mem/analytics/overview"><rect x="1008" y="400" width="96" height="80" rx="8" ry="8" class="u"/><text x="1025.7" y="435.8" class="s">Endpoint <tspan x="1024.9" dy="1.2em" class="k">Analytics</tspan></text></a><a target="_blank" href="https://www.microsoft.com/microsoft-365/business/microsoft-365-apps-for-enterprise-product"><rect x="816" y="496" width="96" height="80" rx="8" ry="8" class="v"/><text x="832.5" y="523.4" class="s">Microsoft <tspan x="821.6" dy="1.2em" class="k">365 Apps for </tspan><tspan x="829.4" dy="1.2em" class="k">Enterprise</tspan></text></a><a target="_blank" href="https://products.office.com/business/task-management-software"><rect x="592" y="688" width="96" height="80" rx="8" ry="8" class="v"/><text x="614.3" y="732.2" class="s">Planner</text></a><a target="_blank" href="https://learn.microsoft.com/microsoftteams/teams-live-events/what-are-teams-live-events"><rect x="704" y="496" width="96" height="80" rx="8" ry="8" class="v"/><text x="713.1" y="540.2" class="s">Live Events</text></a><a target="_blank" href="https://learn.microsoft.com/viva/insights/personal/overview/plans-environments"><rect x="480" y="496" width="96" height="80" rx="8" ry="8" class="v"/><text x="491" y="531.8" class="s">Insights by <tspan x="487.2" dy="1.2em" class="k">MyAnalytics</tspan></text></a><a target="_blank" href="https://learn.microsoft.com/microsoftteams/set-up-webinars"><rect x="592" y="880" width="96" height="80" rx="8" ry="8" class="v"/><text x="608.5" y="924.2" class="s">Webinars</text></a><a target="_blank" href="https://products.office.com/microsoft-teams/"><rect x="592" y="592" width="96" height="80" rx="8" ry="8" class="v"/><text x="608.5" y="627.8" class="s">Microsoft <tspan x="617.8" dy="1.2em" class="k">Teams</tspan></text></a><a target="_blank" href="https://learn.microsoft.com/stream/"><rect x="816" y="784" width="96" height="80" rx="8" ry="8" class="v"/><text x="829" y="819.8" class="s">Stream for <tspan x="830.5" dy="1.2em" class="k">Office 365</tspan></text></a><a target="_blank" href="https://learn.microsoft.com/sharepoint/introduction"><rect x="704" y="784" width="96" height="80" rx="8" ry="8" class="v"/><text x="715" y="811.4" class="s">SharePoint <tspan x="730.2" dy="1.2em" class="k">Online </tspan><tspan x="731.4" dy="1.2em" class="k">Plan 2</tspan></text></a><a target="_blank" href="https://learn.microsoft.com/office365/servicedescriptions/onedrive-for-business-service-description"><rect x="480" y="688" width="96" height="80" rx="8" ry="8" class="v"/><text x="485.6" y="715.4" class="s">OneDrive for <tspan x="496.9" dy="1.2em" class="k">Business </tspan><tspan x="507.4" dy="1.2em" class="k">Plan 2</tspan></text></a><a target="_blank" href="https://support.office.com/sway"><rect x="144" y="880" width="96" height="80" rx="8" ry="8" class="v"/><text x="174.1" y="924.2" class="s">Sway</text></a><a target="_blank" href="https://support.office.com/forms"><rect x="256" y="592" width="96" height="80" rx="8" ry="8" class="v"/><text x="272.5" y="627.8" class="s">Microsoft <tspan x="282.6" dy="1.2em" class="k">Forms</tspan></text></a><a target="_blank" href="https://learn.microsoft.com/office365/securitycompliance/data-loss-prevention-policies"><rect x="480" y="400" width="96" height="80" rx="8" ry="8" class="v"/><text x="494.6" y="435.8" class="s">Data Loss <tspan x="491.8" dy="1.2em" class="k">Prevention</tspan></text></a><a target="_blank" href="https://learn.microsoft.com/microsoft-365/compliance/retention"><rect x="480" y="784" width="96" height="80" rx="8" ry="8" class="v"/><text x="495.7" y="811.4" class="s">Retention <tspan x="498.8" dy="1.2em" class="k">Labels &amp; </tspan><tspan x="501.5" dy="1.2em" class="k">Policies</tspan></text></a><a target="_blank" href="https://learn.microsoft.com/office365/servicedescriptions/exchange-online-protection-service-description/exchange-online-protection-service-description"><rect x="144" y="496" width="96" height="80" rx="8" ry="8" class="v"/><text x="158.9" y="523.4" class="s">Exchange <tspan x="170.2" dy="1.2em" class="k">Online </tspan><tspan x="157.4" dy="1.2em" class="k">Protection</tspan></text></a><a target="_blank" href="https://learn.microsoft.com/microsoft-365/compliance/get-started-core-ediscovery"><rect x="704" y="400" width="96" height="80" rx="8" ry="8" class="v"/><text x="714.6" y="435.8" class="s">eDiscovery <tspan x="717.8" dy="1.2em" class="k">(standard)</tspan></text></a><a target="_blank" href="https://products.office.com/en/business/microsoft-kaizala"><rect x="592" y="496" width="96" height="80" rx="8" ry="8" class="v"/><text x="602.3" y="531.8" class="s">Kaizala Pro<tspan x="613.3" dy="1.3em" class="w">(retiring)</tspan></text></a><a target="_blank" href="https://learn.microsoft.com/office365/servicedescriptions/exchange-online-service-description/exchange-online-service-description#feature-availability-across-exchange-online-standalone-plans"><rect x="816" y="400" width="96" height="80" rx="8" ry="8" class="v"/><text x="830.9" y="427.4" class="s">Exchange <tspan x="842.2" dy="1.2em" class="k">Online </tspan><tspan x="843.4" dy="1.2em" class="k">Plan 2</tspan></text></a><a target="_blank" href="https://learn.microsoft.com/powerapps/teams/overview-data-platform"><rect x="144" y="592" width="96" height="80" rx="8" ry="8" class="v"/><text x="160.5" y="619.4" class="s">Microsoft <tspan x="158.5" dy="1.2em" class="k">Dataverse </tspan><tspan x="158.6" dy="1.2em" class="k">for Teams</tspan></text></a><a target="_blank" href="https://www.microsoft.com/microsoft-365/microsoft-lists"><rect x="368" y="592" width="96" height="80" rx="8" ry="8" class="v"/><text x="384.5" y="627.8" class="s">Microsoft <tspan x="399.7" dy="1.2em" class="k">Lists</tspan></text></a><a target="_blank" href="https://learn.microsoft.com/microsoft-365/bookings/bookings-overview"><rect x="144" y="400" width="96" height="80" rx="8" ry="8" class="v"/><text x="160.1" y="444.2" class="s">Bookings</text></a><a target="_blank" href="https://www.microsoft.com/download/details.aspx?id=48734"><rect x="256" y="496" width="96" height="80" rx="8" ry="8" class="v"/><text x="276" y="531.8" class="s">InfoPath<tspan x="290.4" dy="1.2em" class="k">App</tspan></text></a><a target="_blank" href="https://learn.microsoft.com/microsoft-365/compliance/search-the-audit-log-in-security-and-compliance"><rect x="592" y="304" width="96" height="80" rx="8" ry="8" class="v"/><text x="622.1" y="339.8" class="s">Audit <tspan x="605.8" dy="1.2em" class="k">(standard)</tspan></text></a><a target="_blank" href="https://learn.microsoft.com/microsoft-365/compliance/alert-policies"><rect x="368" y="304" width="96" height="80" rx="8" ry="8" class="v"/><text x="400" y="339.8" class="s">Alert <tspan x="389.5" dy="1.2em" class="k">Policies</tspan></text></a><a target="_blank" href="https://learn.microsoft.com/microsoft-365/whiteboard/"><rect x="816" y="592" width="96" height="80" rx="8" ry="8" class="v"/><text x="832.5" y="627.8" class="s">Microsoft <tspan x="825.5" dy="1.2em" class="k">Whiteboard</tspan></text></a><a target="_blank" href="https://www.microsoft.com/microsoft-365/microsoft-to-do-list-app"><rect x="704" y="592" width="96" height="80" rx="8" ry="8" class="v"/><text x="720.5" y="627.8" class="s">Microsoft <tspan x="732.2" dy="1.2em" class="k">To Do</tspan></text></a><a target="_blank" href="https://learn.microsoft.com/power-virtual-agents/teams/fundamentals-what-is-power-virtual-agents-teams"><rect x="144" y="784" width="96" height="80" rx="8" ry="8" class="v"/><text x="150.5" y="812.3" class="x">Power Virtual <tspan x="159.5" dy="1.2em" class="k">Agents for </tspan><tspan x="171.4" dy="1.2em" class="k">Teams</tspan></text></a><a target="_blank" href="https://products.office.com/mobile/office"><rect x="368" y="688" width="96" height="80" rx="8" ry="8" class="v"/><text x="396.2" y="723.8" class="s">Office<tspan x="374.4" dy="1.2em" class="k">Mobile Apps</tspan></text></a><a target="_blank" href="https://learn.microsoft.com/office365/servicedescriptions/office-online-service-description/office-online-service-description"><rect x="256" y="688" width="96" height="80" rx="8" ry="8" class="v"/><text x="284.2" y="715.4" class="s">Office<tspan x="265.5" dy="1.2em" class="k">for the Web</tspan><tspan x="268.6" dy="1.2em" class="k">(incl Visio)</tspan></text></a><a target="_blank" href="https://learn.microsoft.com/microsoft-365/compliance/sensitivity-labels"><rect x="368" y="496" width="96" height="80" rx="8" ry="8" class="v"/><text x="377.5" y="523.4" class="s">Information <tspan x="381.4" dy="1.2em" class="k">Protection</tspan><tspan x="387.2" dy="1.2em" class="k">for M365</tspan></text></a><a target="_blank" href="https://www.microsoftpartnercommunity.com/t5/Announcement-Discussions/Microsoft-365-Pricing-and-Audio-Conferencing-Licensing-Updates/td-p/60233#toc-hId--2041231687"><rect x="480" y="304" width="96" height="80" rx="8" ry="8" class="v"/><text x="509.6" y="332.3" class="x">Audio <tspan x="486.1" dy="1.2em" class="k">Conferencing </tspan><tspan x="488.3" dy="1.2em" class="k">(free add</tspan>-on)</text></a><a target="_blank" href="https://learn.microsoft.com/microsoft-365/compliance/ome"><rect x="144" y="688" width="96" height="80" rx="8" ry="8" class="v"/><text x="158.5" y="715.4" class="s">Office 365 <tspan x="162.4" dy="1.2em" class="k">Message </tspan><tspan x="155.4" dy="1.2em" class="k">Encryption</tspan></text></a><a target="_blank" href="https://www.microsoft.com/microsoft-viva/connections"><rect x="256" y="880" width="96" height="80" rx="8" ry="8" class="v"/><text x="289.6" y="915.8" class="s">Viva <tspan x="261.6" dy="1.2em" class="k">Connections</tspan></text></a><a target="_blank" href="https://www.microsoft.com/microsoft-viva/learning"><rect x="480" y="880" width="96" height="80" rx="8" ry="8" class="v"/><text x="513.6" y="907.4" class="s">Viva <tspan x="498.4" dy="1.2em" class="k">Learning </tspan><tspan x="505.4" dy="1.2em" class="k">(basic)</tspan></text></a><a target="_blank" href="https://www.microsoft.com/licensing/terms/product/CALandMLEquivalencyLicenses/"><rect x="256" y="784" width="96" height="80" rx="8" ry="8" class="v"/><text x="263.6" y="819.8" class="s">Productivity <tspan x="265.9" dy="1.2em" class="k">Server CAL</tspan></text></a><a target="_blank" href="https://learn.microsoft.com/viva/engage/overview"><rect x="368" y="880" width="96" height="80" rx="8" ry="8" class="v"/><text x="401.6" y="915.8" class="s">Viva <tspan x="390.7" dy="1.2em" class="k">Engage</tspan></text></a><a target="_blank" href="https://support.microsoft.com/office/1315665a-c6af-4409-a28d-49f8916878ca"><rect x="592" y="400" width="96" height="80" rx="8" ry="8" class="v"/><text x="621.3" y="444.2" class="s">Delve</text></a><a target="_blank" href="https://learn.microsoft.com/microsoft-365/compliance/compliance-manager-overview"><rect x="368" y="400" width="96" height="80" rx="8" ry="8" class="v"/><text x="376.3" y="435.8" class="s">Compliance <tspan x="387.2" dy="1.2em" class="k">Manager</tspan></text></a><a target="_blank" href="https://learn.microsoft.com/microsoft-365/security/defender/microsoft-secure-score"><rect x="592" y="784" width="96" height="80" rx="8" ry="8" class="v"/><text x="616.6" y="819.8" class="s">Secure <tspan x="620.6" dy="1.2em" class="k">Score</tspan></text></a><a target="_blank" href="https://products.office.com/yammer/yammer-overview"><rect x="704" y="880" width="96" height="80" rx="8" ry="8" class="v"/><text x="724.4" y="915.8" class="s">Yammer <tspan x="717.4" dy="1.2em" class="k">Enterprise</tspan></text></a><a target="_blank" href="https://learn.microsoft.com/microsoft-365/admin/adoption/adoption-score"><rect x="256" y="304" width="96" height="80" rx="8" ry="8" class="v"/><text x="273.3" y="339.8" class="s">Adoption <tspan x="284.6" dy="1.2em" class="k">Score</tspan></text></a><a target="_blank" href="https://learn.microsoft.com/microsoft-365/admin/activity-reports/activity-reports"><rect x="144" y="304" width="96" height="80" rx="8" ry="8" class="v"/><text x="166.7" y="339.8" class="s">Activity <tspan x="165.6" dy="1.2em" class="k">Reports</tspan></text></a><a target="_blank" href="https://learn.microsoft.com/viva/insights/personal/briefing/be-overview"><rect x="256" y="400" width="96" height="80" rx="8" ry="8" class="v"/><text x="277.6" y="435.8" class="s">Briefing <tspan x="285.3" dy="1.2em" class="k">Email</tspan></text></a><a target="_blank" href="https://learn.microsoft.com/azure/active-directory/reports-monitoring/"><rect x="1120" y="512" width="96" height="80" rx="8" ry="8" class="y"/><text x="1134.6" y="531" class="s">Advanced <tspan x="1140.4" dy="1.2em" class="k">Security </tspan><tspan x="1134.6" dy="1.2em" class="k">Reports &amp; </tspan><tspan x="1148.2" dy="1.2em" class="k">Alerts</tspan></text></a><a target="_blank" href="https://learn.microsoft.com/azure/active-directory/hybrid/how-to-connect-sso"><rect x="1008" y="800" width="96" height="80" rx="8" ry="8" class="y"/><text x="1015.2" y="827.4" class="s">Single-Sign-<tspan x="1018.3" dy="1.2em" class="k">On to other </tspan><tspan x="1038.9" dy="1.2em" class="k">SaaS</tspan></text></a><a target="_blank" href="https://learn.microsoft.com/azure/active-directory/manage-apps/application-proxy"><rect x="1232" y="512" width="96" height="80" rx="8" ry="8" class="y"/><text x="1243" y="539.4" class="s">App Proxy, <tspan x="1248.9" dy="1.2em" class="k">including </tspan><tspan x="1240.3" dy="1.2em" class="k">PingAccess</tspan></text></a><a target="_blank" href="https://learn.microsoft.com/azure/active-directory/authentication/concept-mfa-howitworks"><rect x="1008" y="704" width="96" height="80" rx="8" ry="8" class="y"/><text x="1016" y="739.8" class="s">Multi-Factor <tspan x="1018.3" dy="1.2em" class="k">Auth (MFA)</tspan></text></a><a target="_blank" href="https://learn.microsoft.com/azure/active-directory/hybrid/whatis-azure-ad-connect#what-is-azure-ad-connect-health"><rect x="1344" y="512" width="96" height="80" rx="8" ry="8" class="y"/><text x="1360.5" y="539.4" class="s">Azure AD <tspan x="1364" dy="1.2em" class="k">Connect </tspan><tspan x="1370.6" dy="1.2em" class="k">Health</tspan></text></a><a target="_blank" href="https://learn.microsoft.com/cloud-app-security/set-up-cloud-discovery"><rect x="1456" y="512" width="96" height="80" rx="8" ry="8" class="y"/><text x="1468.6" y="547.8" class="s">Cloud App <tspan x="1470.5" dy="1.2em" class="k">Discovery</tspan></text></a><a target="_blank" href="https://learn.microsoft.com/azure/active-directory/users-groups-roles/users-sharing-accounts"><rect x="1456" y="704" width="96" height="80" rx="8" ry="8" class="y"/><text x="1480.3" y="723" class="s">Shared <tspan x="1476" dy="1.2em" class="k">Account </tspan><tspan x="1470.9" dy="1.2em" class="k">Password </tspan><tspan x="1472.5" dy="1.2em" class="k">Roll</tspan>-Over</text></a><a target="_blank" href="https://learn.microsoft.com/azure/active-directory/authentication/concept-sspr-howitworks"><rect x="1344" y="704" width="96" height="80" rx="8" ry="8" class="y"/><text x="1351.9" y="731.4" class="s">Self-Service <tspan x="1358.9" dy="1.2em" class="k">Password </tspan><tspan x="1352.7" dy="1.2em" class="k">Reset in AD</tspan></text></a><a target="_blank" href="https://learn.microsoft.com/azure/active-directory/users-groups-roles/groups-self-service-management"><rect x="1232" y="704" width="96" height="80" rx="8" ry="8" class="y"/><text x="1239.9" y="731.4" class="s">Self-Service <tspan x="1259" dy="1.2em" class="k">Group </tspan><tspan x="1237.2" dy="1.2em" class="k">Management</tspan></text></a><a target="_blank" href="https://learn.microsoft.com/azure/active-directory/conditional-access/overview"><rect x="1008" y="608" width="96" height="80" rx="8" ry="8" class="y"/><text x="1017.5" y="643.8" class="s">Conditional <tspan x="1031.5" dy="1.2em" class="k">Access</tspan></text></a><a target="_blank" href="https://learn.microsoft.com/azure/active-directory/external-identities/"><rect x="1344" y="608" width="96" height="80" rx="8" ry="8" class="y"/><text x="1364.4" y="643.8" class="s">External <tspan x="1361.3" dy="1.2em" class="k">Identities</tspan></text></a><a target="_blank" href="https://learn.microsoft.com/azure/active-directory/devices/enterprise-state-roaming-overview"><rect x="1232" y="608" width="96" height="80" rx="8" ry="8" class="y"/><text x="1245.4" y="635.4" class="s">Enterprise <tspan x="1262.9" dy="1.2em" class="k">State </tspan><tspan x="1250.1" dy="1.2em" class="k">Roaming</tspan></text></a><a target="_blank" href="https://learn.microsoft.com/azure/active-directory/governance/active-directory-tou"><rect x="1344" y="800" width="96" height="80" rx="8" ry="8" class="y"/><text x="1362.4" y="835.8" class="s">Terms of <tspan x="1379.2" dy="1.2em" class="k">Use</tspan></text></a><a target="_blank" href="https://learn.microsoft.com/azure/active-directory/authentication/concept-password-ban-bad"><rect x="1120" y="704" width="96" height="80" rx="8" ry="8" class="y"/><text x="1134.9" y="739.8" class="s">Password <tspan x="1133.4" dy="1.2em" class="k">Protection</tspan></text></a><a target="_blank" href="https://learn.microsoft.com/microsoft-identity-manager/"><rect x="1456" y="608" width="96" height="80" rx="8" ry="8" class="y"/><text x="1472.5" y="635.4" class="s">Microsoft <tspan x="1479.1" dy="1.2em" class="k">Identity </tspan><tspan x="1475.2" dy="1.2em" class="k">Manager</tspan></text></a><a target="_blank" href="https://learn.microsoft.com/azure/active-directory/conditional-access/controls#custom-controls-preview"><rect x="1456" y="800" width="96" height="80" rx="8" ry="8" class="y"/><text x="1476.8" y="827.4" class="s">3<tspan dy="-0.2em" class="z">rd </tspan><tspan dy="0.2em" class="k">Party  </tspan><tspan x="1488.8" dy="1.2em" class="k">MFA </tspan><tspan x="1467.8" dy="1.2em" class="k">Integration</tspan></text></a><a target="_blank" href="https://learn.microsoft.com/azure/active-directory/roles/administrative-units"><rect x="1008" y="512" width="96" height="80" rx="8" ry="8" class="y"/><text x="1014.3" y="548.4" class="ba">Administrative <tspan x="1041" dy="1.2em" class="k">Units</tspan></text></a><a target="_blank" href="https://learn.microsoft.com/azure/active-directory/enterprise-users/groups-create-rule"><rect x="1120" y="608" width="96" height="80" rx="8" ry="8" class="y"/><text x="1138.8" y="643.8" class="s">Dynamic <tspan x="1143.1" dy="1.2em" class="k">Groups</tspan></text></a><a target="_blank" href="https://learn.microsoft.com/azure/active-directory/authentication/howto-authentication-sms-signin"><rect x="1120" y="800" width="96" height="80" rx="8" ry="8" class="y"/><text x="1127.2" y="844.2" class="s">SMS Sign-In</text></a><a target="_blank" href="https://learn.microsoft.com/azure/active-directory/authentication/howto-authentication-temporary-access-pass"><rect x="1232" y="800" width="96" height="80" rx="8" ry="8" class="y"/><text x="1243.8" y="835.8" class="s">Temporary <tspan x="1237.2" dy="1.2em" class="k">Access Pass</tspan></text></a><a target="_blank" href="https://learn.microsoft.com/microsoft-365/admin/basic-mobility-security/capabilities"><rect x="816" y="304" width="96" height="80" rx="8" ry="8" class="v"/><text x="845.3" y="331.4" class="s">Basic <tspan x="830.6" dy="1.2em" class="k">Mobility &amp; </tspan><tspan x="836.4" dy="1.2em" class="k">Security</tspan></text></a><a target="_blank" href="https://azure.microsoft.com/pricing/details/active-directory/"><rect x="704" y="304" width="96" height="80" rx="8" ry="8" class="v"/><text x="709.2" y="339.8" class="s">Azure AD for <tspan x="718.5" dy="1.2em" class="k">Office 365</tspan></text></a><a target="_blank" href="https://learn.microsoft.com/project-for-the-web/office-365-user-view-access-to-project-and-roadmap"><rect x="368" y="784" width="96" height="80" rx="8" ry="8" class="v"/><text x="385.3" y="811.4" class="s">Project &amp; <tspan x="384.1" dy="1.2em" class="k">Roadmap </tspan><tspan x="373.6" dy="1.2em" class="k">View Access</tspan></text></a><a target="_blank" href="https://learn.microsoft.com/microsoftsearch/overview-microsoft-search"><rect x="480" y="592" width="96" height="80" rx="8" ry="8" class="v"/><text x="496.5" y="627.8" class="s">Microsoft <tspan x="504.6" dy="1.2em" class="k">Search</tspan></text></a><a target="_blank" href="https://learn.microsoft.com/windows/security/threat-protection/microsoft-defender-atp/attack-surface-reduction"><rect x="1648" y="400" width="96" height="80" rx="8" ry="8" class="r"/><text x="1674.6" y="427.4" class="s">Attack <tspan x="1670.3" dy="1.2em" class="k">Surface </tspan><tspan x="1661.8" dy="1.2em" class="k">Reduction</tspan></text></a><a target="_blank" href="https://learn.microsoft.com/microsoft-store/microsoft-store-for-business-overview"><rect x="1984" y="592" width="96" height="80" rx="8" ry="8" class="r"/><text x="2000.5" y="611" class="s">Microsoft <tspan x="2002.8" dy="1.2em" class="k">Store for </tspan><tspan x="2000.9" dy="1.2em" class="k">Business</tspan><tspan x="2003.2" dy="1.2em" class="k">(retiring)</tspan></text></a><a target="_blank" href="https://learn.microsoft.com/windows-server/identity/ad-fs/operations/configure-device-based-conditional-access-on-premises"><rect x="1760" y="784" width="96" height="80" rx="8" ry="8" class="r"/><text x="1777.3" y="811.4" class="s">Windows <tspan x="1769.5" dy="1.2em" class="k">Conditional </tspan><tspan x="1783.5" dy="1.2em" class="k">Access</tspan></text></a><a target="_blank" href="https://learn.microsoft.com/windows/security/information-protection/windows-information-protection/protect-enterprise-data-using-wip"><rect x="2096" y="784" width="96" height="80" rx="8" ry="8" class="r"/><text x="2113.3" y="803" class="s">Windows <tspan x="2105.5" dy="1.2em" class="k">Information </tspan><tspan x="2109.4" dy="1.2em" class="k">Protection </tspan><tspan x="2115.2" dy="1.2em" class="k">(retiring)</tspan></text></a><a target="_blank" href="https://learn.microsoft.com/windows/deployment/update/waas-manage-updates-wufb"><rect x="2208" y="784" width="96" height="80" rx="8" ry="8" class="r"/><text x="2225.3" y="811.4" class="s">Windows <tspan x="2221" dy="1.2em" class="k">Update for </tspan><tspan x="2224.9" dy="1.2em" class="k">Business</tspan></text></a><a target="_blank" href="https://learn.microsoft.com/windows/security/identity-protection/hello-for-business/hello-identity-verification"><rect x="1984" y="784" width="96" height="80" rx="8" ry="8" class="r"/><text x="2001.3" y="811.4" class="s">Windows <tspan x="2003.6" dy="1.2em" class="k">Hello for </tspan><tspan x="2000.9" dy="1.2em" class="k">Business</tspan></text></a><a target="_blank" href="https://support.microsoft.com/help/17214/windows-10-what-is"><rect x="2096" y="400" width="96" height="80" rx="8" ry="8" class="r"/><text x="2117.6" y="444.2" class="s">Cortana</text></a><a target="_blank" href="https://learn.microsoft.com/windows/security/threat-protection/windows-defender-application-guard/wd-app-guard-overview"><rect x="1872" y="304" width="96" height="80" rx="8" ry="8" class="r"/><text x="1881.9" y="339.8" class="s">Application <tspan x="1899.4" dy="1.2em" class="k">Guard</tspan></text></a><a target="_blank" href="https://learn.microsoft.com/azure/active-directory/devices/concept-azure-ad-join"><rect x="1760" y="400" width="96" height="80" rx="8" ry="8" class="r"/><text x="1776.5" y="427.4" class="s">Azure AD<tspan x="1775.3" dy="1.2em" class="k">&amp; Domain </tspan><tspan x="1793.6" dy="1.2em" class="k">Join</tspan></text></a><a target="_blank" href="https://www.microsoft.com/windows/comprehensive-security"><rect x="1872" y="592" width="96" height="80" rx="8" ry="8" class="r"/><text x="1888.5" y="619.4" class="s">Microsoft <tspan x="1889.7" dy="1.2em" class="k">Defender </tspan><tspan x="1889.7" dy="1.2em" class="k">Antivirus</tspan></text></a><a target="_blank" href="https://learn.microsoft.com/windows/security/threat-protection/windows-defender-application-control/applocker/applocker-overview"><rect x="1984" y="304" width="96" height="80" rx="8" ry="8" class="r"/><text x="1995.4" y="348.2" class="s">AppLocker</text></a><a target="_blank" href="https://learn.microsoft.com/windows/deployment/vda-subscription-activation"><rect x="1648" y="880" width="96" height="80" rx="8" ry="8" class="r"/><text x="1665.3" y="907.4" class="s">Windows <tspan x="1652" dy="1.2em" class="k">Virtualization </tspan><tspan x="1674.2" dy="1.2em" class="k">Rights</tspan></text></a><a target="_blank" href="https://learn.microsoft.com/windows-server/remote/remote-access/directaccess/directaccess"><rect x="1872" y="496" width="96" height="80" rx="8" ry="8" class="r"/><text x="1878.8" y="539.9" class="x">DirectAccess</text></a><a target="_blank" href="https://learn.microsoft.com/windows-server/networking/branchcache/branchcache"><rect x="1984" y="400" width="96" height="80" rx="8" ry="8" class="r"/><text x="1990.1" y="443.9" class="x">BranchCache</text></a><a target="_blank" href="https://learn.microsoft.com/microsoft-desktop-optimization-pack/"><rect x="1760" y="592" width="96" height="80" rx="8" ry="8" class="r"/><text x="1787" y="627.8" class="s">MDOP<tspan x="1781.3" dy="1.3em" class="w">(retiring)</tspan></text></a><a target="_blank" href="https://learn.microsoft.com/windows/security/identity-protection/credential-guard/credential-guard"><rect x="2208" y="400" width="96" height="80" rx="8" ry="8" class="r"/><text x="2221.8" y="435.8" class="s">Credential <tspan x="2235.4" dy="1.2em" class="k">Guard</tspan></text></a><a target="_blank" href="https://learn.microsoft.com/windows/deployment/update/waas-overview#long-term-servicing-channel"><rect x="2208" y="496" width="96" height="80" rx="8" ry="8" class="r"/><text x="2219.8" y="523.4" class="s">Long Term <tspan x="2224.5" dy="1.2em" class="k">Servicing </tspan><tspan x="2228.4" dy="1.2em" class="k">Channel</tspan></text></a><a target="_blank" href="https://learn.microsoft.com/windows-server/remote/remote-access/vpn/always-on-vpn/"><rect x="1648" y="304" width="96" height="80" rx="8" ry="8" class="r"/><text x="1660.2" y="339.8" class="s">Always On <tspan x="1681.6" dy="1.2em" class="k">VPN</tspan></text></a><a target="_blank" href="https://learn.microsoft.com/universal-print/"><rect x="2096" y="688" width="96" height="80" rx="8" ry="8" class="r"/><text x="2112.5" y="723.8" class="s">Universal <tspan x="2128.1" dy="1.2em" class="k">Print</tspan></text></a><a target="_blank" href="https://learn.microsoft.com/fasttrack/products-and-capabilities#app-assure"><rect x="2096" y="304" width="96" height="80" rx="8" ry="8" class="r"/><text x="2104.7" y="348.2" class="s">App Assure</text></a><a target="_blank" href="https://learn.microsoft.com/windows/deployment/windows-autopilot/windows-autopilot"><rect x="1648" y="784" width="96" height="80" rx="8" ry="8" class="r"/><text x="1665.3" y="819.8" class="s">Windows <tspan x="1665.3" dy="1.2em" class="k">Autopilot</tspan></text></a><a target="_blank" href="https://learn.microsoft.com/windows/security/information-protection/bitlocker/bitlocker-overview"><rect x="1872" y="400" width="96" height="80" rx="8" ry="8" class="r"/><text x="1880.7" y="427.4" class="s">BitLocker &amp; <tspan x="1879.2" dy="1.2em" class="k">BitLocker to </tspan><tspan x="1910.3" dy="1.2em" class="k">Go</tspan></text></a><a target="_blank" href="https://learn.microsoft.com/windows/security/threat-protection/windows-firewall/windows-firewall-with-advanced-security"><rect x="1872" y="784" width="96" height="80" rx="8" ry="8" class="r"/><text x="1889.3" y="819.8" class="s">Windows <tspan x="1893.9" dy="1.2em" class="k">Firewall</tspan></text></a><a target="_blank" href="https://learn.microsoft.com/windows/security/threat-protection/windows-defender-application-control/windows-defender-application-control"><rect x="1760" y="304" width="96" height="80" rx="8" ry="8" class="r"/><text x="1769.9" y="339.8" class="s">Application <tspan x="1783.1" dy="1.2em" class="k">Control</tspan></text></a><a target="_blank" href="https://learn.microsoft.com/windows-server/storage/refs/refs-overview"><rect x="1648" y="688" width="96" height="80" rx="8" ry="8" class="r"/><text x="1652.8" y="715.4" class="s">Resilient File <tspan x="1671.1" dy="1.2em" class="k">System </tspan><tspan x="1673.4" dy="1.2em" class="k">(ReFS)</tspan></text></a><a target="_blank" href="https://learn.microsoft.com/windows-server/storage/file-server/smb-direct"><rect x="1760" y="688" width="96" height="80" rx="8" ry="8" class="r"/><text x="1770.7" y="732.2" class="s">SMB Direct</text></a><a target="_blank" href="https://learn.microsoft.com/windows-hardware/customize/enterprise/unified-write-filter"><rect x="1984" y="688" width="96" height="80" rx="8" ry="8" class="r"/><text x="1988.8" y="723.8" class="s">Unified Write <tspan x="2014.9" dy="1.2em" class="k">Filter</tspan></text></a><a target="_blank" href="https://learn.microsoft.com/windows-server/storage/storage-spaces/deploy-pmem"><rect x="2096" y="592" width="96" height="80" rx="8" ry="8" class="r"/><text x="2110.2" y="627.8" class="s">Persistent <tspan x="2117.2" dy="1.2em" class="k">Memory</tspan></text></a><a target="_blank" href="https://learn.microsoft.com/windows/client-management/mdm/mdm-overview"><rect x="1648" y="592" width="96" height="80" rx="8" ry="8" class="r"/><text x="1659.8" y="627.8" class="s">Manage by <tspan x="1679.3" dy="1.2em" class="k">MDM</tspan></text></a><a target="_blank" href="https://go.microsoft.com/fwlink/?linkid=2085130"><rect x="2208" y="592" width="96" height="80" rx="8" ry="8" class="r"/><text x="2238" y="614" class="ba">Power <tspan x="2228.3" dy="1.2em" class="k">Automate </tspan><tspan x="2230" dy="1.2em" class="k">Attended </tspan><tspan x="2213.7" dy="1.2em" class="k">Desktop Flows</tspan></text></a><a target="_blank" href="https://learn.microsoft.com/windows/deployment/windows-autopatch/overview/windows-autopatch-overview"><rect x="2208" y="688" width="96" height="80" rx="8" ry="8" class="r"/><text x="2225.3" y="723.8" class="s">Windows <tspan x="2221.4" dy="1.2em" class="k">Autopatch</tspan></text></a><a target="_blank" href="https://www.microsoft.com/edge/business"><rect x="1984" y="496" width="96" height="80" rx="8" ry="8" class="r"/><text x="2003.6" y="531.8" class="s">Edge for <tspan x="2000.9" dy="1.2em" class="k">Business</tspan></text></a><a target="_blank" href="https://learn.microsoft.com/windows-hardware/customize/enterprise/custom-logon"><rect x="1648" y="496" width="96" height="80" rx="8" ry="8" class="r"/><text x="1670" y="531.8" class="s">Custom <tspan x="1674.6" dy="1.2em" class="k">Logon</tspan></text></a><a target="_blank" href="https://learn.microsoft.com/windows-hardware/customize/enterprise/keyboardfilter"><rect x="2096" y="496" width="96" height="80" rx="8" ry="8" class="r"/><text x="2111.7" y="531.8" class="s">Keyboard <tspan x="2126.9" dy="1.2em" class="k">Filter</tspan></text></a><a target="_blank" href="https://learn.microsoft.com/windows-hardware/customize/enterprise/shell-launcher"><rect x="1760" y="496" width="96" height="80" rx="8" ry="8" class="r"/><text x="1782" y="531.8" class="s">Custom <tspan x="1791.3" dy="1.2em" class="k">Shell</tspan></text></a><a target="_blank" href="https://learn.microsoft.com/windows-hardware/customize/enterprise/unbranded-boot"><rect x="1872" y="688" width="96" height="80" rx="8" ry="8" class="r"/><text x="1883.1" y="723.8" class="s">Unbranded <tspan x="1904.1" dy="1.2em" class="k">Boot</tspan></text></a><a target="_blank" href="https://learn.microsoft.com/windows/whats-new/windows-11-plan#servicing-and-support"><rect x="1760" y="880" width="96" height="80" rx="8" ry="8" class="r"/><text x="1773" y="907.4" class="s">36 months <tspan x="1770.7" dy="1.2em" class="k">support for </tspan><tspan x="1767.6" dy="1.2em" class="k">Windows 11</tspan></text></a><a target="_blank" href="https://learn.microsoft.com/windows/configuration/kiosk-single-app"><rect x="2208" y="304" width="96" height="80" rx="8" ry="8" class="r"/><text x="2224.5" y="339.8" class="s">Assigned <tspan x="2231.5" dy="1.2em" class="k">Access</tspan></text></a><a target="_blank" href="https://powerapps.microsoft.com/"><rect x="704" y="688" width="96" height="80" rx="8" ry="8" class="v"/><text x="711.6" y="715.4" class="s">Power Apps<tspan x="742.7" dy="1.2em" class="k">for </tspan><tspan x="718.5" dy="1.2em" class="k">Office 365</tspan></text></a><a target="_blank" href="https://powerautomate.microsoft.com/"><rect x="816" y="688" width="96" height="80" rx="8" ry="8" class="v"/><text x="843" y="715.4" class="s">Power <tspan x="820.4" dy="1.2em" class="k">Automate for</tspan><tspan x="830.5" dy="1.2em" class="k">Office 365</tspan></text></a></svg>