<svg xmlns="http://www.w3.org/2000/svg" width="976" height="752" viewBox="0 0 976 752" class="a"><style>
.b {fill:#a5a5a5;fill-opacity:0.2;stroke:#7030a0;stroke-linecap:round;stroke-linejoin:round;stroke-width:2.2}
.c {fill:#7030a0;stroke:#7030a0;stroke-linecap:round;stroke-linejoin:round;stroke-width:2.2}
.d {fill:#ffffff;font-family:Arial;font-size:1.5em;font-weight:bold}
.e {fill:none;stroke:none;stroke-linecap:round;stroke-linejoin:round;stroke-width:0.8}
.f {fill:#0070f7;font-family:Arial;font-size:3em;font-weight:bold}
.g {fill:#0070f7;font-family:Arial;font-size:2.5em;font-weight:bold}
.h {fill:#0070f7;font-family:Arial;font-size:1.5em;font-weight:bold}
.i {fill:#a41500;stroke:none;stroke-linecap:round;stroke-linejoin:round;stroke-width:1}
.j {fill:#ffffff;font-family:Arial;font-size:1.2em;font-weight:bold}
.k {font-size:1em}
.l {font-size:0.8em}
.m {fill:#ffffff;font-family:Arial;font-size:1.1em;font-weight:bold}
.a {fill:none;fill-rule:evenodd;font-size:12px;overflow:visible;stroke-linecap:square;stroke-miterlimit:3}
</style><rect x="16" y="144" width="944" height="592" rx="8" ry="8" class="b"/><a target="_blank" href="https://www.microsoft.com/microsoft-365/business/microsoft-365-business-standard"><rect x="16" y="144" width="944" height="32" rx="8" ry="8" class="c"/><text x="346" y="165.4" class="d">Microsoft 365 Business Standard</text></a><a target="_blank" href="https://m365maps.com/"><rect x="16" y="16" width="944" height="48" class="e"/><text x="203.9" y="50.8" class="f">Microsoft 365 Business Standard</text></a><g><rect x="16" y="64" width="944" height="32" class="e"/><text x="392.9" y="89" class="g">January 2023</text></g><a target="_blank" href="https://m365maps.com/"><rect x="16" y="96" width="944" height="32" class="e"/><text x="420.5" y="117.4" class="h">m365maps.com</text></a><a target="_blank" href="https://www.microsoft.com/microsoft-365/business/microsoft-365-business-standard"><rect x="16" y="704" width="944" height="32" rx="8" ry="8" class="c"/><text x="346" y="725.4" class="d">Microsoft 365 Business Standard</text></a><a target="_blank" href="https://learn.microsoft.com/office365/servicedescriptions/exchange-online-service-description/exchange-online-service-description#feature-availability-across-exchange-online-standalone-plans"><rect x="272" y="304" width="96" height="80" rx="8" ry="8" class="i"/><text x="286.9" y="331.4" class="j">Exchange <tspan x="298.2" dy="1.2em" class="k">Online </tspan><tspan x="299.4" dy="1.2em" class="k">Plan 1</tspan></text></a><a target="_blank" href="https://learn.microsoft.com/sharepoint/introduction"><rect x="608" y="496" width="96" height="80" rx="8" ry="8" class="i"/><text x="619" y="523.4" class="j">SharePoint <tspan x="634.2" dy="1.2em" class="k">Online</tspan><tspan x="635.4" dy="1.2em" class="k">Plan 1</tspan></text></a><a target="_blank" href="https://learn.microsoft.com/office365/servicedescriptions/onedrive-for-business-service-description"><rect x="720" y="400" width="96" height="80" rx="8" ry="8" class="i"/><text x="725.6" y="427.4" class="j">OneDrive for <tspan x="736.9" dy="1.2em" class="k">Business </tspan><tspan x="747.4" dy="1.2em" class="k">Plan 1</tspan></text></a><a target="_blank" href="https://products.office.com/yammer/yammer-overview"><rect x="496" y="592" width="96" height="80" rx="8" ry="8" class="i"/><text x="516.4" y="627.8" class="j">Yammer <tspan x="509.4" dy="1.2em" class="k">Enterprise</tspan></text></a><a target="_blank" href="https://products.office.com/business/task-management-software"><rect x="832" y="400" width="96" height="80" rx="8" ry="8" class="i"/><text x="854.3" y="444.2" class="j">Planner</text></a><a target="_blank" href="https://products.office.com/microsoft-teams/"><rect x="160" y="400" width="96" height="80" rx="8" ry="8" class="i"/><text x="176.5" y="435.8" class="j">Microsoft <tspan x="185.8" dy="1.2em" class="k">Teams</tspan></text></a><a target="_blank" href="https://learn.microsoft.com/stream/"><rect x="720" y="496" width="96" height="80" rx="8" ry="8" class="i"/><text x="733" y="531.8" class="j">Stream for <tspan x="734.5" dy="1.2em" class="k">Office 365</tspan></text></a><a target="_blank" href="https://learn.microsoft.com/viva/insights/personal/overview/plans-environments"><rect x="384" y="304" width="96" height="80" rx="8" ry="8" class="i"/><text x="395" y="339.8" class="j">Insights by <tspan x="391.2" dy="1.2em" class="k">MyAnalytics</tspan></text></a><a target="_blank" href="https://support.office.com/sway"><rect x="832" y="496" width="96" height="80" rx="8" ry="8" class="i"/><text x="862.1" y="540.2" class="j">Sway</text></a><a target="_blank" href="https://support.office.com/forms"><rect x="720" y="304" width="96" height="80" rx="8" ry="8" class="i"/><text x="736.5" y="339.8" class="j">Microsoft <tspan x="746.6" dy="1.2em" class="k">Forms</tspan></text></a><a target="_blank" href="https://learn.microsoft.com/microsoft-365/bookings/bookings-overview"><rect x="832" y="208" width="96" height="80" rx="8" ry="8" class="i"/><text x="848.1" y="252.2" class="j">Bookings</text></a><a target="_blank" href="https://www.microsoft.com/microsoft-365/business/microsoft-365-apps-for-business"><rect x="496" y="304" width="96" height="80" rx="8" ry="8" class="i"/><text x="512.5" y="323" class="j">Microsoft <tspan x="501.6" dy="1.2em" class="k">365 Apps for </tspan><tspan x="512.9" dy="1.2em" class="k">Business </tspan><tspan x="520.5" dy="1.5em" class="l">(no SCA)</tspan></text></a><a target="_blank" href="https://learn.microsoft.com/powerapps/teams/overview-data-platform"><rect x="608" y="304" width="96" height="80" rx="8" ry="8" class="i"/><text x="624.5" y="331.4" class="j">Microsoft <tspan x="622.5" dy="1.2em" class="k">Dataverse </tspan><tspan x="622.6" dy="1.2em" class="k">for Teams</tspan></text></a><a target="_blank" href="https://products.office.com/mobile/office"><rect x="608" y="400" width="96" height="80" rx="8" ry="8" class="i"/><text x="636.2" y="435.8" class="j">Office<tspan x="614.4" dy="1.2em" class="k">Mobile Apps</tspan></text></a><a target="_blank" href="https://learn.microsoft.com/office365/servicedescriptions/office-online-service-description/office-online-service-description"><rect x="496" y="400" width="96" height="80" rx="8" ry="8" class="i"/><text x="524.2" y="427.4" class="j">Office<tspan x="505.5" dy="1.2em" class="k">for the Web</tspan><tspan x="508.6" dy="1.2em" class="k">(incl Visio)</tspan></text></a><a target="_blank" href="https://www.microsoft.com/microsoft-365/microsoft-lists"><rect x="832" y="304" width="96" height="80" rx="8" ry="8" class="i"/><text x="848.5" y="339.8" class="j">Microsoft <tspan x="863.7" dy="1.2em" class="k">Lists</tspan></text></a><a target="_blank" href="https://learn.microsoft.com/microsoft-365/whiteboard/"><rect x="384" y="400" width="96" height="80" rx="8" ry="8" class="i"/><text x="400.5" y="435.8" class="j">Microsoft <tspan x="393.5" dy="1.2em" class="k">Whiteboard</tspan></text></a><a target="_blank" href="https://www.microsoft.com/microsoft-365/microsoft-to-do-list-app"><rect x="272" y="400" width="96" height="80" rx="8" ry="8" class="i"/><text x="288.5" y="435.8" class="j">Microsoft <tspan x="300.2" dy="1.2em" class="k">To Do</tspan></text></a><a target="_blank" href="https://learn.microsoft.com/power-virtual-agents/teams/fundamentals-what-is-power-virtual-agents-teams"><rect x="272" y="496" width="96" height="80" rx="8" ry="8" class="i"/><text x="278.5" y="524.3" class="m">Power Virtual <tspan x="287.5" dy="1.2em" class="k">Agents for </tspan><tspan x="299.4" dy="1.2em" class="k">Teams</tspan></text></a><a target="_blank" href="https://learn.microsoft.com/microsoft-365/admin/basic-mobility-security/capabilities"><rect x="720" y="208" width="96" height="80" rx="8" ry="8" class="i"/><text x="749.3" y="235.4" class="j">Basic <tspan x="734.6" dy="1.2em" class="k">Mobility &amp; </tspan><tspan x="740.4" dy="1.2em" class="k">Security</tspan></text></a><a target="_blank" href="https://azure.microsoft.com/pricing/details/active-directory/"><rect x="608" y="208" width="96" height="80" rx="8" ry="8" class="i"/><text x="613.2" y="243.8" class="j">Azure AD for <tspan x="622.5" dy="1.2em" class="k">Office 365</tspan></text></a><a target="_blank" href="https://www.microsoft.com/microsoft-viva/connections"><rect x="48" y="592" width="96" height="80" rx="8" ry="8" class="i"/><text x="81.6" y="627.8" class="j">Viva <tspan x="53.6" dy="1.2em" class="k">Connections</tspan></text></a><a target="_blank" href="https://www.microsoft.com/microsoft-viva/learning"><rect x="272" y="592" width="96" height="80" rx="8" ry="8" class="i"/><text x="305.6" y="619.4" class="j">Viva <tspan x="290.4" dy="1.2em" class="k">Learning </tspan><tspan x="297.4" dy="1.2em" class="k">(basic)</tspan></text></a><a target="_blank" href="https://learn.microsoft.com/microsoft-365/compliance/search-the-audit-log-in-security-and-compliance"><rect x="496" y="208" width="96" height="80" rx="8" ry="8" class="i"/><text x="526.1" y="243.8" class="j">Audit <tspan x="509.8" dy="1.2em" class="k">(standard)</tspan></text></a><a target="_blank" href="https://learn.microsoft.com/microsoft-365/compliance/alert-policies"><rect x="272" y="208" width="96" height="80" rx="8" ry="8" class="i"/><text x="304" y="243.8" class="j">Alert <tspan x="293.5" dy="1.2em" class="k">Policies</tspan></text></a><a target="_blank" href="https://www.microsoftpartnercommunity.com/t5/Announcement-Discussions/Microsoft-365-Pricing-and-Audio-Conferencing-Licensing-Updates/td-p/60233#toc-hId--2041231687"><rect x="384" y="208" width="96" height="80" rx="8" ry="8" class="i"/><text x="413.6" y="236.3" class="m">Audio <tspan x="390.1" dy="1.2em" class="k">Conferencing </tspan><tspan x="392.3" dy="1.2em" class="k">(free add</tspan>-on)</text></a><a target="_blank" href="https://learn.microsoft.com/project-for-the-web/office-365-user-view-access-to-project-and-roadmap"><rect x="384" y="496" width="96" height="80" rx="8" ry="8" class="i"/><text x="401.3" y="523.4" class="j">Project &amp; <tspan x="400.1" dy="1.2em" class="k">Roadmap </tspan><tspan x="389.6" dy="1.2em" class="k">View Access</tspan></text></a><a target="_blank" href="https://learn.microsoft.com/microsoftteams/set-up-webinars"><rect x="384" y="592" width="96" height="80" rx="8" ry="8" class="i"/><text x="400.5" y="636.2" class="j">Webinars</text></a><a target="_blank" href="https://learn.microsoft.com/microsoft-365/compliance/compliance-manager-overview"><rect x="160" y="304" width="96" height="80" rx="8" ry="8" class="i"/><text x="168.3" y="339.8" class="j">Compliance <tspan x="179.2" dy="1.2em" class="k">Manager</tspan></text></a><a target="_blank" href="https://learn.microsoft.com/microsoft-365/security/defender/microsoft-secure-score"><rect x="496" y="496" width="96" height="80" rx="8" ry="8" class="i"/><text x="520.6" y="531.8" class="j">Secure <tspan x="524.6" dy="1.2em" class="k">Score</tspan></text></a><a target="_blank" href="https://learn.microsoft.com/microsoft-365/admin/adoption/adoption-score"><rect x="160" y="208" width="96" height="80" rx="8" ry="8" class="i"/><text x="177.3" y="243.8" class="j">Adoption <tspan x="188.6" dy="1.2em" class="k">Score</tspan></text></a><a target="_blank" href="https://learn.microsoft.com/microsoft-365/admin/activity-reports/activity-reports"><rect x="48" y="208" width="96" height="80" rx="8" ry="8" class="i"/><text x="70.7" y="243.8" class="j">Activity <tspan x="69.6" dy="1.2em" class="k">Reports</tspan></text></a><a target="_blank" href="https://learn.microsoft.com/viva/engage/overview"><rect x="160" y="592" width="96" height="80" rx="8" ry="8" class="i"/><text x="193.6" y="627.8" class="j">Viva <tspan x="182.7" dy="1.2em" class="k">Engage</tspan></text></a><a target="_blank" href="https://learn.microsoft.com/viva/insights/personal/briefing/be-overview"><rect x="48" y="304" width="96" height="80" rx="8" ry="8" class="i"/><text x="69.6" y="339.8" class="j">Briefing <tspan x="77.3" dy="1.2em" class="k">Email</tspan></text></a><a target="_blank" href="https://learn.microsoft.com/microsoftsearch/overview-microsoft-search"><rect x="48" y="400" width="96" height="80" rx="8" ry="8" class="i"/><text x="64.5" y="435.8" class="j">Microsoft <tspan x="72.6" dy="1.2em" class="k">Search</tspan></text></a><a target="_blank" href="https://powerapps.microsoft.com/"><rect x="48" y="496" width="96" height="80" rx="8" ry="8" class="i"/><text x="55.6" y="523.4" class="j">Power Apps<tspan x="86.7" dy="1.2em" class="k">for </tspan><tspan x="62.5" dy="1.2em" class="k">Office 365</tspan></text></a><a target="_blank" href="https://powerautomate.microsoft.com/"><rect x="160" y="496" width="96" height="80" rx="8" ry="8" class="i"/><text x="187" y="523.4" class="j">Power <tspan x="164.4" dy="1.2em" class="k">Automate for</tspan><tspan x="174.5" dy="1.2em" class="k">Office 365</tspan></text></a></svg>