<svg xmlns="http://www.w3.org/2000/svg" width="1776" height="2560" viewBox="0 0 1776 2560" class="a"><style>
.b {fill:#a5a5a5;fill-opacity:0.2;stroke:#442060;stroke-linecap:round;stroke-linejoin:round;stroke-width:2.2}
.c {fill:#a5a5a5;fill-opacity:0.2;stroke:#303040;stroke-linecap:round;stroke-linejoin:round;stroke-width:2.2}
.d {fill:#a5a5a5;fill-opacity:0.2;stroke:#7030a0;stroke-linecap:round;stroke-linejoin:round;stroke-width:2.2}
.e {fill:#a5a5a5;fill-opacity:0.2;stroke:#006600;stroke-linecap:round;stroke-linejoin:round;stroke-width:2.2}
.f {fill:#a5a5a5;fill-opacity:0.2;stroke:#006600;stroke-dasharray:2.2,4.5;stroke-linecap:round;stroke-linejoin:round;stroke-width:2.2}
.g {fill:#a5a5a5;fill-opacity:0.2;stroke:#105868;stroke-dasharray:33.8,20.2;stroke-linecap:round;stroke-linejoin:round;stroke-width:2.2}
.h {fill:#a5a5a5;fill-opacity:0.2;stroke:#2080a0;stroke-linecap:round;stroke-linejoin:round;stroke-width:2.2}
.i {fill:#a5a5a5;fill-opacity:0.2;stroke:#0050c0;stroke-dasharray:2.2,4.5;stroke-linecap:round;stroke-linejoin:round;stroke-width:2.2}
.j {fill:#a5a5a5;fill-opacity:0.2;stroke:#0070f7;stroke-dasharray:15.8,11.2;stroke-linecap:round;stroke-linejoin:round;stroke-width:2.2}
.k {fill:#a5a5a5;fill-opacity:0.2;stroke:#d04a00;stroke-dasharray:33.8,20.2;stroke-linecap:round;stroke-linejoin:round;stroke-width:2.2}
.l {fill:#a5a5a5;fill-opacity:0.2;stroke:#e82200;stroke-linecap:round;stroke-linejoin:round;stroke-width:2.2}
.m {fill:#a5a5a5;fill-opacity:0.2;stroke:#a41500;stroke-dasharray:2.2,4.5;stroke-linecap:round;stroke-linejoin:round;stroke-width:2.2}
.n {fill:#a5a5a5;fill-opacity:0.2;stroke:#d04a00;stroke-dasharray:2.2,4.5;stroke-linecap:round;stroke-linejoin:round;stroke-width:2.2}
.o {fill:#a5a5a5;fill-opacity:0.2;stroke:#d04a00;stroke-dasharray:15.8,11.2;stroke-linecap:round;stroke-linejoin:round;stroke-width:2.2}
.p {fill:#442060;stroke:#442060;stroke-linecap:round;stroke-linejoin:round;stroke-width:2.2}
.q {fill:#ffffff;font-family:Arial;font-size:1.7em;font-weight:bold}
.r {fill:#105868;stroke:#105868;stroke-linecap:round;stroke-linejoin:round;stroke-width:2.2}
.s {fill:none;stroke:none;stroke-linecap:round;stroke-linejoin:round;stroke-width:1}
.t {fill:#0070f7;font-family:Arial;font-size:4em;font-weight:bold}
.u {fill:#0070f7;font-family:Arial;font-size:2.5em;font-weight:bold}
.v {fill:#0070f7;font-family:Arial;font-size:1.5em;font-weight:bold}
.w {fill:#105868;stroke:none;stroke-linecap:round;stroke-linejoin:round;stroke-width:1}
.x {fill:#ffffff;font-family:Arial;font-size:1.2em;font-weight:bold}
.y {font-size:1em}
.z {fill:#312c43;stroke:#312c43;stroke-linecap:round;stroke-linejoin:round;stroke-width:2.2}
.ba {fill:#ffffff;font-family:Arial;font-size:1.5em;font-weight:bold}
.bb {fill:#0050c0;stroke:none;stroke-linecap:round;stroke-linejoin:round;stroke-width:1}
.bc {fill:#0050c0;stroke:#0050c0;stroke-linecap:round;stroke-linejoin:round;stroke-width:2.2}
.bd {fill:#ffffff;font-family:Arial;font-size:1.3em;font-weight:bold}
.be {fill:#a41500;stroke:#a41500;stroke-linecap:round;stroke-linejoin:round;stroke-width:2.2}
.bf {fill:#2080a0;stroke:none;stroke-linecap:round;stroke-linejoin:round;stroke-width:1}
.bg {fill:#0070f7;stroke:#0070f7;stroke-linecap:round;stroke-linejoin:round;stroke-width:2.2}
.bh {fill:#e82200;stroke:none;stroke-linecap:round;stroke-linejoin:round;stroke-width:1}
.bi {fill:#2080a0;stroke:#2080a0;stroke-linecap:round;stroke-linejoin:round;stroke-width:2.2}
.bj {fill:#006600;stroke:#267226;stroke-linecap:round;stroke-linejoin:round;stroke-width:2.2}
.bk {fill:#e82200;stroke:#e82200;stroke-linecap:round;stroke-linejoin:round;stroke-width:2.2}
.bl {fill:#7030a0;stroke:#7030a0;stroke-linecap:round;stroke-linejoin:round;stroke-width:2.2}
.bm {fill:#d04a00;stroke:#d04a00;stroke-linecap:round;stroke-linejoin:round;stroke-width:2.2}
.bn {fill:#d04a00;stroke:none;stroke-linecap:round;stroke-linejoin:round;stroke-width:1}
.bo {fill:#ffffff;font-family:Arial;font-size:1.1em;font-weight:bold}
.bp {fill:#a5a5a5;fill-opacity:0.2;stroke:#303040;stroke-dasharray:15.8,11.2;stroke-linecap:round;stroke-linejoin:round;stroke-width:2.2}
.bq {fill:#000000;font-family:Arial;font-size:1.5em}
.br {fill:#907000;stroke:none;stroke-linecap:round;stroke-linejoin:round;stroke-width:1}
.bs {fill:#0070f7;stroke:none;stroke-linecap:round;stroke-linejoin:round;stroke-width:1}
.bt {baseline-shift:32.5%;font-size:0.6em}
.bu {fill:#ffffff;font-family:Arial;font-size:1em;font-weight:bold}
.bv {fill:#e00080;stroke:none;stroke-linecap:round;stroke-linejoin:round;stroke-width:1}
.bw {fill:#a41500;stroke:none;stroke-linecap:round;stroke-linejoin:round;stroke-width:1}
.bx {font-size:0.9em}
.by {fill:#006600;stroke:none;stroke-linecap:round;stroke-linejoin:round;stroke-width:1}
.bz {fill:#000000;stroke:none;stroke-linecap:round;stroke-linejoin:round;stroke-width:1}
.a {fill:none;fill-rule:evenodd;font-size:12px;overflow:visible;stroke-linecap:square;stroke-miterlimit:3}
</style><rect x="16" y="176" width="1744" height="2336" rx="8" ry="8" class="b"/><rect x="1152" y="288" width="320" height="1536" rx="8" ry="8" class="c"/><rect x="80" y="272" width="1040" height="2208" rx="8" ry="8" class="d"/><rect x="112" y="1824" width="976" height="624" rx="8" ry="8" class="e"/><rect x="144" y="1856" width="928" height="528" rx="8" ry="8" class="f"/><rect x="48" y="1280" width="1680" height="512" rx="8" ry="8" class="g"/><rect x="112" y="1312" width="976" height="448" rx="8" ry="8" class="h"/><rect x="256" y="1328" width="1200" height="368" rx="8" ry="8" class="i"/><rect x="272" y="1344" width="800" height="336" rx="8" ry="8" class="j"/><rect x="48" y="480" width="1680" height="768" rx="8" ry="8" class="k"/><rect x="112" y="512" width="976" height="704" rx="8" ry="8" class="l"/><rect x="272" y="528" width="800" height="624" rx="8" ry="8" class="m"/><rect x="1168" y="512" width="464" height="608" rx="8" ry="8" class="n"/><rect x="1184" y="528" width="272" height="304" rx="8" ry="8" class="o"/><g><rect x="16" y="176" width="1744" height="64" rx="8" ry="8" class="p"/><text x="710.2" y="214" class="q">Microsoft 365 A5 Student Use Benefit</text></g><g transform="translate(-832,1792) rotate(-90)"><rect y="2496" width="512" height="64" rx="8" ry="8" class="r"/><text x="121" y="2534" class="q">EMS A5 Student Use Benefit</text></g><a target="_blank" href="https://m365maps.com/"><rect x="16" y="16" width="1744" height="64" rx="8" ry="8" class="s"/><text x="354.6" y="62.4" class="t">Microsoft 365 Education: Student Use Benefits</text></a><g><rect x="16" y="80" width="1744" height="32" rx="8" ry="8" class="s"/><text x="792.9" y="105" class="u">January 2023</text></g><a target="_blank" href="https://m365maps.com/"><rect x="16" y="112" width="1744" height="32" rx="8" ry="8" class="s"/><text x="820.5" y="133.4" class="v">m365maps.com</text></a><a target="_blank" href="https://learn.microsoft.com/defender-for-identity/what-is"><rect x="1488" y="1456" width="96" height="80" rx="8" ry="8" class="w"/><text x="1494.4" y="1491.8" class="x">Defender for <tspan x="1511.1" dy="1.2em" class="y">Identity</tspan></text></a><a target="_blank" href="https://learn.microsoft.com/cloud-app-security/what-is-cloud-app-security"><rect x="1488" y="1360" width="96" height="80" rx="8" ry="8" class="w"/><text x="1494.4" y="1395.8" class="x">Defender for <tspan x="1496.7" dy="1.2em" class="y">Cloud Apps</tspan></text></a><g><rect x="1152" y="288" width="320" height="48" rx="8" ry="8" class="z"/><text x="1202" y="306.6" class="ba">Microsoft 365 A5 Security <tspan x="1226.5" dy="1.2em" class="y">Student Use Benefit</tspan></text></g><a target="_blank" href="https://learn.microsoft.com/azure/active-directory/identity-protection/overview"><rect x="1200" y="1456" width="96" height="80" rx="8" ry="8" class="bb"/><text x="1223.1" y="1491.8" class="x">Identity <tspan x="1213.4" dy="1.2em" class="y">Protection</tspan></text></a><a target="_blank" href="https://learn.microsoft.com/azure/active-directory/active-directory-privileged-identity-management-configure"><rect x="1200" y="1552" width="96" height="80" rx="8" ry="8" class="bb"/><text x="1214.5" y="1579.4" class="x">Privileged <tspan x="1223.1" dy="1.2em" class="y">Identity </tspan><tspan x="1205.2" dy="1.2em" class="y">Management</tspan></text></a><a target="_blank" href="https://learn.microsoft.com/azure/active-directory/governance/access-reviews-overview"><rect x="1200" y="1360" width="96" height="80" rx="8" ry="8" class="bb"/><text x="1223.5" y="1395.8" class="x">Access <tspan x="1220" dy="1.2em" class="y">Reviews</tspan></text></a><a target="_blank" href="https://learn.microsoft.com/azure/active-directory/active-directory-conditional-access-conditions#sign-in-risk"><rect x="1312" y="1552" width="96" height="80" rx="8" ry="8" class="bb"/><text x="1321.9" y="1579.4" class="x">Risk-Based <tspan x="1321.5" dy="1.2em" class="y">Conditional </tspan><tspan x="1335.5" dy="1.2em" class="y">Access</tspan></text></a><a target="_blank" href="https://learn.microsoft.com/azure/active-directory/governance/entitlement-management-overview"><rect x="1312" y="1360" width="96" height="80" rx="8" ry="8" class="bb"/><text x="1321.9" y="1395.8" class="x">Entitlement <tspan x="1317.2" dy="1.2em" class="y">Management</tspan></text></a><a target="_blank" href="https://azure.microsoft.com/pricing/details/active-directory/" transform="translate(-1104,1696) rotate(-90)"><rect y="2528" width="368" height="32" rx="8" ry="8" class="bc"/><text x="83.5" y="2548.8" class="bd">Azure AD Premium  Plan 2</text></a><a target="_blank" href="https://www.microsoft.com/education/products/office"><rect x="272" y="1120" width="800" height="32" rx="8" ry="8" class="be"/><text x="564.9" y="1140.8" class="bd">Office 365 A1 (Free for EDU)</text></a><a target="_blank" href="https://learn.microsoft.com/intune-education/what-is-intune-for-education"><rect x="144" y="1456" width="96" height="80" rx="8" ry="8" class="bf"/><text x="159.7" y="1491.8" class="x">Intune for <tspan x="158.2" dy="1.2em" class="y">Education</tspan></text></a><a target="_blank" href="https://azure.microsoft.com/pricing/details/active-directory/"><rect x="272" y="1648" width="800" height="32" rx="8" ry="8" class="bg"/><text x="573.8" y="1668.8" class="bd">Azure AD Premium Plan 1</text></a><a target="_blank" href="https://learn.microsoft.com/advanced-threat-analytics/"><rect x="144" y="1360" width="96" height="80" rx="8" ry="8" class="bf"/><text x="158.6" y="1379" class="x">Advanced <tspan x="170.6" dy="1.2em" class="y">Threat </tspan><tspan x="160.9" dy="1.2em" class="y">Analytics </tspan><tspan x="163.2" dy="1.2em" class="y">(retiring)</tspan></text></a><a target="_blank" href="https://learn.microsoft.com/cloud-app-security/editions-cloud-app-security-o365"><rect x="144" y="736" width="96" height="80" rx="8" ry="8" class="bh"/><text x="158.5" y="763.4" class="x">Office 365 <tspan x="156.6" dy="1.2em" class="y">Cloud App </tspan><tspan x="164.4" dy="1.2em" class="y">Security</tspan></text></a><a target="_blank" href="https://www.microsoft.com/microsoft-365/business/microsoft-365-apps-for-enterprise-product"><rect x="144" y="640" width="96" height="80" rx="8" ry="8" class="bh"/><text x="160.5" y="667.4" class="x">Microsoft <tspan x="149.6" dy="1.2em" class="y">365 Apps for </tspan><tspan x="158.2" dy="1.2em" class="y">Education</tspan></text></a><g><rect x="112" y="1712" width="976" height="48" rx="8" ry="8" class="bi"/><text x="465" y="1742" class="q">EMS A3 Student Use Benefit</text></g><g><rect x="112" y="2400" width="976" height="48" rx="8" ry="8" class="bj"/><text x="442.8" y="2430" class="q">Windows A3 Student Use Benefit</text></g><g><rect x="112" y="1168" width="976" height="48" rx="8" ry="8" class="bk"/><text x="438.8" y="1198" class="q">Office 365 A3 Student Use Benefit</text></g><g><rect x="80" y="272" width="1040" height="64" rx="8" ry="8" class="bl"/><text x="422.2" y="310" class="q">Microsoft 365 A3 Student Use Benefit</text></g><a target="_blank" href="https://learn.microsoft.com/education/windows/windows-editions-for-education-customers"><rect x="144" y="2352" width="928" height="32" rx="8" ry="8" class="bj"/><text x="560.4" y="2372.8" class="bd">Windows A3</text></a><a target="_blank" href="https://learn.microsoft.com/office365/servicedescriptions/office-365-advanced-threat-protection-service-description#feature-availability-across-advanced-threat-protection-atp-plans" transform="translate(-928,1120) rotate(-90)"><rect y="2528" width="608" height="32" rx="8" ry="8" class="bm"/><text x="190.2" y="2548.8" class="bd">Defender for Office 365 Plan 2</text></a><a target="_blank" href="https://learn.microsoft.com/office365/securitycompliance/threat-trackers"><rect x="1488" y="1024" width="96" height="80" rx="8" ry="8" class="bn"/><text x="1514.6" y="1059.8" class="x">Threat <tspan x="1506.8" dy="1.2em" class="y">Trackers</tspan></text></a><a target="_blank" href="https://learn.microsoft.com/microsoft-365/security/office-365-security/attack-simulation-training-get-started"><rect x="1488" y="544" width="96" height="80" rx="8" ry="8" class="bn"/><text x="1514.6" y="571.4" class="x">Attack <tspan x="1500.2" dy="1.2em" class="y">Simulation </tspan><tspan x="1508.4" dy="1.2em" class="y">Training</tspan></text></a><a target="_blank" href="https://learn.microsoft.com/microsoft-365/security/office-365-security/threat-explorer"><rect x="1488" y="928" width="96" height="80" rx="8" ry="8" class="bn"/><text x="1514.6" y="963.8" class="x">Threat <tspan x="1507.6" dy="1.2em" class="y">Explorer</tspan></text></a><a target="_blank" href="https://learn.microsoft.com/microsoft-365/security/office-365-security/automated-investigation-response-office"><rect x="1488" y="640" width="96" height="80" rx="8" ry="8" class="bn"/><text x="1499.4" y="667.4" class="x">Automated <tspan x="1492.8" dy="1.2em" class="y">Investigation </tspan><tspan x="1495.6" dy="1.2em" class="y">&amp; Response</tspan></text></a><a target="_blank" href="https://learn.microsoft.com/microsoft-365/security/office-365-security/address-compromised-users-quickly"><rect x="1488" y="832" width="96" height="80" rx="8" ry="8" class="bn"/><text x="1492.3" y="860.3" class="bo">Compromised <tspan x="1521.6" dy="1.2em" class="y">User </tspan><tspan x="1506.4" dy="1.2em" class="y">Detection</tspan></text></a><a target="_blank" href="https://learn.microsoft.com/microsoft-365/security/office-365-security/campaigns"><rect x="1488" y="736" width="96" height="80" rx="8" ry="8" class="bn"/><text x="1502.2" y="771.8" class="x">Campaign <tspan x="1516.2" dy="1.2em" class="y">Views</tspan></text></a><a target="_blank" href="https://learn.microsoft.com/microsoft-365/security/office-365-security/atp-safe-links"><rect x="1200" y="736" width="96" height="80" rx="8" ry="8" class="bn"/><text x="1213" y="780.2" class="x">Safe Links</text></a><a target="_blank" href="https://learn.microsoft.com/microsoft-365/security/office-365-security/atp-safe-attachments"><rect x="1312" y="640" width="96" height="80" rx="8" ry="8" class="bn"/><text x="1345.2" y="675.8" class="x">Safe <tspan x="1317.6" dy="1.2em" class="y">Attachments</tspan></text></a><a target="_blank" href="https://learn.microsoft.com/microsoft-365/security/office-365-security/atp-anti-phishing"><rect x="1200" y="544" width="96" height="80" rx="8" ry="8" class="bn"/><text x="1232.1" y="579.8" class="x">Anti-<tspan x="1218.4" dy="1.2em" class="y">Phishing</tspan></text></a><a target="_blank" href="https://learn.microsoft.com/office365/servicedescriptions/office-365-advanced-threat-protection-service-description#feature-availability-across-advanced-threat-protection-atp-plans" transform="translate(-1104,832) rotate(-90)"><rect y="2528" width="304" height="32" rx="8" ry="8" class="bm"/><text x="38.2" y="2548.8" class="bd">Defender for Office 365 Plan 1</text></a><g transform="translate(-832,1248) rotate(-90)"><rect y="2496" width="768" height="64" rx="8" ry="8" class="bm"/><text x="222.8" y="2534" class="q">Office 365 A5 Student Use Benefit</text></g><a target="_blank" href="https://learn.microsoft.com/microsoft-365/security/office-365-security/view-reports-for-mdo"><rect x="1200" y="640" width="96" height="80" rx="8" ry="8" class="bn"/><text x="1214.6" y="675.8" class="x">Real-Time <tspan x="1221.6" dy="1.2em" class="y">Reports</tspan></text></a><a target="_blank" href="https://www.microsoft.com/licensing/terms/product/StudentUseBenefitsandAcademicPrograms/all"><rect x="16" y="2512" width="1744" height="32" rx="8" ry="8" class="s"/><text x="410.5" y="2533.4" class="v">Refer to the Microsoft Product Terms for more information, including program eligibility and staff/student ratios</text></a><g><rect x="1488" y="288" width="224" height="96" rx="8" ry="8" class="bp"/><text x="1532.5" y="319.8" class="bq">Microsoft 365 A5 <tspan x="1523" dy="1.2em" class="y">Compliance has no </tspan><tspan x="1520" dy="1.2em" class="y">Student Use Benefit</tspan></text></g><a target="_blank" href="https://education.minecraft.net/homepage"><rect x="144" y="368" width="96" height="80" rx="8" ry="8" class="br"/><text x="160.9" y="395.4" class="x">Minecraft <tspan x="158.2" dy="1.2em" class="y">Education </tspan><tspan x="168.3" dy="1.2em" class="y">Edition</tspan></text></a><g><rect x="368" y="368" width="432" height="80" rx="8" ry="8" class="bp"/><text x="433.9" y="402.6" class="bq">Microsoft 365 A3 Student Use Benefit<tspan x="399.9" dy="1.2em" class="y">does not include Defender for Endpoint Plan 1</tspan></text></g><g><rect x="1152" y="1872" width="432" height="80" rx="8" ry="8" class="bp"/><text x="1177.9" y="1895.8" class="bq">Microsoft 365 A5 and Microsoft 365 A5 Security<tspan x="1224.9" dy="1.2em" class="y">Student Use Benefits do not include </tspan><tspan x="1251.9" dy="1.2em" class="y">Defender for Endpoint Plan 2</tspan></text></g><a target="_blank" href="https://learn.microsoft.com/office365/servicedescriptions/exchange-online-protection-service-description/exchange-online-protection-service-description"><rect x="1312" y="544" width="96" height="80" rx="8" ry="8" class="bn"/><text x="1326.9" y="571.4" class="x">Exchange <tspan x="1338.2" dy="1.2em" class="y">Online </tspan><tspan x="1325.4" dy="1.2em" class="y">Protection</tspan></text></a><a target="_blank" href="https://learn.microsoft.com/microsoft-365/bookings/bookings-overview"><rect x="144" y="544" width="96" height="80" rx="8" ry="8" class="bh"/><text x="160.1" y="588.2" class="x">Bookings</text></a><a target="_blank" href="https://learn.microsoft.com/azure/active-directory/identity-protection/howto-identity-protection-configure-mfa-policy"><rect x="1312" y="1456" width="96" height="80" rx="8" ry="8" class="bb"/><text x="1344.8" y="1483.4" class="x">MFA <tspan x="1319.2" dy="1.2em" class="y">Registration </tspan><tspan x="1339.4" dy="1.2em" class="y">Policy</tspan></text></a><a target="_blank" href="https://learn.microsoft.com/azure/active-directory/reports-monitoring/"><rect x="400" y="1360" width="96" height="80" rx="8" ry="8" class="bs"/><text x="414.6" y="1379" class="x">Advanced <tspan x="420.4" dy="1.2em" class="y">Security </tspan><tspan x="414.6" dy="1.2em" class="y">Reports &amp; </tspan><tspan x="428.2" dy="1.2em" class="y">Alerts</tspan></text></a><a target="_blank" href="https://learn.microsoft.com/azure/active-directory/hybrid/how-to-connect-sso"><rect x="400" y="1552" width="96" height="80" rx="8" ry="8" class="bs"/><text x="407.2" y="1579.4" class="x">Single-Sign-<tspan x="410.3" dy="1.2em" class="y">On to other </tspan><tspan x="430.9" dy="1.2em" class="y">SaaS</tspan></text></a><a target="_blank" href="https://learn.microsoft.com/azure/active-directory/manage-apps/application-proxy"><rect x="512" y="1360" width="96" height="80" rx="8" ry="8" class="bs"/><text x="523" y="1387.4" class="x">App Proxy, <tspan x="528.9" dy="1.2em" class="y">including </tspan><tspan x="520.3" dy="1.2em" class="y">PingAccess</tspan></text></a><a target="_blank" href="https://learn.microsoft.com/azure/active-directory/authentication/concept-mfa-howitworks"><rect x="624" y="1456" width="96" height="80" rx="8" ry="8" class="bs"/><text x="632" y="1491.8" class="x">Multi-Factor <tspan x="634.3" dy="1.2em" class="y">Auth (MFA)</tspan></text></a><a target="_blank" href="https://learn.microsoft.com/azure/active-directory/hybrid/whatis-azure-ad-connect#what-is-azure-ad-connect-health"><rect x="624" y="1360" width="96" height="80" rx="8" ry="8" class="bs"/><text x="640.5" y="1387.4" class="x">Azure AD <tspan x="644" dy="1.2em" class="y">Connect </tspan><tspan x="650.6" dy="1.2em" class="y">Health</tspan></text></a><a target="_blank" href="https://learn.microsoft.com/cloud-app-security/set-up-cloud-discovery"><rect x="736" y="1360" width="96" height="80" rx="8" ry="8" class="bs"/><text x="748.6" y="1395.8" class="x">Cloud App <tspan x="750.5" dy="1.2em" class="y">Discovery</tspan></text></a><a target="_blank" href="https://learn.microsoft.com/azure/active-directory/users-groups-roles/users-sharing-accounts"><rect x="288" y="1552" width="96" height="80" rx="8" ry="8" class="bs"/><text x="312.3" y="1571" class="x">Shared <tspan x="308" dy="1.2em" class="y">Account </tspan><tspan x="302.9" dy="1.2em" class="y">Password </tspan><tspan x="304.5" dy="1.2em" class="y">Roll</tspan>-Over</text></a><a target="_blank" href="https://learn.microsoft.com/azure/active-directory/authentication/concept-sspr-howitworks"><rect x="960" y="1456" width="96" height="80" rx="8" ry="8" class="bs"/><text x="967.9" y="1483.4" class="x">Self-Service <tspan x="974.9" dy="1.2em" class="y">Password </tspan><tspan x="968.7" dy="1.2em" class="y">Reset in AD</tspan></text></a><a target="_blank" href="https://learn.microsoft.com/azure/active-directory/users-groups-roles/groups-self-service-management"><rect x="848" y="1456" width="96" height="80" rx="8" ry="8" class="bs"/><text x="855.9" y="1483.4" class="x">Self-Service <tspan x="875" dy="1.2em" class="y">Group </tspan><tspan x="853.2" dy="1.2em" class="y">Management</tspan></text></a><a target="_blank" href="https://learn.microsoft.com/azure/active-directory/conditional-access/overview"><rect x="848" y="1360" width="96" height="80" rx="8" ry="8" class="bs"/><text x="857.5" y="1395.8" class="x">Conditional <tspan x="871.5" dy="1.2em" class="y">Access</tspan></text></a><a target="_blank" href="https://learn.microsoft.com/azure/active-directory/external-identities/"><rect x="400" y="1456" width="96" height="80" rx="8" ry="8" class="bs"/><text x="420.4" y="1491.8" class="x">External <tspan x="417.3" dy="1.2em" class="y">Identities</tspan></text></a><a target="_blank" href="https://learn.microsoft.com/azure/active-directory/devices/enterprise-state-roaming-overview"><rect x="288" y="1456" width="96" height="80" rx="8" ry="8" class="bs"/><text x="301.4" y="1483.4" class="x">Enterprise <tspan x="318.9" dy="1.2em" class="y">State </tspan><tspan x="306.1" dy="1.2em" class="y">Roaming</tspan></text></a><a target="_blank" href="https://learn.microsoft.com/azure/active-directory/governance/active-directory-tou"><rect x="736" y="1552" width="96" height="80" rx="8" ry="8" class="bs"/><text x="754.4" y="1587.8" class="x">Terms of <tspan x="771.2" dy="1.2em" class="y">Use</tspan></text></a><a target="_blank" href="https://learn.microsoft.com/azure/active-directory/authentication/concept-password-ban-bad"><rect x="736" y="1456" width="96" height="80" rx="8" ry="8" class="bs"/><text x="750.9" y="1491.8" class="x">Password <tspan x="749.4" dy="1.2em" class="y">Protection</tspan></text></a><a target="_blank" href="https://learn.microsoft.com/microsoft-identity-manager/"><rect x="512" y="1456" width="96" height="80" rx="8" ry="8" class="bs"/><text x="528.5" y="1483.4" class="x">Microsoft <tspan x="535.1" dy="1.2em" class="y">Identity </tspan><tspan x="531.2" dy="1.2em" class="y">Manager</tspan></text></a><a target="_blank" href="https://learn.microsoft.com/azure/active-directory/conditional-access/controls#custom-controls-preview"><rect x="848" y="1552" width="96" height="80" rx="8" ry="8" class="bs"/><text x="868.8" y="1579.4" class="x">3<tspan dy="-0.2em" class="bt">rd </tspan><tspan dy="0.2em" class="y">Party  </tspan><tspan x="880.8" dy="1.2em" class="y">MFA </tspan><tspan x="859.8" dy="1.2em" class="y">Integration</tspan></text></a><a target="_blank" href="https://learn.microsoft.com/azure/active-directory/roles/administrative-units"><rect x="288" y="1360" width="96" height="80" rx="8" ry="8" class="bs"/><text x="294.3" y="1396.4" class="bu">Administrative <tspan x="321" dy="1.2em" class="y">Units</tspan></text></a><a target="_blank" href="https://learn.microsoft.com/azure/active-directory/enterprise-users/groups-create-rule"><rect x="960" y="1360" width="96" height="80" rx="8" ry="8" class="bs"/><text x="978.8" y="1395.8" class="x">Dynamic <tspan x="983.1" dy="1.2em" class="y">Groups</tspan></text></a><a target="_blank" href="https://learn.microsoft.com/azure/active-directory/authentication/howto-authentication-sms-signin"><rect x="512" y="1552" width="96" height="80" rx="8" ry="8" class="bs"/><text x="519.2" y="1596.2" class="x">SMS Sign-In</text></a><a target="_blank" href="https://learn.microsoft.com/azure/active-directory/authentication/howto-authentication-temporary-access-pass"><rect x="624" y="1552" width="96" height="80" rx="8" ry="8" class="bs"/><text x="635.8" y="1587.8" class="x">Temporary <tspan x="629.2" dy="1.2em" class="y">Access Pass</tspan></text></a><a target="_blank" href="https://learn.microsoft.com/mem/intune/remote-actions/remote-help"><rect x="256" y="368" width="96" height="80" rx="8" ry="8" class="bv"/><text x="278.3" y="403.8" class="x">Remote  <tspan x="288.8" dy="1.2em" class="y">Help</tspan></text></a><a target="_blank" href="https://products.office.com/yammer/yammer-overview"><rect x="960" y="1024" width="96" height="80" rx="8" ry="8" class="bw"/><text x="980.4" y="1059.8" class="x">Yammer <tspan x="974.9" dy="1.2em" class="y">Academic</tspan></text></a><a target="_blank" href="https://support.office.com/sway"><rect x="512" y="1024" width="96" height="80" rx="8" ry="8" class="bw"/><text x="542.1" y="1068.2" class="x">Sway</text></a><a target="_blank" href="https://learn.microsoft.com/office365/servicedescriptions/exchange-online-protection-service-description/exchange-online-protection-service-description"><rect x="848" y="640" width="96" height="80" rx="8" ry="8" class="bw"/><text x="862.9" y="667.4" class="x">Exchange <tspan x="874.2" dy="1.2em" class="y">Online </tspan><tspan x="861.4" dy="1.2em" class="y">Protection</tspan></text></a><a target="_blank" href="https://products.office.com/microsoft-teams/"><rect x="848" y="736" width="96" height="80" rx="8" ry="8" class="bw"/><text x="864.5" y="771.8" class="x">Microsoft <tspan x="873.8" dy="1.2em" class="y">Teams</tspan></text></a><a target="_blank" href="https://learn.microsoft.com/office365/servicedescriptions/exchange-online-service-description/exchange-online-service-description#feature-availability-across-exchange-online-standalone-plans"><rect x="736" y="640" width="96" height="80" rx="8" ry="8" class="bw"/><text x="750.9" y="667.4" class="x">Exchange <tspan x="762.2" dy="1.2em" class="y">Online </tspan><tspan x="759.3" dy="1.2em" class="y">Plan 1+</tspan></text></a><a target="_blank" href="https://learn.microsoft.com/sharepoint/introduction"><rect x="288" y="1024" width="96" height="80" rx="8" ry="8" class="bw"/><text x="299" y="1051.4" class="x">SharePoint <tspan x="314.2" dy="1.2em" class="y">Online </tspan><tspan x="311.3" dy="1.2em" class="y">Plan 1+</tspan></text></a><a target="_blank" href="https://learn.microsoft.com/office365/servicedescriptions/onedrive-for-business-service-description"><rect x="736" y="832" width="96" height="80" rx="8" ry="8" class="bw"/><text x="741.6" y="859.4" class="x">OneDrive for <tspan x="752.9" dy="1.2em" class="y">Business </tspan><tspan x="763.4" dy="1.2em" class="y">Plan 1</tspan></text></a><a target="_blank" href="https://products.office.com/business/task-management-software"><rect x="960" y="832" width="96" height="80" rx="8" ry="8" class="bw"/><text x="982.3" y="876.2" class="x">Planner</text></a><a target="_blank" href="https://learn.microsoft.com/stream/"><rect x="400" y="1024" width="96" height="80" rx="8" ry="8" class="bw"/><text x="413" y="1059.8" class="x">Stream for <tspan x="414.5" dy="1.2em" class="y">Office 365</tspan></text></a><a target="_blank" href="https://support.microsoft.com/office/1315665a-c6af-4409-a28d-49f8916878ca"><rect x="400" y="640" width="96" height="80" rx="8" ry="8" class="bw"/><text x="429.3" y="684.2" class="x">Delve</text></a><a target="_blank" href="https://sds.microsoft.com/"><rect x="848" y="928" width="96" height="80" rx="8" ry="8" class="bw"/><text x="855.6" y="963.8" class="x">School Data <tspan x="879.3" dy="1.2em" class="y">Sync</tspan></text></a><a target="_blank" href="https://support.office.com/forms"><rect x="512" y="736" width="96" height="80" rx="8" ry="8" class="bw"/><text x="528.5" y="771.8" class="x">Microsoft <tspan x="538.6" dy="1.2em" class="y">Forms</tspan></text></a><a target="_blank" href="https://www.onenote.com/classnotebook"><rect x="848" y="832" width="96" height="80" rx="8" ry="8" class="bw"/><text x="866.8" y="859.4" class="x">OneNote <tspan x="877.3" dy="1.2em" class="y">Class </tspan><tspan x="863.7" dy="1.2em" class="y">Notebook</tspan></text></a><a target="_blank" href="https://www.microsoft.com/en-us/microsoft-365/blog/2016/06/20/professional-learning-community-groups-in-office-365-education/"><rect x="288" y="928" width="96" height="80" rx="8" ry="8" class="bw"/><text x="322" y="963.8" class="x">PLC<tspan x="311.1" dy="1.2em" class="y">Groups</tspan></text></a><a target="_blank" href="https://learn.microsoft.com/microsoft-365/whiteboard/"><rect x="288" y="832" width="96" height="80" rx="8" ry="8" class="bw"/><text x="304.5" y="867.8" class="x">Microsoft <tspan x="297.5" dy="1.2em" class="y">Whiteboard</tspan></text></a><a target="_blank" href="https://www.microsoft.com/microsoft-365/microsoft-to-do-list-app"><rect x="960" y="736" width="96" height="80" rx="8" ry="8" class="bw"/><text x="976.5" y="771.8" class="x">Microsoft <tspan x="988.2" dy="1.2em" class="y">To Do</tspan></text></a><a target="_blank" href="https://learn.microsoft.com/microsoft-365/compliance/retention"><rect x="736" y="928" width="96" height="80" rx="8" ry="8" class="bw"/><text x="751.7" y="955.4" class="x">Retention <tspan x="754.8" dy="1.2em" class="y">Labels &amp; </tspan><tspan x="757.5" dy="1.2em" class="y">Policies</tspan></text></a><a target="_blank" href="https://learn.microsoft.com/microsoft-365/compliance/get-started-core-ediscovery"><rect x="512" y="640" width="96" height="80" rx="8" ry="8" class="bw"/><text x="522.6" y="675.8" class="x">eDiscovery <tspan x="525.8" dy="1.2em" class="y">(standard)</tspan></text></a><a target="_blank" href="https://www.microsoft.com/microsoft-365/microsoft-lists"><rect x="624" y="736" width="96" height="80" rx="8" ry="8" class="bw"/><text x="640.5" y="771.8" class="x">Microsoft <tspan x="655.7" dy="1.2em" class="y">Lists</tspan></text></a><a target="_blank" href="https://products.office.com/en/business/microsoft-kaizala"><rect x="400" y="736" width="96" height="80" rx="8" ry="8" class="bw"/><text x="410.3" y="771.8" class="x">Kaizala Pro<tspan x="421.3" dy="1.3em" class="bx">(retiring)</tspan></text></a><a target="_blank" href="https://learn.microsoft.com/microsoft-365/compliance/sensitivity-labels"><rect x="288" y="736" width="96" height="80" rx="8" ry="8" class="bw"/><text x="297.5" y="763.4" class="x">Information <tspan x="301.4" dy="1.2em" class="y">Protection</tspan><tspan x="307.2" dy="1.2em" class="y">for M365</tspan></text></a><a target="_blank" href="https://learn.microsoft.com/microsoft-365/compliance/ome"><rect x="400" y="832" width="96" height="80" rx="8" ry="8" class="bw"/><text x="414.5" y="859.4" class="x">Office 365 <tspan x="418.4" dy="1.2em" class="y">Message </tspan><tspan x="411.4" dy="1.2em" class="y">Encryption</tspan></text></a><a target="_blank" href="https://www.microsoft.com/microsoft-viva/connections"><rect x="624" y="1024" width="96" height="80" rx="8" ry="8" class="bw"/><text x="657.6" y="1059.8" class="x">Viva <tspan x="629.6" dy="1.2em" class="y">Connections</tspan></text></a><a target="_blank" href="https://www.microsoft.com/microsoft-viva/learning"><rect x="848" y="1024" width="96" height="80" rx="8" ry="8" class="bw"/><text x="881.6" y="1051.4" class="x">Viva <tspan x="866.4" dy="1.2em" class="y">Learning </tspan><tspan x="873.4" dy="1.2em" class="y">(basic)</tspan></text></a><a target="_blank" href="https://learn.microsoft.com/microsoft-365/compliance/search-the-audit-log-in-security-and-compliance"><rect x="624" y="544" width="96" height="80" rx="8" ry="8" class="bw"/><text x="654.1" y="579.8" class="x">Audit <tspan x="637.8" dy="1.2em" class="y">(standard)</tspan></text></a><a target="_blank" href="https://learn.microsoft.com/microsoft-365/compliance/alert-policies"><rect x="512" y="544" width="96" height="80" rx="8" ry="8" class="bw"/><text x="544" y="579.8" class="x">Alert <tspan x="533.5" dy="1.2em" class="y">Policies</tspan></text></a><a target="_blank" href="https://products.office.com/mobile/office"><rect x="624" y="832" width="96" height="80" rx="8" ry="8" class="bw"/><text x="652.2" y="867.8" class="x">Office <tspan x="630.4" dy="1.2em" class="y">Mobile Apps</tspan></text></a><a target="_blank" href="https://learn.microsoft.com/office365/servicedescriptions/office-online-service-description/office-online-service-description"><rect x="512" y="832" width="96" height="80" rx="8" ry="8" class="bw"/><text x="540.2" y="859.4" class="x">Office<tspan x="521.5" dy="1.2em" class="y">for the Web</tspan><tspan x="524.6" dy="1.2em" class="y">(incl Visio)</tspan></text></a><a target="_blank" href="https://learn.microsoft.com/viva/engage/overview"><rect x="736" y="1024" width="96" height="80" rx="8" ry="8" class="bw"/><text x="769.6" y="1059.8" class="x">Viva <tspan x="758.7" dy="1.2em" class="y">Engage</tspan></text></a><a target="_blank" href="https://learn.microsoft.com/microsoft-365/compliance/compliance-manager-overview"><rect x="960" y="544" width="96" height="80" rx="8" ry="8" class="bw"/><text x="968.3" y="579.8" class="x">Compliance <tspan x="979.2" dy="1.2em" class="y">Manager</tspan></text></a><a target="_blank" href="https://learn.microsoft.com/microsoft-365/security/defender/microsoft-secure-score"><rect x="960" y="928" width="96" height="80" rx="8" ry="8" class="bw"/><text x="984.6" y="963.8" class="x">Secure <tspan x="988.6" dy="1.2em" class="y">Score</tspan></text></a><a target="_blank" href="https://learn.microsoft.com/microsoft-365/compliance/information-barriers"><rect x="960" y="640" width="96" height="80" rx="8" ry="8" class="bw"/><text x="969.5" y="675.8" class="x">Information <tspan x="981.2" dy="1.2em" class="y">Barriers</tspan></text></a><a target="_blank" href="https://learn.microsoft.com/microsoft-365/admin/adoption/adoption-score"><rect x="400" y="544" width="96" height="80" rx="8" ry="8" class="bw"/><text x="417.3" y="579.8" class="x">Adoption <tspan x="428.6" dy="1.2em" class="y">Score</tspan></text></a><a target="_blank" href="https://learn.microsoft.com/microsoft-365/admin/activity-reports/activity-reports"><rect x="288" y="544" width="96" height="80" rx="8" ry="8" class="bw"/><text x="310.7" y="579.8" class="x">Activity <tspan x="309.6" dy="1.2em" class="y">Reports</tspan></text></a><a target="_blank" href="https://support.microsoft.com/topic/27b56255-90c0-47aa-bac3-1c9f50157181"><rect x="624" y="640" width="96" height="80" rx="8" ry="8" class="bw"/><text x="638.2" y="675.8" class="x">Education <tspan x="645.2" dy="1.2em" class="y">Insights</tspan></text></a><a target="_blank" href="https://learn.microsoft.com/microsoft-365/admin/basic-mobility-security/capabilities"><rect x="848" y="544" width="96" height="80" rx="8" ry="8" class="bw"/><text x="877.3" y="571.4" class="x">Basic <tspan x="862.6" dy="1.2em" class="y">Mobility &amp; </tspan><tspan x="868.4" dy="1.2em" class="y">Security</tspan></text></a><a target="_blank" href="https://azure.microsoft.com/pricing/details/active-directory/"><rect x="736" y="544" width="96" height="80" rx="8" ry="8" class="bw"/><text x="741.2" y="579.8" class="x">Azure AD for <tspan x="750.5" dy="1.2em" class="y">Office 365</tspan></text></a><a target="_blank" href="https://learn.microsoft.com/project-for-the-web/office-365-user-view-access-to-project-and-roadmap"><rect x="624" y="928" width="96" height="80" rx="8" ry="8" class="bw"/><text x="641.3" y="955.4" class="x">Project &amp; <tspan x="640.1" dy="1.2em" class="y">Roadmap </tspan><tspan x="629.6" dy="1.2em" class="y">View Access</tspan></text></a><a target="_blank" href="https://learn.microsoft.com/office365/securitycompliance/data-loss-prevention-policies"><rect x="288" y="640" width="96" height="80" rx="8" ry="8" class="bw"/><text x="302.6" y="675.8" class="x">Data Loss <tspan x="299.8" dy="1.2em" class="y">Prevention</tspan></text></a><a target="_blank" href="https://learn.microsoft.com/microsoftsearch/overview-microsoft-search"><rect x="736" y="736" width="96" height="80" rx="8" ry="8" class="bw"/><text x="752.5" y="771.8" class="x">Microsoft <tspan x="760.6" dy="1.2em" class="y">Search</tspan></text></a><a target="_blank" href="https://learn.microsoft.com/windows/security/threat-protection/microsoft-defender-atp/attack-surface-reduction"><rect x="832" y="1872" width="96" height="80" rx="8" ry="8" class="by"/><text x="858.6" y="1899.4" class="x">Attack <tspan x="854.3" dy="1.2em" class="y">Surface </tspan><tspan x="845.8" dy="1.2em" class="y">Reduction</tspan></text></a><a target="_blank" href="https://learn.microsoft.com/microsoft-store/microsoft-store-for-business-overview"><rect x="720" y="2064" width="96" height="80" rx="8" ry="8" class="by"/><text x="736.5" y="2083" class="x">Microsoft <tspan x="738.8" dy="1.2em" class="y">Store for </tspan><tspan x="736.9" dy="1.2em" class="y">Business</tspan><tspan x="739.2" dy="1.2em" class="y">(retiring)</tspan></text></a><a target="_blank" href="https://learn.microsoft.com/windows-server/identity/ad-fs/operations/configure-device-based-conditional-access-on-premises"><rect x="944" y="2160" width="96" height="80" rx="8" ry="8" class="by"/><text x="961.3" y="2187.4" class="x">Windows <tspan x="953.5" dy="1.2em" class="y">Conditional </tspan><tspan x="967.5" dy="1.2em" class="y">Access</tspan></text></a><a target="_blank" href="https://learn.microsoft.com/windows/security/information-protection/windows-information-protection/protect-enterprise-data-using-wip"><rect x="384" y="2256" width="96" height="80" rx="8" ry="8" class="by"/><text x="401.3" y="2275" class="x">Windows <tspan x="393.5" dy="1.2em" class="y">Information </tspan><tspan x="397.4" dy="1.2em" class="y">Protection </tspan><tspan x="403.2" dy="1.2em" class="y">(retiring)</tspan></text></a><a target="_blank" href="https://learn.microsoft.com/windows/deployment/update/waas-manage-updates-wufb"><rect x="496" y="2256" width="96" height="80" rx="8" ry="8" class="by"/><text x="513.3" y="2283.4" class="x">Windows <tspan x="509" dy="1.2em" class="y">Update for </tspan><tspan x="512.9" dy="1.2em" class="y">Business</tspan></text></a><a target="_blank" href="https://learn.microsoft.com/windows/security/identity-protection/hello-for-business/hello-identity-verification"><rect x="272" y="2256" width="96" height="80" rx="8" ry="8" class="by"/><text x="289.3" y="2283.4" class="x">Windows <tspan x="291.6" dy="1.2em" class="y">Hello for </tspan><tspan x="288.9" dy="1.2em" class="y">Business</tspan></text></a><a target="_blank" href="https://support.microsoft.com/help/17214/windows-10-what-is"><rect x="384" y="1968" width="96" height="80" rx="8" ry="8" class="by"/><text x="405.6" y="2012.2" class="x">Cortana</text></a><a target="_blank" href="https://learn.microsoft.com/windows/security/threat-protection/windows-defender-application-guard/wd-app-guard-overview"><rect x="384" y="1872" width="96" height="80" rx="8" ry="8" class="by"/><text x="393.9" y="1907.8" class="x">Application <tspan x="411.4" dy="1.2em" class="y">Guard</tspan></text></a><a target="_blank" href="https://learn.microsoft.com/azure/active-directory/devices/concept-azure-ad-join"><rect x="944" y="1872" width="96" height="80" rx="8" ry="8" class="by"/><text x="960.5" y="1899.4" class="x">Azure AD<tspan x="959.3" dy="1.2em" class="y">&amp; Domain </tspan><tspan x="977.6" dy="1.2em" class="y">Join</tspan></text></a><a target="_blank" href="https://www.microsoft.com/windows/comprehensive-security"><rect x="608" y="2064" width="96" height="80" rx="8" ry="8" class="by"/><text x="624.5" y="2091.4" class="x">Microsoft <tspan x="625.7" dy="1.2em" class="y">Defender </tspan><tspan x="625.7" dy="1.2em" class="y">Antivirus</tspan></text></a><a target="_blank" href="https://learn.microsoft.com/windows/security/threat-protection/windows-defender-application-control/applocker/applocker-overview"><rect x="496" y="1872" width="96" height="80" rx="8" ry="8" class="by"/><text x="507.4" y="1916.2" class="x">AppLocker</text></a><a target="_blank" href="https://learn.microsoft.com/windows/deployment/vda-subscription-activation"><rect x="608" y="2256" width="96" height="80" rx="8" ry="8" class="by"/><text x="625.3" y="2283.4" class="x">Windows <tspan x="612" dy="1.2em" class="y">Virtualization </tspan><tspan x="634.2" dy="1.2em" class="y">Rights</tspan></text></a><a target="_blank" href="https://learn.microsoft.com/windows-server/remote/remote-access/directaccess/directaccess"><rect x="832" y="1968" width="96" height="80" rx="8" ry="8" class="by"/><text x="838.8" y="2011.9" class="bo">DirectAccess</text></a><a target="_blank" href="https://learn.microsoft.com/windows-server/networking/branchcache/branchcache"><rect x="272" y="1968" width="96" height="80" rx="8" ry="8" class="by"/><text x="278.1" y="2011.9" class="bo">BranchCache</text></a><a target="_blank" href="https://learn.microsoft.com/microsoft-desktop-optimization-pack/"><rect x="496" y="2064" width="96" height="80" rx="8" ry="8" class="by"/><text x="523" y="2099.8" class="x">MDOP<tspan x="515.2" dy="1.2em" class="y">(retiring)</tspan></text></a><a target="_blank" href="https://learn.microsoft.com/windows/security/identity-protection/credential-guard/credential-guard"><rect x="496" y="1968" width="96" height="80" rx="8" ry="8" class="by"/><text x="509.8" y="2003.8" class="x">Credential <tspan x="523.4" dy="1.2em" class="y">Guard</tspan></text></a><a target="_blank" href="https://learn.microsoft.com/windows/deployment/update/waas-overview#long-term-servicing-channel"><rect x="272" y="2064" width="96" height="80" rx="8" ry="8" class="by"/><text x="283.8" y="2091.4" class="x">Long Term <tspan x="288.5" dy="1.2em" class="y">Servicing </tspan><tspan x="292.4" dy="1.2em" class="y">Channel</tspan></text></a><a target="_blank" href="https://learn.microsoft.com/windows-server/remote/remote-access/vpn/always-on-vpn/"><rect x="160" y="1872" width="96" height="80" rx="8" ry="8" class="by"/><text x="172.2" y="1907.8" class="x">Always On <tspan x="193.6" dy="1.2em" class="y">VPN</tspan></text></a><a target="_blank" href="https://learn.microsoft.com/universal-print/"><rect x="608" y="2160" width="96" height="80" rx="8" ry="8" class="bz"/><text x="624.5" y="2195.8" class="x">Universal <tspan x="640.1" dy="1.2em" class="y">Print</tspan></text></a><a target="_blank" href="https://learn.microsoft.com/fasttrack/products-and-capabilities#app-assure"><rect x="608" y="1872" width="96" height="80" rx="8" ry="8" class="by"/><text x="616.7" y="1916.2" class="x">App Assure</text></a><a target="_blank" href="https://learn.microsoft.com/windows/deployment/windows-autopilot/windows-autopilot"><rect x="832" y="2160" width="96" height="80" rx="8" ry="8" class="by"/><text x="849.3" y="2195.8" class="x">Windows <tspan x="849.3" dy="1.2em" class="y">Autopilot</tspan></text></a><a target="_blank" href="https://learn.microsoft.com/windows/security/information-protection/bitlocker/bitlocker-overview"><rect x="160" y="1968" width="96" height="80" rx="8" ry="8" class="by"/><text x="168.7" y="1995.4" class="x">BitLocker &amp; <tspan x="167.2" dy="1.2em" class="y">BitLocker to </tspan><tspan x="198.3" dy="1.2em" class="y">Go</tspan></text></a><a target="_blank" href="https://learn.microsoft.com/windows/security/threat-protection/windows-firewall/windows-firewall-with-advanced-security"><rect x="160" y="2256" width="96" height="80" rx="8" ry="8" class="by"/><text x="177.3" y="2291.8" class="x">Windows <tspan x="181.9" dy="1.2em" class="y">Firewall</tspan></text></a><a target="_blank" href="https://learn.microsoft.com/windows/security/threat-protection/windows-defender-application-control/windows-defender-application-control"><rect x="272" y="1872" width="96" height="80" rx="8" ry="8" class="by"/><text x="281.9" y="1907.8" class="x">Application <tspan x="295.1" dy="1.2em" class="y">Control</tspan></text></a><a target="_blank" href="https://learn.microsoft.com/windows-server/storage/refs/refs-overview"><rect x="160" y="2160" width="96" height="80" rx="8" ry="8" class="by"/><text x="164.8" y="2187.4" class="x">Resilient File <tspan x="183.1" dy="1.2em" class="y">System </tspan><tspan x="185.4" dy="1.2em" class="y">(ReFS)</tspan></text></a><a target="_blank" href="https://learn.microsoft.com/windows-server/storage/file-server/smb-direct"><rect x="272" y="2160" width="96" height="80" rx="8" ry="8" class="by"/><text x="282.7" y="2204.2" class="x">SMB Direct</text></a><a target="_blank" href="https://learn.microsoft.com/windows-hardware/customize/enterprise/unified-write-filter"><rect x="496" y="2160" width="96" height="80" rx="8" ry="8" class="by"/><text x="500.8" y="2195.8" class="x">Unified Write <tspan x="526.9" dy="1.2em" class="y">Filter</tspan></text></a><a target="_blank" href="https://learn.microsoft.com/windows-server/storage/storage-spaces/deploy-pmem"><rect x="832" y="2064" width="96" height="80" rx="8" ry="8" class="by"/><text x="846.2" y="2099.8" class="x">Persistent <tspan x="853.2" dy="1.2em" class="y">Memory</tspan></text></a><a target="_blank" href="https://learn.microsoft.com/windows/client-management/mdm/mdm-overview"><rect x="384" y="2064" width="96" height="80" rx="8" ry="8" class="by"/><text x="395.8" y="2099.8" class="x">Manage by <tspan x="415.3" dy="1.2em" class="y">MDM</tspan></text></a><a target="_blank" href="https://go.microsoft.com/fwlink/?linkid=2085130"><rect x="944" y="2064" width="96" height="80" rx="8" ry="8" class="by"/><text x="974" y="2086" class="bu">Power <tspan x="964.3" dy="1.2em" class="y">Automate </tspan><tspan x="966" dy="1.2em" class="y">Attended </tspan><tspan x="949.7" dy="1.2em" class="y">Desktop Flows</tspan></text></a><a target="_blank" href="https://learn.microsoft.com/windows/deployment/windows-autopatch/overview/windows-autopatch-overview"><rect x="720" y="2160" width="96" height="80" rx="8" ry="8" class="by"/><text x="737.3" y="2195.8" class="x">Windows <tspan x="733.4" dy="1.2em" class="y">Autopatch</tspan></text></a><a target="_blank" href="https://www.microsoft.com/edge/business"><rect x="944" y="1968" width="96" height="80" rx="8" ry="8" class="by"/><text x="963.6" y="2003.8" class="x">Edge for <tspan x="960.9" dy="1.2em" class="y">Business</tspan></text></a><a target="_blank" href="https://learn.microsoft.com/windows-hardware/customize/enterprise/custom-logon"><rect x="608" y="1968" width="96" height="80" rx="8" ry="8" class="by"/><text x="630" y="2003.8" class="x">Custom <tspan x="634.6" dy="1.2em" class="y">Logon</tspan></text></a><a target="_blank" href="https://learn.microsoft.com/windows-hardware/customize/enterprise/keyboardfilter"><rect x="160" y="2064" width="96" height="80" rx="8" ry="8" class="by"/><text x="175.7" y="2099.8" class="x">Keyboard <tspan x="190.9" dy="1.2em" class="y">Filter</tspan></text></a><a target="_blank" href="https://learn.microsoft.com/windows-hardware/customize/enterprise/shell-launcher"><rect x="720" y="1968" width="96" height="80" rx="8" ry="8" class="by"/><text x="742" y="2003.8" class="x">Custom <tspan x="751.3" dy="1.2em" class="y">Shell</tspan></text></a><a target="_blank" href="https://learn.microsoft.com/windows-hardware/customize/enterprise/unbranded-boot"><rect x="384" y="2160" width="96" height="80" rx="8" ry="8" class="by"/><text x="395.1" y="2195.8" class="x">Unbranded <tspan x="416.1" dy="1.2em" class="y">Boot</tspan></text></a><a target="_blank" href="https://learn.microsoft.com/windows/whats-new/windows-11-plan#servicing-and-support"><rect x="720" y="2256" width="96" height="80" rx="8" ry="8" class="by"/><text x="733" y="2283.4" class="x">36 months <tspan x="730.7" dy="1.2em" class="y">support for </tspan><tspan x="727.6" dy="1.2em" class="y">Windows 11</tspan></text></a><a target="_blank" href="https://learn.microsoft.com/windows/configuration/kiosk-single-app"><rect x="720" y="1872" width="96" height="80" rx="8" ry="8" class="by"/><text x="736.5" y="1907.8" class="x">Assigned <tspan x="743.5" dy="1.2em" class="y">Access</tspan></text></a><a target="_blank" href="https://powerapps.microsoft.com/"><rect x="400" y="928" width="96" height="80" rx="8" ry="8" class="bw"/><text x="407.6" y="955.4" class="x">Power Apps<tspan x="438.7" dy="1.2em" class="y">for </tspan><tspan x="414.5" dy="1.2em" class="y">Office 365</tspan></text></a><a target="_blank" href="https://powerautomate.microsoft.com/"><rect x="512" y="928" width="96" height="80" rx="8" ry="8" class="bw"/><text x="539" y="955.4" class="x">Power <tspan x="516.4" dy="1.2em" class="y">Automate for</tspan><tspan x="526.5" dy="1.2em" class="y">Office 365</tspan></text></a></svg>