<svg xmlns="http://www.w3.org/2000/svg" width="496" height="384" viewBox="0 0 496 384" class="a"><style>
.b {fill:#a5a5a5;fill-opacity:0.2;stroke:#303040;stroke-linecap:round;stroke-linejoin:round;stroke-width:2.2}
.c {fill:#303040;stroke:#303040;stroke-linecap:round;stroke-linejoin:round;stroke-width:2.2}
.d {fill:#ffffff;font-family:Arial;font-size:1.5em;font-weight:bold}
.e {fill:#7030a0;stroke:none;stroke-linecap:round;stroke-linejoin:round;stroke-width:0.5}
.f {fill:#ffffff;font-family:Arial;font-size:1.2em;font-weight:bold}
.g {font-size:1em}
.h {fill:#ffffff;font-family:Arial;font-size:1.1em;font-weight:bold}
.i {fill:none;stroke:none;stroke-linecap:round;stroke-linejoin:round;stroke-width:0.8}
.j {fill:#7f7f7f;font-family:Arial;font-size:1em}
.a {fill:none;fill-rule:evenodd;font-size:12px;overflow:visible;stroke-linecap:square;stroke-miterlimit:3}
</style><rect x="16" y="16" width="464" height="352" rx="8" ry="8" class="b"/><a target="_blank" href="https://learn.microsoft.com/microsoftteams/enhanced-teams-experience"><rect x="16" y="16" width="464" height="48" rx="8" ry="8" class="c"/><text x="93.5" y="45.4" class="d">Microsoft Teams Premium (preview)</text></a><a target="_blank" href="https://learn.microsoft.com/microsoftteams/custom-meeting-templates-overview"><rect x="256" y="80" width="96" height="80" rx="8" ry="8" class="e"/><text x="278" y="107.4" class="f">Custom <tspan x="277.6" dy="1.2em" class="g">Meeting </tspan><tspan x="269.4" dy="1.2em" class="g">Templates</tspan></text></a><a target="_blank" href="https://learn.microsoft.com/microsoftteams/meeting-themes"><rect x="368" y="176" width="96" height="80" rx="8" ry="8" class="e"/><text x="389.6" y="211.8" class="f">Meeting <tspan x="389.6" dy="1.2em" class="g">Themes</tspan></text></a><a target="_blank" href="https://techcommunity.microsoft.com/t5/microsoft-teams-blog/microsoft-teams-premium-preview-now-available/ba-p/3699262#captions"><rect x="144" y="176" width="96" height="80" rx="8" ry="8" class="e"/><text x="150" y="211.8" class="f">Live Caption <tspan x="154.3" dy="1.2em" class="g">Translation</tspan></text></a><a target="_blank" href="https://learn.microsoft.com/microsoftteams/enhanced-teams-experience#advanced-virtual-appointments"><rect x="32" y="80" width="96" height="80" rx="8" ry="8" class="e"/><text x="48.9" y="108.3" class="h">Advanced <tspan x="59.8" dy="1.2em" class="g">Virtual </tspan><tspan x="36.3" dy="1.2em" class="g">Appointments</tspan></text></a><a target="_blank" href="https://learn.microsoft.com/microsoftteams/end-to-end-encrypted-meetings"><rect x="368" y="80" width="96" height="80" rx="8" ry="8" class="e"/><text x="376.3" y="115.8" class="f">End-To-End <tspan x="379.4" dy="1.2em" class="g">Encryption</tspan></text></a><a target="_blank" href="https://learn.microsoft.com/microsoftteams/configure-meetings-three-tiers-protection"><rect x="256" y="176" width="96" height="80" rx="8" ry="8" class="e"/><text x="277.6" y="203.4" class="f">Meeting <tspan x="269" dy="1.2em" class="g">Sensitivity </tspan><tspan x="281.8" dy="1.2em" class="g">Labels</tspan></text></a><a target="_blank" href="https://m365maps.com/"><rect y="368" width="496" height="16" class="i"/><text x="406.6" y="379.6" class="j">m365maps.com</text></a><a target="_blank" href="https://learn.microsoft.com/microsoftteams/enhanced-teams-experience#premium-events"><rect x="256" y="272" width="96" height="80" rx="8" ry="8" class="e"/><text x="274" y="307.8" class="f">Premium <tspan x="281" dy="1.2em" class="g">Events</tspan></text></a><a target="_blank" href="https://learn.microsoft.com/microsoftteams/watermark-meeting-content-video"><rect x="32" y="272" width="96" height="80" rx="8" ry="8" class="e"/><text x="53.6" y="307.8" class="f">Meeting <tspan x="39.9" dy="1.2em" class="g">Watermarks</tspan></text></a><a target="_blank" href="https://techcommunity.microsoft.com/t5/microsoft-teams-blog/microsoft-teams-premium-preview-now-available/ba-p/3699262#recap"><rect x="32" y="176" width="96" height="80" rx="8" ry="8" class="e"/><text x="46.9" y="211.8" class="f">Intelligent <tspan x="59" dy="1.2em" class="g">Recap</tspan></text></a><a target="_blank" href="https://learn.microsoft.com/microsoftteams/custom-meeting-backgrounds"><rect x="144" y="80" width="96" height="80" rx="8" ry="8" class="e"/><text x="167.8" y="108.3" class="h">Custom <tspan x="167.4" dy="1.2em" class="g">Meeting </tspan><tspan x="150.5" dy="1.2em" class="g">Backgrounds</tspan></text></a><a target="_blank" href="https://learn.microsoft.com/ecdn/how-to/enable-microsoft-ecdn-for-your-tenant"><rect x="144" y="272" width="96" height="80" rx="8" ry="8" class="e"/><text x="160.5" y="307.8" class="f">Microsoft <tspan x="172.9" dy="1.2em" class="g">eCDN</tspan></text></a></svg>