<svg xmlns="http://www.w3.org/2000/svg" width="672" height="736" viewBox="0 0 672 736" class="a"><style>
.b {fill:#a5a5a5;fill-opacity:0.2;stroke:#002070;stroke-linecap:round;stroke-linejoin:round;stroke-width:2.2}
.c {fill:#a5a5a5;fill-opacity:0.2;stroke:#0040a0;stroke-dasharray:15.8,11.2;stroke-linecap:round;stroke-linejoin:round;stroke-width:2.2}
.d {fill:#a6a6a6;fill-opacity:0.2;stroke:#0070f7;stroke-dasharray:2.2,4.5;stroke-linecap:round;stroke-linejoin:round;stroke-width:2.2}
.e {fill:#0040a0;stroke:#0040a0;stroke-linecap:round;stroke-linejoin:round;stroke-width:2.2}
.f {fill:#ffffff;font-family:Arial;font-size:1.5em;font-weight:bold}
.g {fill:#002070;stroke:#002070;stroke-linecap:round;stroke-linejoin:round;stroke-width:2.2}
.h {fill:#0070f7;stroke:#0070f7;stroke-linecap:round;stroke-linejoin:round;stroke-width:2.2}
.i {fill:#0070f7;stroke:none;stroke-linecap:round;stroke-linejoin:round;stroke-width:2.5}
.j {fill:#ffffff;font-family:Arial;font-size:1.2em;font-weight:bold}
.k {font-size:1em}
.l {fill:#0040a0;stroke:none;stroke-linecap:round;stroke-linejoin:round;stroke-width:2.5}
.m {fill:#002070;stroke:none;stroke-linecap:round;stroke-linejoin:round;stroke-width:2.5}
.n {fill:#0040a0;stroke:none;stroke-linecap:round;stroke-linejoin:round;stroke-width:1}
.o {font-size:0.9em}
.p {fill:none;stroke:none;stroke-linecap:round;stroke-linejoin:round;stroke-width:0.8}
.q {fill:#7f7f7f;font-family:Arial;font-size:1em}
.a {fill:none;fill-rule:evenodd;font-size:12px;overflow:visible;stroke-linecap:square;stroke-miterlimit:3}
</style><rect x="16" y="16" width="640" height="704" rx="8" ry="8" class="b"/><rect x="32" y="176" width="608" height="528" rx="8" ry="8" class="c"/><rect x="48" y="336" width="576" height="352" rx="8" ry="8" class="d"/><a target="_blank" href="https://www.microsoft.com/microsoft-365/visio/visio-plan-1"><rect x="32" y="176" width="608" height="48" rx="8" ry="8" class="e"/><text x="285.5" y="205.4" class="f">Visio Plan 1</text></a><a target="_blank" href="https://www.microsoft.com/microsoft-365/visio/visio-plan-2"><rect x="16" y="16" width="640" height="48" rx="8" ry="8" class="g"/><text x="285.5" y="45.4" class="f">Visio Plan 2</text></a><a target="_blank" href="https://support.microsoft.com/office/e6647040-2fca-42ec-9fa5-d16a4e39e0ee"><rect x="48" y="336" width="576" height="48" rx="8" ry="8" class="h"/><text x="243.5" y="365.4" class="f">Visio in Microsoft 365</text></a><a target="_blank" href="https://support.microsoft.com/office/a89d509c-a03c-4e9f-b878-3b65fce90ca9#bm5"><rect x="512" y="497.8" width="96" height="80" rx="8" ry="8" class="i"/><text x="532.4" y="533.6" class="j">Pyramid <tspan x="528.1" dy="1.2em" class="k">Diagrams</tspan></text></a><a target="_blank" href="https://support.microsoft.com/office/e207d975-4a51-4bfa-a356-eeec314bd276"><rect x="174.2" y="400" width="96" height="80" rx="8" ry="8" class="i"/><text x="203.5" y="435.8" class="j">Basic <tspan x="185.2" dy="1.2em" class="k">Flowcharts</tspan></text></a><a target="_blank" href="https://support.microsoft.com/office/f7e11f20-45d9-4c31-92c9-16a87a6b6fee"><rect x="288" y="400" width="96" height="80" rx="8" ry="8" class="i"/><text x="316.9" y="435.8" class="j">Block <tspan x="304.1" dy="1.2em" class="k">Diagrams</tspan></text></a><a target="_blank" href="https://support.microsoft.com/office/f064cd25-d7d5-47b8-87e1-ecb3c39cc165"><rect x="400" y="497.8" width="96" height="80" rx="8" ry="8" class="i"/><text x="420.8" y="533.6" class="j">Process <tspan x="416.1" dy="1.2em" class="k">Diagrams</tspan></text></a><a target="_blank" href="https://support.microsoft.com/office/a89d509c-a03c-4e9f-b878-3b65fce90ca9#bm4"><rect x="400" y="400" width="96" height="80" rx="8" ry="8" class="i"/><text x="416.9" y="427.4" class="j">Business <tspan x="427.4" dy="1.2em" class="k">Matrix </tspan><tspan x="416.1" dy="1.2em" class="k">Diagrams</tspan></text></a><a target="_blank" href="https://support.microsoft.com/office/413c0b5a-0d52-4ace-af85-8b9bf115bbbf#OfficeVersion=Web"><rect x="512" y="400" width="96" height="80" rx="8" ry="8" class="i"/><text x="516.1" y="427.4" class="j">Co-authoring <tspan x="547.6" dy="1.2em" class="k">and </tspan><tspan x="517.2" dy="1.2em" class="k">Commenting</tspan></text></a><a target="_blank" href="https://support.microsoft.com/office/453ca3a8-3ae8-437b-88c7-38cd44e55d28"><rect x="64" y="400" width="96" height="80" rx="8" ry="8" class="i"/><text x="93.3" y="435.8" class="j">Basic <tspan x="80.1" dy="1.2em" class="k">Diagrams</tspan></text></a><a target="_blank" href="https://support.microsoft.com/office/a3b38418-35e7-4df4-8e4a-ba6a4fa0562a"><rect x="64" y="592" width="96" height="80" rx="8" ry="8" class="i"/><text x="80.1" y="611" class="j">Unlimited <tspan x="85.9" dy="1.2em" class="k">shapes, </tspan><tspan x="75.4" dy="1.2em" class="k">pages, and </tspan><tspan x="74.7" dy="1.2em" class="k">documents</tspan></text></a><a target="_blank" href="https://support.microsoft.com/office/f2020ce6-c20f-4342-84f7-bf4e7488843a"><rect x="176" y="240" width="96" height="80" rx="8" ry="8" class="l"/><text x="196.4" y="275.8" class="j">Network <tspan x="192.1" dy="1.2em" class="k">Diagrams</tspan></text></a><a target="_blank" href="https://support.microsoft.com/office/efbb25e7-c80e-42e1-b1ad-7ef630ff01b7"><rect x="64" y="240" width="96" height="80" rx="8" ry="8" class="l"/><text x="78.2" y="267.4" class="j">Azure and <tspan x="95.7" dy="1.2em" class="k">AWS </tspan><tspan x="80.1" dy="1.2em" class="k">Diagrams</tspan></text></a><a target="_blank" href="https://support.microsoft.com/office/4a403033-9787-454f-b87e-b88452c47a21"><rect x="288" y="240" width="96" height="80" rx="8" ry="8" class="l"/><text x="313.8" y="267.4" class="j">Cross-<tspan x="302.6" dy="1.2em" class="k">functional </tspan><tspan x="299" dy="1.2em" class="k">Flowcharts</tspan></text></a><a target="_blank" href="https://support.microsoft.com/office/ca4e3ae9-d413-4c94-8a7a-38dac30cbed6#OfficeVersion=Web"><rect x="512" y="240" width="96" height="80" rx="8" ry="8" class="l"/><text x="525" y="267.4" class="j">SDL, UML, <tspan x="530.8" dy="1.2em" class="k">and EDR </tspan><tspan x="528.1" dy="1.2em" class="k">Diagrams</tspan></text></a><a target="_blank" href="https://support.microsoft.com/office/fa9b7a59-3099-4637-820c-1b41b24fc2a7"><rect x="176" y="496" width="96" height="80" rx="8" ry="8" class="i"/><text x="205.3" y="531.8" class="j">Cycle <tspan x="192.1" dy="1.2em" class="k">Diagrams</tspan></text></a><a target="_blank" href="https://support.microsoft.com/office/06f04845-91b8-4e8f-881f-a43c970735fc"><rect x="64" y="496" width="96" height="80" rx="8" ry="8" class="i"/><text x="68" y="531.8" class="j">Create &amp; Edit <tspan x="80.1" dy="1.2em" class="k">Diagrams</tspan></text></a><a target="_blank" href="https://support.microsoft.com/office/ec17da08-64aa-4ead-9b9b-35e821645791"><rect x="174.2" y="80" width="96" height="80" rx="8" ry="8" class="m"/><text x="189.9" y="115.8" class="j">Maps and <tspan x="184.1" dy="1.2em" class="k">Floor Plans</tspan></text></a><a target="_blank" href="https://support.microsoft.com/office/fff03563-1df0-4586-b753-2970b1f81bfa"><rect x="288" y="80" width="96" height="80" rx="8" ry="8" class="m"/><text x="308.8" y="107.4" class="j">Process <tspan x="315.8" dy="1.2em" class="k">Model </tspan><tspan x="299" dy="1.2em" class="k">Flowcharts</tspan></text></a><a target="_blank" href="https://support.microsoft.com/office/49902c25-587d-4b81-98f3-124485bf8083"><rect x="400" y="80" width="96" height="80" rx="8" ry="8" class="m"/><text x="416.9" y="115.8" class="j">Schedule <tspan x="416.1" dy="1.2em" class="k">Diagrams</tspan></text></a><a target="_blank" href="https://support.microsoft.com/office/447d65f4-79a3-411d-811d-bfdea7f83e2d"><rect x="176" y="592" width="96" height="80" rx="8" ry="8" class="i"/><text x="206.9" y="627.8" class="j">Venn <tspan x="192.1" dy="1.2em" class="k">Diagrams</tspan></text></a><a target="_blank" href="https://support.microsoft.com/office/fa9b7a59-3099-4637-820c-1b41b24fc2a7#ID0EAABAAA=BusinessChartsTab&amp;ID0EBD=businesschartstab"><rect x="64" y="80" width="96" height="80" rx="8" ry="8" class="m"/><text x="80.9" y="115.8" class="j">Business <tspan x="80.1" dy="1.2em" class="k">Diagrams</tspan></text></a><a target="_blank" href="https://support.microsoft.com/topic/9b200289-dbac-4823-85bd-628a5c7bb0ae"><rect x="288" y="496" width="96" height="80" rx="8" ry="8" class="i"/><text x="304.5" y="523.4" class="j">Microsoft <tspan x="313.8" dy="1.2em" class="k">Teams </tspan><tspan x="299.8" dy="1.2em" class="k">Integration</tspan></text></a><a target="_blank" href="https://support.microsoft.com/office/f98f21e3-aa02-4827-9167-ddab5b025710"><rect x="512" y="80" width="96" height="80" rx="8" ry="8" class="m"/><text x="516.4" y="115.8" class="j">Visio App for <tspan x="529.3" dy="1.2em" class="k">Windows</tspan></text></a><a target="_blank" href="https://learn.microsoft.com/office365/servicedescriptions/onedrive-for-business-service-description"><rect x="400" y="240" width="96" height="80" rx="8" ry="8" class="n"/><text x="405.6" y="267.4" class="j">OneDrive for <tspan x="416.9" dy="1.2em" class="k">Business </tspan><tspan x="428.5" dy="1.3em" class="o">(2 GB)</tspan></text></a><a target="_blank" href="https://m365maps.com/"><rect y="720" width="672" height="16" class="p"/><text x="582.6" y="731.6" class="q">m365maps.com</text></a></svg>