<svg xmlns="http://www.w3.org/2000/svg" width="1792" height="1184" viewBox="0 0 1792 1184" class="a"><style>
.b {fill:#a5a5a5;fill-opacity:0.2;stroke:#9248c8;stroke-linecap:round;stroke-linejoin:round;stroke-width:2.2}
.c {fill:#a5a5a5;fill-opacity:0.2;stroke:#431d5f;stroke-linecap:round;stroke-linejoin:round;stroke-width:2.2}
.d {fill:#a5a5a5;fill-opacity:0.2;stroke:#2080a0;stroke-dasharray:33.8,20.2;stroke-linecap:round;stroke-linejoin:round;stroke-width:2.2}
.e {fill:#a5a5a5;fill-opacity:0.2;stroke:#105868;stroke-linecap:round;stroke-linejoin:round;stroke-width:2.2}
.f {fill:#a5a5a5;fill-opacity:0.2;stroke:#e82200;stroke-dasharray:33.8,20.2;stroke-linecap:round;stroke-linejoin:round;stroke-width:2.2}
.g {fill:#a5a5a5;fill-opacity:0.2;stroke:#d04a00;stroke-linecap:round;stroke-linejoin:round;stroke-width:2.2}
.h {fill:#a5a5a5;fill-opacity:0.2;stroke:#e82200;stroke-linecap:round;stroke-linejoin:round;stroke-width:2.2}
.i {fill:#a5a5a5;fill-opacity:0.2;stroke:#2080a0;stroke-linecap:round;stroke-linejoin:round;stroke-width:2.2}
.j {fill:#a5a5a5;fill-opacity:0.2;stroke:#303040;stroke-linecap:round;stroke-linejoin:round;stroke-width:2.2}
.k {fill:#a5a5a5;fill-opacity:0.2;stroke:#006600;stroke-dasharray:33.8,20.2;stroke-linecap:round;stroke-linejoin:round;stroke-width:2.2}
.l {fill:#431d5f;stroke:#431d5f;stroke-linecap:round;stroke-linejoin:round;stroke-width:2.2}
.m {fill:#ffffff;font-family:Arial;font-size:1.7em;font-weight:bold}
.n {fill:#105868;stroke:#105868;stroke-linecap:round;stroke-linejoin:round;stroke-width:2.2}
.o {fill:#ffffff;font-family:Arial;font-size:1.5em;font-weight:bold}
.p {fill:#2080a0;stroke:#2080a0;stroke-linecap:round;stroke-linejoin:round;stroke-width:2.2}
.q {fill:#006600;stroke:#006600;stroke-linecap:round;stroke-linejoin:round;stroke-width:2.2}
.r {fill:#e82200;stroke:#e82200;stroke-linecap:round;stroke-linejoin:round;stroke-width:2.2}
.s {fill:none;stroke:none;stroke-linecap:round;stroke-linejoin:round;stroke-width:1}
.t {fill:#0070f7;font-family:Arial;font-size:4em;font-weight:bold}
.u {fill:#0070f7;font-family:Arial;font-size:2.5em;font-weight:bold}
.v {fill:#0070f7;font-family:Arial;font-size:1.5em;font-weight:bold}
.w {fill:#105868;stroke:none;stroke-linecap:round;stroke-linejoin:round;stroke-width:1}
.x {fill:#ffffff;font-family:Arial;font-size:1.2em;font-weight:bold}
.y {font-size:1em}
.z {fill:#303040;stroke:#303040;stroke-linecap:round;stroke-linejoin:round;stroke-width:2.2}
.ba {fill:#ffffff;font-family:Arial;font-size:1.3em;font-weight:bold}
.bb {fill:#0050c0;stroke:none;stroke-linecap:round;stroke-linejoin:round;stroke-width:1}
.bc {fill:#2080a0;stroke:none;stroke-linecap:round;stroke-linejoin:round;stroke-width:1}
.bd {font-size:0.9em}
.be {fill:#e82200;stroke:none;stroke-linecap:round;stroke-linejoin:round;stroke-width:1}
.bf {fill:#7030a0;stroke:#7030a0;stroke-linecap:round;stroke-linejoin:round;stroke-width:2.2}
.bg {fill:#d04a00;stroke:none;stroke-linecap:round;stroke-linejoin:round;stroke-width:1}
.bh {fill:#006600;stroke:none;stroke-linecap:round;stroke-linejoin:round;stroke-width:1}
.bi {fill:#d04a00;stroke:#d04a00;stroke-linecap:round;stroke-linejoin:round;stroke-width:2.2}
.bj {fill:#a5a5a5;fill-opacity:0.2;stroke:#303040;stroke-dasharray:15.8,11.2;stroke-linecap:round;stroke-linejoin:round;stroke-width:2.2}
.bk {fill:#000000;font-family:Arial;font-size:1.5em}
.bl {fill:#907000;stroke:none;stroke-linecap:round;stroke-linejoin:round;stroke-width:1}
.bm {fill:#e00080;stroke:none;stroke-linecap:round;stroke-linejoin:round;stroke-width:1}
.a {fill:none;fill-rule:evenodd;font-size:12px;overflow:visible;stroke-linecap:square;stroke-miterlimit:3}
</style><rect x="112" y="176" width="608" height="960" rx="8" ry="8" class="b"/><rect x="1040" y="176" width="640" height="960" rx="8" ry="8" class="c"/><rect x="16" y="672" width="1760" height="192" rx="8" ry="8" class="d"/><rect x="1056" y="688" width="576" height="160" rx="8" ry="8" class="e"/><rect x="16" y="384" width="1760" height="256" rx="8" ry="8" class="f"/><rect x="1056" y="400" width="608" height="224" rx="8" ry="8" class="g"/><rect x="128" y="416" width="464" height="160" rx="8" ry="8" class="h"/><rect x="128" y="686.8" width="352" height="160" rx="8" ry="8" class="i"/><rect x="768" y="304" width="224" height="816" rx="8" ry="8" class="j"/><rect x="16" y="896" width="1760" height="144" rx="8" ry="8" class="k"/><g><rect x="1040" y="176" width="640" height="64" rx="8" ry="8" class="l"/><text x="1182.2" y="214" class="m">Microsoft 365 A5 Student Use Benefit</text></g><g><rect x="1056" y="800" width="576" height="48" rx="8" ry="8" class="n"/><text x="1222.5" y="829.4" class="o">EMS A5 Student Use Benefit</text></g><a target="_blank" href="https://www.microsoft.com/cloud-platform/enterprise-mobility-security" transform="translate(-1104,864) rotate(-90)"><rect y="1120" width="192" height="64" rx="8" ry="8" class="p"/><text x="74.3" y="1158" class="m">EMS</text></a><a target="_blank" href="https://www.microsoft.com/microsoft-365/windows/windows-11-enterprise" transform="translate(-1104,1040) rotate(-90)"><rect y="1120" width="144" height="64" rx="8" ry="8" class="q"/><text x="28.1" y="1158" class="m">Windows</text></a><a target="_blank" href="https://learn.microsoft.com/office365/servicedescriptions/office-365-platform-service-description/office-365-education" transform="translate(-1104,640) rotate(-90)"><rect y="1120" width="256" height="64" rx="8" ry="8" class="r"/><text x="80.2" y="1158" class="m">Office 365</text></a><a target="_blank" href="https://m365maps.com/"><rect x="16" y="16" width="1760" height="64" rx="8" ry="8" class="s"/><text x="362.6" y="62.4" class="t">Microsoft 365 Education: Student Use Benefits</text></a><g><rect x="16" y="80" width="1760" height="32" rx="8" ry="8" class="s"/><text x="800.9" y="105" class="u">January 2023</text></g><a target="_blank" href="https://m365maps.com/"><rect x="16" y="112" width="1760" height="32" rx="8" ry="8" class="s"/><text x="828.5" y="133.4" class="v">m365maps.com</text></a><a target="_blank" href="https://learn.microsoft.com/defender-for-identity/what-is"><rect x="1408" y="704" width="96" height="80" rx="8" ry="8" class="w"/><text x="1414.4" y="739.8" class="x">Defender for <tspan x="1431.1" dy="1.2em" class="y">Identity</tspan></text></a><a target="_blank" href="https://learn.microsoft.com/cloud-app-security/what-is-cloud-app-security"><rect x="1296" y="704" width="96" height="80" rx="8" ry="8" class="w"/><text x="1302.4" y="739.8" class="x">Defender for <tspan x="1304.7" dy="1.2em" class="y">Cloud Apps</tspan></text></a><g><rect x="768" y="304" width="224" height="48" rx="8" ry="8" class="z"/><text x="782.2" y="323.2" class="ba">Microsoft 365 A5 Security <tspan x="804" dy="1.2em" class="y">Student Use Benefit</tspan></text></g><g><rect x="768" y="1072" width="224" height="48" rx="8" ry="8" class="z"/><text x="782.2" y="1091.2" class="ba">Microsoft 365 A5 Security <tspan x="804" dy="1.2em" class="y">Student Use Benefit</tspan></text></g><a target="_blank" href="https://azure.microsoft.com/pricing/details/active-directory/"><rect x="832" y="704" width="96" height="80" rx="8" ry="8" class="bb"/><text x="848.5" y="731.4" class="x">Azure AD <tspan x="850" dy="1.2em" class="y">Premium </tspan><tspan x="859.4" dy="1.2em" class="y">Plan 2</tspan></text></a><a target="_blank" href="https://www.microsoft.com/licensing/terms/product/StudentUseBenefitsandAcademicPrograms/all"><rect x="16" y="1136" width="1760" height="32" rx="8" ry="8" class="s"/><text x="418.5" y="1157.4" class="v">Refer to the Microsoft Product Terms for more information, including program eligibility and staff/student ratios</text></a><a target="_blank" href="https://learn.microsoft.com/intune-education/what-is-intune-for-education"><rect x="368" y="704" width="96" height="80" rx="8" ry="8" class="bc"/><text x="383.7" y="739.8" class="x">Intune for <tspan x="382.2" dy="1.2em" class="y">Education</tspan></text></a><a target="_blank" href="https://azure.microsoft.com/pricing/details/active-directory/"><rect x="256" y="704" width="96" height="80" rx="8" ry="8" class="bc"/><text x="272.5" y="731.4" class="x">Azure AD <tspan x="274" dy="1.2em" class="y">Premium </tspan><tspan x="283.4" dy="1.2em" class="y">Plan 1</tspan></text></a><a target="_blank" href="https://learn.microsoft.com/advanced-threat-analytics/"><rect x="144" y="704" width="96" height="80" rx="8" ry="8" class="bc"/><text x="158.6" y="723" class="x">Advanced <tspan x="170.6" dy="1.2em" class="y">Threat </tspan><tspan x="160.9" dy="1.2em" class="y">Analytics </tspan><tspan x="165.3" dy="1.3em" class="bd">(retiring)</tspan></text></a><a target="_blank" href="https://learn.microsoft.com/cloud-app-security/editions-cloud-app-security-o365"><rect x="480" y="432" width="96" height="80" rx="8" ry="8" class="be"/><text x="494.5" y="459.4" class="x">Office 365 <tspan x="492.6" dy="1.2em" class="y">Cloud App </tspan><tspan x="500.4" dy="1.2em" class="y">Security</tspan></text></a><a target="_blank" href="https://www.microsoft.com/microsoft-365/business/microsoft-365-apps-for-enterprise-product"><rect x="256" y="432" width="96" height="80" rx="8" ry="8" class="be"/><text x="272.5" y="459.4" class="x">Microsoft <tspan x="261.6" dy="1.2em" class="y">365 Apps for </tspan><tspan x="270.2" dy="1.2em" class="y">Education</tspan></text></a><g><rect x="128" y="800" width="352" height="48" rx="8" ry="8" class="p"/><text x="182.5" y="829.4" class="o">EMS A3 Student Use Benefit</text></g><g><rect x="128" y="528" width="464" height="48" rx="8" ry="8" class="r"/><text x="215" y="557.4" class="o">Office 365 A3 Student Use Benefit</text></g><g><rect x="112" y="176" width="608" height="64" rx="8" ry="8" class="bf"/><text x="238.2" y="214" class="m">Microsoft 365 A3 Student Use Benefit</text></g><a target="_blank" href="https://learn.microsoft.com/office365/servicedescriptions/office-365-advanced-threat-protection-service-description#feature-availability-across-advanced-threat-protection-atp-plans"><rect x="1552" y="432" width="96" height="80" rx="8" ry="8" class="bg"/><text x="1558.4" y="459.4" class="x">Defender for <tspan x="1566.5" dy="1.2em" class="y">Office 365 </tspan><tspan x="1579.4" dy="1.2em" class="y">Plan 2</tspan></text></a><a target="_blank" href="https://learn.microsoft.com/office365/servicedescriptions/office-365-advanced-threat-protection-service-description#feature-availability-across-advanced-threat-protection-atp-plans"><rect x="832" y="432" width="96" height="80" rx="8" ry="8" class="bg"/><text x="838.4" y="459.4" class="x">Defender for <tspan x="846.5" dy="1.2em" class="y">Office 365 </tspan><tspan x="859.4" dy="1.2em" class="y">Plan 1</tspan></text></a><a target="_blank" href="https://learn.microsoft.com/education/windows/windows-editions-for-education-customers"><rect x="1072" y="928" width="96" height="80" rx="8" ry="8" class="bh"/><text x="1078.4" y="972.2" class="x">Windows A3</text></a><a target="_blank" href="https://learn.microsoft.com/intune-education/what-is-intune-for-education"><rect x="1520" y="704" width="96" height="80" rx="8" ry="8" class="bc"/><text x="1535.7" y="739.8" class="x">Intune for <tspan x="1534.2" dy="1.2em" class="y">Education</tspan></text></a><a target="_blank" href="https://learn.microsoft.com/advanced-threat-analytics/"><rect x="1072" y="704" width="96" height="80" rx="8" ry="8" class="bc"/><text x="1086.6" y="723" class="x">Advanced <tspan x="1098.6" dy="1.2em" class="y">Threat </tspan><tspan x="1088.9" dy="1.2em" class="y">Analytics </tspan><tspan x="1091.2" dy="1.2em" class="y">(retiring)</tspan></text></a><g><rect x="1056" y="576" width="608" height="48" rx="8" ry="8" class="bi"/><text x="1215" y="605.4" class="o">Office 365 A5 Student Use Benefit</text></g><a target="_blank" href="https://azure.microsoft.com/pricing/details/active-directory/"><rect x="1184" y="704" width="96" height="80" rx="8" ry="8" class="bb"/><text x="1200.5" y="731.4" class="x">Azure AD <tspan x="1202" dy="1.2em" class="y">Premium </tspan><tspan x="1211.4" dy="1.2em" class="y">Plan 2</tspan></text></a><a target="_blank" href="https://www.microsoft.com/education/products/office"><rect x="368" y="432" width="96" height="80" rx="8" ry="8" class="be"/><text x="382.5" y="467.8" class="x">Office 365 <tspan x="407" dy="1.2em" class="y">A1</tspan></text></a><a target="_blank" href="https://learn.microsoft.com/education/windows/windows-editions-for-education-customers"><rect x="144" y="928" width="96" height="80" rx="8" ry="8" class="bh"/><text x="150.4" y="972.2" class="x">Windows A3</text></a><a target="_blank" href="https://www.microsoft.com/cloud-platform/enterprise-mobility-security" transform="translate(592,864) rotate(-90)"><rect y="1120" width="192" height="64" rx="8" ry="8" class="p"/><text x="74.3" y="1158" class="m">EMS</text></a><a target="_blank" href="https://www.microsoft.com/microsoft-365/windows/windows-11-enterprise" transform="translate(592,1040) rotate(-90)"><rect y="1120" width="144" height="64" rx="8" ry="8" class="q"/><text x="28.1" y="1158" class="m">Windows</text></a><a target="_blank" href="https://learn.microsoft.com/office365/servicedescriptions/office-365-platform-service-description/office-365-education" transform="translate(592,640) rotate(-90)"><rect y="1120" width="256" height="64" rx="8" ry="8" class="r"/><text x="80.2" y="1158" class="m">Office 365</text></a><g><rect x="1040" y="1072" width="640" height="64" rx="8" ry="8" class="l"/><text x="1182.2" y="1110" class="m">Microsoft 365 A5 Student Use Benefit</text></g><g><rect x="112" y="1072" width="608" height="64" rx="8" ry="8" class="bf"/><text x="238.2" y="1110" class="m">Microsoft 365 A3 Student Use Benefit</text></g><g><rect x="768" y="192" width="224" height="96" rx="8" ry="8" class="bj"/><text x="812.5" y="223.8" class="bk">Microsoft 365 A5 <tspan x="803" dy="1.2em" class="y">Compliance has no </tspan><tspan x="800" dy="1.2em" class="y">Student Use Benefit</tspan></text></g><a target="_blank" href="https://education.minecraft.net/homepage"><rect x="144" y="272" width="96" height="80" rx="8" ry="8" class="bl"/><text x="160.9" y="299.4" class="x">Minecraft <tspan x="158.2" dy="1.2em" class="y">Education </tspan><tspan x="168.3" dy="1.2em" class="y">Edition</tspan></text></a><a target="_blank" href="https://education.minecraft.net/homepage"><rect x="1072" y="272" width="96" height="80" rx="8" ry="8" class="bl"/><text x="1088.9" y="299.4" class="x">Minecraft <tspan x="1086.2" dy="1.2em" class="y">Education </tspan><tspan x="1096.3" dy="1.2em" class="y">Edition</tspan></text></a><g><rect x="368" y="272" width="320" height="80" rx="8" ry="8" class="bj"/><text x="377.9" y="295.8" class="bk">Microsoft 365 A3 Student Use Benefit <tspan x="462.4" dy="1.2em" class="y">does not include </tspan><tspan x="411.9" dy="1.2em" class="y">Defender for Endpoint Plan 1</tspan></text></g><g><rect x="1184" y="928" width="464" height="80" rx="8" ry="8" class="bj"/><text x="1225.9" y="951.8" class="bk">Microsoft 365 A5 and Microsoft 365 A5 Security<tspan x="1272.9" dy="1.2em" class="y">Student Use Benefits do not include </tspan><tspan x="1299.9" dy="1.2em" class="y">Defender for Endpoint Plan 2</tspan></text></g><a target="_blank" href="https://learn.microsoft.com/microsoft-365/bookings/bookings-overview"><rect x="144" y="432" width="96" height="80" rx="8" ry="8" class="be"/><text x="160.1" y="476.2" class="x">Bookings</text></a><rect x="1072" y="416" width="464" height="144" rx="8" ry="8" class="h"/><a target="_blank" href="https://learn.microsoft.com/cloud-app-security/editions-cloud-app-security-o365"><rect x="1424" y="432" width="96" height="80" rx="8" ry="8" class="be"/><text x="1438.5" y="459.4" class="x">Office 365 <tspan x="1436.6" dy="1.2em" class="y">Cloud App </tspan><tspan x="1444.4" dy="1.2em" class="y">Security</tspan></text></a><a target="_blank" href="https://www.microsoft.com/microsoft-365/business/microsoft-365-apps-for-enterprise-product"><rect x="1200" y="432" width="96" height="80" rx="8" ry="8" class="be"/><text x="1216.5" y="459.4" class="x">Microsoft <tspan x="1205.6" dy="1.2em" class="y">365 Apps for </tspan><tspan x="1214.2" dy="1.2em" class="y">Education</tspan></text></a><g><rect x="1072" y="528" width="464" height="32" rx="8" ry="8" class="r"/><text x="1175.1" y="548.8" class="ba">Office 365 A3 Student Use Benefit</text></g><a target="_blank" href="https://www.microsoft.com/education/products/office"><rect x="1312" y="432" width="96" height="80" rx="8" ry="8" class="be"/><text x="1326.5" y="467.8" class="x">Office 365 <tspan x="1351" dy="1.2em" class="y">A1</tspan></text></a><a target="_blank" href="https://learn.microsoft.com/microsoft-365/bookings/bookings-overview"><rect x="1088" y="432" width="96" height="80" rx="8" ry="8" class="be"/><text x="1104.1" y="476.2" class="x">Bookings</text></a><a target="_blank" href="https://learn.microsoft.com/mem/intune/remote-actions/remote-help"><rect x="1184" y="272" width="96" height="80" rx="8" ry="8" class="bm"/><text x="1206.3" y="307.8" class="x">Remote  <tspan x="1216.8" dy="1.2em" class="y">Help</tspan></text></a><a target="_blank" href="https://learn.microsoft.com/mem/intune/remote-actions/remote-help"><rect x="256" y="272" width="96" height="80" rx="8" ry="8" class="bm"/><text x="278.3" y="307.8" class="x">Remote  <tspan x="288.8" dy="1.2em" class="y">Help</tspan></text></a></svg>