<svg xmlns="http://www.w3.org/2000/svg" width="416" height="528" viewBox="0 0 416 528" class="a"><style>
.b {fill:#a5a5a5;fill-opacity:0.2;stroke:#d04a00;stroke-linecap:round;stroke-linejoin:round;stroke-width:2.2}
.c {fill:#d04a00;stroke:#d04a00;stroke-linecap:round;stroke-linejoin:round;stroke-width:2.2}
.d {fill:#ffffff;font-family:Arial;font-size:1.5em;font-weight:bold}
.e {fill:#d04a00;stroke:none;stroke-linecap:round;stroke-linejoin:round;stroke-width:1}
.f {fill:#ffffff;font-family:Arial;font-size:1.2em;font-weight:bold}
.g {font-size:1em}
.h {fill:#ffffff;font-family:Arial;font-size:1.1em;font-weight:bold}
.i {fill:none;stroke:none;stroke-linecap:round;stroke-linejoin:round;stroke-width:0.8}
.j {fill:#7f7f7f;font-family:Arial;font-size:1em}
.a {fill:none;fill-rule:evenodd;font-size:12px;overflow:visible;stroke-linecap:square;stroke-miterlimit:3}
</style><rect x="16" y="16" width="384" height="496" rx="8" ry="8" class="b"/><rect x="32" y="64" width="352" height="240" rx="8" ry="8" class="b"/><a target="_blank" href="https://learn.microsoft.com/office365/servicedescriptions/office-365-advanced-threat-protection-service-description#feature-availability-across-advanced-threat-protection-atp-plans"><rect x="16" y="16" width="384" height="32" rx="8" ry="8" class="c"/><text x="80" y="37.4" class="d">Defender for Office 365 Plan 2</text></a><a target="_blank" href="https://learn.microsoft.com/office365/securitycompliance/threat-trackers"><rect x="272" y="416" width="96" height="80" rx="8" ry="8" class="e"/><text x="298.6" y="451.8" class="f">Threat <tspan x="290.8" dy="1.2em" class="g">Trackers</tspan></text></a><a target="_blank" href="https://learn.microsoft.com/microsoft-365/security/office-365-security/attack-simulation-training-get-started"><rect x="48" y="320" width="96" height="80" rx="8" ry="8" class="e"/><text x="74.6" y="347.4" class="f">Attack <tspan x="60.2" dy="1.2em" class="g">Simulation </tspan><tspan x="68.4" dy="1.2em" class="g">Training</tspan></text></a><a target="_blank" href="https://learn.microsoft.com/microsoft-365/security/office-365-security/threat-explorer"><rect x="160" y="416" width="96" height="80" rx="8" ry="8" class="e"/><text x="186.6" y="451.8" class="f">Threat <tspan x="179.6" dy="1.2em" class="g">Explorer</tspan></text></a><a target="_blank" href="https://learn.microsoft.com/microsoft-365/security/office-365-security/automated-investigation-response-office"><rect x="160" y="320" width="96" height="80" rx="8" ry="8" class="e"/><text x="171.4" y="347.4" class="f">Automated <tspan x="164.8" dy="1.2em" class="g">Investigation </tspan><tspan x="167.6" dy="1.2em" class="g">&amp; Response</tspan></text></a><a target="_blank" href="https://learn.microsoft.com/office365/servicedescriptions/office-365-advanced-threat-protection-service-description#feature-availability-across-advanced-threat-protection-atp-plans"><rect x="32" y="64" width="352" height="32" rx="8" ry="8" class="c"/><text x="80" y="85.4" class="d">Defender for Office 365 Plan 1</text></a><a target="_blank" href="https://learn.microsoft.com/microsoft-365/security/office-365-security/address-compromised-users-quickly"><rect x="48" y="416" width="96" height="80" rx="8" ry="8" class="e"/><text x="52.3" y="444.3" class="h">Compromised <tspan x="81.6" dy="1.2em" class="g">User </tspan><tspan x="66.4" dy="1.2em" class="g">Detection</tspan></text></a><a target="_blank" href="https://learn.microsoft.com/microsoft-365/security/office-365-security/campaigns"><rect x="272" y="320" width="96" height="80" rx="8" ry="8" class="e"/><text x="286.2" y="355.8" class="f">Campaign <tspan x="300.2" dy="1.2em" class="g">Views</tspan></text></a><a target="_blank" href="https://learn.microsoft.com/microsoft-365/security/office-365-security/atp-safe-links"><rect x="160" y="208" width="96" height="80" rx="8" ry="8" class="e"/><text x="173" y="252.2" class="f">Safe Links</text></a><a target="_blank" href="https://learn.microsoft.com/microsoft-365/security/office-365-security/atp-safe-attachments"><rect x="48" y="208" width="96" height="80" rx="8" ry="8" class="e"/><text x="81.2" y="243.8" class="f">Safe <tspan x="53.6" dy="1.2em" class="g">Attachments</tspan></text></a><a target="_blank" href="https://learn.microsoft.com/microsoft-365/security/office-365-security/atp-anti-phishing"><rect x="48" y="112" width="96" height="80" rx="8" ry="8" class="e"/><text x="80.1" y="147.8" class="f">Anti-<tspan x="66.4" dy="1.2em" class="g">Phishing</tspan></text></a><a target="_blank" href="https://learn.microsoft.com/microsoft-365/security/office-365-security/view-reports-for-mdo"><rect x="272" y="112" width="96" height="80" rx="8" ry="8" class="e"/><text x="286.6" y="147.8" class="f">Real-Time <tspan x="293.6" dy="1.2em" class="g">Reports</tspan></text></a><a target="_blank" href="https://learn.microsoft.com/office365/servicedescriptions/exchange-online-protection-service-description/exchange-online-protection-service-description"><rect x="160" y="112" width="96" height="80" rx="8" ry="8" class="e"/><text x="174.9" y="139.4" class="f">Exchange <tspan x="186.2" dy="1.2em" class="g">Online </tspan><tspan x="173.4" dy="1.2em" class="g">Protection</tspan></text></a><a target="_blank" href="https://m365maps.com/"><rect y="512" width="416" height="16" class="i"/><text x="326.6" y="523.6" class="j">m365maps.com</text></a></svg>