<svg xmlns="http://www.w3.org/2000/svg" width="2480" height="1408" viewBox="0 0 2480 1408" class="a"><style>
.b {fill:#a5a5a5;fill-opacity:0.2;stroke:#442060;stroke-linecap:round;stroke-linejoin:round;stroke-width:2.2}
.c {fill:#a5a5a5;fill-opacity:0.2;stroke:#303040;stroke-linecap:round;stroke-linejoin:round;stroke-width:2.2}
.d {fill:#a5a5a5;fill-opacity:0.2;stroke:#006600;stroke-dasharray:33.8,20.2;stroke-linecap:round;stroke-linejoin:round;stroke-width:2.2}
.e {fill:#a5a5a5;fill-opacity:0.2;stroke:#2080a0;stroke-dasharray:33.8,20.2;stroke-linecap:round;stroke-linejoin:round;stroke-width:2.2}
.f {fill:#a5a5a5;fill-opacity:0.2;stroke:#e82200;stroke-dasharray:33.8,20.2;stroke-linecap:round;stroke-linejoin:round;stroke-width:2.2}
.g {fill:#442060;stroke:#442060;stroke-linecap:round;stroke-linejoin:round;stroke-width:2.2}
.h {fill:#ffffff;font-family:Arial;font-size:1.7em;font-weight:bold}
.i {fill:#e82200;stroke:#e82200;stroke-linecap:round;stroke-linejoin:round;stroke-width:2.2}
.j {fill:#006600;stroke:#006600;stroke-linecap:round;stroke-linejoin:round;stroke-width:2.2}
.k {fill:#2080a0;stroke:#2080a0;stroke-linecap:round;stroke-linejoin:round;stroke-width:2.2}
.l {font-size:1em}
.m {fill:none;stroke:none;stroke-linecap:round;stroke-linejoin:round;stroke-width:1}
.n {fill:#0070f7;font-family:Arial;font-size:4em;font-weight:bold}
.o {fill:none;stroke:none;stroke-linecap:round;stroke-linejoin:round;stroke-width:0.8}
.p {fill:#0070f7;font-family:Arial;font-size:2.5em;font-weight:bold}
.q {fill:#0070f7;font-family:Arial;font-size:1.5em;font-weight:bold}
.r {fill:#303040;stroke:#303040;stroke-linecap:round;stroke-linejoin:round;stroke-width:2.2}
.s {fill:#ffffff;font-family:Arial;font-size:1.5em;font-weight:bold}
.t {fill:#e82200;stroke:none;stroke-linecap:round;stroke-linejoin:round;stroke-width:1}
.u {fill:#ffffff;font-family:Arial;font-size:1.2em;font-weight:bold}
.v {fill:#a5a5a5;fill-opacity:0.2;stroke:#403050;stroke-dasharray:2.2,4.5;stroke-linecap:round;stroke-linejoin:round;stroke-width:2.2}
.w {fill:#a5a5a5;fill-opacity:0.2;stroke:#d04a00;stroke-dasharray:2.2,4.5;stroke-linecap:round;stroke-linejoin:round;stroke-width:2.2}
.x {fill:#a5a5a5;fill-opacity:0.2;stroke:#d04a00;stroke-dasharray:15.8,11.2;stroke-linecap:round;stroke-linejoin:round;stroke-width:2.2}
.y {fill:#a5a5a5;fill-opacity:0.2;stroke:#0050c0;stroke-dasharray:2.2,4.5;stroke-linecap:round;stroke-linejoin:round;stroke-width:2.2}
.z {fill:#000000;font-family:Arial;font-size:1.3em}
.ba {fill:#d04a00;stroke:none;stroke-linecap:round;stroke-linejoin:round;stroke-width:1}
.bb {fill:#ffffff;font-family:Arial;font-size:1.1em;font-weight:bold}
.bc {fill:#105868;stroke:none;stroke-linecap:round;stroke-linejoin:round;stroke-width:1}
.bd {fill:#504060;stroke:none;stroke-linecap:round;stroke-linejoin:round;stroke-width:1}
.be {stroke:#105868;stroke-dasharray:8,4;stroke-linecap:butt;stroke-width:4}
.bf {fill:#a5a5a5;fill-opacity:0.2;stroke:#004400;stroke-dasharray:2.2,4.5;stroke-linecap:round;stroke-linejoin:round;stroke-width:2.2}
.bg {fill:#004400;stroke:none;stroke-linecap:round;stroke-linejoin:round;stroke-width:1}
.bh {fill:#0050c0;stroke:none;stroke-linecap:round;stroke-linejoin:round;stroke-width:1}
.bi {fill:#403050;stroke:#403050;stroke-linecap:round;stroke-linejoin:round;stroke-width:2.2}
.bj {stroke:#d04a00;stroke-dasharray:8,4;stroke-linecap:butt;stroke-width:4}
.a {fill:none;fill-rule:evenodd;font-size:12px;overflow:visible;stroke-linecap:square;stroke-miterlimit:3}
</style><rect x="16" y="272" width="2448" height="1024" rx="8" ry="8" class="b"/><rect x="112" y="928" width="2256" height="336" rx="8" ry="8" class="c"/><rect x="112" y="304" width="2256" height="592" rx="8" ry="8" class="c"/><rect x="1680" y="176" width="608" height="1216" rx="8" ry="8" class="d"/><rect x="1152" y="176" width="496" height="1216" rx="8" ry="8" class="e"/><rect x="400" y="176" width="720" height="1216" rx="8" ry="8" class="f"/><a target="_blank" href="https://www.microsoft.com/microsoft-365/compare-all-microsoft-365-plans" transform="translate(-1328,1296) rotate(-90)"><rect y="1344" width="1024" height="64" rx="8" ry="8" class="g"/><text x="322.8" y="1382" class="h">Microsoft 365 F5 Security + Compliance</text></a><a target="_blank" href="https://www.microsoft.com/microsoft-365/compare-all-microsoft-365-plans" transform="translate(1056,1296) rotate(-90)"><rect y="1344" width="1024" height="64" rx="8" ry="8" class="g"/><text x="322.8" y="1382" class="h">Microsoft 365 F5 Security + Compliance</text></a><a target="_blank" href="https://www.microsoft.com/microsoft-365/enterprise/compare-office-365-plans"><rect x="400" y="176" width="720" height="64" rx="8" ry="8" class="i"/><text x="712.2" y="214" class="h">Office 365</text></a><a target="_blank" href="https://www.microsoft.com/microsoft-365/windows/windows-11-enterprise"><rect x="1680" y="176" width="608" height="64" rx="8" ry="8" class="j"/><text x="1940.1" y="214" class="h">Windows</text></a><a target="_blank" href="https://www.microsoft.com/microsoft-365/enterprise/compare-office-365-plans"><rect x="400" y="1328" width="720" height="64" rx="8" ry="8" class="i"/><text x="712.2" y="1366" class="h">Office 365</text></a><a target="_blank" href="https://www.microsoft.com/microsoft-365/windows/windows-11-enterprise"><rect x="1680" y="1328" width="608" height="64" rx="8" ry="8" class="j"/><text x="1940.1" y="1366" class="h">Windows</text></a><a target="_blank" href="https://www.microsoft.com/cloud-platform/enterprise-mobility-security"><rect x="1152" y="176" width="496" height="64" rx="8" ry="8" class="k"/><text x="1259.1" y="202" class="h">Enterprise Mobility + Security <tspan x="1371.7" dy="1.2em" class="l">(EMS)</tspan></text></a><a target="_blank" href="https://www.microsoft.com/cloud-platform/enterprise-mobility-security"><rect x="1152" y="1328" width="496" height="64" rx="8" ry="8" class="k"/><text x="1259.1" y="1354" class="h">Enterprise Mobility + Security <tspan x="1371.7" dy="1.2em" class="l">(EMS)</tspan></text></a><a target="_blank" href="https://m365maps.com/"><rect x="16" y="16" width="2448" height="64" rx="8" ry="8" class="m"/><text x="785.8" y="62.4" class="n">Microsoft 365 F5 Security + Compliance</text></a><g><rect x="16" y="80" width="2448" height="32" class="o"/><text x="1144.9" y="105" class="p">January 2023</text></g><a target="_blank" href="https://m365maps.com/"><rect x="16" y="112" width="2448" height="32" class="m"/><text x="1172.5" y="133.4" class="q">m365maps.com</text></a><a target="_blank" href="https://learn.microsoft.com/microsoft-365/security/" transform="translate(-1248,1264) rotate(-90)"><rect y="1360" width="336" height="48" rx="8" ry="8" class="r"/><text x="59" y="1389.4" class="s">Microsoft 365 F5 Security</text></a><a target="_blank" href="https://learn.microsoft.com/microsoft-365/compliance/" transform="translate(-1248,896) rotate(-90)"><rect y="1360" width="592" height="48" rx="8" ry="8" class="r"/><text x="171.5" y="1389.4" class="s">Microsoft 365 F5 Compliance</text></a><a target="_blank" href="https://learn.microsoft.com/microsoft-365/security/" transform="translate(960,1264) rotate(-90)"><rect y="1360" width="336" height="48" rx="8" ry="8" class="r"/><text x="59" y="1389.4" class="s">Microsoft 365 F5 Security</text></a><a target="_blank" href="https://learn.microsoft.com/microsoft-365/compliance/" transform="translate(960,896) rotate(-90)"><rect y="1360" width="592" height="48" rx="8" ry="8" class="r"/><text x="171.5" y="1389.4" class="s">Microsoft 365 F5 Compliance</text></a><a target="_blank" href="https://learn.microsoft.com/office365/servicedescriptions/exchange-online-archiving-service-description/exchange-online-archiving-service-description"><rect x="544" y="320" width="96" height="80" rx="8" ry="8" class="t"/><text x="558.9" y="347.4" class="u">Exchange <tspan x="570.2" dy="1.2em" class="l">Online </tspan><tspan x="559.7" dy="1.2em" class="l">Archiving</tspan></text></a><a target="_blank" href="https://learn.microsoft.com/office365/securitycompliance/data-loss-prevention-policies"><rect x="432" y="320" width="96" height="80" rx="8" ry="8" class="t"/><text x="446.6" y="355.8" class="u">Data Loss <tspan x="443.8" dy="1.2em" class="l">Prevention</tspan></text></a><a target="_blank" href="https://learn.microsoft.com/microsoft-365/compliance/create-retention-policies"><rect x="656" y="320" width="96" height="80" rx="8" ry="8" class="t"/><text x="671.7" y="355.8" class="u">Retention <tspan x="677.5" dy="1.2em" class="l">Policies</tspan></text></a><rect x="192" y="416" width="944" height="112" rx="8" ry="8" class="v"/><rect x="192" y="544" width="944" height="112" rx="8" ry="8" class="v"/><rect x="192" y="672" width="1472" height="208" rx="8" ry="8" class="v"/><rect x="416" y="944" width="688" height="304" rx="8" ry="8" class="w"/><rect x="432" y="960" width="656" height="144" rx="8" ry="8" class="x"/><rect x="1280" y="944" width="352" height="240" rx="8" ry="8" class="y"/><a target="_blank" href="https://azure.microsoft.com/pricing/details/active-directory/"><rect x="1280" y="1136" width="352" height="48" rx="8" ry="8" class="m"/><text x="1387.5" y="1155.2" class="z">Azure AD Premium <tspan x="1403.1" dy="1.2em" class="l">Plan 2 Step</tspan>-up</text></a><a target="_blank" href="https://learn.microsoft.com/microsoft-365/security/office-365-security/atp-safe-links"><rect x="896" y="976" width="96" height="80" rx="8" ry="8" class="ba"/><text x="909" y="1020.2" class="u">Safe Links</text></a><a target="_blank" href="https://learn.microsoft.com/microsoft-365/security/office-365-security/atp-safe-attachments"><rect x="784" y="976" width="96" height="80" rx="8" ry="8" class="ba"/><text x="817.2" y="1011.8" class="u">Safe <tspan x="789.6" dy="1.2em" class="l">Attachments</tspan></text></a><a target="_blank" href="https://learn.microsoft.com/microsoft-365/security/office-365-security/atp-anti-phishing"><rect x="448" y="976" width="96" height="80" rx="8" ry="8" class="ba"/><text x="480.1" y="1011.8" class="u">Anti-<tspan x="466.4" dy="1.2em" class="l">Phishing</tspan></text></a><a target="_blank" href="https://learn.microsoft.com/microsoft-365/security/office-365-security/attack-simulation-training-get-started"><rect x="432" y="1120" width="96" height="80" rx="8" ry="8" class="ba"/><text x="458.6" y="1147.4" class="u">Attack <tspan x="444.2" dy="1.2em" class="l">Simulation </tspan><tspan x="452.4" dy="1.2em" class="l">Training</tspan></text></a><a target="_blank" href="https://learn.microsoft.com/microsoft-365/security/office-365-security/automated-investigation-response-office"><rect x="544" y="1120" width="96" height="80" rx="8" ry="8" class="ba"/><text x="555.4" y="1147.4" class="u">Automated <tspan x="548.8" dy="1.2em" class="l">Investigation </tspan><tspan x="551.6" dy="1.2em" class="l">&amp; Response</tspan></text></a><a target="_blank" href="https://learn.microsoft.com/microsoft-365/security/office-365-security/campaigns"><rect x="656" y="1120" width="96" height="80" rx="8" ry="8" class="ba"/><text x="670.2" y="1155.8" class="u">Campaign <tspan x="684.2" dy="1.2em" class="l">Views</tspan></text></a><a target="_blank" href="https://learn.microsoft.com/microsoft-365/security/office-365-security/threat-explorer"><rect x="880" y="1120" width="96" height="80" rx="8" ry="8" class="ba"/><text x="906.6" y="1155.8" class="u">Threat <tspan x="899.6" dy="1.2em" class="l">Explorer</tspan></text></a><a target="_blank" href="https://learn.microsoft.com/office365/securitycompliance/threat-trackers"><rect x="992" y="1120" width="96" height="80" rx="8" ry="8" class="ba"/><text x="1018.6" y="1155.8" class="u">Threat <tspan x="1010.8" dy="1.2em" class="l">Trackers</tspan></text></a><a target="_blank" href="https://learn.microsoft.com/microsoft-365/security/office-365-security/address-compromised-users-quickly"><rect x="768" y="1120" width="96" height="80" rx="8" ry="8" class="ba"/><text x="772.3" y="1148.3" class="bb">Compromised <tspan x="801.6" dy="1.2em" class="l">User </tspan><tspan x="786.4" dy="1.2em" class="l">Detection</tspan></text></a><a target="_blank" href="https://learn.microsoft.com/office365/servicedescriptions/office-365-advanced-threat-protection-service-description#feature-availability-across-advanced-threat-protection-atp-plans"><rect x="432" y="1056" width="656" height="48" rx="8" ry="8" class="m"/><text x="676.8" y="1075.2" class="z">Defender for Office 365 <tspan x="737.3" dy="1.2em" class="l">Plan 1</tspan></text></a><a target="_blank" href="https://learn.microsoft.com/office365/servicedescriptions/office-365-advanced-threat-protection-service-description#feature-availability-across-advanced-threat-protection-atp-plans"><rect x="416" y="1200" width="688" height="48" rx="8" ry="8" class="m"/><text x="676.8" y="1219.2" class="z">Defender for Office 365 <tspan x="737.3" dy="1.2em" class="l">Plan 2</tspan></text></a><a target="_blank" href="https://learn.microsoft.com/cloud-app-security/what-is-cloud-app-security"><rect x="1168" y="960" width="96" height="80" rx="8" ry="8" class="bc"/><text x="1174.4" y="995.8" class="u">Defender for <tspan x="1176.7" dy="1.2em" class="l">Cloud Apps</tspan></text></a><a target="_blank" href="https://learn.microsoft.com/defender-for-identity/what-is"><rect x="1168" y="1056" width="96" height="80" rx="8" ry="8" class="bc"/><text x="1174.4" y="1091.8" class="u">Defender for <tspan x="1191.1" dy="1.2em" class="l">Identity</tspan></text></a><a target="_blank" href="https://learn.microsoft.com/cloud-app-security/what-is-cloud-app-security"><rect x="1168" y="784" width="96" height="80" rx="8" ry="8" class="bc"/><text x="1174.4" y="819.8" class="u">Defender for <tspan x="1176.7" dy="1.2em" class="l">Cloud Apps</tspan></text></a><a target="_blank" href="https://learn.microsoft.com/microsoft-365/compliance/classifier-learn-about"><rect x="272" y="784" width="96" height="80" rx="8" ry="8" class="bd"/><text x="288.9" y="819.8" class="u">Trainable <tspan x="284.6" dy="1.2em" class="l">Classifiers</tspan></text></a><a target="_blank" href="https://learn.microsoft.com/microsoft-365/compliance/endpoint-dlp-learn-about"><rect x="272" y="688" width="96" height="80" rx="8" ry="8" class="bd"/><text x="289.7" y="723.8" class="u">Endpoint <tspan x="306" dy="1.2em" class="l">DLP</tspan></text></a><a target="_blank" href="https://learn.microsoft.com/microsoft-365/security/office-365-security/install-app-guard"><rect x="272" y="960" width="96" height="80" rx="8" ry="8" class="bd"/><text x="281.9" y="987.4" class="u">Application <tspan x="288.1" dy="1.2em" class="l">Guard for </tspan><tspan x="300.2" dy="1.2em" class="l">Office</tspan></text></a><a target="_blank" href="https://learn.microsoft.com/microsoft-365/compliance/insider-risk-management"><rect x="272" y="560" width="96" height="80" rx="8" ry="8" class="bd"/><text x="280.3" y="595.8" class="u">Insider Risk <tspan x="277.2" dy="1.2em" class="l">Management</tspan></text></a><a target="_blank" href="https://learn.microsoft.com/microsoft-365/security/office-365-security/view-reports-for-mdo"><rect x="672" y="976" width="96" height="80" rx="8" ry="8" class="ba"/><text x="686.6" y="1011.8" class="u">Real-Time <tspan x="693.6" dy="1.2em" class="l">Reports</tspan></text></a><a target="_blank" href="https://learn.microsoft.com/azure/information-protection/deploy-aip-scanner"><rect x="1168" y="688" width="96" height="80" rx="8" ry="8" class="bc"/><text x="1176.6" y="708.5" class="bb">Rules-Based <tspan x="1173.7" dy="1.2em" class="l">Classification </tspan><tspan x="1189.3" dy="1.2em" class="l">(Client &amp; </tspan><tspan x="1188.2" dy="1.2em" class="l">Scanner)</tspan></text></a><path d="M0 1408 L96 1408" class="be" transform="translate(2624,864) rotate(90)"/><rect x="1696" y="944" width="576" height="240" rx="8" ry="8" class="bf"/><a target="_blank" href="https://learn.microsoft.com/microsoft-365/security/defender-endpoint/microsoft-defender-endpoint"><rect x="1696" y="1136" width="576" height="48" rx="8" ry="8" class="m"/><text x="1905.7" y="1155.2" class="z">Defender for Endpoint <tspan x="1931.1" dy="1.2em" class="l">Plan 2 Step</tspan>-up</text></a><a target="_blank" href="https://learn.microsoft.com/office365/servicedescriptions/exchange-online-protection-service-description/exchange-online-protection-service-description"><rect x="560" y="976" width="96" height="80" rx="8" ry="8" class="ba"/><text x="574.9" y="1003.4" class="u">Exchange <tspan x="586.2" dy="1.2em" class="l">Online </tspan><tspan x="573.4" dy="1.2em" class="l">Protection</tspan></text></a><a target="_blank" href="https://learn.microsoft.com/windows/security/threat-protection/windows-defender-atp/automated-investigations-windows-defender-advanced-threat-protection"><rect x="1824" y="960" width="96" height="80" rx="8" ry="8" class="bg"/><text x="1835.4" y="987.4" class="u">Automated <tspan x="1828.8" dy="1.2em" class="l">Investigation </tspan><tspan x="1831.6" dy="1.2em" class="l">&amp; Response</tspan></text></a><a target="_blank" href="https://learn.microsoft.com/windows/security/threat-protection/windows-defender-atp/overview-hunting-windows-defender-advanced-threat-protection"><rect x="1712" y="960" width="96" height="80" rx="8" ry="8" class="bg"/><text x="1726.6" y="995.8" class="u">Advanced <tspan x="1733.6" dy="1.2em" class="l">Hunting</tspan></text></a><a target="_blank" href="https://learn.microsoft.com/windows/security/threat-protection/windows-defender-atp/overview-endpoint-detection-response"><rect x="2048" y="960" width="96" height="80" rx="8" ry="8" class="bg"/><text x="2065.7" y="987.4" class="u">Endpoint <tspan x="2057.1" dy="1.2em" class="l">Detection &amp; </tspan><tspan x="2062.6" dy="1.2em" class="l">Response</tspan></text></a><a target="_blank" href="https://learn.microsoft.com/windows/security/threat-protection/windows-defender-atp/microsoft-threat-experts"><rect x="1712" y="1056" width="96" height="80" rx="8" ry="8" class="bg"/><text x="1728.5" y="1083.4" class="u">Microsoft <tspan x="1738.6" dy="1.2em" class="l">Threat </tspan><tspan x="1734.3" dy="1.2em" class="l">Experts</tspan></text></a><a target="_blank" href="https://learn.microsoft.com/windows/security/threat-protection/microsoft-defender-atp/evaluation-lab"><rect x="2160" y="960" width="96" height="80" rx="8" ry="8" class="bg"/><text x="2172.6" y="995.8" class="u">Evaluation <tspan x="2195.6" dy="1.2em" class="l">Lab</tspan></text></a><a target="_blank" href="https://www.microsoft.com/security/blog/2019/01/17/windows-defender-atp-integrates-with-microsoft-information-protection-to-discover-protect-and-monitor-sensitive-data-on-windows-devices/"><rect x="1824" y="1056" width="96" height="80" rx="8" ry="8" class="bg"/><text x="1859.6" y="1091.8" class="u">MIP <tspan x="1835.8" dy="1.2em" class="l">Integration</tspan></text></a><a target="_blank" href="https://learn.microsoft.com/microsoft-365/security/defender-vulnerability-management/defender-vulnerability-management-capabilities"><rect x="2048" y="1056" width="96" height="80" rx="8" ry="8" class="bg"/><text x="2054" y="1083.4" class="u">Vulnerability <tspan x="2053.2" dy="1.2em" class="l">Management </tspan><tspan x="2076.6" dy="1.2em" class="l">(core)</tspan></text></a><a target="_blank" href="https://learn.microsoft.com/windows/security/threat-protection/windows-defender-atp/threat-analytics"><rect x="1936" y="1056" width="96" height="80" rx="8" ry="8" class="bg"/><text x="1962.6" y="1091.8" class="u">Threat <tspan x="1952.9" dy="1.2em" class="l">Analytics</tspan></text></a><a target="_blank" href="https://learn.microsoft.com/windows/security/threat-protection/microsoft-defender-atp/microsoft-cloud-app-security-integration"><rect x="1936" y="960" width="96" height="80" rx="8" ry="8" class="bg"/><text x="1942.4" y="987.4" class="u">Defender for <tspan x="1944.7" dy="1.2em" class="l">Cloud Apps </tspan><tspan x="1947.8" dy="1.2em" class="l">Integration</tspan></text></a><a target="_blank" href="https://learn.microsoft.com/microsoft-365/security/defender-endpoint/data-storage-privacy#how-long-will-microsoft-store-my-data-what-is-microsofts-data-retention-policy"><rect x="2160" y="1056" width="96" height="80" rx="8" ry="8" class="bg"/><text x="2176.9" y="1083.4" class="u">6-Months <tspan x="2170.6" dy="1.2em" class="l">Searchable </tspan><tspan x="2192.8" dy="1.2em" class="l">Data</tspan></text></a><a target="_blank" href="https://learn.microsoft.com/azure/active-directory/governance/access-reviews-overview"><rect x="1296" y="960" width="96" height="80" rx="8" ry="8" class="bh"/><text x="1319.5" y="995.8" class="u">Access <tspan x="1316" dy="1.2em" class="l">Reviews</tspan></text></a><a target="_blank" href="https://learn.microsoft.com/azure/active-directory/identity-protection/overview"><rect x="1520" y="960" width="96" height="80" rx="8" ry="8" class="bh"/><text x="1543.1" y="995.8" class="u">Identity <tspan x="1533.4" dy="1.2em" class="l">Protection</tspan></text></a><a target="_blank" href="https://learn.microsoft.com/azure/active-directory/governance/entitlement-management-overview"><rect x="1408" y="960" width="96" height="80" rx="8" ry="8" class="bh"/><text x="1417.9" y="995.8" class="u">Entitlement <tspan x="1413.2" dy="1.2em" class="l">Management</tspan></text></a><a target="_blank" href="https://learn.microsoft.com/azure/active-directory/active-directory-conditional-access-conditions#sign-in-risk"><rect x="1520" y="1056" width="96" height="80" rx="8" ry="8" class="bh"/><text x="1529.9" y="1083.4" class="u">Risk-Based <tspan x="1529.5" dy="1.2em" class="l">Conditional </tspan><tspan x="1543.5" dy="1.2em" class="l">Access</tspan></text></a><a target="_blank" href="https://learn.microsoft.com/azure/active-directory/active-directory-privileged-identity-management-configure"><rect x="1408" y="1056" width="96" height="80" rx="8" ry="8" class="bh"/><text x="1422.5" y="1083.4" class="u">Privileged <tspan x="1431.1" dy="1.2em" class="l">Identity </tspan><tspan x="1413.2" dy="1.2em" class="l">Management</tspan></text></a><a target="_blank" href="https://learn.microsoft.com/azure/active-directory/identity-protection/howto-identity-protection-configure-mfa-policy"><rect x="1296" y="1056" width="96" height="80" rx="8" ry="8" class="bh"/><text x="1328.8" y="1083.4" class="u">MFA <tspan x="1303.2" dy="1.2em" class="l">Registration </tspan><tspan x="1323.4" dy="1.2em" class="l">Policy</tspan></text></a><a target="_blank" href="https://learn.microsoft.com/microsoft-365/compliance/microsoft-365-solution-catalog#information-protection--governance-section" transform="translate(-1168,880) rotate(-90)"><rect y="1360" width="208" height="48" rx="8" ry="8" class="bi"/><text x="22" y="1379.8" class="u">Information Protection &amp; <tspan x="63.5" dy="1.2em" class="l">Governance</tspan></text></a><a target="_blank" href="https://learn.microsoft.com/office365/servicedescriptions/microsoft-365-service-descriptions/microsoft-365-tenantlevel-services-licensing-guidance/microsoft-365-security-compliance-licensing-guidance#microsoft-purview-insider-risk-management" transform="translate(-1168,656) rotate(-90)"><rect y="1360" width="112" height="48" rx="8" ry="8" class="bi"/><text x="16.3" y="1379.8" class="u">Insider Risk <tspan x="13.2" dy="1.2em" class="l">Management</tspan></text></a><a target="_blank" href="https://learn.microsoft.com/microsoft-365/compliance/microsoft-365-solution-catalog#discovery--response-section" transform="translate(-1168,528) rotate(-90)"><rect y="1360" width="112" height="48" rx="8" ry="8" class="bi"/><text x="11.6" y="1379.8" class="u">eDiscovery &amp; <tspan x="38.1" dy="1.2em" class="l">Audit</tspan></text></a><a target="_blank" href="https://azure.microsoft.com/offers/sentinel-microsoft-365-offer/"><rect x="272" y="1056" width="96" height="80" rx="8" ry="8" class="bd"/><text x="292.8" y="1091.8" class="u">Sentinel <tspan x="296.3" dy="1.2em" class="l">Benefit</tspan></text></a><a target="_blank" href="https://learn.microsoft.com/microsoft-365/compliance/customer-lockbox-requests"><rect x="656" y="560" width="96" height="80" rx="8" ry="8" class="ba"/><text x="671.3" y="595.8" class="u">Customer <tspan x="675.2" dy="1.2em" class="l">Lockbox</tspan></text></a><a target="_blank" href="https://learn.microsoft.com/microsoft-365/compliance/information-barriers"><rect x="768" y="560" width="96" height="80" rx="8" ry="8" class="ba"/><text x="777.5" y="595.8" class="u">Information <tspan x="789.2" dy="1.2em" class="l">Barriers</tspan></text></a><a target="_blank" href="https://learn.microsoft.com/microsoft-365/compliance/communication-compliance"><rect x="544" y="560" width="96" height="80" rx="8" ry="8" class="ba"/><text x="570.2" y="595.8" class="u">Comm <tspan x="552.3" dy="1.2em" class="l">Compliance</tspan></text></a><a target="_blank" href="https://learn.microsoft.com/microsoft-365/compliance/overview-ediscovery-20"><rect x="656" y="432" width="96" height="80" rx="8" ry="8" class="ba"/><text x="666.6" y="467.8" class="u">eDiscovery <tspan x="669.8" dy="1.2em" class="l">(premium)</tspan></text></a><a target="_blank" href="https://learn.microsoft.com/microsoft-365/compliance/advanced-audit"><rect x="544" y="432" width="96" height="80" rx="8" ry="8" class="ba"/><text x="574.1" y="467.8" class="u">Audit <tspan x="557.8" dy="1.2em" class="l">(premium)</tspan></text></a><a target="_blank" href="https://learn.microsoft.com/microsoft-365/compliance/privileged-access-management-solution-overview"><rect x="880" y="560" width="96" height="80" rx="8" ry="8" class="ba"/><text x="894.5" y="587.4" class="u">Privileged <tspan x="903.5" dy="1.2em" class="l">Access </tspan><tspan x="885.2" dy="1.2em" class="l">Management</tspan></text></a><path d="M0 1408 L48 1408" class="bj" transform="translate(-928,560) rotate(-90)"/><path d="M0 1408 L48 1408" class="bj" transform="translate(-928,688) rotate(-90)"/><a target="_blank" href="https://learn.microsoft.com/microsoft-365/compliance/customer-key-overview"><rect x="544" y="784" width="96" height="80" rx="8" ry="8" class="ba"/><text x="559.3" y="819.8" class="u">Customer <tspan x="579.2" dy="1.2em" class="l">Key</tspan></text></a><a target="_blank" href="https://learn.microsoft.com/microsoft-365/compliance/dlp-microsoft-teams"><rect x="880" y="784" width="96" height="80" rx="8" ry="8" class="ba"/><text x="905.8" y="811.4" class="u">Teams<tspan x="894.6" dy="1.2em" class="l">Data Loss </tspan><tspan x="891.8" dy="1.2em" class="l">Prevention</tspan></text></a><a target="_blank" href="https://learn.microsoft.com/microsoft-365/compliance/ome-advanced-message-encryption"><rect x="544" y="688" width="96" height="80" rx="8" ry="8" class="ba"/><text x="558.6" y="715.4" class="u">Advanced <tspan x="562.4" dy="1.2em" class="l">Message </tspan><tspan x="555.4" dy="1.2em" class="l">Encryption</tspan></text></a><a target="_blank" href="https://learn.microsoft.com/microsoft-365/compliance/records-management"><rect x="768" y="784" width="96" height="80" rx="8" ry="8" class="ba"/><text x="788" y="819.8" class="u">Records <tspan x="773.2" dy="1.2em" class="l">Management</tspan></text></a><a target="_blank" href="https://learn.microsoft.com/microsoft-365/compliance/double-key-encryption"><rect x="656" y="784" width="96" height="80" rx="8" ry="8" class="ba"/><text x="665.5" y="819.8" class="u">Double Key <tspan x="667.4" dy="1.2em" class="l">Encryption</tspan></text></a><a target="_blank" href="https://learn.microsoft.com/microsoft-365/compliance/manage-data-governance"><rect x="656" y="688" width="96" height="80" rx="8" ry="8" class="ba"/><text x="688.8" y="715.4" class="u">Data <tspan x="674" dy="1.2em" class="l">Lifecycle </tspan><tspan x="661.2" dy="1.2em" class="l">Management</tspan></text></a><a target="_blank" href="https://learn.microsoft.com/microsoft-365/compliance/apply-sensitivity-label-automatically"><rect x="880" y="688" width="96" height="80" rx="8" ry="8" class="ba"/><text x="888.6" y="716.3" class="bb">Rules-Based <tspan x="885.7" dy="1.2em" class="l">Classification</tspan><tspan x="892.6" dy="1.2em" class="l">(Office 365)</tspan></text></a><a target="_blank" href="https://learn.microsoft.com/microsoft-365/compliance/sit-learn-about-exact-data-match-based-sits"><rect x="768" y="688" width="96" height="80" rx="8" ry="8" class="ba"/><text x="780.2" y="723.8" class="u">Exact Data <tspan x="795.8" dy="1.2em" class="l">Match</tspan></text></a><a target="_blank" href="https://learn.microsoft.com/office365/servicedescriptions/microsoft-365-service-descriptions/microsoft-365-tenantlevel-services-licensing-guidance/microsoft-365-security-compliance-licensing-guidance#which-templates-are-included-by-default-free-of-cost"><rect x="432" y="432" width="96" height="80" rx="8" ry="8" class="ba"/><text x="440.3" y="451" class="u">3x Premium <tspan x="447" dy="1.2em" class="l">&amp; Custom </tspan><tspan x="440.3" dy="1.2em" class="l">Compliance </tspan><tspan x="445.4" dy="1.2em" class="l">Templates</tspan></text></a><a target="_blank" href="https://learn.microsoft.com/office365/servicedescriptions/microsoft-365-service-descriptions/microsoft-365-tenantlevel-services-licensing-guidance/microsoft-365-security-compliance-licensing-guidance#which-templates-are-included-by-default-free-of-cost"><rect x="432" y="560" width="96" height="80" rx="8" ry="8" class="ba"/><text x="440.3" y="579" class="u">3x Premium <tspan x="447" dy="1.2em" class="l">&amp; Custom </tspan><tspan x="440.3" dy="1.2em" class="l">Compliance </tspan><tspan x="445.4" dy="1.2em" class="l">Templates</tspan></text></a><a target="_blank" href="https://learn.microsoft.com/office365/servicedescriptions/microsoft-365-service-descriptions/microsoft-365-tenantlevel-services-licensing-guidance/microsoft-365-security-compliance-licensing-guidance#which-templates-are-included-by-default-free-of-cost"><rect x="432" y="688" width="96" height="80" rx="8" ry="8" class="ba"/><text x="440.3" y="707" class="u">3x Premium <tspan x="447" dy="1.2em" class="l">&amp; Custom </tspan><tspan x="440.3" dy="1.2em" class="l">Compliance </tspan><tspan x="445.4" dy="1.2em" class="l">Templates</tspan></text></a></svg>