<svg xmlns="http://www.w3.org/2000/svg" width="1456" height="2224" viewBox="0 0 1456 2224" class="a"><style>
.b {fill:#a5a5a5;fill-opacity:0.2;stroke:#006600;stroke-dasharray:33.8,20.2;stroke-linecap:round;stroke-linejoin:round;stroke-width:2.2}
.c {fill:#a5a5a5;fill-opacity:0.2;stroke:#2080a0;stroke-dasharray:33.8,20.2;stroke-linecap:round;stroke-linejoin:round;stroke-width:2.2}
.d {fill:#a5a5a5;fill-opacity:0.2;stroke:#e82200;stroke-dasharray:33.8,20.2;stroke-linecap:round;stroke-linejoin:round;stroke-width:2.2}
.e {fill:#a5a5a5;fill-opacity:0.2;stroke:#442060;stroke-linecap:round;stroke-linejoin:round;stroke-width:2.2}
.f {fill:#a5a5a5;fill-opacity:0.2;stroke:#303040;stroke-linecap:round;stroke-linejoin:round;stroke-width:2.2}
.g {fill:#a5a5a5;fill-opacity:0.2;stroke:#403050;stroke-dasharray:2.2,4.5;stroke-linecap:round;stroke-linejoin:round;stroke-width:2.2}
.h {fill:#a5a5a5;fill-opacity:0.2;stroke:#0050c0;stroke-dasharray:2.2,4.5;stroke-linecap:round;stroke-linejoin:round;stroke-width:2.2}
.i {fill:#442060;stroke:#442060;stroke-linecap:round;stroke-linejoin:round;stroke-width:2.2}
.j {fill:#ffffff;font-family:Arial;font-size:1.7em;font-weight:bold}
.k {fill:#2080a0;stroke:#2080a0;stroke-linecap:round;stroke-linejoin:round;stroke-width:2.2}
.l {font-size:1em}
.m {fill:#006600;stroke:#006600;stroke-linecap:round;stroke-linejoin:round;stroke-width:2.2}
.n {fill:#e82200;stroke:#e82200;stroke-linecap:round;stroke-linejoin:round;stroke-width:2.2}
.o {fill:none;stroke:none;stroke-linecap:round;stroke-linejoin:round;stroke-width:1}
.p {fill:#0070f7;font-family:Arial;font-size:4em;font-weight:bold}
.q {fill:none;stroke:none;stroke-linecap:round;stroke-linejoin:round;stroke-width:0.8}
.r {fill:#0070f7;font-family:Arial;font-size:2.5em;font-weight:bold}
.s {fill:#0070f7;font-family:Arial;font-size:1.5em;font-weight:bold}
.t {fill:#0050c0;stroke:none;stroke-linecap:round;stroke-linejoin:round;stroke-width:1}
.u {fill:#ffffff;font-family:Arial;font-size:1.2em;font-weight:bold}
.v {fill:#105868;stroke:none;stroke-linecap:round;stroke-linejoin:round;stroke-width:1}
.w {fill:#504060;stroke:none;stroke-linecap:round;stroke-linejoin:round;stroke-width:1}
.x {fill:#000000;font-family:Arial;font-size:1.3em}
.y {fill:#d04a00;stroke:none;stroke-linecap:round;stroke-linejoin:round;stroke-width:1}
.z {fill:#403050;stroke:#403050;stroke-linecap:round;stroke-linejoin:round;stroke-width:2.2}
.ba {fill:#ffffff;font-family:Arial;font-size:1.1em;font-weight:bold}
.bb {fill:#303040;stroke:#303040;stroke-linecap:round;stroke-linejoin:round;stroke-width:2.2}
.bc {fill:#ffffff;font-family:Arial;font-size:1.5em;font-weight:bold}
.bd {stroke:#105868;stroke-dasharray:8,4;stroke-linecap:butt;stroke-width:4}
.be {fill:#a5a5a5;fill-opacity:0.2;stroke:#004400;stroke-dasharray:2.2,4.5;stroke-linecap:round;stroke-linejoin:round;stroke-width:2.2}
.bf {fill:#004400;stroke:none;stroke-linecap:round;stroke-linejoin:round;stroke-width:1}
.bg {fill:#a5a5a5;fill-opacity:0.2;stroke:#d04a00;stroke-dasharray:2.2,4.5;stroke-linecap:round;stroke-linejoin:round;stroke-width:2.2}
.bh {fill:#a5a5a5;fill-opacity:0.2;stroke:#d04a00;stroke-dasharray:15.8,11.2;stroke-linecap:round;stroke-linejoin:round;stroke-width:2.2}
.bi {stroke:#d04a00;stroke-dasharray:8,4;stroke-linecap:butt;stroke-width:4}
.a {fill:none;fill-rule:evenodd;font-size:12px;overflow:visible;stroke-linecap:square;stroke-miterlimit:3}
</style><rect x="16" y="1568" width="1424" height="464" rx="8" ry="8" class="b"/><rect x="16" y="1120" width="1424" height="416" rx="8" ry="8" class="c"/><rect x="16" y="544" width="1424" height="544" rx="8" ry="8" class="d"/><rect x="112" y="176" width="1232" height="2032" rx="8" ry="8" class="e"/><rect x="592" y="272" width="592" height="1840" rx="8" ry="8" class="f"/><rect x="144" y="272" width="416" height="1840" rx="8" ry="8" class="f"/><rect x="1024" y="352" width="128" height="752" rx="8" ry="8" class="g"/><rect x="880" y="352" width="128" height="752" rx="8" ry="8" class="g"/><rect x="624" y="352" width="240" height="1200" rx="8" ry="8" class="g"/><rect x="176" y="1248" width="352" height="240" rx="8" ry="8" class="h"/><a target="_blank" href="https://www.microsoft.com/microsoft-365/compare-all-microsoft-365-plans"><rect x="112" y="176" width="1232" height="64" rx="8" ry="8" class="i"/><text x="559.1" y="214" class="j">Microsoft 365 A5 Step-up (per user)</text></a><a target="_blank" href="https://www.microsoft.com/microsoft-365/compare-all-microsoft-365-plans"><rect x="112" y="2144" width="1232" height="64" rx="8" ry="8" class="i"/><text x="559.1" y="2182" class="j">Microsoft 365 A5 Step-up (per user)</text></a><a target="_blank" href="https://www.microsoft.com/cloud-platform/enterprise-mobility-security" transform="translate(-2144,1536) rotate(-90)"><rect y="2160" width="416" height="64" rx="8" ry="8" class="k"/><text x="11.6" y="2186" class="j">Enterprise Mobility + Security A5 Step-up <tspan x="124.1" dy="1.2em" class="l">(EMS A5 Step</tspan>-up)</text></a><a target="_blank" href="https://www.microsoft.com/microsoft-365/windows/windows-11-enterprise" transform="translate(-2144,2032) rotate(-90)"><rect y="2160" width="464" height="64" rx="8" ry="8" class="m"/><text x="132.6" y="2198" class="j">Windows A5 Step-up</text></a><a target="_blank" href="https://learn.microsoft.com/office365/servicedescriptions/office-365-platform-service-description/office-365-education" transform="translate(-2144,1088) rotate(-90)"><rect y="2160" width="544" height="64" rx="8" ry="8" class="n"/><text x="168.6" y="2198" class="j">Office 365 A5 Step-up</text></a><a target="_blank" href="https://m365maps.com/"><rect x="16" y="16" width="1424" height="64" rx="8" ry="8" class="o"/><text x="440" y="62.4" class="p">Microsoft 365 A5 Step-up</text></a><g><rect x="16" y="80" width="1424" height="32" class="q"/><text x="632.9" y="105" class="r">January 2023</text></g><a target="_blank" href="https://m365maps.com/"><rect x="16" y="112" width="1424" height="32" rx="8" ry="8" class="o"/><text x="660.5" y="133.4" class="s">m365maps.com</text></a><a target="_blank" href="https://learn.microsoft.com/azure/active-directory/identity-protection/overview"><rect x="416" y="1264" width="96" height="80" rx="8" ry="8" class="t"/><text x="439.1" y="1299.8" class="u">Identity <tspan x="429.4" dy="1.2em" class="l">Protection</tspan></text></a><a target="_blank" href="https://learn.microsoft.com/azure/active-directory/active-directory-privileged-identity-management-configure"><rect x="304" y="1360" width="96" height="80" rx="8" ry="8" class="t"/><text x="318.5" y="1387.4" class="u">Privileged <tspan x="327.1" dy="1.2em" class="l">Identity </tspan><tspan x="309.2" dy="1.2em" class="l">Management</tspan></text></a><a target="_blank" href="https://learn.microsoft.com/azure/active-directory/governance/access-reviews-overview"><rect x="192" y="1264" width="96" height="80" rx="8" ry="8" class="t"/><text x="215.5" y="1299.8" class="u">Access <tspan x="212" dy="1.2em" class="l">Reviews</tspan></text></a><a target="_blank" href="https://learn.microsoft.com/azure/active-directory/active-directory-conditional-access-conditions#sign-in-risk"><rect x="416" y="1360" width="96" height="80" rx="8" ry="8" class="t"/><text x="425.9" y="1387.4" class="u">Risk-Based <tspan x="425.5" dy="1.2em" class="l">Conditional </tspan><tspan x="439.5" dy="1.2em" class="l">Access</tspan></text></a><a target="_blank" href="https://learn.microsoft.com/azure/active-directory/governance/entitlement-management-overview"><rect x="304" y="1264" width="96" height="80" rx="8" ry="8" class="t"/><text x="313.9" y="1299.8" class="u">Entitlement <tspan x="309.2" dy="1.2em" class="l">Management</tspan></text></a><a target="_blank" href="https://learn.microsoft.com/cloud-app-security/what-is-cloud-app-security"><rect x="416" y="1152" width="96" height="80" rx="8" ry="8" class="v"/><text x="422.4" y="1187.8" class="u">Defender for <tspan x="424.7" dy="1.2em" class="l">Cloud Apps</tspan></text></a><a target="_blank" href="https://learn.microsoft.com/microsoft-365/security/office-365-security/install-app-guard"><rect x="192" y="432" width="96" height="80" rx="8" ry="8" class="w"/><text x="201.9" y="459.4" class="u">Application <tspan x="208.1" dy="1.2em" class="l">Guard for </tspan><tspan x="220.2" dy="1.2em" class="l">Office</tspan></text></a><a target="_blank" href="https://azure.microsoft.com/pricing/details/active-directory/"><rect x="176" y="1440" width="352" height="48" rx="8" ry="8" class="o"/><text x="283.5" y="1459.2" class="x">Azure AD Premium <tspan x="299.1" dy="1.2em" class="l">Plan 2 Step</tspan>-up</text></a><a target="_blank" href="https://learn.microsoft.com/microsoft-365/security/office-365-security/safe-docs"><rect x="304" y="432" width="96" height="80" rx="8" ry="8" class="w"/><text x="337.2" y="467.8" class="u">Safe <tspan x="313.9" dy="1.2em" class="l">Documents</tspan></text></a><a target="_blank" href="https://learn.microsoft.com/defender-for-identity/what-is"><rect x="304" y="1152" width="96" height="80" rx="8" ry="8" class="v"/><text x="310.4" y="1187.8" class="u">Defender for <tspan x="327.1" dy="1.2em" class="l">Identity</tspan></text></a><a target="_blank" href="https://learn.microsoft.com/microsoft-365/compliance/customer-lockbox-requests"><rect x="896" y="784" width="96" height="80" rx="8" ry="8" class="y"/><text x="911.3" y="819.8" class="u">Customer <tspan x="915.2" dy="1.2em" class="l">Lockbox</tspan></text></a><a target="_blank" href="https://learn.microsoft.com/microsoft-365/compliance/customer-key-overview"><rect x="752" y="688" width="96" height="80" rx="8" ry="8" class="y"/><text x="767.3" y="723.8" class="u">Customer <tspan x="787.2" dy="1.2em" class="l">Key</tspan></text></a><a target="_blank" href="https://learn.microsoft.com/microsoft-365/compliance/overview-ediscovery-20"><rect x="1040" y="784" width="96" height="80" rx="8" ry="8" class="y"/><text x="1050.6" y="819.8" class="u">eDiscovery <tspan x="1053.8" dy="1.2em" class="l">(premium)</tspan></text></a><a target="_blank" href="https://learn.microsoft.com/microsoft-365/compliance/dlp-microsoft-teams"><rect x="752" y="976" width="96" height="80" rx="8" ry="8" class="y"/><text x="777.8" y="1003.4" class="u">Teams<tspan x="766.6" dy="1.2em" class="l">Data Loss </tspan><tspan x="763.8" dy="1.2em" class="l">Prevention</tspan></text></a><a target="_blank" href="https://learn.microsoft.com/microsoft-365/compliance/ome-advanced-message-encryption"><rect x="640" y="688" width="96" height="80" rx="8" ry="8" class="y"/><text x="654.6" y="715.4" class="u">Advanced <tspan x="658.4" dy="1.2em" class="l">Message </tspan><tspan x="651.4" dy="1.2em" class="l">Encryption</tspan></text></a><a target="_blank" href="https://learn.microsoft.com/microsoft-365/compliance/communication-compliance"><rect x="896" y="688" width="96" height="80" rx="8" ry="8" class="y"/><text x="922.2" y="723.8" class="u">Comm <tspan x="904.3" dy="1.2em" class="l">Compliance</tspan></text></a><a target="_blank" href="https://learn.microsoft.com/microsoft-365/compliance/insider-risk-management"><rect x="896" y="432" width="96" height="80" rx="8" ry="8" class="w"/><text x="904.3" y="467.8" class="u">Insider Risk <tspan x="901.2" dy="1.2em" class="l">Management</tspan></text></a><a target="_blank" href="https://learn.microsoft.com/microsoft-365/compliance/records-management"><rect x="752" y="880" width="96" height="80" rx="8" ry="8" class="y"/><text x="772" y="915.8" class="u">Records <tspan x="757.2" dy="1.2em" class="l">Management</tspan></text></a><a target="_blank" href="https://learn.microsoft.com/microsoft-365/compliance/advanced-audit"><rect x="1040" y="688" width="96" height="80" rx="8" ry="8" class="y"/><text x="1070.1" y="723.8" class="u">Audit <tspan x="1053.8" dy="1.2em" class="l">(premium)</tspan></text></a><a target="_blank" href="https://learn.microsoft.com/office365/servicedescriptions/microsoft-365-service-descriptions/microsoft-365-tenantlevel-services-licensing-guidance/microsoft-365-security-compliance-licensing-guidance#microsoft-purview-insider-risk-management"><rect x="880" y="352" width="128" height="48" rx="8" ry="8" class="z"/><text x="904.3" y="371.8" class="u">Insider Risk <tspan x="901.2" dy="1.2em" class="l">Management</tspan></text></a><a target="_blank" href="https://learn.microsoft.com/microsoft-365/compliance/microsoft-365-solution-catalog#information-protection--governance-section"><rect x="624" y="352" width="240" height="48" rx="8" ry="8" class="z"/><text x="662" y="371.8" class="u">Information Protection &amp; <tspan x="703.5" dy="1.2em" class="l">Governance</tspan></text></a><a target="_blank" href="https://learn.microsoft.com/microsoft-365/compliance/microsoft-365-solution-catalog#discovery--response-section"><rect x="1024" y="352" width="128" height="48" rx="8" ry="8" class="z"/><text x="1043.6" y="371.8" class="u">eDiscovery &amp; <tspan x="1070.1" dy="1.2em" class="l">Audit</tspan></text></a><a target="_blank" href="https://learn.microsoft.com/microsoft-365/compliance/classifier-learn-about"><rect x="752" y="432" width="96" height="80" rx="8" ry="8" class="w"/><text x="768.9" y="467.8" class="u">Trainable <tspan x="764.6" dy="1.2em" class="l">Classifiers</tspan></text></a><a target="_blank" href="https://learn.microsoft.com/cloud-app-security/what-is-cloud-app-security"><rect x="640" y="1152" width="96" height="80" rx="8" ry="8" class="v"/><text x="646.4" y="1187.8" class="u">Defender for <tspan x="648.7" dy="1.2em" class="l">Cloud Apps</tspan></text></a><a target="_blank" href="https://learn.microsoft.com/microsoft-365/compliance/endpoint-dlp-learn-about"><rect x="640" y="432" width="96" height="80" rx="8" ry="8" class="w"/><text x="657.7" y="467.8" class="u">Endpoint <tspan x="674" dy="1.2em" class="l">DLP</tspan></text></a><a target="_blank" href="https://learn.microsoft.com/microsoft-365/compliance/double-key-encryption"><rect x="752" y="784" width="96" height="80" rx="8" ry="8" class="y"/><text x="761.5" y="819.8" class="u">Double Key <tspan x="763.4" dy="1.2em" class="l">Encryption</tspan></text></a><a target="_blank" href="https://learn.microsoft.com/MicrosoftTeams/what-is-phone-system-in-office-365"><rect x="1216" y="976" width="96" height="80" rx="8" ry="8" class="y"/><text x="1241.8" y="1011.8" class="u">Teams <tspan x="1242.6" dy="1.2em" class="l">Phone</tspan></text></a><a target="_blank" href="https://learn.microsoft.com/microsoftteams/audio-conferencing-in-office-365"><rect x="1216" y="592" width="96" height="80" rx="8" ry="8" class="y"/><text x="1245.6" y="620.3" class="ba">Audio <tspan x="1222.1" dy="1.2em" class="l">Conferencing </tspan><tspan x="1249.9" dy="1.2em" class="l">(full)</tspan></text></a><a target="_blank" href="https://learn.microsoft.com/power-bi/service-get-started"><rect x="1216" y="784" width="96" height="80" rx="8" ry="8" class="y"/><text x="1220.4" y="828.2" class="u">Power BI Pro</text></a><a target="_blank" href="https://learn.microsoft.com/office365/servicedescriptions/mya-service-description"><rect x="1216" y="688" width="96" height="80" rx="8" ry="8" class="y"/><text x="1223.2" y="723.8" class="u">MyAnalytics <tspan x="1248.8" dy="1.2em" class="l">(full)</tspan></text></a><a target="_blank" href="https://learn.microsoft.com/microsoft-365/compliance/manage-data-governance"><rect x="640" y="784" width="96" height="80" rx="8" ry="8" class="y"/><text x="672.8" y="811.4" class="u">Data <tspan x="658" dy="1.2em" class="l">Lifecycle </tspan><tspan x="645.2" dy="1.2em" class="l">Management</tspan></text></a><a target="_blank" href="https://learn.microsoft.com/microsoft-365/security/"><rect x="144" y="272" width="416" height="48" rx="8" ry="8" class="bb"/><text x="242" y="301.4" class="bc">Microsoft 365 A5 Security</text></a><a target="_blank" href="https://learn.microsoft.com/microsoft-365/security/"><rect x="144" y="2064" width="416" height="48" rx="8" ry="8" class="bb"/><text x="242" y="2093.4" class="bc">Microsoft 365 A5 Security</text></a><a target="_blank" href="https://learn.microsoft.com/microsoft-365/compliance/privileged-access-management-solution-overview"><rect x="896" y="880" width="96" height="80" rx="8" ry="8" class="y"/><text x="910.5" y="907.4" class="u">Privileged <tspan x="919.5" dy="1.2em" class="l">Access </tspan><tspan x="901.2" dy="1.2em" class="l">Management</tspan></text></a><a target="_blank" href="https://learn.microsoft.com/microsoft-365/compliance/"><rect x="592" y="2064" width="592" height="48" rx="8" ry="8" class="bb"/><text x="762.5" y="2093.4" class="bc">Microsoft 365 A5 Compliance</text></a><a target="_blank" href="https://learn.microsoft.com/microsoft-365/compliance/"><rect x="592" y="272" width="592" height="48" rx="8" ry="8" class="bb"/><text x="762.5" y="301.4" class="bc">Microsoft 365 A5 Compliance</text></a><a target="_blank" href="https://learn.microsoft.com/microsoft-365/compliance/apply-sensitivity-label-automatically"><rect x="640" y="976" width="96" height="80" rx="8" ry="8" class="y"/><text x="648.6" y="1004.3" class="ba">Rules-Based <tspan x="645.7" dy="1.2em" class="l">Classification</tspan><tspan x="652.6" dy="1.2em" class="l">(Office 365)</tspan></text></a><a target="_blank" href="https://learn.microsoft.com/azure/information-protection/deploy-aip-scanner"><rect x="752" y="1152" width="96" height="80" rx="8" ry="8" class="v"/><text x="760.6" y="1172.5" class="ba">Rules-Based <tspan x="757.7" dy="1.2em" class="l">Classification </tspan><tspan x="773.3" dy="1.2em" class="l">(Client &amp; </tspan><tspan x="772.2" dy="1.2em" class="l">Scanner)</tspan></text></a><a target="_blank" href="https://www.microsoft.com/cloud-platform/enterprise-mobility-security" transform="translate(-784,1536) rotate(-90)"><rect y="2160" width="416" height="64" rx="8" ry="8" class="k"/><text x="11.6" y="2186" class="j">Enterprise Mobility + Security A5 Step-up <tspan x="124.1" dy="1.2em" class="l">(EMS A5 Step</tspan>-up)</text></a><a target="_blank" href="https://www.microsoft.com/microsoft-365/windows/windows-11-enterprise" transform="translate(-784,2032) rotate(-90)"><rect y="2160" width="464" height="64" rx="8" ry="8" class="m"/><text x="132.6" y="2198" class="j">Windows A5 Step-up</text></a><a target="_blank" href="https://learn.microsoft.com/office365/servicedescriptions/office-365-platform-service-description/office-365-education" transform="translate(-784,1088) rotate(-90)"><rect y="2160" width="544" height="64" rx="8" ry="8" class="n"/><text x="168.6" y="2198" class="j">Office 365 A5 Step-up</text></a><path d="M0 2224 L128 2224" class="bd" transform="translate(640,3416) rotate(180)"/><rect x="176" y="1584" width="352" height="432" rx="8" ry="8" class="be"/><a target="_blank" href="https://learn.microsoft.com/microsoft-365/security/defender-endpoint/microsoft-defender-endpoint"><rect x="176" y="1968" width="352" height="48" rx="8" ry="8" class="o"/><text x="273.7" y="1987.2" class="x">Defender for Endpoint <tspan x="299.1" dy="1.2em" class="l">Plan 2 Step</tspan>-up</text></a><a target="_blank" href="https://learn.microsoft.com/windows/security/threat-protection/windows-defender-atp/automated-investigations-windows-defender-advanced-threat-protection"><rect x="304" y="1600" width="96" height="80" rx="8" ry="8" class="bf"/><text x="315.4" y="1627.4" class="u">Automated <tspan x="308.8" dy="1.2em" class="l">Investigation </tspan><tspan x="311.6" dy="1.2em" class="l">&amp; Response</tspan></text></a><a target="_blank" href="https://learn.microsoft.com/windows/security/threat-protection/windows-defender-atp/overview-hunting-windows-defender-advanced-threat-protection"><rect x="192" y="1600" width="96" height="80" rx="8" ry="8" class="bf"/><text x="206.6" y="1635.8" class="u">Advanced <tspan x="213.6" dy="1.2em" class="l">Hunting</tspan></text></a><a target="_blank" href="https://learn.microsoft.com/windows/security/threat-protection/windows-defender-atp/overview-endpoint-detection-response"><rect x="192" y="1696" width="96" height="80" rx="8" ry="8" class="bf"/><text x="209.7" y="1723.4" class="u">Endpoint <tspan x="201.1" dy="1.2em" class="l">Detection &amp; </tspan><tspan x="206.6" dy="1.2em" class="l">Response</tspan></text></a><a target="_blank" href="https://learn.microsoft.com/windows/security/threat-protection/windows-defender-atp/microsoft-threat-experts"><rect x="416" y="1696" width="96" height="80" rx="8" ry="8" class="bf"/><text x="432.5" y="1723.4" class="u">Microsoft <tspan x="442.6" dy="1.2em" class="l">Threat </tspan><tspan x="438.3" dy="1.2em" class="l">Experts</tspan></text></a><a target="_blank" href="https://learn.microsoft.com/windows/security/threat-protection/microsoft-defender-atp/evaluation-lab"><rect x="304" y="1696" width="96" height="80" rx="8" ry="8" class="bf"/><text x="316.6" y="1731.8" class="u">Evaluation <tspan x="339.6" dy="1.2em" class="l">Lab</tspan></text></a><a target="_blank" href="https://www.microsoft.com/security/blog/2019/01/17/windows-defender-atp-integrates-with-microsoft-information-protection-to-discover-protect-and-monitor-sensitive-data-on-windows-devices/"><rect x="192" y="1792" width="96" height="80" rx="8" ry="8" class="bf"/><text x="227.6" y="1827.8" class="u">MIP <tspan x="203.8" dy="1.2em" class="l">Integration</tspan></text></a><a target="_blank" href="https://learn.microsoft.com/microsoft-365/security/defender-vulnerability-management/defender-vulnerability-management-capabilities"><rect x="416" y="1792" width="96" height="80" rx="8" ry="8" class="bf"/><text x="422" y="1819.4" class="u">Vulnerability <tspan x="421.2" dy="1.2em" class="l">Management </tspan><tspan x="444.6" dy="1.2em" class="l">(core)</tspan></text></a><a target="_blank" href="https://learn.microsoft.com/windows/security/threat-protection/windows-defender-atp/threat-analytics"><rect x="304" y="1792" width="96" height="80" rx="8" ry="8" class="bf"/><text x="330.6" y="1827.8" class="u">Threat <tspan x="320.9" dy="1.2em" class="l">Analytics</tspan></text></a><a target="_blank" href="https://learn.microsoft.com/microsoft-365/security/defender-endpoint/data-storage-privacy#how-long-will-microsoft-store-my-data-what-is-microsofts-data-retention-policy"><rect x="192" y="1888" width="96" height="80" rx="8" ry="8" class="bf"/><text x="208.9" y="1915.4" class="u">6-Months <tspan x="202.6" dy="1.2em" class="l">Searchable </tspan><tspan x="224.8" dy="1.2em" class="l">Data</tspan></text></a><a target="_blank" href="https://learn.microsoft.com/windows/security/threat-protection/microsoft-defender-atp/microsoft-cloud-app-security-integration"><rect x="416" y="1600" width="96" height="80" rx="8" ry="8" class="bf"/><text x="422.4" y="1627.4" class="u">Defender for <tspan x="424.7" dy="1.2em" class="l">Cloud Apps </tspan><tspan x="427.8" dy="1.2em" class="l">Integration</tspan></text></a><a target="_blank" href="https://www.microsoft.com/licensing/terms/product/CALandMLEquivalencyLicenses/"><rect x="1216" y="880" width="96" height="80" rx="8" ry="8" class="y"/><text x="1232.1" y="907.4" class="u">Skype for <tspan x="1232.9" dy="1.2em" class="l">Business </tspan><tspan x="1232.9" dy="1.2em" class="l">Plus CAL</tspan></text></a><rect x="160" y="560" width="384" height="496" rx="8" ry="8" class="bg"/><rect x="176" y="576" width="352" height="240" rx="8" ry="8" class="bh"/><a target="_blank" href="https://learn.microsoft.com/office365/servicedescriptions/office-365-advanced-threat-protection-service-description#feature-availability-across-advanced-threat-protection-atp-plans"><rect x="160" y="1008" width="384" height="48" rx="8" ry="8" class="o"/><text x="268.8" y="1027.2" class="x">Defender for Office 365 <tspan x="329.3" dy="1.2em" class="l">Plan 2</tspan></text></a><a target="_blank" href="https://learn.microsoft.com/office365/securitycompliance/threat-trackers"><rect x="416" y="928" width="96" height="80" rx="8" ry="8" class="y"/><text x="442.6" y="963.8" class="u">Threat <tspan x="434.8" dy="1.2em" class="l">Trackers</tspan></text></a><a target="_blank" href="https://learn.microsoft.com/microsoft-365/security/office-365-security/attack-simulation-training-get-started"><rect x="192" y="832" width="96" height="80" rx="8" ry="8" class="y"/><text x="218.6" y="859.4" class="u">Attack <tspan x="204.2" dy="1.2em" class="l">Simulation </tspan><tspan x="212.4" dy="1.2em" class="l">Training</tspan></text></a><a target="_blank" href="https://learn.microsoft.com/microsoft-365/security/office-365-security/threat-explorer"><rect x="304" y="928" width="96" height="80" rx="8" ry="8" class="y"/><text x="330.6" y="963.8" class="u">Threat <tspan x="323.6" dy="1.2em" class="l">Explorer</tspan></text></a><a target="_blank" href="https://learn.microsoft.com/microsoft-365/security/office-365-security/automated-investigation-response-office"><rect x="304" y="832" width="96" height="80" rx="8" ry="8" class="y"/><text x="315.4" y="859.4" class="u">Automated <tspan x="308.8" dy="1.2em" class="l">Investigation </tspan><tspan x="311.6" dy="1.2em" class="l">&amp; Response</tspan></text></a><a target="_blank" href="https://learn.microsoft.com/microsoft-365/security/office-365-security/atp-safe-links"><rect x="304" y="688" width="96" height="80" rx="8" ry="8" class="y"/><text x="317" y="732.2" class="u">Safe Links</text></a><a target="_blank" href="https://learn.microsoft.com/microsoft-365/security/office-365-security/atp-safe-attachments"><rect x="192" y="688" width="96" height="80" rx="8" ry="8" class="y"/><text x="225.2" y="723.8" class="u">Safe <tspan x="197.6" dy="1.2em" class="l">Attachments</tspan></text></a><a target="_blank" href="https://learn.microsoft.com/microsoft-365/security/office-365-security/atp-anti-phishing"><rect x="192" y="592" width="96" height="80" rx="8" ry="8" class="y"/><text x="224.1" y="627.8" class="u">Anti-<tspan x="210.4" dy="1.2em" class="l">Phishing</tspan></text></a><a target="_blank" href="https://learn.microsoft.com/office365/servicedescriptions/office-365-advanced-threat-protection-service-description#feature-availability-across-advanced-threat-protection-atp-plans"><rect x="176" y="768" width="352" height="48" rx="8" ry="8" class="o"/><text x="268.8" y="787.2" class="x">Defender for Office 365 <tspan x="329.3" dy="1.2em" class="l">Plan 1</tspan></text></a><a target="_blank" href="https://learn.microsoft.com/microsoft-365/security/office-365-security/address-compromised-users-quickly"><rect x="192" y="928" width="96" height="80" rx="8" ry="8" class="y"/><text x="196.3" y="956.3" class="ba">Compromised <tspan x="225.6" dy="1.2em" class="l">User </tspan><tspan x="210.4" dy="1.2em" class="l">Detection</tspan></text></a><a target="_blank" href="https://learn.microsoft.com/microsoft-365/security/office-365-security/campaigns"><rect x="416" y="832" width="96" height="80" rx="8" ry="8" class="y"/><text x="430.2" y="867.8" class="u">Campaign <tspan x="444.2" dy="1.2em" class="l">Views</tspan></text></a><a target="_blank" href="https://learn.microsoft.com/microsoft-365/security/office-365-security/view-reports-for-mdo"><rect x="416" y="592" width="96" height="80" rx="8" ry="8" class="y"/><text x="430.6" y="627.8" class="u">Real-Time <tspan x="437.6" dy="1.2em" class="l">Reports</tspan></text></a><a target="_blank" href="https://learn.microsoft.com/office365/servicedescriptions/exchange-online-protection-service-description/exchange-online-protection-service-description"><rect x="304" y="592" width="96" height="80" rx="8" ry="8" class="y"/><text x="318.9" y="619.4" class="u">Exchange <tspan x="330.2" dy="1.2em" class="l">Online </tspan><tspan x="317.4" dy="1.2em" class="l">Protection</tspan></text></a><a target="_blank" href="https://learn.microsoft.com/microsoft-365/compliance/sit-learn-about-exact-data-match-based-sits"><rect x="640" y="880" width="96" height="80" rx="8" ry="8" class="y"/><text x="652.2" y="915.8" class="u">Exact Data <tspan x="667.8" dy="1.2em" class="l">Match</tspan></text></a><a target="_blank" href="https://learn.microsoft.com/azure/active-directory/identity-protection/howto-identity-protection-configure-mfa-policy"><rect x="192" y="1360" width="96" height="80" rx="8" ry="8" class="t"/><text x="224.8" y="1387.4" class="u">MFA <tspan x="199.2" dy="1.2em" class="l">Registration </tspan><tspan x="219.4" dy="1.2em" class="l">Policy</tspan></text></a><a target="_blank" href="https://azure.microsoft.com/offers/sentinel-microsoft-365-offer/"><rect x="416" y="432" width="96" height="80" rx="8" ry="8" class="w"/><text x="436.8" y="467.8" class="u">Sentinel <tspan x="440.3" dy="1.2em" class="l">Benefit</tspan></text></a><path d="M0 2224 L48 2224" class="bi" transform="translate(992,-1592) rotate(1.9E-05)"/><path d="M0 2224 L48 2224" class="bi" transform="translate(848,-1592)"/><a target="_blank" href="https://learn.microsoft.com/office365/servicedescriptions/microsoft-365-service-descriptions/microsoft-365-tenantlevel-services-licensing-guidance/microsoft-365-security-compliance-licensing-guidance#which-templates-are-included-by-default-free-of-cost"><rect x="752" y="592" width="96" height="80" rx="8" ry="8" class="y"/><text x="760.3" y="611" class="u">3x Premium <tspan x="767" dy="1.2em" class="l">&amp; Custom </tspan><tspan x="760.3" dy="1.2em" class="l">Compliance </tspan><tspan x="765.4" dy="1.2em" class="l">Templates</tspan></text></a><a target="_blank" href="https://learn.microsoft.com/office365/servicedescriptions/microsoft-365-service-descriptions/microsoft-365-tenantlevel-services-licensing-guidance/microsoft-365-security-compliance-licensing-guidance#which-templates-are-included-by-default-free-of-cost"><rect x="896" y="592" width="96" height="80" rx="8" ry="8" class="y"/><text x="904.3" y="611" class="u">3x Premium <tspan x="911" dy="1.2em" class="l">&amp; Custom </tspan><tspan x="904.3" dy="1.2em" class="l">Compliance </tspan><tspan x="909.4" dy="1.2em" class="l">Templates</tspan></text></a><a target="_blank" href="https://learn.microsoft.com/office365/servicedescriptions/microsoft-365-service-descriptions/microsoft-365-tenantlevel-services-licensing-guidance/microsoft-365-security-compliance-licensing-guidance#which-templates-are-included-by-default-free-of-cost"><rect x="1040" y="592" width="96" height="80" rx="8" ry="8" class="y"/><text x="1048.3" y="611" class="u">3x Premium <tspan x="1055" dy="1.2em" class="l">&amp; Custom </tspan><tspan x="1048.3" dy="1.2em" class="l">Compliance </tspan><tspan x="1053.4" dy="1.2em" class="l">Templates</tspan></text></a></svg>