<svg xmlns="http://www.w3.org/2000/svg" width="752" height="576" viewBox="0 0 752 576" class="a"><style>
.b {fill:#a5a5a5;fill-opacity:0.2;stroke:#303040;stroke-linecap:round;stroke-linejoin:round;stroke-width:2.2}
.c {fill:#a5a5a5;fill-opacity:0.2;stroke:#403050;stroke-dasharray:15.8,11.2;stroke-linecap:round;stroke-linejoin:round;stroke-width:2.2}
.d {fill:#403050;stroke:#403050;stroke-linecap:round;stroke-linejoin:round;stroke-width:2.2}
.e {fill:#ffffff;font-family:Arial;font-size:1.5em;font-weight:bold}
.f {fill:#303040;stroke:#303040;stroke-linecap:round;stroke-linejoin:round;stroke-width:2.2}
.g {fill:none;stroke:none;stroke-linecap:round;stroke-linejoin:round;stroke-width:1}
.h {fill:#000000;font-family:Arial;font-size:1.5em}
.i {fill:#9050d0;stroke:none;stroke-linecap:round;stroke-linejoin:round;stroke-width:0.5}
.j {fill:#ffffff;font-family:Arial;font-size:1.2em;font-weight:bold}
.k {font-size:1em}
.l {fill:#7030a0;stroke:none;stroke-linecap:round;stroke-linejoin:round;stroke-width:0.5}
.m {fill:none;stroke:none;stroke-linecap:round;stroke-linejoin:round;stroke-width:0.8}
.n {fill:#7f7f7f;font-family:Arial;font-size:1em}
.o {fill:#ffffff;font-family:Arial;font-size:1.1em;font-weight:bold}
.a {fill:none;fill-rule:evenodd;font-size:12px;overflow:visible;stroke-linecap:square;stroke-miterlimit:3}
</style><rect x="16" y="16" width="720" height="544" rx="8" ry="8" class="b"/><rect x="32" y="80" width="688" height="176" rx="8" ry="8" class="c"/><a target="_blank" href="https://www.microsoft.com/microsoft-teams/microsoft-teams-rooms"><rect x="32" y="80" width="688" height="48" rx="8" ry="8" class="d"/><text x="245" y="109.4" class="e">Microsoft Teams Rooms Basic</text></a><a target="_blank" href="https://www.microsoft.com/microsoft-teams/microsoft-teams-rooms"><rect x="16" y="16" width="720" height="48" rx="8" ry="8" class="f"/><text x="254" y="45.4" class="e">Microsoft Teams Rooms Pro</text></a><a target="_blank" href="https://www.microsoft.com/microsoft-teams/microsoft-teams-rooms#office-ContentAreaHeadingTemplate-njol7nz"><rect x="32" y="224" width="688" height="32" rx="8" ry="8" class="g"/><text x="99.4" y="245.4" class="h">No charge with certified room hardware. Limit of 25 rooms per tenant.</text></a><a target="_blank" href="https://learn.microsoft.com/microsoft-365/whiteboard/"><rect x="496" y="144" width="96" height="80" rx="8" ry="8" class="i"/><text x="512.5" y="179.8" class="j">Microsoft <tspan x="505.5" dy="1.2em" class="k">Whiteboard</tspan></text></a><a target="_blank" href="https://learn.microsoft.com/microsoftteams/rooms/rooms-licensing#device-management"><rect x="160" y="144" width="96" height="80" rx="8" ry="8" class="i"/><text x="173.8" y="179.8" class="j">Automatic <tspan x="180.4" dy="1.2em" class="k">Updates</tspan></text></a><a target="_blank" href="https://azure.microsoft.com/pricing/details/active-directory/"><rect x="48" y="272" width="96" height="80" rx="8" ry="8" class="l"/><text x="64.5" y="299.4" class="j">Azure AD <tspan x="66" dy="1.2em" class="k">Premium </tspan><tspan x="75.4" dy="1.2em" class="k">Plan 1</tspan></text></a><a target="_blank" href="https://learn.microsoft.com/mem/intune/fundamentals/what-is-intune"><rect x="48" y="368" width="96" height="80" rx="8" ry="8" class="l"/><text x="75" y="412.2" class="j">Intune</text></a><a target="_blank" href="https://learn.microsoft.com/MicrosoftTeams/what-is-phone-system-in-office-365"><rect x="384" y="464" width="96" height="80" rx="8" ry="8" class="l"/><text x="409.8" y="499.8" class="j">Teams <tspan x="410.6" dy="1.2em" class="k">Phone</tspan></text></a><a target="_blank" href="https://learn.microsoft.com/microsoftteams/rooms/third-party-join"><rect x="272" y="144" width="96" height="80" rx="8" ry="8" class="i"/><text x="281.1" y="171.4" class="j">Join Webex <tspan x="286.6" dy="1.2em" class="k">and Zoom </tspan><tspan x="289.7" dy="1.2em" class="k">Meetings</tspan></text></a><a target="_blank" href="https://learn.microsoft.com/microsoftteams/devices/check-in-and-room-release"><rect x="272" y="464" width="96" height="80" rx="8" ry="8" class="l"/><text x="277.2" y="499.8" class="j">Teams Panel <tspan x="290.4" dy="1.2em" class="k">Check</tspan>-In</text></a><a target="_blank" href="https://learn.microsoft.com/MicrosoftTeams/what-is-phone-system-in-office-365"><rect x="160" y="272" width="96" height="80" rx="8" ry="8" class="l"/><text x="181.6" y="299.4" class="j">Content <tspan x="182.3" dy="1.2em" class="k">Camera </tspan><tspan x="181.2" dy="1.2em" class="k">Support</tspan></text></a><a target="_blank" href="https://www.microsoft.com/microsoft-teams/microsoft-teams-rooms/compare-rooms-plans"><rect x="160" y="464" width="96" height="80" rx="8" ry="8" class="l"/><text x="178" y="499.8" class="j">SIP/H323 <tspan x="181.2" dy="1.2em" class="k">Support</tspan></text></a><a target="_blank" href="https://learn.microsoft.com/microsoftteams/rooms/rooms-licensing#intelligent-audio-and-video"><rect x="608" y="272" width="96" height="80" rx="8" ry="8" class="l"/><text x="622.9" y="299.4" class="j">Intelligent <tspan x="629.2" dy="1.2em" class="k">Audio &amp; </tspan><tspan x="636.9" dy="1.2em" class="k">Video</tspan></text></a><a target="_blank" href="https://m365maps.com/"><rect y="560" width="752" height="16" class="m"/><text x="662.6" y="571.6" class="n">m365maps.com</text></a><a target="_blank" href="https://learn.microsoft.com/microsoftteams/rooms/microsoft-teams-rooms-premium#service-capabilities"><rect x="608" y="368" width="96" height="80" rx="8" ry="8" class="l"/><text x="636.2" y="395.4" class="j">Room <tspan x="619.4" dy="1.2em" class="k">Planning &amp; </tspan><tspan x="631.9" dy="1.2em" class="k">Rollout</tspan></text></a><a target="_blank" href="https://learn.microsoft.com/microsoftteams/rooms/microsoft-teams-rooms-premium#service-features"><rect x="272" y="368" width="96" height="80" rx="8" ry="8" class="l"/><text x="283.8" y="395.4" class="j">Monitoring <tspan x="277.6" dy="1.2em" class="k">and Trouble</tspan>-<tspan x="290.4" dy="1.2em" class="k">shooting</tspan></text></a><a target="_blank" href="https://learn.microsoft.com/microsoftteams/rooms/microsoft-teams-rooms-premium#service-capabilities"><rect x="48" y="464" width="96" height="80" rx="8" ry="8" class="l"/><text x="52.4" y="499.8" class="j">Service Desk <tspan x="59.8" dy="1.2em" class="k">Integration</tspan></text></a><a target="_blank" href="https://learn.microsoft.com/microsoftteams/rooms/microsoft-teams-rooms-premium#service-features"><rect x="496" y="464" width="96" height="80" rx="8" ry="8" class="l"/><text x="520.3" y="499.8" class="j">Update <tspan x="501.2" dy="1.2em" class="k">Management</tspan></text></a><a target="_blank" href="https://learn.microsoft.com/microsoftteams/rooms/health-and-usage-reports"><rect x="496" y="272" width="96" height="80" rx="8" ry="8" class="l"/><text x="508.2" y="299.4" class="j">Health and <tspan x="523" dy="1.2em" class="k">Usage </tspan><tspan x="517.6" dy="1.2em" class="k">Reports</tspan></text></a><a target="_blank" href="https://learn.microsoft.com/microsoftteams/rooms/admin-center-license-overview"><rect x="608" y="144" width="96" height="80" rx="8" ry="8" class="i"/><text x="633.8" y="171.4" class="j">Teams <tspan x="632.3" dy="1.2em" class="k">Rooms </tspan><tspan x="634.2" dy="1.2em" class="k">Admin</tspan></text></a><a target="_blank" href="https://learn.microsoft.com/microsoftteams/rooms/rooms-licensing#meeting-engagement"><rect x="160" y="368" width="96" height="80" rx="8" ry="8" class="l"/><text x="188.9" y="395.4" class="j">Large <tspan x="184.3" dy="1.2em" class="k">Gallery </tspan><tspan x="181.2" dy="1.2em" class="k">Support</tspan></text></a><a target="_blank" href="https://learn.microsoft.com/microsoftteams/rooms/rooms-licensing#meeting-engagement"><rect x="272" y="272" width="96" height="80" rx="8" ry="8" class="l"/><text x="279.5" y="307.8" class="j">Dual Screen <tspan x="293.2" dy="1.2em" class="k">Support</tspan></text></a><a target="_blank" href="https://learn.microsoft.com/microsoftteams/rooms/admin-center-license-overview#comparison-of-teams-rooms-feature-availability-by-license"><rect x="384" y="272" width="96" height="80" rx="8" ry="8" class="l"/><text x="393.9" y="307.8" class="j">Graph APIs <tspan x="399" dy="1.2em" class="k">for Admin</tspan></text></a><a target="_blank" href="https://learn.microsoft.com/microsoftteams/rooms/multi-tenant-auditing"><rect x="496" y="368" width="96" height="80" rx="8" ry="8" class="l"/><text x="524.2" y="395.4" class="j">Room <tspan x="518.7" dy="1.2em" class="k">Activity </tspan><tspan x="507.4" dy="1.2em" class="k">Audit Logs</tspan></text></a><a target="_blank" href="https://learn.microsoft.com/microsoftteams/rooms/multi-tenant-management-customer"><rect x="384" y="368" width="96" height="80" rx="8" ry="8" class="l"/><text x="407.5" y="403.8" class="j">Partner <tspan x="389.2" dy="1.2em" class="k">Management</tspan></text></a><a target="_blank" href="https://learn.microsoft.com/microsoftteams/audio-conferencing-in-office-365"><rect x="48" y="144" width="96" height="80" rx="8" ry="8" class="i"/><text x="77.6" y="172.3" class="o">Audio <tspan x="54.1" dy="1.2em" class="k">Conferencing </tspan><tspan x="81.9" dy="1.2em" class="k">(full)</tspan></text></a><a target="_blank" href="https://products.office.com/microsoft-teams/"><rect x="384" y="144" width="96" height="80" rx="8" ry="8" class="i"/><text x="400.5" y="179.8" class="j">Microsoft <tspan x="409.8" dy="1.2em" class="k">Teams</tspan></text></a></svg>