<svg xmlns="http://www.w3.org/2000/svg" width="640" height="464" viewBox="0 0 640 464" class="a"><style>
.b {fill:none;stroke:none;stroke-linecap:round;stroke-linejoin:round;stroke-width:0.8}
.c {fill:#7f7f7f;font-family:Arial;font-size:1em}
.d {fill:#a5a5a5;fill-opacity:0.2;stroke:#3f3f3f;stroke-linecap:round;stroke-linejoin:round;stroke-width:2.2}
.e {fill:#a5a5a5;fill-opacity:0.2;stroke:#595959;stroke-dasharray:15.8,11.2;stroke-linecap:round;stroke-linejoin:round;stroke-width:2.2}
.f {fill:#595959;stroke:none;stroke-linecap:round;stroke-linejoin:round;stroke-width:0.5}
.g {fill:#ffffff;font-family:Arial;font-size:1.2em;font-weight:bold}
.h {font-size:1em}
.i {fill:#ffffff;font-family:Arial;font-size:1.1em;font-weight:bold}
.j {fill:#3f3f3f;stroke:none;stroke-linecap:round;stroke-linejoin:round;stroke-width:0.5}
.k {fill:#595959;stroke:#595959;stroke-linecap:round;stroke-linejoin:round;stroke-width:2.2}
.l {fill:#ffffff;font-family:Arial;font-size:1.7em;font-weight:bold}
.m {fill:#3f3f3f;stroke:#3f3f3f;stroke-linecap:round;stroke-linejoin:round;stroke-width:2.2}
.a {fill:none;fill-rule:evenodd;font-size:12px;overflow:visible;stroke-linecap:square;stroke-miterlimit:3}
</style><a target="_blank" href="https://m365maps.com/"><rect y="448" width="640" height="16" class="b"/><text x="550.6" y="459.6" class="c">m365maps.com</text></a><rect x="16" y="16" width="608" height="432" rx="8" ry="8" class="d"/><rect x="32" y="80" width="576" height="160" rx="8" ry="8" class="e"/><a target="_blank" href="https://learn.microsoft.com/MicrosoftTeams/what-is-phone-system-in-office-365"><rect x="496" y="144" width="96" height="80" rx="8" ry="8" class="f"/><text x="521.8" y="179.8" class="g">Teams <tspan x="522.6" dy="1.2em" class="h">Phone</tspan></text></a><a target="_blank" href="https://learn.microsoft.com/microsoftteams/audio-conferencing-in-office-365"><rect x="48" y="144" width="96" height="80" rx="8" ry="8" class="f"/><text x="77.6" y="172.3" class="i">Audio <tspan x="54.1" dy="1.2em" class="h">Conferencing </tspan><tspan x="81.9" dy="1.2em" class="h">(full)</tspan></text></a><a target="_blank" href="https://products.office.com/microsoft-teams/"><rect x="384" y="144" width="96" height="80" rx="8" ry="8" class="f"/><text x="400.5" y="179.8" class="g">Microsoft <tspan x="409.8" dy="1.2em" class="h">Teams</tspan></text></a><a target="_blank" href="https://learn.microsoft.com/microsoftteams/rooms/microsoft-teams-rooms-premium#service-capabilities"><rect x="272" y="352" width="96" height="80" rx="8" ry="8" class="j"/><text x="300.2" y="379.4" class="g">Room <tspan x="283.4" dy="1.2em" class="h">Planning &amp; </tspan><tspan x="295.9" dy="1.2em" class="h">Rollout</tspan></text></a><a target="_blank" href="https://learn.microsoft.com/microsoftteams/rooms/microsoft-teams-rooms-premium#service-features"><rect x="496" y="256" width="96" height="80" rx="8" ry="8" class="j"/><text x="507.8" y="283.4" class="g">Monitoring <tspan x="501.6" dy="1.2em" class="h">and Trouble</tspan>-<tspan x="514.4" dy="1.2em" class="h">shooting</tspan></text></a><a target="_blank" href="https://learn.microsoft.com/microsoftteams/rooms/microsoft-teams-rooms-premium#service-features"><rect x="384" y="352" width="96" height="80" rx="8" ry="8" class="j"/><text x="404.4" y="379.4" class="g">Security <tspan x="408.3" dy="1.2em" class="h">Update </tspan><tspan x="389.2" dy="1.2em" class="h">Management</tspan></text></a><a target="_blank" href="https://learn.microsoft.com/microsoftteams/rooms/microsoft-teams-rooms-premium#service-features"><rect x="272" y="256" width="96" height="80" rx="8" ry="8" class="j"/><text x="278.8" y="291.8" class="g">Insights and <tspan x="278" dy="1.2em" class="h">Suggestions</tspan></text></a><a target="_blank" href="https://learn.microsoft.com/microsoftteams/rooms/microsoft-teams-rooms-premium#customer-support"><rect x="48" y="256" width="96" height="80" rx="8" ry="8" class="j"/><text x="63.3" y="291.8" class="g">Customer <tspan x="69.2" dy="1.2em" class="h">Support</tspan></text></a><a target="_blank" href="https://learn.microsoft.com/mem/intune/fundamentals/what-is-intune"><rect x="272" y="144" width="96" height="80" rx="8" ry="8" class="f"/><text x="288.5" y="179.8" class="g">Microsoft <tspan x="299" dy="1.2em" class="h">Intune</tspan></text></a><a target="_blank" href="https://learn.microsoft.com/microsoftteams/rooms/microsoft-teams-rooms-premium#service-capabilities"><rect x="496" y="352" width="96" height="80" rx="8" ry="8" class="j"/><text x="500.4" y="387.8" class="g">Service Desk <tspan x="507.8" dy="1.2em" class="h">Integration</tspan></text></a><a target="_blank" href="https://learn.microsoft.com/microsoftteams/rooms/microsoft-teams-rooms-premium#service-features"><rect x="384" y="256" width="96" height="80" rx="8" ry="8" class="j"/><text x="400.5" y="291.8" class="g">Inventory <tspan x="389.2" dy="1.2em" class="h">Management</tspan></text></a><a target="_blank" href="https://learn.microsoft.com/microsoftteams/rooms/microsoft-teams-rooms-premium#service-features"><rect x="160" y="352" width="96" height="80" rx="8" ry="8" class="j"/><text x="188.2" y="387.8" class="g">Room <tspan x="173.4" dy="1.2em" class="h">Enrolment</tspan></text></a><a target="_blank" href="https://learn.microsoft.com/microsoftteams/rooms/microsoft-teams-rooms-premium#service-features"><rect x="48" y="352" width="96" height="80" rx="8" ry="8" class="j"/><text x="52.4" y="396.2" class="g">Room Admin</text></a><a target="_blank" href="https://learn.microsoft.com/microsoftteams/rooms/microsoft-teams-rooms-premium#service-features"><rect x="160" y="256" width="96" height="80" rx="8" ry="8" class="j"/><text x="185.4" y="283.4" class="g">Device <tspan x="184.3" dy="1.2em" class="h">Update </tspan><tspan x="165.2" dy="1.2em" class="h">Management</tspan></text></a><a target="_blank" href="https://learn.microsoft.com/microsoftteams/rooms/"><rect x="32" y="80" width="576" height="48" rx="8" ry="8" class="k"/><text x="157.8" y="110" class="l">Microsoft Teams Rooms Standard</text></a><a target="_blank" href="https://learn.microsoft.com/microsoftteams/rooms/microsoft-teams-rooms-premium"><rect x="16" y="16" width="608" height="48" rx="8" ry="8" class="m"/><text x="158.3" y="46" class="l">Microsoft Teams Rooms Premium</text></a><a target="_blank" href="https://azure.microsoft.com/pricing/details/active-directory/"><rect x="160" y="144" width="96" height="80" rx="8" ry="8" class="f"/><text x="176.5" y="171.4" class="g">Azure AD <tspan x="178" dy="1.2em" class="h">Premium </tspan><tspan x="187.4" dy="1.2em" class="h">Plan 1</tspan></text></a><a target="_blank" href="https://m365maps.com/"><rect width="640" height="16" class="b"/><text x="4" y="11.6" class="c">Discontinued</text></a></svg>