<svg xmlns="http://www.w3.org/2000/svg" width="1168" height="1184" viewBox="0 0 1168 1184" class="a"><style>
.b {fill:#a5a5a5;fill-opacity:0.2;stroke:#d04a00;stroke-linecap:round;stroke-linejoin:round;stroke-width:2.2}
.c {fill:#a5a5a5;fill-opacity:0.2;stroke:#e82200;stroke-dasharray:15.8,11.2;stroke-linecap:round;stroke-linejoin:round;stroke-width:2.2}
.d {fill:#d04a00;stroke:#d04a00;stroke-linecap:round;stroke-linejoin:round;stroke-width:2.2}
.e {fill:#ffffff;font-family:Arial;font-size:1.7em;font-weight:bold}
.f {fill:#e82200;stroke:none;stroke-linecap:round;stroke-linejoin:round;stroke-width:1}
.g {fill:#ffffff;font-family:Arial;font-size:1.2em;font-weight:bold}
.h {font-size:1em}
.i {fill:#ffffff;font-family:Arial;font-size:1.1em;font-weight:bold}
.j {fill:none;stroke:none;stroke-linecap:round;stroke-linejoin:round;stroke-width:1}
.k {fill:#000000;font-family:Arial;font-size:1.2em;font-weight:bold}
.l {fill:#0070c0;font-family:Arial;font-size:1.2em;font-weight:bold}
.m {fill:#e82200;stroke:#e82200;stroke-linecap:round;stroke-linejoin:round;stroke-width:2.2}
.n {fill:#a5a5a5;fill-opacity:0.2;stroke:#d04a00;stroke-dasharray:2.2,4.5;stroke-linecap:round;stroke-linejoin:round;stroke-width:2.2}
.o {fill:#a5a5a5;fill-opacity:0.2;stroke:#d04a00;stroke-dasharray:15.8,11.2;stroke-linecap:round;stroke-linejoin:round;stroke-width:2.2}
.p {fill:#000000;font-family:Arial;font-size:1.3em}
.q {fill:#d04a00;stroke:none;stroke-linecap:round;stroke-linejoin:round;stroke-width:1}
.r {fill:none;stroke:none;stroke-linecap:round;stroke-linejoin:round;stroke-width:0.8}
.s {fill:#7f7f7f;font-family:Arial;font-size:1em}
.a {fill:none;fill-rule:evenodd;font-size:12px;overflow:visible;stroke-linecap:square;stroke-miterlimit:3}
</style><rect x="16" y="16" width="1136" height="1120" rx="8" ry="8" class="b"/><rect x="48" y="576" width="1008" height="528" rx="8" ry="8" class="c"/><a target="_blank" href="https://www.microsoft.com/microsoft-365/enterprise/compare-office-365-plans" transform="translate(-32,1136) rotate(-90)"><rect y="1120" width="1120" height="64" rx="8" ry="8" class="d"/><text x="496.1" y="1158" class="e">Office 365 G5</text></a><a target="_blank" href="https://www.microsoft.com/microsoft-365/business/microsoft-365-apps-for-enterprise-product"><rect x="144" y="800" width="96" height="80" rx="8" ry="8" class="f"/><text x="160.5" y="827.4" class="g">Microsoft <tspan x="149.6" dy="1.2em" class="h">365 Apps for </tspan><tspan x="157.4" dy="1.2em" class="h">Enterprise</tspan></text></a><a target="_blank" href="https://products.office.com/business/task-management-software"><rect x="592" y="896" width="96" height="80" rx="8" ry="8" class="f"/><text x="614.3" y="940.2" class="g">Planner</text></a><a target="_blank" href="https://learn.microsoft.com/microsoftteams/teams-live-events/what-are-teams-live-events"><rect x="928" y="704" width="96" height="80" rx="8" ry="8" class="f"/><text x="937.1" y="748.2" class="g">Live Events</text></a><a target="_blank" href="https://learn.microsoft.com/viva/insights/personal/overview/plans-environments"><rect x="704" y="704" width="96" height="80" rx="8" ry="8" class="f"/><text x="715" y="739.8" class="g">Insights by <tspan x="711.2" dy="1.2em" class="h">MyAnalytics</tspan></text></a><a target="_blank" href="https://products.office.com/yammer/yammer-overview"><rect x="704" y="992" width="96" height="80" rx="8" ry="8" class="f"/><text x="724.4" y="1019.4" class="g">Yammer <tspan x="717.4" dy="1.2em" class="h">Enterprise  </tspan><tspan x="708.5" dy="1.2em" class="h">(GCC option)</tspan></text></a><a target="_blank" href="https://products.office.com/microsoft-teams/"><rect x="704" y="800" width="96" height="80" rx="8" ry="8" class="f"/><text x="720.5" y="835.8" class="g">Microsoft <tspan x="729.8" dy="1.2em" class="h">Teams</tspan></text></a><a target="_blank" href="https://learn.microsoft.com/stream/"><rect x="480" y="992" width="96" height="80" rx="8" ry="8" class="f"/><text x="493" y="1027.8" class="g">Stream for <tspan x="494.5" dy="1.2em" class="h">Office 365</tspan></text></a><a target="_blank" href="https://learn.microsoft.com/sharepoint/introduction"><rect x="368" y="992" width="96" height="80" rx="8" ry="8" class="f"/><text x="379" y="1019.4" class="g">SharePoint <tspan x="394.2" dy="1.2em" class="h">Online </tspan><tspan x="395.4" dy="1.2em" class="h">Plan 2</tspan></text></a><a target="_blank" href="https://learn.microsoft.com/office365/servicedescriptions/onedrive-for-business-service-description"><rect x="480" y="896" width="96" height="80" rx="8" ry="8" class="f"/><text x="485.6" y="923.4" class="g">OneDrive for <tspan x="496.9" dy="1.2em" class="h">Business </tspan><tspan x="507.4" dy="1.2em" class="h">Plan 2</tspan></text></a><a target="_blank" href="https://powerapps.microsoft.com/"><rect x="704" y="896" width="96" height="80" rx="8" ry="8" class="f"/><text x="711.6" y="923.4" class="g">Power Apps<tspan x="742.7" dy="1.2em" class="h">for </tspan><tspan x="718.5" dy="1.2em" class="h">Office 365</tspan></text></a><a target="_blank" href="https://support.office.com/forms"><rect x="368" y="800" width="96" height="80" rx="8" ry="8" class="f"/><text x="384.5" y="835.8" class="g">Microsoft <tspan x="394.6" dy="1.2em" class="h">Forms</tspan></text></a><a target="_blank" href="https://support.microsoft.com/office/1315665a-c6af-4409-a28d-49f8916878ca"><rect x="928" y="608" width="96" height="80" rx="8" ry="8" class="f"/><text x="957.3" y="652.2" class="g">Delve</text></a><a target="_blank" href="https://powerautomate.microsoft.com/"><rect x="816" y="896" width="96" height="80" rx="8" ry="8" class="f"/><text x="843" y="923.4" class="g">Power <tspan x="820.4" dy="1.2em" class="h">Automate for</tspan><tspan x="830.5" dy="1.2em" class="h">Office 365</tspan></text></a><a target="_blank" href="https://learn.microsoft.com/office365/securitycompliance/data-loss-prevention-policies"><rect x="816" y="608" width="96" height="80" rx="8" ry="8" class="f"/><text x="830.6" y="643.8" class="g">Data Loss <tspan x="827.8" dy="1.2em" class="h">Prevention</tspan></text></a><a target="_blank" href="https://learn.microsoft.com/microsoft-365/compliance/retention"><rect x="256" y="992" width="96" height="80" rx="8" ry="8" class="f"/><text x="271.7" y="1019.4" class="g">Retention <tspan x="274.8" dy="1.2em" class="h">Labels &amp; </tspan><tspan x="277.5" dy="1.2em" class="h">Policies</tspan></text></a><a target="_blank" href="https://learn.microsoft.com/office365/servicedescriptions/exchange-online-protection-service-description/exchange-online-protection-service-description"><rect x="368" y="704" width="96" height="80" rx="8" ry="8" class="f"/><text x="382.9" y="731.4" class="g">Exchange <tspan x="394.2" dy="1.2em" class="h">Online </tspan><tspan x="381.4" dy="1.2em" class="h">Protection</tspan></text></a><a target="_blank" href="https://learn.microsoft.com/microsoft-365/compliance/get-started-core-ediscovery"><rect x="144" y="704" width="96" height="80" rx="8" ry="8" class="f"/><text x="154.6" y="739.8" class="g">eDiscovery <tspan x="157.8" dy="1.2em" class="h">(standard)</tspan></text></a><a target="_blank" href="https://products.office.com/en/business/microsoft-kaizala"><rect x="816" y="704" width="96" height="80" rx="8" ry="8" class="f"/><text x="826.3" y="739.8" class="g">Kaizala Pro <tspan x="835.2" dy="1.2em" class="h">(retiring)</tspan></text></a><a target="_blank" href="https://learn.microsoft.com/office365/servicedescriptions/exchange-online-service-description/exchange-online-service-description#feature-availability-across-exchange-online-standalone-plans"><rect x="256" y="704" width="96" height="80" rx="8" ry="8" class="f"/><text x="270.9" y="731.4" class="g">Exchange <tspan x="282.2" dy="1.2em" class="h">Online </tspan><tspan x="283.4" dy="1.2em" class="h">Plan 2</tspan></text></a><a target="_blank" href="https://learn.microsoft.com/powerapps/teams/overview-data-platform"><rect x="256" y="800" width="96" height="80" rx="8" ry="8" class="f"/><text x="272.5" y="827.4" class="g">Microsoft <tspan x="270.5" dy="1.2em" class="h">Dataverse </tspan><tspan x="270.6" dy="1.2em" class="h">for Teams</tspan></text></a><a target="_blank" href="https://www.microsoft.com/microsoft-365/microsoft-lists"><rect x="480" y="800" width="96" height="80" rx="8" ry="8" class="f"/><text x="496.5" y="835.8" class="g">Microsoft <tspan x="511.7" dy="1.2em" class="h">Lists</tspan></text></a><a target="_blank" href="https://learn.microsoft.com/microsoft-365/bookings/bookings-overview"><rect x="704" y="608" width="96" height="80" rx="8" ry="8" class="f"/><text x="720.1" y="652.2" class="g">Bookings</text></a><a target="_blank" href="https://www.microsoft.com/download/details.aspx?id=48734"><rect x="480" y="704" width="96" height="80" rx="8" ry="8" class="f"/><text x="500" y="739.8" class="g">InfoPath <tspan x="514.4" dy="1.2em" class="h">App</tspan></text></a><a target="_blank" href="https://learn.microsoft.com/microsoft-365/compliance/search-the-audit-log-in-security-and-compliance"><rect x="368" y="608" width="96" height="80" rx="8" ry="8" class="f"/><text x="398.1" y="643.8" class="g">Audit <tspan x="381.8" dy="1.2em" class="h">(standard)</tspan></text></a><a target="_blank" href="https://learn.microsoft.com/microsoft-365/compliance/alert-policies"><rect x="144" y="608" width="96" height="80" rx="8" ry="8" class="f"/><text x="176" y="643.8" class="g">Alert <tspan x="165.5" dy="1.2em" class="h">Policies</tspan></text></a><a target="_blank" href="https://www.microsoft.com/microsoft-365/microsoft-to-do-list-app"><rect x="816" y="800" width="96" height="80" rx="8" ry="8" class="f"/><text x="832.5" y="835.8" class="g">Microsoft <tspan x="844.2" dy="1.2em" class="h">To Do</tspan></text></a><a target="_blank" href="https://learn.microsoft.com/power-virtual-agents/teams/fundamentals-what-is-power-virtual-agents-teams"><rect x="928" y="896" width="96" height="80" rx="8" ry="8" class="f"/><text x="934.5" y="924.3" class="i">Power Virtual <tspan x="943.5" dy="1.2em" class="h">Agents for </tspan><tspan x="955.4" dy="1.2em" class="h">Teams</tspan></text></a><a target="_blank" href="https://products.office.com/mobile/office"><rect x="368" y="896" width="96" height="80" rx="8" ry="8" class="f"/><text x="396.2" y="931.8" class="g">Office <tspan x="374.4" dy="1.2em" class="h">Mobile Apps</tspan></text></a><a target="_blank" href="https://learn.microsoft.com/office365/servicedescriptions/office-online-service-description/office-online-service-description"><rect x="256" y="896" width="96" height="80" rx="8" ry="8" class="f"/><text x="284.2" y="923.4" class="g">Office<tspan x="265.5" dy="1.2em" class="h">for the Web</tspan><tspan x="268.6" dy="1.2em" class="h">(incl Visio)</tspan></text></a><g><rect x="16" y="16" width="1072" height="32" rx="8" ry="8" class="j"/><text x="34.2" y="36.2" class="k">United States Government</text></g><a target="_blank" href="https://learn.microsoft.com/office365/servicedescriptions/office-365-platform-service-description/office-365-us-government/office-365-us-government"><rect x="16" y="1136" width="1136" height="32" rx="8" ry="8" class="j"/><text x="175.2" y="1156.2" class="l">Not all features are available in GCC, GCC High, and DoD services. Refer to the service description for specific differences.</text></a><a target="_blank" href="https://www.microsoft.com/microsoft-365/enterprise/compare-office-365-plans" transform="translate(-1072,1104) rotate(-90)"><rect y="1120" width="528" height="64" rx="8" ry="8" class="m"/><text x="200.1" y="1158" class="e">Office 365 G3</text></a><a target="_blank" href="https://learn.microsoft.com/microsoft-365/admin/basic-mobility-security/capabilities"><rect x="592" y="608" width="96" height="80" rx="8" ry="8" class="f"/><text x="621.3" y="635.4" class="g">Basic <tspan x="606.6" dy="1.2em" class="h">Mobility &amp; </tspan><tspan x="612.4" dy="1.2em" class="h">Security</tspan></text></a><a target="_blank" href="https://azure.microsoft.com/pricing/details/active-directory/"><rect x="480" y="608" width="96" height="80" rx="8" ry="8" class="f"/><text x="485.2" y="643.8" class="g">Azure AD for <tspan x="494.5" dy="1.2em" class="h">Office 365</tspan></text></a><a target="_blank" href="https://learn.microsoft.com/microsoft-365/compliance/sensitivity-labels"><rect x="592" y="704" width="96" height="80" rx="8" ry="8" class="f"/><text x="601.5" y="731.4" class="g">Information <tspan x="605.4" dy="1.2em" class="h">Protection</tspan><tspan x="611.2" dy="1.2em" class="h">for M365</tspan></text></a><a target="_blank" href="https://learn.microsoft.com/microsoft-365/compliance/ome"><rect x="144" y="896" width="96" height="80" rx="8" ry="8" class="f"/><text x="158.5" y="923.4" class="g">Office 365 <tspan x="162.4" dy="1.2em" class="h">Message </tspan><tspan x="155.4" dy="1.2em" class="h">Encryption</tspan></text></a><a target="_blank" href="https://www.microsoft.com/microsoft-viva/connections"><rect x="592" y="992" width="96" height="80" rx="8" ry="8" class="f"/><text x="625.6" y="1027.8" class="g">Viva <tspan x="597.6" dy="1.2em" class="h">Connections</tspan></text></a><a target="_blank" href="https://www.microsoft.com/licensing/terms/product/CALandMLEquivalencyLicenses/"><rect x="144" y="992" width="96" height="80" rx="8" ry="8" class="f"/><text x="151.6" y="1027.8" class="g">Productivity <tspan x="153.9" dy="1.2em" class="h">Server CAL</tspan></text></a><a target="_blank" href="https://learn.microsoft.com/microsoft-365/whiteboard/"><rect x="928" y="800" width="96" height="80" rx="8" ry="8" class="f"/><text x="946.8" y="828.3" class="i">Microsoft <tspan x="940.2" dy="1.2em" class="h">Whiteboard </tspan><tspan x="933.4" dy="1.2em" class="h">(Surface Hub)</tspan></text></a><rect x="64" y="48" width="384" height="496" rx="8" ry="8" class="n"/><rect x="80" y="64" width="352" height="240" rx="8" ry="8" class="o"/><a target="_blank" href="https://learn.microsoft.com/office365/servicedescriptions/office-365-advanced-threat-protection-service-description#feature-availability-across-advanced-threat-protection-atp-plans"><rect x="64" y="496" width="384" height="48" rx="8" ry="8" class="j"/><text x="172.8" y="515.2" class="p">Defender for Office 365 <tspan x="233.3" dy="1.2em" class="h">Plan 2</tspan></text></a><a target="_blank" href="https://learn.microsoft.com/office365/securitycompliance/threat-trackers"><rect x="320" y="416" width="96" height="80" rx="8" ry="8" class="q"/><text x="346.6" y="451.8" class="g">Threat <tspan x="338.8" dy="1.2em" class="h">Trackers</tspan></text></a><a target="_blank" href="https://learn.microsoft.com/microsoft-365/security/office-365-security/attack-simulation-training-get-started"><rect x="96" y="320" width="96" height="80" rx="8" ry="8" class="q"/><text x="122.6" y="347.4" class="g">Attack <tspan x="108.2" dy="1.2em" class="h">Simulation </tspan><tspan x="116.4" dy="1.2em" class="h">Training</tspan></text></a><a target="_blank" href="https://learn.microsoft.com/microsoft-365/security/office-365-security/threat-explorer"><rect x="208" y="416" width="96" height="80" rx="8" ry="8" class="q"/><text x="234.6" y="451.8" class="g">Threat <tspan x="227.6" dy="1.2em" class="h">Explorer</tspan></text></a><a target="_blank" href="https://learn.microsoft.com/microsoft-365/security/office-365-security/automated-investigation-response-office"><rect x="208" y="320" width="96" height="80" rx="8" ry="8" class="q"/><text x="219.4" y="347.4" class="g">Automated <tspan x="212.8" dy="1.2em" class="h">Investigation </tspan><tspan x="215.6" dy="1.2em" class="h">&amp; Response</tspan></text></a><a target="_blank" href="https://learn.microsoft.com/microsoft-365/security/office-365-security/atp-safe-links"><rect x="208" y="176" width="96" height="80" rx="8" ry="8" class="q"/><text x="221" y="220.2" class="g">Safe Links</text></a><a target="_blank" href="https://learn.microsoft.com/microsoft-365/security/office-365-security/atp-safe-attachments"><rect x="96" y="176" width="96" height="80" rx="8" ry="8" class="q"/><text x="129.2" y="211.8" class="g">Safe <tspan x="101.6" dy="1.2em" class="h">Attachments</tspan></text></a><a target="_blank" href="https://learn.microsoft.com/microsoft-365/security/office-365-security/atp-anti-phishing"><rect x="96" y="80" width="96" height="80" rx="8" ry="8" class="q"/><text x="128.1" y="115.8" class="g">Anti-<tspan x="114.4" dy="1.2em" class="h">Phishing</tspan></text></a><a target="_blank" href="https://learn.microsoft.com/office365/servicedescriptions/office-365-advanced-threat-protection-service-description#feature-availability-across-advanced-threat-protection-atp-plans"><rect x="80" y="256" width="352" height="48" rx="8" ry="8" class="j"/><text x="172.8" y="275.2" class="p">Defender for Office 365 <tspan x="233.3" dy="1.2em" class="h">Plan 1</tspan></text></a><a target="_blank" href="https://learn.microsoft.com/microsoft-365/security/office-365-security/address-compromised-users-quickly"><rect x="96" y="416" width="96" height="80" rx="8" ry="8" class="q"/><text x="100.3" y="444.3" class="i">Compromised <tspan x="129.6" dy="1.2em" class="h">User </tspan><tspan x="114.4" dy="1.2em" class="h">Detection</tspan></text></a><a target="_blank" href="https://learn.microsoft.com/microsoft-365/security/office-365-security/campaigns"><rect x="320" y="320" width="96" height="80" rx="8" ry="8" class="q"/><text x="334.2" y="355.8" class="g">Campaign <tspan x="348.2" dy="1.2em" class="h">Views</tspan></text></a><a target="_blank" href="https://learn.microsoft.com/microsoft-365/security/office-365-security/view-reports-for-mdo"><rect x="320" y="80" width="96" height="80" rx="8" ry="8" class="q"/><text x="334.6" y="115.8" class="g">Real-Time <tspan x="341.6" dy="1.2em" class="h">Reports</tspan></text></a><a target="_blank" href="https://learn.microsoft.com/office365/servicedescriptions/exchange-online-protection-service-description/exchange-online-protection-service-description"><rect x="208" y="80" width="96" height="80" rx="8" ry="8" class="q"/><text x="222.9" y="107.4" class="g">Exchange <tspan x="234.2" dy="1.2em" class="h">Online </tspan><tspan x="221.4" dy="1.2em" class="h">Protection</tspan></text></a><a target="_blank" href="https://www.microsoftpartnercommunity.com/t5/Announcement-Discussions/Microsoft-365-Pricing-and-Audio-Conferencing-Licensing-Updates/td-p/60233#toc-hId--2041231687"><rect x="256" y="608" width="96" height="80" rx="8" ry="8" class="f"/><text x="285.6" y="636.3" class="i">Audio <tspan x="262.1" dy="1.2em" class="h">Conferencing </tspan><tspan x="264.3" dy="1.2em" class="h">(free add</tspan>-on)</text></a><a target="_blank" href="https://m365maps.com/"><rect y="1168" width="1168" height="16" class="r"/><text x="1078.6" y="1179.6" class="s">m365maps.com</text></a><a target="_blank" href="https://learn.microsoft.com/microsoftsearch/overview-microsoft-search"><rect x="592" y="800" width="96" height="80" rx="8" ry="8" class="f"/><text x="608.5" y="827.4" class="g">Microsoft <tspan x="616.6" dy="1.2em" class="h">Search </tspan><tspan x="603.4" dy="1.2em" class="h">(GCC only)</tspan></text></a><a target="_blank" href="https://learn.microsoft.com/MicrosoftTeams/what-is-phone-system-in-office-365"><rect x="480" y="464" width="96" height="80" rx="8" ry="8" class="q"/><text x="505.8" y="499.8" class="g">Teams <tspan x="506.6" dy="1.2em" class="h">Phone</tspan></text></a><a target="_blank" href="https://learn.microsoft.com/microsoftteams/audio-conferencing-in-office-365"><rect x="704" y="80" width="96" height="80" rx="8" ry="8" class="q"/><text x="733.6" y="108.3" class="i">Audio <tspan x="710.1" dy="1.2em" class="h">Conferencing </tspan><tspan x="737.9" dy="1.2em" class="h">(full)</tspan></text></a><a target="_blank" href="https://learn.microsoft.com/power-bi/service-get-started"><rect x="928" y="272" width="96" height="80" rx="8" ry="8" class="q"/><text x="932.4" y="316.2" class="g">Power BI Pro</text></a><a target="_blank" href="https://learn.microsoft.com/microsoft-365/compliance/customer-lockbox-requests"><rect x="592" y="176" width="96" height="80" rx="8" ry="8" class="q"/><text x="607.3" y="211.8" class="g">Customer <tspan x="611.2" dy="1.2em" class="h">Lockbox</tspan></text></a><a target="_blank" href="https://learn.microsoft.com/microsoft-365/compliance/customer-key-overview"><rect x="480" y="176" width="96" height="80" rx="8" ry="8" class="q"/><text x="495.3" y="211.8" class="g">Customer <tspan x="515.2" dy="1.2em" class="h">Key</tspan></text></a><a target="_blank" href="https://learn.microsoft.com/microsoft-365/compliance/overview-ediscovery-20"><rect x="928" y="176" width="96" height="80" rx="8" ry="8" class="q"/><text x="938.6" y="211.8" class="g">eDiscovery <tspan x="941.8" dy="1.2em" class="h">(premium)</tspan></text></a><a target="_blank" href="https://learn.microsoft.com/microsoft-365/compliance/privileged-access-management-solution-overview"><rect x="480" y="368" width="96" height="80" rx="8" ry="8" class="q"/><text x="494.5" y="395.4" class="g">Privileged <tspan x="503.5" dy="1.2em" class="h">Access </tspan><tspan x="485.2" dy="1.2em" class="h">Management</tspan></text></a><a target="_blank" href="https://learn.microsoft.com/microsoft-365/compliance/dlp-microsoft-teams"><rect x="928" y="368" width="96" height="80" rx="8" ry="8" class="q"/><text x="953.8" y="395.4" class="g">Teams <tspan x="942.6" dy="1.2em" class="h">Data Loss </tspan><tspan x="939.8" dy="1.2em" class="h">Prevention</tspan></text></a><a target="_blank" href="https://learn.microsoft.com/microsoft-365/compliance/ome-advanced-message-encryption"><rect x="592" y="80" width="96" height="80" rx="8" ry="8" class="q"/><text x="606.6" y="107.4" class="g">Advanced <tspan x="610.4" dy="1.2em" class="h">Message </tspan><tspan x="603.4" dy="1.2em" class="h">Encryption</tspan></text></a><a target="_blank" href="https://learn.microsoft.com/microsoft-365/compliance/information-barriers"><rect x="592" y="272" width="96" height="80" rx="8" ry="8" class="q"/><text x="601.5" y="307.8" class="g">Information <tspan x="613.2" dy="1.2em" class="h">Barriers</tspan></text></a><a target="_blank" href="https://learn.microsoft.com/office365/servicedescriptions/mya-service-description"><rect x="704" y="272" width="96" height="80" rx="8" ry="8" class="q"/><text x="711.2" y="307.8" class="g">MyAnalytics <tspan x="736.8" dy="1.2em" class="h">(full)</tspan></text></a><a target="_blank" href="https://learn.microsoft.com/microsoft-365/compliance/communication-compliance"><rect x="928" y="80" width="96" height="80" rx="8" ry="8" class="q"/><text x="954.2" y="115.8" class="g">Comm <tspan x="936.3" dy="1.2em" class="h">Compliance</tspan></text></a><a target="_blank" href="https://learn.microsoft.com/cloud-app-security/editions-cloud-app-security-o365"><rect x="816" y="272" width="96" height="80" rx="8" ry="8" class="q"/><text x="830.5" y="299.4" class="g">Office 365 <tspan x="828.6" dy="1.2em" class="h">Cloud App </tspan><tspan x="836.4" dy="1.2em" class="h">Security</tspan></text></a><a target="_blank" href="https://learn.microsoft.com/microsoft-365/compliance/manage-data-governance"><rect x="704" y="176" width="96" height="80" rx="8" ry="8" class="q"/><text x="736.8" y="203.4" class="g">Data <tspan x="722" dy="1.2em" class="h">Lifecycle </tspan><tspan x="709.2" dy="1.2em" class="h">Management</tspan></text></a><a target="_blank" href="https://learn.microsoft.com/microsoft-365/compliance/records-management"><rect x="592" y="368" width="96" height="80" rx="8" ry="8" class="q"/><text x="612" y="403.8" class="g">Records <tspan x="597.2" dy="1.2em" class="h">Management</tspan></text></a><a target="_blank" href="https://learn.microsoft.com/microsoft-365/compliance/advanced-audit"><rect x="816" y="80" width="96" height="80" rx="8" ry="8" class="q"/><text x="846.1" y="115.8" class="g">Audit <tspan x="829.8" dy="1.2em" class="h">(premium)</tspan></text></a><a target="_blank" href="https://learn.microsoft.com/microsoft-365/compliance/double-key-encryption"><rect x="816" y="176" width="96" height="80" rx="8" ry="8" class="q"/><text x="825.5" y="211.8" class="g">Double Key <tspan x="827.4" dy="1.2em" class="h">Encryption</tspan></text></a><a target="_blank" href="https://learn.microsoft.com/microsoft-365/compliance/apply-sensitivity-label-automatically"><rect x="704" y="368" width="96" height="80" rx="8" ry="8" class="q"/><text x="712.6" y="396.3" class="i">Rules-Based <tspan x="709.7" dy="1.2em" class="h">Classification</tspan><tspan x="716.6" dy="1.2em" class="h">(Office 365)</tspan></text></a><a target="_blank" href="https://www.microsoft.com/licensing/terms/product/CALandMLEquivalencyLicenses/"><rect x="816" y="368" width="96" height="80" rx="8" ry="8" class="q"/><text x="832.1" y="395.4" class="g">Skype for <tspan x="832.9" dy="1.2em" class="h">Business </tspan><tspan x="832.9" dy="1.2em" class="h">Plus CAL</tspan></text></a><a target="_blank" href="https://learn.microsoft.com/microsoft-365/compliance/sit-learn-about-exact-data-match-based-sits"><rect x="480" y="272" width="96" height="80" rx="8" ry="8" class="q"/><text x="492.2" y="307.8" class="g">Exact Data <tspan x="507.8" dy="1.2em" class="h">Match</tspan></text></a><a target="_blank" href="https://learn.microsoft.com/office365/servicedescriptions/microsoft-365-service-descriptions/microsoft-365-tenantlevel-services-licensing-guidance/microsoft-365-security-compliance-licensing-guidance#which-templates-are-included-by-default-free-of-cost"><rect x="480" y="80" width="96" height="80" rx="8" ry="8" class="q"/><text x="488.3" y="99" class="g">3x Premium <tspan x="495" dy="1.2em" class="h">&amp; Custom </tspan><tspan x="488.3" dy="1.2em" class="h">Compliance </tspan><tspan x="493.4" dy="1.2em" class="h">Templates</tspan></text></a></svg>