<svg xmlns="http://www.w3.org/2000/svg" width="1504" height="1008" viewBox="0 0 1504 1008" class="a"><style>
.b {fill:#a5a5a5;fill-opacity:0.2;stroke:#d04a00;stroke-linecap:round;stroke-linejoin:round;stroke-width:2.2}
.c {fill:#a5a5a5;fill-opacity:0.2;stroke:#e82200;stroke-dasharray:15.8,11.2;stroke-linecap:round;stroke-linejoin:round;stroke-width:2.2}
.d {fill:#a5a5a5;fill-opacity:0.2;stroke:#c42500;stroke-dasharray:2.2,4.5;stroke-linecap:round;stroke-linejoin:round;stroke-width:2.2}
.e {fill:#d04a00;stroke:#d04a00;stroke-linecap:round;stroke-linejoin:round;stroke-width:2.2}
.f {fill:#ffffff;font-family:Arial;font-size:1.7em;font-weight:bold}
.g {fill:#e82200;stroke:#e82200;stroke-linecap:round;stroke-linejoin:round;stroke-width:2.2}
.h {fill:#c42500;stroke:#c42500;stroke-linecap:round;stroke-linejoin:round;stroke-width:2.2}
.i {fill:#d04a00;stroke:none;stroke-linecap:round;stroke-linejoin:round;stroke-width:1}
.j {fill:#ffffff;font-family:Arial;font-size:1.2em;font-weight:bold}
.k {font-size:1em}
.l {fill:#ffffff;font-family:Arial;font-size:1.1em;font-weight:bold}
.m {fill:#e82200;stroke:none;stroke-linecap:round;stroke-linejoin:round;stroke-width:1}
.n {fill:none;stroke:none;stroke-linecap:round;stroke-linejoin:round;stroke-width:1}
.o {fill:#000000;font-family:Arial;font-size:1.2em;font-weight:bold}
.p {fill:#c42500;stroke:none;stroke-linecap:round;stroke-linejoin:round;stroke-width:1}
.q {fill:none;stroke:none;stroke-linecap:round;stroke-linejoin:round;stroke-width:0.8}
.r {fill:#7f7f7f;font-family:Arial;font-size:1em}
.a {fill:none;fill-rule:evenodd;font-size:12px;overflow:visible;stroke-linecap:square;stroke-miterlimit:3}
</style><rect x="16" y="16" width="1472" height="976" rx="8" ry="8" class="b"/><rect x="48" y="256" width="1344" height="704" rx="8" ry="8" class="c"/><rect x="128" y="496" width="1248" height="448" rx="8" ry="8" class="d"/><a target="_blank" href="https://www.microsoft.com/microsoft-365/enterprise/compare-office-365-plans" transform="translate(480,992) rotate(-90)"><rect y="944" width="976" height="64" rx="8" ry="8" class="e"/><text x="425.2" y="982" class="f">Office 365 E5</text></a><a target="_blank" href="https://www.microsoft.com/microsoft-365/enterprise/compare-office-365-plans" transform="translate(-896,960) rotate(-90)"><rect y="944" width="704" height="64" rx="8" ry="8" class="g"/><text x="289.2" y="982" class="f">Office 365 E3</text></a><a target="_blank" href="https://www.microsoft.com/microsoft-365/enterprise/compare-office-365-plans"><rect x="128" y="896" width="1248" height="48" rx="8" ry="8" class="h"/><text x="689.8" y="926" class="f">Office 365 F3</text></a><a target="_blank" href="https://learn.microsoft.com/MicrosoftTeams/what-is-phone-system-in-office-365"><rect x="1264" y="144" width="96" height="80" rx="8" ry="8" class="i"/><text x="1289.8" y="179.8" class="j">Teams <tspan x="1290.6" dy="1.2em" class="k">Phone</tspan></text></a><a target="_blank" href="https://learn.microsoft.com/microsoftteams/audio-conferencing-in-office-365"><rect x="368" y="48" width="96" height="80" rx="8" ry="8" class="i"/><text x="397.6" y="76.3" class="l">Audio <tspan x="374.1" dy="1.2em" class="k">Conferencing </tspan><tspan x="401.9" dy="1.2em" class="k">(full)</tspan></text></a><a target="_blank" href="https://learn.microsoft.com/power-bi/service-get-started"><rect x="592" y="144" width="96" height="80" rx="8" ry="8" class="i"/><text x="596.4" y="188.2" class="j">Power BI Pro</text></a><a target="_blank" href="https://learn.microsoft.com/microsoft-365/compliance/customer-lockbox-requests"><rect x="816" y="48" width="96" height="80" rx="8" ry="8" class="i"/><text x="831.3" y="83.8" class="j">Customer <tspan x="835.2" dy="1.2em" class="k">Lockbox</tspan></text></a><a target="_blank" href="https://learn.microsoft.com/microsoft-365/compliance/customer-key-overview"><rect x="704" y="48" width="96" height="80" rx="8" ry="8" class="i"/><text x="719.3" y="83.8" class="j">Customer <tspan x="739.2" dy="1.2em" class="k">Key</tspan></text></a><a target="_blank" href="https://learn.microsoft.com/microsoft-365/compliance/overview-ediscovery-20"><rect x="1264" y="48" width="96" height="80" rx="8" ry="8" class="i"/><text x="1274.6" y="83.8" class="j">eDiscovery <tspan x="1277.8" dy="1.2em" class="k">(premium)</tspan></text></a><a target="_blank" href="https://learn.microsoft.com/microsoft-365/compliance/privileged-access-management-solution-overview"><rect x="704" y="144" width="96" height="80" rx="8" ry="8" class="i"/><text x="718.5" y="171.4" class="j">Privileged <tspan x="727.5" dy="1.2em" class="k">Access </tspan><tspan x="709.2" dy="1.2em" class="k">Management</tspan></text></a><a target="_blank" href="https://learn.microsoft.com/microsoft-365/compliance/dlp-microsoft-teams"><rect x="1152" y="144" width="96" height="80" rx="8" ry="8" class="i"/><text x="1177.8" y="171.4" class="j">Teams<tspan x="1166.6" dy="1.2em" class="k">Data Loss </tspan><tspan x="1163.8" dy="1.2em" class="k">Prevention</tspan></text></a><a target="_blank" href="https://learn.microsoft.com/microsoft-365/compliance/ome-advanced-message-encryption"><rect x="256" y="48" width="96" height="80" rx="8" ry="8" class="i"/><text x="270.6" y="75.4" class="j">Advanced <tspan x="274.4" dy="1.2em" class="k">Message </tspan><tspan x="267.4" dy="1.2em" class="k">Encryption</tspan></text></a><a target="_blank" href="https://learn.microsoft.com/microsoft-365/compliance/information-barriers"><rect x="256" y="144" width="96" height="80" rx="8" ry="8" class="i"/><text x="265.5" y="179.8" class="j">Information <tspan x="277.2" dy="1.2em" class="k">Barriers</tspan></text></a><a target="_blank" href="https://learn.microsoft.com/office365/servicedescriptions/mya-service-description"><rect x="368" y="144" width="96" height="80" rx="8" ry="8" class="i"/><text x="375.2" y="179.8" class="j">MyAnalytics <tspan x="400.8" dy="1.2em" class="k">(full)</tspan></text></a><a target="_blank" href="https://learn.microsoft.com/microsoft-365/compliance/communication-compliance"><rect x="592" y="48" width="96" height="80" rx="8" ry="8" class="i"/><text x="618.2" y="83.8" class="j">Comm <tspan x="600.3" dy="1.2em" class="k">Compliance</tspan></text></a><a target="_blank" href="https://learn.microsoft.com/cloud-app-security/editions-cloud-app-security-o365"><rect x="480" y="144" width="96" height="80" rx="8" ry="8" class="i"/><text x="494.5" y="171.4" class="j">Office 365 <tspan x="492.6" dy="1.2em" class="k">Cloud App </tspan><tspan x="500.4" dy="1.2em" class="k">Security</tspan></text></a><a target="_blank" href="https://learn.microsoft.com/microsoft-365/compliance/manage-data-governance"><rect x="928" y="48" width="96" height="80" rx="8" ry="8" class="i"/><text x="960.8" y="75.4" class="j">Data <tspan x="946" dy="1.2em" class="k">Lifecycle </tspan><tspan x="933.2" dy="1.2em" class="k">Management</tspan></text></a><a target="_blank" href="https://learn.microsoft.com/microsoft-365/compliance/records-management"><rect x="816" y="144" width="96" height="80" rx="8" ry="8" class="i"/><text x="836" y="179.8" class="j">Records <tspan x="821.2" dy="1.2em" class="k">Management</tspan></text></a><a target="_blank" href="https://learn.microsoft.com/microsoft-365/compliance/advanced-audit"><rect x="480" y="48" width="96" height="80" rx="8" ry="8" class="i"/><text x="510.1" y="83.8" class="j">Audit <tspan x="493.8" dy="1.2em" class="k">(premium)</tspan></text></a><a target="_blank" href="https://learn.microsoft.com/microsoft-365/compliance/double-key-encryption"><rect x="1152" y="48" width="96" height="80" rx="8" ry="8" class="i"/><text x="1161.5" y="83.8" class="j">Double Key <tspan x="1163.4" dy="1.2em" class="k">Encryption</tspan></text></a><a target="_blank" href="https://learn.microsoft.com/office365/servicedescriptions/office-365-advanced-threat-protection-service-description#feature-availability-across-advanced-threat-protection-atp-plans"><rect x="1040" y="48" width="96" height="80" rx="8" ry="8" class="i"/><text x="1046.4" y="75.4" class="j">Defender for <tspan x="1054.5" dy="1.2em" class="k">Office 365 </tspan><tspan x="1067.4" dy="1.2em" class="k">Plan 2</tspan></text></a><a target="_blank" href="https://www.microsoft.com/microsoft-365/business/microsoft-365-apps-for-enterprise-product"><rect x="1152" y="288" width="96" height="80" rx="8" ry="8" class="m"/><text x="1168.5" y="315.4" class="j">Microsoft <tspan x="1157.6" dy="1.2em" class="k">365 Apps for </tspan><tspan x="1165.4" dy="1.2em" class="k">Enterprise</tspan></text></a><a target="_blank" href="https://learn.microsoft.com/microsoftteams/teams-live-events/what-are-teams-live-events"><rect x="1040" y="288" width="96" height="80" rx="8" ry="8" class="m"/><text x="1049.1" y="332.2" class="j">Live Events</text></a><a target="_blank" href="https://learn.microsoft.com/viva/insights/personal/overview/plans-environments"><rect x="928" y="288" width="96" height="80" rx="8" ry="8" class="m"/><text x="939" y="323.8" class="j">Insights by <tspan x="935.2" dy="1.2em" class="k">MyAnalytics</tspan></text></a><a target="_blank" href="https://learn.microsoft.com/stream/"><rect x="592" y="384" width="96" height="80" rx="8" ry="8" class="m"/><text x="605" y="419.8" class="j">Stream for <tspan x="606.5" dy="1.2em" class="k">Office 365</tspan></text></a><a target="_blank" href="https://learn.microsoft.com/sharepoint/introduction"><rect x="480" y="384" width="96" height="80" rx="8" ry="8" class="m"/><text x="491" y="411.4" class="j">SharePoint <tspan x="506.2" dy="1.2em" class="k">Online </tspan><tspan x="507.4" dy="1.2em" class="k">Plan 2</tspan></text></a><a target="_blank" href="https://learn.microsoft.com/office365/servicedescriptions/onedrive-for-business-service-description"><rect x="1264" y="288" width="96" height="80" rx="8" ry="8" class="m"/><text x="1269.6" y="315.4" class="j">OneDrive for <tspan x="1280.9" dy="1.2em" class="k">Business </tspan><tspan x="1291.4" dy="1.2em" class="k">Plan 2</tspan></text></a><a target="_blank" href="https://support.microsoft.com/office/1315665a-c6af-4409-a28d-49f8916878ca"><rect x="368" y="288" width="96" height="80" rx="8" ry="8" class="m"/><text x="397.3" y="332.2" class="j">Delve</text></a><a target="_blank" href="https://powerautomate.microsoft.com/"><rect x="144" y="384" width="96" height="80" rx="8" ry="8" class="m"/><text x="171" y="411.4" class="j">Power <tspan x="148.4" dy="1.2em" class="k">Automate for</tspan><tspan x="158.5" dy="1.2em" class="k">Office 365</tspan></text></a><a target="_blank" href="https://learn.microsoft.com/office365/securitycompliance/data-loss-prevention-policies"><rect x="256" y="288" width="96" height="80" rx="8" ry="8" class="m"/><text x="270.6" y="323.8" class="j">Data Loss <tspan x="267.8" dy="1.2em" class="k">Prevention</tspan></text></a><a target="_blank" href="https://learn.microsoft.com/microsoft-365/compliance/retention"><rect x="368" y="384" width="96" height="80" rx="8" ry="8" class="m"/><text x="383.7" y="411.4" class="j">Retention <tspan x="386.8" dy="1.2em" class="k">Labels &amp; </tspan><tspan x="389.5" dy="1.2em" class="k">Policies</tspan></text></a><a target="_blank" href="https://learn.microsoft.com/microsoft-365/compliance/get-started-core-ediscovery"><rect x="480" y="288" width="96" height="80" rx="8" ry="8" class="m"/><text x="490.6" y="323.8" class="j">eDiscovery <tspan x="493.8" dy="1.2em" class="k">(standard)</tspan></text></a><a target="_blank" href="https://learn.microsoft.com/office365/servicedescriptions/exchange-online-service-description/exchange-online-service-description#feature-availability-across-exchange-online-standalone-plans"><rect x="592" y="288" width="96" height="80" rx="8" ry="8" class="m"/><text x="606.9" y="315.4" class="j">Exchange <tspan x="618.2" dy="1.2em" class="k">Online </tspan><tspan x="619.4" dy="1.2em" class="k">Plan 2</tspan></text></a><a target="_blank" href="https://www.microsoft.com/download/details.aspx?id=48734"><rect x="704" y="288" width="96" height="80" rx="8" ry="8" class="m"/><text x="724" y="323.8" class="j">InfoPath<tspan x="738.4" dy="1.2em" class="k">App</tspan></text></a><a target="_blank" href="https://learn.microsoft.com/microsoft-365/compliance/apply-sensitivity-label-automatically"><rect x="928" y="144" width="96" height="80" rx="8" ry="8" class="i"/><text x="936.6" y="172.3" class="l">Rules-Based <tspan x="933.7" dy="1.2em" class="k">Classification</tspan><tspan x="940.6" dy="1.2em" class="k">(Office 365)</tspan></text></a><g><rect x="16" y="16" width="1408" height="32" rx="8" ry="8" class="n"/><text x="34.2" y="36.2" class="o">Enterprise</text></g><a target="_blank" href="https://learn.microsoft.com/microsoft-365/compliance/sensitivity-labels"><rect x="816" y="288" width="96" height="80" rx="8" ry="8" class="m"/><text x="825.5" y="315.4" class="j">Information <tspan x="829.4" dy="1.2em" class="k">Protection</tspan><tspan x="835.2" dy="1.2em" class="k">for M365</tspan></text></a><a target="_blank" href="https://www.microsoft.com/licensing/terms/product/CALandMLEquivalencyLicenses/"><rect x="256" y="384" width="96" height="80" rx="8" ry="8" class="m"/><text x="263.6" y="419.8" class="j">Productivity <tspan x="265.9" dy="1.2em" class="k">Server CAL</tspan></text></a><a target="_blank" href="https://www.microsoft.com/licensing/terms/product/CALandMLEquivalencyLicenses/"><rect x="1040" y="144" width="96" height="80" rx="8" ry="8" class="i"/><text x="1056.1" y="171.4" class="j">Skype for <tspan x="1056.9" dy="1.2em" class="k">Business </tspan><tspan x="1056.9" dy="1.2em" class="k">Plus CAL</tspan></text></a><a target="_blank" href="https://learn.microsoft.com/office365/servicedescriptions/exchange-online-protection-service-description/exchange-online-protection-service-description"><rect x="1264" y="512" width="96" height="80" rx="8" ry="8" class="p"/><text x="1278.9" y="539.4" class="j">Exchange <tspan x="1290.2" dy="1.2em" class="k">Online </tspan><tspan x="1277.4" dy="1.2em" class="k">Protection</tspan></text></a><a target="_blank" href="https://products.office.com/microsoft-teams/"><rect x="704" y="608" width="96" height="80" rx="8" ry="8" class="p"/><text x="720.5" y="643.8" class="j">Microsoft <tspan x="729.8" dy="1.2em" class="k">Teams</tspan></text></a><a target="_blank" href="https://learn.microsoft.com/office365/servicedescriptions/exchange-online-service-description/exchange-online-service-description#feature-availability-across-exchange-online-standalone-plans"><rect x="1152" y="512" width="96" height="80" rx="8" ry="8" class="p"/><text x="1166.9" y="539.4" class="j">Exchange <tspan x="1157.2" dy="1.2em" class="k">Online Kiosk</tspan><tspan x="1179" dy="1.2em" class="k">(2 GB)</tspan></text></a><a target="_blank" href="https://learn.microsoft.com/office365/servicedescriptions/onedrive-for-business-service-description"><rect x="1264" y="608" width="96" height="80" rx="8" ry="8" class="p"/><text x="1269.6" y="635.4" class="j">OneDrive for <tspan x="1280.9" dy="1.2em" class="k">Business </tspan><tspan x="1291" dy="1.2em" class="k">(2 GB)</tspan></text></a><a target="_blank" href="https://products.office.com/en/business/microsoft-kaizala"><rect x="144" y="608" width="96" height="80" rx="8" ry="8" class="p"/><text x="154.3" y="643.8" class="j">Kaizala Pro<tspan x="163.2" dy="1.2em" class="k">(retiring)</tspan></text></a><a target="_blank" href="https://powerapps.microsoft.com/"><rect x="256" y="704" width="96" height="80" rx="8" ry="8" class="p"/><text x="263.6" y="731.4" class="j">Power Apps<tspan x="294.7" dy="1.2em" class="k">for</tspan><tspan x="270.5" dy="1.2em" class="k">Office 365</tspan></text></a><a target="_blank" href="https://support.office.com/forms"><rect x="368" y="608" width="96" height="80" rx="8" ry="8" class="p"/><text x="384.5" y="643.8" class="j">Microsoft <tspan x="394.6" dy="1.2em" class="k">Forms</tspan></text></a><a target="_blank" href="https://products.office.com/yammer/yammer-overview"><rect x="368" y="800" width="96" height="80" rx="8" ry="8" class="p"/><text x="388.4" y="835.8" class="j">Yammer <tspan x="381.4" dy="1.2em" class="k">Enterprise</tspan></text></a><a target="_blank" href="https://learn.microsoft.com/sharepoint/introduction"><rect x="928" y="704" width="96" height="80" rx="8" ry="8" class="p"/><text x="939" y="739.8" class="j">SharePoint <tspan x="933.2" dy="1.2em" class="k">Online Kiosk</tspan></text></a><a target="_blank" href="https://learn.microsoft.com/stream/"><rect x="1040" y="704" width="96" height="80" rx="8" ry="8" class="p"/><text x="1064.3" y="739.8" class="j">Stream <tspan x="1051.4" dy="1.2em" class="k">(Consume)</tspan></text></a><a target="_blank" href="https://products.office.com/business/task-management-software"><rect x="144" y="704" width="96" height="80" rx="8" ry="8" class="p"/><text x="166.3" y="748.2" class="j">Planner</text></a><a target="_blank" href="https://support.office.com/sway"><rect x="1152" y="704" width="96" height="80" rx="8" ry="8" class="p"/><text x="1182.1" y="748.2" class="j">Sway</text></a><a target="_blank" href="https://learn.microsoft.com/powerapps/teams/overview-data-platform"><rect x="256" y="608" width="96" height="80" rx="8" ry="8" class="p"/><text x="272.5" y="635.4" class="j">Microsoft <tspan x="270.5" dy="1.2em" class="k">Dataverse </tspan><tspan x="270.6" dy="1.2em" class="k">for Teams</tspan></text></a><a target="_blank" href="https://products.office.com/mobile/office"><rect x="1152" y="608" width="96" height="80" rx="8" ry="8" class="p"/><text x="1156.4" y="635.4" class="j">Office Web &amp; <tspan x="1158.4" dy="1.2em" class="k">Mobile Apps </tspan><tspan x="1164.6" dy="1.2em" class="k">(incl Visio)</tspan></text></a><a target="_blank" href="https://www.microsoft.com/microsoft-365/microsoft-to-do-list-app"><rect x="816" y="608" width="96" height="80" rx="8" ry="8" class="p"/><text x="832.5" y="643.8" class="j">Microsoft <tspan x="844.2" dy="1.2em" class="k">To Do</tspan></text></a><a target="_blank" href="https://learn.microsoft.com/power-virtual-agents/teams/fundamentals-what-is-power-virtual-agents-teams"><rect x="480" y="704" width="96" height="80" rx="8" ry="8" class="p"/><text x="486.5" y="732.3" class="l">Power Virtual <tspan x="495.5" dy="1.2em" class="k">Agents for </tspan><tspan x="507.4" dy="1.2em" class="k">Teams</tspan></text></a><a target="_blank" href="https://learn.microsoft.com/microsoft-365/whiteboard/"><rect x="928" y="608" width="96" height="80" rx="8" ry="8" class="p"/><text x="944.5" y="643.8" class="j">Microsoft <tspan x="937.5" dy="1.2em" class="k">Whiteboard</tspan></text></a><a target="_blank" href="https://learn.microsoft.com/microsoft-365/admin/basic-mobility-security/capabilities"><rect x="816" y="512" width="96" height="80" rx="8" ry="8" class="p"/><text x="845.3" y="539.4" class="j">Basic <tspan x="830.6" dy="1.2em" class="k">Mobility &amp; </tspan><tspan x="836.4" dy="1.2em" class="k">Security</tspan></text></a><a target="_blank" href="https://azure.microsoft.com/pricing/details/active-directory/"><rect x="704" y="512" width="96" height="80" rx="8" ry="8" class="p"/><text x="709.2" y="547.8" class="j">Azure AD for <tspan x="718.5" dy="1.2em" class="k">Office 365</tspan></text></a><a target="_blank" href="https://learn.microsoft.com/microsoft-365/compliance/create-apply-retention-labels"><rect x="704" y="704" width="96" height="80" rx="8" ry="8" class="p"/><text x="719.7" y="739.8" class="j">Retention <tspan x="729.8" dy="1.2em" class="k">Labels</tspan></text></a><a target="_blank" href="https://learn.microsoft.com/microsoft-365/bookings/bookings-overview"><rect x="928" y="512" width="96" height="80" rx="8" ry="8" class="p"/><text x="944.1" y="556.2" class="j">Bookings</text></a><a target="_blank" href="https://www.microsoft.com/microsoft-viva/connections"><rect x="1264" y="704" width="96" height="80" rx="8" ry="8" class="p"/><text x="1297.6" y="739.8" class="j">Viva <tspan x="1269.6" dy="1.2em" class="k">Connections</tspan></text></a><a target="_blank" href="https://www.microsoft.com/microsoft-viva/learning"><rect x="256" y="800" width="96" height="80" rx="8" ry="8" class="p"/><text x="289.6" y="827.4" class="j">Viva <tspan x="274.4" dy="1.2em" class="k">Learning </tspan><tspan x="281.4" dy="1.2em" class="k">(basic)</tspan></text></a><a target="_blank" href="https://learn.microsoft.com/microsoft-365/compliance/ome"><rect x="1040" y="608" width="96" height="80" rx="8" ry="8" class="p"/><text x="1054.5" y="635.4" class="j">Office 365 <tspan x="1058.4" dy="1.2em" class="k">Message </tspan><tspan x="1051.4" dy="1.2em" class="k">Encryption</tspan></text></a><a target="_blank" href="https://learn.microsoft.com/microsoft-365/compliance/search-the-audit-log-in-security-and-compliance"><rect x="592" y="512" width="96" height="80" rx="8" ry="8" class="p"/><text x="622.1" y="547.8" class="j">Audit <tspan x="605.8" dy="1.2em" class="k">(standard)</tspan></text></a><a target="_blank" href="https://learn.microsoft.com/microsoft-365/compliance/alert-policies"><rect x="368" y="512" width="96" height="80" rx="8" ry="8" class="p"/><text x="400" y="547.8" class="j">Alert <tspan x="389.5" dy="1.2em" class="k">Policies</tspan></text></a><a target="_blank" href="https://www.microsoftpartnercommunity.com/t5/Announcement-Discussions/Microsoft-365-Pricing-and-Audio-Conferencing-Licensing-Updates/td-p/60233#toc-hId--2041231687"><rect x="480" y="512" width="96" height="80" rx="8" ry="8" class="p"/><text x="509.6" y="540.3" class="l">Audio <tspan x="486.1" dy="1.2em" class="k">Conferencing </tspan><tspan x="488.3" dy="1.2em" class="k">(free add</tspan>-on)</text></a><a target="_blank" href="https://learn.microsoft.com/project-for-the-web/office-365-user-view-access-to-project-and-roadmap"><rect x="592" y="704" width="96" height="80" rx="8" ry="8" class="p"/><text x="609.3" y="731.4" class="j">Project &amp; <tspan x="608.1" dy="1.2em" class="k">Roadmap </tspan><tspan x="597.6" dy="1.2em" class="k">View Access</tspan></text></a><a target="_blank" href="https://learn.microsoft.com/viva/engage/overview"><rect x="144" y="800" width="96" height="80" rx="8" ry="8" class="p"/><text x="177.6" y="835.8" class="j">Viva <tspan x="166.7" dy="1.2em" class="k">Engage</tspan></text></a><a target="_blank" href="https://learn.microsoft.com/microsoft-365/admin/adoption/adoption-score"><rect x="256" y="512" width="96" height="80" rx="8" ry="8" class="p"/><text x="273.3" y="547.8" class="j">Adoption <tspan x="284.6" dy="1.2em" class="k">Score</tspan></text></a><a target="_blank" href="https://learn.microsoft.com/microsoft-365/admin/activity-reports/activity-reports"><rect x="144" y="512" width="96" height="80" rx="8" ry="8" class="p"/><text x="166.7" y="547.8" class="j">Activity <tspan x="165.6" dy="1.2em" class="k">Reports</tspan></text></a><a target="_blank" href="https://learn.microsoft.com/microsoft-365/compliance/compliance-manager-overview"><rect x="1040" y="512" width="96" height="80" rx="8" ry="8" class="p"/><text x="1048.3" y="547.8" class="j">Compliance <tspan x="1059.2" dy="1.2em" class="k">Manager</tspan></text></a><a target="_blank" href="https://learn.microsoft.com/microsoft-365/security/defender/microsoft-secure-score"><rect x="816" y="704" width="96" height="80" rx="8" ry="8" class="p"/><text x="840.6" y="739.8" class="j">Secure <tspan x="844.6" dy="1.2em" class="k">Score</tspan></text></a><a target="_blank" href="https://learn.microsoft.com/viva/insights/personal/briefing/be-overview"><rect x="144" y="288" width="96" height="80" rx="8" ry="8" class="m"/><text x="165.6" y="323.8" class="j">Briefing <tspan x="173.3" dy="1.2em" class="k">Email</tspan></text></a><a target="_blank" href="https://www.microsoft.com/microsoft-365/microsoft-lists"><rect x="480" y="608" width="96" height="80" rx="8" ry="8" class="p"/><text x="496.5" y="643.8" class="j">Microsoft <tspan x="511.7" dy="1.2em" class="k">Lists</tspan></text></a><a target="_blank" href="https://m365maps.com/"><rect y="992" width="1504" height="16" class="q"/><text x="1414.6" y="1003.6" class="r">m365maps.com</text></a><a target="_blank" href="https://learn.microsoft.com/microsoftsearch/overview-microsoft-search"><rect x="592" y="608" width="96" height="80" rx="8" ry="8" class="p"/><text x="608.5" y="643.8" class="j">Microsoft <tspan x="616.6" dy="1.2em" class="k">Search</tspan></text></a><a target="_blank" href="https://learn.microsoft.com/microsoft-365/compliance/sit-learn-about-exact-data-match-based-sits"><rect x="144" y="144" width="96" height="80" rx="8" ry="8" class="i"/><text x="156.2" y="179.8" class="j">Exact Data <tspan x="171.8" dy="1.2em" class="k">Match</tspan></text></a><a target="_blank" href="https://powerautomate.microsoft.com/"><rect x="368" y="704" width="96" height="80" rx="8" ry="8" class="p"/><text x="396.5" y="724.5" class="l">Power <tspan x="375.6" dy="1.2em" class="k">Automate for </tspan><tspan x="384.9" dy="1.2em" class="k">Office 365 </tspan><tspan x="374.8" dy="1.2em" class="k">(2,000 st/day)</tspan></text></a><a target="_blank" href="https://learn.microsoft.com/office365/servicedescriptions/microsoft-365-service-descriptions/microsoft-365-tenantlevel-services-licensing-guidance/microsoft-365-security-compliance-licensing-guidance#which-templates-are-included-by-default-free-of-cost"><rect x="144" y="48" width="96" height="80" rx="8" ry="8" class="i"/><text x="152.3" y="67" class="j">3x Premium <tspan x="159" dy="1.2em" class="k">&amp; Custom </tspan><tspan x="152.3" dy="1.2em" class="k">Compliance </tspan><tspan x="157.4" dy="1.2em" class="k">Templates</tspan></text></a></svg>