<svg xmlns="http://www.w3.org/2000/svg" width="1168" height="1200" viewBox="0 0 1168 1200" class="a"><style>
.b {fill:#a5a5a5;fill-opacity:0.2;stroke:#d04a00;stroke-linecap:round;stroke-linejoin:round;stroke-width:2.2}
.c {fill:#a5a5a5;fill-opacity:0.2;stroke:#e82200;stroke-dasharray:15.8,11.2;stroke-linecap:round;stroke-linejoin:round;stroke-width:2.2}
.d {fill:#a5a5a5;fill-opacity:0.2;stroke:#a41500;stroke-dasharray:2.2,4.5;stroke-linecap:round;stroke-linejoin:round;stroke-width:2.2}
.e {fill:#d04a00;stroke:#d04a00;stroke-linecap:round;stroke-linejoin:round;stroke-width:2.2}
.f {fill:#ffffff;font-family:Arial;font-size:1.7em;font-weight:bold}
.g {fill:#e82200;stroke:#e82200;stroke-linecap:round;stroke-linejoin:round;stroke-width:2.2}
.h {fill:#e82200;stroke:none;stroke-linecap:round;stroke-linejoin:round;stroke-width:1}
.i {fill:#ffffff;font-family:Arial;font-size:1.2em;font-weight:bold}
.j {font-size:1em}
.k {fill:#a41500;stroke:none;stroke-linecap:round;stroke-linejoin:round;stroke-width:1}
.l {fill:#a41500;stroke:#a41500;stroke-linecap:round;stroke-linejoin:round;stroke-width:2.2}
.m {fill:none;stroke:none;stroke-linecap:round;stroke-linejoin:round;stroke-width:0.8}
.n {fill:#000000;font-family:Arial;font-size:1.2em;font-weight:bold}
.o {fill:#ffffff;font-family:Arial;font-size:1.1em;font-weight:bold}
.p {fill:#7f7f7f;font-family:Arial;font-size:1em}
.q {fill:#d04a00;stroke:none;stroke-linecap:round;stroke-linejoin:round;stroke-width:1}
.a {fill:none;fill-rule:evenodd;font-size:12px;overflow:visible;stroke-linecap:square;stroke-miterlimit:3}
</style><rect x="16" y="16" width="1136" height="1168" rx="8" ry="8" class="b"/><rect x="48" y="352" width="1008" height="800" rx="8" ry="8" class="c"/><rect x="128" y="592" width="912" height="544" rx="8" ry="8" class="d"/><a target="_blank" href="https://www.microsoft.com/microsoft-365/enterprise/compare-office-365-plans" transform="translate(-48,1184) rotate(-90)"><rect y="1136" width="1168" height="64" rx="8" ry="8" class="e"/><text x="521.2" y="1174" class="f">Office 365 E5</text></a><a target="_blank" href="https://www.microsoft.com/microsoft-365/enterprise/compare-office-365-plans" transform="translate(-1088,1152) rotate(-90)"><rect y="1136" width="800" height="64" rx="8" ry="8" class="g"/><text x="337.2" y="1174" class="f">Office 365 E3</text></a><a target="_blank" href="https://learn.microsoft.com/office365/servicedescriptions/exchange-online-service-description/exchange-online-service-description#feature-availability-across-exchange-online-standalone-plans"><rect x="368" y="384" width="96" height="80" rx="8" ry="8" class="h"/><text x="382.9" y="411.4" class="i">Exchange <tspan x="394.2" dy="1.2em" class="j">Online </tspan><tspan x="395.4" dy="1.2em" class="j">Plan 2</tspan></text></a><a target="_blank" href="https://learn.microsoft.com/sharepoint/introduction"><rect x="256" y="480" width="96" height="80" rx="8" ry="8" class="h"/><text x="267" y="507.4" class="i">SharePoint <tspan x="282.2" dy="1.2em" class="j">Online </tspan><tspan x="283.4" dy="1.2em" class="j">Plan 2</tspan></text></a><a target="_blank" href="https://learn.microsoft.com/office365/servicedescriptions/onedrive-for-business-service-description"><rect x="928" y="384" width="96" height="80" rx="8" ry="8" class="h"/><text x="933.6" y="411.4" class="i">OneDrive for <tspan x="944.9" dy="1.2em" class="j">Business </tspan><tspan x="955.4" dy="1.2em" class="j">Plan 2</tspan></text></a><a target="_blank" href="https://learn.microsoft.com/office365/securitycompliance/data-loss-prevention-policies"><rect x="144" y="384" width="96" height="80" rx="8" ry="8" class="h"/><text x="158.6" y="419.8" class="i">Data Loss <tspan x="155.8" dy="1.2em" class="j">Prevention</tspan></text></a><a target="_blank" href="https://learn.microsoft.com/microsoft-365/compliance/retention"><rect x="144" y="480" width="96" height="80" rx="8" ry="8" class="h"/><text x="159.7" y="507.4" class="i">Retention <tspan x="162.8" dy="1.2em" class="j">Labels &amp; </tspan><tspan x="165.5" dy="1.2em" class="j">Policies</tspan></text></a><a target="_blank" href="https://www.microsoft.com/microsoft-365/business/microsoft-365-apps-for-enterprise-product"><rect x="704" y="384" width="96" height="80" rx="8" ry="8" class="h"/><text x="720.5" y="411.4" class="i">Microsoft <tspan x="709.6" dy="1.2em" class="j">365 Apps for </tspan><tspan x="717.4" dy="1.2em" class="j">Enterprise</tspan></text></a><a target="_blank" href="https://learn.microsoft.com/microsoft-365/compliance/get-started-core-ediscovery"><rect x="256" y="384" width="96" height="80" rx="8" ry="8" class="h"/><text x="266.6" y="419.8" class="i">eDiscovery <tspan x="269.8" dy="1.2em" class="j">(standard)</tspan></text></a><a target="_blank" href="https://www.microsoft.com/download/details.aspx?id=48734"><rect x="480" y="384" width="96" height="80" rx="8" ry="8" class="h"/><text x="500" y="419.8" class="i">InfoPath<tspan x="514.4" dy="1.2em" class="j">App</tspan></text></a><a target="_blank" href="https://learn.microsoft.com/office365/servicedescriptions/exchange-online-service-description/exchange-online-service-description#feature-availability-across-exchange-online-standalone-plans"><rect x="480" y="704" width="96" height="80" rx="8" ry="8" class="k"/><text x="494.9" y="731.4" class="i">Exchange <tspan x="506.2" dy="1.2em" class="j">Online</tspan><tspan x="507.4" dy="1.2em" class="j">Plan 1</tspan></text></a><a target="_blank" href="https://learn.microsoft.com/sharepoint/introduction"><rect x="256" y="992" width="96" height="80" rx="8" ry="8" class="k"/><text x="267" y="1019.4" class="i">SharePoint <tspan x="282.2" dy="1.2em" class="j">Online</tspan><tspan x="283.4" dy="1.2em" class="j">Plan 1</tspan></text></a><a target="_blank" href="https://learn.microsoft.com/office365/servicedescriptions/onedrive-for-business-service-description"><rect x="256" y="896" width="96" height="80" rx="8" ry="8" class="k"/><text x="261.6" y="923.4" class="i">OneDrive for <tspan x="272.9" dy="1.2em" class="j">Business </tspan><tspan x="283.4" dy="1.2em" class="j">Plan 1</tspan></text></a><a target="_blank" href="https://www.microsoft.com/microsoft-365/enterprise/compare-office-365-plans"><rect x="128" y="1088" width="912" height="48" rx="8" ry="8" class="l"/><text x="521.2" y="1118" class="f">Office 365 E1</text></a><g><rect x="16" y="16" width="1072" height="32" class="m"/><text x="34.2" y="36.2" class="n">Enterprise</text></g><a target="_blank" href="https://learn.microsoft.com/microsoft-365/compliance/sensitivity-labels"><rect x="592" y="384" width="96" height="80" rx="8" ry="8" class="h"/><text x="601.5" y="411.4" class="i">Information <tspan x="605.4" dy="1.2em" class="j">Protection</tspan><tspan x="611.2" dy="1.2em" class="j">for M365</tspan></text></a><a target="_blank" href="https://learn.microsoft.com/microsoft-365/compliance/ome"><rect x="816" y="384" width="96" height="80" rx="8" ry="8" class="h"/><text x="830.5" y="411.4" class="i">Office 365 <tspan x="834.4" dy="1.2em" class="j">Message </tspan><tspan x="827.4" dy="1.2em" class="j">Encryption</tspan></text></a><a target="_blank" href="https://learn.microsoft.com/microsoftteams/set-up-webinars"><rect x="368" y="480" width="96" height="80" rx="8" ry="8" class="h"/><text x="384.5" y="524.2" class="i">Webinars</text></a><a target="_blank" href="https://products.office.com/business/task-management-software"><rect x="368" y="896" width="96" height="80" rx="8" ry="8" class="k"/><text x="390.3" y="940.2" class="i">Planner</text></a><a target="_blank" href="https://learn.microsoft.com/microsoftteams/teams-live-events/what-are-teams-live-events"><rect x="928" y="704" width="96" height="80" rx="8" ry="8" class="k"/><text x="937.1" y="748.2" class="i">Live Events</text></a><a target="_blank" href="https://learn.microsoft.com/viva/insights/personal/overview/plans-environments"><rect x="704" y="704" width="96" height="80" rx="8" ry="8" class="k"/><text x="715" y="739.8" class="i">Insights by <tspan x="711.2" dy="1.2em" class="j">MyAnalytics</tspan></text></a><a target="_blank" href="https://products.office.com/microsoft-teams/"><rect x="592" y="800" width="96" height="80" rx="8" ry="8" class="k"/><text x="608.5" y="835.8" class="i">Microsoft <tspan x="617.8" dy="1.2em" class="j">Teams</tspan></text></a><a target="_blank" href="https://learn.microsoft.com/stream/"><rect x="368" y="992" width="96" height="80" rx="8" ry="8" class="k"/><text x="381" y="1027.8" class="i">Stream for <tspan x="382.5" dy="1.2em" class="j">Office 365</tspan></text></a><a target="_blank" href="https://support.office.com/sway"><rect x="480" y="992" width="96" height="80" rx="8" ry="8" class="k"/><text x="510.1" y="1036.2" class="i">Sway</text></a><a target="_blank" href="https://support.office.com/forms"><rect x="256" y="800" width="96" height="80" rx="8" ry="8" class="k"/><text x="272.5" y="835.8" class="i">Microsoft <tspan x="282.6" dy="1.2em" class="j">Forms</tspan></text></a><a target="_blank" href="https://learn.microsoft.com/office365/servicedescriptions/exchange-online-protection-service-description/exchange-online-protection-service-description"><rect x="592" y="704" width="96" height="80" rx="8" ry="8" class="k"/><text x="606.9" y="731.4" class="i">Exchange <tspan x="618.2" dy="1.2em" class="j">Online </tspan><tspan x="605.4" dy="1.2em" class="j">Protection</tspan></text></a><a target="_blank" href="https://products.office.com/en/business/microsoft-kaizala"><rect x="816" y="704" width="96" height="80" rx="8" ry="8" class="k"/><text x="826.3" y="739.8" class="i">Kaizala Pro<tspan x="835.2" dy="1.2em" class="j">(retiring)</tspan></text></a><a target="_blank" href="https://learn.microsoft.com/powerapps/teams/overview-data-platform"><rect x="144" y="800" width="96" height="80" rx="8" ry="8" class="k"/><text x="160.5" y="827.4" class="i">Microsoft <tspan x="158.5" dy="1.2em" class="j">Dataverse </tspan><tspan x="158.6" dy="1.2em" class="j">for Teams</tspan></text></a><a target="_blank" href="https://www.microsoft.com/microsoft-365/microsoft-lists"><rect x="368" y="800" width="96" height="80" rx="8" ry="8" class="k"/><text x="384.5" y="835.8" class="i">Microsoft <tspan x="399.7" dy="1.2em" class="j">Lists</tspan></text></a><a target="_blank" href="https://learn.microsoft.com/microsoft-365/bookings/bookings-overview"><rect x="928" y="608" width="96" height="80" rx="8" ry="8" class="k"/><text x="944.1" y="652.2" class="i">Bookings</text></a><a target="_blank" href="https://learn.microsoft.com/microsoft-365/compliance/search-the-audit-log-in-security-and-compliance"><rect x="592" y="608" width="96" height="80" rx="8" ry="8" class="k"/><text x="622.1" y="643.8" class="i">Audit <tspan x="605.8" dy="1.2em" class="j">(standard)</tspan></text></a><a target="_blank" href="https://learn.microsoft.com/microsoft-365/compliance/alert-policies"><rect x="368" y="608" width="96" height="80" rx="8" ry="8" class="k"/><text x="400" y="643.8" class="i">Alert <tspan x="389.5" dy="1.2em" class="j">Policies</tspan></text></a><a target="_blank" href="https://learn.microsoft.com/microsoft-365/whiteboard/"><rect x="816" y="800" width="96" height="80" rx="8" ry="8" class="k"/><text x="832.5" y="835.8" class="i">Microsoft <tspan x="825.5" dy="1.2em" class="j">Whiteboard</tspan></text></a><a target="_blank" href="https://www.microsoft.com/microsoft-365/microsoft-to-do-list-app"><rect x="704" y="800" width="96" height="80" rx="8" ry="8" class="k"/><text x="720.5" y="835.8" class="i">Microsoft <tspan x="732.2" dy="1.2em" class="j">To Do</tspan></text></a><a target="_blank" href="https://learn.microsoft.com/power-virtual-agents/teams/fundamentals-what-is-power-virtual-agents-teams"><rect x="704" y="896" width="96" height="80" rx="8" ry="8" class="k"/><text x="710.5" y="924.3" class="o">Power Virtual <tspan x="719.5" dy="1.2em" class="j">Agents for </tspan><tspan x="731.4" dy="1.2em" class="j">Teams</tspan></text></a><a target="_blank" href="https://products.office.com/mobile/office"><rect x="144" y="896" width="96" height="80" rx="8" ry="8" class="k"/><text x="172.2" y="931.8" class="i">Office<tspan x="150.4" dy="1.2em" class="j">Mobile Apps</tspan></text></a><a target="_blank" href="https://learn.microsoft.com/office365/servicedescriptions/office-online-service-description/office-online-service-description"><rect x="928" y="800" width="96" height="80" rx="8" ry="8" class="k"/><text x="956.2" y="827.4" class="i">Office<tspan x="937.5" dy="1.2em" class="j">for the Web</tspan><tspan x="940.6" dy="1.2em" class="j">(incl Visio)</tspan></text></a><a target="_blank" href="https://learn.microsoft.com/microsoft-365/admin/basic-mobility-security/capabilities"><rect x="816" y="608" width="96" height="80" rx="8" ry="8" class="k"/><text x="845.3" y="635.4" class="i">Basic <tspan x="830.6" dy="1.2em" class="j">Mobility &amp; </tspan><tspan x="836.4" dy="1.2em" class="j">Security</tspan></text></a><a target="_blank" href="https://azure.microsoft.com/pricing/details/active-directory/"><rect x="704" y="608" width="96" height="80" rx="8" ry="8" class="k"/><text x="709.2" y="643.8" class="i">Azure AD for <tspan x="718.5" dy="1.2em" class="j">Office 365</tspan></text></a><a target="_blank" href="https://www.microsoftpartnercommunity.com/t5/Announcement-Discussions/Microsoft-365-Pricing-and-Audio-Conferencing-Licensing-Updates/td-p/60233#toc-hId--2041231687"><rect x="480" y="608" width="96" height="80" rx="8" ry="8" class="k"/><text x="509.6" y="636.3" class="o">Audio <tspan x="486.1" dy="1.2em" class="j">Conferencing </tspan><tspan x="488.3" dy="1.2em" class="j">(free add</tspan>-on)</text></a><a target="_blank" href="https://www.microsoft.com/microsoft-viva/connections"><rect x="592" y="992" width="96" height="80" rx="8" ry="8" class="k"/><text x="625.6" y="1027.8" class="i">Viva <tspan x="597.6" dy="1.2em" class="j">Connections</tspan></text></a><a target="_blank" href="https://www.microsoft.com/microsoft-viva/learning"><rect x="816" y="992" width="96" height="80" rx="8" ry="8" class="k"/><text x="849.6" y="1019.4" class="i">Viva <tspan x="834.4" dy="1.2em" class="j">Learning </tspan><tspan x="841.4" dy="1.2em" class="j">(basic)</tspan></text></a><a target="_blank" href="https://www.microsoft.com/licensing/terms/product/CALandMLEquivalencyLicenses/"><rect x="816" y="896" width="96" height="80" rx="8" ry="8" class="k"/><text x="823.6" y="931.8" class="i">Productivity <tspan x="825.9" dy="1.2em" class="j">Server CAL</tspan></text></a><a target="_blank" href="https://learn.microsoft.com/project-for-the-web/office-365-user-view-access-to-project-and-roadmap"><rect x="928" y="896" width="96" height="80" rx="8" ry="8" class="k"/><text x="945.3" y="923.4" class="i">Project &amp; <tspan x="944.1" dy="1.2em" class="j">Roadmap </tspan><tspan x="933.6" dy="1.2em" class="j">View Access</tspan></text></a><a target="_blank" href="https://learn.microsoft.com/viva/engage/overview"><rect x="704" y="992" width="96" height="80" rx="8" ry="8" class="k"/><text x="737.6" y="1027.8" class="i">Viva <tspan x="726.7" dy="1.2em" class="j">Engage</tspan></text></a><a target="_blank" href="https://support.microsoft.com/office/1315665a-c6af-4409-a28d-49f8916878ca"><rect x="368" y="704" width="96" height="80" rx="8" ry="8" class="k"/><text x="397.3" y="748.2" class="i">Delve</text></a><a target="_blank" href="https://learn.microsoft.com/microsoft-365/compliance/compliance-manager-overview"><rect x="256" y="704" width="96" height="80" rx="8" ry="8" class="k"/><text x="264.3" y="739.8" class="i">Compliance <tspan x="275.2" dy="1.2em" class="j">Manager</tspan></text></a><a target="_blank" href="https://learn.microsoft.com/microsoft-365/security/defender/microsoft-secure-score"><rect x="144" y="992" width="96" height="80" rx="8" ry="8" class="k"/><text x="168.6" y="1027.8" class="i">Secure <tspan x="172.6" dy="1.2em" class="j">Score</tspan></text></a><a target="_blank" href="https://products.office.com/yammer/yammer-overview"><rect x="928" y="992" width="96" height="80" rx="8" ry="8" class="k"/><text x="948.4" y="1027.8" class="i">Yammer <tspan x="941.4" dy="1.2em" class="j">Enterprise</tspan></text></a><a target="_blank" href="https://learn.microsoft.com/microsoft-365/admin/adoption/adoption-score"><rect x="256" y="608" width="96" height="80" rx="8" ry="8" class="k"/><text x="273.3" y="643.8" class="i">Adoption <tspan x="284.6" dy="1.2em" class="j">Score</tspan></text></a><a target="_blank" href="https://learn.microsoft.com/microsoft-365/admin/activity-reports/activity-reports"><rect x="144" y="608" width="96" height="80" rx="8" ry="8" class="k"/><text x="166.7" y="643.8" class="i">Activity <tspan x="165.6" dy="1.2em" class="j">Reports</tspan></text></a><a target="_blank" href="https://learn.microsoft.com/viva/insights/personal/briefing/be-overview"><rect x="144" y="704" width="96" height="80" rx="8" ry="8" class="k"/><text x="165.6" y="739.8" class="i">Briefing <tspan x="173.3" dy="1.2em" class="j">Email</tspan></text></a><a target="_blank" href="https://m365maps.com/"><rect y="1184" width="1168" height="16" class="m"/><text x="1078.6" y="1195.6" class="p">m365maps.com</text></a><a target="_blank" href="https://learn.microsoft.com/microsoftsearch/overview-microsoft-search"><rect x="480" y="800" width="96" height="80" rx="8" ry="8" class="k"/><text x="496.5" y="835.8" class="i">Microsoft <tspan x="504.6" dy="1.2em" class="j">Search</tspan></text></a><a target="_blank" href="https://learn.microsoft.com/MicrosoftTeams/what-is-phone-system-in-office-365"><rect x="816" y="240" width="96" height="80" rx="8" ry="8" class="q"/><text x="841.8" y="275.8" class="i">Teams <tspan x="842.6" dy="1.2em" class="j">Phone</tspan></text></a><a target="_blank" href="https://learn.microsoft.com/microsoftteams/audio-conferencing-in-office-365"><rect x="368" y="48" width="96" height="80" rx="8" ry="8" class="q"/><text x="397.6" y="76.3" class="o">Audio <tspan x="374.1" dy="1.2em" class="j">Conferencing </tspan><tspan x="401.9" dy="1.2em" class="j">(full)</tspan></text></a><a target="_blank" href="https://learn.microsoft.com/power-bi/service-get-started"><rect x="144" y="240" width="96" height="80" rx="8" ry="8" class="q"/><text x="148.4" y="284.2" class="i">Power BI Pro</text></a><a target="_blank" href="https://learn.microsoft.com/microsoft-365/compliance/customer-lockbox-requests"><rect x="816" y="48" width="96" height="80" rx="8" ry="8" class="q"/><text x="831.3" y="83.8" class="i">Customer <tspan x="835.2" dy="1.2em" class="j">Lockbox</tspan></text></a><a target="_blank" href="https://learn.microsoft.com/microsoft-365/compliance/customer-key-overview"><rect x="704" y="48" width="96" height="80" rx="8" ry="8" class="q"/><text x="719.3" y="83.8" class="i">Customer <tspan x="739.2" dy="1.2em" class="j">Key</tspan></text></a><a target="_blank" href="https://learn.microsoft.com/microsoft-365/compliance/overview-ediscovery-20"><rect x="368" y="144" width="96" height="80" rx="8" ry="8" class="q"/><text x="378.6" y="179.8" class="i">eDiscovery <tspan x="381.8" dy="1.2em" class="j">(premium)</tspan></text></a><a target="_blank" href="https://learn.microsoft.com/microsoft-365/compliance/privileged-access-management-solution-overview"><rect x="256" y="240" width="96" height="80" rx="8" ry="8" class="q"/><text x="270.5" y="267.4" class="i">Privileged <tspan x="279.5" dy="1.2em" class="j">Access </tspan><tspan x="261.2" dy="1.2em" class="j">Management</tspan></text></a><a target="_blank" href="https://learn.microsoft.com/microsoft-365/compliance/dlp-microsoft-teams"><rect x="704" y="240" width="96" height="80" rx="8" ry="8" class="q"/><text x="729.8" y="267.4" class="i">Teams<tspan x="718.6" dy="1.2em" class="j">Data Loss </tspan><tspan x="715.8" dy="1.2em" class="j">Prevention</tspan></text></a><a target="_blank" href="https://learn.microsoft.com/microsoft-365/compliance/ome-advanced-message-encryption"><rect x="256" y="48" width="96" height="80" rx="8" ry="8" class="q"/><text x="270.6" y="75.4" class="i">Advanced <tspan x="274.4" dy="1.2em" class="j">Message </tspan><tspan x="267.4" dy="1.2em" class="j">Encryption</tspan></text></a><a target="_blank" href="https://learn.microsoft.com/microsoft-365/compliance/information-barriers"><rect x="704" y="144" width="96" height="80" rx="8" ry="8" class="q"/><text x="713.5" y="179.8" class="i">Information <tspan x="725.2" dy="1.2em" class="j">Barriers</tspan></text></a><a target="_blank" href="https://learn.microsoft.com/office365/servicedescriptions/mya-service-description"><rect x="816" y="144" width="96" height="80" rx="8" ry="8" class="q"/><text x="823.2" y="179.8" class="i">MyAnalytics <tspan x="848.8" dy="1.2em" class="j">(full)</tspan></text></a><a target="_blank" href="https://learn.microsoft.com/microsoft-365/compliance/communication-compliance"><rect x="592" y="48" width="96" height="80" rx="8" ry="8" class="q"/><text x="618.2" y="83.8" class="i">Comm <tspan x="600.3" dy="1.2em" class="j">Compliance</tspan></text></a><a target="_blank" href="https://learn.microsoft.com/cloud-app-security/editions-cloud-app-security-o365"><rect x="928" y="144" width="96" height="80" rx="8" ry="8" class="q"/><text x="942.5" y="171.4" class="i">Office 365 <tspan x="940.6" dy="1.2em" class="j">Cloud App </tspan><tspan x="948.4" dy="1.2em" class="j">Security</tspan></text></a><a target="_blank" href="https://learn.microsoft.com/microsoft-365/compliance/manage-data-governance"><rect x="928" y="48" width="96" height="80" rx="8" ry="8" class="q"/><text x="960.8" y="75.4" class="i">Data <tspan x="946" dy="1.2em" class="j">Lifecycle </tspan><tspan x="933.2" dy="1.2em" class="j">Management</tspan></text></a><a target="_blank" href="https://learn.microsoft.com/microsoft-365/compliance/records-management"><rect x="368" y="240" width="96" height="80" rx="8" ry="8" class="q"/><text x="388" y="275.8" class="i">Records <tspan x="373.2" dy="1.2em" class="j">Management</tspan></text></a><a target="_blank" href="https://learn.microsoft.com/microsoft-365/compliance/advanced-audit"><rect x="480" y="48" width="96" height="80" rx="8" ry="8" class="q"/><text x="510.1" y="83.8" class="i">Audit <tspan x="493.8" dy="1.2em" class="j">(premium)</tspan></text></a><a target="_blank" href="https://learn.microsoft.com/microsoft-365/compliance/double-key-encryption"><rect x="256" y="144" width="96" height="80" rx="8" ry="8" class="q"/><text x="265.5" y="179.8" class="i">Double Key <tspan x="267.4" dy="1.2em" class="j">Encryption</tspan></text></a><a target="_blank" href="https://learn.microsoft.com/office365/servicedescriptions/office-365-advanced-threat-protection-service-description#feature-availability-across-advanced-threat-protection-atp-plans"><rect x="144" y="144" width="96" height="80" rx="8" ry="8" class="q"/><text x="150.4" y="171.4" class="i">Defender for <tspan x="158.5" dy="1.2em" class="j">Office 365 </tspan><tspan x="171.4" dy="1.2em" class="j">Plan 2</tspan></text></a><a target="_blank" href="https://learn.microsoft.com/microsoft-365/compliance/apply-sensitivity-label-automatically"><rect x="480" y="240" width="96" height="80" rx="8" ry="8" class="q"/><text x="488.6" y="268.3" class="o">Rules-Based <tspan x="485.7" dy="1.2em" class="j">Classification</tspan><tspan x="492.6" dy="1.2em" class="j">(Office 365)</tspan></text></a><a target="_blank" href="https://www.microsoft.com/licensing/terms/product/CALandMLEquivalencyLicenses/"><rect x="592" y="240" width="96" height="80" rx="8" ry="8" class="q"/><text x="608.1" y="267.4" class="i">Skype for <tspan x="608.9" dy="1.2em" class="j">Business </tspan><tspan x="608.9" dy="1.2em" class="j">Plus CAL</tspan></text></a><a target="_blank" href="https://learn.microsoft.com/microsoft-365/compliance/sit-learn-about-exact-data-match-based-sits"><rect x="480" y="144" width="96" height="80" rx="8" ry="8" class="q"/><text x="492.2" y="179.8" class="i">Exact Data <tspan x="507.8" dy="1.2em" class="j">Match</tspan></text></a><a target="_blank" href="https://learn.microsoft.com/microsoftsearch/licensing#entitlement-built-into-microsoft-365-or-office-365-e5-licenses"><rect x="592" y="144" width="96" height="80" rx="8" ry="8" class="q"/><text x="620.9" y="164.5" class="o">Graph <tspan x="607.5" dy="1.2em" class="j">Connector </tspan><tspan x="602.4" dy="1.2em" class="j">Index Quota </tspan><tspan x="597.4" dy="1.2em" class="j">(500 per user)</tspan></text></a><a target="_blank" href="https://powerapps.microsoft.com/"><rect x="480" y="896" width="96" height="80" rx="8" ry="8" class="k"/><text x="487.6" y="923.4" class="i">Power Apps<tspan x="518.7" dy="1.2em" class="j">for </tspan><tspan x="494.5" dy="1.2em" class="j">Office 365</tspan></text></a><a target="_blank" href="https://powerautomate.microsoft.com/"><rect x="592" y="896" width="96" height="80" rx="8" ry="8" class="k"/><text x="619" y="923.4" class="i">Power <tspan x="596.4" dy="1.2em" class="j">Automate for</tspan><tspan x="606.5" dy="1.2em" class="j">Office 365</tspan></text></a><a target="_blank" href="https://learn.microsoft.com/office365/servicedescriptions/microsoft-365-service-descriptions/microsoft-365-tenantlevel-services-licensing-guidance/microsoft-365-security-compliance-licensing-guidance#which-templates-are-included-by-default-free-of-cost"><rect x="144" y="48" width="96" height="80" rx="8" ry="8" class="q"/><text x="152.3" y="67" class="i">3x Premium <tspan x="159" dy="1.2em" class="j">&amp; Custom </tspan><tspan x="152.3" dy="1.2em" class="j">Compliance </tspan><tspan x="157.4" dy="1.2em" class="j">Templates</tspan></text></a></svg>