<svg xmlns="http://www.w3.org/2000/svg" width="1280" height="1024" viewBox="0 0 1280 1024" class="a"><style>
.b {fill:#a5a5a5;fill-opacity:0.2;stroke:#d04a00;stroke-linecap:round;stroke-linejoin:round;stroke-width:2.2}
.c {fill:#a5a5a5;fill-opacity:0.2;stroke:#e82200;stroke-dasharray:15.8,11.2;stroke-linecap:round;stroke-linejoin:round;stroke-width:2.2}
.d {fill:#d04a00;stroke:#d04a00;stroke-linecap:round;stroke-linejoin:round;stroke-width:2.2}
.e {fill:#ffffff;font-family:Arial;font-size:1.7em;font-weight:bold}
.f {fill:#e82200;stroke:#e82200;stroke-linecap:round;stroke-linejoin:round;stroke-width:2.2}
.g {fill:none;stroke:none;stroke-linecap:round;stroke-linejoin:round;stroke-width:1}
.h {fill:#000000;font-family:Arial;font-size:1.2em;font-weight:bold}
.i {fill:#e82200;stroke:none;stroke-linecap:round;stroke-linejoin:round;stroke-width:1}
.j {fill:#ffffff;font-family:Arial;font-size:1.2em;font-weight:bold}
.k {font-size:1em}
.l {fill:#ffffff;font-family:Arial;font-size:1.1em;font-weight:bold}
.m {fill:none;stroke:none;stroke-linecap:round;stroke-linejoin:round;stroke-width:0.8}
.n {fill:#7f7f7f;font-family:Arial;font-size:1em}
.o {fill:#d04a00;stroke:none;stroke-linecap:round;stroke-linejoin:round;stroke-width:1}
.a {fill:none;fill-rule:evenodd;font-size:12px;overflow:visible;stroke-linecap:square;stroke-miterlimit:3}
</style><rect x="16" y="16" width="1248" height="992" rx="8" ry="8" class="b"/><rect x="48" y="352" width="1120" height="624" rx="8" ry="8" class="c"/><a target="_blank" href="https://www.microsoft.com/microsoft-365/enterprise/compare-office-365-plans" transform="translate(240,1008) rotate(-90)"><rect y="960" width="992" height="64" rx="8" ry="8" class="d"/><text x="432.6" y="998" class="e">Office 365 A5</text></a><a target="_blank" href="https://www.microsoft.com/microsoft-365/enterprise/compare-office-365-plans" transform="translate(-912,975.2) rotate(-90)"><rect y="960" width="624" height="64" rx="8" ry="8" class="f"/><text x="248.6" y="998" class="e">Office 365 A3</text></a><g><rect x="16" y="16" width="1072" height="32" rx="8" ry="8" class="g"/><text x="34.2" y="36.2" class="h">Education</text></g><a target="_blank" href="https://learn.microsoft.com/office365/servicedescriptions/exchange-online-service-description/exchange-online-service-description#feature-availability-across-exchange-online-standalone-plans"><rect x="368" y="480" width="96" height="80" rx="8" ry="8" class="i"/><text x="382.9" y="507.4" class="j">Exchange <tspan x="394.2" dy="1.2em" class="k">Online </tspan><tspan x="395.4" dy="1.2em" class="k">Plan 2</tspan></text></a><a target="_blank" href="https://learn.microsoft.com/cloud-app-security/editions-cloud-app-security-o365"><rect x="1040" y="576" width="96" height="80" rx="8" ry="8" class="i"/><text x="1054.5" y="603.4" class="j">Office 365 <tspan x="1052.6" dy="1.2em" class="k">Cloud App </tspan><tspan x="1060.4" dy="1.2em" class="k">Security</tspan></text></a><a target="_blank" href="https://learn.microsoft.com/microsoft-365/bookings/bookings-overview"><rect x="816" y="384" width="96" height="80" rx="8" ry="8" class="i"/><text x="832.1" y="428.2" class="j">Bookings</text></a><a target="_blank" href="https://www.microsoft.com/microsoft-365/business/microsoft-365-apps-for-enterprise-product"><rect x="144" y="576" width="96" height="80" rx="8" ry="8" class="i"/><text x="160.5" y="603.4" class="j">Microsoft <tspan x="149.6" dy="1.2em" class="k">365 Apps for </tspan><tspan x="158.2" dy="1.2em" class="k">Education</tspan></text></a><a target="_blank" href="https://learn.microsoft.com/microsoftteams/teams-live-events/what-are-teams-live-events"><rect x="1040" y="480" width="96" height="80" rx="8" ry="8" class="i"/><text x="1049.1" y="524.2" class="j">Live Events</text></a><a target="_blank" href="https://learn.microsoft.com/powerapps/teams/overview-data-platform"><rect x="256" y="576" width="96" height="80" rx="8" ry="8" class="i"/><text x="272.5" y="603.4" class="j">Microsoft <tspan x="270.5" dy="1.2em" class="k">Dataverse </tspan><tspan x="270.6" dy="1.2em" class="k">for Teams</tspan></text></a><a target="_blank" href="https://learn.microsoft.com/sharepoint/introduction"><rect x="816" y="768" width="96" height="80" rx="8" ry="8" class="i"/><text x="827" y="795.4" class="j">SharePoint <tspan x="842.2" dy="1.2em" class="k">Online </tspan><tspan x="843.4" dy="1.2em" class="k">Plan 2</tspan></text></a><a target="_blank" href="https://learn.microsoft.com/power-virtual-agents/teams/fundamentals-what-is-power-virtual-agents-teams"><rect x="144" y="768" width="96" height="80" rx="8" ry="8" class="i"/><text x="150.5" y="796.3" class="l">Power Virtual <tspan x="159.5" dy="1.2em" class="k">Agents for </tspan><tspan x="171.4" dy="1.2em" class="k">Teams</tspan></text></a><a target="_blank" href="https://products.office.com/yammer/yammer-overview"><rect x="592" y="864" width="96" height="80" rx="8" ry="8" class="i"/><text x="612.4" y="899.8" class="j">Yammer <tspan x="606.9" dy="1.2em" class="k">Academic</tspan></text></a><a target="_blank" href="https://support.office.com/sway"><rect x="1040" y="768" width="96" height="80" rx="8" ry="8" class="i"/><text x="1070.1" y="812.2" class="j">Sway</text></a><a target="_blank" href="https://learn.microsoft.com/office365/servicedescriptions/exchange-online-protection-service-description/exchange-online-protection-service-description"><rect x="480" y="480" width="96" height="80" rx="8" ry="8" class="i"/><text x="494.9" y="507.4" class="j">Exchange <tspan x="506.2" dy="1.2em" class="k">Online </tspan><tspan x="493.4" dy="1.2em" class="k">Protection</tspan></text></a><a target="_blank" href="https://products.office.com/microsoft-teams/"><rect x="704" y="576" width="96" height="80" rx="8" ry="8" class="i"/><text x="720.5" y="611.8" class="j">Microsoft <tspan x="729.8" dy="1.2em" class="k">Teams</tspan></text></a><a target="_blank" href="https://learn.microsoft.com/office365/servicedescriptions/onedrive-for-business-service-description"><rect x="480" y="672" width="96" height="80" rx="8" ry="8" class="i"/><text x="485.6" y="699.4" class="j">OneDrive for <tspan x="496.9" dy="1.2em" class="k">Business </tspan><tspan x="507.4" dy="1.2em" class="k">Plan 2</tspan></text></a><a target="_blank" href="https://products.office.com/business/task-management-software"><rect x="704" y="672" width="96" height="80" rx="8" ry="8" class="i"/><text x="726.3" y="716.2" class="j">Planner</text></a><a target="_blank" href="https://learn.microsoft.com/stream/"><rect x="928" y="768" width="96" height="80" rx="8" ry="8" class="i"/><text x="941" y="803.8" class="j">Stream for <tspan x="942.5" dy="1.2em" class="k">Office 365</tspan></text></a><a target="_blank" href="https://support.microsoft.com/office/1315665a-c6af-4409-a28d-49f8916878ca"><rect x="1040" y="384" width="96" height="80" rx="8" ry="8" class="i"/><text x="1069.3" y="428.2" class="j">Delve</text></a><a target="_blank" href="https://learn.microsoft.com/office365/securitycompliance/data-loss-prevention-policies"><rect x="928" y="384" width="96" height="80" rx="8" ry="8" class="i"/><text x="942.6" y="419.8" class="j">Data Loss <tspan x="939.8" dy="1.2em" class="k">Prevention</tspan></text></a><a target="_blank" href="https://sds.microsoft.com/"><rect x="592" y="768" width="96" height="80" rx="8" ry="8" class="i"/><text x="599.6" y="803.8" class="j">School Data <tspan x="623.3" dy="1.2em" class="k">Sync</tspan></text></a><a target="_blank" href="https://support.office.com/forms"><rect x="368" y="576" width="96" height="80" rx="8" ry="8" class="i"/><text x="384.5" y="611.8" class="j">Microsoft <tspan x="394.6" dy="1.2em" class="k">Forms</tspan></text></a><a target="_blank" href="https://www.onenote.com/classnotebook"><rect x="592" y="672" width="96" height="80" rx="8" ry="8" class="i"/><text x="610.8" y="699.4" class="j">OneNote <tspan x="621.3" dy="1.2em" class="k">Class </tspan><tspan x="607.7" dy="1.2em" class="k">Notebook</tspan></text></a><a target="_blank" href="https://www.microsoft.com/en-us/microsoft-365/blog/2016/06/20/professional-learning-community-groups-in-office-365-education/"><rect x="816" y="672" width="96" height="80" rx="8" ry="8" class="i"/><text x="850" y="707.8" class="j">PLC<tspan x="839.1" dy="1.2em" class="k">Groups</tspan></text></a><a target="_blank" href="https://learn.microsoft.com/microsoft-365/whiteboard/"><rect x="928" y="576" width="96" height="80" rx="8" ry="8" class="i"/><text x="944.5" y="611.8" class="j">Microsoft <tspan x="937.5" dy="1.2em" class="k">Whiteboard</tspan></text></a><a target="_blank" href="https://www.microsoft.com/microsoft-365/microsoft-to-do-list-app"><rect x="816" y="576" width="96" height="80" rx="8" ry="8" class="i"/><text x="832.5" y="611.8" class="j">Microsoft <tspan x="844.2" dy="1.2em" class="k">To Do</tspan></text></a><a target="_blank" href="https://learn.microsoft.com/microsoft-365/compliance/retention"><rect x="480" y="768" width="96" height="80" rx="8" ry="8" class="i"/><text x="495.7" y="795.4" class="j">Retention <tspan x="498.8" dy="1.2em" class="k">Labels &amp; </tspan><tspan x="501.5" dy="1.2em" class="k">Policies</tspan></text></a><a target="_blank" href="https://learn.microsoft.com/microsoft-365/compliance/get-started-core-ediscovery"><rect x="144" y="480" width="96" height="80" rx="8" ry="8" class="i"/><text x="154.6" y="515.8" class="j">eDiscovery <tspan x="157.8" dy="1.2em" class="k">(standard)</tspan></text></a><a target="_blank" href="https://www.microsoft.com/microsoft-365/microsoft-lists"><rect x="480" y="576" width="96" height="80" rx="8" ry="8" class="i"/><text x="496.5" y="611.8" class="j">Microsoft <tspan x="511.7" dy="1.2em" class="k">Lists</tspan></text></a><a target="_blank" href="https://products.office.com/en/business/microsoft-kaizala"><rect x="928" y="480" width="96" height="80" rx="8" ry="8" class="i"/><text x="938.3" y="515.8" class="j">Kaizala Pro<tspan x="947.2" dy="1.2em" class="k">(retiring)</tspan></text></a><a target="_blank" href="https://azure.microsoft.com/pricing/details/active-directory/"><rect x="592" y="384" width="96" height="80" rx="8" ry="8" class="i"/><text x="597.2" y="419.8" class="j">Azure AD for <tspan x="606.5" dy="1.2em" class="k">Office 365</tspan></text></a><a target="_blank" href="https://learn.microsoft.com/microsoft-365/admin/basic-mobility-security/capabilities"><rect x="704" y="384" width="96" height="80" rx="8" ry="8" class="i"/><text x="733.3" y="411.4" class="j">Basic <tspan x="718.6" dy="1.2em" class="k">Mobility &amp; </tspan><tspan x="724.4" dy="1.2em" class="k">Security</tspan></text></a><a target="_blank" href="https://learn.microsoft.com/viva/insights/personal/overview/plans-environments"><rect x="816" y="480" width="96" height="80" rx="8" ry="8" class="i"/><text x="827" y="515.8" class="j">Insights by <tspan x="823.2" dy="1.2em" class="k">MyAnalytics</tspan></text></a><a target="_blank" href="https://learn.microsoft.com/microsoft-365/compliance/sensitivity-labels"><rect x="704" y="480" width="96" height="80" rx="8" ry="8" class="i"/><text x="713.5" y="507.4" class="j">Information <tspan x="717.4" dy="1.2em" class="k">Protection</tspan><tspan x="723.2" dy="1.2em" class="k">for M365</tspan></text></a><a target="_blank" href="https://learn.microsoft.com/microsoft-365/compliance/search-the-audit-log-in-security-and-compliance"><rect x="480" y="384" width="96" height="80" rx="8" ry="8" class="i"/><text x="510.1" y="419.8" class="j">Audit <tspan x="493.8" dy="1.2em" class="k">(standard)</tspan></text></a><a target="_blank" href="https://learn.microsoft.com/microsoft-365/compliance/alert-policies"><rect x="368" y="384" width="96" height="80" rx="8" ry="8" class="i"/><text x="400" y="419.8" class="j">Alert <tspan x="389.5" dy="1.2em" class="k">Policies</tspan></text></a><a target="_blank" href="https://learn.microsoft.com/microsoft-365/compliance/ome"><rect x="144" y="672" width="96" height="80" rx="8" ry="8" class="i"/><text x="158.5" y="699.4" class="j">Office 365 <tspan x="162.4" dy="1.2em" class="k">Message </tspan><tspan x="155.4" dy="1.2em" class="k">Encryption</tspan></text></a><a target="_blank" href="https://www.microsoft.com/microsoft-viva/connections"><rect x="144" y="864" width="96" height="80" rx="8" ry="8" class="i"/><text x="177.6" y="899.8" class="j">Viva <tspan x="149.6" dy="1.2em" class="k">Connections</tspan></text></a><a target="_blank" href="https://www.microsoft.com/microsoft-viva/learning"><rect x="368" y="864" width="96" height="80" rx="8" ry="8" class="i"/><text x="401.6" y="891.4" class="j">Viva <tspan x="386.4" dy="1.2em" class="k">Learning </tspan><tspan x="393.4" dy="1.2em" class="k">(basic)</tspan></text></a><a target="_blank" href="https://products.office.com/mobile/office"><rect x="368" y="672" width="96" height="80" rx="8" ry="8" class="i"/><text x="396.2" y="707.8" class="j">Office <tspan x="374.4" dy="1.2em" class="k">Mobile Apps</tspan></text></a><a target="_blank" href="https://learn.microsoft.com/office365/servicedescriptions/office-online-service-description/office-online-service-description"><rect x="256" y="672" width="96" height="80" rx="8" ry="8" class="i"/><text x="284.2" y="699.4" class="j">Office<tspan x="265.5" dy="1.2em" class="k">for the Web</tspan><tspan x="268.6" dy="1.2em" class="k">(incl Visio)</tspan></text></a><a target="_blank" href="https://www.microsoft.com/licensing/terms/product/CALandMLEquivalencyLicenses/"><rect x="256" y="768" width="96" height="80" rx="8" ry="8" class="i"/><text x="263.6" y="803.8" class="j">Productivity <tspan x="265.9" dy="1.2em" class="k">Server CAL</tspan></text></a><a target="_blank" href="https://learn.microsoft.com/project-for-the-web/office-365-user-view-access-to-project-and-roadmap"><rect x="368" y="768" width="96" height="80" rx="8" ry="8" class="i"/><text x="385.3" y="795.4" class="j">Project &amp; <tspan x="384.1" dy="1.2em" class="k">Roadmap </tspan><tspan x="373.6" dy="1.2em" class="k">View Access</tspan></text></a><a target="_blank" href="https://learn.microsoft.com/viva/engage/overview"><rect x="256" y="864" width="96" height="80" rx="8" ry="8" class="i"/><text x="289.6" y="899.8" class="j">Viva <tspan x="278.7" dy="1.2em" class="k">Engage</tspan></text></a><a target="_blank" href="https://learn.microsoft.com/microsoftteams/set-up-webinars"><rect x="480" y="864" width="96" height="80" rx="8" ry="8" class="i"/><text x="496.5" y="908.2" class="j">Webinars</text></a><a target="_blank" href="https://learn.microsoft.com/microsoft-365/security/defender/microsoft-secure-score"><rect x="704" y="768" width="96" height="80" rx="8" ry="8" class="i"/><text x="728.6" y="803.8" class="j">Secure <tspan x="732.6" dy="1.2em" class="k">Score</tspan></text></a><a target="_blank" href="https://learn.microsoft.com/microsoft-365/compliance/information-barriers"><rect x="592" y="480" width="96" height="80" rx="8" ry="8" class="i"/><text x="601.5" y="515.8" class="j">Information <tspan x="613.2" dy="1.2em" class="k">Barriers</tspan></text></a><a target="_blank" href="https://learn.microsoft.com/microsoft-365/admin/adoption/adoption-score"><rect x="256" y="384" width="96" height="80" rx="8" ry="8" class="i"/><text x="273.3" y="419.8" class="j">Adoption <tspan x="284.6" dy="1.2em" class="k">Score</tspan></text></a><a target="_blank" href="https://learn.microsoft.com/microsoft-365/admin/activity-reports/activity-reports"><rect x="144" y="384" width="96" height="80" rx="8" ry="8" class="i"/><text x="166.7" y="419.8" class="j">Activity <tspan x="165.6" dy="1.2em" class="k">Reports</tspan></text></a><a target="_blank" href="https://support.microsoft.com/topic/27b56255-90c0-47aa-bac3-1c9f50157181"><rect x="256" y="480" width="96" height="80" rx="8" ry="8" class="i"/><text x="270.2" y="515.8" class="j">Education <tspan x="277.2" dy="1.2em" class="k">Insights</tspan></text></a><a target="_blank" href="https://m365maps.com/"><rect y="1008" width="1280" height="16" class="m"/><text x="1190.6" y="1019.6" class="n">m365maps.com</text></a><a target="_blank" href="https://learn.microsoft.com/microsoftsearch/overview-microsoft-search"><rect x="592" y="576" width="96" height="80" rx="8" ry="8" class="i"/><text x="608.5" y="611.8" class="j">Microsoft <tspan x="616.6" dy="1.2em" class="k">Search</tspan></text></a><a target="_blank" href="https://learn.microsoft.com/MicrosoftTeams/what-is-phone-system-in-office-365"><rect x="256" y="240" width="96" height="80" rx="8" ry="8" class="o"/><text x="281.8" y="275.8" class="j">Teams <tspan x="282.6" dy="1.2em" class="k">Phone</tspan></text></a><a target="_blank" href="https://learn.microsoft.com/microsoftteams/audio-conferencing-in-office-365"><rect x="368" y="48" width="96" height="80" rx="8" ry="8" class="o"/><text x="397.6" y="76.3" class="l">Audio <tspan x="374.1" dy="1.2em" class="k">Conferencing </tspan><tspan x="401.9" dy="1.2em" class="k">(full)</tspan></text></a><a target="_blank" href="https://learn.microsoft.com/power-bi/service-get-started"><rect x="592" y="144" width="96" height="80" rx="8" ry="8" class="o"/><text x="596.4" y="188.2" class="j">Power BI Pro</text></a><a target="_blank" href="https://learn.microsoft.com/microsoft-365/compliance/customer-lockbox-requests"><rect x="816" y="48" width="96" height="80" rx="8" ry="8" class="o"/><text x="831.3" y="83.8" class="j">Customer <tspan x="835.2" dy="1.2em" class="k">Lockbox</tspan></text></a><a target="_blank" href="https://learn.microsoft.com/microsoft-365/compliance/customer-key-overview"><rect x="704" y="48" width="96" height="80" rx="8" ry="8" class="o"/><text x="719.3" y="83.8" class="j">Customer <tspan x="739.2" dy="1.2em" class="k">Key</tspan></text></a><a target="_blank" href="https://learn.microsoft.com/microsoft-365/compliance/overview-ediscovery-20"><rect x="256" y="144" width="96" height="80" rx="8" ry="8" class="o"/><text x="266.6" y="179.8" class="j">eDiscovery <tspan x="269.8" dy="1.2em" class="k">(premium)</tspan></text></a><a target="_blank" href="https://learn.microsoft.com/microsoft-365/compliance/privileged-access-management-solution-overview"><rect x="704" y="144" width="96" height="80" rx="8" ry="8" class="o"/><text x="718.5" y="171.4" class="j">Privileged <tspan x="727.5" dy="1.2em" class="k">Access </tspan><tspan x="709.2" dy="1.2em" class="k">Management</tspan></text></a><a target="_blank" href="https://learn.microsoft.com/microsoft-365/compliance/dlp-microsoft-teams"><rect x="144" y="240" width="96" height="80" rx="8" ry="8" class="o"/><text x="169.8" y="267.4" class="j">Teams<tspan x="158.6" dy="1.2em" class="k">Data Loss </tspan><tspan x="155.8" dy="1.2em" class="k">Prevention</tspan></text></a><a target="_blank" href="https://learn.microsoft.com/microsoft-365/compliance/ome-advanced-message-encryption"><rect x="256" y="48" width="96" height="80" rx="8" ry="8" class="o"/><text x="270.6" y="75.4" class="j">Advanced <tspan x="274.4" dy="1.2em" class="k">Message </tspan><tspan x="267.4" dy="1.2em" class="k">Encryption</tspan></text></a><a target="_blank" href="https://learn.microsoft.com/office365/servicedescriptions/mya-service-description"><rect x="480" y="144" width="96" height="80" rx="8" ry="8" class="o"/><text x="487.2" y="179.8" class="j">MyAnalytics <tspan x="512.8" dy="1.2em" class="k">(full)</tspan></text></a><a target="_blank" href="https://learn.microsoft.com/microsoft-365/compliance/communication-compliance"><rect x="592" y="48" width="96" height="80" rx="8" ry="8" class="o"/><text x="618.2" y="83.8" class="j">Comm <tspan x="600.3" dy="1.2em" class="k">Compliance</tspan></text></a><a target="_blank" href="https://learn.microsoft.com/microsoft-365/compliance/manage-data-governance"><rect x="928" y="48" width="96" height="80" rx="8" ry="8" class="o"/><text x="960.8" y="75.4" class="j">Data <tspan x="946" dy="1.2em" class="k">Lifecycle </tspan><tspan x="933.2" dy="1.2em" class="k">Management</tspan></text></a><a target="_blank" href="https://learn.microsoft.com/microsoft-365/compliance/records-management"><rect x="816" y="144" width="96" height="80" rx="8" ry="8" class="o"/><text x="836" y="179.8" class="j">Records <tspan x="821.2" dy="1.2em" class="k">Management</tspan></text></a><a target="_blank" href="https://learn.microsoft.com/microsoft-365/compliance/advanced-audit"><rect x="480" y="48" width="96" height="80" rx="8" ry="8" class="o"/><text x="510.1" y="83.8" class="j">Audit <tspan x="493.8" dy="1.2em" class="k">(premium)</tspan></text></a><a target="_blank" href="https://learn.microsoft.com/microsoft-365/compliance/double-key-encryption"><rect x="144" y="144" width="96" height="80" rx="8" ry="8" class="o"/><text x="153.5" y="179.8" class="j">Double Key <tspan x="155.4" dy="1.2em" class="k">Encryption</tspan></text></a><a target="_blank" href="https://learn.microsoft.com/microsoft-365/compliance/apply-sensitivity-label-automatically"><rect x="928" y="144" width="96" height="80" rx="8" ry="8" class="o"/><text x="936.6" y="172.3" class="l">Rules-Based <tspan x="933.7" dy="1.2em" class="k">Classification</tspan><tspan x="940.6" dy="1.2em" class="k">(Office 365)</tspan></text></a><a target="_blank" href="https://www.microsoft.com/licensing/terms/product/CALandMLEquivalencyLicenses/"><rect x="1040" y="144" width="96" height="80" rx="8" ry="8" class="o"/><text x="1056.1" y="171.4" class="j">Skype for <tspan x="1056.9" dy="1.2em" class="k">Business </tspan><tspan x="1056.9" dy="1.2em" class="k">Plus CAL</tspan></text></a><a target="_blank" href="https://learn.microsoft.com/microsoft-365/compliance/sit-learn-about-exact-data-match-based-sits"><rect x="368" y="144" width="96" height="80" rx="8" ry="8" class="o"/><text x="380.2" y="179.8" class="j">Exact Data <tspan x="395.8" dy="1.2em" class="k">Match</tspan></text></a><a target="_blank" href="https://learn.microsoft.com/office365/servicedescriptions/office-365-advanced-threat-protection-service-description#feature-availability-across-advanced-threat-protection-atp-plans"><rect x="1040" y="48" width="96" height="80" rx="8" ry="8" class="o"/><text x="1046.4" y="75.4" class="j">Defender for <tspan x="1054.5" dy="1.2em" class="k">Office 365 </tspan><tspan x="1067.4" dy="1.2em" class="k">Plan 2</tspan></text></a><a target="_blank" href="https://powerapps.microsoft.com/"><rect x="928" y="672" width="96" height="80" rx="8" ry="8" class="i"/><text x="935.6" y="699.4" class="j">Power Apps<tspan x="966.7" dy="1.2em" class="k">for </tspan><tspan x="942.5" dy="1.2em" class="k">Office 365</tspan></text></a><a target="_blank" href="https://powerautomate.microsoft.com/"><rect x="1040" y="672" width="96" height="80" rx="8" ry="8" class="i"/><text x="1067" y="699.4" class="j">Power <tspan x="1044.4" dy="1.2em" class="k">Automate for</tspan><tspan x="1054.5" dy="1.2em" class="k">Office 365</tspan></text></a><a target="_blank" href="https://learn.microsoft.com/office365/servicedescriptions/microsoft-365-service-descriptions/microsoft-365-tenantlevel-services-licensing-guidance/microsoft-365-security-compliance-licensing-guidance#which-templates-are-included-by-default-free-of-cost"><rect x="144" y="48" width="96" height="80" rx="8" ry="8" class="o"/><text x="152.3" y="67" class="j">3x Premium <tspan x="159" dy="1.2em" class="k">&amp; Custom </tspan><tspan x="152.3" dy="1.2em" class="k">Compliance </tspan><tspan x="157.4" dy="1.2em" class="k">Templates</tspan></text></a></svg>