<svg xmlns="http://www.w3.org/2000/svg" width="1056" height="1520" viewBox="0 0 1056 1520" class="a"><style>
.b {fill:#a5a5a5;fill-opacity:0.2;stroke:#d04a00;stroke-linecap:round;stroke-linejoin:round;stroke-width:2.2}
.c {fill:#a5a5a5;fill-opacity:0.2;stroke:#e82200;stroke-dasharray:15.8,11.2;stroke-linecap:round;stroke-linejoin:round;stroke-width:2.2}
.d {fill:#a5a5a5;fill-opacity:0.2;stroke:#a41500;stroke-dasharray:2.2,4.5;stroke-linecap:round;stroke-linejoin:round;stroke-width:2.2}
.e {fill:#d04a00;stroke:#d04a00;stroke-linecap:round;stroke-linejoin:round;stroke-width:2.2}
.f {fill:#ffffff;font-family:Arial;font-size:1.7em;font-weight:bold}
.g {fill:#e82200;stroke:#e82200;stroke-linecap:round;stroke-linejoin:round;stroke-width:2.2}
.h {fill:#a41500;stroke:#a41500;stroke-linecap:round;stroke-linejoin:round;stroke-width:2.2}
.i {fill:#e82200;stroke:none;stroke-linecap:round;stroke-linejoin:round;stroke-width:1}
.j {fill:#ffffff;font-family:Arial;font-size:1.2em;font-weight:bold}
.k {font-size:1em}
.l {fill:#d04a00;stroke:none;stroke-linecap:round;stroke-linejoin:round;stroke-width:1}
.m {fill:#ffffff;font-family:Arial;font-size:1.1em;font-weight:bold}
.n {fill:none;stroke:none;stroke-linecap:round;stroke-linejoin:round;stroke-width:0.8}
.o {fill:#000000;font-family:Arial;font-size:1.2em;font-weight:bold}
.p {fill:#a5a5a5;fill-opacity:0.2;stroke:#d04a00;stroke-dasharray:2.2,4.5;stroke-linecap:round;stroke-linejoin:round;stroke-width:2.2}
.q {fill:#a5a5a5;fill-opacity:0.2;stroke:#d04a00;stroke-dasharray:15.8,11.2;stroke-linecap:round;stroke-linejoin:round;stroke-width:2.2}
.r {fill:none;stroke:none;stroke-linecap:round;stroke-linejoin:round;stroke-width:1}
.s {fill:#000000;font-family:Arial;font-size:1.3em}
.t {fill:#a41500;stroke:none;stroke-linecap:round;stroke-linejoin:round;stroke-width:1}
.u {fill:#7f7f7f;font-family:Arial;font-size:1em}
.a {fill:none;fill-rule:evenodd;font-size:12px;overflow:visible;stroke-linecap:square;stroke-miterlimit:3}
</style><rect x="16" y="16" width="1024" height="1488" rx="8" ry="8" class="b"/><rect x="48" y="576" width="896" height="896" rx="8" ry="8" class="c"/><rect x="128" y="816" width="800" height="640" rx="8" ry="8" class="d"/><a target="_blank" href="https://www.microsoft.com/microsoft-365/enterprise/compare-office-365-plans" transform="translate(-480,1504) rotate(-90)"><rect y="1456" width="1488" height="64" rx="8" ry="8" class="e"/><text x="680.6" y="1494" class="f">Office 365 A5</text></a><a target="_blank" href="https://www.microsoft.com/microsoft-365/enterprise/compare-office-365-plans" transform="translate(-1408,1472) rotate(-90)"><rect y="1456" width="896" height="64" rx="8" ry="8" class="g"/><text x="384.6" y="1494" class="f">Office 365 A3</text></a><a target="_blank" href="https://www.microsoft.com/microsoft-365/enterprise/compare-office-365-plans"><rect x="128" y="1408" width="800" height="48" rx="8" ry="8" class="h"/><text x="394.1" y="1438" class="f">Office 365 A1 (Free for EDU)</text></a><a target="_blank" href="https://learn.microsoft.com/office365/servicedescriptions/exchange-online-service-description/exchange-online-service-description#feature-availability-across-exchange-online-standalone-plans"><rect x="256" y="608" width="96" height="80" rx="8" ry="8" class="i"/><text x="270.9" y="635.4" class="j">Exchange <tspan x="282.2" dy="1.2em" class="k">Online </tspan><tspan x="283.4" dy="1.2em" class="k">Plan 2</tspan></text></a><a target="_blank" href="https://learn.microsoft.com/cloud-app-security/editions-cloud-app-security-o365"><rect x="816" y="608" width="96" height="80" rx="8" ry="8" class="i"/><text x="830.5" y="635.4" class="j">Office 365 <tspan x="828.6" dy="1.2em" class="k">Cloud App </tspan><tspan x="836.4" dy="1.2em" class="k">Security</tspan></text></a><a target="_blank" href="https://learn.microsoft.com/microsoft-365/bookings/bookings-overview"><rect x="144" y="608" width="96" height="80" rx="8" ry="8" class="i"/><text x="160.1" y="652.2" class="j">Bookings</text></a><a target="_blank" href="https://learn.microsoft.com/microsoftteams/teams-live-events/what-are-teams-live-events"><rect x="480" y="608" width="96" height="80" rx="8" ry="8" class="i"/><text x="489.1" y="652.2" class="j">Live Events</text></a><a target="_blank" href="https://www.microsoft.com/microsoft-365/business/microsoft-365-apps-for-enterprise-product"><rect x="592" y="608" width="96" height="80" rx="8" ry="8" class="i"/><text x="608.5" y="635.4" class="j">Microsoft <tspan x="597.6" dy="1.2em" class="k">365 Apps for </tspan><tspan x="606.2" dy="1.2em" class="k">Education</tspan></text></a><a target="_blank" href="https://learn.microsoft.com/powerapps/teams/overview-data-platform"><rect x="704" y="608" width="96" height="80" rx="8" ry="8" class="i"/><text x="720.5" y="635.4" class="j">Microsoft <tspan x="718.5" dy="1.2em" class="k">Dataverse </tspan><tspan x="718.6" dy="1.2em" class="k">for Teams</tspan></text></a><a target="_blank" href="https://learn.microsoft.com/MicrosoftTeams/what-is-phone-system-in-office-365"><rect x="704" y="448" width="96" height="80" rx="8" ry="8" class="l"/><text x="729.8" y="483.8" class="j">Teams <tspan x="730.6" dy="1.2em" class="k">Phone</tspan></text></a><a target="_blank" href="https://learn.microsoft.com/microsoftteams/audio-conferencing-in-office-365"><rect x="704" y="64" width="96" height="80" rx="8" ry="8" class="l"/><text x="733.6" y="92.3" class="m">Audio <tspan x="710.1" dy="1.2em" class="k">Conferencing </tspan><tspan x="737.9" dy="1.2em" class="k">(full)</tspan></text></a><a target="_blank" href="https://learn.microsoft.com/power-bi/service-get-started"><rect x="480" y="352" width="96" height="80" rx="8" ry="8" class="l"/><text x="484.4" y="396.2" class="j">Power BI Pro</text></a><a target="_blank" href="https://learn.microsoft.com/microsoft-365/compliance/customer-lockbox-requests"><rect x="704" y="160" width="96" height="80" rx="8" ry="8" class="l"/><text x="719.3" y="195.8" class="j">Customer <tspan x="723.2" dy="1.2em" class="k">Lockbox</tspan></text></a><a target="_blank" href="https://learn.microsoft.com/microsoft-365/compliance/customer-key-overview"><rect x="592" y="160" width="96" height="80" rx="8" ry="8" class="l"/><text x="607.3" y="195.8" class="j">Customer <tspan x="627.2" dy="1.2em" class="k">Key</tspan></text></a><a target="_blank" href="https://learn.microsoft.com/microsoft-365/compliance/overview-ediscovery-20"><rect x="592" y="256" width="96" height="80" rx="8" ry="8" class="l"/><text x="602.6" y="291.8" class="j">eDiscovery <tspan x="605.8" dy="1.2em" class="k">(premium)</tspan></text></a><a target="_blank" href="https://learn.microsoft.com/microsoft-365/compliance/privileged-access-management-solution-overview"><rect x="592" y="352" width="96" height="80" rx="8" ry="8" class="l"/><text x="606.5" y="379.4" class="j">Privileged <tspan x="615.5" dy="1.2em" class="k">Access </tspan><tspan x="597.2" dy="1.2em" class="k">Management</tspan></text></a><a target="_blank" href="https://learn.microsoft.com/microsoft-365/compliance/dlp-microsoft-teams"><rect x="592" y="448" width="96" height="80" rx="8" ry="8" class="l"/><text x="617.8" y="475.4" class="j">Teams<tspan x="606.6" dy="1.2em" class="k">Data Loss </tspan><tspan x="603.8" dy="1.2em" class="k">Prevention</tspan></text></a><a target="_blank" href="https://learn.microsoft.com/microsoft-365/compliance/ome-advanced-message-encryption"><rect x="592" y="64" width="96" height="80" rx="8" ry="8" class="l"/><text x="606.6" y="91.4" class="j">Advanced <tspan x="610.4" dy="1.2em" class="k">Message </tspan><tspan x="603.4" dy="1.2em" class="k">Encryption</tspan></text></a><a target="_blank" href="https://learn.microsoft.com/office365/servicedescriptions/mya-service-description"><rect x="816" y="256" width="96" height="80" rx="8" ry="8" class="l"/><text x="823.2" y="291.8" class="j">MyAnalytics <tspan x="848.8" dy="1.2em" class="k">(full)</tspan></text></a><a target="_blank" href="https://learn.microsoft.com/microsoft-365/compliance/communication-compliance"><rect x="480" y="160" width="96" height="80" rx="8" ry="8" class="l"/><text x="506.2" y="195.8" class="j">Comm <tspan x="488.3" dy="1.2em" class="k">Compliance</tspan></text></a><a target="_blank" href="https://learn.microsoft.com/microsoft-365/compliance/manage-data-governance"><rect x="816" y="160" width="96" height="80" rx="8" ry="8" class="l"/><text x="848.8" y="187.4" class="j">Data <tspan x="834" dy="1.2em" class="k">Lifecycle </tspan><tspan x="821.2" dy="1.2em" class="k">Management</tspan></text></a><a target="_blank" href="https://learn.microsoft.com/microsoft-365/compliance/records-management"><rect x="704" y="352" width="96" height="80" rx="8" ry="8" class="l"/><text x="724" y="387.8" class="j">Records <tspan x="709.2" dy="1.2em" class="k">Management</tspan></text></a><a target="_blank" href="https://learn.microsoft.com/microsoft-365/compliance/advanced-audit"><rect x="816" y="64" width="96" height="80" rx="8" ry="8" class="l"/><text x="846.1" y="99.8" class="j">Audit <tspan x="829.8" dy="1.2em" class="k">(premium)</tspan></text></a><a target="_blank" href="https://learn.microsoft.com/microsoft-365/compliance/double-key-encryption"><rect x="480" y="256" width="96" height="80" rx="8" ry="8" class="l"/><text x="489.5" y="291.8" class="j">Double Key <tspan x="491.4" dy="1.2em" class="k">Encryption</tspan></text></a><a target="_blank" href="https://learn.microsoft.com/sharepoint/introduction"><rect x="480" y="704" width="96" height="80" rx="8" ry="8" class="i"/><text x="491" y="731.4" class="j">SharePoint <tspan x="506.2" dy="1.2em" class="k">Online </tspan><tspan x="507.4" dy="1.2em" class="k">Plan 2</tspan></text></a><a target="_blank" href="https://learn.microsoft.com/power-virtual-agents/teams/fundamentals-what-is-power-virtual-agents-teams"><rect x="256" y="704" width="96" height="80" rx="8" ry="8" class="i"/><text x="262.5" y="732.3" class="m">Power Virtual <tspan x="271.5" dy="1.2em" class="k">Agents for </tspan><tspan x="283.4" dy="1.2em" class="k">Teams</tspan></text></a><a target="_blank" href="https://learn.microsoft.com/microsoft-365/compliance/apply-sensitivity-label-automatically"><rect x="816" y="352" width="96" height="80" rx="8" ry="8" class="l"/><text x="824.6" y="380.3" class="m">Rules-Based <tspan x="821.7" dy="1.2em" class="k">Classification</tspan><tspan x="828.6" dy="1.2em" class="k">(Office 365)</tspan></text></a><g><rect x="16" y="16" width="960" height="32" class="n"/><text x="34.2" y="36.2" class="o">Education</text></g><a target="_blank" href="https://learn.microsoft.com/viva/insights/personal/overview/plans-environments"><rect x="368" y="608" width="96" height="80" rx="8" ry="8" class="i"/><text x="379" y="643.8" class="j">Insights by <tspan x="375.2" dy="1.2em" class="k">MyAnalytics</tspan></text></a><a target="_blank" href="https://learn.microsoft.com/office365/servicedescriptions/onedrive-for-business-service-description"><rect x="144" y="704" width="96" height="80" rx="8" ry="8" class="i"/><text x="149.6" y="731.4" class="j">OneDrive for <tspan x="160.9" dy="1.2em" class="k">Business </tspan><tspan x="171.4" dy="1.2em" class="k">Plan 2</tspan></text></a><a target="_blank" href="https://www.microsoft.com/licensing/terms/product/CALandMLEquivalencyLicenses/"><rect x="368" y="704" width="96" height="80" rx="8" ry="8" class="i"/><text x="375.6" y="739.8" class="j">Productivity <tspan x="377.9" dy="1.2em" class="k">Server CAL</tspan></text></a><a target="_blank" href="https://www.microsoft.com/licensing/terms/product/CALandMLEquivalencyLicenses/"><rect x="480" y="448" width="96" height="80" rx="8" ry="8" class="l"/><text x="496.1" y="475.4" class="j">Skype for <tspan x="496.9" dy="1.2em" class="k">Business </tspan><tspan x="496.9" dy="1.2em" class="k">Plus CAL</tspan></text></a><rect x="64" y="48" width="384" height="496" rx="8" ry="8" class="p"/><rect x="80" y="64" width="352" height="240" rx="8" ry="8" class="q"/><a target="_blank" href="https://learn.microsoft.com/office365/servicedescriptions/office-365-advanced-threat-protection-service-description#feature-availability-across-advanced-threat-protection-atp-plans"><rect x="64" y="496" width="384" height="48" rx="8" ry="8" class="r"/><text x="172.8" y="515.2" class="s">Defender for Office 365 <tspan x="233.3" dy="1.2em" class="k">Plan 2</tspan></text></a><a target="_blank" href="https://learn.microsoft.com/office365/securitycompliance/threat-trackers"><rect x="320" y="416" width="96" height="80" rx="8" ry="8" class="l"/><text x="346.6" y="451.8" class="j">Threat <tspan x="338.8" dy="1.2em" class="k">Trackers</tspan></text></a><a target="_blank" href="https://learn.microsoft.com/microsoft-365/security/office-365-security/attack-simulation-training-get-started"><rect x="96" y="320" width="96" height="80" rx="8" ry="8" class="l"/><text x="122.6" y="347.4" class="j">Attack <tspan x="108.2" dy="1.2em" class="k">Simulation </tspan><tspan x="116.4" dy="1.2em" class="k">Training</tspan></text></a><a target="_blank" href="https://learn.microsoft.com/microsoft-365/security/office-365-security/threat-explorer"><rect x="208" y="416" width="96" height="80" rx="8" ry="8" class="l"/><text x="234.6" y="451.8" class="j">Threat <tspan x="227.6" dy="1.2em" class="k">Explorer</tspan></text></a><a target="_blank" href="https://learn.microsoft.com/microsoft-365/security/office-365-security/automated-investigation-response-office"><rect x="208" y="320" width="96" height="80" rx="8" ry="8" class="l"/><text x="219.4" y="347.4" class="j">Automated <tspan x="212.8" dy="1.2em" class="k">Investigation </tspan><tspan x="215.6" dy="1.2em" class="k">&amp; Response</tspan></text></a><a target="_blank" href="https://learn.microsoft.com/microsoft-365/security/office-365-security/atp-safe-links"><rect x="208" y="176" width="96" height="80" rx="8" ry="8" class="l"/><text x="221" y="220.2" class="j">Safe Links</text></a><a target="_blank" href="https://learn.microsoft.com/microsoft-365/security/office-365-security/atp-safe-attachments"><rect x="96" y="176" width="96" height="80" rx="8" ry="8" class="l"/><text x="129.2" y="211.8" class="j">Safe <tspan x="101.6" dy="1.2em" class="k">Attachments</tspan></text></a><a target="_blank" href="https://learn.microsoft.com/microsoft-365/security/office-365-security/atp-anti-phishing"><rect x="96" y="80" width="96" height="80" rx="8" ry="8" class="l"/><text x="128.1" y="115.8" class="j">Anti-<tspan x="114.4" dy="1.2em" class="k">Phishing</tspan></text></a><a target="_blank" href="https://learn.microsoft.com/office365/servicedescriptions/office-365-advanced-threat-protection-service-description#feature-availability-across-advanced-threat-protection-atp-plans"><rect x="80" y="256" width="352" height="48" rx="8" ry="8" class="r"/><text x="172.8" y="275.2" class="s">Defender for Office 365 <tspan x="233.3" dy="1.2em" class="k">Plan 1</tspan></text></a><a target="_blank" href="https://learn.microsoft.com/microsoft-365/security/office-365-security/address-compromised-users-quickly"><rect x="96" y="416" width="96" height="80" rx="8" ry="8" class="l"/><text x="100.3" y="444.3" class="m">Compromised <tspan x="129.6" dy="1.2em" class="k">User </tspan><tspan x="114.4" dy="1.2em" class="k">Detection</tspan></text></a><a target="_blank" href="https://learn.microsoft.com/microsoft-365/security/office-365-security/campaigns"><rect x="320" y="320" width="96" height="80" rx="8" ry="8" class="l"/><text x="334.2" y="355.8" class="j">Campaign <tspan x="348.2" dy="1.2em" class="k">Views</tspan></text></a><a target="_blank" href="https://learn.microsoft.com/microsoft-365/security/office-365-security/view-reports-for-mdo"><rect x="320" y="80" width="96" height="80" rx="8" ry="8" class="l"/><text x="334.6" y="115.8" class="j">Real-Time <tspan x="341.6" dy="1.2em" class="k">Reports</tspan></text></a><a target="_blank" href="https://learn.microsoft.com/office365/servicedescriptions/exchange-online-protection-service-description/exchange-online-protection-service-description"><rect x="208" y="80" width="96" height="80" rx="8" ry="8" class="l"/><text x="222.9" y="107.4" class="j">Exchange <tspan x="234.2" dy="1.2em" class="k">Online </tspan><tspan x="221.4" dy="1.2em" class="k">Protection</tspan></text></a><a target="_blank" href="https://products.office.com/yammer/yammer-overview"><rect x="704" y="1312" width="96" height="80" rx="8" ry="8" class="t"/><text x="724.4" y="1347.8" class="j">Yammer <tspan x="718.9" dy="1.2em" class="k">Academic</tspan></text></a><a target="_blank" href="https://support.office.com/sway"><rect x="256" y="1312" width="96" height="80" rx="8" ry="8" class="t"/><text x="286.1" y="1356.2" class="j">Sway</text></a><a target="_blank" href="https://learn.microsoft.com/office365/servicedescriptions/exchange-online-protection-service-description/exchange-online-protection-service-description"><rect x="592" y="928" width="96" height="80" rx="8" ry="8" class="t"/><text x="606.9" y="955.4" class="j">Exchange <tspan x="618.2" dy="1.2em" class="k">Online </tspan><tspan x="605.4" dy="1.2em" class="k">Protection</tspan></text></a><a target="_blank" href="https://products.office.com/microsoft-teams/"><rect x="592" y="1024" width="96" height="80" rx="8" ry="8" class="t"/><text x="608.5" y="1059.8" class="j">Microsoft <tspan x="617.8" dy="1.2em" class="k">Teams</tspan></text></a><a target="_blank" href="https://learn.microsoft.com/office365/servicedescriptions/exchange-online-service-description/exchange-online-service-description#feature-availability-across-exchange-online-standalone-plans"><rect x="480" y="928" width="96" height="80" rx="8" ry="8" class="t"/><text x="494.9" y="955.4" class="j">Exchange <tspan x="506.2" dy="1.2em" class="k">Online </tspan><tspan x="507.4" dy="1.2em" class="k">Plan 1</tspan></text></a><a target="_blank" href="https://learn.microsoft.com/sharepoint/introduction"><rect x="816" y="1216" width="96" height="80" rx="8" ry="8" class="t"/><text x="827" y="1243.4" class="j">SharePoint <tspan x="842.2" dy="1.2em" class="k">Online </tspan><tspan x="843.4" dy="1.2em" class="k">Plan 1</tspan></text></a><a target="_blank" href="https://learn.microsoft.com/office365/servicedescriptions/onedrive-for-business-service-description"><rect x="480" y="1120" width="96" height="80" rx="8" ry="8" class="t"/><text x="485.6" y="1147.4" class="j">OneDrive for <tspan x="496.9" dy="1.2em" class="k">Business </tspan><tspan x="507.4" dy="1.2em" class="k">Plan 1</tspan></text></a><a target="_blank" href="https://products.office.com/business/task-management-software"><rect x="704" y="1120" width="96" height="80" rx="8" ry="8" class="t"/><text x="726.3" y="1164.2" class="j">Planner</text></a><a target="_blank" href="https://learn.microsoft.com/stream/"><rect x="144" y="1312" width="96" height="80" rx="8" ry="8" class="t"/><text x="157" y="1347.8" class="j">Stream for <tspan x="158.5" dy="1.2em" class="k">Office 365</tspan></text></a><a target="_blank" href="https://support.microsoft.com/office/1315665a-c6af-4409-a28d-49f8916878ca"><rect x="144" y="928" width="96" height="80" rx="8" ry="8" class="t"/><text x="173.3" y="972.2" class="j">Delve</text></a><a target="_blank" href="https://sds.microsoft.com/"><rect x="592" y="1216" width="96" height="80" rx="8" ry="8" class="t"/><text x="599.6" y="1251.8" class="j">School Data <tspan x="623.3" dy="1.2em" class="k">Sync</tspan></text></a><a target="_blank" href="https://support.office.com/forms"><rect x="256" y="1024" width="96" height="80" rx="8" ry="8" class="t"/><text x="272.5" y="1059.8" class="j">Microsoft <tspan x="282.6" dy="1.2em" class="k">Forms</tspan></text></a><a target="_blank" href="https://www.onenote.com/classnotebook"><rect x="592" y="1120" width="96" height="80" rx="8" ry="8" class="t"/><text x="610.8" y="1147.4" class="j">OneNote <tspan x="621.3" dy="1.2em" class="k">Class </tspan><tspan x="607.7" dy="1.2em" class="k">Notebook</tspan></text></a><a target="_blank" href="https://www.microsoft.com/en-us/microsoft-365/blog/2016/06/20/professional-learning-community-groups-in-office-365-education/"><rect x="816" y="1120" width="96" height="80" rx="8" ry="8" class="t"/><text x="850" y="1155.8" class="j">PLC<tspan x="839.1" dy="1.2em" class="k">Groups</tspan></text></a><a target="_blank" href="https://learn.microsoft.com/microsoft-365/whiteboard/"><rect x="816" y="1024" width="96" height="80" rx="8" ry="8" class="t"/><text x="832.5" y="1059.8" class="j">Microsoft <tspan x="825.5" dy="1.2em" class="k">Whiteboard</tspan></text></a><a target="_blank" href="https://www.microsoft.com/microsoft-365/microsoft-to-do-list-app"><rect x="704" y="1024" width="96" height="80" rx="8" ry="8" class="t"/><text x="720.5" y="1059.8" class="j">Microsoft <tspan x="732.2" dy="1.2em" class="k">To Do</tspan></text></a><a target="_blank" href="https://learn.microsoft.com/microsoft-365/compliance/retention"><rect x="480" y="1216" width="96" height="80" rx="8" ry="8" class="t"/><text x="495.7" y="1243.4" class="j">Retention <tspan x="498.8" dy="1.2em" class="k">Labels &amp; </tspan><tspan x="501.5" dy="1.2em" class="k">Policies</tspan></text></a><a target="_blank" href="https://learn.microsoft.com/microsoft-365/compliance/get-started-core-ediscovery"><rect x="256" y="928" width="96" height="80" rx="8" ry="8" class="t"/><text x="266.6" y="963.8" class="j">eDiscovery <tspan x="269.8" dy="1.2em" class="k">(standard)</tspan></text></a><a target="_blank" href="https://www.microsoft.com/microsoft-365/microsoft-lists"><rect x="368" y="1024" width="96" height="80" rx="8" ry="8" class="t"/><text x="384.5" y="1059.8" class="j">Microsoft <tspan x="399.7" dy="1.2em" class="k">Lists</tspan></text></a><a target="_blank" href="https://products.office.com/en/business/microsoft-kaizala"><rect x="144" y="1024" width="96" height="80" rx="8" ry="8" class="t"/><text x="154.3" y="1059.8" class="j">Kaizala Pro<tspan x="163.2" dy="1.2em" class="k">(retiring)</tspan></text></a><a target="_blank" href="https://learn.microsoft.com/microsoft-365/admin/basic-mobility-security/capabilities"><rect x="704" y="832" width="96" height="80" rx="8" ry="8" class="t"/><text x="733.3" y="859.4" class="j">Basic <tspan x="718.6" dy="1.2em" class="k">Mobility &amp; </tspan><tspan x="724.4" dy="1.2em" class="k">Security</tspan></text></a><a target="_blank" href="https://azure.microsoft.com/pricing/details/active-directory/"><rect x="592" y="832" width="96" height="80" rx="8" ry="8" class="t"/><text x="597.2" y="867.8" class="j">Azure AD for <tspan x="606.5" dy="1.2em" class="k">Office 365</tspan></text></a><a target="_blank" href="https://learn.microsoft.com/microsoft-365/compliance/sensitivity-labels"><rect x="816" y="928" width="96" height="80" rx="8" ry="8" class="t"/><text x="825.5" y="955.4" class="j">Information <tspan x="829.4" dy="1.2em" class="k">Protection</tspan><tspan x="835.2" dy="1.2em" class="k">for M365</tspan></text></a><a target="_blank" href="https://learn.microsoft.com/microsoft-365/compliance/ome"><rect x="144" y="1120" width="96" height="80" rx="8" ry="8" class="t"/><text x="158.5" y="1147.4" class="j">Office 365 <tspan x="162.4" dy="1.2em" class="k">Message </tspan><tspan x="155.4" dy="1.2em" class="k">Encryption</tspan></text></a><a target="_blank" href="https://www.microsoft.com/microsoft-viva/connections"><rect x="368" y="1312" width="96" height="80" rx="8" ry="8" class="t"/><text x="401.6" y="1347.8" class="j">Viva <tspan x="373.6" dy="1.2em" class="k">Connections</tspan></text></a><a target="_blank" href="https://www.microsoft.com/microsoft-viva/learning"><rect x="592" y="1312" width="96" height="80" rx="8" ry="8" class="t"/><text x="625.6" y="1339.4" class="j">Viva <tspan x="610.4" dy="1.2em" class="k">Learning </tspan><tspan x="617.4" dy="1.2em" class="k">(basic)</tspan></text></a><a target="_blank" href="https://learn.microsoft.com/microsoft-365/compliance/search-the-audit-log-in-security-and-compliance"><rect x="480" y="832" width="96" height="80" rx="8" ry="8" class="t"/><text x="510.1" y="867.8" class="j">Audit <tspan x="493.8" dy="1.2em" class="k">(standard)</tspan></text></a><a target="_blank" href="https://learn.microsoft.com/microsoft-365/compliance/alert-policies"><rect x="368" y="832" width="96" height="80" rx="8" ry="8" class="t"/><text x="400" y="867.8" class="j">Alert <tspan x="389.5" dy="1.2em" class="k">Policies</tspan></text></a><a target="_blank" href="https://products.office.com/mobile/office"><rect x="368" y="1120" width="96" height="80" rx="8" ry="8" class="t"/><text x="396.2" y="1155.8" class="j">Office <tspan x="374.4" dy="1.2em" class="k">Mobile Apps</tspan></text></a><a target="_blank" href="https://learn.microsoft.com/office365/servicedescriptions/office-online-service-description/office-online-service-description"><rect x="256" y="1120" width="96" height="80" rx="8" ry="8" class="t"/><text x="284.2" y="1147.4" class="j">Office<tspan x="265.5" dy="1.2em" class="k">for the Web</tspan><tspan x="268.6" dy="1.2em" class="k">(incl Visio)</tspan></text></a><a target="_blank" href="https://learn.microsoft.com/project-for-the-web/office-365-user-view-access-to-project-and-roadmap"><rect x="368" y="1216" width="96" height="80" rx="8" ry="8" class="t"/><text x="385.3" y="1243.4" class="j">Project &amp; <tspan x="384.1" dy="1.2em" class="k">Roadmap </tspan><tspan x="373.6" dy="1.2em" class="k">View Access</tspan></text></a><a target="_blank" href="https://learn.microsoft.com/viva/engage/overview"><rect x="480" y="1312" width="96" height="80" rx="8" ry="8" class="t"/><text x="513.6" y="1347.8" class="j">Viva <tspan x="502.7" dy="1.2em" class="k">Engage</tspan></text></a><a target="_blank" href="https://learn.microsoft.com/microsoft-365/compliance/compliance-manager-overview"><rect x="816" y="832" width="96" height="80" rx="8" ry="8" class="t"/><text x="824.3" y="867.8" class="j">Compliance <tspan x="835.2" dy="1.2em" class="k">Manager</tspan></text></a><a target="_blank" href="https://learn.microsoft.com/microsoft-365/security/defender/microsoft-secure-score"><rect x="704" y="1216" width="96" height="80" rx="8" ry="8" class="t"/><text x="728.6" y="1251.8" class="j">Secure <tspan x="732.6" dy="1.2em" class="k">Score</tspan></text></a><a target="_blank" href="https://learn.microsoft.com/microsoft-365/compliance/information-barriers"><rect x="704" y="928" width="96" height="80" rx="8" ry="8" class="t"/><text x="713.5" y="963.8" class="j">Information <tspan x="725.2" dy="1.2em" class="k">Barriers</tspan></text></a><a target="_blank" href="https://learn.microsoft.com/microsoft-365/admin/adoption/adoption-score"><rect x="256" y="832" width="96" height="80" rx="8" ry="8" class="t"/><text x="273.3" y="867.8" class="j">Adoption <tspan x="284.6" dy="1.2em" class="k">Score</tspan></text></a><a target="_blank" href="https://learn.microsoft.com/microsoft-365/admin/activity-reports/activity-reports"><rect x="144" y="832" width="96" height="80" rx="8" ry="8" class="t"/><text x="166.7" y="867.8" class="j">Activity <tspan x="165.6" dy="1.2em" class="k">Reports</tspan></text></a><a target="_blank" href="https://support.microsoft.com/topic/27b56255-90c0-47aa-bac3-1c9f50157181"><rect x="368" y="928" width="96" height="80" rx="8" ry="8" class="t"/><text x="382.2" y="963.8" class="j">Education <tspan x="389.2" dy="1.2em" class="k">Insights</tspan></text></a><a target="_blank" href="https://learn.microsoft.com/microsoftteams/set-up-webinars"><rect x="592" y="704" width="96" height="80" rx="8" ry="8" class="i"/><text x="608.5" y="748.2" class="j">Webinars</text></a><a target="_blank" href="https://m365maps.com/"><rect y="1504" width="1056" height="16" class="n"/><text x="966.6" y="1515.6" class="u">m365maps.com</text></a><a target="_blank" href="https://learn.microsoft.com/microsoftsearch/overview-microsoft-search"><rect x="480" y="1024" width="96" height="80" rx="8" ry="8" class="t"/><text x="496.5" y="1059.8" class="j">Microsoft <tspan x="504.6" dy="1.2em" class="k">Search</tspan></text></a><a target="_blank" href="https://learn.microsoft.com/microsoft-365/compliance/sit-learn-about-exact-data-match-based-sits"><rect x="704" y="256" width="96" height="80" rx="8" ry="8" class="l"/><text x="716.2" y="291.8" class="j">Exact Data <tspan x="731.8" dy="1.2em" class="k">Match</tspan></text></a><a target="_blank" href="https://powerapps.microsoft.com/"><rect x="144" y="1216" width="96" height="80" rx="8" ry="8" class="t"/><text x="151.6" y="1243.4" class="j">Power Apps<tspan x="182.7" dy="1.2em" class="k">for </tspan><tspan x="158.5" dy="1.2em" class="k">Office 365</tspan></text></a><a target="_blank" href="https://powerautomate.microsoft.com/"><rect x="256" y="1216" width="96" height="80" rx="8" ry="8" class="t"/><text x="283" y="1243.4" class="j">Power <tspan x="260.4" dy="1.2em" class="k">Automate for</tspan><tspan x="270.5" dy="1.2em" class="k">Office 365</tspan></text></a><a target="_blank" href="https://learn.microsoft.com/office365/servicedescriptions/microsoft-365-service-descriptions/microsoft-365-tenantlevel-services-licensing-guidance/microsoft-365-security-compliance-licensing-guidance#which-templates-are-included-by-default-free-of-cost"><rect x="480" y="64" width="96" height="80" rx="8" ry="8" class="l"/><text x="488.3" y="83" class="j">3x Premium <tspan x="495" dy="1.2em" class="k">&amp; Custom </tspan><tspan x="488.3" dy="1.2em" class="k">Compliance </tspan><tspan x="493.4" dy="1.2em" class="k">Templates</tspan></text></a></svg>