<svg xmlns="http://www.w3.org/2000/svg" width="976" height="720" viewBox="0 0 976 720" class="a"><style>
.b {fill:#a5a5a5;fill-opacity:0.2;stroke:#e82200;stroke-linecap:round;stroke-linejoin:round;stroke-width:2.2}
.c {fill:#e82200;stroke:#e82200;stroke-linecap:round;stroke-linejoin:round;stroke-width:2.2}
.d {fill:#ffffff;font-family:Arial;font-size:1.7em;font-weight:bold}
.e {fill:none;stroke:none;stroke-linecap:round;stroke-linejoin:round;stroke-width:1}
.f {fill:#000000;font-family:Arial;font-size:1.2em;font-weight:bold}
.g {fill:#e82200;stroke:none;stroke-linecap:round;stroke-linejoin:round;stroke-width:1}
.h {fill:#ffffff;font-family:Arial;font-size:1.2em;font-weight:bold}
.i {font-size:1em}
.j {fill:#ffffff;font-family:Arial;font-size:1.1em;font-weight:bold}
.k {fill:none;stroke:none;stroke-linecap:round;stroke-linejoin:round;stroke-width:0.8}
.l {fill:#7f7f7f;font-family:Arial;font-size:1em}
.a {fill:none;fill-rule:evenodd;font-size:12px;overflow:visible;stroke-linecap:square;stroke-miterlimit:3}
</style><rect x="16" y="16" width="944" height="688" rx="8" ry="8" class="b"/><a target="_blank" href="https://www.microsoft.com/microsoft-365/enterprise/compare-office-365-plans"><rect x="16" y="16" width="944" height="64" rx="8" ry="8" class="c"/><text x="425.2" y="54" class="d">Office 365 E3</text></a><g><rect x="16" y="80" width="944" height="32" rx="8" ry="8" class="e"/><text x="34.2" y="100.2" class="f">Enterprise</text></g><a target="_blank" href="https://www.microsoft.com/microsoft-365/business/microsoft-365-apps-for-enterprise-product"><rect x="496" y="304" width="96" height="80" rx="8" ry="8" class="g"/><text x="512.5" y="331.4" class="h">Microsoft <tspan x="501.6" dy="1.2em" class="i">365 Apps for </tspan><tspan x="509.4" dy="1.2em" class="i">Enterprise</tspan></text></a><a target="_blank" href="https://products.office.com/business/task-management-software"><rect x="48" y="496" width="96" height="80" rx="8" ry="8" class="g"/><text x="70.3" y="540.2" class="h">Planner</text></a><a target="_blank" href="https://learn.microsoft.com/microsoftteams/teams-live-events/what-are-teams-live-events"><rect x="384" y="304" width="96" height="80" rx="8" ry="8" class="g"/><text x="393.1" y="348.2" class="h">Live Events</text></a><a target="_blank" href="https://learn.microsoft.com/viva/insights/personal/overview/plans-environments"><rect x="160" y="304" width="96" height="80" rx="8" ry="8" class="g"/><text x="171" y="339.8" class="h">Insights by <tspan x="167.2" dy="1.2em" class="i">MyAnalytics</tspan></text></a><a target="_blank" href="https://learn.microsoft.com/microsoftteams/set-up-webinars"><rect x="720" y="592" width="96" height="80" rx="8" ry="8" class="g"/><text x="736.5" y="636.2" class="h">Webinars</text></a><a target="_blank" href="https://products.office.com/microsoft-teams/"><rect x="160" y="400" width="96" height="80" rx="8" ry="8" class="g"/><text x="176.5" y="435.8" class="h">Microsoft <tspan x="185.8" dy="1.2em" class="i">Teams</tspan></text></a><a target="_blank" href="https://learn.microsoft.com/stream/"><rect x="160" y="592" width="96" height="80" rx="8" ry="8" class="g"/><text x="173" y="627.8" class="h">Stream for <tspan x="174.5" dy="1.2em" class="i">Office 365</tspan></text></a><a target="_blank" href="https://learn.microsoft.com/sharepoint/introduction"><rect x="48" y="592" width="96" height="80" rx="8" ry="8" class="g"/><text x="59" y="619.4" class="h">SharePoint <tspan x="74.2" dy="1.2em" class="i">Online </tspan><tspan x="75.4" dy="1.2em" class="i">Plan 2</tspan></text></a><a target="_blank" href="https://learn.microsoft.com/office365/servicedescriptions/onedrive-for-business-service-description"><rect x="832" y="400" width="96" height="80" rx="8" ry="8" class="g"/><text x="837.6" y="427.4" class="h">OneDrive for <tspan x="848.9" dy="1.2em" class="i">Business </tspan><tspan x="859.4" dy="1.2em" class="i">Plan 2</tspan></text></a><a target="_blank" href="https://support.office.com/sway"><rect x="272" y="592" width="96" height="80" rx="8" ry="8" class="g"/><text x="302.1" y="636.2" class="h">Sway</text></a><a target="_blank" href="https://support.office.com/forms"><rect x="720" y="304" width="96" height="80" rx="8" ry="8" class="g"/><text x="736.5" y="339.8" class="h">Microsoft <tspan x="746.6" dy="1.2em" class="i">Forms</tspan></text></a><a target="_blank" href="https://learn.microsoft.com/office365/securitycompliance/data-loss-prevention-policies"><rect x="272" y="208" width="96" height="80" rx="8" ry="8" class="g"/><text x="286.6" y="243.8" class="h">Data Loss <tspan x="283.8" dy="1.2em" class="i">Prevention</tspan></text></a><a target="_blank" href="https://learn.microsoft.com/microsoft-365/compliance/retention"><rect x="720" y="496" width="96" height="80" rx="8" ry="8" class="g"/><text x="735.7" y="523.4" class="h">Retention <tspan x="738.8" dy="1.2em" class="i">Labels &amp; </tspan><tspan x="741.5" dy="1.2em" class="i">Policies</tspan></text></a><a target="_blank" href="https://learn.microsoft.com/office365/servicedescriptions/exchange-online-protection-service-description/exchange-online-protection-service-description"><rect x="720" y="208" width="96" height="80" rx="8" ry="8" class="g"/><text x="734.9" y="235.4" class="h">Exchange <tspan x="746.2" dy="1.2em" class="i">Online </tspan><tspan x="733.4" dy="1.2em" class="i">Protection</tspan></text></a><a target="_blank" href="https://learn.microsoft.com/microsoft-365/compliance/get-started-core-ediscovery"><rect x="496" y="208" width="96" height="80" rx="8" ry="8" class="g"/><text x="506.6" y="243.8" class="h">eDiscovery <tspan x="509.8" dy="1.2em" class="i">(standard)</tspan></text></a><a target="_blank" href="https://products.office.com/en/business/microsoft-kaizala"><rect x="272" y="304" width="96" height="80" rx="8" ry="8" class="g"/><text x="282.3" y="339.8" class="h">Kaizala Pro<tspan x="291.2" dy="1.2em" class="i">(retiring)</tspan></text></a><a target="_blank" href="https://learn.microsoft.com/office365/servicedescriptions/exchange-online-service-description/exchange-online-service-description#feature-availability-across-exchange-online-standalone-plans"><rect x="608" y="208" width="96" height="80" rx="8" ry="8" class="g"/><text x="622.9" y="235.4" class="h">Exchange <tspan x="634.2" dy="1.2em" class="i">Online </tspan><tspan x="635.4" dy="1.2em" class="i">Plan 2</tspan></text></a><a target="_blank" href="https://learn.microsoft.com/powerapps/teams/overview-data-platform"><rect x="608" y="304" width="96" height="80" rx="8" ry="8" class="g"/><text x="624.5" y="331.4" class="h">Microsoft <tspan x="622.5" dy="1.2em" class="i">Dataverse </tspan><tspan x="622.6" dy="1.2em" class="i">for Teams</tspan></text></a><a target="_blank" href="https://www.microsoft.com/microsoft-365/microsoft-lists"><rect x="832" y="304" width="96" height="80" rx="8" ry="8" class="g"/><text x="848.5" y="339.8" class="h">Microsoft <tspan x="863.7" dy="1.2em" class="i">Lists</tspan></text></a><a target="_blank" href="https://learn.microsoft.com/microsoft-365/bookings/bookings-overview"><rect x="832" y="112" width="96" height="80" rx="8" ry="8" class="g"/><text x="848.1" y="156.2" class="h">Bookings</text></a><a target="_blank" href="https://www.microsoft.com/download/details.aspx?id=48734"><rect x="832" y="208" width="96" height="80" rx="8" ry="8" class="g"/><text x="852" y="243.8" class="h">InfoPath<tspan x="866.4" dy="1.2em" class="i">App</tspan></text></a><a target="_blank" href="https://learn.microsoft.com/microsoft-365/compliance/search-the-audit-log-in-security-and-compliance"><rect x="496" y="112" width="96" height="80" rx="8" ry="8" class="g"/><text x="526.1" y="147.8" class="h">Audit <tspan x="509.8" dy="1.2em" class="i">(standard)</tspan></text></a><a target="_blank" href="https://learn.microsoft.com/microsoft-365/compliance/alert-policies"><rect x="272" y="112" width="96" height="80" rx="8" ry="8" class="g"/><text x="304" y="147.8" class="h">Alert <tspan x="293.5" dy="1.2em" class="i">Policies</tspan></text></a><a target="_blank" href="https://learn.microsoft.com/microsoft-365/whiteboard/"><rect x="384" y="400" width="96" height="80" rx="8" ry="8" class="g"/><text x="400.5" y="435.8" class="h">Microsoft <tspan x="393.5" dy="1.2em" class="i">Whiteboard</tspan></text></a><a target="_blank" href="https://www.microsoft.com/microsoft-365/microsoft-to-do-list-app"><rect x="272" y="400" width="96" height="80" rx="8" ry="8" class="g"/><text x="288.5" y="435.8" class="h">Microsoft <tspan x="300.2" dy="1.2em" class="i">To Do</tspan></text></a><a target="_blank" href="https://learn.microsoft.com/power-virtual-agents/teams/fundamentals-what-is-power-virtual-agents-teams"><rect x="384" y="496" width="96" height="80" rx="8" ry="8" class="g"/><text x="390.5" y="524.3" class="j">Power Virtual <tspan x="399.5" dy="1.2em" class="i">Agents for </tspan><tspan x="411.4" dy="1.2em" class="i">Teams</tspan></text></a><a target="_blank" href="https://products.office.com/mobile/office"><rect x="720" y="400" width="96" height="80" rx="8" ry="8" class="g"/><text x="748.2" y="435.8" class="h">Office<tspan x="726.4" dy="1.2em" class="i">Mobile Apps</tspan></text></a><a target="_blank" href="https://learn.microsoft.com/office365/servicedescriptions/office-online-service-description/office-online-service-description"><rect x="608" y="400" width="96" height="80" rx="8" ry="8" class="g"/><text x="636.2" y="427.4" class="h">Office<tspan x="617.5" dy="1.2em" class="i">for the Web</tspan><tspan x="620.6" dy="1.2em" class="i">(incl Visio)</tspan></text></a><a target="_blank" href="https://learn.microsoft.com/microsoft-365/admin/basic-mobility-security/capabilities"><rect x="720" y="112" width="96" height="80" rx="8" ry="8" class="g"/><text x="749.3" y="139.4" class="h">Basic <tspan x="734.6" dy="1.2em" class="i">Mobility &amp; </tspan><tspan x="740.4" dy="1.2em" class="i">Security</tspan></text></a><a target="_blank" href="https://azure.microsoft.com/pricing/details/active-directory/"><rect x="608" y="112" width="96" height="80" rx="8" ry="8" class="g"/><text x="613.2" y="147.8" class="h">Azure AD for <tspan x="622.5" dy="1.2em" class="i">Office 365</tspan></text></a><a target="_blank" href="https://learn.microsoft.com/microsoft-365/compliance/sensitivity-labels"><rect x="48" y="304" width="96" height="80" rx="8" ry="8" class="g"/><text x="57.5" y="331.4" class="h">Information <tspan x="61.4" dy="1.2em" class="i">Protection</tspan><tspan x="67.2" dy="1.2em" class="i">for M365</tspan></text></a><a target="_blank" href="https://www.microsoftpartnercommunity.com/t5/Announcement-Discussions/Microsoft-365-Pricing-and-Audio-Conferencing-Licensing-Updates/td-p/60233#toc-hId--2041231687"><rect x="384" y="112" width="96" height="80" rx="8" ry="8" class="g"/><text x="413.6" y="140.3" class="j">Audio <tspan x="390.1" dy="1.2em" class="i">Conferencing </tspan><tspan x="392.3" dy="1.2em" class="i">(free add</tspan>-on)</text></a><a target="_blank" href="https://learn.microsoft.com/microsoft-365/compliance/ome"><rect x="496" y="400" width="96" height="80" rx="8" ry="8" class="g"/><text x="510.5" y="427.4" class="h">Office 365 <tspan x="514.4" dy="1.2em" class="i">Message </tspan><tspan x="507.4" dy="1.2em" class="i">Encryption</tspan></text></a><a target="_blank" href="https://www.microsoft.com/microsoft-viva/connections"><rect x="384" y="592" width="96" height="80" rx="8" ry="8" class="g"/><text x="417.6" y="627.8" class="h">Viva <tspan x="389.6" dy="1.2em" class="i">Connections</tspan></text></a><a target="_blank" href="https://www.microsoft.com/microsoft-viva/learning"><rect x="608" y="592" width="96" height="80" rx="8" ry="8" class="g"/><text x="641.6" y="619.4" class="h">Viva <tspan x="626.4" dy="1.2em" class="i">Learning </tspan><tspan x="633.4" dy="1.2em" class="i">(basic)</tspan></text></a><a target="_blank" href="https://www.microsoft.com/licensing/terms/product/CALandMLEquivalencyLicenses/"><rect x="496" y="496" width="96" height="80" rx="8" ry="8" class="g"/><text x="503.6" y="531.8" class="h">Productivity <tspan x="505.9" dy="1.2em" class="i">Server CAL</tspan></text></a><a target="_blank" href="https://learn.microsoft.com/project-for-the-web/office-365-user-view-access-to-project-and-roadmap"><rect x="608" y="496" width="96" height="80" rx="8" ry="8" class="g"/><text x="625.3" y="523.4" class="h">Project &amp; <tspan x="624.1" dy="1.2em" class="i">Roadmap </tspan><tspan x="613.6" dy="1.2em" class="i">View Access</tspan></text></a><a target="_blank" href="https://learn.microsoft.com/viva/engage/overview"><rect x="496" y="592" width="96" height="80" rx="8" ry="8" class="g"/><text x="529.6" y="627.8" class="h">Viva <tspan x="518.7" dy="1.2em" class="i">Engage</tspan></text></a><a target="_blank" href="https://support.microsoft.com/office/1315665a-c6af-4409-a28d-49f8916878ca"><rect x="384" y="208" width="96" height="80" rx="8" ry="8" class="g"/><text x="413.3" y="252.2" class="h">Delve</text></a><a target="_blank" href="https://learn.microsoft.com/microsoft-365/compliance/compliance-manager-overview"><rect x="160" y="208" width="96" height="80" rx="8" ry="8" class="g"/><text x="168.3" y="243.8" class="h">Compliance <tspan x="179.2" dy="1.2em" class="i">Manager</tspan></text></a><a target="_blank" href="https://learn.microsoft.com/microsoft-365/security/defender/microsoft-secure-score"><rect x="832" y="496" width="96" height="80" rx="8" ry="8" class="g"/><text x="856.6" y="531.8" class="h">Secure <tspan x="860.6" dy="1.2em" class="i">Score</tspan></text></a><a target="_blank" href="https://products.office.com/yammer/yammer-overview"><rect x="832" y="592" width="96" height="80" rx="8" ry="8" class="g"/><text x="852.4" y="627.8" class="h">Yammer <tspan x="845.4" dy="1.2em" class="i">Enterprise</tspan></text></a><a target="_blank" href="https://learn.microsoft.com/microsoft-365/admin/adoption/adoption-score"><rect x="160" y="112" width="96" height="80" rx="8" ry="8" class="g"/><text x="177.3" y="147.8" class="h">Adoption <tspan x="188.6" dy="1.2em" class="i">Score</tspan></text></a><a target="_blank" href="https://learn.microsoft.com/microsoft-365/admin/activity-reports/activity-reports"><rect x="48" y="112" width="96" height="80" rx="8" ry="8" class="g"/><text x="70.7" y="147.8" class="h">Activity <tspan x="69.6" dy="1.2em" class="i">Reports</tspan></text></a><a target="_blank" href="https://learn.microsoft.com/viva/insights/personal/briefing/be-overview"><rect x="48" y="208" width="96" height="80" rx="8" ry="8" class="g"/><text x="69.6" y="243.8" class="h">Briefing <tspan x="77.3" dy="1.2em" class="i">Email</tspan></text></a><a target="_blank" href="https://m365maps.com/"><rect y="704" width="976" height="16" class="k"/><text x="886.6" y="715.6" class="l">m365maps.com</text></a><a target="_blank" href="https://learn.microsoft.com/microsoftsearch/overview-microsoft-search"><rect x="48" y="400" width="96" height="80" rx="8" ry="8" class="g"/><text x="64.5" y="435.8" class="h">Microsoft <tspan x="72.6" dy="1.2em" class="i">Search</tspan></text></a><a target="_blank" href="https://powerapps.microsoft.com/"><rect x="160" y="496" width="96" height="80" rx="8" ry="8" class="g"/><text x="167.6" y="523.4" class="h">Power Apps<tspan x="198.7" dy="1.2em" class="i">for </tspan><tspan x="174.5" dy="1.2em" class="i">Office 365</tspan></text></a><a target="_blank" href="https://powerautomate.microsoft.com/"><rect x="272" y="496" width="96" height="80" rx="8" ry="8" class="g"/><text x="299" y="523.4" class="h">Power <tspan x="276.4" dy="1.2em" class="i">Automate for</tspan><tspan x="286.5" dy="1.2em" class="i">Office 365</tspan></text></a></svg>