<svg xmlns="http://www.w3.org/2000/svg" width="1200" height="816" viewBox="0 0 1200 816" class="a"><style>
.b {fill:#a5a5a5;fill-opacity:0.2;stroke:#d04a00;stroke-linecap:round;stroke-linejoin:round;stroke-width:2.2}
.c {fill:#d04a00;stroke:#d04a00;stroke-linecap:round;stroke-linejoin:round;stroke-width:2.2}
.d {fill:#ffffff;font-family:Arial;font-size:1.7em;font-weight:bold}
.e {fill:none;stroke:none;stroke-linecap:round;stroke-linejoin:round;stroke-width:1}
.f {fill:#000000;font-family:Arial;font-size:1.2em;font-weight:bold}
.g {fill:#d04a00;stroke:none;stroke-linecap:round;stroke-linejoin:round;stroke-width:1}
.h {fill:#ffffff;font-family:Arial;font-size:1.2em;font-weight:bold}
.i {font-size:1em}
.j {fill:#ffffff;font-family:Arial;font-size:1.1em;font-weight:bold}
.k {fill:none;stroke:none;stroke-linecap:round;stroke-linejoin:round;stroke-width:0.8}
.l {fill:#7f7f7f;font-family:Arial;font-size:1em}
.a {fill:none;fill-rule:evenodd;font-size:12px;overflow:visible;stroke-linecap:square;stroke-miterlimit:3}
</style><rect x="16" y="16" width="1168" height="784" rx="8" ry="8" class="b"/><a target="_blank" href="https://www.microsoft.com/microsoft-365/enterprise/compare-office-365-plans"><rect x="16" y="16" width="1168" height="64" rx="8" ry="8" class="c"/><text x="537.2" y="54" class="d">Office 365 E5</text></a><g><rect x="16" y="80" width="1168" height="32" rx="8" ry="8" class="e"/><text x="34.2" y="100.2" class="f">Enterprise</text></g><a target="_blank" href="https://learn.microsoft.com/MicrosoftTeams/what-is-phone-system-in-office-365"><rect x="272" y="688" width="96" height="80" rx="8" ry="8" class="g"/><text x="297.8" y="723.8" class="h">Teams <tspan x="298.6" dy="1.2em" class="i">Phone</tspan></text></a><a target="_blank" href="https://learn.microsoft.com/microsoftteams/audio-conferencing-in-office-365"><rect x="608" y="112" width="96" height="80" rx="8" ry="8" class="g"/><text x="637.6" y="140.3" class="j">Audio <tspan x="614.1" dy="1.2em" class="i">Conferencing </tspan><tspan x="641.9" dy="1.2em" class="i">(full)</tspan></text></a><a target="_blank" href="https://learn.microsoft.com/power-bi/service-get-started"><rect x="720" y="496" width="96" height="80" rx="8" ry="8" class="g"/><text x="724.4" y="540.2" class="h">Power BI Pro</text></a><a target="_blank" href="https://learn.microsoft.com/microsoft-365/compliance/customer-lockbox-requests"><rect x="496" y="208" width="96" height="80" rx="8" ry="8" class="g"/><text x="511.3" y="243.8" class="h">Customer <tspan x="515.2" dy="1.2em" class="i">Lockbox</tspan></text></a><a target="_blank" href="https://learn.microsoft.com/microsoft-365/compliance/customer-key-overview"><rect x="384" y="208" width="96" height="80" rx="8" ry="8" class="g"/><text x="399.3" y="243.8" class="h">Customer <tspan x="419.2" dy="1.2em" class="i">Key</tspan></text></a><a target="_blank" href="https://learn.microsoft.com/microsoft-365/compliance/overview-ediscovery-20"><rect x="48" y="304" width="96" height="80" rx="8" ry="8" class="g"/><text x="58.6" y="339.8" class="h">eDiscovery <tspan x="61.8" dy="1.2em" class="i">(premium)</tspan></text></a><a target="_blank" href="https://learn.microsoft.com/microsoft-365/compliance/privileged-access-management-solution-overview"><rect x="48" y="592" width="96" height="80" rx="8" ry="8" class="g"/><text x="62.5" y="619.4" class="h">Privileged <tspan x="71.5" dy="1.2em" class="i">Access </tspan><tspan x="53.2" dy="1.2em" class="i">Management</tspan></text></a><a target="_blank" href="https://learn.microsoft.com/microsoft-365/compliance/dlp-microsoft-teams"><rect x="160" y="688" width="96" height="80" rx="8" ry="8" class="g"/><text x="185.8" y="715.4" class="h">Teams<tspan x="174.6" dy="1.2em" class="i">Data Loss </tspan><tspan x="171.8" dy="1.2em" class="i">Prevention</tspan></text></a><a target="_blank" href="https://learn.microsoft.com/microsoft-365/compliance/ome-advanced-message-encryption"><rect x="384" y="112" width="96" height="80" rx="8" ry="8" class="g"/><text x="398.6" y="139.4" class="h">Advanced <tspan x="402.4" dy="1.2em" class="i">Message </tspan><tspan x="395.4" dy="1.2em" class="i">Encryption</tspan></text></a><a target="_blank" href="https://learn.microsoft.com/microsoft-365/compliance/information-barriers"><rect x="720" y="304" width="96" height="80" rx="8" ry="8" class="g"/><text x="729.5" y="339.8" class="h">Information <tspan x="741.2" dy="1.2em" class="i">Barriers</tspan></text></a><a target="_blank" href="https://learn.microsoft.com/office365/servicedescriptions/mya-service-description"><rect x="1056" y="400" width="96" height="80" rx="8" ry="8" class="g"/><text x="1063.2" y="435.8" class="h">MyAnalytics <tspan x="1088.8" dy="1.2em" class="i">(full)</tspan></text></a><a target="_blank" href="https://learn.microsoft.com/microsoft-365/compliance/communication-compliance"><rect x="160" y="208" width="96" height="80" rx="8" ry="8" class="g"/><text x="186.2" y="243.8" class="h">Comm <tspan x="168.3" dy="1.2em" class="i">Compliance</tspan></text></a><a target="_blank" href="https://learn.microsoft.com/cloud-app-security/editions-cloud-app-security-o365"><rect x="48" y="496" width="96" height="80" rx="8" ry="8" class="g"/><text x="62.5" y="523.4" class="h">Office 365 <tspan x="60.6" dy="1.2em" class="i">Cloud App </tspan><tspan x="68.4" dy="1.2em" class="i">Security</tspan></text></a><a target="_blank" href="https://learn.microsoft.com/microsoft-365/compliance/manage-data-governance"><rect x="608" y="208" width="96" height="80" rx="8" ry="8" class="g"/><text x="640.8" y="235.4" class="h">Data <tspan x="626" dy="1.2em" class="i">Lifecycle </tspan><tspan x="613.2" dy="1.2em" class="i">Management</tspan></text></a><a target="_blank" href="https://learn.microsoft.com/microsoft-365/compliance/records-management"><rect x="384" y="592" width="96" height="80" rx="8" ry="8" class="g"/><text x="404" y="627.8" class="h">Records <tspan x="389.2" dy="1.2em" class="i">Management</tspan></text></a><a target="_blank" href="https://learn.microsoft.com/microsoft-365/compliance/advanced-audit"><rect x="720" y="112" width="96" height="80" rx="8" ry="8" class="g"/><text x="750.1" y="147.8" class="h">Audit <tspan x="733.8" dy="1.2em" class="i">(premium)</tspan></text></a><a target="_blank" href="https://learn.microsoft.com/microsoft-365/compliance/double-key-encryption"><rect x="1056" y="208" width="96" height="80" rx="8" ry="8" class="g"/><text x="1065.5" y="243.8" class="h">Double Key <tspan x="1067.4" dy="1.2em" class="i">Encryption</tspan></text></a><a target="_blank" href="https://learn.microsoft.com/office365/servicedescriptions/office-365-advanced-threat-protection-service-description#feature-availability-across-advanced-threat-protection-atp-plans"><rect x="832" y="208" width="96" height="80" rx="8" ry="8" class="g"/><text x="838.4" y="235.4" class="h">Defender for <tspan x="846.5" dy="1.2em" class="i">Office 365 </tspan><tspan x="859.4" dy="1.2em" class="i">Plan 2</tspan></text></a><a target="_blank" href="https://learn.microsoft.com/microsoft-365/compliance/apply-sensitivity-label-automatically"><rect x="608" y="592" width="96" height="80" rx="8" ry="8" class="g"/><text x="616.6" y="620.3" class="j">Rules-Based <tspan x="613.7" dy="1.2em" class="i">Classification</tspan><tspan x="620.6" dy="1.2em" class="i">(Office 365)</tspan></text></a><a target="_blank" href="https://www.microsoft.com/licensing/terms/product/CALandMLEquivalencyLicenses/"><rect x="944" y="592" width="96" height="80" rx="8" ry="8" class="g"/><text x="960.1" y="619.4" class="h">Skype for <tspan x="960.9" dy="1.2em" class="i">Business </tspan><tspan x="960.9" dy="1.2em" class="i">Plus CAL</tspan></text></a><a target="_blank" href="https://learn.microsoft.com/microsoft-365/compliance/sit-learn-about-exact-data-match-based-sits"><rect x="160" y="304" width="96" height="80" rx="8" ry="8" class="g"/><text x="172.2" y="339.8" class="h">Exact Data <tspan x="187.8" dy="1.2em" class="i">Match</tspan></text></a><a target="_blank" href="https://www.microsoft.com/microsoft-365/business/microsoft-365-apps-for-enterprise-product"><rect x="160" y="400" width="96" height="80" rx="8" ry="8" class="g"/><text x="176.5" y="427.4" class="h">Microsoft <tspan x="165.6" dy="1.2em" class="i">365 Apps for </tspan><tspan x="173.4" dy="1.2em" class="i">Enterprise</tspan></text></a><a target="_blank" href="https://products.office.com/business/task-management-software"><rect x="608" y="496" width="96" height="80" rx="8" ry="8" class="g"/><text x="630.3" y="540.2" class="h">Planner</text></a><a target="_blank" href="https://learn.microsoft.com/microsoftteams/teams-live-events/what-are-teams-live-events"><rect x="48" y="400" width="96" height="80" rx="8" ry="8" class="g"/><text x="57.1" y="444.2" class="h">Live Events</text></a><a target="_blank" href="https://learn.microsoft.com/viva/insights/personal/overview/plans-environments"><rect x="944" y="304" width="96" height="80" rx="8" ry="8" class="g"/><text x="955" y="339.8" class="h">Insights by <tspan x="951.2" dy="1.2em" class="i">MyAnalytics</tspan></text></a><a target="_blank" href="https://learn.microsoft.com/microsoftteams/set-up-webinars"><rect x="720" y="688" width="96" height="80" rx="8" ry="8" class="g"/><text x="736.5" y="732.2" class="h">Webinars</text></a><a target="_blank" href="https://products.office.com/microsoft-teams/"><rect x="720" y="400" width="96" height="80" rx="8" ry="8" class="g"/><text x="736.5" y="435.8" class="h">Microsoft <tspan x="745.8" dy="1.2em" class="i">Teams</tspan></text></a><a target="_blank" href="https://learn.microsoft.com/stream/"><rect x="1056" y="592" width="96" height="80" rx="8" ry="8" class="g"/><text x="1069" y="627.8" class="h">Stream for <tspan x="1070.5" dy="1.2em" class="i">Office 365</tspan></text></a><a target="_blank" href="https://learn.microsoft.com/sharepoint/introduction"><rect x="832" y="592" width="96" height="80" rx="8" ry="8" class="g"/><text x="843" y="619.4" class="h">SharePoint <tspan x="858.2" dy="1.2em" class="i">Online </tspan><tspan x="859.4" dy="1.2em" class="i">Plan 2</tspan></text></a><a target="_blank" href="https://learn.microsoft.com/office365/servicedescriptions/onedrive-for-business-service-description"><rect x="496" y="496" width="96" height="80" rx="8" ry="8" class="g"/><text x="501.6" y="523.4" class="h">OneDrive for <tspan x="512.9" dy="1.2em" class="i">Business </tspan><tspan x="523.4" dy="1.2em" class="i">Plan 2</tspan></text></a><a target="_blank" href="https://support.office.com/sway"><rect x="48" y="688" width="96" height="80" rx="8" ry="8" class="g"/><text x="78.1" y="732.2" class="h">Sway</text></a><a target="_blank" href="https://support.office.com/forms"><rect x="384" y="400" width="96" height="80" rx="8" ry="8" class="g"/><text x="400.5" y="435.8" class="h">Microsoft <tspan x="410.6" dy="1.2em" class="i">Forms</tspan></text></a><a target="_blank" href="https://learn.microsoft.com/office365/securitycompliance/data-loss-prevention-policies"><rect x="720" y="208" width="96" height="80" rx="8" ry="8" class="g"/><text x="734.6" y="243.8" class="h">Data Loss <tspan x="731.8" dy="1.2em" class="i">Prevention</tspan></text></a><a target="_blank" href="https://learn.microsoft.com/microsoft-365/compliance/retention"><rect x="496" y="592" width="96" height="80" rx="8" ry="8" class="g"/><text x="511.7" y="619.4" class="h">Retention <tspan x="514.8" dy="1.2em" class="i">Labels &amp; </tspan><tspan x="517.5" dy="1.2em" class="i">Policies</tspan></text></a><a target="_blank" href="https://learn.microsoft.com/office365/servicedescriptions/exchange-online-protection-service-description/exchange-online-protection-service-description"><rect x="384" y="304" width="96" height="80" rx="8" ry="8" class="g"/><text x="398.9" y="331.4" class="h">Exchange <tspan x="410.2" dy="1.2em" class="i">Online </tspan><tspan x="397.4" dy="1.2em" class="i">Protection</tspan></text></a><a target="_blank" href="https://products.office.com/en/business/microsoft-kaizala"><rect x="1056" y="304" width="96" height="80" rx="8" ry="8" class="g"/><text x="1066.3" y="339.8" class="h">Kaizala Pro<tspan x="1075.2" dy="1.2em" class="i">(retiring)</tspan></text></a><a target="_blank" href="https://learn.microsoft.com/office365/servicedescriptions/exchange-online-service-description/exchange-online-service-description#feature-availability-across-exchange-online-standalone-plans"><rect x="272" y="304" width="96" height="80" rx="8" ry="8" class="g"/><text x="286.9" y="331.4" class="h">Exchange <tspan x="298.2" dy="1.2em" class="i">Online </tspan><tspan x="299.4" dy="1.2em" class="i">Plan 2</tspan></text></a><a target="_blank" href="https://learn.microsoft.com/powerapps/teams/overview-data-platform"><rect x="272" y="400" width="96" height="80" rx="8" ry="8" class="g"/><text x="288.5" y="427.4" class="h">Microsoft <tspan x="286.5" dy="1.2em" class="i">Dataverse </tspan><tspan x="286.6" dy="1.2em" class="i">for Teams</tspan></text></a><a target="_blank" href="https://www.microsoft.com/microsoft-365/microsoft-lists"><rect x="496" y="400" width="96" height="80" rx="8" ry="8" class="g"/><text x="512.5" y="435.8" class="h">Microsoft <tspan x="527.7" dy="1.2em" class="i">Lists</tspan></text></a><a target="_blank" href="https://learn.microsoft.com/microsoft-365/bookings/bookings-overview"><rect x="1056" y="112" width="96" height="80" rx="8" ry="8" class="g"/><text x="1072.1" y="156.2" class="h">Bookings</text></a><a target="_blank" href="https://www.microsoft.com/download/details.aspx?id=48734"><rect x="608" y="304" width="96" height="80" rx="8" ry="8" class="g"/><text x="628" y="339.8" class="h">InfoPath<tspan x="642.4" dy="1.2em" class="i">App</tspan></text></a><a target="_blank" href="https://learn.microsoft.com/microsoft-365/compliance/alert-policies"><rect x="496" y="112" width="96" height="80" rx="8" ry="8" class="g"/><text x="528" y="147.8" class="h">Alert <tspan x="517.5" dy="1.2em" class="i">Policies</tspan></text></a><a target="_blank" href="https://learn.microsoft.com/microsoft-365/whiteboard/"><rect x="944" y="400" width="96" height="80" rx="8" ry="8" class="g"/><text x="960.5" y="435.8" class="h">Microsoft <tspan x="953.5" dy="1.2em" class="i">Whiteboard</tspan></text></a><a target="_blank" href="https://www.microsoft.com/microsoft-365/microsoft-to-do-list-app"><rect x="832" y="400" width="96" height="80" rx="8" ry="8" class="g"/><text x="848.5" y="435.8" class="h">Microsoft <tspan x="860.2" dy="1.2em" class="i">To Do</tspan></text></a><a target="_blank" href="https://learn.microsoft.com/power-virtual-agents/teams/fundamentals-what-is-power-virtual-agents-teams"><rect x="1056" y="496" width="96" height="80" rx="8" ry="8" class="g"/><text x="1062.5" y="524.3" class="j">Power Virtual <tspan x="1071.5" dy="1.2em" class="i">Agents for </tspan><tspan x="1083.4" dy="1.2em" class="i">Teams</tspan></text></a><a target="_blank" href="https://products.office.com/mobile/office"><rect x="384" y="496" width="96" height="80" rx="8" ry="8" class="g"/><text x="412.2" y="531.8" class="h">Office<tspan x="390.4" dy="1.2em" class="i">Mobile Apps</tspan></text></a><a target="_blank" href="https://learn.microsoft.com/office365/servicedescriptions/office-online-service-description/office-online-service-description"><rect x="272" y="496" width="96" height="80" rx="8" ry="8" class="g"/><text x="300.2" y="523.4" class="h">Office<tspan x="281.5" dy="1.2em" class="i">for the Web</tspan><tspan x="284.6" dy="1.2em" class="i">(incl Visio)</tspan></text></a><a target="_blank" href="https://learn.microsoft.com/microsoft-365/admin/basic-mobility-security/capabilities"><rect x="944" y="112" width="96" height="80" rx="8" ry="8" class="g"/><text x="973.3" y="139.4" class="h">Basic <tspan x="958.6" dy="1.2em" class="i">Mobility &amp; </tspan><tspan x="964.4" dy="1.2em" class="i">Security</tspan></text></a><a target="_blank" href="https://azure.microsoft.com/pricing/details/active-directory/"><rect x="832" y="112" width="96" height="80" rx="8" ry="8" class="g"/><text x="837.2" y="147.8" class="h">Azure AD for <tspan x="846.5" dy="1.2em" class="i">Office 365</tspan></text></a><a target="_blank" href="https://learn.microsoft.com/microsoft-365/compliance/sensitivity-labels"><rect x="832" y="304" width="96" height="80" rx="8" ry="8" class="g"/><text x="841.5" y="331.4" class="h">Information <tspan x="845.4" dy="1.2em" class="i">Protection</tspan><tspan x="851.2" dy="1.2em" class="i">for M365</tspan></text></a><a target="_blank" href="https://learn.microsoft.com/microsoft-365/compliance/ome"><rect x="160" y="496" width="96" height="80" rx="8" ry="8" class="g"/><text x="174.5" y="523.4" class="h">Office 365 <tspan x="178.4" dy="1.2em" class="i">Message </tspan><tspan x="171.4" dy="1.2em" class="i">Encryption</tspan></text></a><a target="_blank" href="https://www.microsoft.com/microsoft-viva/connections"><rect x="384" y="688" width="96" height="80" rx="8" ry="8" class="g"/><text x="417.6" y="723.8" class="h">Viva <tspan x="389.6" dy="1.2em" class="i">Connections</tspan></text></a><a target="_blank" href="https://www.microsoft.com/microsoft-viva/learning"><rect x="608" y="688" width="96" height="80" rx="8" ry="8" class="g"/><text x="641.6" y="715.4" class="h">Viva <tspan x="626.4" dy="1.2em" class="i">Learning </tspan><tspan x="633.4" dy="1.2em" class="i">(basic)</tspan></text></a><a target="_blank" href="https://www.microsoft.com/licensing/terms/product/CALandMLEquivalencyLicenses/"><rect x="160" y="592" width="96" height="80" rx="8" ry="8" class="g"/><text x="167.6" y="627.8" class="h">Productivity <tspan x="169.9" dy="1.2em" class="i">Server CAL</tspan></text></a><a target="_blank" href="https://learn.microsoft.com/project-for-the-web/office-365-user-view-access-to-project-and-roadmap"><rect x="272" y="592" width="96" height="80" rx="8" ry="8" class="g"/><text x="289.3" y="619.4" class="h">Project &amp; <tspan x="288.1" dy="1.2em" class="i">Roadmap </tspan><tspan x="277.6" dy="1.2em" class="i">View Access</tspan></text></a><a target="_blank" href="https://learn.microsoft.com/viva/engage/overview"><rect x="496" y="688" width="96" height="80" rx="8" ry="8" class="g"/><text x="529.6" y="723.8" class="h">Viva <tspan x="518.7" dy="1.2em" class="i">Engage</tspan></text></a><a target="_blank" href="https://support.microsoft.com/office/1315665a-c6af-4409-a28d-49f8916878ca"><rect x="944" y="208" width="96" height="80" rx="8" ry="8" class="g"/><text x="973.3" y="252.2" class="h">Delve</text></a><a target="_blank" href="https://learn.microsoft.com/microsoft-365/compliance/compliance-manager-overview"><rect x="272" y="208" width="96" height="80" rx="8" ry="8" class="g"/><text x="280.3" y="243.8" class="h">Compliance <tspan x="291.2" dy="1.2em" class="i">Manager</tspan></text></a><a target="_blank" href="https://learn.microsoft.com/microsoft-365/security/defender/microsoft-secure-score"><rect x="720" y="592" width="96" height="80" rx="8" ry="8" class="g"/><text x="744.6" y="627.8" class="h">Secure <tspan x="748.6" dy="1.2em" class="i">Score</tspan></text></a><a target="_blank" href="https://products.office.com/yammer/yammer-overview"><rect x="832" y="688" width="96" height="80" rx="8" ry="8" class="g"/><text x="852.4" y="723.8" class="h">Yammer <tspan x="845.4" dy="1.2em" class="i">Enterprise</tspan></text></a><a target="_blank" href="https://learn.microsoft.com/microsoft-365/admin/adoption/adoption-score"><rect x="272" y="112" width="96" height="80" rx="8" ry="8" class="g"/><text x="289.3" y="147.8" class="h">Adoption <tspan x="300.6" dy="1.2em" class="i">Score</tspan></text></a><a target="_blank" href="https://learn.microsoft.com/microsoft-365/admin/activity-reports/activity-reports"><rect x="160" y="112" width="96" height="80" rx="8" ry="8" class="g"/><text x="182.7" y="147.8" class="h">Activity <tspan x="181.6" dy="1.2em" class="i">Reports</tspan></text></a><a target="_blank" href="https://learn.microsoft.com/viva/insights/personal/briefing/be-overview"><rect x="48" y="208" width="96" height="80" rx="8" ry="8" class="g"/><text x="69.6" y="243.8" class="h">Briefing <tspan x="77.3" dy="1.2em" class="i">Email</tspan></text></a><a target="_blank" href="https://m365maps.com/"><rect y="800" width="1200" height="16" class="k"/><text x="1110.6" y="811.6" class="l">m365maps.com</text></a><a target="_blank" href="https://learn.microsoft.com/microsoftsearch/overview-microsoft-search"><rect x="608" y="400" width="96" height="80" rx="8" ry="8" class="g"/><text x="624.5" y="435.8" class="h">Microsoft <tspan x="632.6" dy="1.2em" class="i">Search</tspan></text></a><a target="_blank" href="https://learn.microsoft.com/microsoftsearch/licensing#entitlement-built-into-microsoft-365-or-office-365-e5-licenses"><rect x="496" y="304" width="96" height="80" rx="8" ry="8" class="g"/><text x="524.9" y="324.5" class="j">Graph <tspan x="511.5" dy="1.2em" class="i">Connector </tspan><tspan x="506.4" dy="1.2em" class="i">Index Quota </tspan><tspan x="501.4" dy="1.2em" class="i">(500 per user)</tspan></text></a><a target="_blank" href="https://powerapps.microsoft.com/"><rect x="832" y="496" width="96" height="80" rx="8" ry="8" class="g"/><text x="839.6" y="523.4" class="h">Power Apps<tspan x="870.7" dy="1.2em" class="i">for </tspan><tspan x="846.5" dy="1.2em" class="i">Office 365</tspan></text></a><a target="_blank" href="https://powerautomate.microsoft.com/"><rect x="944" y="496" width="96" height="80" rx="8" ry="8" class="g"/><text x="971" y="523.4" class="h">Power <tspan x="948.4" dy="1.2em" class="i">Automate for</tspan><tspan x="958.5" dy="1.2em" class="i">Office 365</tspan></text></a><a target="_blank" href="https://learn.microsoft.com/office365/servicedescriptions/microsoft-365-service-descriptions/microsoft-365-tenantlevel-services-licensing-guidance/microsoft-365-security-compliance-licensing-guidance#which-templates-are-included-by-default-free-of-cost"><rect x="48" y="112" width="96" height="80" rx="8" ry="8" class="g"/><text x="56.3" y="131" class="h">3x Premium <tspan x="63" dy="1.2em" class="i">&amp; Custom </tspan><tspan x="56.3" dy="1.2em" class="i">Compliance </tspan><tspan x="61.4" dy="1.2em" class="i">Templates</tspan></text></a></svg>