<svg xmlns="http://www.w3.org/2000/svg" width="2560" height="1392" viewBox="0 0 2560 1392" class="a"><style>
.b {fill:#d8d8d8;fill-opacity:0.6;stroke:#008800;stroke-linecap:round;stroke-linejoin:round;stroke-width:2.2}
.c {fill:#d8d8d8;fill-opacity:0.6;stroke:#606060;stroke-linecap:round;stroke-linejoin:round;stroke-width:2.2}
.d {fill:#d8d8d8;fill-opacity:0.6;stroke:#9050d0;stroke-linecap:round;stroke-linejoin:round;stroke-width:2.2}
.e {fill:#d8d8d8;fill-opacity:0.6;stroke:#e82200;stroke-linecap:round;stroke-linejoin:round;stroke-width:2.2}
.f {fill:#d8d8d8;fill-opacity:0.6;stroke:#0050c0;stroke-linecap:round;stroke-linejoin:round;stroke-width:2.2}
.g {fill:#d8d8d8;fill-opacity:0.6;stroke:#907000;stroke-linecap:round;stroke-linejoin:round;stroke-width:2.2}
.h {fill:#d8d8d8;fill-opacity:0.6;stroke:#442060;stroke-linecap:round;stroke-linejoin:round;stroke-width:2.2}
.i {fill:#d8d8d8;fill-opacity:0.6;stroke:#a41500;stroke-linecap:round;stroke-linejoin:round;stroke-width:2.2}
.j {fill:#d8d8d8;fill-opacity:0.6;stroke:#008060;stroke-linecap:round;stroke-linejoin:round;stroke-width:2.2}
.k {fill:#ffffff;fill-opacity:0.8;stroke:none;stroke-linecap:round;stroke-linejoin:round;stroke-width:1}
.l {fill:#000000;font-family:Arial;font-size:1.2em}
.m {font-size:1em}
.n {fill:#e82200;stroke:#e82200;stroke-linecap:round;stroke-linejoin:round;stroke-width:2.2}
.o {fill:#ffffff;font-family:Arial;font-size:1.7em;font-weight:bold}
.p {fill:#e00080;stroke:none;stroke-linecap:round;stroke-linejoin:round;stroke-width:1}
.q {fill:#ffffff;font-family:Arial;font-size:1.2em;font-weight:bold}
.r {fill:#ffffff;font-family:Arial;font-size:1.1em;font-weight:bold}
.s {fill:#442060;stroke:#442060;stroke-linecap:round;stroke-linejoin:round;stroke-width:2.2}
.t {fill:none;stroke:none;stroke-linecap:round;stroke-linejoin:round;stroke-width:1}
.u {fill:#0070f7;font-family:Arial;font-size:4em;font-weight:bold}
.v {fill:none;stroke:none;stroke-linecap:round;stroke-linejoin:round;stroke-width:0.8}
.w {fill:#0070f7;font-family:Arial;font-size:2.5em;font-weight:bold}
.x {fill:#0070f7;font-family:Arial;font-size:1.5em;font-weight:bold}
.y {fill:#a41500;stroke:#a41500;stroke-linecap:round;stroke-linejoin:round;stroke-width:2.2}
.z {fill:#008060;stroke:#008060;stroke-linecap:round;stroke-linejoin:round;stroke-width:2.2}
.ba {fill:#606060;stroke:#606060;stroke-linecap:round;stroke-linejoin:round;stroke-width:2.2}
.bb {fill:#907000;stroke:#907000;stroke-linecap:round;stroke-linejoin:round;stroke-width:2.2}
.bc {fill:#0050c0;stroke:#0050c0;stroke-linecap:round;stroke-linejoin:round;stroke-width:2.2}
.bd {fill:#9050d0;stroke:#9050d0;stroke-linecap:round;stroke-linejoin:round;stroke-width:2.2}
.be {fill:#008800;stroke:#008800;stroke-linecap:round;stroke-linejoin:round;stroke-width:2.2}
.a {fill:none;fill-rule:evenodd;font-size:12px;overflow:visible;stroke-linecap:square;stroke-miterlimit:3}
</style><rect x="1296" y="1072" width="608" height="304" rx="8" ry="8" class="b"/><rect x="656" y="736" width="608" height="304" rx="8" ry="8" class="c"/><rect x="1296" y="512" width="608" height="528" rx="8" ry="8" class="d"/><rect x="16" y="176" width="608" height="1200" rx="8" ry="8" class="e"/><rect x="1936" y="848" width="608" height="528" rx="8" ry="8" class="f"/><rect x="656" y="1072" width="608" height="304" rx="8" ry="8" class="g"/><rect x="656" y="176" width="608" height="528" rx="8" ry="8" class="h"/><rect x="1296" y="176" width="608" height="304" rx="8" ry="8" class="i"/><rect x="1936" y="176" width="608" height="640" rx="8" ry="8" class="j"/><g><rect x="1328" y="592" width="256" height="80" rx="8" ry="8" class="k"/><text x="1445.4" y="619.4" class="l">Virtual desktops and <tspan x="1445.4" dy="1.2em" class="m">apps in a cloud pay</tspan>-<tspan x="1445.4" dy="1.2em" class="m">to</tspan>-consume service</text></g><g><rect x="336" y="816" width="256" height="80" rx="8" ry="8" class="k"/><text x="453.4" y="843.4" class="l">Complete set of <tspan x="453.4" dy="1.2em" class="m">vulnerability tools </tspan><tspan x="453.4" dy="1.2em" class="m">and capabilities</tspan></text></g><g><rect x="16" y="176" width="608" height="48" rx="8" ry="8" class="n"/><text x="211.1" y="206" class="o">Security &amp; Compliance</text></g><g><rect x="1616" y="592" width="256" height="80" rx="8" ry="8" class="k"/><text x="1733.4" y="619.4" class="l">More sophisticated <tspan x="1733.4" dy="1.2em" class="m">surveys and </tspan><tspan x="1733.4" dy="1.2em" class="m">customer feedback</tspan></text></g><g><rect x="2256" y="928" width="256" height="80" rx="8" ry="8" class="k"/><text x="2373.4" y="955.4" class="l">Services for low-code <tspan x="2373.4" dy="1.2em" class="m">app</tspan>-dev on top of <tspan x="2373.4" dy="1.2em" class="m">Microsoft 365</tspan></text></g><g><rect x="688" y="1152" width="256" height="80" rx="8" ry="8" class="k"/><text x="805.4" y="1179.4" class="l">Unattended Robot <tspan x="805.4" dy="1.2em" class="m">Process Automation </tspan><tspan x="805.4" dy="1.2em" class="m">with Microsoft 365</tspan></text></g><g><rect x="336" y="1152" width="256" height="80" rx="8" ry="8" class="k"/><text x="453.4" y="1187.8" class="l">Microsoft modern <tspan x="453.4" dy="1.2em" class="m">VPN service</tspan></text></g><g><rect x="1968" y="1040" width="256" height="80" rx="8" ry="8" class="k"/><text x="2085.4" y="1067.4" class="l">Complete low-code/<tspan x="2085.4" dy="1.2em" class="m">no</tspan>-code app-dev <tspan x="2085.4" dy="1.2em" class="m">platform</tspan></text></g><g><rect x="2256" y="1040" width="256" height="80" rx="8" ry="8" class="k"/><text x="2373.4" y="1075.8" class="l">Advanced process <tspan x="2373.4" dy="1.2em" class="m">automation features</tspan></text></g><g><rect x="1968" y="1152" width="256" height="80" rx="8" ry="8" class="k"/><text x="2085.4" y="1179.4" class="l">More capacity and <tspan x="2085.4" dy="1.2em" class="m">scale for business </tspan><tspan x="2085.4" dy="1.2em" class="m">intelligence</tspan></text></g><g><rect x="1968" y="1264" width="256" height="80" rx="8" ry="8" class="k"/><text x="2085.4" y="1299.8" class="l">Create intelligent <tspan x="2085.4" dy="1.2em" class="m">agents and bots</tspan></text></g><g><rect x="1328" y="704" width="256" height="80" rx="8" ry="8" class="k"/><text x="1445.4" y="748.2" class="l">Microsoft Project</text></g><g><rect x="688" y="1264" width="256" height="80" rx="8" ry="8" class="k"/><text x="805.4" y="1291.4" class="l">Content AI <tspan x="805.4" dy="1.2em" class="m">knowledge extraction </tspan><tspan x="805.4" dy="1.2em" class="m">and analysis</tspan></text></g><g><rect x="1616" y="816" width="256" height="80" rx="8" ry="8" class="k"/><text x="1733.4" y="860.2" class="l">Microsoft Visio</text></g><a target="_blank" href="https://powerapps.microsoft.com/pricing/#compare-plans"><rect x="1968" y="1040" width="96" height="80" rx="8" ry="8" class="p"/><text x="1975.6" y="1084.2" class="q">Power Apps</text></a><a target="_blank" href="https://products.office.com/project/compare-microsoft-project-management-software"><rect x="1328" y="704" width="96" height="80" rx="8" ry="8" class="p"/><text x="1352.3" y="739.8" class="q">Project <tspan x="1354.2" dy="1.2em" class="m">Online</tspan></text></a><a target="_blank" href="https://products.office.com/visio/microsoft-visio-plans-and-pricing-compare-visio-options"><rect x="1616" y="816" width="96" height="80" rx="8" ry="8" class="p"/><text x="1647.3" y="851.8" class="q">Visio <tspan x="1642.2" dy="1.2em" class="m">Online</tspan></text></a><a target="_blank" href="https://developer.microsoft.com/en-us/office/blogs/new-licensing-options-for-microsoft-365-for-unattended-scenarios/"><rect x="688" y="1152" width="96" height="80" rx="8" ry="8" class="p"/><text x="694.1" y="1180.3" class="r">Microsoft 365 <tspan x="700.2" dy="1.2em" class="m">Unattended </tspan><tspan x="722.3" dy="1.2em" class="m">RPA</tspan></text></a><a target="_blank" href="https://learn.microsoft.com/mem/intune/protect/microsoft-tunnel-overview"><rect x="336" y="1152" width="96" height="80" rx="8" ry="8" class="p"/><text x="352.5" y="1187.8" class="q">Microsoft <tspan x="361.1" dy="1.2em" class="m">Tunnel</tspan></text></a><a target="_blank" href="https://powerautomate.microsoft.com/"><rect x="2256" y="1040" width="96" height="80" rx="8" ry="8" class="p"/><text x="2283" y="1075.8" class="q">Power <tspan x="2271.7" dy="1.2em" class="m">Automate</tspan></text></a><a target="_blank" href="https://dynamics.microsoft.com/customer-voice/overview/"><rect x="1616" y="592" width="96" height="80" rx="8" ry="8" class="p"/><text x="1620.6" y="620.3" class="r">Dynamics 365 <tspan x="1633.7" dy="1.2em" class="m">Customer </tspan><tspan x="1646.7" dy="1.2em" class="m">Voice</tspan></text></a><a target="_blank" href="https://powervirtualagents.microsoft.com/"><rect x="1968" y="1264" width="96" height="80" rx="8" ry="8" class="p"/><text x="1995" y="1291.4" class="q">Power <tspan x="1994.2" dy="1.2em" class="m">Virtual </tspan><tspan x="1992.3" dy="1.2em" class="m">Agents</tspan></text></a><a target="_blank" href="https://powerplatform.microsoft.com/dataverse/"><rect x="2256" y="928" width="96" height="80" rx="8" ry="8" class="p"/><text x="2272.5" y="963.8" class="q">Microsoft <tspan x="2270.5" dy="1.2em" class="m">Dataverse</tspan></text></a><a target="_blank" href="https://powerbi.microsoft.com/power-bi-premium/"><rect x="1968" y="1152" width="96" height="80" rx="8" ry="8" class="p"/><text x="1986" y="1187.8" class="q">Power BI <tspan x="1986" dy="1.2em" class="m">Premium</tspan></text></a><a target="_blank" href="https://learn.microsoft.com/microsoft-365/contentunderstanding/syntex-overview"><rect x="688" y="1264" width="96" height="80" rx="8" ry="8" class="p"/><text x="704.5" y="1299.8" class="q">Microsoft <tspan x="713" dy="1.2em" class="m">Syntex</tspan></text></a><g><rect x="48" y="1152" width="256" height="80" rx="8" ry="8" class="k"/><text x="165.4" y="1187.8" class="l">AI-enhanced cloud-<tspan x="165.4" dy="1.2em" class="m">native SIEM</tspan></text></g><a target="_blank" href="https://azure.microsoft.com/services/azure-sentinel/"><rect x="48" y="1152" width="96" height="80" rx="8" ry="8" class="p"/><text x="64.5" y="1187.8" class="q">Microsoft <tspan x="68.8" dy="1.2em" class="m">Sentinel</tspan></text></a><g><rect x="336" y="368" width="256" height="80" rx="8" ry="8" class="k"/><text x="453.4" y="395.4" class="l">On-prem, multi-cloud, <tspan x="453.4" dy="1.2em" class="m">and SaaS data </tspan><tspan x="453.4" dy="1.2em" class="m">governance</tspan></text></g><a target="_blank" href="https://www.microsoft.com/security/business/microsoft-purview"><rect x="336" y="368" width="96" height="80" rx="8" ry="8" class="p"/><text x="352.5" y="403.8" class="q">Microsoft <tspan x="357.2" dy="1.2em" class="m">Purview</tspan></text></a><g><rect x="976" y="1264" width="256" height="80" rx="8" ry="8" class="k"/><text x="1093.4" y="1291.4" class="l">Schedule meetings <tspan x="1093.4" dy="1.2em" class="m">with the help of AI</tspan><tspan x="1093.4" dy="1.2em" class="m">(retires 2023</tspan>-09-01)</text></g><a target="_blank" href="https://learn.microsoft.com/microsoft-365/scheduler/scheduler-overview"><rect x="976" y="1264" width="96" height="80" rx="8" ry="8" class="p"/><text x="990.2" y="1299.8" class="q">Scheduler  <tspan x="995.2" dy="1.2em" class="m">(retiring)</tspan></text></a><g><rect x="48" y="480" width="256" height="80" rx="8" ry="8" class="k"/><text x="165.4" y="507.4" class="l">Compliance Manager <tspan x="165.4" dy="1.2em" class="m">premium assessment </tspan><tspan x="165.4" dy="1.2em" class="m">templates</tspan></text></g><a target="_blank" href="https://learn.microsoft.com/office365/servicedescriptions/microsoft-365-service-descriptions/microsoft-365-tenantlevel-services-licensing-guidance/microsoft-365-security-compliance-licensing-guidance#compliance-manager--premium-assessments"><rect x="48" y="480" width="96" height="80" rx="8" ry="8" class="p"/><text x="59.2" y="508.3" class="r">Compliance <tspan x="68.2" dy="1.2em" class="m">Premium </tspan><tspan x="54.1" dy="1.2em" class="m">Assessments</tspan></text></a><g><rect x="48" y="256" width="256" height="80" rx="8" ry="8" class="k"/><text x="165.4" y="283.4" class="l">Built-in long-term <tspan x="165.4" dy="1.2em" class="m">storage of audit </tspan><tspan x="165.4" dy="1.2em" class="m">logging data</tspan></text></g><a target="_blank" href="https://learn.microsoft.com/microsoft-365/compliance/advanced-audit#long-term-retention-of-audit-logs"><rect x="48" y="256" width="96" height="80" rx="8" ry="8" class="p"/><text x="70.7" y="283.4" class="q">10-Year <tspan x="63.3" dy="1.2em" class="m">Audit Log </tspan><tspan x="63.7" dy="1.2em" class="m">Retention</tspan></text></a><g><rect x="336" y="1040" width="256" height="80" rx="8" ry="8" class="k"/><text x="453.4" y="1067.4" class="l">Manage privacy risks <tspan x="453.4" dy="1.2em" class="m">and automate subject </tspan><tspan x="453.4" dy="1.2em" class="m">rights requests</tspan></text></g><a target="_blank" href="https://learn.microsoft.com/privacy/priva/priva-overview"><rect x="336" y="1040" width="96" height="80" rx="8" ry="8" class="p"/><text x="352.5" y="1075.8" class="q">Microsoft <tspan x="366.9" dy="1.2em" class="m">Priva</tspan></text></a><g><rect x="48" y="368" width="256" height="80" rx="8" ry="8" class="k"/><text x="165.4" y="395.4" class="l">Advanced app <tspan x="165.4" dy="1.2em" class="m">governance and </tspan><tspan x="165.4" dy="1.2em" class="m">monitoring</tspan></text></g><a target="_blank" href="https://learn.microsoft.com/microsoft-365/compliance/app-governance-manage-app-governance"><rect x="48" y="368" width="96" height="80" rx="8" ry="8" class="p"/><text x="82.4" y="403.8" class="q">App <tspan x="55.5" dy="1.2em" class="m">Governance</tspan></text></a><g><rect x="1328" y="928" width="256" height="80" rx="8" ry="8" class="k"/><text x="1445.4" y="955.4" class="l">Windows desktop as <tspan x="1445.4" dy="1.2em" class="m">a cloud subscription </tspan><tspan x="1445.4" dy="1.2em" class="m">service</tspan></text></g><a target="_blank" href="https://www.microsoft.com/windows-365"><rect x="1328" y="928" width="96" height="80" rx="8" ry="8" class="p"/><text x="1345.3" y="963.8" class="q">Windows <tspan x="1364.3" dy="1.2em" class="m">365</tspan></text></a><g><rect x="656" y="176" width="608" height="48" rx="8" ry="8" class="s"/><text x="878.9" y="206" class="o">Communications</text></g><g><rect x="976" y="256" width="256" height="80" rx="8" ry="8" class="k"/><text x="1093.4" y="291.8" class="l">PSTN telephony <tspan x="1093.4" dy="1.2em" class="m">calling plans</tspan></text></g><g><rect x="688" y="592" width="256" height="80" rx="8" ry="8" class="k"/><text x="805.4" y="627.8" class="l">Enable meeting room <tspan x="805.4" dy="1.2em" class="m">devices</tspan></text></g><g><rect x="976" y="480" width="256" height="80" rx="8" ry="8" class="k"/><text x="1093.4" y="499" class="l">Branding, pro-grade <tspan x="1093.4" dy="1.2em" class="m">stream production, </tspan><tspan x="1093.4" dy="1.2em" class="m">and custom policy </tspan><tspan x="1093.4" dy="1.2em" class="m">packages.</tspan></text></g><a target="_blank" href="https://products.office.com/microsoft-teams/voice-calling"><rect x="976" y="256" width="96" height="80" rx="8" ry="8" class="p"/><text x="1000.7" y="291.8" class="q">Calling <tspan x="1005.3" dy="1.2em" class="m">Plans</tspan></text></a><a target="_blank" href="https://www.microsoft.com/microsoft-teams/microsoft-teams-rooms"><rect x="688" y="592" width="96" height="80" rx="8" ry="8" class="p"/><text x="713.8" y="627.8" class="q">Teams <tspan x="712.3" dy="1.2em" class="m">Rooms</tspan></text></a><a target="_blank" href="https://learn.microsoft.com/microsoftteams/enhanced-teams-experience"><rect x="976" y="480" width="96" height="80" rx="8" ry="8" class="p"/><text x="1001.8" y="515.8" class="q">Teams <tspan x="994" dy="1.2em" class="m">Premium</tspan></text></a><g><rect x="688" y="480" width="256" height="80" rx="8" ry="8" class="k"/><text x="805.4" y="507.4" class="l">Teams PSTN <tspan x="805.4" dy="1.2em" class="m">connection hosted </tspan><tspan x="805.4" dy="1.2em" class="m">as</tspan>-a-service</text></g><a target="_blank" href="https://learn.microsoft.com/microsoftteams/operator-connect-plan"><rect x="688" y="480" width="96" height="80" rx="8" ry="8" class="p"/><text x="713.8" y="507.4" class="q">Teams <tspan x="706.4" dy="1.2em" class="m">Operator </tspan><tspan x="708" dy="1.2em" class="m">Connect</tspan></text></a><g><rect x="48" y="1040" width="256" height="80" rx="8" ry="8" class="k"/><text x="165.4" y="1067.4" class="l">Identity and Access <tspan x="165.4" dy="1.2em" class="m">Management </tspan><tspan x="165.4" dy="1.2em" class="m">services</tspan></text></g><a target="_blank" href="https://www.microsoft.com/security/business/microsoft-entra"><rect x="48" y="1040" width="96" height="80" rx="8" ry="8" class="p"/><text x="64.5" y="1075.8" class="q">Microsoft <tspan x="78.1" dy="1.2em" class="m">Entra</tspan></text></a><g><rect x="1616" y="704" width="256" height="80" rx="8" ry="8" class="k"/><text x="1733.4" y="731.4" class="l">Help end users with <tspan x="1733.4" dy="1.2em" class="m">remote session </tspan><tspan x="1733.4" dy="1.2em" class="m">viewing and control </tspan></text></g><a target="_blank" href="https://learn.microsoft.com/mem/intune/remote-actions/remote-help"><rect x="1616" y="704" width="96" height="80" rx="8" ry="8" class="p"/><text x="1638.3" y="739.8" class="q">Remote  <tspan x="1648.8" dy="1.2em" class="m">Help</tspan></text></a><a target="_blank" href="https://m365maps.com/"><rect x="16" y="16" width="2528" height="64" rx="8" ry="8" class="t"/><text x="926.5" y="62.4" class="u">Microsoft 365 Related Services</text></a><g><rect x="16" y="80" width="2528" height="32" class="v"/><text x="1184.9" y="105" class="w">January 2023</text></g><a target="_blank" href="https://m365maps.com/"><rect x="16" y="112" width="2528" height="32" rx="8" ry="8" class="t"/><text x="1212.5" y="133.4" class="x">m365maps.com</text></a><g><rect x="1296" y="176" width="608" height="48" rx="8" ry="8" class="y"/><text x="1551.7" y="206" class="o">Education</text></g><g><rect x="1936" y="176" width="608" height="48" rx="8" ry="8" class="z"/><text x="2136.6" y="206" class="o">Employee Experience</text></g><g><rect x="1968" y="480" width="256" height="80" rx="8" ry="8" class="k"/><text x="2085.4" y="507.4" class="l">Complete learning <tspan x="2085.4" dy="1.2em" class="m">experience platform </tspan><tspan x="2085.4" dy="1.2em" class="m">inside Teams</tspan></text></g><g><rect x="2256" y="368" width="256" height="80" rx="8" ry="8" class="k"/><text x="2373.4" y="395.4" class="l">Analyse workplace <tspan x="2373.4" dy="1.2em" class="m">trends and drive </tspan><tspan x="2373.4" dy="1.2em" class="m">efficiencies</tspan></text></g><g><rect x="1968" y="704" width="256" height="80" rx="8" ry="8" class="k"/><text x="2085.4" y="739.8" class="l">Integrated knowledge <tspan x="2085.4" dy="1.2em" class="m">&amp; experts discovery</tspan></text></g><a target="_blank" href="https://learn.microsoft.com/viva/insights/introduction"><rect x="2256" y="368" width="96" height="80" rx="8" ry="8" class="p"/><text x="2289.6" y="395.4" class="q">Viva <tspan x="2277.2" dy="1.2em" class="m">Insights </tspan><tspan x="2269.8" dy="1.2em" class="m">(premium)</tspan></text></a><a target="_blank" href="https://learn.microsoft.com/viva/learning/"><rect x="1968" y="480" width="96" height="80" rx="8" ry="8" class="p"/><text x="2001.6" y="507.4" class="q">Viva <tspan x="1986.4" dy="1.2em" class="m">Learning </tspan><tspan x="1981.8" dy="1.2em" class="m">(premium)</tspan></text></a><a target="_blank" href="https://aka.ms/VivaTopics"><rect x="1968" y="704" width="96" height="80" rx="8" ry="8" class="p"/><text x="2001.6" y="739.8" class="q">Viva <tspan x="1993.4" dy="1.2em" class="m">Topics</tspan></text></a><g><rect x="1968" y="592" width="256" height="80" rx="8" ry="8" class="k"/><text x="2085.4" y="619.4" class="l">Combines Goals, <tspan x="2085.4" dy="1.2em" class="m">Insights, Learning, </tspan><tspan x="2085.4" dy="1.2em" class="m">and Topics</tspan></text></g><a target="_blank" href="https://www.microsoft.com/microsoft-viva"><rect x="1968" y="592" width="96" height="80" rx="8" ry="8" class="p"/><text x="1982.5" y="636.2" class="q">Viva Suite</text></a><g><rect x="1328" y="256" width="256" height="80" rx="8" ry="8" class="k"/><text x="1445.4" y="283.4" class="l">Software dev tools <tspan x="1445.4" dy="1.2em" class="m">for teachers and </tspan><tspan x="1445.4" dy="1.2em" class="m">students</tspan></text></g><a target="_blank" href="https://learn.microsoft.com/azure/education-hub/azure-dev-tools-teaching/program-faq#azure-dev-tools-for-teaching"><rect x="1328" y="256" width="96" height="80" rx="8" ry="8" class="p"/><text x="1341.8" y="283.4" class="q">Azure Dev <tspan x="1346.1" dy="1.2em" class="m">Tools for </tspan><tspan x="1345.3" dy="1.2em" class="m">Teaching</tspan></text></a><g><rect x="1616" y="256" width="256" height="80" rx="8" ry="8" class="k"/><text x="1733.4" y="283.4" class="l">Connects students <tspan x="1733.4" dy="1.2em" class="m">with career path </tspan><tspan x="1733.4" dy="1.2em" class="m">aligned learning</tspan></text></g><a target="_blank" href="https://learn.microsoft.com/microsoftteams/career-coach"><rect x="1616" y="256" width="96" height="80" rx="8" ry="8" class="p"/><text x="1641.8" y="291.8" class="q">Career <tspan x="1642.6" dy="1.2em" class="m">Coach</tspan></text></a><g><rect x="1328" y="368" width="256" height="80" rx="8" ry="8" class="k"/><text x="1445.4" y="395.4" class="l">Data-driven insights <tspan x="1445.4" dy="1.2em" class="m">to improve student </tspan><tspan x="1445.4" dy="1.2em" class="m">outcomes</tspan></text></g><a target="_blank" href="https://support.microsoft.com/topic/8738d1b1-4e1c-49bd-9e8d-b5292474c347"><rect x="1328" y="368" width="96" height="80" rx="8" ry="8" class="p"/><text x="1342.2" y="395.4" class="q">Education <tspan x="1349.2" dy="1.2em" class="m">Insights </tspan><tspan x="1341.8" dy="1.2em" class="m">(premium)</tspan></text></a><g><rect x="1616" y="368" width="256" height="80" rx="8" ry="8" class="k"/><text x="1733.4" y="395.4" class="l">Skills program benefit <tspan x="1733.4" dy="1.2em" class="m">for Education </tspan><tspan x="1733.4" dy="1.2em" class="m">customers</tspan></text></g><a target="_blank" href="https://learn.microsoft.com/learn/certifications/volume-licensing-program"><rect x="1616" y="368" width="96" height="80" rx="8" ry="8" class="p"/><text x="1637.6" y="403.8" class="q">Imagine <tspan x="1632.9" dy="1.2em" class="m">Academy</tspan></text></a><g><rect x="2256" y="480" width="256" height="80" rx="8" ry="8" class="k"/><text x="2373.4" y="499" class="l">Connects CRM <tspan x="2373.4" dy="1.2em" class="m">systems with Teams </tspan><tspan x="2373.4" dy="1.2em" class="m">and Microsoft 365 </tspan><tspan x="2373.4" dy="1.2em" class="m">(not in Viva Suite)</tspan></text></g><a target="_blank" href="https://learn.microsoft.com/Viva/sales/introduction"><rect x="2256" y="480" width="96" height="80" rx="8" ry="8" class="p"/><text x="2289.6" y="515.8" class="q">Viva <tspan x="2285.7" dy="1.2em" class="m">Sales</tspan></text></a><g><rect x="656" y="736" width="608" height="48" rx="8" ry="8" class="ba"/><text x="890.5" y="766" class="o">Extra Capacity</text></g><g><rect x="688" y="816" width="256" height="80" rx="8" ry="8" class="k"/><text x="805.4" y="851.8" class="l">Extra capacity for AI <tspan x="805.4" dy="1.2em" class="m">Builder</tspan></text></g><g><rect x="976" y="928" width="256" height="80" rx="8" ry="8" class="k"/><text x="1093.4" y="963.8" class="l">Additional storage for <tspan x="1093.4" dy="1.2em" class="m">SharePoint Online</tspan></text></g><a target="_blank" href="https://learn.microsoft.com/office365/admin/subscriptions-and-billing/add-storage-space"><rect x="976" y="928" width="96" height="80" rx="8" ry="8" class="p"/><text x="987" y="963.8" class="q">SharePoint <tspan x="997.9" dy="1.2em" class="m">Storage</tspan></text></a><a target="_blank" href="https://learn.microsoft.com/ai-builder/administer-licensing#purchase-ai-builder-capacity"><rect x="688" y="816" width="96" height="80" rx="8" ry="8" class="p"/><text x="702.9" y="851.8" class="q">AI Builder <tspan x="706.8" dy="1.2em" class="m">Capacity</tspan></text></a><g><rect x="688" y="928" width="256" height="80" rx="8" ry="8" class="k"/><text x="805.4" y="955.4" class="l">Additional capacity <tspan x="805.4" dy="1.2em" class="m">for Search with </tspan><tspan x="805.4" dy="1.2em" class="m">Graph Connectors</tspan></text></g><a target="_blank" href="https://learn.microsoft.com/microsoftsearch/licensing"><rect x="688" y="928" width="96" height="80" rx="8" ry="8" class="p"/><text x="715.4" y="955.4" class="q">Graph <tspan x="701" dy="1.2em" class="m">Connector </tspan><tspan x="706.8" dy="1.2em" class="m">Capacity</tspan></text></a><g><rect x="656" y="1072" width="608" height="48" rx="8" ry="8" class="bb"/><text x="836.7" y="1102" class="o">Automation &amp; Intelligence</text></g><g><rect x="1936" y="848" width="608" height="48" rx="8" ry="8" class="bc"/><text x="2166.6" y="878" class="o">Power Platform</text></g><g><rect x="1968" y="368" width="256" height="80" rx="8" ry="8" class="k"/><text x="2085.4" y="395.4" class="l">Objectives and Key <tspan x="2085.4" dy="1.2em" class="m">Results (OKR) in </tspan><tspan x="2085.4" dy="1.2em" class="m">Microsoft 365</tspan></text></g><a target="_blank" href="https://learn.microsoft.com/viva/goals/intro-to-ms-viva-goals"><rect x="1968" y="368" width="96" height="80" rx="8" ry="8" class="p"/><text x="2001.6" y="403.8" class="q">Viva <tspan x="1996.6" dy="1.2em" class="m">Goals</tspan></text></a><g><rect x="1296" y="512" width="608" height="48" rx="8" ry="8" class="bd"/><text x="1445" y="542" class="o">Companion Products &amp; Services</text></g><g><rect x="1968" y="928" width="256" height="80" rx="8" ry="8" class="k"/><text x="2085.4" y="955.4" class="l">Use AI models to <tspan x="2085.4" dy="1.2em" class="m">automate process </tspan><tspan x="2085.4" dy="1.2em" class="m">and generate insights</tspan></text></g><a target="_blank" href="https://learn.microsoft.com/ai-builder/overview"><rect x="1968" y="928" width="96" height="80" rx="8" ry="8" class="p"/><text x="1982.9" y="972.2" class="q">AI Builder</text></a><a target="_blank" href="https://learn.microsoft.com/microsoft-365/security/defender-vulnerability-management/defender-vulnerability-management-capabilities"><rect x="336" y="816" width="96" height="80" rx="8" ry="8" class="p"/><text x="353.7" y="835" class="q">Defender <tspan x="342" dy="1.2em" class="m">Vulnerability </tspan><tspan x="341.2" dy="1.2em" class="m">Management </tspan><tspan x="349.8" dy="1.2em" class="m">(premium)</tspan></text></a><a target="_blank" href="https://www.microsoft.com/cloud-platform/desktop-virtualization"><rect x="1328" y="592" width="96" height="80" rx="8" ry="8" class="p"/><text x="1332.8" y="627.8" class="q">Azure Virtual <tspan x="1348.4" dy="1.2em" class="m">Desktop</tspan></text></a><g><rect x="2256" y="1152" width="256" height="80" rx="8" ry="8" class="k"/><text x="2373.4" y="1179.4" class="l">Create secure, low-<tspan x="2373.4" dy="1.2em" class="m">code business </tspan><tspan x="2373.4" dy="1.2em" class="m">websites</tspan></text></g><a target="_blank" href="https://powerpages.microsoft.com/"><rect x="2256" y="1152" width="96" height="80" rx="8" ry="8" class="p"/><text x="2283" y="1187.8" class="q">Power <tspan x="2283.4" dy="1.2em" class="m">Pages</tspan></text></a><g><rect x="976" y="368" width="256" height="80" rx="8" ry="8" class="k"/><text x="1093.4" y="395.4" class="l">Enterprise Content <tspan x="1093.4" dy="1.2em" class="m">Delivery Network for </tspan><tspan x="1093.4" dy="1.2em" class="m">Teams Live Events</tspan></text></g><a target="_blank" href="https://learn.microsoft.com/ecdn/how-to/enable-microsoft-ecdn-for-your-tenant"><rect x="976" y="368" width="96" height="80" rx="8" ry="8" class="p"/><text x="992.5" y="403.8" class="q">Microsoft <tspan x="1004.9" dy="1.2em" class="m">eCDN</tspan></text></a><g><rect x="336" y="704" width="256" height="80" rx="8" ry="8" class="k"/><text x="453.4" y="731.4" class="l">Protect workloads <tspan x="453.4" dy="1.2em" class="m">across multi</tspan>-cloud &amp; <tspan x="453.4" dy="1.2em" class="m">hybrid environments</tspan></text></g><a target="_blank" href="https://azure.microsoft.com/services/defender-for-cloud/"><rect x="336" y="704" width="96" height="80" rx="8" ry="8" class="p"/><text x="342.4" y="739.8" class="q">Defender for <tspan x="364.2" dy="1.2em" class="m">Cloud</tspan></text></a><g><rect x="48" y="928" width="256" height="80" rx="8" ry="8" class="k"/><text x="165.4" y="955.4" class="l">On-demand access <tspan x="165.4" dy="1.2em" class="m">to consult Microsoft </tspan><tspan x="165.4" dy="1.2em" class="m">security experts</tspan></text></g><a target="_blank" href="https://learn.microsoft.com/microsoft-365/security/defender-endpoint/microsoft-threat-experts#microsoft-threat-experts---experts-on-demand"><rect x="48" y="928" width="96" height="80" rx="8" ry="8" class="p"/><text x="59.8" y="963.8" class="q">Experts on <tspan x="68.4" dy="1.2em" class="m">Demand</tspan></text></a><g><rect x="976" y="1152" width="256" height="80" rx="8" ry="8" class="k"/><text x="1093.4" y="1179.4" class="l">Microsoft device <tspan x="1093.4" dy="1.2em" class="m">management and </tspan><tspan x="1093.4" dy="1.2em" class="m">monitoring</tspan></text></g><a target="_blank" href="https://learn.microsoft.com/microsoft-365/managed-desktop/"><rect x="976" y="1152" width="96" height="80" rx="8" ry="8" class="p"/><text x="992.5" y="1179.4" class="q">Microsoft <tspan x="993.7" dy="1.2em" class="m">Managed </tspan><tspan x="996.4" dy="1.2em" class="m">Desktop</tspan></text></a><g><rect x="688" y="368" width="256" height="80" rx="8" ry="8" class="k"/><text x="805.4" y="395.4" class="l">Connects Electronic <tspan x="805.4" dy="1.2em" class="m">Health Record </tspan><tspan x="805.4" dy="1.2em" class="m">systems to Teams</tspan></text></g><a target="_blank" href="https://learn.microsoft.com/microsoftteams/expand-teams-across-your-org/healthcare/ehr-admin"><rect x="688" y="368" width="96" height="80" rx="8" ry="8" class="p"/><text x="721.2" y="395.4" class="q">EHR <tspan x="701" dy="1.2em" class="m">Connector </tspan><tspan x="702.6" dy="1.2em" class="m">for Teams</tspan></text></a><g><rect x="48" y="1264" width="256" height="80" rx="8" ry="8" class="k"/><text x="165.4" y="1299.8" class="l">Split a tenancy over <tspan x="165.4" dy="1.2em" class="m">multiple geographies</tspan></text></g><a target="_blank" href="https://products.office.com/business/multi-geo-capabilities"><rect x="48" y="1264" width="96" height="80" rx="8" ry="8" class="p"/><text x="63.7" y="1308.2" class="q">Multi-Geo</text></a><g><rect x="48" y="816" width="256" height="80" rx="8" ry="8" class="k"/><text x="165.4" y="843.4" class="l">Curated OSINT, <tspan x="165.4" dy="1.2em" class="m">threat intelligence, </tspan><tspan x="165.4" dy="1.2em" class="m">and insights</tspan></text></g><a target="_blank" href="https://learn.microsoft.com/defender/threat-intelligence/what-is-microsoft-defender-threat-intelligence-defender-ti"><rect x="48" y="816" width="96" height="80" rx="8" ry="8" class="p"/><text x="65.7" y="843.4" class="q">Defender <tspan x="74.6" dy="1.2em" class="m">Threat </tspan><tspan x="57.5" dy="1.2em" class="m">Intelligence</tspan></text></a><g><rect x="48" y="592" width="256" height="80" rx="8" ry="8" class="k"/><text x="165.4" y="611" class="l">Continuously <tspan x="165.4" dy="1.2em" class="m">discover and map </tspan><tspan x="165.4" dy="1.2em" class="m">your external attack </tspan><tspan x="165.4" dy="1.2em" class="m">surface</tspan></text></g><a target="_blank" href="https://learn.microsoft.com/azure/external-attack-surface-management/"><rect x="48" y="592" width="96" height="80" rx="8" ry="8" class="p"/><text x="65.7" y="627.8" class="q">Defender <tspan x="75.8" dy="1.2em" class="m">EASM</tspan></text></a><g><rect x="336" y="592" width="256" height="80" rx="8" ry="8" class="k"/><text x="453.4" y="619.4" class="l">Get Microsoft threat <tspan x="453.4" dy="1.2em" class="m">hunting experts </tspan><tspan x="453.4" dy="1.2em" class="m">working for you</tspan></text></g><a target="_blank" href="https://www.microsoft.com/security/business/services/microsoft-defender-experts-hunting"><rect x="336" y="592" width="96" height="80" rx="8" ry="8" class="p"/><text x="353.7" y="619.4" class="q">Defender <tspan x="347" dy="1.2em" class="m">Experts for </tspan><tspan x="357.6" dy="1.2em" class="m">Hunting</tspan></text></a><g><rect x="336" y="928" width="256" height="80" rx="8" ry="8" class="k"/><text x="453.4" y="955.4" class="l">Multi-tenant control <tspan x="453.4" dy="1.2em" class="m">plane for Managed </tspan><tspan x="453.4" dy="1.2em" class="m">Service Providers</tspan></text></g><a target="_blank" href="https://learn.microsoft.com/microsoft-365/lighthouse/m365-lighthouse-overview"><rect x="336" y="928" width="96" height="80" rx="8" ry="8" class="p"/><text x="352.5" y="955.4" class="q">Microsoft <tspan x="372.3" dy="1.2em" class="m">365 </tspan><tspan x="346.3" dy="1.2em" class="m">Lighthouse</tspan></text></a><g><rect x="1328" y="1152" width="256" height="80" rx="8" ry="8" class="k"/><text x="1445.4" y="1179.4" class="l">Azure support for <tspan x="1445.4" dy="1.2em" class="m">Medium to Large </tspan><tspan x="1445.4" dy="1.2em" class="m">companies</tspan></text></g><a target="_blank" href="https://azure.microsoft.com/support/plans/prodirect/"><rect x="1328" y="1152" width="96" height="80" rx="8" ry="8" class="p"/><text x="1344.5" y="1179.4" class="q">ProDirect <tspan x="1337.9" dy="1.2em" class="m">Support for </tspan><tspan x="1356.6" dy="1.2em" class="m">Azure</tspan></text></a><g><rect x="1328" y="1264" width="256" height="80" rx="8" ry="8" class="k"/><text x="1445.4" y="1291.4" class="l">Microsoft 365 <tspan x="1445.4" dy="1.2em" class="m">support for Medium </tspan><tspan x="1445.4" dy="1.2em" class="m">to Large companies</tspan></text></g><a target="_blank" href="https://www.microsoft.com/microsoft-365/business/microsoft-365-for-business-support-options"><rect x="1328" y="1264" width="96" height="80" rx="8" ry="8" class="p"/><text x="1344.5" y="1283" class="q">ProDirect <tspan x="1337.9" dy="1.2em" class="m">Support for </tspan><tspan x="1344.5" dy="1.2em" class="m">Microsoft </tspan><tspan x="1364.3" dy="1.2em" class="m">365</tspan></text></a><g><rect x="1616" y="1152" width="256" height="80" rx="8" ry="8" class="k"/><text x="1733.4" y="1179.4" class="l">Dynamics 365 <tspan x="1733.4" dy="1.2em" class="m">support for Medium </tspan><tspan x="1733.4" dy="1.2em" class="m">to Large companies</tspan></text></g><a target="_blank" href="https://dynamics.microsoft.com/support/"><rect x="1616" y="1152" width="96" height="80" rx="8" ry="8" class="p"/><text x="1632.5" y="1171" class="q">ProDirect <tspan x="1625.9" dy="1.2em" class="m">Support for </tspan><tspan x="1630.9" dy="1.2em" class="m">Dynamics </tspan><tspan x="1652.3" dy="1.2em" class="m">365</tspan></text></a><g><rect x="1616" y="1264" width="256" height="80" rx="8" ry="8" class="k"/><text x="1733.4" y="1291.4" class="l">Enterprise support <tspan x="1733.4" dy="1.2em" class="m">across all Microsoft </tspan><tspan x="1733.4" dy="1.2em" class="m">technologies</tspan></text></g><a target="_blank" href="https://www.microsoft.com/unifiedsupport/overview"><rect x="1616" y="1264" width="96" height="80" rx="8" ry="8" class="p"/><text x="1640.3" y="1299.8" class="q">Unified <tspan x="1637.2" dy="1.2em" class="m">Support</tspan></text></a><g><rect x="1296" y="1072" width="608" height="48" rx="8" ry="8" class="be"/><text x="1517.8" y="1102" class="o">Support Services</text></g><g><rect x="1968" y="256" width="256" height="80" rx="8" ry="8" class="k"/><text x="2085.4" y="283.4" class="l">Expert developed <tspan x="2085.4" dy="1.2em" class="m">and curated learning </tspan><tspan x="2085.4" dy="1.2em" class="m">content and portal</tspan></text></g><a target="_blank" href="https://learning.linkedin.com/product-overview"><rect x="1968" y="256" width="96" height="80" rx="8" ry="8" class="p"/><text x="1987.2" y="291.8" class="q">LinkedIn <tspan x="1986.4" dy="1.2em" class="m">Learning</tspan></text></a><g><rect x="2256" y="256" width="256" height="80" rx="8" ry="8" class="k"/><text x="2373.4" y="283.4" class="l">Employee feedback, <tspan x="2373.4" dy="1.2em" class="m">analysis, and insights </tspan><tspan x="2373.4" dy="1.2em" class="m">platform</tspan></text></g><a target="_blank" href="https://business.linkedin.com/glint/product-overview"><rect x="2256" y="256" width="96" height="80" rx="8" ry="8" class="p"/><text x="2275.2" y="291.8" class="q">LinkedIn <tspan x="2288.1" dy="1.2em" class="m">Glint</tspan></text></a><g><rect x="976" y="816" width="256" height="80" rx="8" ry="8" class="k"/><text x="1093.4" y="843.4" class="l">Additional Dataverse <tspan x="1093.4" dy="1.2em" class="m">file, log, and </tspan><tspan x="1093.4" dy="1.2em" class="m">database capacity</tspan></text></g><a target="_blank" href="https://learn.microsoft.com/microsoftsearch/licensing"><rect x="976" y="816" width="96" height="80" rx="8" ry="8" class="p"/><text x="990.5" y="851.8" class="q">Dataverse <tspan x="997.9" dy="1.2em" class="m">Storage</tspan></text></a><g><rect x="48" y="704" width="256" height="80" rx="8" ry="8" class="k"/><text x="165.4" y="731.4" class="l">Advanced business <tspan x="165.4" dy="1.2em" class="m">endpoint security by </tspan><tspan x="165.4" dy="1.2em" class="m">Microsoft Defender</tspan></text></g><a target="_blank" href="https://learn.microsoft.com/microsoft-365/security/defender-business/"><rect x="48" y="704" width="96" height="80" rx="8" ry="8" class="p"/><text x="54.4" y="739.8" class="q">Defender for <tspan x="64.9" dy="1.2em" class="m">Business</tspan></text></a><g><rect x="336" y="480" width="256" height="80" rx="8" ry="8" class="k"/><text x="453.4" y="515.8" class="l">Migrate users directly <tspan x="453.4" dy="1.2em" class="m">from tenant to tenant</tspan></text></g><a target="_blank" href="https://learn.microsoft.com/microsoft-365/enterprise/microsoft-365-tenant-to-tenant-migrations"><rect x="336" y="480" width="96" height="80" rx="8" ry="8" class="p"/><text x="342.1" y="516.1" class="r">Cross-Tenant <tspan x="354.8" dy="1.2em" class="m">Migration</tspan></text></a><g><rect x="336" y="256" width="256" height="80" rx="8" ry="8" class="k"/><text x="453.4" y="283.4" class="l">Service migration <tspan x="453.4" dy="1.2em" class="m">and residency for </tspan><tspan x="453.4" dy="1.2em" class="m">additional workloads</tspan></text></g><a target="_blank" href="https://learn.microsoft.com/microsoft-365/enterprise/advanced-data-residency"><rect x="336" y="256" width="96" height="80" rx="8" ry="8" class="p"/><text x="350.6" y="283.4" class="q">Advanced <tspan x="368.8" dy="1.2em" class="m">Data </tspan><tspan x="349" dy="1.2em" class="m">Residency</tspan></text></a><g><rect x="688" y="256" width="256" height="80" rx="8" ry="8" class="k"/><text x="805.4" y="283.4" class="l">APIs for voice, video, <tspan x="805.4" dy="1.2em" class="m">chat, SMS, and email </tspan><tspan x="805.4" dy="1.2em" class="m">service integration</tspan></text></g><a target="_blank" href="https://azure.microsoft.com/products/communication-services/"><rect x="688" y="256" width="96" height="80" rx="8" ry="8" class="p"/><text x="716.6" y="283.4" class="q">Azure <tspan x="712.3" dy="1.2em" class="m">Comm. </tspan><tspan x="707.2" dy="1.2em" class="m">Services</tspan></text></a><g><rect x="1328" y="816" width="256" height="80" rx="8" ry="8" class="k"/><text x="1445.4" y="843.4" class="l">Testing platform for <tspan x="1445.4" dy="1.2em" class="m">integrating with </tspan><tspan x="1445.4" dy="1.2em" class="m">Microsoft 365 apps</tspan></text></g><a target="_blank" href="https://products.office.com/visio/microsoft-visio-plans-and-pricing-compare-visio-options"><rect x="1328" y="816" width="96" height="80" rx="8" ry="8" class="p"/><text x="1342.9" y="843.4" class="q">Test Base <tspan x="1333.2" dy="1.2em" class="m">for Microsoft </tspan><tspan x="1364.3" dy="1.2em" class="m">365</tspan></text></a><g><rect x="2256" y="592" width="256" height="80" rx="8" ry="8" class="k"/><text x="2373.4" y="619.4" class="l">Combines the Viva <tspan x="2373.4" dy="1.2em" class="m">Suite features with </tspan><tspan x="2373.4" dy="1.2em" class="m">LinkedIn Glint</tspan></text></g><a target="_blank" href="https://www.microsoft.com/microsoft-viva/viva-and-glint"><rect x="2256" y="592" width="96" height="80" rx="8" ry="8" class="p"/><text x="2270.5" y="627.8" class="q">Viva Suite<tspan x="2282" dy="1.2em" class="m">+ Glint</tspan></text></a></svg>