<svg xmlns="http://www.w3.org/2000/svg" width="592" height="560" viewBox="0 0 592 560" class="a"><style>
.b {fill:#a5a5a5;fill-opacity:0.2;stroke:#008800;stroke-linecap:round;stroke-linejoin:round;stroke-width:2.2}
.c {fill:#008800;stroke:#008800;stroke-linecap:round;stroke-linejoin:round;stroke-width:2.2}
.d {fill:#ffffff;font-family:Arial;font-size:1.7em;font-weight:bold}
.e {fill:#008800;stroke:none;stroke-linecap:round;stroke-linejoin:round;stroke-width:2}
.f {fill:#ffffff;font-family:Arial;font-size:1.2em;font-weight:bold}
.g {font-size:1em}
.h {font-size:0.9em}
.i {fill:#ffffff;font-family:Arial;font-size:1em;font-weight:bold}
.j {fill:none;stroke:none;stroke-linecap:round;stroke-linejoin:round;stroke-width:0.8}
.k {fill:#7f7f7f;font-family:Arial;font-size:1em}
.l {fill:#008800;stroke:none;stroke-linecap:round;stroke-linejoin:round;stroke-width:2.5}
.a {fill:none;fill-rule:evenodd;font-size:12px;overflow:visible;stroke-linecap:square;stroke-miterlimit:3}
</style><rect x="16" y="16" width="560" height="528" rx="8" ry="8" class="b"/><a target="_blank" href="https://www.microsoft.com/microsoft-365/windows/windows-11-enterprise" transform="translate(16,544) rotate(-90)"><rect y="496" width="528" height="64" rx="8" ry="8" class="c"/><text x="200.7" y="534" class="d">Windows Pro</text></a><a target="_blank" href="https://learn.microsoft.com/windows/client-management/mdm/mdm-overview"><rect x="48" y="240" width="96" height="80" rx="8" ry="8" class="e"/><text x="59.8" y="275.8" class="f">Manage by <tspan x="79.3" dy="1.2em" class="g">MDM</tspan></text></a><a target="_blank" href="https://learn.microsoft.com/microsoft-store/microsoft-store-for-business-overview"><rect x="272" y="240" width="96" height="80" rx="8" ry="8" class="e"/><text x="288.5" y="259" class="f">Microsoft <tspan x="290.8" dy="1.2em" class="g">Store for </tspan><tspan x="288.9" dy="1.2em" class="g">Business</tspan><tspan x="293.3" dy="1.3em" class="h">(retiring)</tspan></text></a><a target="_blank" href="https://learn.microsoft.com/windows-server/identity/ad-fs/operations/configure-device-based-conditional-access-on-premises"><rect x="272" y="336" width="96" height="80" rx="8" ry="8" class="e"/><text x="289.3" y="363.4" class="f">Windows <tspan x="281.5" dy="1.2em" class="g">Conditional </tspan><tspan x="295.5" dy="1.2em" class="g">Access</tspan></text></a><a target="_blank" href="https://learn.microsoft.com/windows/security/information-protection/windows-information-protection/protect-enterprise-data-using-wip"><rect x="160" y="432" width="96" height="80" rx="8" ry="8" class="e"/><text x="177.3" y="451" class="f">Windows <tspan x="169.5" dy="1.2em" class="g">Information </tspan><tspan x="173.4" dy="1.2em" class="g">Protection </tspan><tspan x="179.2" dy="1.2em" class="g">(retiring)</tspan></text></a><a target="_blank" href="https://learn.microsoft.com/windows/deployment/update/waas-manage-updates-wufb"><rect x="272" y="432" width="96" height="80" rx="8" ry="8" class="e"/><text x="289.3" y="459.4" class="f">Windows <tspan x="285" dy="1.2em" class="g">Update for </tspan><tspan x="288.9" dy="1.2em" class="g">Business</tspan></text></a><a target="_blank" href="https://learn.microsoft.com/windows/security/identity-protection/hello-for-business/hello-identity-verification"><rect x="48" y="432" width="96" height="80" rx="8" ry="8" class="e"/><text x="65.3" y="459.4" class="f">Windows <tspan x="67.6" dy="1.2em" class="g">Hello for </tspan><tspan x="64.9" dy="1.2em" class="g">Business</tspan></text></a><a target="_blank" href="https://www.microsoft.com/edge/business"><rect x="384" y="144" width="96" height="80" rx="8" ry="8" class="e"/><text x="403.6" y="179.8" class="f">Edge for <tspan x="400.9" dy="1.2em" class="g">Business</tspan></text></a><a target="_blank" href="https://support.microsoft.com/help/17214/windows-10-what-is"><rect x="272" y="144" width="96" height="80" rx="8" ry="8" class="e"/><text x="293.6" y="188.2" class="f">Cortana</text></a><a target="_blank" href="https://learn.microsoft.com/windows/security/threat-protection/windows-defender-application-guard/wd-app-guard-overview"><rect x="160" y="48" width="96" height="80" rx="8" ry="8" class="e"/><text x="169.9" y="83.8" class="f">Application <tspan x="187.4" dy="1.2em" class="g">Guard</tspan></text></a><a target="_blank" href="https://learn.microsoft.com/azure/active-directory/devices/concept-azure-ad-join"><rect x="48" y="144" width="96" height="80" rx="8" ry="8" class="e"/><text x="64.5" y="171.4" class="f">Azure AD<tspan x="63.3" dy="1.2em" class="g">&amp; Domain </tspan><tspan x="81.6" dy="1.2em" class="g">Join</tspan></text></a><a target="_blank" href="https://www.microsoft.com/windows/comprehensive-security"><rect x="160" y="240" width="96" height="80" rx="8" ry="8" class="e"/><text x="176.5" y="267.4" class="f">Microsoft <tspan x="177.7" dy="1.2em" class="g">Defender </tspan><tspan x="177.7" dy="1.2em" class="g">Antivirus</tspan></text></a><a target="_blank" href="https://learn.microsoft.com/windows/deployment/windows-autopilot/windows-autopilot"><rect x="160" y="336" width="96" height="80" rx="8" ry="8" class="e"/><text x="177.3" y="371.8" class="f">Windows <tspan x="177.3" dy="1.2em" class="g">Autopilot</tspan></text></a><a target="_blank" href="https://learn.microsoft.com/windows/security/information-protection/bitlocker/bitlocker-overview"><rect x="160" y="144" width="96" height="80" rx="8" ry="8" class="e"/><text x="168.7" y="171.4" class="f">BitLocker &amp; <tspan x="167.2" dy="1.2em" class="g">BitLocker to </tspan><tspan x="198.3" dy="1.2em" class="g">Go</tspan></text></a><a target="_blank" href="https://learn.microsoft.com/windows/security/threat-protection/windows-firewall/windows-firewall-with-advanced-security"><rect x="384" y="336" width="96" height="80" rx="8" ry="8" class="e"/><text x="401.3" y="371.8" class="f">Windows <tspan x="405.9" dy="1.2em" class="g">Firewall</tspan></text></a><a target="_blank" href="https://learn.microsoft.com/windows/security/threat-protection/windows-defender-application-control/windows-defender-application-control"><rect x="48" y="48" width="96" height="80" rx="8" ry="8" class="e"/><text x="57.9" y="83.8" class="f">Application <tspan x="71.1" dy="1.2em" class="g">Control</tspan></text></a><a target="_blank" href="https://go.microsoft.com/fwlink/?linkid=2085130"><rect x="384" y="240" width="96" height="80" rx="8" ry="8" class="e"/><text x="414" y="262" class="i">Power <tspan x="404.3" dy="1.2em" class="g">Automate </tspan><tspan x="406" dy="1.2em" class="g">Attended </tspan><tspan x="389.7" dy="1.2em" class="g">Desktop Flows</tspan></text></a><a target="_blank" href="https://learn.microsoft.com/windows-hardware/customize/enterprise/unbranded-boot"><rect x="48" y="336" width="96" height="80" rx="8" ry="8" class="e"/><text x="59.1" y="371.8" class="f">Unbranded <tspan x="80.1" dy="1.2em" class="g">Boot</tspan></text></a><a target="_blank" href="https://m365maps.com/"><rect y="544" width="592" height="16" class="j"/><text x="502.6" y="555.6" class="k">m365maps.com</text></a><a target="_blank" href="https://learn.microsoft.com/windows/whats-new/windows-11-plan#servicing-and-support"><rect x="384" y="432" width="96" height="80" rx="8" ry="8" class="l"/><text x="400.9" y="459.4" class="f">24 month <tspan x="394.7" dy="1.2em" class="g">support for </tspan><tspan x="391.6" dy="1.2em" class="g">Windows 11</tspan></text></a><a target="_blank" href="https://learn.microsoft.com/windows/security/threat-protection/windows-defender-application-control/applocker/applocker-overview"><rect x="272" y="48" width="96" height="80" rx="8" ry="8" class="l"/><text x="283.4" y="83.8" class="f">AppLocker<tspan x="279.6" dy="1.3em" class="h">(MDM policy)</tspan></text></a><a target="_blank" href="https://learn.microsoft.com/windows/configuration/kiosk-single-app"><rect x="384" y="48" width="96" height="80" rx="8" ry="8" class="l"/><text x="400.5" y="83.8" class="f">Assigned <tspan x="407.5" dy="1.2em" class="g">Access</tspan></text></a></svg>