<svg xmlns="http://www.w3.org/2000/svg" width="944" height="1200" viewBox="0 0 944 1200" class="a"><style>
.b {fill:#a5a5a5;fill-opacity:0.2;stroke:#004400;stroke-linecap:round;stroke-linejoin:round;stroke-width:2.2}
.c {fill:#a6a6a6;fill-opacity:0.2;stroke:#004400;stroke-dasharray:2.2,4.5;stroke-linecap:round;stroke-linejoin:round;stroke-width:2.2}
.d {fill:#a5a5a5;fill-opacity:0.2;stroke:#006600;stroke-dasharray:15.8,11.2;stroke-linecap:round;stroke-linejoin:round;stroke-width:2.2}
.e {fill:#006600;stroke:#006600;stroke-linecap:round;stroke-linejoin:round;stroke-width:2.2}
.f {fill:#ffffff;font-family:Arial;font-size:1.7em;font-weight:bold}
.g {fill:#004400;stroke:#004400;stroke-linecap:round;stroke-linejoin:round;stroke-width:2.2}
.h {fill:none;stroke:none;stroke-linecap:round;stroke-linejoin:round;stroke-width:0.5}
.i {fill:#000000;font-family:Arial;font-size:1.3em}
.j {font-size:1em}
.k {fill:#004400;stroke:none;stroke-linecap:round;stroke-linejoin:round;stroke-width:1}
.l {fill:#ffffff;font-family:Arial;font-size:1.2em;font-weight:bold}
.m {fill:#006600;stroke:none;stroke-linecap:round;stroke-linejoin:round;stroke-width:1}
.n {font-size:0.9em}
.o {fill:#ffffff;font-family:Arial;font-size:1.1em;font-weight:bold}
.p {fill:#ffffff;font-family:Arial;font-size:1em;font-weight:bold}
.q {fill:none;stroke:none;stroke-linecap:round;stroke-linejoin:round;stroke-width:0.8}
.r {fill:#7f7f7f;font-family:Arial;font-size:1em}
.a {fill:none;fill-rule:evenodd;font-size:12px;overflow:visible;stroke-linecap:square;stroke-miterlimit:3}
</style><rect x="16" y="16" width="912" height="1168" rx="8" ry="8" class="b"/><rect x="112" y="48" width="720" height="352" rx="8" ry="8" class="c"/><rect x="48" y="432" width="784" height="720" rx="8" ry="8" class="d"/><a target="_blank" href="https://www.microsoft.com/microsoft-365/windows/windows-11-enterprise" transform="translate(-1088,1152) rotate(-90)"><rect y="1136" width="720" height="64" rx="8" ry="8" class="e"/><text x="248.9" y="1174" class="f">Windows Enterprise E3</text></a><a target="_blank" href="https://www.microsoft.com/microsoft-365/windows/windows-11-enterprise" transform="translate(-272,1184) rotate(-90)"><rect y="1136" width="1168" height="64" rx="8" ry="8" class="g"/><text x="472.9" y="1174" class="f">Windows Enterprise E5</text></a><a target="_blank" href="https://learn.microsoft.com/microsoft-365/security/defender-endpoint/microsoft-defender-endpoint"><rect x="112" y="352" width="720" height="48" rx="8" ry="8" class="h"/><text x="393.7" y="371.2" class="i">Defender for Endpoint <tspan x="449.3" dy="1.2em" class="j">Plan 2</tspan></text></a><a target="_blank" href="https://learn.microsoft.com/windows/security/threat-protection/microsoft-defender-atp/overview-attack-surface-reduction"><rect x="256" y="176" width="96" height="80" rx="8" ry="8" class="k"/><text x="270.6" y="211.8" class="l">Enhanced <tspan x="289.2" dy="1.2em" class="j">ASR</tspan></text></a><a target="_blank" href="https://learn.microsoft.com/windows/security/threat-protection/microsoft-defender-antivirus/prevent-changes-to-security-settings-with-tamper-protection"><rect x="144" y="272" width="96" height="80" rx="8" ry="8" class="k"/><text x="166.7" y="307.8" class="l">Tamper <tspan x="157.4" dy="1.2em" class="j">Protection</tspan></text></a><a target="_blank" href="https://learn.microsoft.com/windows/security/threat-protection/microsoft-defender-antivirus/configure-block-at-first-sight-microsoft-defender-antivirus"><rect x="368" y="80" width="96" height="80" rx="8" ry="8" class="k"/><text x="388.8" y="115.8" class="l">Block at <tspan x="381.4" dy="1.2em" class="j">First Sight</tspan></text></a><a target="_blank" href="https://learn.microsoft.com/windows/security/threat-protection/microsoft-defender-atp/web-content-filtering"><rect x="480" y="272" width="96" height="80" rx="8" ry="8" class="k"/><text x="484.8" y="307.8" class="l">Web Content <tspan x="500.4" dy="1.2em" class="j">Filtering</tspan></text></a><a target="_blank" href="https://learn.microsoft.com/microsoft-365/security/defender-endpoint/non-windows"><rect x="592" y="80" width="96" height="80" rx="8" ry="8" class="k"/><text x="617.8" y="107.4" class="l">Cross-<tspan x="611.6" dy="1.2em" class="j">Platform </tspan><tspan x="613.2" dy="1.2em" class="j">Support</tspan></text></a><a target="_blank" href="https://learn.microsoft.com/microsoft-365/security/defender-endpoint/defender-endpoint-plan-1#centralized-management"><rect x="480" y="80" width="96" height="80" rx="8" ry="8" class="k"/><text x="490.3" y="115.8" class="l">Centralized <tspan x="485.2" dy="1.2em" class="j">Management</tspan></text></a><a target="_blank" href="https://learn.microsoft.com/microsoft-365/security/defender-endpoint/defender-endpoint-plan-1#manual-response-actions"><rect x="480" y="176" width="96" height="80" rx="8" ry="8" class="k"/><text x="503.9" y="203.4" class="l">Manual <tspan x="494.6" dy="1.2em" class="j">Response </tspan><tspan x="502.3" dy="1.2em" class="j">Actions</tspan></text></a><a target="_blank" href="https://learn.microsoft.com/windows/security/threat-protection/windows-defender-atp/automated-investigations-windows-defender-advanced-threat-protection"><rect x="256" y="80" width="96" height="80" rx="8" ry="8" class="k"/><text x="267.4" y="107.4" class="l">Automated <tspan x="260.8" dy="1.2em" class="j">Investigation </tspan><tspan x="263.6" dy="1.2em" class="j">&amp; Response</tspan></text></a><a target="_blank" href="https://learn.microsoft.com/windows/security/threat-protection/windows-defender-atp/overview-hunting-windows-defender-advanced-threat-protection"><rect x="144" y="80" width="96" height="80" rx="8" ry="8" class="k"/><text x="158.6" y="115.8" class="l">Advanced <tspan x="165.6" dy="1.2em" class="j">Hunting</tspan></text></a><a target="_blank" href="https://learn.microsoft.com/windows/security/threat-protection/windows-defender-atp/overview-endpoint-detection-response"><rect x="144" y="176" width="96" height="80" rx="8" ry="8" class="k"/><text x="161.7" y="203.4" class="l">Endpoint <tspan x="153.1" dy="1.2em" class="j">Detection &amp; </tspan><tspan x="158.6" dy="1.2em" class="j">Response</tspan></text></a><a target="_blank" href="https://learn.microsoft.com/windows/security/threat-protection/windows-defender-atp/microsoft-threat-experts"><rect x="592" y="176" width="96" height="80" rx="8" ry="8" class="k"/><text x="608.5" y="203.4" class="l">Microsoft <tspan x="618.6" dy="1.2em" class="j">Threat </tspan><tspan x="614.3" dy="1.2em" class="j">Experts</tspan></text></a><a target="_blank" href="https://learn.microsoft.com/windows/security/threat-protection/microsoft-defender-atp/evaluation-lab"><rect x="368" y="176" width="96" height="80" rx="8" ry="8" class="k"/><text x="380.6" y="211.8" class="l">Evaluation <tspan x="403.6" dy="1.2em" class="j">Lab</tspan></text></a><a target="_blank" href="https://www.microsoft.com/security/blog/2019/01/17/windows-defender-atp-integrates-with-microsoft-information-protection-to-discover-protect-and-monitor-sensitive-data-on-windows-devices/"><rect x="704" y="176" width="96" height="80" rx="8" ry="8" class="k"/><text x="739.6" y="211.8" class="l">MIP <tspan x="715.8" dy="1.2em" class="j">Integration</tspan></text></a><a target="_blank" href="https://learn.microsoft.com/microsoft-365/security/defender-vulnerability-management/defender-vulnerability-management-capabilities"><rect x="368" y="272" width="96" height="80" rx="8" ry="8" class="k"/><text x="374" y="299.4" class="l">Vulnerability <tspan x="373.2" dy="1.2em" class="j">Management </tspan><tspan x="396.6" dy="1.2em" class="j">(core)</tspan></text></a><a target="_blank" href="https://learn.microsoft.com/windows/security/threat-protection/windows-defender-atp/threat-analytics"><rect x="256" y="272" width="96" height="80" rx="8" ry="8" class="k"/><text x="282.6" y="307.8" class="l">Threat <tspan x="272.9" dy="1.2em" class="j">Analytics</tspan></text></a><a target="_blank" href="https://learn.microsoft.com/microsoft-365/security/defender-endpoint/data-storage-privacy#how-long-will-microsoft-store-my-data-what-is-microsofts-data-retention-policy"><rect x="592" y="272" width="96" height="80" rx="8" ry="8" class="k"/><text x="608.9" y="299.4" class="l">6-Months <tspan x="602.6" dy="1.2em" class="j">Searchable </tspan><tspan x="624.8" dy="1.2em" class="j">Data</tspan></text></a><a target="_blank" href="https://learn.microsoft.com/windows/security/threat-protection/microsoft-defender-atp/microsoft-cloud-app-security-integration"><rect x="704" y="80" width="96" height="80" rx="8" ry="8" class="k"/><text x="710.4" y="107.4" class="l">Defender for <tspan x="712.7" dy="1.2em" class="j">Cloud Apps </tspan><tspan x="715.8" dy="1.2em" class="j">Integration</tspan></text></a><a target="_blank" href="https://learn.microsoft.com/windows/security/threat-protection/microsoft-defender-atp/attack-surface-reduction"><rect x="144" y="560" width="96" height="80" rx="8" ry="8" class="m"/><text x="170.6" y="587.4" class="l">Attack <tspan x="166.3" dy="1.2em" class="j">Surface </tspan><tspan x="157.8" dy="1.2em" class="j">Reduction</tspan></text></a><a target="_blank" href="https://learn.microsoft.com/microsoft-store/microsoft-store-for-business-overview"><rect x="480" y="752" width="96" height="80" rx="8" ry="8" class="m"/><text x="496.5" y="771" class="l">Microsoft <tspan x="498.8" dy="1.2em" class="j">Store for </tspan><tspan x="496.9" dy="1.2em" class="j">Business</tspan><tspan x="501.3" dy="1.3em" class="n">(retiring)</tspan></text></a><a target="_blank" href="https://learn.microsoft.com/windows-server/identity/ad-fs/operations/configure-device-based-conditional-access-on-premises"><rect x="256" y="944" width="96" height="80" rx="8" ry="8" class="m"/><text x="273.3" y="971.4" class="l">Windows <tspan x="265.5" dy="1.2em" class="j">Conditional </tspan><tspan x="279.5" dy="1.2em" class="j">Access</tspan></text></a><a target="_blank" href="https://learn.microsoft.com/windows/security/information-protection/windows-information-protection/protect-enterprise-data-using-wip"><rect x="592" y="944" width="96" height="80" rx="8" ry="8" class="m"/><text x="609.3" y="963" class="l">Windows <tspan x="601.5" dy="1.2em" class="j">Information </tspan><tspan x="605.4" dy="1.2em" class="j">Protection </tspan><tspan x="611.2" dy="1.2em" class="j">(retiring)</tspan></text></a><a target="_blank" href="https://learn.microsoft.com/windows/deployment/update/waas-manage-updates-wufb"><rect x="704" y="944" width="96" height="80" rx="8" ry="8" class="m"/><text x="721.3" y="971.4" class="l">Windows <tspan x="717" dy="1.2em" class="j">Update for </tspan><tspan x="720.9" dy="1.2em" class="j">Business</tspan></text></a><a target="_blank" href="https://learn.microsoft.com/windows/security/identity-protection/hello-for-business/hello-identity-verification"><rect x="480" y="944" width="96" height="80" rx="8" ry="8" class="m"/><text x="497.3" y="971.4" class="l">Windows <tspan x="499.6" dy="1.2em" class="j">Hello for </tspan><tspan x="496.9" dy="1.2em" class="j">Business</tspan></text></a><a target="_blank" href="https://support.microsoft.com/help/17214/windows-10-what-is"><rect x="592" y="560" width="96" height="80" rx="8" ry="8" class="m"/><text x="613.6" y="604.2" class="l">Cortana</text></a><a target="_blank" href="https://learn.microsoft.com/windows/security/threat-protection/windows-defender-application-guard/wd-app-guard-overview"><rect x="368" y="464" width="96" height="80" rx="8" ry="8" class="m"/><text x="377.9" y="499.8" class="l">Application <tspan x="395.4" dy="1.2em" class="j">Guard</tspan></text></a><a target="_blank" href="https://learn.microsoft.com/azure/active-directory/devices/concept-azure-ad-join"><rect x="256" y="560" width="96" height="80" rx="8" ry="8" class="m"/><text x="272.5" y="587.4" class="l">Azure AD<tspan x="271.3" dy="1.2em" class="j">&amp; Domain </tspan><tspan x="289.6" dy="1.2em" class="j">Join</tspan></text></a><a target="_blank" href="https://www.microsoft.com/windows/comprehensive-security"><rect x="368" y="752" width="96" height="80" rx="8" ry="8" class="m"/><text x="384.5" y="779.4" class="l">Microsoft <tspan x="385.7" dy="1.2em" class="j">Defender </tspan><tspan x="385.7" dy="1.2em" class="j">Antivirus</tspan></text></a><a target="_blank" href="https://learn.microsoft.com/windows/security/threat-protection/windows-defender-application-control/applocker/applocker-overview"><rect x="480" y="464" width="96" height="80" rx="8" ry="8" class="m"/><text x="491.4" y="508.2" class="l">AppLocker</text></a><a target="_blank" href="https://learn.microsoft.com/windows/deployment/vda-subscription-activation"><rect x="144" y="1040" width="96" height="80" rx="8" ry="8" class="m"/><text x="161.3" y="1067.4" class="l">Windows <tspan x="148" dy="1.2em" class="j">Virtualization </tspan><tspan x="170.2" dy="1.2em" class="j">Rights</tspan></text></a><a target="_blank" href="https://learn.microsoft.com/windows-server/remote/remote-access/directaccess/directaccess"><rect x="368" y="656" width="96" height="80" rx="8" ry="8" class="m"/><text x="374.8" y="699.9" class="o">DirectAccess</text></a><a target="_blank" href="https://learn.microsoft.com/windows-server/networking/branchcache/branchcache"><rect x="480" y="560" width="96" height="80" rx="8" ry="8" class="m"/><text x="486.1" y="603.9" class="o">BranchCache</text></a><a target="_blank" href="https://learn.microsoft.com/windows/security/identity-protection/credential-guard/credential-guard"><rect x="704" y="560" width="96" height="80" rx="8" ry="8" class="m"/><text x="717.8" y="595.8" class="l">Credential <tspan x="731.4" dy="1.2em" class="j">Guard</tspan></text></a><a target="_blank" href="https://learn.microsoft.com/windows/deployment/update/waas-overview#long-term-servicing-channel"><rect x="704" y="656" width="96" height="80" rx="8" ry="8" class="m"/><text x="715.8" y="683.4" class="l">Long Term <tspan x="720.5" dy="1.2em" class="j">Servicing </tspan><tspan x="724.4" dy="1.2em" class="j">Channel</tspan></text></a><a target="_blank" href="https://learn.microsoft.com/windows-server/remote/remote-access/vpn/always-on-vpn/"><rect x="144" y="464" width="96" height="80" rx="8" ry="8" class="m"/><text x="156.2" y="499.8" class="l">Always On <tspan x="177.6" dy="1.2em" class="j">VPN</tspan></text></a><a target="_blank" href="https://learn.microsoft.com/universal-print/"><rect x="592" y="848" width="96" height="80" rx="8" ry="8" class="m"/><text x="608.5" y="883.8" class="l">Universal <tspan x="624.1" dy="1.2em" class="j">Print</tspan></text></a><a target="_blank" href="https://learn.microsoft.com/fasttrack/products-and-capabilities#app-assure"><rect x="592" y="464" width="96" height="80" rx="8" ry="8" class="m"/><text x="600.7" y="508.2" class="l">App Assure</text></a><a target="_blank" href="https://learn.microsoft.com/windows/deployment/windows-autopilot/windows-autopilot"><rect x="144" y="944" width="96" height="80" rx="8" ry="8" class="m"/><text x="161.3" y="979.8" class="l">Windows <tspan x="161.3" dy="1.2em" class="j">Autopilot</tspan></text></a><a target="_blank" href="https://learn.microsoft.com/windows/security/information-protection/bitlocker/bitlocker-overview"><rect x="368" y="560" width="96" height="80" rx="8" ry="8" class="m"/><text x="376.7" y="587.4" class="l">BitLocker &amp; <tspan x="375.2" dy="1.2em" class="j">BitLocker to </tspan><tspan x="406.3" dy="1.2em" class="j">Go</tspan></text></a><a target="_blank" href="https://learn.microsoft.com/windows/security/threat-protection/windows-firewall/windows-firewall-with-advanced-security"><rect x="368" y="944" width="96" height="80" rx="8" ry="8" class="m"/><text x="385.3" y="979.8" class="l">Windows <tspan x="389.9" dy="1.2em" class="j">Firewall</tspan></text></a><a target="_blank" href="https://learn.microsoft.com/windows/security/threat-protection/windows-defender-application-control/windows-defender-application-control"><rect x="256" y="464" width="96" height="80" rx="8" ry="8" class="m"/><text x="265.9" y="499.8" class="l">Application <tspan x="279.1" dy="1.2em" class="j">Control</tspan></text></a><a target="_blank" href="https://learn.microsoft.com/windows-server/storage/refs/refs-overview"><rect x="144" y="848" width="96" height="80" rx="8" ry="8" class="m"/><text x="148.8" y="875.4" class="l">Resilient File <tspan x="167.1" dy="1.2em" class="j">System </tspan><tspan x="171.1" dy="1.3em" class="n">(ReFS)</tspan></text></a><a target="_blank" href="https://learn.microsoft.com/windows-server/storage/file-server/smb-direct"><rect x="256" y="848" width="96" height="80" rx="8" ry="8" class="m"/><text x="266.7" y="892.2" class="l">SMB Direct</text></a><a target="_blank" href="https://learn.microsoft.com/windows-hardware/customize/enterprise/unified-write-filter"><rect x="480" y="848" width="96" height="80" rx="8" ry="8" class="m"/><text x="484.8" y="883.8" class="l">Unified Write <tspan x="510.9" dy="1.2em" class="j">Filter</tspan></text></a><a target="_blank" href="https://learn.microsoft.com/windows-server/storage/storage-spaces/deploy-pmem"><rect x="592" y="752" width="96" height="80" rx="8" ry="8" class="m"/><text x="606.2" y="787.8" class="l">Persistent <tspan x="613.2" dy="1.2em" class="j">Memory</tspan></text></a><a target="_blank" href="https://learn.microsoft.com/windows/client-management/mdm/mdm-overview"><rect x="144" y="752" width="96" height="80" rx="8" ry="8" class="m"/><text x="155.8" y="787.8" class="l">Manage by <tspan x="175.3" dy="1.2em" class="j">MDM</tspan></text></a><a target="_blank" href="https://go.microsoft.com/fwlink/?linkid=2085130"><rect x="704" y="752" width="96" height="80" rx="8" ry="8" class="m"/><text x="734" y="774" class="p">Power <tspan x="724.3" dy="1.2em" class="j">Automate </tspan><tspan x="726" dy="1.2em" class="j">Attended </tspan><tspan x="709.7" dy="1.2em" class="j">Desktop Flows</tspan></text></a><a target="_blank" href="https://learn.microsoft.com/windows/deployment/windows-autopatch/overview/windows-autopatch-overview"><rect x="704" y="848" width="96" height="80" rx="8" ry="8" class="m"/><text x="721.3" y="883.8" class="l">Windows <tspan x="717.4" dy="1.2em" class="j">Autopatch</tspan></text></a><a target="_blank" href="https://www.microsoft.com/edge/business"><rect x="480" y="656" width="96" height="80" rx="8" ry="8" class="m"/><text x="499.6" y="691.8" class="l">Edge for <tspan x="496.9" dy="1.2em" class="j">Business</tspan></text></a><a target="_blank" href="https://learn.microsoft.com/windows-hardware/customize/enterprise/custom-logon"><rect x="144" y="656" width="96" height="80" rx="8" ry="8" class="m"/><text x="166" y="691.8" class="l">Custom <tspan x="170.6" dy="1.2em" class="j">Logon</tspan></text></a><a target="_blank" href="https://learn.microsoft.com/windows-hardware/customize/enterprise/keyboardfilter"><rect x="592" y="656" width="96" height="80" rx="8" ry="8" class="m"/><text x="607.7" y="691.8" class="l">Keyboard <tspan x="622.9" dy="1.2em" class="j">Filter</tspan></text></a><a target="_blank" href="https://learn.microsoft.com/windows-hardware/customize/enterprise/shell-launcher"><rect x="256" y="656" width="96" height="80" rx="8" ry="8" class="m"/><text x="278" y="691.8" class="l">Custom <tspan x="287.3" dy="1.2em" class="j">Shell</tspan></text></a><a target="_blank" href="https://learn.microsoft.com/windows-hardware/customize/enterprise/unbranded-boot"><rect x="368" y="848" width="96" height="80" rx="8" ry="8" class="m"/><text x="379.1" y="883.8" class="l">Unbranded <tspan x="400.1" dy="1.2em" class="j">Boot</tspan></text></a><a target="_blank" href="https://m365maps.com/"><rect y="1184" width="944" height="16" class="q"/><text x="854.6" y="1195.6" class="r">m365maps.com</text></a><a target="_blank" href="https://learn.microsoft.com/windows/whats-new/windows-11-plan#servicing-and-support"><rect x="256" y="1040" width="96" height="80" rx="8" ry="8" class="m"/><text x="272.9" y="1067.4" class="l">36 month <tspan x="266.7" dy="1.2em" class="j">support for </tspan><tspan x="263.6" dy="1.2em" class="j">Windows 11</tspan></text></a><a target="_blank" href="https://learn.microsoft.com/microsoft-desktop-optimization-pack/"><rect x="256" y="752" width="96" height="80" rx="8" ry="8" class="m"/><text x="283" y="787.8" class="l">MDOP<tspan x="277.3" dy="1.3em" class="n">(retiring)</tspan></text></a><a target="_blank" href="https://learn.microsoft.com/windows/configuration/kiosk-single-app"><rect x="704" y="464" width="96" height="80" rx="8" ry="8" class="m"/><text x="720.5" y="499.8" class="l">Assigned <tspan x="727.5" dy="1.2em" class="j">Access</tspan></text></a></svg>