<svg xmlns="http://www.w3.org/2000/svg" width="1216" height="720" viewBox="0 0 1216 720" class="a"><style>
.b {fill:#a5a5a5;fill-opacity:0.2;stroke:#008800;stroke-linecap:round;stroke-linejoin:round;stroke-width:2.2}
.c {fill:#7f7f7f;fill-opacity:0.2;stroke:none;stroke-linecap:round;stroke-linejoin:round;stroke-width:2.2}
.d {fill:#a5a5a5;fill-opacity:0.2;stroke:#000088;stroke-linecap:round;stroke-linejoin:round;stroke-width:2.2}
.e {fill:#000088;stroke:#000088;stroke-linecap:round;stroke-linejoin:round;stroke-width:2.2}
.f {fill:#ffffff;font-family:Arial;font-size:1.5em;font-weight:bold}
.g {fill:#a5a5a5;fill-opacity:0.2;stroke:#006600;stroke-linecap:round;stroke-linejoin:round;stroke-width:2.2}
.h {fill:#006600;stroke:#006600;stroke-linecap:round;stroke-linejoin:round;stroke-width:2.2}
.i {fill:#000088;stroke:none;stroke-linecap:round;stroke-linejoin:round;stroke-width:1}
.j {fill:#ffffff;font-family:Arial;font-size:1.2em;font-weight:bold}
.k {fill:#006600;stroke:none;stroke-linecap:round;stroke-linejoin:round;stroke-width:1}
.l {fill:#008060;stroke:none;stroke-linecap:round;stroke-linejoin:round;stroke-width:1}
.m {font-size:0.9em}
.n {font-size:1em}
.o {fill:#595959;fill-opacity:0.8;stroke:none;stroke-linecap:round;stroke-linejoin:round;stroke-width:1}
.p {fill:#ffffff;font-family:Symbol;font-size:1.2em}
.q {font-family:Arial;font-size:1em}
.r {fill:#008800;stroke:none;stroke-linecap:round;stroke-linejoin:round;stroke-width:1}
.s {fill:#008800;stroke:#008800;stroke-linecap:round;stroke-linejoin:round;stroke-width:2.2}
.t {fill:none;stroke:none;stroke-linecap:round;stroke-linejoin:round;stroke-width:0.8}
.u {fill:#7f7f7f;font-family:Arial;font-size:1em}
.a {fill:none;fill-rule:evenodd;font-size:12px;overflow:visible;stroke-linecap:square;stroke-miterlimit:3}
</style><rect x="304" y="16" width="272" height="688" rx="8" ry="8" class="b"/><rect x="16" y="96" width="1184" height="48" rx="8" ry="8" class="c"/><rect x="16" y="160" width="1184" height="48" rx="8" ry="8" class="c"/><rect x="16" y="368" width="1184" height="48" rx="8" ry="8" class="c"/><rect x="16" y="560" width="1184" height="48" rx="8" ry="8" class="c"/><rect x="16" y="432" width="1184" height="48" rx="8" ry="8" class="c"/><rect x="16" y="224" width="1184" height="48" rx="8" ry="8" class="c"/><rect x="16" y="496" width="1184" height="48" rx="8" ry="8" class="c"/><rect x="16" y="624" width="1184" height="48" rx="8" ry="8" class="c"/><rect x="912" y="16" width="272" height="688" rx="8" ry="8" class="d"/><a target="_blank" href="https://www.microsoft.com/cloud-platform/desktop-virtualization"><rect x="912" y="16" width="272" height="48" rx="8" ry="8" class="e"/><text x="954.5" y="45.4" class="f">Azure Virtual Desktop</text></a><rect x="608" y="16" width="272" height="688" rx="8" ry="8" class="g"/><a target="_blank" href="https://www.microsoft.com/windows-365/enterprise"><rect x="608" y="16" width="272" height="48" rx="8" ry="8" class="h"/><text x="640" y="45.4" class="f">Windows 365 Enterprise</text></a><a target="_blank" href="https://learn.microsoft.com/windows-365/business-enterprise-comparison#purchasing-and-licensing-comparisons"><rect x="928" y="96" width="240" height="48" rx="8" ry="8" class="i"/><text x="977.2" y="124.2" class="j">Platform as a Service</text></a><a target="_blank" href="https://learn.microsoft.com/windows-365/business-enterprise-comparison#purchasing-and-licensing-comparisons"><rect x="624" y="96" width="240" height="48" rx="8" ry="8" class="k"/><text x="672" y="124.2" class="j">Software as a Service</text></a><a target="_blank" href="https://learn.microsoft.com/windows-365/business-enterprise-comparison#administrative-comparisons"><rect x="32" y="96" width="240" height="48" rx="8" ry="8" class="l"/><text x="83.2" y="124.2" class="j">Cloud Service Model</text></a><a target="_blank" href="https://learn.microsoft.com/windows-365/business-enterprise-comparison#administrative-comparisons"><rect x="32" y="160" width="240" height="48" rx="8" ry="8" class="l"/><text x="106.1" y="188.2" class="j">Pricing Model</text></a><a target="_blank" href="https://learn.microsoft.com/windows-365/business-enterprise-comparison#administrative-comparisons"><rect x="32" y="368" width="240" height="48" rx="8" ry="8" class="l"/><text x="82.4" y="396.2" class="j">Management System</text></a><a target="_blank" href="https://learn.microsoft.com/windows-365/business-enterprise-comparison#administrative-comparisons"><rect x="32" y="560" width="240" height="48" rx="8" ry="8" class="l"/><text x="88.2" y="588.2" class="j">Operating Systems</text></a><a target="_blank" href="https://learn.microsoft.com/windows-365/business-enterprise-comparison#administrative-comparisons"><rect x="32" y="432" width="240" height="48" rx="8" ry="8" class="l"/><text x="69.5" y="460.2" class="j">Management Complexity</text></a><a target="_blank" href="https://learn.microsoft.com/windows-365/business-enterprise-comparison#administrative-comparisons"><rect x="32" y="224" width="240" height="48" rx="8" ry="8" class="l"/><text x="132.6" y="252.2" class="j">Costs</text></a><a target="_blank" href="https://learn.microsoft.com/windows-365/business-enterprise-comparison#administrative-comparisons"><rect x="32" y="496" width="240" height="48" rx="8" ry="8" class="l"/><text x="95.2" y="524.2" class="j">Skillset Required</text></a><a target="_blank" href="https://learn.microsoft.com/windows-365/business-enterprise-comparison#administrative-comparisons"><rect x="32" y="624" width="240" height="48" rx="8" ry="8" class="l"/><text x="85.1" y="652.2" class="j">Desktop Experience</text></a><a target="_blank" href="https://learn.microsoft.com/windows-365/business-enterprise-comparison#purchasing-and-licensing-comparisons"><rect x="928" y="160" width="240" height="48" rx="8" ry="8" class="i"/><text x="980.3" y="179.8" class="j">Consumption-based<tspan x="1004" dy="1.4em" class="m">(pay as you go)</tspan></text></a><a target="_blank" href="https://learn.microsoft.com/windows-365/business-enterprise-comparison#purchasing-and-licensing-comparisons"><rect x="624" y="160" width="240" height="48" rx="8" ry="8" class="k"/><text x="684.5" y="179.8" class="j">User subscription<tspan x="707.7" dy="1.4em" class="m">No user limit</tspan></text></a><a target="_blank" href="https://learn.microsoft.com/windows-365/business-enterprise-comparison#purchasing-and-licensing-comparisons"><rect x="928" y="368" width="240" height="48" rx="8" ry="8" class="i"/><text x="948.8" y="396.2" class="j">AVD native, Citrix, or VMWare</text></a><a target="_blank" href="https://learn.microsoft.com/windows-365/business-enterprise-comparison#purchasing-and-licensing-comparisons"><rect x="624" y="368" width="240" height="48" rx="8" ry="8" class="k"/><text x="677.9" y="387.8" class="j">Intune management <tspan x="696.3" dy="1.4em" class="m">(cloud or hybrid)</tspan></text></a><a target="_blank" href="https://learn.microsoft.com/windows-365/business-enterprise-comparison#purchasing-and-licensing-comparisons"><rect x="624" y="560" width="240" height="48" rx="8" ry="8" class="k"/><text x="684.5" y="579.8" class="j">Windows desktop <tspan x="695.4" dy="1.2em" class="n">single</tspan>-session</text></a><a target="_blank" href="https://learn.microsoft.com/windows-365/business-enterprise-comparison#purchasing-and-licensing-comparisons"><rect x="928" y="560" width="240" height="48" rx="8" ry="8" class="i"/><text x="958.5" y="579.8" class="j">Windows desktop &amp; server <tspan x="971.8" dy="1.2em" class="n">single or multi</tspan>-session</text></a><a target="_blank" href="https://learn.microsoft.com/windows-365/business-enterprise-comparison#purchasing-and-licensing-comparisons"><rect x="624" y="432" width="240" height="48" rx="8" ry="8" class="k"/><text x="680.2" y="460.2" class="j">Simple - Enterprise</text></a><a target="_blank" href="https://learn.microsoft.com/windows-365/business-enterprise-comparison#purchasing-and-licensing-comparisons"><rect x="928" y="432" width="240" height="48" rx="8" ry="8" class="i"/><text x="1009.5" y="460.2" class="j">Specialised</text></a><a target="_blank" href="https://learn.microsoft.com/windows-365/business-enterprise-comparison#purchasing-and-licensing-comparisons"><rect x="624" y="496" width="240" height="48" rx="8" ry="8" class="k"/><text x="657.3" y="524.2" class="j">Commodity desktop skills</text></a><a target="_blank" href="https://learn.microsoft.com/windows-365/business-enterprise-comparison#purchasing-and-licensing-comparisons"><rect x="928" y="496" width="240" height="48" rx="8" ry="8" class="i"/><text x="976.4" y="524.2" class="j">Specialised VDI skills</text></a><a target="_blank" href="https://learn.microsoft.com/windows-365/business-enterprise-comparison#purchasing-and-licensing-comparisons"><rect x="624" y="624" width="240" height="48" rx="8" ry="8" class="k"/><text x="678.6" y="652.2" class="j">Personal always-on</text></a><a target="_blank" href="https://learn.microsoft.com/windows-365/business-enterprise-comparison#purchasing-and-licensing-comparisons"><rect x="928" y="624" width="240" height="48" rx="8" ry="8" class="i"/><text x="984.6" y="652.2" class="j">Personal or pooled</text></a><g><rect x="944" y="256" width="224" height="96" rx="8" ry="8" class="o"/><text x="952" y="285.5" class="p"><tspan class="n">·</tspan><tspan class="q">Networking </tspan><tspan x="952" dy="1.4em" class="n">·</tspan><tspan class="q">Storage </tspan><tspan x="952" dy="1.4em" class="n">·</tspan><tspan class="q">Compute </tspan><tspan x="952" dy="1.4em" class="n">·</tspan><tspan class="q">Configuration &amp; deployment</tspan></text></g><a target="_blank" href="https://learn.microsoft.com/windows-365/business-enterprise-comparison#purchasing-and-licensing-comparisons"><rect x="928" y="224" width="240" height="48" rx="8" ry="8" class="i"/><text x="944.9" y="252.2" class="j">Variable with component costs</text></a><g><rect x="640" y="256" width="224" height="64" rx="8" ry="8" class="o"/><text x="648" y="293.2" class="p"><tspan class="n">·</tspan><tspan class="q"></tspan><tspan class="q">Per</tspan><tspan class="q">-</tspan><tspan class="q">user subscription license </tspan><tspan x="648" dy="1.4em" class="n">·</tspan><tspan class="q"></tspan><tspan class="q">Azure networking or data cap</tspan></text></g><a target="_blank" href="https://learn.microsoft.com/windows-365/business-enterprise-comparison#purchasing-and-licensing-comparisons"><rect x="624" y="224" width="240" height="48" rx="8" ry="8" class="k"/><text x="678.6" y="243.8" class="j">Predictable flat-rate<tspan x="664.7" dy="1.4em" class="m">(optional Azure networking)</tspan></text></a><a target="_blank" href="https://learn.microsoft.com/windows-365/business-enterprise-comparison#purchasing-and-licensing-comparisons"><rect x="320" y="96" width="240" height="48" rx="8" ry="8" class="r"/><text x="368" y="124.2" class="j">Software as a Service</text></a><a target="_blank" href="https://learn.microsoft.com/windows-365/business-enterprise-comparison#purchasing-and-licensing-comparisons"><rect x="320" y="160" width="240" height="48" rx="8" ry="8" class="r"/><text x="380.5" y="179.8" class="j">User subscription<tspan x="401.6" dy="1.4em" class="m">300 user limit</tspan></text></a><a target="_blank" href="https://learn.microsoft.com/windows-365/business-enterprise-comparison#purchasing-and-licensing-comparisons"><rect x="320" y="368" width="240" height="48" rx="8" ry="8" class="r"/><text x="396.8" y="387.8" class="j">Online portal<tspan x="354.3" dy="1.4em" class="m">(optional Intune management)</tspan></text></a><a target="_blank" href="https://learn.microsoft.com/windows-365/business-enterprise-comparison#purchasing-and-licensing-comparisons"><rect x="320" y="560" width="240" height="48" rx="8" ry="8" class="r"/><text x="380.5" y="579.8" class="j">Windows desktop <tspan x="391.4" dy="1.2em" class="n">single</tspan>-session</text></a><a target="_blank" href="https://learn.microsoft.com/windows-365/business-enterprise-comparison#purchasing-and-licensing-comparisons"><rect x="320" y="432" width="240" height="48" rx="8" ry="8" class="r"/><text x="392.2" y="460.2" class="j">Simple - Basic</text></a><a target="_blank" href="https://learn.microsoft.com/windows-365/business-enterprise-comparison#purchasing-and-licensing-comparisons"><rect x="320" y="496" width="240" height="48" rx="8" ry="8" class="r"/><text x="356" y="524.2" class="j">No desktop skills needed</text></a><a target="_blank" href="https://learn.microsoft.com/windows-365/business-enterprise-comparison#purchasing-and-licensing-comparisons"><rect x="320" y="624" width="240" height="48" rx="8" ry="8" class="r"/><text x="374.6" y="652.2" class="j">Personal always-on</text></a><g><rect x="336" y="256" width="224" height="64" rx="8" ry="8" class="o"/><text x="344" y="293.2" class="p"><tspan class="n">·</tspan><tspan class="q"></tspan><tspan class="q">Per</tspan><tspan class="q">-</tspan><tspan class="q">user subscription license </tspan><tspan x="344" dy="1.4em" class="n">·</tspan><tspan class="q"></tspan><tspan class="q">Data cap set on vCPU count</tspan></text></g><a target="_blank" href="https://learn.microsoft.com/windows-365/business-enterprise-comparison#purchasing-and-licensing-comparisons"><rect x="320" y="224" width="240" height="48" rx="8" ry="8" class="r"/><text x="374.6" y="252.2" class="j">Predictable flat-rate</text></a><a target="_blank" href="https://www.microsoft.com/windows-365/business"><rect x="304" y="16" width="272" height="48" rx="8" ry="8" class="s"/><text x="340.5" y="45.4" class="f">Windows 365 Business</text></a><a target="_blank" href="https://m365maps.com/"><rect y="704" width="1216" height="16" class="t"/><text x="1126.6" y="715.6" class="u">m365maps.com</text></a></svg>